<?xml version="1.0" encoding="UTF-8" standalone="no"?>
<svg
   xmlns:dc="http://purl.org/dc/elements/1.1/"
   xmlns:cc="http://creativecommons.org/ns#"
   xmlns:rdf="http://www.w3.org/1999/02/22-rdf-syntax-ns#"
   xmlns:svg="http://www.w3.org/2000/svg"
   xmlns="http://www.w3.org/2000/svg"
   width="642.21881"
   height="1420.1204"
   id="svg2"
   version="1.0">
  <defs
     id="defs4" />
  <metadata
     id="metadata7">
    <rdf:RDF>
      <cc:Work
         rdf:about="">
        <dc:format>image/svg+xml</dc:format>
        <dc:type
           rdf:resource="http://purl.org/dc/dcmitype/StillImage" />
        <dc:title></dc:title>
      </cc:Work>
    </rdf:RDF>
  </metadata>
  <g
     transform="matrix(0.84187959,0,0,0.84187959,1150.2957,242.92095)"
     style="display:inline"
     id="layer1-9" />
  <path
     d="m 541.21491,420.93261 c 2.38619,0.42871 4.38177,-0.12398 5.04237,-1.66011 1.19074,-2.76663 3.9255,-8.22692 6.71325,-11.43693 l 0.135,-6.63189 4.84093,-2.85792 2.84097,-6.57379 0.22494,-4.49903 6.72221,-2.61304 -2.43894,-3.71278 1.04101,-4.1691 4.08304,-0.55033 1.08143,-2.83786 -3.17371,-3.07447 1.53792,-4.72856 3.80447,0.65126 9.47545,-2.60948 3.72853,-3.95362 2.77465,0.70187 7.63397,-0.68825 1.05123,-8.02666 3.8245,-6.27808 1.40977,-17.10142 1.39317,-4.18669 0.009,-5.93347 2.43246,-2.78933 3.81639,0.004 3.13118,-6.6279 -0.76661,-10.90864 2.87197,-7.58806 0.007,-5.23563 3.8261,-7.32507 -1.38373,-3.14337 -15.27469,6.61212 -9.36546,-1.75704 -3.11545,-5.58882 -0.33969,-5.58498 2.08851,-5.23309 -3.81419,-1.75007 -9.36795,-0.0107 -5.90043,1.73765 -4.85416,-2.4494 0.006,-4.53752 11.13361,-24.06965 4.8582,-0.6919 0.69153,1.74576 10.25833,1.45485 1.53604,0.30592 2.77687,-1.04386 -0.68836,-4.18941 4.17365,-8.0228 0.0132,-10.47118 -6.58722,-3.84788 -3.12155,-0.70206 c 0,0 -5.19048,-10.82708 -5.19048,-10.82708 l 3.83056,-10.81543 1.40305,-11.86579 -0.5139,-5.06172 2.4372,-6.62893 0.19083,-13.4379 1.58,-14.65785 -1.88576,-17.4549 -2.93854,-8.20621 -6.92851,-8.211303 -3.11027,-9.602725 1.74182,-5.408127 1.57436,-10.120326 5.73678,-9.416767 9.54532,-3.12927 3.82157,-4.009008 -1.20589,-6.458603 -1.55638,-3.841477 -9.88502,-2.455989 -10.05431,-5.772322 -3.9857,-3.320777 -8.15059,-2.279523 -7.45884,-0.533298 -11.61407,-6.82111 -1.38394,-2.968697 -2.94889,-0.352907 -2.24947,-4.365866 -2.08421,1.917115 1.38349,3.31785 -2.42618,-1.923033 -2.60268,0.345669 -2.95447,4.184712 -2.07999,-1.224376 -2.2571,1.3933 -2.60018,-1.574086 0.17764,-3.141204 -1.21021,-3.317382 -2.95154,1.915804 -1.21265,-1.223235 -2.60783,4.35975 0.68952,3.491461 -3.29664,0.344654 -2.2511,-3.144319 1.56382,-1.917501 -2.25285,-1.923024 -2.77554,-0.0027 -3.98569,-3.320778 -0.8615,-4.713582 -1.90977,1.219202 -0.35117,3.315588 -3.47449,3.834731 -2.42862,-0.0027 1.20839,4.539315 2.7735,1.748748 3.46281,5.240146 -0.69895,3.838558 -1.73689,1.743018 0.1673,4.71229 -1.73378,-0.700543 -0.68993,-3.141796 1.39134,-2.616345 c 0,0 -1.38596,-1.572219 -1.38596,-1.572219 l -2.95042,1.043132 -0.87161,3.314841 -1.73804,2.61561 1.21131,2.270228 4.6826,1.05336 -0.003,1.396218 -2.25737,1.567773 0.86643,0.69915 5.02977,0.878895 -0.003,2.792347 -6.5967,3.65665 -1.73465,-0.176557 -2.60669,3.486979 -0.35454,5.93319 -1.38956,1.394342 1.90618,1.573583 -3.30091,3.83492 -3.47087,1.042567 -3.98529,-3.670012 0.69987,-4.710988 -3.64132,-1.401004 -4.51491,3.65911 -1.38685,-0.874468 -2.78048,3.835926 -3.30405,6.10409 -3.12381,1.043113 -1.90731,-0.700453 -2.08601,3.313144 1.55681,3.492431 -3.30139,4.009673 1.73421,0.526061 -0.003,2.617684 0.69265,0.873435 -2.25981,3.662199 1.55977,1.223711 -0.003,3.490275 -2.77983,3.138012 2.42687,1.39914 -1.22076,5.05973 -1.73753,2.0918 -2.08155,-0.003 -2.08469,2.26617 -0.01,6.80624 -2.95067,1.21798 -0.69286,-0.87362 -1.90976,1.21929 -0.005,4.88667 2.08088,0.70074 -3.12716,3.48641 -3.64374,0.51893 -1.04561,3.66353 -3.29821,1.74121 1.38461,2.44471 3.64374,-0.51873 2.33853,2.70815 -0.95592,1.30762 -1.38797,0.17306 -1.73759,2.09215 2.59953,2.09762 0.16661,4.53781 3.29172,3.32002 -4.33819,1.04143 -3.81352,-2.27352 -1.21086,-2.79402 -3.29978,2.96277 -1.90799,-0.35159 -1.21712,2.2673 -4.16511,1.21619 c 0,0 -0.51707,-2.61843 -0.51707,-2.61843 l 3.64556,-1.91496 -0.51819,-1.74592 -4.16488,1.0417 -2.43157,2.2658 -6.42179,2.43519 -1.91249,3.31308 -4.33908,1.56533 -2.94641,-2.09809 -1.03707,-2.96832 -1.90844,0.17249 -2.77914,2.78868 1.38261,4.01595 5.45905,4.37019 -0.26791,5.93319 -1.90952,0.87032 2.42482,3.1445 -2.60355,1.04378 -2.77351,-1.74893 -1.73648,1.39387 -1.56558,3.31399 -5.90156,2.61025 -9.51614,-0.19368 -2.18391,0.97311 1.93376,2.72873 4.904,2.22756 -0.003,1.97436 -3.19073,0.98315 0.23903,4.93641 3.91837,5.43515 1.9616,0.74282 -0.98415,2.22024 -5.40216,3.69522 -0.004,3.94897 -1.71943,1.72526 1.46771,3.2108 2.20941,-0.98485 1.54512,2.76288 4.80014,-3.06782 1.43172,2.14852 2.6493,-2.83813 1.99168,-0.0355 -0.0527,-6.48878 2.54856,0.003 4.64389,5.19403 -1.35194,2.8355 -2.14001,-0.18805 -4.81981,2.56662 -2.02786,0.17461 1.18512,3.96177 -2.8193,0.38987 -3.42058,-1.72 -2.70133,2.218 6.37324,4.20388 7.11461,0.007 1.47363,-1.23216 1.95717,4.19816 -2.94702,2.46449 -3.92631,0.73541 0.97716,3.20991 -1.47395,1.47875 -4.17077,-0.004 -0.003,2.46834 -1.96385,0.9845 -1.96087,-1.4834 -4.41749,1.22821 -0.73958,2.71414 -5.15078,-0.99398 -3.19335,3.20455 -3.68765,5.91868 -5.15263,0.487 1.47587,-2.96 2.69996,-0.98351 1.23174,-3.94763 -2.20816,-0.002 -2.45521,1.47768 -4.90508,-1.24066 -2.6952,-2.71842 -2.94543,1.23073 -0.25013,3.70139 -4.90729,0.48746 -3.44119,4.93195 2.20467,2.7177 -4.41707,0.73478 -0.24281,-1.9748 -3.43241,-1.73188 -1.96511,1.97212 2.93901,3.95264 -2.94791,2.95813 -3.18879,-0.49775 -1.22889,1.72597 -2.20574,-1.73062 -2.2019,-4.69197 -3.67995,-0.004 -1.22411,-1.97632 -3.92887,2.70983 1.22443,1.7291 7.10857,4.69895 -0.003,2.46808 -3.43651,1.47642 1.4698,1.72947 -1.08959,2.40348 3.2918,2.04216 -2.20887,0.73736 -0.003,1.97453 -3.18942,-0.003 -0.73328,-2.22228 -1.22643,-0.001 -1.22921,1.97283 -2.88911,-0.9818 -0.30947,4.1867 1.17971,3.04194 2.24276,0.10539 -0.003,2.79234 -2.03202,0.20298 0.11279,2.25805 3.30137,2.77549 1.73421,0.35131 1.386,1.39792 c 0,0 2.4302,-1.04415 2.4302,-1.04415 l 6.23609,6.98908 4.84655,8.38333 8.61936,9.66423 3.50116,-0.98209 10.79415,2.70868 3.14855,0.23531 7.85293,6.1179 v 0 l 0.33472,5.53665 3.3613,8.42894 -1.79615,4.35912 -3.1299,8.34398 6.49052,1.82494 -2.78248,1.47507 -3.03395,7.57233 3.38935,2.27227 2.08401,15.55257 3.39106,7.57364 -9.11212,6.09504 -1.30867,3.31588 -5.20777,2.78576 3.12107,1.05093 -0.35092,3.14165 6.92874,8.03674 -3.13141,6.97686 -0.0116,9.07549 6.93549,2.80092 -2.43224,2.78924 -5.55176,0.342 0.68435,7.33081 1.73352,1.04924 -0.68154,6.43364 1.70266,8.92571 -4.52031,7.67327 -0.0116,9.07514 -7.29966,10.46204 3.45068,14.66424 -2.0901,6.62922 -4.51807,5.92801 -19.48381,42.20921 -3.37301,9.12543 -3.58403,4.82753 1.72432,8.03023 -3.77966,10.93914 -2.48899,7.20306 -0.13706,11.58601 -6.0431,14.02231 0.33924,6.28352 -8.2139,11.7874 -0.0677,20.38837 7.6025,9.01088 -3.70467,5.7688 1.07833,4.82271 -9.02319,0.63387 6.35528,6.12755 12.14032,6.04466 -2.10105,13.9597 -9.03551,6.96962 1.03886,2.09568 7.28761,2.4528 -0.006,4.53783 8.67287,4.89798 8.33367,-1.03645 -1.77644,31.41322 -16.33188,11.49793 -0.009,6.98124 -5.57545,16.04963 -0.009,6.28308 -4.51641,2.43762 -5.91829,12.55855 -5.55749,2.08722 -3.47532,2.78801 -3.81882,-0.005 -4.17156,4.18337 2.76851,6.98476 2.05029,25.4841 -1.75888,17.79982 4.16256,2.79786 -3.8267,5.92911 -0.007,5.58496 -4.52044,5.57916 -2.45131,16.40272 -4.86352,2.43716 2.77099,4.8904 -4.87339,10.1165 -0.36751,15.70727 -3.83234,10.46688 -5.90189,-0.009 -0.69759,2.44257 -2.77729,-0.003 -3.46612,-4.54229 -6.59517,-0.70663 -3.46477,-5.58941 -6.59386,-1.75378 -2.77435,-2.447 -7.98542,0.33879 -7.6361,-1.40608 -3.46809,-2.79697 -5.20727,-0.35574 -2.07717,-4.54047 -4.51328,-0.005 -2.77511,-1.74889 -2.07538,-5.93672 -4.1653,-0.70346 -5.20206,-4.19544 -0.34241,-3.84012 -3.11778,-5.23992 -6.94166,-1.40521 -3.12012,-3.49461 -3.81886,-0.005 2.07502,6.28573 -1.74312,5.58275 -4.86898,6.62586 -0.70431,7.67845 -6.25487,4.52971 v 2.79249 l -3.12505,0.34507 0.68769,5.23679 -4.1707,3.48524 -0.01,8.37744 -1.74051,3.48838 -0.009,5.23591 -4.17321,5.57959 -0.0108,8.72651 -1.73909,2.44118 1.37162,13.26609 -7.99664,9.06526 -3.8185,-0.3539 -3.82568,5.2309 -1.05417,9.7724 -3.47492,2.4389 0.34044,5.2364 2.07941,2.7951 2.06065,17.4557 -1.73844,2.0922 -0.0171,13.9624 -7.30068,7.67 -0.009,5.2359 -1.39532,5.234 -4.17025,3.1362 0.68859,4.5388 3.47178,0 11.10014,7.3445 -0.35363,4.8864 5.89316,6.9888 0.33172,11.8685 -1.73791,1.7431 2.07744,4.1913 -1.40214,10.4701 3.12057,3.1455 -3.48426,9.7693 -1.40708,14.3096 -3.13233,5.9301 1.03979,1.3975 -1.05605,11.0599 -4.1249,6.6167 -0.009,4.9664 -1.64829,1.3775 v 3.3109 l -3.85046,6.617 -3.58564,14.0667 -6.04331,4.6828 -3.84283,0.8227 v 2.4832 l -3.02331,3.5831 -2.75446,7.9978 -4.66863,2.7531 -1.92595,3.8602 0.26868,4.415 -3.04073,17.1025 -2.7505,4.963 1.37071,1.1054 -4.13388,13.5143 -6.873953,10.4759 -3.29469,1.3753 -2.20621,8.2745 -8.24486,9.6464 -3.01945,0.5478 -1.37386,1.3777 -0.55246,2.7584 -4.40102,7.9958 -8.24288,7.9909 -5.76349,0.5443 -4.67169,4.9603 -0.009,6.622 -1.1023,3.5855 -0.009,4.9664 -2.48317,10.4814 -5.76672,3.0276 -9.61475,7.7132 -3.02708,6.618 -5.49409,4.4075 -5.48843,-0.011 -0.009,6.622 -1.92442,2.7567 7.13239,1.9406 14.53736,5.2609 9.60524,-0.2636 3.1977,-1.358 5.15573,-0.2401 5.89827,-5.1757 0.98762,-4.4416 4.9128,-2.215 3.68048,1.4858 13.49791,2.9792 5.40249,-1.2271 3.936043,-6.4125 0.0117,-9.1324 3.93389,-4.6846 3.92761,0.252 1.71007,6.4195 2.70074,-0.2433 1.97337,-7.4023 1.47516,-1.7257 v -3.2088 l -7.84506,-8.1553 0.25081,-4.1956 5.89765,-4.4352 4.90965,0.011 9.82795,-6.4047 3.69304,-8.3873 3.93165,-2.9568 7.61141,-0.9775 4.42186,-2.4625 0.009,-3.7023 6.63562,-5.6685 1.72497,-5.181 3.1943,-2.2174 2.7074,-5.4266 7.86409,-6.6541 3.43811,-0.736 1.22406,2.4698 2.9477,-1.4772 3.93848,-8.1401 6.39181,-7.1496 8.10342,-1.7173 4.17106,1.7332 1.95558,6.4198 3.92544,1.9796 8.8388,-0.9757 5.66282,-12.8277 4.42842,-7.3989 3.70912,-20.7284 0.50971,-14.5621 -12.74862,-13.098 -0.48303,-6.1713 4.18326,-7.8928 4.66621,-1.475 6.62665,1.2427 7.61176,-1.2243 14.50462,-16.0249 8.61306,-16.2792 4.91657,-5.177 11.06602,-14.7952 7.37619,-8.8761 4.67038,-4.6837 14.51102,-21.2081 5.17343,-14.0623 5.42568,-19.2452 9.84008,-16.0308 2.2177,-6.4145 9.83267,-10.1072 14.24692,-6.6458 2.2063,2.471 15.70553,4.4631 14.72582,2.734 20.62372,-1.948 7.60699,2.478 10.30294,5.937 -1.15575,-4.3679 2.09184,-6.8039 2.78043,-2.2653 1.39784,-7.154 -2.08018,-2.2715 0.002,-1.5709 1.73689,-0.6958 1.57186,-7.5028 -0.16936,-2.4437 1.04398,-1.9185 -1.7335,-1.922 0.6958,-1.0463 2.42952,0.5267 5.03838,-3.3096 0.005,-3.8396 2.08509,-1.7427 0.87879,-8.3763 3.47328,-1.2173 0.35566,-6.4571 2.25841,-1.3934 -0.34035,-5.41083 1.39019,-1.04539 0.52831,-5.93334 -3.11921,-4.19271 0.005,-5.06141 -4.67537,-8.90707 -1.56106,-0.87465 -0.5092,-9.07625 2.60799,-3.13822 0.35004,-2.2684 -1.04065,-0.69947 0.34869,-1.22126 3.47261,-0.69367 6.25776,-6.62411 2.60419,-0.3457 1.21982,-3.66356 2.25843,-1.39334 1.38773,0.8744 11.80695,-2.42817 3.64931,-2.96235 6.25193,-2.26085 1.21778,-2.09279 -0.86394,-3.14266 2.09094,-6.10585 3.64863,-2.43872 2.43536,-4.01111 1.56265,-0.34703 0.34935,-1.74485 -3.29524,-2.09861 -2.43154,0.86953 -3.2975,-0.52784 -7.28288,-5.94343 -5.02695,-5.59145 -4.68504,-1.40223 -2.77818,0.69454 -2.94723,-2.97081 0.3525,-4.18829 -3.11943,-4.01823 0.0131,-10.29728 2.78039,-2.26531 1.40351,-11.51719 2.60843,-3.48726 0.7023,-6.28219 2.25953,-2.26597 0.18504,-8.90086 -2.59813,-4.36657 -4.33971,-0.006 -1.91243,2.26643 -1.21485,-0.17618 -2.60554,1.3929 -3.98584,-5.24106 -1.90796,-1.04962 -0.33317,-10.99586 1.9122,-2.09193 0.35047,-2.61749 -3.29862,0.34483 -5.20452,-2.27558 -1.90551,-3.14401 -2.08214,-0.7008 -1.38146,-5.58675 -1.90661,-2.27138 0.35542,-6.28261 -1.90841,-0.87512 -0.85877,-7.15688 0.007,-6.63213 1.56421,-1.56876 0.87022,-1.74419 -2.25639,-0.17733 1.73733,-1.04495 0.17597,-2.61773 -2.4277,-1.92295 -1.04199,0.3477 -4.50561,-5.93981 -0.51347,-5.76017 -3.29593,-1.74954 -1.03254,-6.98255 -3.46543,-4.89135 -1.38797,-0.52536 0.006,-5.75951 1.04244,-0.69675 1.74316,-5.58274 3.48026,-6.62768 4.34666,-5.40488 1.92256,-10.29482 3.30468,-5.05711 5.736,-5.92664 1.56803,-4.36124 3.3056,-5.75527 3.47956,-6.10406 5.03887,-3.83319 14.95379,-19.52814 1.9174,-6.28061 7.47329,-6.97163 4.00945,-13.08459 7.30472,-10.98602 1.22407,-6.97965 -1.38663,-1.57262 0.1784,-3.8394 1.73776,-1.39413 1.22613,-8.55038 1.9151,-4.36077 0.009,-6.45756 -2.60329,-0.52701 -4.68096,-4.54381 -0.68793,-4.88771 -5.20543,-1.75204 -2.08489,1.39359 -7.80802,-2.62802 -0.77028,-2.32397 -2.86535,-5.18552 -0.84777,-15.70885 2.0876,-3.488 -1.7189,-13.2664 2.4378,-5.93091 -1.70923,-20.59689 3.13676,-9.42052 3.12573,-1.04312 4.16526,0.70339 2.43423,-3.13829 -1.38373,-3.8413 3.13002,-4.18478 9.02742,-0.68646 13.19896,-4.86982 6.94433,-0.68926 6.25822,-6.973 -1.72746,-6.63447 3.83075,-9.0706 -1.37988,-6.98323 -3.12013,-3.49451 3.48002,-6.27863 2.77598,1.05092 5.20633,1.05374 7.29504,-3.48113 -0.33993,-5.58542 4.52137,-6.27751 -1.51249,-5.06021 0.56845,-4.37158 2.54917,0.16209 4.99908,-7.02179 z"
     style="display:inline;fill:#ffffeb;fill-opacity:1;fill-rule:evenodd;stroke:#646464;stroke-width:3.20000005;stroke-linecap:butt;stroke-linejoin:round;stroke-miterlimit:4;stroke-dasharray:none;stroke-opacity:1"
     id="Bogota,_Código_DANE_:_11001" />
  <path
     id="path2431"
     d="m 22.320167,1398.4977 -2.61565,-1.9182 -8.89319,-0.8719 -6.80067,-3.3132 -5.231291,-4.3593"
     style="fill:none;fill-rule:evenodd;stroke:#646464;stroke-width:3.20000005;stroke-linecap:butt;stroke-linejoin:miter;stroke-miterlimit:4;stroke-dasharray:none;stroke-opacity:1" />
  <path
     id="path2433"
     d="m 53.707887,1405.2983 v 3.3132 l 4.35941,5.9287 1.39501,7.1495"
     style="fill:none;fill-rule:evenodd;stroke:#646464;stroke-width:3.20000005;stroke-linecap:butt;stroke-linejoin:miter;stroke-miterlimit:4;stroke-dasharray:none;stroke-opacity:1" />
</svg>
