<?xml version="1.0" encoding="UTF-8" standalone="no"?>
<svg
   xmlns:dc="http://purl.org/dc/elements/1.1/"
   xmlns:cc="http://creativecommons.org/ns#"
   xmlns:rdf="http://www.w3.org/1999/02/22-rdf-syntax-ns#"
   xmlns:svg="http://www.w3.org/2000/svg"
   xmlns="http://www.w3.org/2000/svg"
   width="3376.0027"
   height="2941.1292"
   id="svg2"
   version="1.1">
  <defs
     id="defs4" />
  <metadata
     id="metadata7">
    <rdf:RDF>
      <cc:Work
         rdf:about="">
        <dc:format>image/svg+xml</dc:format>
        <dc:type
           rdf:resource="http://purl.org/dc/dcmitype/StillImage" />
        <dc:title></dc:title>
      </cc:Work>
    </rdf:RDF>
  </metadata>
  <g
     id="layer3"
     style="display:inline"
     transform="translate(-2931.0665,-7840.1834)">
    <!--     <rect
       style="display:none;opacity:0.98999999;fill:#fefee9;fill-opacity:1;stroke:none;stroke-width:1.06666672"
       id="rect9231"
       width="3376.0027"
       height="2941.1292"
       x="2931.0664"
       y="7840.1831" />
 -->
  </g>
  <path
     d="m 688.967,1136.7549 v -8.8404 l -11.7334,2.3294 -7.4082,-6.1824 -10.2662,-13.118 -0.6117,-14.5788 -4.2776,-5.7034 -22.5287,0.5703 -12.2625,-7.1294 5.4182,-5.1331 12.8329,3.137 5.4183,-4.2777 -0.5703,-11.9773 -2.3098,-4.737 -10.5515,0.5703 -5.4182,-8.27 4.5628,-5.1332 1.1407,-11.692 4.5627,-5.7036 -0.8555,-10.8366 -3.9925,-1.711 -12.8328,10.2662 -11.4069,-6.2738 -2.8518,-13.6883 0.2851,-27.662 -2.5665,-0.5704 -13.118,10.8367 -7.9849,-10.8367 -8.5552,-9.6959 -6.2738,-2.2813 -13.1181,9.1255 -15.3994,-0.5703 -11.9773,-12.5477 0.5704,-14.2587 -1.7111,-9.6959 -6.2738,7.9848 2.2813,19.9623 -13.6883,13.1179 -5.7034,-3.422 1.1406,-10.8366 -6.2739,0.5703 -8.5552,7.4145 h -5.1331 l -14.5504,-9.6959 -11.0638,-1.0035 -11.9773,-8.5553 2.2814,-5.7035 -3.4221,-7.9848 -11.4069,-11.407 -5.7036,-9.696 1.1407,-13.1179 -4.5627,-10.2663 -11.1153,-9.1256 -6.8443,6.8442 -13.118,5.7035 -8.5552,-5.1331 9.6959,-17.6809 -3.9924,-6.2738 -9.6959,-1.711 -7.4145,10.8366 -6.8443,3.9924 -13.118,-9.1255 -6.2738,-20.5326 1.1407,-9.6959 -1.1407,-24.525 -5.1332,-1.1407 -8.5552,6.8441 v 15.9698 l -11.9773,10.8366 -15.3994,-3.9924 -23.3843,-13.118 -8.5553,-2.2814 -18.8214,-13.6884 -16.5402,2.2814 -18.8214,-1.1407 -28.844,-14.3283 -7.4145,-11.9774 6.8442,-6.2738 2.2814,-10.8366 -5.7035,-6.8442 -0.5703,-11.9773 -5.1331,-9.1256 -18.7171,-1.6066 -5.8633,-0.9686 -1.5512,-7.5866 5.6305,-8.4955 10.1929,0.4327 12.5477,9.696 6.8442,-1.7111 -2.8378,-12.1869 2.1515,-10.6868 13.9669,-11.6855 -0.8403,-5.8642 -4.9143,-2.676 -10.2663,4.5329 -2.0246,5.5294 -8.2333,-0.059 -4.0738,-7.4322 2.9976,-11.5265 5.1631,-10.4385 -3.2486,-4.2873 -6.1125,0.7325 -7.2089,12.1532 -7.2465,0.8471 -2.4494,-5.4099 3.8791,-9.7338 4.6761,-5.3739 -5.3089,-6.5955 -13.8626,2.3709 -8.2052,-3.4816 -12.0535,-6.6345 -5.1598,-13.268 2.2814,-5.7035 11.6987,-0.9948 9.6098,-8.2336 1.0827,-10.8098 -8.6766,-5.893 -14.0661,-8.7572 1.1191,-8.9116 5.0518,-5.1331 2.2516,-5.7458 -2.9129,-8.5254 -7.7911,-4.3357 -9.5536,-23.1355 3.6747,-11.5827 349.7943,-98.4063 7.6373,7.9661 547.2137,696.8054 -327.3149,-0.2274 z"
     style="display:inline;fill:#fefee9;fill-opacity:1;stroke:#646464;stroke-width:1.06666672;stroke-linecap:butt;stroke-linejoin:round;stroke-miterlimit:4;stroke-dasharray:none;stroke-opacity:1"
     id="Puerto_Alegría,_Código_DANE_:_91530" />
  <path
     d="m 483.2579,443.6964 13.9205,-3.9366 17.1476,0.3408 14.1383,-16.5521 12.3426,0.4728 24.1187,25.7272 19.2953,-6.4318 8.0399,2.4119 -1.1551,8.8001 -10.3478,8.5462 -1.3608,5.9689 h 7.2356 l 24.9232,-10.4518 16.0791,8.0397 2.4121,17.6872 -8.0398,12.8633 17.6874,14.4715 15.2754,-5.6277 3.2158,-12.8635 3.2159,-1.608 2.4118,15.2756 23.3152,12.8635 8.074,-5.9464 13.6439,-0.5686 18.7603,-8.5274 13.0749,5.9691 9.0961,11.0858 h 7.9588 l 11.0858,-13.0756 20.4656,-7.9588 3.4107,4.8321 3.9798,10.8015 13.6436,9.9486 13.928,1.9895 13.0756,9.096 1.9894,11.6543 7.1062,4.2636 5.9691,0.5682 6.7009,15.3979 12.2224,9.38 10.5172,2.2741 11.0855,-5.1165 10.3538,-1.1856 12.0291,-9.5189 15.3493,-0.2843 14.4964,12.7908 7.1058,-0.8525 1.137,-21.8867 6.538,-8.5277 2.5578,-15.3491 16.4866,-16.2021 13.6438,1.4215 11.8029,8.2808 143.6974,294.8844 -0.1812,5.2597 -9.6127,7.2547 -0.9069,2.1765 4.353,2.9019 0.1812,14.3282 6.3479,5.2598 -4.3528,2.5392 -0.7254,13.6027 6.3479,2.3578 2.9019,4.7156 -4.7157,5.0784 -2.3577,0.1812 0.1814,9.4313 9.6127,13.7841 9.7939,0.5441 5.8039,5.8038 11.2449,-3.2646 9.2499,2.5392 6.5293,-3.4461 4.3529,1.0883 3.9901,8.1616 6.1666,2.7206 14.1469,0.1815 5.8039,-11.7891 3.0833,0.1813 2.3577,3.6273 8.3431,-0.1812 4.5343,-9.6126 11.6075,-3.9902 9.0686,2.7206 -2.3579,7.2548 h 5.6226 l 6.1666,5.4411 0.1814,4.7156 12.8772,4.7156 4.353,-2.7205 4.897,5.9853 3.446,-2.1766 h 9.0685 l 16.3233,-10.1567 8.7057,-1.4509 6.8921,4.3529 v -3.8088 l 10.5194,0.1813 11.7892,12.5146 -3.0833,5.441 h 6.3479 v 5.2598 l -2.1764,3.6274 5.6224,2.3577 4.5343,5.2598 5.8038,-4.897 2.1764,4.7156 9.7941,-2.5392 2.9018,7.9803 3.9902,-6.7106 7.9803,-5.4412 v 3.8088 l 6.7107,2.3578 0.544,5.2598 5.804,-3.9902 0.3626,-4.5342 10.7008,-0.9069 3.8089,-3.9902 4.8969,6.5294 0.1814,4.3529 8.3429,-2.902 4.1715,-3.2647 6.348,4.7157 h 5.9851 l 5.0784,-3.8088 4.5343,3.4461 -2.5392,2.5391 2.7206,8.7058 7.2548,0.5441 5.6225,6.348 2.1764,5.9851 7.799,0.3628 8.1616,5.2597 0.5441,-6.1666 9.0684,-1.2695 1.2697,-4.1715 -5.8038,-6.7108 0.5441,-4.8969 15.4164,-2.902 9.0685,9.4313 4.1715,-3.6274 v -3.8088 l 8.1617,-3.0833 4.3529,-6.3479 13.6027,-0.3627 -0.7255,5.8038 11.6077,7.6175 1.0882,6.348 -7.4362,2.5392 3.9902,5.441 -7.0735,4.8971 -3.446,-0.1813 -3.9902,6.1666 3.4461,4.7156 7.2549,0.9069 2.539,3.446 -11.2449,4.3528 2.3578,5.4412 3.0833,1.4509 4.8971,11.245 3.4459,-7.6176 8.3431,-1.0882 0.9069,5.6225 7.4361,2.7205 3.446,13.0587 -5.6224,3.0832 0.5441,5.9853 -6.1666,5.6225 4.3528,2.1764 h 4.8971 l -0.1815,6.5293 5.9852,8.8871 8.8871,-2.1764 4.1715,1.2695 -8.1616,4.1716 1.8137,12.5145 4.7156,2.5392 0.9069,6.8921 -3.6274,1.6323 -3.6275,6.1666 5.8039,3.0832 2.5392,7.7989 -5.9852,5.4411 1.4509,2.7206 11.6077,-2.3578 0.3627,11.7891 4.5343,1.995 8.5244,-8.5244 3.6274,0.7256 0.7255,423.3176 -21.9713,9.1375 -1.539,8.7209 -9.2338,2.4366 -5.7712,9.8751 -5.0018,-0.7695 -5.8993,7.3101 -4.4887,0.1283 -0.513,-5.2581 -6.9254,-5.643 1.4108,-5.8994 -5.0017,-8.9773 3.2061,-2.565 8.8492,12.8249 1.4107,-6.6689 3.8475,-1.4108 0.2565,-4.617 -5.1299,-2.5649 -0.5131,-3.2062 7.5667,-4.8735 -4.104,-2.4366 2.565,-20.0067 -13.8507,-4.4887 -9.1056,-0.1282 1.5389,4.7452 6.7972,2.5649 -0.3848,5.2581 -3.2062,0.1283 -4.104,-4.7452 -0.5129,2.8215 4.2322,7.6949 -2.4368,0.513 3.5909,6.6689 -3.0778,4.6169 -3.9757,-3.4627 -4.2322,-8.0797 -3.8475,-2.4367 -5.2581,0.3848 -9.4997,10.9572 -7.7989,-7.2547 7.0735,-4.353 -6.348,-9.0684 -3.0833,2.9018 -3.6274,-5.0783 -4.8969,1.8137 -3.9902,-3.9901 -3.9901,2.3578 3.6273,2.5392 -5.0783,6.7107 -10.3381,1.6323 2.7205,-8.5244 4.8971,-4.5343 -3.9902,-9.0684 -5.9852,3.2646 -2.1764,5.8038 -2.3579,-5.9851 -4.5342,6.3479 -6.8921,-1.451 3.8088,-5.441 -4.7156,-2.7207 0.3628,-11.0634 6.7106,-1.451 -5.8038,-1.8138 0.9068,-5.4411 h 7.4362 l 2.902,-5.9851 -5.0784,-8.1617 -6.8921,0.1813 v 2.9019 h 1.451 l 1.6323,3.446 -6.1666,6.348 -9.4312,-14.5097 4.8969,-3.8087 4.7156,-17.4115 -10.7008,-9.4313 h -3.6274 l -2.1764,7.6176 -7.0734,-4.3529 v -8.1616 l 15.5978,-7.0735 1.9951,-4.7157 -12.1518,-3.0832 -5.6225,-5.4411 5.9853,-5.6224 -2.3579,-4.7157 -5.9852,4.7157 -5.8038,-13.24 -4.1715,-2.1766 -7.4362,5.6225 -6.348,-11.4263 h -6.3479 l -7.7989,7.4361 -7.4362,-4.5341 -9.0686,-10.7009 -5.9852,0.1815 7.799,-9.6126 -3.9902,-4.3529 -12.5145,7.0734 -2.7205,-4.3529 5.4411,-8.7057 -9.6126,-7.799 -4.8971,10.3382 -13.24,-14.8723 h -4.8969 l 0.1812,9.6125 -6.7106,3.0834 -11.7891,-11.7892 10.5194,-4.1715 0.3628,-4.7155 -6.8921,-3.9902 0.3628,-16.8674 -7.9803,16.6861 -7.6176,-3.9902 -11.9704,-20.6762 -0.3627,-13.4214 8.343,0.1813 13.0586,-13.9655 -2.5392,-3.8088 -9.0685,5.4411 -7.9802,-6.8921 6.892,-6.3479 -0.1812,-4.897 -14.5096,7.9803 -12.1518,-24.1222 -9.4313,8.343 7.6176,6.8921 -3.8088,9.2499 -11.6077,-13.0587 -5.9852,6.5293 -14.5096,-0.9068 5.8038,-6.7107 -5.2597,-10.1567 h -15.2351 l -8.5243,-4.8971 5.6224,-1.2695 10.3381,-11.4264 -9.794,-11.789 -1e-4,-4e-4 -7.2548,6.5293 -9.6126,4.897 -3.6274,-4.1715 8.7058,-7.0735 -1.8137,-10.1567 -7.9803,-4.3528 8.7058,-1.8138 5.0784,-8.7057 -5.8039,-5.441 -12.696,3.99 -5.0783,-10.5194 -14.8724,-4.7157 1.6324,-15.5977 -5.9852,-7.2548 -0.1813,-5.9853 8.343,1.451 9.794,-13.24 -4.7156,-2.1765 -7.6175,4.897 -5.2598,-3.9901 -185.5415,0.1815 -546.9633,-696.716 z"
     style="display:inline;fill:#fefee9;fill-opacity:1;stroke:#646464;stroke-width:1.06666672;stroke-linecap:butt;stroke-linejoin:round;stroke-miterlimit:4;stroke-dasharray:none;stroke-opacity:1"
     id="La_Chorrera,_Código_DANE_:_91405" />
  <path
     d="m 1014.7851,531.7995 15.6338,15.3495 9.3799,22.171 26.1504,4.8325 4.548,2.558 10.8013,-1.7055 21.3184,-11.654 h 11.654 l 11.0856,-15.0651 12.7911,-0.5687 12.2223,-14.4964 5.9693,-0.284 3.411,7.3903 v 8.527 l 11.9383,3.6957 11.6539,6.5372 7.3902,9.9486 11.3699,3.1267 3.4109,13.0753 21.0344,14.4966 14.2124,8.243 16.4858,13.0753 19.0446,8.8119 5.4008,-1.1369 18.1916,-25.5823 16.7702,-14.4966 17.3391,-20.4654 28.1401,-31.8356 10.5173,0.5683 6.8218,9.9487 -3.6952,14.2123 23.308,16.2019 31.8355,12.7913 12.1624,4.2123 15.2323,-6.1881 0.9519,-8.0921 12.3761,-3.808 7.6161,-5.7121 3.3321,0.4759 4.7599,-7.1398 -1.4281,-16.1842 4.2842,-15.2322 0.4759,-15.2323 4.2841,-7.1398 -2.38,-6.1882 4.7601,-4.76 -0.9521,-6.1881 18.0882,-5.712 2.8559,-9.5201 5.712,-1.4281 12.8522,-20.4682 v -14.7561 l 12.8522,-8.5679 -1.904,-4.7602 -7.1402,-5.712 4.2842,-17.6121 h 8.092 l -0.9519,-3.8082 6.6639,-2.3799 4.284,-5.2362 4.2842,1.4281 8.092,-2.8559 5.712,-2.3802 4.2842,-1.904 4.7599,5.2361 2.38,2.38 6.1881,-7.6161 9.0442,-1.4278 0.9519,-9.5204 -4.7599,-9.52 12.3759,-9.0441 1.9041,-6.6639 16.6602,-4.7601 5.236,6.6641 8.8097,2.405 -0.3982,318.5192 8.8872,-5.0784 14.1469,-17.0488 12.3331,0.1812 2.7205,3.2648 15.0538,2.5392 8.1616,8.5244 v 8.8871 l 9.794,11.6077 31.0143,15.9605 9.0685,1.9951 13.7841,13.24 v 16.8674 l -5.4411,9.2498 1.8137,13.6028 15.0537,7.2548 2.9019,16.142 17.7743,11.9704 11.2449,0.7255 5.4412,-3.0833 21.4016,-2.3579 12.1517,-9.4312 19.4067,1.6323 32.8279,-6.1665 21.7645,0.3628 10.1567,6.7106 0.7254,21.4017 v 10e-5 l -26.2986,50.9649 -0.7255,14.8723 13.7841,33.0094 26.8428,11.9705 13.7841,-4.7157 10.5195,6.5293 13.0586,-8.7057 29.7447,-13.4214 5.0784,-8.7057 14.1469,-6.1667 12.6958,-14.1468 7.6175,-14.1469 14.1469,-3.9901 45.3425,1.451 13.0587,-7.6176 h 6.5293 l 12.696,8.7058 17.4115,1.4509 40.2641,33.0094 7.6176,0.3627 11.6075,6.1665 10.1568,26.8428 22.8527,21.039 17.4115,31.5584 18.4996,17.0488 17.7743,5.0783 30.833,-12.3331 32.2839,3.6274 22.4897,31.1956 12.3333,29.382 14.5097,18.137 34.0975,20.3133 10.1568,9.0686 -9.4313,9.7939 -3.9901,-4.7156 -5.4412,1.451 -0.7256,7.6176 -4.7155,8.3429 -6.892,-3.2646 v -9.4313 l -2.9019,-6.892 -7.2548,0.3628 -2.5391,3.6274 -4.353,-1.0882 -1.0883,-7.2549 -5.8037,-1.8137 6.892,-3.9901 -2.9019,-3.2646 h -8.7059 l -9.0683,10.1567 -4.353,-1.451 0.3628,-7.6175 -5.0785,-3.9902 -8.7056,6.1666 3.9901,10.5195 -5.0785,2.9018 -5.4409,-5.441 2.5391,-7.9803 h -3.6274 l -9.794,7.2548 -5.8038,-4.3528 -0.3628,-7.9804 6.5294,-5.4411 -6.8921,-4.7156 -3.6275,0.3628 -2.1763,8.7057 -4.3529,-0.3627 -1.8138,-4.7156 -7.9802,-0.7256 -7.6176,7.9803 2.9019,5.4412 9.794,5.4411 -3.2646,5.8038 -6.5294,-1.8137 -2.5391,6.1665 -5.0785,-8.7057 h -14.5095 l 2.902,-5.0784 -1.8138,-4.3528 -10.8823,-0.7256 -6.1665,-7.9802 -4.7157,0.7255 -1.8136,17.7743 -5.441,8.7057 -5.0784,2.1764 -2.1764,-5.0782 5.8038,-7.2549 -0.3628,-6.5294 -8.3429,-3.6274 -5.0784,-8.7057 -5.4411,1.451 v 8.3429 l -5.8039,-7.2547 -11.6076,-1.0882 -1.4511,3.2646 6.5294,3.6275 -3.2648,5.441 h -4.7156 l -5.8038,-8.343 -0.3628,-9.7939 -14.5096,1.0882 -0.7253,2.5392 6.8921,4.3528 -0.3628,6.5293 -5.0785,2.902 -6.1665,-12.6959 -5.8037,-1.0882 -11.2451,5.8038 -2.5392,10.8822 -5.4411,-4.7157 -14.5095,-0.3626 -11.6078,-14.1469 -2.539,-7.9803 h -4.7158 l -5.0782,6.8921 -11.9705,4.3528 -3.2647,-3.2646 -6.5294,3.9901 11.2451,3.6274 5.0783,-1.8137 1.0883,3.6274 -9.4313,8.3431 -4.3529,-2.1766 -3.9901,3.2647 2.9018,3.2647 12.3333,-1.0882 5.441,9.7939 2.9019,2.902 -1.0882,7.6175 -5.4411,3.6274 -15.5977,-1.451 -8.3431,7.9804 -2.5392,11.2449 -6.5293,6.1666 h -3.6274 l -1.8137,-6.5294 9.0685,-11.2449 v -4.7156 l -5.0783,-4.3529 -1.0883,-3.9901 -5.0784,1.4509 -6.1666,6.8921 -10.5194,4.3529 -14.5096,-2.9019 -2.1764,-5.8039 -9.794,4.7156 0.7255,5.0784 5.0783,4.3528 -1.451,11.245 h 9.0686 l 1.8137,15.2351 h -3.6275 l -5.0782,-6.892 -12.696,1.8136 v 6.1666 l 6.5293,3.9901 -5.8038,4.7156 h -3.2646 l -2.902,5.0784 3.6274,3.2647 -7.9803,6.892 -6.5294,1.8138 1.0884,13.4213 5.8037,3.9902 5.0784,5.4411 -3.9901,3.2646 5.4411,3.6274 -3.2647,9.7941 -13.0586,1.4508 -0.7255,2.902 6.8921,2.5392 -3.9902,6.1665 -9.4312,3.6274 -4.3529,-2.9018 -12.6959,3.9901 1.8137,7.2548 3.2647,-1.451 8.3429,7.6176 -6.892,8.343 h -11.6077 l -4.3528,-2.9019 -7.2549,9.0684 3.2647,7.2549 9.4312,1.451 -0.7254,11.6076 -6.8921,3.2647 -1.8137,10.1567 -8.7057,0.7255 -4.3529,6.8921 -2.1765,-4.353 -10.1567,6.1666 3.6274,8.3431 7.2548,2.1764 -11.6077,12.3332 -7.6176,0.7255 -0.3626,8.343 -9.4313,3.2646 -3.9902,-5.8038 -10.5194,8.7058 v 5.4411 l -6.8921,0.3626 -1.8136,5.4412 -3.6275,-9.4312 -11.2449,-3.2647 -0.7255,-3.2646 -6.5293,5.441 1.451,7.6175 6.5293,3.9902 v 2.9019 l -10.1567,6.1666 3.2646,6.5294 -7.2548,0.3627 -3.9901,6.1666 -8.343,-3.9902 -1.451,-11.9704 h -9.794 l -0.3627,-6.8921 6.8921,-1.0882 -7.9803,-3.2647 -6.5294,3.6274 -3.2646,-2.1764 -1.451,-17.0487 -3.2647,-4.353 -7.9802,2.902 -3.6274,-12.3332 -8.7058,-2.9019 5.8039,-6.5293 11.6076,1.0882 0.3627,-3.2646 -13.0586,-5.8039 1.0883,-6.8921 -6.1666,-1.8137 -3.9902,6.1666 h -3.9901 l -2.5392,-11.245 -6.1666,-1.4509 0.3628,-16.686 h -5.0784 l -7.2549,6.892 -3.6273,-2.5392 v -19.5879 l -3.2647,-0.3628 -4.3529,3.9902 -7.9802,-2.1764 -9.0685,6.892 -2.1764,-8.343 3.2646,-6.1666 -5.0784,-4.3529 -11.6077,4.3529 v -10.5195 l -7.6175,-10.8821 5.8039,-5.4412 -8.3431,-3.6273 7.6175,-7.2548 -3.2646,-5.4412 -9.4313,-1.8137 4.7157,-7.6176 -4.3529,-3.6273 -5.8038,10.1567 -3.2647,-5.8038 -5.0784,0.7254 -2.5392,-7.2547 4.3529,-5.8038 -2.1765,-6.8922 -7.2547,-4.3529 5.4411,-5.8038 4.3528,2.1764 v -6.5293 l -7.9802,-2.1764 -10.5195,7.2547 -3.9901,-6.892 -7.2548,8.343 -3.9902,-5.0783 -8.7057,6.5293 -5.8038,-2.902 v -5.8037 l 6.5293,-6.1666 -3.6275,-3.2646 -10.5194,2.539 -0.7255,-3.6273 2.9019,-3.6274 -0.3627,-4.7156 h -18.137 l -5.8039,-7.2548 -16.6859,9.7939 -0.3628,5.8039 h -4.3529 l -1.451,-9.794 8.7057,-5.4411 0.3628,-4.3529 -9.0685,-4.3529 -4.3528,-13.7841 -3.9902,-0.7254 -8.7057,8.3429 -4.353,-1.4509 v -12.3332 l -11.9703,2.5392 -1.0882,-2.9019 5.441,-5.4411 -2.1764,-7.6175 -6.1666,-2.902 3.9902,-6.5293 3.6273,-1.451 -1.0881,-6.5292 -4.7157,-2.902 -1.8137,-12.3331 8.7058,-4.3529 -4.7156,-1.451 -8.3431,2.5392 -6.5293,-9.0685 v -6.1666 h -5.0783 l -3.9902,-2.5392 6.5294,-5.8038 -1.0882,-5.8038 5.8038,-3.2647 -3.6274,-13.0587 -7.2548,-2.5392 -0.7255,-5.8038 -8.343,1.0882 -3.6274,7.6176 -4.7157,-10.5194 -3.2646,-1.8138 -2.1764,-5.4411 11.2449,-4.3528 -2.5392,-3.6274 -7.6175,-0.7256 -3.2648,-5.0783 3.9902,-5.8038 h 3.9902 l 6.8921,-5.0784 -4.353,-5.0783 7.6176,-2.902 -1.0882,-6.1666 -11.9705,-7.6175 0.7255,-5.8038 -13.4214,0.3627 -4.3528,6.5293 -8.3431,2.902 v 4.3528 l -3.9901,2.9019 -9.0685,-9.4312 -15.5979,2.9019 -0.3627,5.0783 5.8039,6.5294 -1.451,4.3529 -8.7057,1.0882 -0.7256,6.1666 -7.9802,-5.0784 -7.9803,-0.3627 -2.1764,-6.1666 -5.4412,-6.1666 -7.2547,-0.3628 -2.902,-8.7057 2.902,-2.5392 -5.0784,-3.6274 -5.0784,3.6274 h -5.8038 l -6.1666,-4.7156 -4.7156,3.6274 -7.9802,2.1764 v -3.6274 l -5.0784,-6.892 -3.9902,3.9902 -10.5195,1.0882 -0.3627,4.3528 -5.4411,3.9902 -0.7255,-5.0784 -6.5293,-2.5392 v -3.9901 l -8.343,5.8039 -3.9902,6.5292 -2.9019,-7.9802 -9.794,2.5392 -2.1764,-4.7156 -5.8038,5.0782 -4.3529,-5.441 -5.8038,-2.1764 2.1764,-3.6275 v -5.0784 h -6.5294 l 3.6274,-5.8038 -12.3331,-12.3331 h -10.1567 v 3.6274 l -7.2548,-4.3529 -8.7058,1.4509 -15.9606,10.1568 h -9.4312 l -3.6274,2.1764 -4.3529,-5.8038 -4.3528,2.1764 -13.0587,-4.3528 V 915.82 l -6.5293,-5.0784 h -5.8038 l 2.9018,-7.2547 -9.4312,-2.902 -11.6077,4.3528 -4.3529,9.4313 h -7.9802 l -2.902,-3.6274 h -2.9019 l -5.8038,11.6078 h -13.7841 l -6.5294,-2.5392 -3.9901,-8.7058 -4.3528,-0.7255 -6.8922,3.6274 -9.0685,-2.9019 -10.8821,3.2646 -5.8038,-5.8038 -9.7941,-0.3627 -9.7939,-13.7841 v -9.4313 l 2.9019,-0.3627 3.9902,-4.7157 -2.902,-5.0784 -6.5293,-2.1764 1.0882,-13.4213 3.9901,-2.5392 -6.1665,-5.4411 v -14.1469 l -4.7156,-3.2647 1.0882,-2.1765 9.4311,-7.2547 0.3628,-4.7156 -143.7174,-295.2202 z"
     style="display:inline;fill:#fefee9;fill-opacity:1;stroke:#646464;stroke-width:1.06666672;stroke-linecap:butt;stroke-linejoin:round;stroke-miterlimit:4;stroke-dasharray:none;stroke-opacity:1"
     id="Puerto_Santander,_Código_DANE_:_91669" />
  <path
     d="m 1998.8361,186.7194 v -11.6541 l 9.573,-1.6651 9.5733,2.9136 9.573,-0.4161 4.5784,-3.7459 8.3244,-2.0813 -3.7459,-4.162 2.9136,-3.7461 16.2324,-1.6649 8.3244,5.8271 21.2273,-1.6648 7.492,-6.2433 5.4109,0.4162 5.827,-3.7459 5.8271,1.2485 4.9947,-2.4973 3.746,-9.9893 7.5013,-1.7371 4.3999,-2.2952 11.0548,-7.6938 4.8187,5.4142 13.3227,-6.839 7.6533,-15.6723 5.9523,-2.8496 22.6765,22.7963 0.2836,7.1237 -4.2519,3.7045 9.9209,25.3607 6.8029,1.1398 8.5038,-15.6724 4.2519,1.1399 3.4014,15.3874 3.4015,7.4088 8.5035,-7.9786 3.4015,8.5484 h 9.0707 l 9.6375,-5.699 6.2359,3.9894 -5.6691,10.2582 -5.669,1.1399 0.5669,5.1291 11.905,8.5486 9.6375,-0.5699 v -11.3981 l -2.8345,-9.1185 18.1412,-7.9787 10.7712,2.8495 4.5352,3.9894 -4.5352,8.5486 8.5038,10.2583 h 5.6691 l 14.1728,9.1184 1.7007,21.6564 5.669,7.4088 9.6374,-1.1399 4.5355,11.3981 -5.1022,9.1185 h -5.1023 l -5.6691,-5.129 h -4.5353 l -15.3065,11.398 2.2675,14.8175 14.7397,11.968 4.5353,13.1079 10.2045,-1.7098 7.9367,3.9893 1.7007,10.2584 4.5353,3.9893 3.4015,15.9574 -5.6691,6.2689 v 8.5486 l 7.9368,5.699 v 13.1079 l 10.7712,3.9893 3.8125,6.407 -11.2334,7.975 -4.5928,6.7582 -6.71,-2.6654 -9.6127,5.1162 -13.539,-8.3756 1.5705,-9.3276 -1.3205,-2.3322 -15.1572,6.9602 -23.8182,-19.3687 -7.5906,-3.1409 -8.6374,3.4027 -5.4963,-6.8053 -7.0669,1.047 -6.2817,6.8052 -7.3287,3.4026 h -13.0869 l -7.8523,-6.8052 h -13.3486 l -10.7312,-7.3287 1.8321,-6.5435 -7.5904,-11.7782 -14.3958,-3.9261 -8.8989,3.9261 -14.9192,-4.973 -7.0669,-10.4696 h -6.5435 l -1.0468,-6.5434 -13.3489,-7.5904 -16.2277,-26.4356 -5.2347,-1.5704 -0.2617,-19.1069 -13.087,-17.2748 0.5235,-12.5634 -3.4026,-2.0939 -1.0469,-7.3287 6.8052,-2.0939 3.1409,-12.8251 -5.7583,-8.6375 -5.7583,1.5705 -7.3287,-3.6643 -6.8051,2.3556 -14.1341,8.1139 -34.8109,-3.1409 -15.5143,-13.7019 -4.9802,2.9377 -15.2419,-4.9667 z"
     style="display:inline;fill:#fefee9;fill-opacity:1;stroke:#646464;stroke-width:1.06666672;stroke-linecap:butt;stroke-linejoin:round;stroke-miterlimit:4;stroke-dasharray:none;stroke-opacity:1"
     id="La_Victoria,_Código_DANE_:_91430" />
  <path
     d="m 2388.2701,391.4295 2.8347,10.8281 4.5353,5.1292 9.0705,-0.5699 2.8344,-14.2477 23.8105,-3.9893 8.5037,-7.4088 -0.567,-6.2689 h -9.6375 l -2.2678,-3.9893 11.9053,-10.2584 10.2044,-0.5699 3.4015,-3.9893 5.1021,-1.1397 9.6374,14.2475 24.3772,17.6671 4.5354,14.2476 9.0706,-3.9893 5.6692,-6.8389 13.0389,-12.5379 h 5.102 l 17.0075,18.8068 6.8029,22.7963 11.3382,8.5486 6.803,-3.4195 2.2675,-14.8175 12.4722,-0.5699 2.2675,4.5592 5.1022,3.9893 2.8346,-11.398 h 6.8029 l 4.5353,14.2476 4.833,2.8298 0.9055,695.9924 -13.6029,1.814 -16.686,-12.3332 -13.4217,-23.9408 -13.7841,-3.6274 -19.9506,6.892 -5.0783,2.5392 -9.4313,11.2449 -15.9606,2.1765 -18.4998,-5.8039 -8.3428,-0.7254 -17.0488,-15.5979 -33.0095,-20.6762 -15.235,-19.2251 -11.6077,-28.2938 -23.9408,-31.1956 -31.9212,-3.6274 -30.833,11.9704 -17.0487,-4.3529 -19.2251,-18.137 -17.4116,-30.833 -22.4899,-21.0388 -9.7941,-26.8428 -13.0585,-6.5293 -6.1665,-0.3627 -40.2641,-32.284 -17.4116,-2.1764 -13.7842,-8.343 h -5.8038 l -12.6959,7.2548 -46.7935,-0.7254 -13.4213,3.6274 -6.8921,13.0585 -13.4214,14.5097 -13.4214,6.892 -6.1666,8.7059 -28.6564,13.4213 -13.0587,8.343 -10.8822,-6.1666 -13.7841,3.9902 -26.48,-11.9704 -13.7841,-32.2839 v -14.5096 l 26.48,-51.5091 -0.3628,-21.0389 -10.5195,-6.892 -21.7643,-0.3628 -32.6466,6.1665 -19.588,-1.4509 -12.3332,9.4313 -20.6762,2.1764 -5.8038,2.9019 -11.2449,-0.7255 -17.7743,-11.9704 -2.9019,-15.9606 -14.8723,-7.2548 -1.8138,-13.4213 5.0784,-9.7941 v -16.686 l -13.7842,-13.4214 -9.7939,-2.1764 -30.1074,-15.5979 -9.794,-11.2449 v -9.0684 l -7.9803,-8.7059 -14.5095,-2.5391 -3.6275,-3.2647 h -12.3332 l -14.1469,16.6861 -8.3429,5.441 v -318.487 l 1.2217,0.4189 4.7602,2.8561 4.2839,-6.188 35.7005,-4.7601 6.1879,5.2361 h 15.7081 l 7.6163,-4.7601 3.808,3.332 15.2321,0.9521 3.808,-0.4761 1.904,3.808 2.8559,-0.476 8.0923,-0.4759 6.1879,-6.188 V 346.76 l 6.6641,-0.9519 4.2841,4.284 11.8999,-2.38 4.7601,-6.188 7.1402,0.476 9.9959,-0.9522 2.8563,-7.616 5.712,-3.332 -0.476,-5.2359 5.712,4.284 3.808,-0.9521 0.476,-16.6602 -5.2361,-8.568 c 0,0 -0.4759,-3.808 -0.4759,-6.1879 0,-2.3802 -4.7601,-11.4244 -4.7601,-11.4244 l -4.7599,-4.2839 1.428,-10.9482 4.284,-5.712 0.4759,-7.616 3.808,-2.3799 4.7601,-3.3322 0.476,-6.6641 8.092,-2.8559 2.8561,-6.6642 -7.14,-8.5679 2.8561,-10.4722 4.7599,-0.9521 5.236,3.3322 14.2802,-5.7121 11.5301,-9.1585 10.8217,-0.4163 34.1302,-21.2273 -3.3299,-4.5784 1.6649,-9.1569 24.9732,-4.9946 28.3032,17.8974 15.4002,4.9948 7.0756,-2.0812 6.2755,3.3121 2.8639,-0.3614 0.6336,1.557 15.2482,4.928 5.0784,-2.9018 15.9606,13.7841 34.383,3.1041 14.2242,-8.1825 6.6898,-2.4173 7.2132,3.6274 5.6462,-1.4123 6.0031,8.5066 -3.1011,12.7762 -6.7731,2.0961 0.818,7.5736 3.591,2.0519 -0.7695,12.5683 13.3378,16.9288 -0.2564,19.4936 5.6428,1.0261 15.6463,26.4191 13.5943,7.6948 1.2824,6.9254 h 6.1561 l 7.6948,10.7728 14.8767,4.8735 8.7208,-3.8475 14.6204,3.3344 7.4382,12.3118 -1.7953,6.4125 10.5163,7.1819 13.5942,0.2565 7.695,6.6689 13.8506,-0.2565 6.669,-3.078 6.1559,-6.9254 7.4384,-0.7695 5.3865,6.4125 8.7207,-3.3345 7.9513,3.5909 23.0847,18.9807 15.1333,-6.9254 1.539,2.3085 -1.7956,9.2338 13.8509,8.4645 9.4903,-5.13 6.9254,2.565 4.3604,-6.669 11.1637,-8.0087 z"
     style="display:inline;fill:#fefee9;fill-opacity:1;stroke:#646464;stroke-width:1.06666672;stroke-linecap:butt;stroke-linejoin:round;stroke-miterlimit:4;stroke-dasharray:none;stroke-opacity:1"
     id="Miriti_Paraná,_Código_DANE_:_91460" />
  <path
     d="m 2613.8869,1465.7944 613.6795,-0.2108 58.2922,-315.2988 -2.8231,-10.8889 0.4033,-16.5353 11.2924,-14.1154 5.2427,-13.3088 -5.6461,-14.1154 0.4034,-15.3252 15.7285,-8.8726 8.066,-8.8726 v -7.6626 l -5.6464,-7.6626 -1.613,-17.3419 1.613,-11.6956 -0.8066,-10.4857 -11.2922,-16.9385 -0.4033,-18.5517 8.8726,-13.7121 2.0165,-23.7945 9.679,-8.8726 1.6133,-18.5516 -14.9221,-14.1155 -6.4527,-12.0988 -5.62,2.4659 -13.1694,-2.9136 -10.0218,10.8805 -0.4008,8.4627 5.612,7.6567 1.6036,12.0896 -6.8148,8.8656 h -9.2199 l -2.8062,5.2388 12.427,4.0298 4.0085,9.6716 -1.2023,14.5075 -15.634,12.0894 -14.0303,0.403 -15.6338,-18.5372 -12.8277,0.8059 -12.8278,-15.7163 -4.4094,-14.9104 h -6.8147 l -11.2243,10.8805 h -12.8278 l -3.2069,8.0597 1.2026,19.7462 -5.6121,10.4776 -9.6208,2.4179 -11.2244,-10.4776 -3.6077,-26.1939 2.806,-6.4478 2.4052,-14.5074 -5.6121,-7.2537 4.0086,-6.4478 h 6.4138 l 6.815,9.6717 4.4094,0.403 1.6035,-9.2687 -25.2546,-26.1939 -14.832,-21.7611 -11.2244,-3.2239 -8.4182,3.2239 -6.4139,-11.6866 -7.2155,6.4478 -7.2156,2.0149 -1.6035,4.0299 2.4053,1.6119 3.6077,13.7015 8.8191,4.4327 10.4225,2.0149 1.6035,6.4478 -6.0131,6.4477 -21.2459,-1.6119 -16.0346,-22.1641 -8.8191,-17.7313 -13.6294,-2.4179 -11.2244,8.0597 -6.4138,17.3283 -15.6338,10.8806 -14.0303,-3.6269 -13.2287,10.0745 -14.4311,2.015 -11.2244,-8.8656 1.6035,-14.9104 15.6338,-13.2985 2.0044,-10.8806 -10.0217,-11.2835 v -8.4626 l 7.6164,-2.418 13.6296,-8.8656 11.2242,3.2238 3.6079,-2.4179 -12.0261,-13.2983 -14.4312,-6.8508 -4.8103,4.0298 -6.0131,13.7015 -20.4442,4.4327 -11.2243,-4.8357 -0.8017,-6.4478 4.8104,-8.0596 -2.0044,-7.2538 -11.2243,-0.8059 -4.0085,4.0298 3.6077,7.2538 v 10.4775 l -5.2112,7.6567 -7.6165,1.2089 -8.819,-7.6566 -3.6077,-10.0747 -7.6166,-6.4477 -15.233,3.2239 -16.4353,14.1045 -10.4226,14.1044 v 8.0596 l 8.0172,8.8656 5.2112,-1.6118 5.6121,-6.8508 11.6253,0.403 7.2155,6.4478 0.8017,11.2835 -8.819,13.7014 -14.4312,14.5074 -5.2112,13.2985 -13.2287,8.8656 -12.4268,-1.6119 -8.0172,-10.8806 v -14.1044 l -4.8106,-3.2239 h -14.832 l -10.0218,-9.6716 -1.6033,-12.8954 17.2372,-16.1194 2.806,-16.1194 -6.8147,-2.4179 -9.6208,5.2388 -3.6077,11.2836 -10.8234,7.2537 h -10.4226 l -15.2329,-12.0895 -16.0347,-20.1492 2.0044,-8.4626 10.4224,-14.5074 h 4.0088 l 7.6164,7.2536 5.2112,-0.8059 4.4097,-9.2686 1.2025,-11.6865 19.6424,-7.6568 1.2027,-8.8656 -16.0347,-18.5373 -4.0085,-10.4775 -6.4141,-7.6568 -12.4268,-1.6119 -9.2199,-15.7164 0.4008,-26.9999 8.4183,-8.8656 13.2284,1.612 5.6123,-2.015 2.0043,-8.0597 -8.8189,-12.0895 v -12.0895 l 6.0129,-10.0745 0.8017,-10.8807 -4.4096,-8.0596 5.2114,-9.2686 1.2025,-6.4478 -4.4095,-4.8358 4.0085,-9.2686 -7.2156,-9.6716 -9.2199,-18.9402 h -11.2241 l -4.8106,6.8507 2.8062,2.8208 1.6035,6.8508 -6.8147,6.0447 -10.8235,-7.2537 0.4009,-12.8954 21.6467,-32.2387 24.4529,-12.8955 4.4096,-11.6865 6.8147,-4.4329 13.6295,8.0597 h 6.414 l 4.0086,-2.8208 -1.2027,-12.8955 -12.8276,-12.4926 -11.2244,8.4627 -6.0129,-1.2089 -13.6295,-20.1493 h -12.8278 l -6.8147,6.0448 -5.6121,12.4925 -6.414,0.806 -6.8147,-5.6418 -9.6208,7.2537 h -9.6207 l -5.6122,7.2537 2.8061,8.4627 11.2244,3.2239 10.4224,-6.0448 7.2155,0.403 1.6036,8.0596 -3.6077,9.6717 -13.6297,6.4477 -12.0259,-5.6417 -7.2156,0.8059 -3.207,4.0298 -5.2112,-8.4626 -2.4052,-16.1194 -11.625,-2.4179 -18.44,6.8508 -12.8278,15.3134 -7.2156,-0.806 -3.6077,-9.2687 6.0129,-8.8656 4.8104,-1.209 1.6035,-13.7014 -15.6338,-18.9403 -6.3138,-10.9883 -12.1225,-6.8916 z"
     style="display:inline;fill:#fefee9;fill-opacity:1;stroke:#646464;stroke-width:1.06666672;stroke-linecap:butt;stroke-linejoin:round;stroke-miterlimit:4;stroke-dasharray:none;stroke-opacity:1"
     id="La_Pedrera,_Código_DANE_:_91407" />
  <path
     d="m 2731.9298,2618.9539 1.7216,-19.6573 -6.5294,-4.3528 6.8921,-18.137 -9.0687,-8.706 0.3628,-9.0683 -19.5879,-15.9606 -9.7939,-2.5393 -2.9019,-30.1074 21.7643,-288.3782 10.1566,10.5194 5.804,-11.6078 h 7.6176 l 4.3527,8.3432 14.1469,-16.686 8.7059,-2.5394 6.5293,7.6176 4.7155,-6.5293 3.2647,0.3628 6.7107,17.0487 5.0785,-8.3431 7.9802,3.9902 7.7988,-9.0684 -2.9019,-9.7939 8.3431,1.8135 3.9902,6.1665 5.441,-9.7939 9.4312,-1.0883 -2.1764,-11.2448 9.0684,-6.5293 -1.088,-5.0784 8.7056,1.8138 6.8921,-19.2253 7.6176,-2.5392 -2.1763,-2.9019 2.9018,-3.9901 6.7106,8.3431 4.5342,-4.353 4.353,8.343 h 2.9018 l 5.0784,-10.1567 6.8921,4.7156 -0.1823,-10.5195 9.2499,4.1716 3.9902,-2.1765 -6.5293,-6.348 -1.8136,-11.6076 -4.8972,1.8137 -2.5391,-3.8088 11.2449,-8.343 h 8.5245 l 12.333,-5.4411 9.6127,8.7057 3.0834,-5.9852 -6.5294,-2.9018 2.3577,-3.6274 -4.7154,-6.1667 3.9901,-3.8087 2.5392,3.446 6.5292,-0.9068 3.2647,-9.6127 1.8136,3.0833 167.1062,-1.1394 -146.1009,790.7332 -15.7989,-17.728 -16.1319,-12.099 -31.8605,-31.86 -15.3252,-31.458 -6.0494,-7.662 -37.1035,-11.696 -26.2144,-20.971 -3.6694,-11.289 1.6531,-18.152 -1.3029,-17.341 -7.718,-19.178 -10.0566,-3.508 -11.46,-1.637 -18.4763,-14.267 -10.0566,-21.049 -6.3147,-20.815 z"
     style="display:inline;fill:#c12838;fill-opacity:1;stroke:#646464;stroke-width:1.06666672;stroke-linecap:butt;stroke-linejoin:round;stroke-miterlimit:4;stroke-dasharray:none;stroke-opacity:1"
     id="Leticia,_Código_DANE_:_91001" />
  <path
     d="m 2467.5682,2605.7149 14.9219,-1.613 10.4857,4.839 6.4528,14.116 5.2542,5.683 16.8391,0.936 4.2098,5.613 6.3147,-1.17 4.9113,-7.25 12.6293,-7.016 10.5245,2.572 11.2261,13.331 1.6371,9.589 11.9277,14.267 14.5003,1.637 30.6378,-9.823 20.5811,-12.863 6.0808,-10.525 3.0403,-0.935 h 15.6697 l 9.3551,-2.807 10.2905,-13.097 4.6775,-1.403 32.1177,9.126 1.7201,-19.4967 -6.3732,-4.5091 6.814,-16.6586 -8.7059,-9.7939 v -10.5195 l -20.3134,-14.5096 -9.4312,-2.9019 -2.1763,-28.6563 20.873,-290.432 z"
     style="display:inline;fill:#fefee9;fill-opacity:1;stroke:#646464;stroke-width:1.06666672;stroke-linecap:butt;stroke-linejoin:round;stroke-miterlimit:4;stroke-dasharray:none;stroke-opacity:1"
     id="Puerto_Nariño,_Código_DANE_:_91540" />
  <path
     d="m 2621.6629,1749.5575 5.2428,-0.4033 12.9057,16.9384 2.4196,18.5517 9.6791,11.6956 11.2925,-2.4198 18.9548,-21.778 12.5023,-2.0165 16.5352,4.8396 4.4362,4.0329 16.1319,-1.6132 2.4199,2.8231 1.6132,12.0989 -14.922,8.8725 -20.9715,1.21 -6.4528,7.6626 2.0165,9.6791 15.7286,9.6792 20.9715,-4.8396 15.7324,-14.5733 12.0366,-4.0135 11.0833,1.0671 9.5083,9.0778 4.8395,47.1858 10.0824,12.5023 9.276,0.4033 8.0659,-16.5353 8.4692,-0.4033 9.2758,14.1154 -3.2264,15.3254 -6.4527,13.7121 5.6461,9.6791 13.3088,-2.8231 4.033,-6.0494 7.2594,-0.4033 8.4692,-13.7121 1.6132,-9.6792 14.1154,-6.0495 4.4364,1.6133 8.0659,20.9714 -2.8231,14.5187 1.2099,22.5846 6.4916,11.2611 -178.2192,277.2597 10.4917,10.9856 5.8419,-11.7327 7.6948,0.1152 4.1041,8.208 14.4126,-16.4647 8.4728,-2.4987 6.5365,7.4296 4.4354,-5.908 h 4.104 l 6.1558,16.9288 5.6429,-8.208 7.1819,3.591 8.208,-8.7209 -3.078,-9.7468 8.2079,1.026 4.1039,6.6689 5.6429,-9.7468 9.2338,-1.026 -2.052,-10.7728 9.2338,-7.182 -0.5128,-4.617 8.2079,1.539 7.1818,-19.4937 6.6688,-2.052 -1.0259,-3.0777 2.052,-3.591 6.669,7.6949 4.6167,-4.1039 4.6171,8.7206 h 2.5648 l 5.6429,-10.7728 6.669,4.6171 v -9.7468 l 9.2338,3.5909 3.5909,-2.0521 -6.6687,-6.1559 -1.5391,-11.7988 -4.6169,2.0521 -2.5649,-4.104 10.7729,-8.2078 h 8.2077 l 13.3379,-5.643 9.2338,8.7208 3.078,-5.6428 -6.6689,-3.078 2.5649,-3.591 -5.1301,-6.1558 4.1042,-4.104 2.5649,3.5909 6.6689,-1.0259 3.078,-9.2339 2.052,3.078 166.9578,-1.4087 116.9157,-632.8928 -613.6752,0.1879 0.1424,291.7706 z"
     style="display:inline;fill:#fefee9;fill-opacity:1;stroke:#646464;stroke-width:1.06666672;stroke-linecap:butt;stroke-linejoin:round;stroke-miterlimit:4;stroke-dasharray:none;stroke-opacity:1"
     id="Tarapacá,_Código_DANE_:_91798" />
  <path
     d="m 2613.9557,1757.6503 -0.542,-638.2661 -13.4297,1.7351 -17.4419,-12.8249 -12.8247,-23.0846 -13.5944,-4.6169 -20.2631,7.6949 -4.6169,2.3084 -9.7469,11.7988 -16.6723,1.7955 -17.4416,-6.1559 h -9.2338 l -6.4126,-6.9253 -9.2338,9.4903 -3.8473,-4.3604 -5.6429,1.0259 -0.2565,7.9515 -4.6171,8.2078 -7.4382,-3.0779 0.2563,-9.7469 -3.0777,-6.9254 -6.9256,0.2565 -2.3085,3.8475 -4.6168,-0.5131 -1.2825,-7.9514 -5.8994,-1.7954 6.9254,-3.5909 -2.565,-3.591 -8.7208,-0.2565 -8.9775,10.2599 -4.6167,-1.2825 v -8.4644 l -4.1039,-3.078 -9.4905,6.156 3.8474,10.5163 -5.1298,2.5649 -5.3865,-5.1299 2.5648,-8.2079 h -3.3343 l -9.4904,6.9255 -5.8995,-3.591 -0.7692,-7.9513 6.4123,-6.156 -5.8994,-4.3604 -4.617,0.2565 -1.7954,8.9773 -4.3605,-0.2564 -2.0519,-5.1299 -7.4384,-0.513 -8.208,7.4383 3.3346,6.1559 9.2338,4.8734 -3.078,5.8994 -6.1558,-1.5389 -3.078,6.1559 -4.8734,-8.9774 h -14.3638 l 2.8214,-4.8734 -2.3085,-4.6169 -11.0292,-1.0259 -5.6431,-7.182 -4.6167,0.2565 -2.052,17.9547 -4.8736,8.4644 -5.8992,2.3085 -1.7956,-4.617 5.3866,-7.1818 v -6.9255 l -8.208,-3.3344 -5.13,-8.7208 -5.3863,1.0259 -0.2565,8.2079 -5.3864,-6.9254 -11.286,-1.026 -1.7953,3.078 6.4124,3.3344 -3.0781,5.8994 h -4.3604 l -6.6689,-8.4643 -0.513,-10.0034 -13.5942,1.026 -0.7695,2.8214 6.6689,4.3605 v 6.4123 l -5.1299,3.078 -6.1559,-12.5683 -5.8994,-1.2825 -11.5423,5.6429 -2.3085,11.2859 -5.6429,-4.8734 -14.3638,-0.7695 -11.7989,-13.5943 -2.5648,-8.2079 h -5.13 l -4.3604,6.9254 -12.3118,4.104 -2.8215,-2.8215 -7.1818,3.8474 11.0293,2.8215 5.6429,-1.026 0.5129,3.3344 -8.7208,8.4644 -4.1039,-1.7954 -4.617,2.8214 2.565,3.8475 12.5683,-1.539 5.8994,10.2598 2.0519,2.052 -0.7695,8.7208 -5.3863,3.078 -15.6463,-1.539 -8.4643,7.9514 -2.052,11.2858 -6.6689,6.4124 -3.3345,-0.2565 -2.0519,-6.6689 8.9773,-11.5423 v -4.3605 l -5.1299,-4.1039 -0.7695,-3.8474 -5.3864,1.026 -5.3864,6.9253 -10.7729,4.3605 -14.8767,-2.8215 -2.565,-5.8994 -9.4903,4.617 0.513,5.3864 5.1298,4.3605 -1.2824,10.7728 8.9774,0.5129 2.3085,15.1333 h -3.8475 l -5.1299,-6.669 -12.5683,1.7956 v 5.6428 l 6.6689,4.104 -5.8995,4.8734 h -3.0779 l -3.3344,5.3865 3.8474,2.8214 -8.4644,7.4384 -6.1558,1.2825 0.7695,13.5942 5.6428,3.5909 5.8995,5.643 -4.8734,3.591 5.6429,3.0779 -3.078,10.2599 -13.0813,1.2824 -0.2565,3.078 6.1559,2.3085 -3.3345,6.4124 -10.0033,3.5909 -4.3604,-2.8215 -12.5683,3.8475 2.0519,7.4383 3.3345,-1.7954 7.9514,7.4384 -6.6689,8.4643 -11.7989,0.513 -3.8474,-3.3344 -7.4383,8.9774 3.0778,7.1818 9.234,1.7955 -0.2566,11.2858 -7.1818,3.5909 -2.052,10.0035 -7.9513,0.5129 -4.617,7.4384 -2.3085,-4.3604 -10.7728,5.8994 4.3604,8.2078 7.4384,2.565 -11.7988,11.7988 -7.6949,1.2825 -0.513,7.9513 -9.4903,3.3345 -3.8475,-5.6429 -10.5164,8.4644 v 5.6429 l -6.6688,0.2565 -2.565,5.6429 -3.078,-9.4904 -11.5422,-3.5909 -0.7695,-2.8214 -5.8995,5.3863 1.2825,7.4384 6.4125,3.8475 v 3.3344 l -10.0034,5.8994 2.8215,6.6689 h -6.9254 l -4.1039,6.4124 -8.2079,-4.1039 -1.539,-12.0554 h -9.7469 l -0.2564,-6.6688 6.1558,-1.2825 -7.9513,-3.3344 -5.8994,3.5909 -3.3344,-1.539 -1.0261,-17.9547 -3.5909,-3.8474 -8.4643,2.8214 -3.3345,-12.0552 -8.2079,-3.5911 5.1299,-5.8994 11.2859,0.7695 0.7695,-3.3344 -12.8249,-5.6429 1.026,-6.6689 -6.1559,-2.052 -3.5909,5.8994 -4.1039,0.513 -3.078,-11.5423 -5.8994,-1.5389 0.2565,-16.6724 h -4.8735 l -7.1819,6.9255 -3.8473,-2.3085 v -19.4937 l -3.078,-1.026 -4.6169,4.617 -7.6949,-2.052 -8.9774,6.4124 -2.8214,-7.9514 3.5909,-6.4124 -4.6169,-4.3605 -12.0554,4.104 -0.2564,-10.5163 -7.1819,-10.5164 5.6429,-5.8993 -8.4643,-3.3345 7.6948,-7.1819 -3.3345,-5.6429 -9.4903,-1.2825 5.13,-7.4383 -4.617,-4.104 -5.643,10.2598 -3.0778,-5.8994 -5.3865,0.7695 -2.5649,-7.4384 4.3604,-5.8994 -2.3084,-7.1819 -6.9255,-3.8475 5.3865,-5.6428 4.1039,2.0519 v -6.4124 l -7.4384,-2.5649 -10.5163,7.4384 -4.104,-6.9254 -7.9514,8.4643 -3.8473,-5.6429 -8.4645,7.1819 -5.3864,-3.0779 -0.2564,-6.1559 6.9253,-5.8994 -4.3604,-3.078 -10.2599,2.565 -1.2824,-3.5909 3.3344,-3.591 -0.2564,-4.8734 h -18.4678 l -5.3864,-6.9254 -16.6722,9.2338 -0.2566,6.156 h -4.6168 l -1.539,-9.7469 8.4643,-4.8734 0.2565,-5.3864 -8.2079,-4.104 -5.1299,-13.0813 0.7695,422.9619 15.6463,7.6948 8.544,9.225 6.8458,0.011 0.5129,13.8507 19.0736,4.6214 7.4251,-5.5545 -2.4721,-7.6948 -8.3892,-2.2246 1.2914,-2.4853 5.3864,-1.539 12.8248,5.2095 1.026,-7.6989 8.857,-4.6775 14.2425,1.7032 3.0025,11.5423 5.9152,2.6406 4.8277,-2.4894 -0.3469,-6.3219 1.9763,-4.783 8.2079,5.3864 5.4769,1.6146 7.4235,-10.7728 8.6452,5.3107 0.2566,10.5164 4.2849,1.6594 1.2627,5.5333 14.781,-6.1494 7.2593,-6.8561 0.4033,-9.6792 8.4693,-5.2428 10.889,6.8561 -8.3677,17.3105 -8.066,19.7616 3.2265,11.2922 11.2922,3.2265 14.9221,-5.2429 10.0824,-11.6957 17.3418,-2.4197 18.1483,10.889 11.2924,12.5023 34.2802,6.0493 16.132,-1.6131 8.0659,10.0825 -2.0164,19.3582 -6.0495,9.6791 0.8066,12.5023 13.3088,16.5351 6.856,1.21 7.6627,-10.4858 -8.066,-19.3583 -3.6297,-10.8891 7.6626,-9.679 14.5189,-0.8066 20.1648,19.7616 6.0496,18.9549 18.9547,11.2923 0.4034,6.856 -9.6792,18.1485 7.2593,12.9055 6.8562,-1.6132 9.2758,-10.8891 18.1483,-5.2427 9.2759,2.4197 9.2759,-8.4692 6.4527,-18.1484 15.3252,-2.4199 6.0497,4.8396 -5.6464,13.3088 -7.2593,9.2759 5.2428,5.6461 8.8727,-6.0494 7.2595,-17.7451 13.712,-8.4692 6.0494,2.8231 9.2759,16.5352 14.9219,8.0659 9.6792,-4.8396 0.8066,-16.9385 5.6462,-7.6626 10.4857,6.4527 7.6626,2.0166 4.0329,-14.1155 -10.8889,-12.9054 3.6296,-10.0825 13.7122,-6.0495 24.1979,-1.2099 20.1648,-6.4527 9.2758,3.6296 10.8891,17.3418 10.0823,1.2099 6.0496,-11.2923 -16.5352,-27.021 2.8229,-17.745 21.3749,-2.4198 13.712,10.0824 5.6462,14.5187 13.7122,2.4199 18.1482,-18.1484 15.7289,-4.8396 14.5186,10.889 9.6792,33.0704 16.5352,6.4528 11.6954,-3.2264 12.5024,0.8065 6.856,15.3254 17.2752,8.8764 31.8607,4.033 18.9549,9.2758 0.8066,10.4858 -11.6954,14.922 4.0328,11.6956 12.9054,0.8066 11.6957,-11.2923 6.4528,0.4032 1.6132,18.955 -12.9055,18.955 0.8066,7.6626 20.9714,11.2924 h 23.7946 l 11.2924,-12.9055 -2.4199,-10.0824 -22.1813,-10.0825 0.4033,-4.8396 17.745,-1.6131 16.5351,7.2593 4.4364,14.1154 12.5022,13.7121 h 10.0824 z"
     style="display:inline;fill:#fefee9;fill-opacity:1;stroke:#646464;stroke-width:1.06666672;stroke-linecap:butt;stroke-linejoin:round;stroke-miterlimit:4;stroke-dasharray:none;stroke-opacity:1"
     id="Puerto_Arica,_Código_DANE_:_91536" />
  <path
     d="m 1199.9863,1137.4541 5.8037,3.9901 7.6176,-5.0783 4.7157,2.5391 -10.5195,13.0587 -7.9803,-1.8137 v 6.1665 l 6.1666,7.2548 -1.8137,15.5979 15.2351,4.7156 5.0784,10.5195 12.6959,-3.9902 5.441,6.1666 -5.0784,7.9803 -8.7057,1.8136 8.3431,4.353 1.451,10.5195 -8.7059,6.892 3.6275,3.9901 10.1566,-4.7156 6.8921,-6.5293 9.794,11.6077 -9.794,11.6077 -5.8038,1.0882 8.343,5.4411 15.2351,-0.3627 5.0784,10.1567 -5.8038,6.5292 14.5095,1.0883 6.1666,-6.5293 11.6077,13.0586 3.6274,-9.0684 -7.6176,-6.8922 9.4313,-8.7057 11.9704,24.6663 14.5096,-8.343 0.7255,4.7156 -7.6176,6.5293 8.343,6.8922 9.0685,-5.4412 2.5392,3.9902 -13.0586,13.7841 -8.343,-0.3628 0.3627,13.4215 11.9704,20.6761 7.6176,3.9901 8.343,-18.137 -0.7255,18.4998 6.8921,4.3528 -0.3628,3.9902 -10.5194,4.3529 11.9704,11.9704 6.1666,-2.902 v -9.7939 h 5.0783 l 13.0587,14.8723 5.0784,-10.1566 9.4312,7.6174 -5.4411,8.7059 3.2647,4.7156 11.9704,-7.6176 3.9901,4.3528 -7.9802,9.7941 6.1665,-0.3628 9.794,11.245 6.8921,4.3529 7.6175,-7.6175 h 6.5293 l 6.1667,11.9703 7.6174,-6.5293 4.0534,2.7029 6.1558,13.0812 5.8994,-4.6169 2.3085,4.6169 -6.1558,5.6429 5.8994,5.3865 12.0552,3.0779 -2.0519,4.8734 -15.6463,6.9255 v 8.2079 l 7.4384,4.3604 1.7955,-7.9515 h 3.3344 l 11.0294,9.4905 -4.3605,17.4417 -5.1299,4.1039 9.4904,14.3637 6.1559,-6.1558 -1.2826,-3.3345 -2.0519,-0.2565 v -2.8214 l 6.9254,-0.2565 4.8734,8.4643 -2.565,5.643 -7.4383,0.2564 -0.7695,5.1299 5.8994,1.7955 -6.9254,1.7956 -0.513,10.7728 4.8734,2.8214 -4.1039,5.6429 6.9254,1.2824 4.6169,-6.9253 2.565,6.6689 1.7954,-6.1559 6.4124,-3.3344 4.104,9.4903 -5.3864,4.3604 -2.5649,8.2079 10.2598,-1.2825 5.6429,-6.1559 -3.591,-3.3345 3.3344,-2.3084 3.591,3.591 5.3864,-1.7955 3.3344,5.6428 3.591,-2.5649 6.4124,8.7209 -7.1818,4.3604 7.6948,7.1819 9.4904,-10.7728 5.1299,-0.513 4.3604,2.8215 3.8475,7.4383 4.1039,3.8474 3.0779,-4.6168 -3.8474,-6.4125 2.565,-0.7695 -4.104,-7.6948 0.513,-3.078 4.1039,5.1299 h 2.8215 l 0.513,-5.3864 -6.6689,-3.0779 -1.2825,-4.3604 h 8.7208 l 13.8509,4.6168 -2.565,20.0067 4.1039,2.052 -7.1819,5.1299 v 3.078 l 5.1299,2.565 v 4.6168 l -3.5909,1.539 -1.539,6.6689 -8.7208,-12.8247 -3.078,2.5649 4.617,9.2338 -1.539,5.643 7.1818,5.6429 0.5131,5.1299 h 4.1039 l 6.1559,-7.1819 5.13,0.513 5.6428,-9.7469 9.2339,-2.5649 1.5389,-8.7208 21.9658,-8.9819 15.4827,7.9558 8.7208,9.2339 h 7.1819 v 13.8508 l 19.4938,4.6169 7.1818,-5.6429 -2.565,-7.6948 -8.2078,-2.0521 1.0259,-2.5649 5.643,-1.539 12.8248,5.1299 1.026,-7.6948 9.2338,-4.6169 13.8508,1.5389 3.078,11.7989 6.1559,2.5649 4.6169,-2.5649 -0.513,-6.156 2.0519,-5.1299 8.2079,5.6429 5.6429,1.539 7.1819,-10.7728 8.7208,5.6428 v 10.2599 l 4.617,1.539 v 2e-4 l 1.1946,5.724 -9.0209,14.7515 h -4.4363 l -10.8891,-8.8725 h -5.2428 l -11.6956,21.778 -19.9897,28.1027 -11.2923,19.7616 -7.2594,5.6461 -14.5186,-2.4197 -15.3253,4.4362 v 13.3088 l 7.6626,4.8396 5.2429,14.5187 -6.0495,8.0659 -6.856,-2.4197 -2.4199,-11.2924 -11.2922,-0.4033 -10.8891,7.6628 -12.9055,0.4033 -13.7121,-8.4694 -13.7121,-12.0989 -10.0824,2.4198 -25.811,32.2639 -15.7287,7.2593 -10.889,21.778 0.8066,16.9385 -12.5022,11.6956 -5.6462,-7.6626 4.033,-11.6957 -4.4363,-9.2758 -10.0825,-0.8066 -23.7944,9.2758 -3.6298,-5.6462 -11.6955,-6.4526 -10.4858,5.6461 2.8231,8.4693 -2.8231,7.2593 -4.8396,-1.2098 -4.0329,-6.8561 -4.8396,2.8231 -6.4528,11.2923 -33.4736,3.2263 -6.0495,4.8396 -7.2593,1.6132 -7.2594,-7.2593 4.4362,-7.6627 -2.4197,-7.6626 -12.5023,-11.2924 -3.6296,-13.7121 -6.0494,2.4198 -3.6298,11.6956 -12.0989,4.4363 -14.922,-9.2759 -10.6611,-4.1737 -11.8099,-0.6527 -6.6072,5.5923 -10.0824,0.5409 -7.2892,-11.3295 -8.4991,-6.0323 -14.1154,-2.0164 -13.8867,-19.782 -15.3254,-8.4692 -16.9384,3.2263 -3.2265,7.6627 5.6462,5.6462 -2.823,5.6461 -16.132,15.3253 -1.6132,18.1484 -10.4857,6.4528 -8.8725,-7.6627 4.4363,-9.6792 0.4033,-8.8725 -8.066,-12.0989 -11.2923,-6.8561 -6.0495,0.4033 -0.4033,10.8891 -4.033,14.922 -5.6462,3.2264 -9.2758,-7.2593 -1.6131,-15.7287 -5.2429,-4.8396 -8.066,2.8231 -14.1154,16.9385 -14.5186,3.6297 -20.5683,16.9385 -9.2758,-1.2099 -4.8396,-4.4362 h -5.6462 l -17.3417,11.2922 -6.856,8.066 -7.6627,-6.0494 0.8066,-7.2594 12.0989,-10.889 -2.4198,-5.6462 -14.5187,-4.4363 -8.0659,-11.6956 1.6132,-20.1648 -3.6298,-4.4363 4.8396,-6.0495 -0.8066,-4.8396 -16.9384,4.033 -12.0989,10.4858 -5.6462,-3.6297 -7.2593,-13.7121 -2.4199,-9.6792 -6.0495,-1.2099 -6.856,6.4528 -0.4033,14.1153 -4.4362,9.2759 h -3.6297 l -11.6957,-12.0989 6.0495,-8.4692 -0.4033,-6.4528 -10.4857,-4.033 -8.4693,8.0659 -14.1154,2.0166 -4.0329,-9.6792 6.4528,-8.4692 -0.4033,-7.6627 -22.1814,-16.5352 -9.2759,-9.6791 1.6132,-9.6792 -4.8396,-9.6791 v -13.3088 l 4.033,-5.2429 10.4858,3.2265 10.889,-6.0495 4.8396,-18.5517 7.6626,-16.9385 23.7946,-11.2923 2.0164,-16.1319 -3.2264,-5.2429 -10.0824,4.033 -11.2923,-2.823 -2.8231,-9.276 12.099,-15.3252 -1.21,-6.8561 -4.1292,-5.2799 -8.4001,-4.178 -5.1002,-6.1593 1.2835,-14.3683 6.4527,-11.6956 1.6384,-20.2173 -3.6296,-12.9056 6.856,-17.745 -5.2429,-6.856 -20.1648,-0.8067 -5.2429,-9.6791 7.6626,-27.0209 -5.0951,-8.9581 -19.1067,1.4258 -11.6922,-9.6959 -0.5703,-10.8367 -10.8367,-14.5439 h -8.5552 l -6.559,11.9774 5.7035,7.4145 -3.422,11.9773 -6.5591,5.9887 -7.1294,-1.9961 -1.4258,-5.4184 7.6996,-4.848 -0.2851,-5.4182 -5.9887,-1.9963 -10.8366,5.1331 -6.559,-5.1331 -11.1218,2.5665 -5.4183,12.5477 5.1332,12.8329 -4.2777,6.559 -9.1255,-5.9887 -3.137,-12.2625 -15.3994,-1.4259 -18.5363,-14.2587 -9.1256,-0.5703 -17.3957,12.5476 -6.8441,-5.9886 v -12.8328 l -3.7073,-9.1257 -18.8215,-9.6959 -14.2587,0.8556 -12.5477,-8.5553 -16.5401,-13.6883 -0.8555,-8.2701 15.6846,-24.5249 5.1331,-20.5326 25.0954,-18.8215 2.2814,-9.4108 -3.7073,-7.9849 -3.9925,-0.8554 -9.4107,7.1293 -6.2739,-3.1369 -0.4375,-13.2574 10.349,-6.1149 2.4338,-11.4897 -10.5232,-1.6066 -3.4221,-6.9551 7.4424,-4.3437 z"
     style="display:inline;fill:#fefee9;fill-opacity:1;stroke:#646464;stroke-width:1.06666672;stroke-linecap:butt;stroke-linejoin:round;stroke-miterlimit:4;stroke-dasharray:none;stroke-opacity:1"
     id="El_Encanto,_Código_DANE_:_91263" />
  <g
     id="layer10"
     style="display:inline"
     transform="translate(-2616.6665,-7398.6101)" />
  <g
     id="layer2"
     style="display:inline"
     transform="translate(-2931.0665,-7840.1834)" />
</svg>
