<?xml version="1.0" encoding="UTF-8" standalone="no"?>
<svg
   xmlns:dc="http://purl.org/dc/elements/1.1/"
   xmlns:cc="http://creativecommons.org/ns#"
   xmlns:rdf="http://www.w3.org/1999/02/22-rdf-syntax-ns#"
   xmlns:svg="http://www.w3.org/2000/svg"
   xmlns="http://www.w3.org/2000/svg"
   width="724.24384"
   height="916.53986"
   id="svg2"
   version="1.1">
  <defs
     id="defs4" />
  <metadata
     id="metadata7">
    <rdf:RDF>
      <cc:Work
         rdf:about="">
        <dc:format>image/svg+xml</dc:format>
        <dc:type
           rdf:resource="http://purl.org/dc/dcmitype/StillImage" />
        <dc:title></dc:title>
      </cc:Work>
    </rdf:RDF>
  </metadata>
  <g
     id="layer3"
     style="display:inline"
     transform="translate(-1873.2034,-4755.0495)" />
  <path
     id="Armenia,_Código_DANE_:_63001"
     style="fill:#c12838;fill-opacity:1;stroke:#646464;stroke-width:0.42666668;stroke-linecap:butt;stroke-linejoin:round;stroke-miterlimit:4;stroke-dasharray:none;stroke-opacity:1"
     d="m 186.6227,454.0796 0.4188,-4.9845 -1.6284,-1.2715 -3.2567,1.7485 -2.931,-6.8345 -3.4195,-0.6358 1.9539,-3.9735 -0.9771,-1.4304 3.7453,-4.2914 4.5596,-2.384 h 4.0708 l 1.1399,-3.02 h 2.6054 l 5.0479,-3.0199 -0.3256,-1.5894 1.7912,-3.8146 3.7453,-0.1578 1.7911,-5.2453 1.6284,-0.9536 v -3.8146 l -1.9539,-1.1125 0.6513,-4.1325 1.7911,-0.9536 -0.1621,-2.7019 2.1169,-2.2252 0.4885,-3.6557 -1.9539,-2.8608 2.6052,-1.1125 -0.1621,-6.0399 -1.6284,-0.3179 -3.5825,5.0861 -6.1879,2.0663 -4.0709,0.1579 2.6055,-2.384 0.6513,-5.404 -6.025,2.384 -8.4676,0.4768 1.6284,-3.0197 7.1648,-2.2253 5.8622,-2.384 1.7913,-4.2914 -1.6283,-6.3575 2.4424,-3.9736 0.1621,-3.9735 -3.4195,1.5893 -1.1398,-2.384 -2.7684,-0.6357 0.977,-4.1325 8.4676,-5.245 12.7013,-0.1579 8.4676,-6.0397 2.1169,-4.2914 3.5825,-2.3842 -7.3278,-1.2715 -5.3736,1.9075 -5.6992,-0.3181 -4.7224,1.7485 -8.4676,-0.9536 -7.002,2.5429 -1.3026,-1.9072 h -3.4198 l -3.2567,3.9735 -2.4425,-0.6359 -1.4656,3.8146 h -5.5364 l -1.7911,1.9074 -3.9083,0.4768 -2.1167,2.384 -7.4306,-0.9832 0.7507,-3.8511 5.9874,1.5735 10.3631,-4.2707 -1.3818,-4.2709 -4.6058,0.2248 2.5331,-5.3945 6.4482,-6.7433 -2.0727,-4.0461 4.3754,-4.7202 -1.3815,-4.7202 8.2901,-11.4637 3.6847,-3.3715 1.8424,-11.4637 2.5331,-2.4725 -0.6908,-3.3715 7.3692,-7.193 6.448,-0.899 2.5331,2.4725 4.3755,-1.1238 2.7635,-4.4956 c 0,0 6.2176,5.8443 7.5993,5.8443 1.3818,0 1.3818,-2.4725 1.3818,-2.4725 l 4.1813,-0.1152 5.2632,0.8768 0.6513,1.2714 2.4427,-0.1578 -0.9771,-2.8608 7.3278,-4.2914 1.1398,3.9735 2.2797,-3.8146 2.7682,0.4768 3.4195,-1.9072 3.4198,2.2251 4.0708,-3.4968 4.2338,2.3842 0.8143,-5.4039 2.931,-0.3179 2.2797,-1.2717 1.9541,4.1325 3.4195,-0.4768 -0.8141,-3.6557 2.7683,0.6358 2.7682,-3.0198 6.6762,-2.3842 3.2568,2.3842 2.2797,-1.4304 3.4197,3.4966 5.2107,-1.4304 3.5825,1.5893 2.4424,-2.0661 3.4198,0.1578 7.6533,-4.2914 2.4424,-4.9271 6.0252,-4.6093 1.9539,-4.6093 -2.6054,-1.9074 0.4885,-2.2251 3.9083,-1.5893 -0.4885,-2.3842 2.7682,-2.0662 0.4885,-3.6556 3.2568,-0.4768 1.6283,-2.7021 h 8.4674 l 3.5825,-4.4504 3.9081,-0.1578 0.1621,-5.404 1.6186,-2.1758 3.9808,6.3849 -2.3027,1.7982 v 5.844 l -2.303,4.0461 2.9937,3.1469 4.6057,-4.2709 2.0727,2.9222 3.8537,2.7556 -6.1566,5.7858 -3.2241,-0.8992 0.2304,4.4956 -3.6847,1.5736 -0.2302,4.2707 v 4.945 l -5.7572,6.2936 -3.6845,1.5735 -3.9149,8.5415 -2.7635,0.6743 -6.9086,4.9451 -0.9211,4.7202 -3.4543,1.7982 -2.0726,5.8443 -7.3691,2.2476 v 3.5964 l -5.2967,0.4497 -3.6847,-2.6974 -2.0725,1.1239 -4.1453,0.2248 2.7635,4.2707 -1.1513,1.5734 -5.0665,0.8992 1.1516,3.5964 -2.3029,2.6973 0.9211,1.1239 -0.9211,6.0689 0.2301,4.0459 -2.9937,2.4725 -0.4605,4.0461 -2.0726,5.3945 -4.145,0.6744 -4.8361,3.5963 -1.8423,5.3946 -3.4543,0.6744 -1.1514,3.5963 h -3.2241 l 1.3818,6.0691 -4.6059,1.7982 -0.921,2.6972 2.5331,1.5736 -3.9148,2.6971 1.1513,2.9223 -0.4606,4.0458 -4.836,0.4495 -0.9212,4.4956 1.8424,2.023 c 0,0 -2.0726,0.4495 -3.2239,1.1239 -1.1516,0.6743 1.6119,2.6974 1.6119,2.6974 l -4.836,5.1697 -2.0726,5.3945 -2.9937,3.1469 -4.6058,0.4497 -0.4606,5.8441 -3.9149,-1.3487 -2.3027,2.2479 -1.3818,3.1469 -4.1453,0.2246 -2.0725,4.4956 0.9212,3.8212 -6.2178,-1.1238 -2.3028,2.4725 -4.6058,-2.2479 -3.9149,2.6974 1.6119,2.922 v 3.1469 l -3.6844,0.6743 v 6.9681 l -2.5332,5.6192 v 3.3718 l -7.3691,1.7982 -1.6122,-2.4726 -5.0662,9.2158 1.1513,2.6974 -2.0725,4.0459 0.4606,2.4725 -4.6057,5.6194 -13.1008,-1.3399 z" />
  <path
     id="Circasia,_Código_DANE_:_63190"
     style="fill:#fefee9;fill-opacity:1;stroke:#646464;stroke-width:0.42666668;stroke-linecap:butt;stroke-linejoin:round;stroke-miterlimit:4;stroke-dasharray:none;stroke-opacity:1"
     d="m 359.3304,210.3022 -1.4723,1.972 -0.1621,5.404 -3.908,0.1578 -3.5825,4.4504 h -8.4675 l -1.6283,2.702 -3.2568,0.4768 -0.4885,3.6557 -2.7682,2.0662 0.4885,2.3842 -3.9083,1.5893 -0.4885,2.2251 2.6054,1.9074 -1.9539,4.6093 -6.0251,4.6092 -2.4425,4.9272 -7.6533,4.2914 -3.4198,-0.16 -2.4424,2.0661 -3.5825,-1.5893 -5.2107,1.4304 -3.4197,-3.4965 -2.2797,1.4304 -3.2568,-2.3842 -6.6762,2.3842 -2.7682,3.0199 -2.7682,-0.6359 0.814,3.6557 -3.4195,0.4768 -1.9541,-4.1325 -2.2797,1.2717 -2.931,0.3178 -0.8143,5.404 -4.2338,-2.3842 -4.0708,3.4967 -3.4198,-2.2251 -3.4195,1.9072 -2.7682,-0.4768 -2.2797,3.8146 -1.1398,-3.9735 -7.3278,4.2914 0.9771,2.8608 -2.4427,0.1579 -0.6513,-1.2715 -5.5364,-0.9536 3.0939,-4.1325 6.6763,-1.5895 4.0708,-3.4965 4.7224,1.2714 0.9771,-1.7482 7.4905,-2.0664 v -2.8608 l -4.071,0.4768 2.6054,-4.2914 -5.3736,1.5893 0.3257,-10.8079 2.2797,-1.9074 -0.9771,-2.5429 4.7224,-3.9736 3.2567,1.4304 1.7912,-0.6357 -2.931,-3.4965 -8.4676,-2.7021 -1.4656,0.9536 h -2.2797 l -3.7453,-4.6093 0.4885,-2.8608 -5.0479,-5.4835 0.4886,-2.6225 h 2.1169 l 2.6054,-2.384 -1.6284,-6.0399 1.4654,-2.7019 2.9312,4.6093 5.2107,0.1579 v -2.0662 l 3.7453,-0.16 2.1169,-2.7018 7.6533,1.4304 0.6515,-8.1061 4.0709,0.7949 4.7223,-4.1325 0.3256,-4.1324 6.6088,-3.5258 2.8787,-1.0012 3.4737,1.7396 0.2302,-3.8213 8.2904,-10.1147 3.9149,-0.4498 5.9874,-2.922 9.2115,-7.6422 -0.9212,-5.3948 3.9149,-0.899 13.587,-20.9041 9.4417,-6.5186 h 3.6847 l 2.9937,-5.8441 3.6845,-0.4497 3.9148,-5.6192 7.8298,3.5964 2.0728,1.7982 14.0473,-3.3717 3.4543,-4.7202 h 4.1453 l 14.0476,-8.092 v -5.1699 l 3.4543,-2.0228 8.9523,1.0956 4.6346,6.322 -1.1515,16.4085 -5.0663,0.4495 -3.4543,1.7982 0.6908,9.8901 -9.2115,4.4956 -0.9212,7.1927 1.6122,3.1469 0.2302,5.8443 -5.5269,7.8671 h -6.448 l -1.6121,-1.1239 -8.06,3.1469 -6.2178,7.4176 -1.8423,11.014 -5.0663,2.4725 1.8424,3.3715 -2.9937,5.8443 -5.9877,6.2938 1.1516,2.6971 -2.285,5.5074 z" />
  <path
     id="Buenavista,_Código_DANE_:_63111"
     style="fill:#fefee9;fill-opacity:1;stroke:#646464;stroke-width:0.42666668;stroke-linecap:butt;stroke-linejoin:round;stroke-miterlimit:4;stroke-dasharray:none;stroke-opacity:1"
     d="m 263.4146,477.4175 -1.6288,-3.9034 -3.6847,-2.922 -1.9573,-10.2274 1.2666,-3.9335 -1.1514,-9.1036 -2.5331,-1.1238 -1.9,-3.5403 -5.1238,-2.0791 -5.0665,3.2593 -14.3929,0.4495 -17.0411,10.3396 -0.5758,4.0461 3.5695,2.3601 -3.1089,3.484 2.8785,7.7548 0.1152,4.9451 -2.1877,0.1131 -5.1817,2.4725 -4.2602,-0.4495 -3.2239,1.9106 -2.4182,3.9337 -6.2176,4.9448 h -5.8724 l -2.7635,1.4611 -3.5693,17.8697 1.3242,6.5186 3.5117,-3.7088 h 2.3029 l 3.6847,7.7547 4.3754,-1.4611 1.4968,2.5849 3.9149,-2.922 2.5331,0.3371 -2.0725,3.2593 3.1089,4.2707 3.3391,-0.4495 3.2241,2.023 2.1877,-1.0116 5.8722,4.3832 h 7.945 l 11.3992,-7.3052 15.8897,-2.1355 3.9149,0.6744 8.9813,-4.0459 1.7272,-4.7202 4.7208,-0.2249 -1.6119,-3.4839 -0.9212,-3.9337 -5.1814,-6.1813 1.3817,-8.429 0.2302,-7.0806 -1.8423,-2.3601 0.5926,-4.4132 z" />
  <path
     id="Filandia,_Código_DANE_:_63272"
     style="display:inline;fill:#fefee9;fill-opacity:1;stroke:#646464;stroke-width:0.42666668;stroke-linecap:butt;stroke-linejoin:round;stroke-miterlimit:4;stroke-dasharray:none;stroke-opacity:1"
     d="m 450.7132,62.4178 -4.0009,-1.8473 -4.3084,-5.8496 -9.5405,0.3079 -10.4636,6.1574 h -5.5396 l -6.463,-8.6206 -7.0784,2.1553 -7.5398,9.8262 -8.3093,-0.3083 -7.3863,-3.6943 -8.3093,2.1551 -11.3869,-3.6945 -6.1551,-4.9259 -3.0775,2.7708 -6.1551,1.2316 v 4.618 l -5.8475,6.1576 -6.7705,-5.8496 -8.0015,-0.6156 0.3076,-3.6948 -3.3852,-2.7707 h -6.4629 l -2.1543,-4.3104 -5.5396,-4.0022 -6.4629,-0.3078 -4.8585,-4.8636 h -7.0421 l -3.7824,2.4713 -7.7828,2.867 -5.9951,-0.8901 -1.7436,1.0217 6.3951,5.0711 -2.7522,17.0629 4.5096,13.6042 -2.1967,8.7618 7.3854,12.2268 -1.5577,12.4207 -5.421,6.1333 -8.7866,1.7524 -15.8163,-0.8762 -14.0589,-4.381 -7.6326,1.6053 3.3384,10.2242 3.4543,0.2247 1.6122,16.1839 -1.6122,8.5414 -3.9149,1.1239 -4.3752,7.1929 -2.0728,0.899 v 5.8443 l -2.7633,1.5733 9.4417,5.1699 2.9937,0.6744 1.612,3.3715 3.6847,0.6743 2.0725,2.2479 3.4543,0.6742 1.3818,-4.0459 8.0601,-3.5964 2.9937,-0.4495 7.1388,-3.8212 3.4543,-8.3168 2.3029,0.8992 3.9149,-1.5735 2.5331,0.6743 -0.6908,4.9451 0.4606,2.2479 -4.3754,3.1466 3.6844,2.0231 1.1516,-1.3487 5.9874,-0.2247 -1.8423,3.8213 1.8423,2.6971 -2.1877,4.3832 3.3197,-1.4025 3.4737,1.7398 0.2304,-3.8213 8.2903,-10.115 3.9149,-0.4494 5.9874,-2.9221 9.2115,-7.6424 -0.9211,-5.3946 3.9149,-0.8992 13.5869,-20.9041 9.4417,-6.5184 h 3.6845 l 2.9939,-5.8443 3.6845,-0.4495 3.9149,-5.6194 7.8298,3.5964 2.0725,1.7982 14.0476,-3.3715 3.4543,-4.7205 h 4.1452 l 14.0474,-8.0917 v -5.1699 l 3.4543,-2.023 8.6669,1.0775 5.1505,-1.7519 0.2302,-7.1927 4.3754,-1.3487 2.7636,-5.8441 6.9085,-3.3717 5.2967,2.023 1.3815,-5.1699 4.8361,-0.899 2.0727,-3.1469 3.2239,-0.4497 0.4606,-5.844 5.9932,-5.0936 z" />
  <path
     id="Quimbaya,_Código_DANE_:_63594"
     style="display:inline;fill:#fefee9;fill-opacity:1;stroke:#646464;stroke-width:0.42666668;stroke-linecap:butt;stroke-linejoin:round;stroke-miterlimit:4;stroke-dasharray:none;stroke-opacity:1"
     d="m 228.3919,121.4407 -6.1506,5.2574 -12.3017,1.7523 -9.6655,-7.8858 h -7.0295 l -14.0587,-5.2572 h -6.1508 l -14.0589,5.2572 h -9.6655 l -7.0295,-7.8857 h -5.2719 l -9.7156,-2.9993 -3.7782,7.0644 v 7.4348 l -11.805,14.8696 -14.2903,5.5761 -3.728,4.9566 0.6212,6.5293 -4.3492,0.6195 -1.8639,10.5327 -5.2674,8.8168 -6.0642,-0.1002 -4.8655,8.6615 8.7867,9.6382 -2.5728,0.7733 5.2721,6.1336 -9.6655,2.6285 -1.7572,4.381 -7.0295,6.1333 4.3934,4.381 2.7682,0.7761 1.1972,-2.3289 2.0725,3.1468 h 2.5334 l 3.2239,1.5734 2.3029,-1.1239 2.3029,2.6972 0.2302,-3.1467 3.4543,0.6742 1.8424,2.9222 v 3.1469 l 2.7635,1.5733 v 3.3718 l 2.5331,-2.2479 -0.2304,-2.4726 2.7635,1.3487 v 2.6974 l 2.3029,0.2247 0.9212,-3.8211 3.2239,-2.2478 3.4543,2.4725 -2.9937,2.4725 0.9212,2.922 3.6845,-3.1466 1.8423,4.2707 3.6847,-3.5966 2.5331,3.8212 4.1451,0.2249 4.836,-1.7982 0.2304,-1.3487 5.5269,1.3487 4.3754,-2.4725 1.3818,-2.0231 5.9874,0.8992 4.8361,3.821 6.448,1.7982 0.2304,2.9223 5.9874,-0.8992 0.6907,2.4725 10.5933,2.023 0.6908,-1.1238 4.836,2.6972 0.2304,-3.1469 2.7634,-0.4495 3.2241,-2.922 2.9937,3.8212 4.3754,-0.8992 v -3.8212 l 2.0726,-0.6744 1.1515,1.5736 7.1388,-0.8992 0.9212,-1.1239 6.6784,-3.8212 0.6908,2.6974 8.0601,2.922 1.612,-3.3715 1.8423,0.2246 2.7633,-4.4953 v -2.9223 l 3.6847,-3.821 2.0725,5.3946 3.6847,-0.2249 0.2302,-5.6194 3.9382,-3.2104 0.5401,-2.5129 h 2.1169 l 2.6055,-2.384 -1.6284,-6.0397 1.4656,-2.702 2.931,4.6092 5.2109,0.1579 v -2.0663 l 3.7452,-0.1579 2.1169,-2.7021 7.6534,1.4306 0.6513,-8.106 4.071,0.7947 4.7222,-4.1325 0.3257,-4.1325 6.3542,-3.2986 v 0 l 2.0012,-4.2091 -1.8423,-2.6973 1.8423,-3.8211 -5.9874,0.2247 -1.1516,1.3487 -3.6844,-2.0231 4.3754,-3.1468 -0.4606,-2.2477 0.6908,-4.9451 -2.5331,-0.6743 -3.9149,1.5735 -2.3029,-0.8992 -3.4543,8.3168 -7.1388,3.821 -2.9937,0.4497 -8.0601,3.5964 -1.3818,4.0459 -3.4543,-0.6744 -2.0725,-2.2477 -3.6847,-0.6743 -1.612,-3.3715 -2.9937,-0.6744 -9.4417,-5.1699 2.7633,-1.5733 v -5.8443 l 2.0728,-0.899 4.3752,-7.1929 3.9149,-1.1239 1.6122,-8.5414 -1.6122,-16.1839 -3.4543,-0.2246 -3.236,-10.2968 z" />
  <path
     d="m 68.4952,372.4935 1.9539,-3.0197 h 2.9312 l 2.2797,-0.9538 4.071,3.3378 1.9539,-1.4304 4.5596,2.7018 1.6284,-0.4768 -0.3258,4.4504 h 5.5364 l 0.6513,-0.6357 1.6286,0.6357 -0.3257,2.2253 h 2.7682 l 1.1398,2.0661 0.9771,-2.2251 3.7453,1.4304 1.3026,3.0198 1.9541,-1.1126 1.6284,2.2253 2.1169,-2.2253 1.7911,0.9536 c 0,0 4.8852,0.1579 5.5365,0.1579 0.6515,0 2.7682,0.3179 2.7682,0.3179 l 7.165,-1.4304 2.2797,0.1578 -0.1622,-4.4503 c 0,0 3.5825,0 4.2339,0.3179 0.6513,0.3178 1.3026,1.7482 1.3026,1.7482 l 1.1398,-0.16 -0.4885,-2.7018 1.7913,-0.6358 1.3026,-2.861 h 3.094 l 0.9771,-2.2251 -2.1169,-2.0663 0.3255,-0.6357 h 2.7682 l 1.6284,-2.384 3.2568,0.4768 -1.6284,-4.9272 1.14,-0.9536 -1.6283,-1.4306 3.2567,-2.7019 h 3.0938 l -1.7912,-3.0199 3.5825,-1.9072 h 3.5823 l -0.3769,-3.434 0.6993,-4.1024 5.9874,1.5735 10.3629,-4.2707 -1.3818,-4.2709 -4.6056,0.2248 2.5331,-5.3945 6.448,-6.7433 -2.0726,-4.0461 4.3755,-4.7202 -1.3818,-4.7202 8.2904,-11.4637 3.6847,-3.3715 1.8421,-11.4637 2.5334,-2.4725 -0.691,-3.3715 7.3691,-7.193 6.448,-0.899 2.5334,2.4725 4.3754,-1.1238 2.7633,-4.4956 c 0,0 6.2179,5.8443 7.5996,5.8443 1.3818,0 1.3818,-2.4725 1.3818,-2.4725 l 3.815,-0.1408 3.1868,-4.1841 6.6765,-1.5894 4.0708,-3.4967 4.7223,1.2714 0.9771,-1.7482 7.4906,-2.0662 v -2.861 l -4.0711,0.4768 2.6055,-4.2914 -5.3737,1.5896 0.3256,-10.8081 2.2799,-1.9072 -0.9771,-2.5432 4.7223,-3.9733 3.2568,1.4304 1.7911,-0.6358 -2.9312,-3.4967 -8.4674,-2.7021 -1.4656,0.9538 h -2.2797 l -3.7452,-4.6092 0.4885,-2.8611 -5.0938,-5.5667 h -6e-4 l -3.9441,3.184 -0.2304,5.6194 -3.6845,0.2247 -2.0727,-5.3946 -3.6845,3.8212 v 2.9221 l -2.7635,4.4955 -1.8422,-0.2248 -1.6121,3.3717 -8.06,-2.922 -0.691,-2.6974 -6.6782,3.8212 -0.9211,1.1239 -7.139,0.899 -1.1514,-1.5734 -2.0725,0.6744 v 3.8212 l -4.3755,0.899 -2.9937,-3.8212 -3.2241,2.9222 -2.7635,0.4495 -0.2302,3.1469 -4.836,-2.6974 -0.6908,1.1238 -10.5933,-2.0228 -0.6908,-2.4725 -5.9876,0.899 -0.2302,-2.9221 -6.448,-1.7982 -4.836,-3.8212 -5.9877,-0.899 -1.3815,2.0229 -4.3755,2.4725 -5.527,-1.3487 -0.2302,1.3487 -4.8361,1.7982 -4.145,-0.2247 -2.5334,-3.8212 -3.6844,3.5964 -1.8424,-4.2707 -3.6845,3.1468 -0.9211,-2.922 2.9937,-2.4725 -3.4543,-2.4726 -3.2241,2.2477 -0.9212,3.8213 -2.3027,-0.2249 v -2.6972 l -2.7635,-1.3487 0.2301,2.4726 -2.5331,2.2476 v -3.3715 l -2.7633,-1.5735 v -3.1469 l -1.8423,-2.922 -3.4543,-0.6744 -0.2304,3.1469 -2.3027,-2.6974 -2.303,1.1239 -3.2241,-1.5734 h -2.5331 l -2.0725,-3.1469 -1.2775,2.6883 0.8275,4.9937 7.9081,3.5046 -5.2721,3.5049 v 5.2571 h -4.3934 v 5.2572 l -11.4229,6.1333 6.6137,6.8732 6.419,6.0591 -3.728,3.7173 -4.3492,-1.8585 -5.5919,4.3368 v 9.2935 l -4.3492,7.4349 7.4558,-1.8588 1.2426,2.4783 5.5919,1.8587 -4.9704,4.9564 6.8345,3.0978 -0.6214,4.9566 -3.1066,1.8588 3.728,8.0544 -5.2529,4.9564 2.3298,8.0544 -7.3005,1.2392 v 6.1956 l -4.9704,8.0544 6.2131,3.7174 h 4.3492 l 3.1068,4.9566 -3.1068,2.478 -1.2426,5.5762 -10.5624,5.5761 4.9707,1.8587 v 8.674 l 10.1158,4.3377 z"
     style="display:inline;fill:#fefee9;fill-opacity:1;stroke:#646464;stroke-width:0.42666668;stroke-linecap:butt;stroke-linejoin:round;stroke-miterlimit:4;stroke-dasharray:none;stroke-opacity:1"
     id="Montenegro,_Código_DANE_:_63470" />
  <path
     d="m 162.9415,457.3646 7.979,-4.4504 2.7683,4.2914 1.7911,-3.6557 c 0,0 2.6054,1.9072 3.5825,1.9072 0.9769,0 5.2107,-2.0661 5.2107,-2.0661 l 2.4079,0.749 h 2e-4 l 0.3603,-5.0406 -1.6284,-1.2715 -3.2567,1.7485 -2.931,-6.8346 -3.4195,-0.6357 1.9539,-3.9735 -0.9771,-1.4304 3.7453,-4.2915 4.5596,-2.384 h 4.0708 l 1.1399,-3.0199 h 2.6054 l 5.0479,-3.02 -0.3256,-1.5893 1.7912,-3.8146 3.7453,-0.1579 1.7911,-5.2452 1.6284,-0.9536 v -3.8146 l -1.9539,-1.1125 0.6513,-4.1325 1.7911,-0.9536 -0.1621,-2.7019 2.1169,-2.2253 0.4885,-3.6556 -1.9539,-2.8608 2.6052,-1.1126 -0.1621,-6.0399 -1.6284,-0.3178 -3.5825,5.086 -6.1879,2.0664 -4.0709,0.1579 2.6055,-2.384 0.6513,-5.404 -6.025,2.384 -8.4676,0.4768 1.6284,-3.0197 7.1648,-2.2253 5.8622,-2.384 1.7913,-4.2914 -1.6283,-6.3576 2.4424,-3.9735 0.1621,-3.9736 -3.4195,1.5894 -1.1398,-2.384 -2.7684,-0.6358 0.977,-4.1324 8.4676,-5.2451 12.7013,-0.1578 8.4676,-6.0397 2.1169,-4.2914 3.5825,-2.3842 -7.3278,-1.2715 -5.3736,1.9074 -5.6992,-0.3181 -4.7224,1.7485 -8.4676,-0.9536 -7.002,2.543 -1.3026,-1.9072 h -3.4198 l -3.2567,3.9735 -2.4425,-0.6359 -1.4656,3.8146 h -5.5364 l -1.7911,1.9074 -3.9083,0.4768 -2.1167,2.384 -7.3937,-1.0108 0.3917,3.7129 h -3.5825 l -3.5825,1.9072 1.7913,3.0199 h -3.094 l -3.2567,2.7019 1.6284,1.4306 -1.1399,0.9536 1.6284,4.9271 -3.2567,-0.4768 -1.6284,2.384 h -2.7682 l -0.3258,0.6358 2.1169,2.0663 -0.9771,2.2251 h -3.0939 l -1.3026,2.861 -1.7912,0.6357 0.4885,2.7019 -1.1398,0.16 c 0,0 -0.6515,-1.4304 -1.3028,-1.7483 -0.6513,-0.3178 -4.2338,-0.3178 -4.2338,-0.3178 l 0.1621,4.4503 -2.2797,-0.1579 -7.1648,1.4304 c 0,0 -2.1169,-0.3178 -2.7682,-0.3178 -0.6515,0 -5.5366,-0.1579 -5.5366,-0.1579 l -1.7912,-0.9536 -2.1169,2.2253 -1.6284,-2.2253 -1.9539,1.1125 -1.3028,-3.0197 -3.7453,-1.4304 -0.9771,2.2251 -1.1398,-2.0662 h -2.7682 l 0.3258,-2.2252 -1.6284,-0.6358 -0.6513,0.6358 h -5.5367 l 0.3258,-4.4504 -1.6284,0.4768 -4.5593,-2.7019 -1.9542,1.4304 -4.071,-3.3378 -2.2797,0.9538 h -2.931 l -1.9541,3.0198 1.3561,2.9809 3.1849,1.1964 -6.2131,6.8151 h -4.9707 l -6.2131,4.9566 h -9.9411 l 6.8345,6.1956 -7.456,3.0978 3.1068,11.772 -7.7666,3.9362 -3.4172,2.8789 7.4558,3.7174 -8.2112,5.2236 1.3766,3.4503 11.8051,3.0978 1.8641,-1.8586 1.8639,3.7174 14.2903,0.6195 3.728,1.2392 1.8639,-3.7175 h 3.1066 l 8.6986,-4.3369 4.3493,7.4347 7.6106,3.1181 5.2024,-1.676 h 4.9704 l 3.3415,9.7101 7.4557,-3.7173 2.4854,-6.8152 6.2131,5.5759 2.1265,3.9505 4.4128,-2.6711 1.5379,7.2062 7.6491,-4.2974 3.1066,2.4783 8.0772,2.4783 7.5622,6.7001 z"
     style="display:inline;fill:#fefee9;fill-opacity:1;stroke:#646464;stroke-width:0.42666668;stroke-linecap:butt;stroke-linejoin:round;stroke-miterlimit:4;stroke-dasharray:none;stroke-opacity:1"
     id="La_Tebaida,_Código_DANE_:_63401" />
  <path
     id="Genova,_Código_DANE_:_63302"
     style="display:inline;fill:#fefee9;fill-opacity:1;stroke:#646464;stroke-width:0.42666668;stroke-linecap:butt;stroke-linejoin:round;stroke-miterlimit:4;stroke-dasharray:none;stroke-opacity:1"
     d="m 337.0142,671.7705 -4.3966,-0.4768 -3.094,-7.3111 -4.2336,-0.6358 -4.071,-7.7881 -16.4465,-4.9272 h -3.094 l -4.8851,-1.5893 -13.027,-0.7949 -11.0731,5.0863 -4.3965,5.245 -13.6783,4.2914 -13.6783,-2.5431 -6.188,-10.49 -12.0499,-3.4968 -6.025,-3.4967 -4.5595,-0.7947 -1.6284,-3.8146 4.8851,-4.4503 1.9542,-12.3973 5.0478,-3.1789 0.6516,-6.1986 3.5823,-5.5628 -0.1622,-4.6093 c 0,0 0.8143,-0.1579 0.8143,-1.1126 0,-0.9536 -1.3028,-6.5167 -1.3028,-6.5167 l -3.2568,-0.6357 -3.5822,1.1125 -3.094,-3.3376 -5.2109,0.6358 -6.3505,-6.9935 -5.2109,-0.6357 -5.0479,0.9536 -4.7223,-3.3376 -0.6513,-2.8611 -1.9542,-4.2914 -5.2108,0.6358 -3.2568,-6.0397 -5.8622,-0.7947 -5.862,-4.6886 -1.9782,4.9352 8.0772,2.4783 -1.6226,4.6861 4.3492,4.3369 -1.2428,3.0978 -1.8639,1.8587 -1.8637,6.1957 -3.1068,2.4783 -0.6212,10.5327 -4.9707,3.0978 v 6.1956 l -3.5725,9.1386 -2e-4,2e-4 -8.8537,6.3505 v 8.9837 l -5.2813,9.9131 -5.5919,2.1683 -0.3106,6.5056 -1.8639,0.6196 0.3106,3.0978 1.8639,3.0978 -8.6526,7.0562 -3.2514,13.8063 4.6609,8.5097 4.4706,5.8474 -3.4406,12.4871 -5.2813,5.8858 -14.2903,28.1903 -0.6213,6.8152 -7.456,8.0544 0.9321,10.5324 2.7959,2.1686 -1.2426,3.4076 -1.8639,0.3099 -1.5535,3.7174 4.3494,10.2227 -4.0386,3.7175 6.2131,13.3206 6.2134,0.9295 v 8.6739 l -8.0773,6.5054 0.6213,8.6739 5.9025,-0.3098 1.8641,-2.4783 H 127.36 l 15.533,8.0544 12.7371,1.2391 10.2519,6.1956 11.4944,0.6197 v -4.0273 l 5.2813,4.3371 0.985,9.6597 2.6359,5.2572 22.8457,-1.7523 12.7477,3.1336 4.883,-8.5544 -2.6381,-6.0653 3.7658,-11.6312 6.9305,-5.7376 11.5872,-0.8684 0.8913,-6.9477 -5.348,-7.8159 4.4567,-4.3421 8.9135,5.2106 6.9125,-0.5271 h 3.5654 l -0.8911,-10.3354 4.9112,-7.0613 8.6766,-3.7871 3.6201,4.3422 4.4567,-7.8161 9.75,-0.8683 2.662,-6.9604 -1.8424,-10.5645 0.2302,-6.9681 5.0665,-7.1928 -3.2241,-7.4176 3.7817,-6.9043 7.7327,-3.885 6.9086,-12.1378 8.751,-4.4956 4.6056,-10.115 0.2304,-5.844 10.5931,-2.6974 5.9142,-6.7714 -0.036,-12.8962 -6.7987,-2.444 -1.3327,-6.9086 z" />
  <path
     id="Cordoba,_Código_DANE_:_63212"
     style="display:inline;fill:#fefee9;fill-opacity:1;stroke:#646464;stroke-width:0.42666668;stroke-linecap:butt;stroke-linejoin:round;stroke-miterlimit:4;stroke-dasharray:none;stroke-opacity:1"
     d="m 438.8542,418.5155 -5.3894,4.7612 -4.8359,0.2248 -10.5933,-6.7432 -2.3029,-6.9681 -15.8897,-6.069 -6.4482,2.0231 -5.757,8.0919 h -7.5996 l -4.1451,1.5734 -1.8423,5.6194 -3.9149,-0.8992 -2.3029,-4.9451 -5.757,8.092 -7.5996,0.2248 -6.9086,1.7982 -7.8298,-5.8441 -11.284,-0.6743 -7.3692,3.821 -21.1865,-1.3485 -4.6057,-3.1468 -7.139,-0.4498 -7.5993,7.4176 -5.7573,-4.7202 h -4.145 v 1.1239 l -2.0728,2.6974 0.9212,2.922 -3.2239,2.922 -2.3029,4.4956 -2.0726,-1.5733 -4.1453,-0.2249 0.691,2.2477 -2.7635,4.0461 -2.7635,-2.6974 -0.6908,1.3487 0.9212,3.1468 -1.4394,1.6297 2.0152,3.7649 2.5331,1.1238 1.1514,9.1036 -1.2666,3.9335 1.9573,10.2274 3.6847,2.922 1.4942,3.5659 3.2263,2.8497 2.6054,0.1578 0.6513,2.7021 3.7453,1.2715 -0.3256,5.245 1.3026,0.3179 2.117,2.861 4.7223,-4.9272 3.9081,1.5894 3.4195,-0.1579 2.1169,-3.3378 3.094,-0.3179 0.814,5.0861 6.188,11.6026 6.1877,0.4768 6.8393,-3.1787 7.8161,-1.7485 1.9541,1.5896 h 6.8393 l 5.2106,-1.5896 4.2338,-0.1579 2.7683,2.8608 5.2108,-0.1578 9.119,-7.7882 7.3275,-12.3972 7.0021,-8.9007 4.3966,3.1787 16.2837,-1.9072 8.4676,6.9932 4.0711,1.9075 7.1648,6.8343 0.3255,3.6557 13.2032,9.8052 5.1125,-4.0459 -0.6515,-10.8081 -1.9539,-5.4039 3.2567,-5.404 8.4675,-10.8078 -0.6514,-6.9935 5.5365,-15.894 -4.2336,-6.0397 2.2797,-2.2251 v -7.6292 l -3.2568,-4.6093 z" />
  <path
     id="Calarca,_Código_DANE_:_63130"
     style="display:inline;fill:#fefee9;fill-opacity:1;stroke:#646464;stroke-width:0.42666668;stroke-linecap:butt;stroke-linejoin:round;stroke-miterlimit:4;stroke-dasharray:none;stroke-opacity:1"
     d="m 159.6024,461.2353 -4.7928,2.4463 -0.6635,10.0849 -3.8082,4.1009 5.0511,3.6388 0.621,7.4347 3.728,3.7175 3.1068,-0.6197 4.9705,3.7175 -3.1066,8.0544 7.456,3.7174 1.8637,4.3368 -8.077,4.9566 1.9801,5.8095 6.9214,-2.2511 3.8863,-4.4678 -1.3532,-6.4337 3.5695,-17.8699 2.7633,-1.4609 h 5.8725 l 6.2178,-4.9451 2.4179,-3.9336 3.2241,-1.9106 4.2603,0.4497 5.1814,-2.4726 2.1877,-0.113 -0.1152,-4.9451 -2.8787,-7.7547 3.1089,-3.4841 -3.5695,-2.3601 0.5758,-4.0459 17.0413,-10.3396 14.393,-0.4497 5.0662,-3.2591 4.9274,1.9995 1.5206,-1.7749 -0.9212,-3.1469 0.691,-1.3487 2.7633,2.6974 2.7635,-4.0458 -0.6907,-2.2479 4.145,0.2248 2.0726,1.5733 2.3029,-4.4953 3.2241,-2.9223 -0.9212,-2.922 2.0726,-2.6972 v -1.124 h 4.145 l 5.7573,4.7204 7.5995,-7.4176 7.1388,0.4495 4.6059,3.1469 21.1863,1.3487 7.3692,-3.8212 11.2841,0.6743 7.8297,5.8441 6.9086,-1.7982 7.5996,-0.2247 5.7572,-8.0919 2.3027,4.9451 3.9149,0.8989 1.8423,-5.6194 4.1453,-1.5733 h 7.5994 l 5.7572,-8.092 6.448,-2.023 15.8899,6.0691 2.3028,6.9679 10.5932,6.7433 4.8361,-0.2247 5.3382,-4.7989 -0.2628,-4.6274 6.839,-4.1323 0.3258,-8.5828 2.6054,-3.8146 -2.9312,-12.0794 2.9312,-2.2253 9.4445,-0.3178 -2.6054,-5.404 9.3668,-19.1123 4.8971,-0.4616 -0.024,-2.7749 -4.3755,-0.2246 -10.8234,-9.8901 v -6.7435 l 3.2239,0.8992 1.6121,-3.3717 -4.3754,-1.5734 5.7572,-6.0689 -3.2241,-1.3487 h -3.6847 l -2.7633,-5.6194 4.6056,2.023 -1.8423,-4.945 -7.3692,-1.7982 -2.9937,-8.092 -2.0725,-4.945 -4.3755,-2.922 h -3.9149 l -0.4606,-2.4726 -3.4543,-0.4495 -1.8423,-6.9681 -3.6845,-5.3945 -5.9876,-0.8992 -1.8421,-3.3718 1.3817,-6.2935 -4.1453,-5.6194 -11.9748,-0.4497 -4.6059,-1.5734 2.5332,-3.1469 0.9211,-10.3396 3.6847,-5.8442 -3.6847,-8.3166 -7.1387,-4.0461 -4.8361,1.124 -6.448,-3.1468 -8.8591,-0.3838 -6.1096,5.7783 -3.2241,-0.8992 0.2304,4.4956 -3.6847,1.5735 -0.2302,4.2708 v 4.945 l -5.7572,6.2936 -3.6845,1.5735 -3.9149,8.5415 -2.7635,0.6743 -6.9086,4.9451 -0.9212,4.7202 -3.4543,1.7982 -2.0725,5.8442 -7.3692,2.2477 v 3.5964 l -5.2966,0.4497 -3.6847,-2.6974 -2.0726,1.1239 -4.1452,0.2248 2.7635,4.2707 -1.1514,1.5734 -5.0664,0.8992 1.1515,3.5963 -2.3029,2.6974 0.9212,1.1239 -0.9212,6.0689 0.2302,4.0458 -2.9937,2.4726 -0.4606,4.046 -2.0725,5.3946 -4.1451,0.6744 -4.836,3.5963 -1.8424,5.3946 -3.4543,0.6743 -1.1513,3.5966 h -3.2242 l 1.3818,6.0689 -4.6059,1.7982 -0.9209,2.6972 2.5331,1.5735 -3.9149,2.6974 1.1514,2.922 -0.4606,4.0459 -4.8361,0.4497 -0.9211,4.4954 1.8423,2.023 c 0,0 -2.0725,0.4495 -3.2239,1.1239 -1.1516,0.6743 1.612,2.6973 1.612,2.6973 l -4.8361,5.1698 -2.0725,5.3947 -2.9937,3.1467 -4.6059,0.4497 -0.4606,5.8441 -3.9149,-1.3487 -2.3027,2.2479 -1.3817,3.1468 -4.1453,0.2247 -2.0726,4.4955 0.9212,3.8213 -6.2178,-1.1239 -2.3027,2.4726 -4.6059,-2.2479 -3.9149,2.6974 1.612,2.922 v 3.1469 l -3.6845,0.6743 v 6.9681 l -2.5331,5.6194 v 3.3716 l -7.3692,1.7981 -1.6121,-2.4725 -5.0663,9.2158 1.1514,2.6974 -2.0726,4.0458 0.4606,2.4726 -4.6056,5.4931 -12.8939,-1.1343 -2.5564,-0.7725 c 0,0 -4.2338,2.0664 -5.2106,2.0664 -0.9771,0 -3.5825,-1.9074 -3.5825,-1.9074 l -1.7912,3.6556 -2.7682,-4.2914 -7.9791,4.4504 -2.0853,-0.3958 z" />
  <path
     id="Salento,_Código_DANE_:_63690"
     style="display:inline;fill:#fefee9;fill-opacity:1;stroke:#646464;stroke-width:0.42666668;stroke-linecap:butt;stroke-linejoin:round;stroke-miterlimit:4;stroke-dasharray:none;stroke-opacity:1"
     d="m 451.4261,67.2323 -0.4605,5.844 -3.2239,0.4497 -2.0728,3.1469 -4.836,0.899 -1.3816,5.1699 -5.2966,-2.023 -6.9086,3.3717 -2.7635,5.8441 -4.3755,1.3487 -0.2302,7.1927 -4.9512,1.7982 4.7208,6.2938 -1.1513,16.4085 -5.0665,0.4497 -3.4543,1.7982 0.691,9.8901 -9.2115,4.4954 -0.9212,7.1929 1.612,3.1469 0.2304,5.8441 -5.5269,7.8671 H 390.4 l -1.6119,-1.1239 -8.06,3.1469 -6.2178,7.4176 -1.8423,11.014 -5.0663,2.4725 1.8424,3.3718 -2.994,5.844 -5.9874,6.2938 1.1516,2.6974 -2.1877,5.2821 4.0298,6.4062 -2.3027,1.7982 v 5.844 l -2.3029,4.0461 2.9937,3.1469 4.6056,-4.2707 2.0728,2.922 3.7372,2.6669 8.9286,0.48 6.448,3.1468 4.8361,-1.124 7.1387,4.0461 3.6847,8.3166 -3.6847,5.8442 -0.9211,10.3396 -2.5332,3.1469 4.6059,1.5734 11.9748,0.4497 4.1453,5.6194 -1.3817,6.2935 1.8421,3.3718 5.9876,0.8992 3.6845,5.3945 1.8423,6.9681 3.4543,0.4495 0.4606,2.4726 h 3.9149 l 4.3755,2.922 2.0725,4.945 2.9937,8.092 7.3692,1.7982 1.8423,4.945 -4.6056,-2.023 2.7633,5.6194 h 3.6847 l 3.2241,1.3487 -5.7572,6.0689 4.3754,1.5734 -1.6121,3.3717 -3.2239,-0.8992 v 6.7435 l 10.8234,9.8901 4.3755,0.2246 0.024,2.8453 12.2406,-6.2656 4.5594,-4.7683 2.6054,-7.9471 12.3507,-11.0882 10.1459,-0.6824 4.7981,-5.5599 -3.821,-6.8376 -2.2799,-8.2649 v -4.4504 l 3.2568,-2.8608 -1.2028,-7.6386 6.3887,-3.1742 -0.8237,-9.9483 -2.0949,-9.76 3.3691,-5.091 0.3258,-5.0861 5.5364,-8.5826 21.1689,-6.6756 14.3932,-13.0989 6.4499,-13.2851 8.1421,-1.5894 8.0113,-6.9578 1.4331,-11.1616 9.119,-1.9072 2.931,-1.5894 5.8621,1.2715 5.2109,-2.5432 17.2608,0.3181 10.0325,-3.0474 1.515,-6.7646 9.4488,0.5779 6.784,-14.5976 2.5611,-13.6347 -9.952,-29.7769 6.2636,-19.572 12.8619,-9.0912 6.6291,-12.6776 7.9273,-9.524 12.8804,-5.1736 5.3124,-6.9165 -2.6562,-5.1872 -0.4426,-5.6198 -5.2474,-3.2273 -11.3218,1.6459 -3.609,3.6608 -4.2588,-3.042 -4.5627,2.4335 v 9.4302 l -6.6925,7.3007 -11.2553,1.2169 -2.7377,4.2587 -2.7379,1.8251 -8.5175,-9.7342 -6.6923,1.8251 -1.8253,4.8672 1.8253,9.126 -6.9965,8.2133 h -15.5142 l -16.2607,3.8703 -9.5403,4.9258 -7.0784,9.2361 -8.6172,2.4631 -10.1559,-8.9282 -7.6939,-12.6229 -12.0023,-9.2361 -2.4621,-4.618 -13.5413,-4.0025 -9.8481,1.5394 -26.9285,-7.8752 -5.5394,-4.9259 -7.0784,-1.2316 -6.7705,4.0026 -2.8363,-1.8357 z" />
  <path
     d="m 167.8684,522.5938 6.9845,-2.2121 4.2027,-4.8328 3.1665,-3.2591 h 2.3029 l 3.6845,7.7546 4.3755,-1.4611 1.4969,2.585 3.9149,-2.922 2.5331,0.337 -2.0725,3.2593 3.1089,4.2708 3.3391,-0.4495 3.2241,2.023 2.1877,-1.0116 5.8723,4.3831 h 7.9449 l 11.3993,-7.3052 15.8897,-2.1352 3.9149,0.6741 8.9811,-4.0458 1.7273,-4.7203 4.7209,-0.2248 -1.6122,-3.484 -0.9211,-3.9336 -5.1815,-6.1813 1.3818,-8.4291 0.2304,-7.0805 -1.8424,-2.3601 0.6729,-4.5916 h -4e-4 l 3.0112,2.6906 2.6054,0.1579 0.6513,2.702 3.7453,1.2715 -0.3256,5.245 1.3026,0.3179 2.117,2.861 4.7223,-4.9271 3.9081,1.5893 3.4195,-0.1579 2.1169,-3.3378 3.094,-0.3179 0.814,5.0861 6.188,11.6026 6.1877,0.4768 6.8393,-3.1787 7.8161,-1.7485 1.9541,1.5896 h 6.8393 l 5.2106,-1.5896 4.2338,-0.1578 2.7683,2.8608 5.2108,-0.1579 9.119,-7.7882 7.3275,-12.3972 7.0021,-8.9007 4.3966,3.1787 16.2837,-1.9072 8.4676,6.9933 4.0711,1.9074 7.1648,6.8343 0.3255,3.6557 13.2096,9.8229 -2.7102,4.2012 -0.3255,4.7682 3.5823,5.0861 -3.5823,13.351 -5.2109,5.0861 4.8851,12.0796 -1.6284,6.0397 2.931,4.4503 -4.5593,5.0861 1.6283,4.1325 -0.6513,4.4503 -2.6054,1.2715 -5.5364,8.9007 0.977,12.7151 9.1187,6.6756 -0.9768,4.4504 -3.2568,3.4965 -5.8621,1.2717 -1.9542,3.8144 -10.096,0.3178 -6.1877,0.3181 -4.7612,6.172 -0.6513,9.2185 -12.0499,7.3112 -0.3258,4.1325 2.2797,6.0396 -1.9539,7.3114 -6.1261,8.5871 -9.018,4.2044 -13.7118,0.6389 -7.5774,8.3334 -2.3609,-3.6556 -4.3966,-0.4768 -3.094,-7.3114 -4.2338,-0.6357 -4.0711,-7.788 -16.4465,-4.9271 h -3.0939 l -4.8852,-1.5896 -13.0269,-0.7946 -11.0729,5.086 -4.3966,5.245 -13.6785,4.2915 -13.6783,-2.543 -6.1877,-10.49 -12.0502,-3.4967 -6.0249,-3.4968 -4.5594,-0.7947 -1.6283,-3.8146 4.8851,-4.4503 1.9539,-12.3972 5.0481,-3.1789 0.6513,-6.1986 3.5823,-5.5629 -0.1621,-4.6093 c 0,0 0.814,-0.1579 0.814,-1.1127 0,-0.9536 -1.3026,-6.5165 -1.3026,-6.5165 l -3.2567,-0.6358 -3.5825,1.1126 -3.094,-3.3376 -5.2107,0.6357 -6.3507,-6.9935 -5.2109,-0.6357 -5.0479,0.9536 -4.7223,-3.3376 -0.6513,-2.861 -1.9541,-4.2914 -5.2107,0.6357 -3.2568,-6.0397 -5.8621,-0.7947 -5.8409,-4.7434 0.4851,-1.827 -5.5434,-5.0483 4.301,-10.441 3.2514,-5.4308 2.7712,-8.911 -2.9161,-6.7234 z"
     style="display:inline;fill:#fefee9;fill-opacity:1;stroke:#646464;stroke-width:0.42666668;stroke-linecap:butt;stroke-linejoin:round;stroke-miterlimit:4;stroke-dasharray:none;stroke-opacity:1"
     id="Pijao,_Código_DANE_:_63548" />
  <g
     id="layer10"
     style="display:inline"
     transform="translate(-1558.8034,-4313.4763)">
    <path
       d="m 1785.5584,5167.3804 -2.6381,-6.0653 3.7658,-11.6312 6.9305,-5.7376 11.5872,-0.8684 0.8913,-6.9477 -5.348,-7.8159 4.4567,-4.3421 8.9135,5.2106 6.9125,-0.5271 h 3.5654 l -0.8911,-10.3354 4.9112,-7.0613 8.6766,-3.7871 3.6201,4.3422 4.4567,-7.8161 9.75,-0.8683 2.662,-6.9604 -1.8424,-10.5645 0.2302,-6.9681 5.0665,-7.1928 -3.2241,-7.4176 3.7817,-6.9043 7.7327,-3.885 6.9086,-12.1378 8.751,-4.4956 4.6056,-10.115 0.2304,-5.844 10.5931,-2.6974 5.9142,-6.7714 -0.036,-12.8962 -6.7987,-2.444 -1.2915,-6.9086 7.3555,-8.356 13.7118,-0.6389 9.018,-4.2044 6.1261,-8.5871 1.9539,-7.3114 -2.2796,-6.0397 0.3257,-4.1324 12.0499,-7.3112 0.6513,-9.2185 4.7612,-6.172 6.1878,-0.3181 10.096,-0.3178 1.9541,-3.8144 5.8622,-1.2717 3.2567,-3.4965 0.9769,-4.4504 -9.1187,-6.6756 -0.9771,-12.7151 5.5364,-8.9007 2.6055,-1.2715 0.6513,-4.4503 -1.6284,-4.1325 4.5593,-5.0861 -2.9309,-4.4503 1.6283,-6.0397 -4.8851,-12.0796 5.2109,-5.0861 3.5823,-13.351 -3.5823,-5.0861 0.3255,-4.7682 2.7683,-4.1325 v 0 l 5.0481,-4.1322 -0.6516,-10.8081 -1.9539,-5.404 3.2568,-5.4039 8.4674,-10.8079 -0.6513,-6.9935 5.5364,-15.894 -4.2336,-6.0397 2.2797,-2.225 v -7.6293 l -3.2568,-4.6093 -0.6513,-7.7881 6.8391,-4.1323 0.3257,-8.5828 2.6055,-3.8146 -2.9312,-12.0794 2.9312,-2.2253 9.4444,-0.3178 -2.6054,-5.404 9.3668,-19.1123 4.8852,-0.3179 12.2508,-6.3389 4.5594,-4.7683 2.6054,-7.9471 12.3508,-11.0882 10.1459,-0.6824 4.7981,-5.5599 -3.8211,-6.8376 -2.2799,-8.2649 v -4.4504 l 3.2568,-2.8608 -1.2028,-7.6386 6.3887,-3.1742 -0.8237,-9.9483 -2.0949,-9.76 3.3692,-5.091 0.3257,-5.0861 5.5365,-8.5826 21.1688,-6.6756 14.3932,-13.0989 6.4499,-13.2851 8.1421,-1.5894 8.0113,-6.9578 1.4332,-11.1616 9.1189,-1.9072 2.931,-1.5894 5.8622,1.2715 5.2109,-2.5432 17.2608,0.3181 10.0324,-3.0474 1.5151,-6.7646 9.4487,0.5779 6.784,-14.5976 2.5611,-13.6347 -9.952,-29.7769 6.2637,-19.572 12.8618,-9.0912 6.6292,-12.6776 7.9272,-9.524 12.8804,-5.1736 5.3125,-6.9165 -2.6563,-5.1872 -0.4426,-5.6198 -5.2474,-3.2273 -11.3218,1.6459 -3.609,3.6608 -4.2587,-3.042 -4.5628,2.4335 v 9.4302 l -6.6925,7.3007 -11.2552,1.2169 -2.7377,4.2587 -2.738,1.8251 -8.5175,-9.7342 -6.6923,1.8251 -1.8253,4.8672 1.8253,9.126 -6.9965,8.2133 h -15.5142 l -16.2607,3.8703 -9.5403,4.9258 -7.0784,9.2361 -8.6171,2.4631 -10.156,-8.9282 -7.6938,-12.6229 -12.0024,-9.2361 -2.4621,-4.618 -13.5413,-4.0025 -9.8481,1.5394 -26.9284,-7.8752 -5.5394,-4.9259 -7.0784,-1.2316 -6.7706,4.0026 -2.7699,-1.8475 -6.7706,0.3081 -4.0008,-1.8473 -4.3085,-5.8496 -9.5405,0.3079 -10.4636,6.1574 h -5.5396 l -6.4629,-8.6206 -7.0784,2.1553 -7.5399,9.8262 -8.3093,-0.3083 -7.3862,-3.6943 -8.3094,2.1551 -11.3869,-3.6945 -6.1551,-4.9259 -3.0775,2.7708 -6.1551,1.2316 v 4.618 l -5.8475,6.1576 -6.7705,-5.8496 -8.0015,-0.6156 0.3076,-3.6948 -3.3852,-2.7707 h -6.4629 l -2.1542,-4.3104 -5.5397,-4.0022 -6.4629,-0.3078 -4.8584,-4.8636 h -7.0422 l -3.7824,2.4713 -7.7828,2.867 -5.9951,-0.8901 -1.7436,1.0217 6.3951,5.0711 -2.7522,17.0629 4.5097,13.6042 -2.1967,8.7618 7.3854,12.2268 -1.5578,12.4207 -5.421,6.1333 -8.7866,1.7524 -15.8163,-0.8762 -14.0589,-4.381 -8.787,1.7523 -6.1506,5.2574 -12.3016,1.7523 -9.6655,-7.8858 h -7.0296 l -14.0586,-5.2572 h -6.1509 l -14.0588,5.2572 h -9.6655 l -7.0296,-7.8857 h -5.2719 l -9.7156,-2.9993 -3.7781,7.0644 v 7.4348 l -11.8051,14.8696 -14.2903,5.5761 -3.728,4.9566 0.6212,6.5293 -4.3492,0.6195 -1.8639,10.5327 -5.2674,8.8168 -6.0642,-0.1002 -4.8655,8.6615 8.7868,9.6382 -2.5728,0.7733 5.2721,6.1336 -9.6655,2.6285 -1.7573,4.381 -7.0295,6.1333 4.3934,4.381 2.6361,0.8764 0.8788,5.2572 7.908,3.5046 -5.2721,3.5049 v 5.2571 h -4.3934 v 5.2572 l -11.4229,6.1333 6.6138,6.8732 6.4189,6.0591 -3.728,3.7173 -4.3492,-1.8585 -5.5919,4.3368 v 9.2935 l -4.3492,7.4349 7.4558,-1.8588 1.2426,2.4783 5.5919,1.8587 -4.9704,4.9564 6.8345,3.0978 -0.6214,4.9566 -3.1066,1.8588 3.728,8.0544 -5.2529,4.9564 2.3299,8.0544 -7.3005,1.2392 v 6.1956 l -4.9705,8.0544 6.2131,3.7174 h 4.3493 l 3.1067,4.9566 -3.1067,2.478 -1.2427,5.5762 -10.5623,5.5761 4.9706,1.8587 v 8.674 l 13.6689,5.5761 -6.2131,6.8151 h -4.9707 l -6.2131,4.9566 h -9.9411 l 6.8346,6.1956 -7.456,3.0978 3.1067,11.772 -7.7666,3.9362 -3.4172,2.8789 7.4558,3.7174 -8.2112,5.2236 1.3767,3.4503 11.805,3.0978 1.8641,-1.8586 1.8639,3.7174 14.2903,0.6195 3.728,1.2392 1.8639,-3.7175 h 3.1066 l 8.6987,-4.3369 4.3492,7.4347 7.6106,3.1181 5.2024,-1.676 h 4.9704 l 3.3415,9.7101 7.4558,-3.7173 2.4853,-6.8152 6.2131,5.5759 2.1265,3.9505 4.4128,-2.6711 1.538,7.2062 7.649,-4.2974 3.1066,2.4783 8.0772,2.4783 7.5622,6.6594 -1.3401,4.3245 -4.7928,2.4463 -0.6634,10.0849 -3.8082,4.1009 5.0511,3.6388 0.621,7.4347 3.728,3.7175 3.1067,-0.6197 4.9705,3.7175 -3.1066,8.0544 7.456,3.7174 1.8637,4.3368 -8.077,4.9566 3.1066,8.6739 2.916,6.7234 -2.7712,8.911 -3.2514,5.4308 -4.301,10.441 5.5435,5.0483 -2.4852,6.8151 8.0773,2.4783 -1.6227,4.6861 4.3493,4.3369 -1.2429,3.0978 -1.8639,1.8587 -1.8637,6.1957 -3.1068,2.4783 -0.6212,10.5327 -4.9706,3.0978 v 6.1956 l -3.5725,9.1386 -2e-4,2e-4 -8.8538,6.3505 v 8.9837 l -5.2813,9.9131 -5.5919,2.1683 -0.3106,6.5056 -1.8639,0.6196 0.3106,3.0978 1.8639,3.0978 -8.6526,7.0562 -3.2514,13.8063 4.6609,8.5097 4.4706,5.8474 -3.4406,12.4871 -5.2813,5.8858 -14.2903,28.1903 -0.6212,6.8152 -7.456,8.0544 0.932,10.5324 2.796,2.1686 -1.2427,3.4076 -1.8639,0.3099 -1.5535,3.7174 4.3494,10.2227 -4.0386,3.7175 6.2131,13.3206 6.2134,0.9295 v 8.6739 l -8.0772,6.5054 0.6212,8.6739 5.9025,-0.3098 1.8641,-2.4783 h 10.5623 l 15.5331,8.0544 12.737,1.2391 10.252,6.1956 11.4944,0.6197 v -4.0273 l 5.2812,4.3371 0.985,9.6597 2.636,5.2572 22.8456,-1.7523 12.7477,3.1336 z"
       style="display:inline;fill:none;stroke:#646464;stroke-width:2.13333344;stroke-linecap:butt;stroke-linejoin:round;stroke-miterlimit:4;stroke-dasharray:none;stroke-opacity:1"
       id="path3338-1" />
  </g>
</svg>
