<?xml version="1.0" encoding="UTF-8" standalone="no"?>
<svg
   xmlns:dc="http://purl.org/dc/elements/1.1/"
   xmlns:cc="http://creativecommons.org/ns#"
   xmlns:rdf="http://www.w3.org/1999/02/22-rdf-syntax-ns#"
   xmlns:svg="http://www.w3.org/2000/svg"
   xmlns="http://www.w3.org/2000/svg"
   width="2424.761"
   height="1527.562"
   id="svg2"
   version="1.1">
  <defs
     id="defs4" />
  <metadata
     id="metadata7">
    <rdf:RDF>
      <cc:Work
         rdf:about="">
        <dc:format>image/svg+xml</dc:format>
        <dc:type
           rdf:resource="http://purl.org/dc/dcmitype/StillImage" />
        <dc:title></dc:title>
      </cc:Work>
    </rdf:RDF>
  </metadata>
  <g
     id="layer3"
     style="display:inline"
     transform="translate(-3465.4266,-6120.8894)" />
  <path
     id="El_Retorno,_Código_DANE_:_95025"
     style="display:inline;fill:#fefee9;fill-opacity:1;stroke:#646464;stroke-width:0.64000005;stroke-linecap:butt;stroke-linejoin:round;stroke-miterlimit:4;stroke-dasharray:none;stroke-opacity:1"
     d="m 2046.0479,439.3693 -4.4335,3.0502 5.0477,4.2508 0.5314,4.7821 -4.5164,5.3134 -1.5943,6.1105 -3.1879,-1.594 1.5939,-4.5165 -3.9849,-1.594 -5.3135,3.4538 -7.7047,-5.8448 0.5315,-13.5494 h -4.7823 l -3.1879,3.9851 -3.7196,0.5314 -3.1879,8.5016 5.5792,4.2507 -3.9853,4.7821 -15.6746,2.9225 -4.2507,8.2358 h -17.5346 l -7.1731,-4.7822 0.2657,-3.4536 3.9851,-0.5315 2.1252,3.9851 6.6421,1.594 3.7193,-3.985 -5.0478,-1.5941 v -5.8448 h -7.1731 l -3.7194,-5.8448 -3.9851,0.5314 -1.0627,6.6418 -2.1256,1.5941 -6.1103,-3.7195 -7.7045,4.5165 0.797,3.1881 7.7045,2.9223 v 1.594 l -7.4388,-1.8596 -5.8449,4.2508 -1.0626,9.0328 -2.9225,0.7971 -2.9223,-3.7195 c 0,0 2.9223,-2.3911 2.9223,-3.4537 0,-1.0627 -5.3135,-5.5792 -5.3135,-5.5792 l -5.0477,-0.2656 -1.8596,3.7194 6.376,4.2508 0.2657,5.5791 -3.7194,2.9224 -6.1105,9.8299 -3.4538,0.2657 -2.6567,-7.4388 -7.7044,1.3283 -4.7822,-1.0626 -5.5791,9.8298 -5.3135,0.5313 -1.5941,-9.2985 -8.7672,0.2657 -4.7821,-3.9851 -2.391,4.5164 3.4537,4.5165 v 3.985 l -5.3135,0.7971 -9.8299,3.1881 1.0627,-3.9852 -2.6568,-2.1253 5.8448,-5.5792 0.5314,-5.0478 -5.5792,-1.594 -7.9701,5.5792 -3.4537,-0.5314 -3.7195,5.0478 5.3135,5.5792 -1.0627,8.2358 -5.3133,-2.9223 -10.0956,5.0476 -2.3912,6.1105 2.3912,2.1255 -2.9226,6.1105 -9.5642,-6.1105 3.7194,-7.9703 -5.5792,-13.2836 -3.4537,1.8598 -0.797,4.2507 1.8597,3.1881 -0.2657,2.391 -6.9073,-2.1253 1.8595,-5.8448 2.6568,-3.7195 -7.1731,-1.3284 -7.7046,5.5792 -9.2984,-3.1881 -0.7971,-11.424 -6.6418,-5.8448 -11.4241,1.3284 -2.6567,-1.0627 -10.6268,4.2508 -5.0478,-2.9224 -6.6418,2.391 -6.642,-5.0478 6.642,-2.9223 4.2506,-7.9703 -6.9073,-3.4537 -4.2508,2.9224 -0.5315,3.9851 -9.8298,6.9075 -4.7821,-0.797 -3.4537,3.1881 4.2507,2.391 1.8596,6.3762 9.5642,6.1105 6.9076,2.6567 0.5312,3.9851 -4.2507,1.3283 -0.797,5.0478 -6.1103,2.3911 -1.5943,-7.1731 -8.2358,-3.4538 1.0628,-5.3135 -4.2508,-2.391 -2.6567,4.782 -6.3761,-0.797 -4.5165,5.5792 4.5165,4.7821 -0.797,4.2508 -4.7822,0.2657 -4.2508,2.391 -4.5166,-2.1254 4.7823,-10.0956 -3.188,-3.7193 2.391,-9.5643 -1.594,-10.8926 -3.1883,1.594 0.797,7.7046 -2.391,1.0627 -6.6417,-1.8598 1.0627,-8.2358 -5.3135,0.797 -3.9851,-2.6567 -3.985,0.797 2.391,3.4537 -3.1883,3.7194 -11.4237,0.2657 -5.3135,-6.3761 -6.9077,-2.6567 -1.0625,-5.0478 -6.642,-1.5942 -5.3133,5.0479 5.5791,1.3284 v 6.6418 l -4.2508,2.6567 0.2658,2.1255 6.9075,1.594 2.9223,6.9074 -4.7821,3.9852 -3.188,7.7045 -15.1436,-0.797 -3.7192,-4.5165 2.9222,-4.2508 4.2508,4.5165 6.9076,-0.5314 4.2508,-4.7821 -2.9224,-1.0627 -3.1882,1.3284 -11.4238,-8.2359 -6.1105,-1.8596 -5.0478,-6.642 -4.2508,-0.797 -3.9851,3.7195 7.1732,1.8597 0.797,5.8448 -4.7821,2.3911 -0.5314,5.3135 -3.7194,6.6418 -2.6567,-0.5313 1.594,-3.1882 -4.5164,-6.3761 5.3134,-5.5792 -2.6567,-3.4538 -3.7194,1.0628 -1.8597,-7.4389 -7.7046,-3.985 7.4389,-8.7673 h 5.8448 l 1.3284,-5.0478 -5.8448,-3.4537 -3.1882,-7.1732 -4.2506,-5.5792 -7.439,-5.3133 5.8448,-2.9225 0.797,-4.5165 12.2211,-10.3612 v -4.5164 l -5.0478,-3.1882 -0.5313,-2.6566 5.8448,0.2656 2.1253,-1.8597 -4.5164,-5.5792 -1.8597,-4.782 -9.5643,-2.3911 -10.0955,6.6418 -7.4389,1.5941 -1.8597,1.594 1.8597,2.9224 0.5313,3.9851 -10.6268,1.3283 -6.1106,-2.6567 -0.5313,6.6419 h -3.7194 l -1.8598,-3.4538 h -6.3761 l 4.7821,5.0478 -7.7045,7.4389 -2.6568,8.2358 1.8598,3.7195 -5.3135,6.1105 -0.797,-11.6897 -5.5791,-5.3134 -0.2657,5.5791 -5.3135,-3.4538 -3.7194,0.797 -0.2657,6.3762 -11.6896,3.9851 h -7.1732 l -2.6567,2.9225 6.1104,8.5015 -4.782,1.8596 -2.9224,2.6568 -5.0479,1.3284 -1.594,3.9851 6.3762,6.3761 -1.8597,2.391 -6.6418,-0.2656 -2.9225,2.1253 -2.9223,-3.188 h -5.5792 l -2.9224,2.6567 h -5.3135 l 0.2657,5.5791 -4.2508,2.6568 -8.5015,-6.1104 -9.033,3.188 -11.6896,-3.9851 -5.5791,0.7971 -2.391,-3.7195 -10.627,2.1253 v -4.2507 l -7.7045,-0.797 -0.2656,4.7821 -5.0478,0.5314 -1.3284,6.3761 6.3762,7.4389 -0.797,3.7194 -3.1882,3.1881 3.9852,2.6567 h 2.9223 l 2.1255,5.3134 -1.5941,1.8598 -1.0627,10.3613 2.6568,3.985 0.2656,2.9224 -6.3761,3.9851 -5.3135,-7.4388 -6.9075,-3.9852 -6.1104,5.5792 3.7193,7.1732 13.8151,4.5164 -2.9225,2.9224 -0.5313,7.4389 -4.5165,0.2656 -6.1104,-6.3761 -9.2987,-0.5313 -0.7969,-7.9702 -6.6419,2.391 1.8598,-6.1105 -2.3911,-2.9223 -4.2508,6.3761 -5.0477,0.5314 -3.1881,-4.7822 -4.2508,-0.5313 v -4.7821 l 5.8448,1.0626 5.3135,-1.594 -1.3284,-3.1881 -5.0478,1.5941 -4.5165,-5.3135 4.5165,-4.2508 -1.3283,-9.5642 1.0626,-2.6567 h -2.6566 l -7.439,7.1731 -0.5313,3.9852 -11.6896,-5.0479 1.594,-10.6269 -9.2985,-0.2657 1.8597,-7.1731 -6.3762,-3.7195 4.7822,-2.9223 0.2656,-9.033 -13.2836,-3.4536 -6.3761,1.0626 -12.2211,-0.5313 -4.5164,0.2657 -4.7821,6.3761 -10.3613,-10.0956 -3.4538,-7.9702 h -7.7045 l -5.8448,-5.8448 -7.9701,-1.5941 -4.2508,1.5941 -0.797,-10.6269 -3.4538,-4.5165 1.3284,-8.5015 -3.7195,-3.9851 -8.2359,5.5791 1.3285,6.6419 5.0478,4.2508 0.797,6.1104 -10.627,5.5792 -3.7194,8.2358 -7.9702,0.2657 -8.2359,-13.2837 -5.5792,-2.391 -2.391,4.782 6.1105,0.5314 10.8926,16.7374 -0.2656,5.3135 h -2.3911 l -2.3911,6.9075 -5.8448,-0.2657 -10.0956,-11.424 h -3.188 l -0.2657,7.439 -8.7673,3.188 0.2657,2.3911 8.7673,2.9224 3.4537,7.9702 -1.8597,2.6567 1.0627,3.1881 -3.4537,1.3284 c 0,0 -0.5314,-6.1105 -1.8598,-6.9075 -1.3283,-0.7971 -9.5642,-8.5016 -9.5642,-8.5016 l -3.7194,0.5313 2.9224,5.5792 -2.6568,3.4538 -4.2508,-1.3284 -2.6567,0.5314 -3.1881,5.3134 -10.8925,-3.7194 -2.6568,-5.5792 -8.5015,1.3284 -5.8448,-2.6567 0.2657,-6.3762 -3.1881,-1.8597 -9.0329,-13.2837 h -7.1732 l 0.5313,-6.9075 -6.9075,-11.1582 -7.9701,-2.391 -5.8448,0.7969 -3.4538,-1.8597 -1.594,2.3911 -3.1882,-4.5165 0.2657,-8.7672 -3.188,-3.4537 -7.7045,3.7193 -6.3761,-0.2656 -6.1106,2.3911 2.3911,4.2508 h 5.8448 l -0.797,2.1253 -7.4389,2.1254 -5.0477,-3.188 c 0,0 0,-9.83 -0.7971,-11.1583 -0.797,-1.3284 -5.3134,-4.5165 -5.3134,-4.5165 0,0 2.1253,-3.7195 1.8597,-5.0478 -0.2657,-1.3283 -2.1255,-2.9224 -2.1255,-2.9224 l -1.594,-6.3761 -3.188,2.6567 c 0,0 -1.3285,-4.7822 -2.6568,-5.3135 -1.3283,-0.5313 -3.7194,-1.3283 -3.7194,-1.3283 l -2.3911,4.7821 -4.7821,-5.5791 -5.5792,-1.3284 -2.1253,1.3284 h -9.5643 l -2.1253,2.1253 -2.391,-2.391 -3.1882,0.2657 -0.2656,4.2508 -4.5165,-2.3912 -7.7045,0.5314 -10.3613,-4.7822 c 0,0 2.1254,-3.188 0,-3.188 -2.1253,0 -5.8448,-0.797 -5.8448,-0.797 l -1.3283,-3.4538 -4.2508,4.5165 -3.7195,0.5313 -4.782,-3.1881 2.1253,-4.2507 -3.4538,-3.1881 -12.4866,1.0626 -4.5165,-1.8596 3.7195,-6.6418 -4.7821,-0.2657 0.2657,-4.2508 -4.2507,-2.1254 -3.1882,6.1105 -9.8299,-4.7821 v -5.0478 l -2.1253,-1.3284 -4.5165,6.3762 -4.5165,-0.797 -2.391,-3.9851 h -2.6567 c 0,0 0.5313,-2.9224 -0.7971,-3.7195 -1.3283,-0.797 -7.9702,-4.782 -7.9702,-4.782 l -1.594,-4.7822 -4.5164,-2.6568 -4.5165,5.3135 -3.985,-0.5313 -3.4538,-5.3135 -8.7673,0.797 -9.5642,-5.5791 -3.9851,-0.2657 -5.0478,5.5791 -4.5163,-3.4537 -6.642,0.7971 -1.3283,2.9223 -5.5791,-4.1179 -3.4537,2.2582 -5.5792,-0.2656 -1.8598,-3.9852 h -5.8448 l -3.4537,2.3911 -4.5164,-0.5313 -2.9225,-0.797 -5.0477,1.0627 -1.0628,3.985 -15.4089,6.6419 -8.236,0.797 -19.3941,9.8299 -5.0478,1.0627 -3.4538,-1.0627 -2.1253,4.7821 -3.9852,0.5313 -4.5163,5.3135 -4.5165,0.797 -8.2359,-4.782 -8.2358,-2.1255 h -7.9702 l -12.4866,-8.2358 -2.3911,-2.9225 -6.6418,-2.9223 h -19.6598 l -2.3911,-3.1881 -8.2359,6.6418 v 3.4538 l -9.5643,-3.1881 -13.0179,2.1254 -5.8448,6.6418 -5.3135,3.7195 -9.5643,12.4866 -3.4536,1.0627 -1.8598,2.6567 1.8598,3.1881 -5.8449,3.4537 -7.4389,1.8598 -10.8925,11.9552 -0.2658,3.4537 -12.7523,5.8449 -11.1582,13.815 -4.5164,2.6567 -2.6568,5.5792 -4.7821,0.2656 -8.5015,6.6418 -10.3613,5.3135 -13.815,1.3284 -15.6747,10.3612 -5.5791,2.9225 -14.612,11.9553 -10.8926,13.8149 v 4.5165 l -6.3762,3.4538 -4.2508,3.4537 -5.0171,6.9609 12.6174,0.429 2.0665,1.8786 6.0114,-1.5028 11.0837,1.315 7.3265,2.0664 4.6965,-2.2543 0.1879,-3.7572 3.945,-3.3814 2.63,-0.5637 8.2658,-7.1386 v -3.3815 l 6.9509,-5.0722 9.5808,0.3757 3.945,7.7023 10.3323,6.0115 2.6301,-1.8786 c 0,0 3.1936,2.4421 3.9449,2.4421 0.7515,0 3.0058,-0.1878 3.0058,-0.1878 l 4.1329,4.1329 5.6358,0.1878 1.8787,4.5087 h 4.3207 l 8.6415,4.6965 6.0115,-1.6908 4.3208,2.8179 -0.7515,6.763 8.6416,6.575 1.5028,5.8237 -4.1329,3.3814 6.763,2.818 v 4.3207 l 1.8785,3.3815 -1.8785,3.7572 3.0057,0.7513 3.3815,6.1994 -2.0665,6.3872 5.2601,2.0666 4.1329,6.9507 0.5635,4.6965 4.5087,1.5028 3.5693,-1.8786 5.2601,4.5087 -4.5086,7.3265 0.3756,5.0722 6.3872,5.2601 -1.1271,1.6907 -6.1994,0.1879 v 2.63 l -2.6299,3.5694 5.8235,1.6906 2.6301,-3.5692 6.0115,-1.503 3.1936,-2.4421 0.3757,-1.315 -0.9393,-5.4479 2.6301,-0.3758 1.315,-2.63 -3.5693,-3.5693 1.8785,-6.1994 3.0058,-1.8785 -4.3208,-5.0722 h -5.8236 l -3.1937,-3.3816 0.7515,-6.0115 2.6301,-2.0663 0.1878,-4.8844 15.0287,-15.9681 0.188,-2.4421 4.1329,-3.3815 3.945,-6.9508 -0.7514,-5.4479 8.4536,-6.575 5.2601,1.5028 1.6908,-1.6908 9.9564,1.8786 4.6966,2.6301 9.2051,0.9393 6.0115,-2.2544 1.1272,-4.3207 4.6964,-3.1936 4.8844,-0.7515 3.1936,-2.63 13.7137,7.7022 2.0664,5.448 4.3208,-0.3758 -0.9393,5.6359 3.0057,3.1936 5.0722,-0.7515 v 2.2543 l -2.8179,1.315 -0.1878,1.5029 5.4479,5.6357 2.4422,6.3872 c 0,0 13.3379,9.0173 14.2772,9.2052 0.9393,0.1879 3.1936,-0.1879 3.1936,-0.1879 0,0 2.0665,5.2601 2.6301,6.0115 0.5636,0.7514 3.0058,1.5029 3.7572,2.2543 0.7514,0.7515 -0.3758,4.6965 -0.3758,4.6965 l 10.7081,9.3929 4.1329,-1.5028 6.3872,1.5028 c 0,0 11.2716,7.1387 12.2108,7.8902 0.9393,0.7514 1.1271,6.9508 1.1271,8.0779 0,1.1272 -2.4421,2.8179 -2.4421,2.8179 l 2.8179,3.9451 3.0058,-1.8786 4.1329,6.0114 3.5693,-0.3757 4.8843,7.1387 0.3757,2.63 6.3873,-1.1272 8.4537,8.6416 0.9393,8.8294 -4.3209,4.3207 1.6908,10.5202 1.1271,2.63 -3.1936,5.8237 -13.338,10.8958 -0.1878,7.1386 -8.8295,3.9451 -2.2543,5.6357 2.6301,3.3815 -2.4422,8.0779 -2.63,1.503 v 3.945 l 6.9507,5.2601 3.1936,-0.188 0.9393,5.448 -1.8785,0.7514 4.3208,2.8179 4.0953,0.072 216.6906,-86.7668 2.7627,-5.3118 6.0235,3.7648 12.0474,-14.3063 12.0474,-4.5177 11.2944,6.0237 6.7766,-1.506 21.0828,2.2589 3.0118,3.7648 -9.0355,3.0119 3.0118,4.5177 -1.5059,5.2707 8.2826,-6.0236 8.2825,7.5296 11.2944,-0.753 v 6.0236 l 10.5415,7.5296 11.2944,18.824 v 9.0355 l 7.5295,0.753 5.2707,5.2707 6.0237,1.5059 0.7529,5.2707 6.0237,-0.7529 6.0237,5.2707 h 9.7885 l 12.0472,-3.0119 6.7767,2.2589 12.0473,0.753 4.5178,5.2706 4.5177,2.2589 1.506,6.0236 10.5414,6.7767 6.0237,-6.7767 3.7648,-1.5059 7.5295,5.2707 v 7.5296 l 12.8003,9.0356 v 6.0236 l 14.3062,5.2708 14.3393,-4.0045 10.3944,-0.2396 5.8448,3.9851 10.3613,-3.1881 8.7671,9.5642 149.1207,35.7517 3.3418,-3.0914 7.5296,2.2588 v 7.9061 l 5.2707,2.6353 8.659,11.2944 9.4121,-3.7648 13.5532,4.1413 -4.1413,3.7648 9.412,6.0236 5.6471,9.0355 11.2944,-0.753 4.5178,8.2826 4.5177,-3.0118 8.659,2.2588 0.3766,-7.906 13.9297,-10.9179 2.259,-8.2825 9.7884,-1.8825 0.3764,-7.5296 20.3298,-19.2004 11.2944,-3.0118 3.0118,1.8824 5.2708,-6.7766 h 7.1532 l -1.1296,-8.6591 h 5.6473 l 3.7648,-3.0118 2.2589,3.0118 11.6709,0.7529 3.3881,-6.0235 -5.6471,-5.6473 3.7648,-3.0118 7.1532,3.7648 4.5177,-7.9061 3.0119,-1.5059 0.7529,9.7885 7.1531,-6.0237 5.2708,-0.3765 1.5057,-8.659 4.5179,-1.1295 v 6.4002 l 8.659,1.1294 4.5178,-4.1412 -2.2591,-4.1413 6.0239,3.3883 1.1294,-4.5177 5.2706,-1.1295 1.1296,4.1413 6.4,-3.0118 -1.1293,-6.4001 4.8941,4.1412 3.7648,-7.906 8.2826,1.1293 16.565,-13.5532 -3.7648,-3.3883 6.4002,-5.6471 4.5179,0.3764 0.753,-6.0237 6.7766,-3.3883 4.5175,2.6353 4.5179,-2.2588 -3.0118,-4.8942 5.2706,-3.7648 v -8.2826 l 5.2708,-2.2589 -3.0118,-7.5296 8.659,-4.8942 5.2706,3.3883 -3.3882,2.6354 2.6354,3.0119 h 4.5176 l -0.7528,8.659 h 4.1411 l 3.0119,-3.0119 4.1412,2.2589 -0.7528,-4.5178 6.7766,-3.3882 3.0118,6.0235 6.4002,2.2589 3.3882,-3.0118 1.506,1.8824 9.412,-1.8824 v 3.3884 l 8.6591,0.7529 -5.2709,-5.6472 6.4003,-2.6353 5.2706,6.0236 3.3883,-5.6471 -2.2587,-3.3884 4.8942,-2.6353 10.5414,4.1412 -4.8943,4.1413 4.5177,4.1413 9.4119,0.753 3.0118,-3.0119 -4.5175,-3.7648 7.9059,-3.0118 2.6354,3.3883 6.7767,0.3765 v 3.7648 l 12.8002,-1.1295 -3.3882,3.7648 5.6472,2.6354 3.3882,-1.5059 v 5.2707 l 4.5178,-2.2589 1.1294,-4.1413 5.2708,2.6354 6.0236,-2.2589 -0.753,-3.7648 7.1532,0.3764 0.3764,5.6473 10.5415,0.753 4.8942,-3.0119 -5.6473,-4.1413 6.0238,-5.2706 7.1531,3.0117 -4.1413,-5.6471 5.2706,-2.2589 3.0119,1.8824 v 4.5178 l 6.0238,-3.0119 v -4.8942 l 8.2823,-4.8942 4.1415,0.3764 -1.5061,4.8943 6.7767,3.0118 -0.3765,-4.5177 8.2827,1.1294 0.3763,-4.8942 7.1533,-2.6354 1.5058,2.6354 9.7884,-4.5178 v -6.0237 l 3.7648,-1.8824 1.1294,4.8943 7.9062,-4.1414 4.5178,1.8825 -4.5178,8.659 5.6472,1.1295 0.3764,-6.4002 9.0356,1.5059 4.1412,-3.3883 -3.3884,-4.8943 4.8943,-4.1412 2.6353,4.1412 9.0356,-1.8823 3.7648,-6.0237 -4.5178,-3.3883 2.6354,-7.1532 4.1413,1.8825 h 7.9059 l -0.3763,-9.4121 4.8942,-1.8823 1.1293,7.906 12.0474,4.5178 7.5297,-3.3883 -3.3885,-2.6354 -1.5058,-4.1412 6.7767,-2.2589 6.0235,4.5178 -1.8823,3.7648 6.0236,3.0118 2.2589,-2.2589 4.5179,-1.8824 -6.4002,-5.6472 4.1412,-5.6471 8.2826,0.7529 -1.1294,7.1531 1.8823,6.0237 3.0119,-1.5059 7.1529,5.2707 -1.8823,-6.0237 5.2708,-4.1413 6.0236,1.5059 4.1412,3.3884 -1.5058,-6.7767 h 6.4002 l -2.259,-5.2707 7.1532,-5.6471 6.4,8.2824 1.1296,-6.4001 13.5533,2.2589 7.153,-9.412 h 4.1414 l -1.1294,6.4001 8.2824,-2.6353 -3.7648,-5.2707 4.5177,-3.3884 3.3885,2.2589 -1.8825,3.7648 8.2825,-1.1294 -1.5058,-3.3883 5.6471,-3.3883 6.1104,0.4424 v 7.4539 l 12.2457,4.2594 -2.6622,-6.3891 4.7919,-3.1946 7.454,5.8568 5.324,-4.2594 v -11.1809 l 5.8567,4.2594 7.4539,-5.8567 -7.4539,-8.5187 9.5836,-10.116 3.1946,9.0512 10.6484,-6.9215 6.9215,1.5972 7.0249,-5.5748 -2.0664,-3.0058 6.9506,-6.9507 -9.017,-1.8786 2.63,-4.1329 -4.5088,-3.5693 4.321,-1.8786 1.8785,-4.3208 5.6357,4.6965 5.2601,-3.3815 -1.7126,-4.5974 -4.9919,-1.6829 -0.2658,-3.7194 1.8597,-1.5941 4.5164,3.9852 1.5942,-1.0627 5.0478,2.1253 1.5939,-2.1253 -2.6567,-3.4538 4.2507,-4.2508 3.7194,2.9225 1.3284,-3.1882 7.4388,-2.1253 -0.2657,-2.6568 2.3912,-3.985 -1.8597,-1.594 -0.2658,-2.9225 5.0478,-0.797 2.9225,2.1254 2.391,-1.3284 3.4538,2.391 4.7821,-0.797 1.3284,-8.5015 -4.2508,-0.797 v -2.3911 l -3.1881,-1.3283 0.5314,-1.0627 h 3.4537 c 0,0 -2.1254,-1.3284 0.797,-2.6568 2.9224,-1.3283 3.9851,-1.8597 3.9851,-1.8597 l 0.797,3.9851 2.9225,1.5941 -1.5939,2.6566 3.1879,0.7971 1.3283,-2.1254 3.7195,-1.3283 0.2658,-2.3911 -3.9853,-1.3284 v -3.188 l 4.2508,-3.4538 -1.3283,-2.9224 2.391,-1.5941 0.2657,-2.1253 1.8597,-0.797 2.6567,3.7194 5.8448,-6.6419 -5.5791,-1.3283 -1.0627,-2.6567 2.6567,-0.2657 1.1292,-5.4463 -4.5829,0.1328 -1.8598,-2.6567 -11.6896,-1.8597 -2.6567,-5.3135 4.5165,-6.3761 -2.1255,-3.9852 -2.9223,-0.5313 -0.2657,-3.188 1.594,-4.5165 -3.7194,-2.391 -5.3134,5.0477 -0.2658,-1.8597 0.2658,-3.188 -3.9851,-0.7971 -3.1882,-4.2507 5.048,-4.7821 -1.8598,-6.1105 -4.5165,0.797 -5.3135,-0.797 -5.3133,4.7821 1.594,6.1105 -3.7195,5.8448 -5.3135,2.391 v 2.9225 l -5.3133,-1.5941 -7.439,2.3911 -3.9851,-4.5165 -5.8448,2.6567 -7.4388,-1.3283 -7.7046,-6.1105 -0.797,-2.391 -6.3762,1.0626 -0.5313,6.3762 8.5016,2.391 2.1253,2.6568 -5.3133,3.7193 -0.797,4.5165 -4.7823,-1.3283 v -8.2359 l -3.7192,-2.1254 -0.2659,10.8926 -1.0627,1.3283 0.2657,5.3135 -5.5792,-3.985 -3.7193,3.4537 -4.5165,-2.391 -1.594,-6.6418 -5.3135,-0.5314 -1.5941,1.8597 5.0478,4.5165 0.5315,4.782 -7.7045,4.2508 -2.9225,-3.7194 -2.1253,-3.1881 -6.642,4.5165 -3.1881,-3.7195 -3.7192,-4.7821 -4.7823,3.9851 -2.9222,-2.9223 -7.1734,-0.5315 -2.1252,-2.391 3.1881,-4.2508 8.7672,0.2657 0.5312,-4.7822 -3.1879,-2.1253 -9.5644,1.594 -4.2508,3.4538 -0.5312,6.6418 -4.2508,0.5313 -1.8597,3.7195 c 0,0 -7.4388,-1.594 -8.5015,-2.6568 -1.0629,-1.0627 -6.6419,-5.3135 -6.6419,-5.3135 h -5.8448 l -1.5942,2.9225 7.439,5.3135 3.4538,5.3134 0.797,3.9852 -8.236,6.1104 -1.8596,3.9851 -4.2507,2.9224 -6.3763,-5.3134 2.6568,-4.2508 h 3.985 l 2.9225,-1.0627 -3.188,-2.9225 -2.9225,-0.2656 -0.797,-6.9075 -2.1255,-2.1254 -1.8596,1.8597 1.0625,7.9703 -1.8595,0.2656 -3.4537,-1.8597 -5.5793,-0.2657 -2.391,-5.5791 0.7969,-4.2507 -2.9222,-1.0628 -4.7823,3.9851 -2.3909,6.1105 h -5.8448 l -5.0478,-6.3762 -6.6418,-0.5313 -4.5165,-5.8448 -1.594,-7.7045 -4.7823,-2.1254 -1.0625,6.1104 -6.9076,4.2508 -2.3912,-2.391 1.0627,-6.6419 -5.8448,-1.8597 -9.0327,8.5016 -13.2837,1.8597 -3.7194,3.7195 7.7045,2.6566 -0.2658,2.9224 -3.4538,0.2658 -3.7192,3.985 -2.3913,-0.797 v -5.3135 l -4.2508,0.797 -9.564,5.8448 -13.815,-4.7821 -2.3911,-5.8448 3.9851,-5.8448 6.1105,6.1106 5.3135,0.5313 2.1253,-5.8448 -3.188,-2.1255 h -4.7821 l -6.642,-3.985 2.6567,-7.1733 -4.2508,-3.4536 -3.1879,4.7821 -0.797,4.782 -4.5166,0.5314 2.391,5.3134 -5.3133,5.8448 -2.6567,-1.594 3.188,-6.9074 -0.797,-1.8597 -4.5166,-0.5315 -2.9222,-5.3133 z" />
  <path
     d="m 668.6957,1147.3948 4.0976,-2.9799 3.3528,2.6072 1.1174,7.8229 1.863,1.4899 5.215,-4.8425 2.6072,-7.0775 -4.0976,-4.4703 2.6076,-5.5874 3.725,0.7451 4.0976,11.1749 1.8626,3.3527 0.745,9.3127 5.2151,2.6073 4.4701,4.8427 9.3128,0.3726 4.0974,2.6076 5.9599,1.49 2.9801,4.8424 -1.4899,5.5877 2.9802,3.725 2.9799,-1.4898 -0.3726,-5.9601 5.5877,0.7446 4.8426,6.3329 4.0978,1.49 0.3726,6.3324 12.6651,5.9604 h 5.5873 l 9.6852,6.3324 3.3523,4.4702 4.8429,-1.1177 0.7449,-2.2351 4.4704,-1.1174 3.3522,1.49 h 2.6077 l 4.4698,-6.705 3.7255,1.1176 3.7247,-0.745 2.6075,2.6075 4.4702,0.3726 0.3725,9.3127 6.3327,2.6073 2.98,0.7452 c 0,0 1.1176,2.9801 1.4902,4.4699 0.3723,1.49 11.5061,11.5064 11.5061,11.5064 l 0.7449,10.8028 9.3128,6.3325 h 5.2151 l 1.4898,3.7252 -3.7249,8.195 -5.9599,1.8623 2.2349,4.098 2.6075,1.1174 1.4901,8.9399 h 5.9599 l 2.9801,3.3525 4.4704,-2.2349 1.8623,7.8226 -3.3525,10.8028 -7.8226,8.5676 1.4901,2.9801 12.665,0.7449 5.9601,-5.9601 7.4502,-5.5875 6.7051,4.0975 1.4899,8.9403 -6.705,4.8425 4.0976,10.0575 7.0776,6.3329 -1.1175,3.7252 -4.8426,1.1172 -0.3726,6.3326 8.1952,8.9402 2.2349,5.5875 3.3525,2.9802 5.2154,-8.5677 v -2.98 l -7.8227,-9.3128 4.8425,-5.5874 7.8225,0.7449 5.2152,-2.6074 4.4704,2.6074 c 0,0 4.8422,7.0774 4.4696,8.5677 -0.3723,1.4898 -2.6074,4.47 -2.6074,4.47 l -6.7049,2.9802 -0.7452,8.1952 6.3327,9.6849 7.4501,1.8627 -7.8224,3.3525 -5.5878,-1.1172 -4.0978,1.4897 -0.7451,6.7051 10.4307,12.2925 1.4897,6.3328 7.4504,2.98 7.0773,5.9599 4.4701,-3.3524 -1.4899,-6.7051 -6.3327,-8.9401 2.9799,-1.8625 h 5.9606 l 5.9599,2.9798 5.215,11.9204 4.4702,4.8424 8.5675,4.0976 -0.3726,14.5279 -5.5875,5.9599 -0.7449,5.9604 5.215,4.4699 10.4302,4.8425 7.8224,-10.0575 1.4901,-7.8228 5.215,0.745 2.6076,5.5875 6.3327,3.7254 4.47,-5.2151 -3.1458,-4.9288 5.3707,0.2687 2.6858,5.1021 5.3703,5.9075 7.7873,-5.9075 -4.2967,-7.5191 5.9077,-1.8796 6.1761,4.0279 -2.6852,5.102 -0.2686,5.9076 9.6669,10.204 h 9.9355 l 4.8336,-2.9537 6.4446,3.7595 4.8335,9.6669 c 0,0 -1.0742,11.2783 -2.1482,11.5465 -1.0743,0.2688 -8.5927,-0.5369 -8.5927,-0.5369 l -1.8799,4.028 8.3243,3.2221 18.3012,-0.2707 8.8613,-6.9816 7.8436,0.5522 135.3577,-141.2148 7.7201,-1.0648 2.3959,1.0648 7.9863,-2.6622 2.396,-3.7269 -0.7988,-2.6621 2.9284,-3.4607 3.4608,-0.2662 2.3958,-12.2458 -3.9931,-2.9283 v -4.5255 l 3.4607,-3.1946 v -1.5972 l -2.662,-1.8635 2.662,-2.1297 h 2.9284 l 12.7781,-11.7133 v -2.6622 l 3.1945,-2.662 h 2.9284 l 2.1297,1.8634 3.7269,-0.2662 0.2662,-1.8635 3.4607,-2.6621 h 5.0581 l 2.9283,4.5256 2.3959,-2.1296 6.9214,2.1296 -1.331,3.1946 3.1945,4.5256 h 3.727 l 1.331,1.8635 h 3.9932 l -0.2661,-2.1297 5.3241,-1.8635 2.6621,1.8635 1.3311,-2.396 3.1945,-0.2661 -2.1297,-4.5257 3.1946,-1.5972 2.6621,1.8635 10.116,-11.9795 -2.9283,-3.9932 3.7269,-1.5972 3.1946,-7.454 5.3242,-3.4607 0.7986,-3.7269 6.3891,-1.5974 0.5324,-4.2593 7.4539,-1.3311 0.2662,-2.6621 5.058,-3.1945 -4.5255,-3.4607 1.3311,-3.7271 5.3241,-0.2661 -1.8635,-3.9932 1.0649,-2.1297 3.9932,0.2663 4.5255,-1.3311 -2.3958,-2.9283 3.4607,-2.9284 v -3.1945 l -4.5256,2.3959 -2.6621,-4.2594 2.9284,-5.5904 -2.1297,-1.8635 -4.5257,-1.8635 1.3311,-3.4607 4.2594,-0.5324 1.331,1.8635 2.9283,-2.396 -2.6621,-2.6621 h -4.2594 l -2.1297,-4.5255 7.454,-2.9284 1.8635,3.727 4.7917,-2.1297 5.8567,4.7918 1.3311,3.7269 7.1876,1.0649 3.9932,-3.727 -8.2525,-9.3174 -5.8566,-8.785 v -6.389 l 7.9863,-4.5256 8.2525,-0.2662 2.9283,3.1946 -5.058,6.9214 0.5325,9.5837 2.662,8.5187 10.6485,7.1877 6.1228,4.2593 8.5188,-1.331 6.9215,-3.9931 -2.3959,-4.7918 -2.3959,-6.6554 -3.9932,-3.4607 h -5.5904 l -3.1946,-3.7269 1.5974,-3.727 -2.1297,-2.6621 1.5972,-4.7918 -1.3311,-3.7269 -3.9931,-0.5325 2.1296,-2.6621 -0.7986,-3.4607 h -7.7201 l -4.2594,-4.2594 2.9283,-0.2662 1.0649,-6.6553 -4.7918,-1.0649 3.7269,-2.9283 -3.1944,-5.3242 -4.5257,2.1297 -1.0648,-2.6621 -5.3242,1.3311 -2.1297,-3.9932 2.9283,-1.5973 -1.3311,-1.5973 1.3311,-3.7269 3.4607,-1.0648 v -5.0581 l 3.4608,-2.662 -3.4608,-2.6622 -0.7986,-3.1945 2.3959,-1.3311 -1.0648,-1.8634 h -3.9932 l 0.7986,-2.6621 h 3.4608 l 1.5973,-2.6621 -4.2595,-1.5973 v -7.1878 l -3.7269,-1.331 v -2.9283 l 3.7269,-1.3311 1.8635,3.1946 3.9932,1.3311 0.2662,-1.5974 5.5904,-0.2661 2.1297,-2.1297 -4.7819,-7.1108 4.8942,-2.6354 -3.0118,-3.7648 3.3883,-4.8942 h 4.8943 l -3.3884,-8.2826 8.2826,-7.906 -2.6354,-3.0118 5.6472,-3.0119 -1.5059,-3.3884 0.3764,-7.906 3.3884,-4.1413 3.7648,0.3765 v -4.8942 l 4.8942,-0.7529 -2.6353,-4.1414 4.5177,-9.7884 5.6472,-3.7648 -2.6353,-2.6354 2.2588,-9.0355 -3.3883,-3.7648 1.8824,-5.6471 -7.5296,-5.6473 2.6353,-3.3882 2.6354,0.7529 13.9297,-7.5296 5.2708,-10.9178 2.2588,-4.1414 -3.3882,-3.0118 -1.5059,-4.1412 4.1412,-1.506 v -6.0236 l 7.906,-11.6709 -1.8823,-1.8824 v -4.1413 l 1.8823,-2.6354 -0.3764,-3.0118 -7.1532,-3.0118 1.1295,-2.2589 4.5178,-1.5058 1.1293,-5.2708 -0.7529,-5.6472 3.0118,-2.2589 4.5178,3.3884 -2.2589,4.5177 5.2707,2.6353 1.5059,-6.4001 4.8942,1.1294 5.2708,-5.2707 -5.2708,-3.0118 9.7885,-2.6353 5.6473,-10.9179 -5.6473,-1.1295 -0.3764,-5.6471 4.5177,-6.0237 -1.8824,-20.7064 7.5296,-6.7766 -5.2707,-25.2241 -3.7648,-5.6473 9.412,-9.0355 -0.3765,-7.906 4.1616,-4.55 -149.0945,-35.6398 -8.7672,-9.5642 -10.3612,3.188 -5.8448,-3.9851 -10.3944,0.2397 -14.3393,4.0044 -14.3062,-5.2707 v -6.0237 l -12.8004,-9.0355 v -7.5295 l -7.5294,-5.2707 -3.7648,1.5059 -6.0237,6.7766 -10.5415,-6.7766 -1.5059,-6.0237 -4.5177,-2.2589 -4.5178,-5.2707 -12.0474,-0.753 -6.7766,-2.2588 -12.0473,3.0118 h -9.7884 l -6.0237,-5.2707 -6.0237,0.7529 -0.753,-5.2707 -6.0236,-1.5059 -5.2708,-5.2707 -7.5295,-0.753 v -9.0354 l -11.2944,-18.824 -10.5414,-7.5296 v -6.0237 l -11.2944,0.753 -8.2826,-7.5296 -8.2825,6.0237 1.5059,-5.2708 -3.0118,-4.5177 9.0355,-3.0119 -3.0119,-3.7648 -21.0827,-2.2588 -6.7767,1.5059 -11.2944,-6.0236 -12.0473,4.5177 -12.0474,14.3062 -6.0236,-3.7648 -2.7626,5.3118 -216.673,86.6506 0.2657,4.3835 -3.0552,1.3283 1.594,3.321 7.306,3.5866 3.8523,-3.3209 2.9223,3.7194 3.321,0.6642 3.188,3.7195 h 5.0478 l 1.727,4.2507 3.0552,-0.6642 0.3985,3.0553 -2.7896,2.391 4.3837,1.0627 0.5313,5.712 3.4537,-1.0627 0.9298,2.391 -2.1253,3.5866 -5.3135,1.3284 1.7269,3.7194 -4.2507,1.4612 -2.7896,-2.5239 -2.9224,1.7269 0.5313,3.1881 -4.3836,2.1254 -1.3283,-3.1881 -2.6568,3.3209 0.3985,4.2508 -2.391,1.4612 0.3985,2.7895 -4.3837,3.5866 1.3285,1.9925 3.188,2.1255 2.6568,3.4537 -2.7896,3.5866 -3.8523,-0.797 1.0627,3.7195 c 0,0 3.4537,4.6492 3.9851,4.6492 0.5313,0 3.3209,-0.6642 3.3209,-0.6642 l 2.1254,2.9225 -3.1881,1.0626 -0.9299,4.915 4.118,2.391 -1.8597,0.2657 v 5.5791 l 2.5238,3.321 -5.0478,0.9298 1.4613,3.8523 c 0,0 -4.6493,4.5164 -5.3135,5.0477 -0.6641,0.5315 -4.7821,0.6643 -4.7821,0.6643 l 0.9298,2.2582 2.524,-0.1329 2.2582,1.7268 -2.391,3.5867 4.2507,2.1253 0.797,3.0553 -2.2582,1.8597 h -3.4538 l -0.9298,-3.321 -2.3911,0.5315 -1.8596,3.4537 3.188,2.7896 -1.7269,1.8597 2.3911,1.8596 2.1254,-2.5238 1.8597,2.7895 2.9223,-0.3985 0.797,2.2583 -5.579,5.712 2.9224,3.5865 4.3836,1.594 0.6642,-2.391 1.7268,1.1955 h 6.1105 l 2.6568,-2.7895 3.7193,4.7821 3.321,-0.2657 -2.391,3.3209 1.3283,3.4538 4.2507,0.5313 -0.797,3.188 -4.1179,0.3986 -0.2656,0.6642 5.8448,2.391 v -2.2582 c 0,0 3.3208,1.3284 4.2507,1.5941 0.9298,0.2656 0.797,2.2582 0.797,2.2582 l 4.915,-1.8597 2.3911,2.2581 4.3835,-4.1178 -1.7268,-3.5866 4.3836,0.1328 1.8597,-3.1881 5.5791,1.8598 0.3985,5.0478 3.8523,1.9925 3.4538,-0.6642 0.6642,4.118 -4.118,3.4537 0.5313,2.7896 2.9225,0.6642 0.3985,2.7895 c 0,0 -3.9851,0.5313 -4.7821,0.5313 -0.797,0 3.0552,2.1255 3.0552,2.1255 l -2.7896,3.188 2.2582,3.4538 3.8523,-2.6568 1.1955,1.727 -2.2582,3.3208 3.7194,1.8598 -1.594,1.9925 3.5866,1.8597 h 4.2507 l -0.6642,2.9224 -2.6566,1.8597 1.3283,3.7195 -5.8448,2.7895 -1.8597,-1.1955 0.3985,-2.5239 h -1.0627 l -2.6568,1.0627 -2.2581,-2.9224 -3.7195,0.2656 -3.8523,3.0553 1.0628,2.7895 -2.9225,0.6642 -2.6566,-3.985 -3.7195,0.1329 -0.2657,3.7193 4.915,0.1329 c 0,0 0,2.6568 0,3.1881 0,0.5314 -2.7896,2.391 -2.7896,2.391 l 1.9926,2.7896 -2.9225,3.0552 -2.6567,-2.9223 -1.1955,1.7268 -3.3209,-1.7268 2.2581,-2.2582 -3.188,-0.2658 -0.9298,4.118 -2.524,-0.797 -0.1328,-2.6567 -2.2582,-0.1329 -3.4538,2.9224 0.6642,2.9224 -1.7269,0.6642 -2.2581,-1.9926 -3.4538,3.5866 2.2581,1.7269 0.6643,4.3836 -2.5239,2.2582 -2.6567,-1.594 -0.1329,5.4463 -2.2583,1.3283 2.524,1.8598 v 3.7194 l 1.8597,2.2582 -1.9926,2.9224 -3.9851,-3.0552 1.7269,-3.4538 -2.3911,-0.5313 v 1.3283 l -4.5164,0.6642 -0.6642,2.1254 2.7895,0.6642 0.1329,2.2582 -1.9925,1.594 0.1328,2.524 3.8523,1.3283 -1.594,5.1806 -1.8598,-2.2581 -3.4537,2.9223 1.8597,1.594 -5.7119,1.9926 -2.7897,-3.3209 -5.0477,0.1328 -3.8523,3.1882 -3.3209,-2.1255 -4.7821,2.1255 -3.4538,-0.1329 1.9926,-2.524 -1.4612,-0.797 -2.6567,0.3985 c 0,0 -3.8523,5.3135 -4.2508,5.8448 -0.3985,0.5314 -5.1806,1.3284 -5.1806,1.3284 l 0.797,2.7896 -3.0552,1.1955 -0.93,-2.2582 -4.1178,1.0627 -3.1881,-3.1881 6.3761,-0.797 -1.3284,-1.9925 -8.1029,0.1328 -0.93,-2.1253 -3.188,-0.3987 0.2657,1.4613 -3.5866,1.4612 -2.7896,-0.2657 1.0627,-1.8596 1.9925,-2.6568 -2.5238,-0.3985 -3.9852,1.4612 -0.3985,2.5239 h -4.6493 l -1.7268,-2.7896 -5.1807,1.4613 -0.5313,-2.524 h -5.3135 l -0.9298,-3.4538 2.6568,-0.9298 -0.6643,-4.2507 -4.3835,1.1955 -1.3285,-0.9299 0.93,-4.6493 -1.9926,-0.2656 -0.9299,2.9223 -2.9223,-0.797 0.5313,-3.188 -4.6493,-1.5941 -1.8597,2.9224 -6.6419,0.5314 -0.1329,-1.4612 2.7897,-1.3284 -0.9299,-1.7269 -5.7119,0.6642 -4.6493,-2.7895 -0.1329,-2.2583 3.188,-1.0627 0.1329,-2.2582 -3.0552,-2.2583 -64.9922,131.1212 -2.8531,2.1556 -3.1936,-1.3149 -1.1272,1.8786 -0.5636,3.1936 3.7572,3.5692 -6.0115,0.5637 -4.1329,2.2543 -3.3815,7.7023 -2.8179,1.1271 -0.1878,2.4421 3.1936,3.3815 -0.1879,1.1271 -2.63,1.1272 0.7514,5.448 2.6301,2.6299 -0.1879,2.2543 -3.0058,0.188 -3.945,5.4479 0.1879,2.63 4.6965,4.8843 2.63,-0.9393 3.5694,3.5694 -2.2544,3.3814 3.7772,6.4062 z"
     style="display:inline;fill:#fefee9;fill-opacity:1;stroke:#646464;stroke-width:0.64000005;stroke-linecap:butt;stroke-linejoin:round;stroke-miterlimit:4;stroke-dasharray:none;stroke-opacity:1"
     id="Miraflores,_Código_DANE_:_95200" />
  <path
     d="m 471.8224,520.3177 -11.4948,13.8895 -4.7896,8.1422 -3.1131,2.1553 -1.9159,4.0711 2.8737,6.4658 2.6343,3.5922 -0.9579,5.0289 -4.0711,0.479 -6.7053,10.2974 -4.7895,6.2264 v 2.3947 l -11.9738,8.1422 -4.0711,0.7184 -2.3947,2.8737 -4.7895,0.2395 -12.9317,6.9448 -2.1553,0.2395 -7.1842,3.5921 -5.508,-3.8316 0.479,-3.5922 -4.0711,-5.2684 -5.9869,0.479 -2.8737,1.1973 -6.7053,-1.6763 -4.7895,-6.9448 4.3105,-5.7474 0.7185,-5.5079 -5.5079,-4.3105 -4.7896,0.4789 -6.4658,4.3105 -1.1973,6.7054 -2.3948,7.6631 -6.2263,1.6764 -3.5923,-1.9158 h -5.0289 l -3.8316,3.1131 -3.5922,-0.7184 -4.3105,-4.3105 -8.3816,1.4368 -3.3527,2.8737 -4.0711,3.1132 -2.8737,4.0712 -5.508,-2.1554 -3.3526,0.7184 -4.3105,2.6343 -6.4658,2.1553 -2.8737,3.5921 -1.9159,-0.7184 -1.1974,-2.6342 -3.8316,1.9157 -2.6342,-0.4789 v -4.3105 l -2.1552,-0.7184 h -3.3528 l -0.9578,-5.987 3.3526,-3.3527 -0.2395,-3.8315 -11.2553,-4.5501 -39.0345,-1.6763 -13.1712,-2.3948 -4.7894,0.479 -4.0712,2.3947 h -8.8605 l -2.1552,-1.4368 -2.1553,-3.1132 -3.3527,0.479 -2.8737,2.8737 0.9579,1.6763 0.9578,2.3947 -2.3946,1.1974 -5.029,5.5079 -7.1844,-0.2394 -4.071,4.0711 -4.071,-0.2395 -0.7185,-1.4369 h -5.7475 l -7.6631,6.7053 v 2.6343 l 2.6342,5.029 0.2395,5.5079 -2.1553,1.1973 -5.2685,-1.6762 -6.4658,-5.508 0.2395,-3.8316 -0.9579,-6.9448 -2.1553,-0.7184 -17.0028,-0.2395 -5.0289,-4.55 -1.9158,-3.1132 1.9158,-3.3527 0.2395,-3.5921 -2.3948,-4.55 -2.49,-4.2575 -9.6855,-3.6404 h -6.6419 l -14.3463,-7.7045 -5.3134,-0.2657 -0.797,-2.391 -3.9852,-4.7821 -6.1104,-3.1882 -5.0478,2.9225 -6.4174,-2.6477 -1.1159,320.5018 -0.8942,8.2333 10.0024,5.8476 4.5306,6.5274 -5.268,4.7409 0.527,8.429 6.3214,4.2144 -3.1606,5.7949 5.7948,7.3751 c 0,0 3.6876,2.6345 5.7946,3.1611 2.1072,0.5267 4.7414,0 4.7414,0 l 4.2144,8.9555 -5.2682,7.3755 5.7947,5.795 4.7417,0.5266 7.375,8.429 2.6342,-2.6342 4.2141,2.6342 -1.5801,6.3214 3.6876,6.3218 6.3213,-0.5268 5.2683,2.6338 -1.5804,4.2146 4.2146,2.107 2.107,5.795 10.0092,3.6878 -3.6876,7.375 2.1072,4.2144 -5.7946,4.2146 1.5802,3.6874 0.527,3.1607 6.3216,0.5271 0.5266,8.4285 6.3218,-2.1069 3.6876,2.1069 4.7412,-0.5266 6.3216,5.2681 1.5804,8.4288 3.6874,-2.1072 4.7416,1.0535 v -2.1074 l 4.7412,5.2685 5.2678,3.1603 4.2142,13.6973 5.2684,4.2142 -2.1074,12.6436 7.9022,6.3214 -3.1606,3.6878 6.8483,3.1606 3.1607,-3.6877 h 4.2142 l 3.1611,-4.2144 c 0,0 -1.0537,7.9021 -1.0537,10.0095 0,2.107 4.7412,3.6878 4.7412,3.6878 h -3.1608 l 1.5807,4.2142 -6.3218,8.9556 9.4825,4.2142 3.6878,6.849 3.1606,1.0534 -4.7412,2.107 c 0,0 1.0537,2.634 0.5268,5.2682 -0.5268,2.634 -7.3754,5.7948 -7.3754,5.7948 l 6.3218,4.7414 0.5268,3.1608 h 5.2679 l -3.1607,5.7946 -1.5804,0.5266 -5.268,3.6878 2.634,0.5268 5.2683,6.8486 -1.5805,5.268 4.7408,1.5804 3.6876,-3.6876 1.0536,0.5268 3.6878,0.5268 -3.1607,9.4822 4.1133,3.217 -2.98,4.4701 5.215,3.7253 2.2354,-3.3528 7.0775,0.7452 -4.0978,5.2149 1.8625,3.7251 7.45,2.6076 3.3528,-1.4901 4.0976,1.4901 -1.8628,1.49 1.4902,3.3527 3.3527,-3.3527 1.8623,0.7449 -1.8623,2.9804 3.3523,1.4897 h 4.8427 l 2.6076,1.1176 -4.8427,4.47 h -4.0976 v 4.0976 h 4.8427 l 3.3525,1.8627 -3.7252,3.7248 3.7252,1.4901 h 5.2153 l 0.3726,3.7252 2.6071,3.3523 4.4701,-2.9799 2.6077,4.8428 2.2351,-2.6079 2.6075,8.9402 h 6.705 l 2.2349,-2.2349 h 5.9603 l -2.9802,4.4701 2.6079,7.8227 5.5873,1.8625 2.6077,-3.3527 4.8429,3.3527 4.8422,-1.4902 -1.49,4.8424 2.6075,2.6079 4.4701,-2.6079 0.7451,4.4704 -5.5878,3.3524 c 0,0 -7.45,1.4899 -2.2349,5.9603 5.215,4.4701 7.0776,4.8426 7.0776,4.8426 l 3.3525,-1.8625 1.1174,3.3523 8.5679,3.3525 1.49,4.4704 7.8227,-2.6077 -1.4904,-3.3528 2.6078,-1.4901 0.3726,3.353 3.725,1.1172 2.6074,-3.3525 1.8624,2.6076 4.8428,-2.2352 1.49,3.7252 9.3126,3.7252 -5.2148,-0.7448 -1.8627,3.725 1.8627,3.3521 0.3723,3.7252 -4.4701,0.3726 -0.3723,2.2349 -2.9804,2.9803 h -2.2351 l 1.1179,2.235 6.3326,-1.8625 1.8626,2.2349 -2.2351,3.725 1.1177,2.9802 5.5873,-2.2352 4.0973,4.8429 -2.2348,5.5875 3.3527,3.3523 2.6073,-4.4698 4.0974,1.8624 2.2354,-2.2348 1.1173,3.7248 -1.8626,2.6075 -4.8423,-0.3725 -1.4903,2.2351 10.0577,2.2348 h 3.3528 l 0.3722,1.1177 -3.3523,2.2348 0.3725,3.7255 7.4501,1.4898 3.725,-5.2153 4.47,1.4905 5.215,-4.0976 1.4902,0.3723 -3.7254,3.3525 2.6076,3.7252 h 5.2153 l 4.4702,4.0976 6.7049,-2.6075 -1.8623,2.9801 3.3526,3.3525 -2.2354,2.2348 5.5878,2.6077 4.8424,-5.9601 4.8428,-0.7452 5.9601,-3.7248 0.7449,4.8423 h 5.9603 l 1.1172,2.9801 1.8625,-4.8422 -0.7448,-5.2153 6.7051,-4.4701 2.6075,7.0778 3.7252,-0.7454 3.7248,0.7454 2.98,-5.9601 -2.6074,-5.215 0.7449,-4.0979 5.5878,0.3725 -1.49,4.8428 5.2152,2.6071 v -4.0973 l 4.4697,-1.1173 -3.3522,-7.8228 -4.0976,-1.1174 v -6.3327 l 6.3322,2.9799 0.7451,-7.8226 1.8625,-0.7448 0.7451,3.7248 5.9601,1.1176 7.4501,-6.3325 1.1175,2.9801 4.0978,-10.0578 -2.6077,-4.0977 5.2153,-2.2349 v 4.0976 l 4.0976,1.4899 5.215,-5.5875 -1.8627,-2.6073 5.5875,-7.4502 -4.4699,-5.5876 2.235,-5.2153 2.6075,2.2349 1.4901,-2.6074 5.2151,1.8627 -1.4902,4.0976 6.7052,2.6072 4.47,-3.7246 -1.8626,-1.4901 2.9801,-2.9803 0.7452,4.8428 3.7252,-0.745 1.1172,-3.3526 h 2.6078 l 1.4898,-4.4704 1.8625,-1.4899 1.49,4.4703 4.0978,-2.6078 4.4702,0.745 v -2.9801 l -4.8427,-4.47 0.3725,-3.3524 4.8428,0.745 -1.8627,-3.3525 -6.7053,0.745 -0.7451,-2.6077 3.7252,-3.725 3.7252,1.8625 5.2151,5.215 2.9797,1.1177 v -4.4702 l -3.3524,-4.8425 0.7451,-10.8023 c 0,0 -2.98,-0.7453 -4.47,-0.7453 -1.4899,0 -3.3527,-2.2353 -3.3527,-2.2353 l -6.7052,6.7052 -1.1175,-3.7246 0.745,-4.4706 3.7252,-1.4899 3.725,1.4899 3.3528,-4.8425 -5.9604,-1.49 -1.1174,-4.8425 h -4.8427 l 0.7451,-3.3526 7.8226,0.3725 3.3528,-2.98 h 2.9797 v 1.8623 l 5.2153,2.6077 4.8424,-5.2152 -5.215,-5.5874 -9.6849,-1.49 -3.3528,-10.4303 3.3528,-8.9402 2.9799,2.2351 8.1952,0.745 2.2348,-6.3326 -7.4499,-4.0974 v -3.7253 l 3.725,0.3724 1.1174,2.2353 7.4504,2.6074 1.8624,3.3525 c 0,0 5.9601,-5.5874 6.7049,-2.6075 0.7451,2.9802 1.4902,5.2151 1.4902,5.2151 l 2.2348,-7.0776 4.0978,-1.1174 v -5.5875 l -4.8426,-2.6077 -0.7449,-2.9802 8.195,1.4903 3.7251,-4.4702 h 2.6075 l 2.6078,5.5878 4.47,-1.1176 2.2349,0.3728 2.2351,-3.353 10.8026,-1.1174 v 3.725 l -7.0778,4.0976 -4.8422,13.7828 7.8224,5.5877 2.6077,5.9595 5.5875,-1.117 7.0773,4.0974 6.3329,-6.7048 -2.6075,-5.2154 2.2352,-5.9599 8.195,1.8623 2.6074,0.745 -0.7449,-2.9801 -4.8427,-2.6074 2.9802,-7.4501 -1.1175,-4.8425 1.8625,-5.5877 7.4504,-0.745 1.8623,4.0974 10.4253,-0.4714 -3.6877,-6.261 2.2543,-3.3814 -3.5693,-3.5693 -2.6301,0.9393 -4.6964,-4.8844 -0.188,-2.63 3.9451,-5.4479 3.0057,-0.1879 0.1879,-2.2543 -2.63,-2.63 -0.7515,-5.4479 2.63,-1.1272 0.188,-1.1271 -3.1936,-3.3815 0.1878,-2.4422 2.8179,-1.1272 3.3815,-7.7021 4.1329,-2.2543 6.0115,-0.5637 -3.7572,-3.5692 0.5636,-3.1937 1.1271,-1.8786 3.1936,1.315 2.8531,-2.1557 64.9923,-131.1211 3.0552,2.2583 -0.1329,2.2582 -3.188,1.0627 0.1328,2.2582 4.6492,2.7895 5.712,-0.6641 0.9299,1.7268 -2.7896,1.3285 0.1329,1.4611 6.6418,-0.5313 1.8598,-2.9225 4.6492,1.5942 -0.5314,3.188 2.9225,0.797 0.9299,-2.9224 1.9925,0.2657 -0.9299,4.6493 1.3284,0.9298 4.3836,-1.1956 0.6642,4.2508 -2.6567,0.9299 0.9298,3.4538 h 5.3135 l 0.5313,2.5238 5.1807,-1.4612 1.7268,2.7897 h 4.6493 l 0.3985,-2.524 3.9851,-1.4612 2.5239,0.3985 -1.9925,2.6567 -1.0627,1.8598 2.7895,0.2657 3.5866,-1.4612 -0.2656,-1.4613 3.188,0.3985 0.9298,2.1255 8.1031,-0.1329 1.3284,1.9925 -6.3762,0.797 3.1882,3.1882 4.1178,-1.0627 0.9299,2.2582 3.0553,-1.1955 -0.7971,-2.7897 c 0,0 4.7822,-0.797 5.1807,-1.3283 0.3985,-0.5313 4.2507,-5.8448 4.2507,-5.8448 l 2.6568,-0.3985 1.4611,0.797 -1.9925,2.5239 3.4537,0.1329 4.7822,-2.1254 3.3209,2.1254 3.8522,-3.1881 5.0478,-0.1329 2.7896,3.321 5.712,-1.9926 -1.8598,-1.594 3.4538,-2.9225 1.8597,2.2583 1.5941,-5.1806 -3.8523,-1.3284 -0.1329,-2.5239 1.9926,-1.594 -0.1329,-2.2582 -2.7895,-0.6642 0.6641,-2.1255 4.5165,-0.6641 v -1.3284 l 2.391,0.5314 -1.7268,3.4538 3.985,3.0552 1.9926,-2.9224 -1.8597,-2.2583 v -3.7193 l -2.5239,-1.8598 2.2582,-1.3284 0.1329,-5.4463 2.6568,1.594 2.5238,-2.2582 -0.6642,-4.3836 -2.2582,-1.7268 3.4537,-3.5866 2.2583,1.9926 1.7269,-0.6643 -0.6642,-2.9224 3.4538,-2.9224 2.2582,0.133 0.1328,2.6566 2.5239,0.7971 0.9299,-4.118 3.188,0.2657 -2.2581,2.2582 3.3208,1.7269 1.1956,-1.7269 2.6567,2.9224 2.9225,-3.0552 -1.9927,-2.7896 c 0,0 2.7897,-1.8597 2.7897,-2.391 0,-0.5314 0,-3.1881 0,-3.1881 l -4.915,-0.1329 0.2657,-3.7194 3.7193,-0.1328 2.6568,3.985 2.9224,-0.6642 -1.0627,-2.7895 3.8523,-3.0553 3.7194,-0.2657 2.2582,2.9225 2.6567,-1.0628 h 1.0628 l -0.3985,2.524 1.8597,1.1955 5.8448,-2.7895 -1.3284,-3.7195 2.6567,-1.8597 0.6642,-2.9224 h -4.2508 l -3.5865,-1.8597 1.594,-1.9925 -3.7195,-1.8598 2.2583,-3.3209 -1.1955,-1.7269 -3.8523,2.6568 -2.2582,-3.4538 2.7895,-3.188 c 0,0 -3.8523,-2.1255 -3.0552,-2.1255 0.7971,0 4.7821,-0.5313 4.7821,-0.5313 l -0.3985,-2.7896 -2.9224,-0.6641 -0.5313,-2.7896 4.1178,-3.4537 -0.6641,-4.118 -3.4537,0.6642 -3.8523,-1.9926 -0.3985,-5.0477 -5.5791,-1.8598 -1.8597,3.1881 -4.3837,-0.1329 1.7269,3.5867 -4.3835,4.1178 -2.3912,-2.2582 -4.9149,1.8597 c 0,0 0.1328,-1.9925 -0.797,-2.2582 -0.9299,-0.2656 -4.2508,-1.5941 -4.2508,-1.5941 v 2.2583 l -5.8449,-2.3911 0.2657,-0.6642 4.118,-0.3985 0.797,-3.188 -4.2507,-0.5314 -1.3285,-3.4537 2.3912,-3.321 -3.321,0.2658 -3.7195,-4.7822 -2.6566,2.7895 h -6.1105 l -1.7269,-1.1955 -0.6641,2.391 -4.3837,-1.594 -2.9224,-3.5866 5.5791,-5.712 -0.797,-2.2581 -2.9223,0.3985 -1.8598,-2.7895 -2.1254,2.5238 -2.391,-1.8597 1.7269,-1.8598 -3.1882,-2.7895 1.8598,-3.4538 2.391,-0.5313 0.9299,3.3209 h 3.4538 l 2.2582,-1.8596 -0.7971,-3.0553 -4.2508,-2.1254 2.3912,-3.5866 -2.2583,-1.7268 -2.5239,0.1328 -0.9298,-2.2583 c 0,0 4.1179,-0.1328 4.7821,-0.6641 0.6642,-0.5314 5.3134,-5.0478 5.3134,-5.0478 l -1.4612,-3.8522 5.0478,-0.9299 -2.5238,-3.3209 v -5.5792 l 1.8597,-0.2656 -4.118,-2.3911 0.9298,-4.9149 3.1882,-1.0627 -2.1254,-2.9224 c 0,0 -2.7896,0.6641 -3.321,0.6641 -0.5313,0 -3.9851,-4.6493 -3.9851,-4.6493 l -1.0627,-3.7193 3.8523,0.797 2.7895,-3.5867 -2.6566,-3.4537 -3.1882,-2.1254 -1.3283,-1.9925 4.3836,-3.5866 -0.3985,-2.7896 2.3911,-1.4611 -0.3986,-4.2508 2.6568,-3.321 1.3284,3.1881 4.3836,-2.1253 -0.5314,-3.1881 2.9224,-1.7269 2.7896,2.5239 4.2508,-1.4612 -1.7269,-3.7195 5.3135,-1.3283 2.1253,-3.5867 -0.9299,-2.391 -3.4538,1.0627 -0.5314,-5.712 -4.3836,-1.0626 2.7896,-2.3911 -0.3985,-3.0552 -3.0552,0.6641 -1.7269,-4.2508 h -5.0478 l -3.188,-3.7193 -3.321,-0.6642 -2.9223,-3.7195 -3.8523,3.321 -7.306,-3.5866 -1.5941,-3.321 3.0553,-1.3283 -0.4161,-4.2673 -3.9626,-0.072 -4.3208,-2.8179 1.8786,-0.7513 -0.9393,-5.448 -3.1936,0.1879 -6.9508,-5.26 v -3.9451 l 2.63,-1.5029 2.4422,-8.078 -2.63,-3.3815 2.2543,-5.6357 8.8294,-3.9451 0.1879,-7.1386 13.338,-10.8958 3.1936,-5.8237 -1.1272,-2.63 -1.6907,-10.5202 4.3207,-4.3207 -0.9393,-8.8294 -8.4536,-8.6416 -6.3872,1.1272 -0.3757,-2.63 -4.8844,-7.1386 -3.5692,0.3756 -4.133,-6.0114 -3.0056,1.8785 -2.818,-3.9449 c 0,0 2.4422,-1.6908 2.4422,-2.818 0,-1.1271 -0.1879,-7.3265 -1.1272,-8.0779 -0.9393,-0.7515 -12.2108,-7.8902 -12.2108,-7.8902 l -6.3872,-1.5028 -4.133,1.5028 -10.7079,-9.3929 c 0,0 1.1271,-3.945 0.3756,-4.6964 -0.7514,-0.7515 -3.1936,-1.503 -3.7571,-2.2543 -0.5637,-0.7515 -2.6301,-6.0116 -2.6301,-6.0116 0,0 -2.2543,0.3757 -3.1936,0.1879 -0.9393,-0.1879 -14.2774,-9.2051 -14.2774,-9.2051 l -2.4421,-6.3872 -5.4479,-5.6358 0.1879,-1.5029 2.8179,-1.315 v -2.2543 l -5.0722,0.7515 -3.0058,-3.1936 0.9393,-5.6359 -4.3207,0.3758 -2.0665,-5.448 -13.7137,-7.7022 -3.1936,2.63 -4.8844,0.7515 -4.6965,3.1936 -1.1272,4.3207 -6.0114,2.2544 -9.2051,-0.9393 -4.6965,-2.6301 -9.9566,-1.8786 -1.6907,1.6908 -5.26,-1.5028 -8.4537,6.575 0.7514,5.4479 -3.945,6.9508 -4.1329,3.3815 -0.1879,2.4421 -15.0287,15.9681 -0.188,4.8844 -2.6299,2.0663 -0.7514,6.0116 3.1936,3.3815 h 5.8237 l 4.3206,5.0721 -3.0057,1.8786 -1.8786,6.1994 3.5693,3.5694 -1.315,2.6299 -2.63,0.3757 0.9393,5.448 -0.3757,1.315 -3.1937,2.4421 -6.0114,1.503 -2.6301,3.5693 -5.8236,-1.6908 2.63,-3.5693 v -2.63 l 6.1993,-0.1879 1.1272,-1.6908 -6.3872,-5.26 -0.3757,-5.0722 4.5086,-7.3266 -5.2601,-4.5086 -3.5692,1.8787 -4.5087,-1.5029 -0.5635,-4.6965 -4.133,-6.9508 -5.26,-2.0665 2.0663,-6.3872 -3.3814,-6.1993 -3.0058,-0.7515 1.8787,-3.7571 -1.8787,-3.3815 v -4.3208 l -6.7628,-2.8178 4.1329,-3.3816 -1.503,-5.8236 -8.6415,-6.5751 0.7515,-6.7629 -4.3207,-2.8179 -6.0116,1.6908 -8.6415,-4.6966 h -4.3208 l -1.8786,-4.5085 -5.6358,-0.1879 -4.1329,-4.1329 c 0,0 -2.2543,0.1878 -3.0057,0.1878 -0.7514,0 -3.9451,-2.4421 -3.9451,-2.4421 l -2.63,1.8786 -10.3322,-6.0115 -3.9451,-7.7023 -9.5808,-0.3757 -6.9508,5.0722 v 3.3815 l -8.2658,7.1387 -2.63,0.5636 -3.9451,3.3814 -0.1878,3.7571 -4.6965,2.2544 -7.3266,-2.0664 -11.0837,-1.3151 -6.0115,1.5029 -2.0664,-1.8786 -12.2398,-0.5643 z"
     style="fill:#fefee9;fill-opacity:1;stroke:#646464;stroke-width:0.64000005;stroke-linecap:butt;stroke-linejoin:round;stroke-miterlimit:4;stroke-dasharray:none;stroke-opacity:1"
     id="Calamar,_Código_DANE_:_95015" />
  <path
     d="m 471.8224,520.3177 -11.4948,13.8895 -4.7896,8.1422 -3.1131,2.1553 -1.9159,4.0711 2.8737,6.4658 2.6343,3.5922 -0.9579,5.0289 -4.0711,0.479 -6.7053,10.2974 -4.7895,6.2264 v 2.3947 l -11.9738,8.1422 -4.0711,0.7184 -2.3947,2.8737 -4.7895,0.2395 -12.9317,6.9448 -2.1553,0.2395 -7.1842,3.5921 -5.508,-3.8316 0.479,-3.5922 -4.0711,-5.2684 -5.9869,0.479 -2.8737,1.1973 -6.7053,-1.6763 -4.7895,-6.9448 4.3105,-5.7474 0.7185,-5.5079 -5.5079,-4.3105 -4.7896,0.4789 -6.4658,4.3105 -1.1973,6.7054 -2.3948,7.6631 -6.2263,1.6764 -3.5923,-1.9158 h -5.0289 l -3.8316,3.1131 -3.5922,-0.7184 -4.3105,-4.3105 -8.3816,1.4368 -3.3527,2.8737 -4.0711,3.1132 -2.8737,4.0712 -5.508,-2.1554 -3.3526,0.7184 -4.3105,2.6343 -6.4658,2.1553 -2.8737,3.5921 -1.9159,-0.7184 -1.1974,-2.6342 -3.8316,1.9157 -2.6342,-0.4789 v -4.3105 l -2.1552,-0.7184 h -3.3528 l -0.9578,-5.987 3.3526,-3.3527 -0.2395,-3.8315 -11.2553,-4.5501 -39.0345,-1.6763 -13.1712,-2.3948 -4.7894,0.479 -4.0712,2.3947 h -8.8605 l -2.1552,-1.4368 -2.1553,-3.1132 -3.3527,0.479 -2.8737,2.8737 0.9579,1.6763 0.9578,2.3947 -2.3946,1.1974 -5.029,5.5079 -7.1844,-0.2394 -4.071,4.0711 -4.071,-0.2395 -0.7185,-1.4369 h -5.7475 l -7.6631,6.7053 v 2.6343 l 2.6342,5.029 0.2395,5.5079 -2.1553,1.1973 -5.2685,-1.6762 -6.4658,-5.508 0.2395,-3.8316 -0.9579,-6.9448 -2.1553,-0.7184 -17.0028,-0.2395 -5.0289,-4.55 -1.9158,-3.1132 1.9158,-3.3527 0.2395,-3.5921 -2.3948,-4.55 -2.49,-4.2576 -9.6856,-3.6403 h -6.6418 l -14.3463,-7.7045 -5.3135,-0.2657 -0.797,-2.391 -3.9851,-4.7821 -6.1105,-3.1881 -5.0478,2.9224 -6.4836,-2.7228 0.4893,-114.4285 4.3779,4.9605 5.3252,0.2615 5.8577,-6.2748 0.2663,-3.3989 -5.5915,-4.7062 0.5325,-8.8893 3.7278,-6.0134 6.3901,0.5228 5.059,-6.2748 -2.6626,-3.9216 -6.9227,-1.3074 -0.7989,-3.3988 -3.7276,-4.9676 1.5975,-3.1374 7.1891,-3.9219 1.3313,-4.4446 10.1179,-0.7843 6.9229,-4.7061 1.8636,-2.8761 c 0,0 5.3253,2.6146 5.3253,3.6604 0,1.0457 -0.7988,8.6278 -0.7988,8.6278 l -3.9938,1.8302 3.195,8.3665 9.5854,1.83 4.7927,-3.1374 1.5976,-4.4445 3.4613,-3.6604 6.3903,-1.5687 4.7928,-3.3988 v -4.4447 l 2.3963,-2.0917 7.9879,1.0459 c 0,0 -2.13,8.8893 -2.13,10.1965 0,1.3073 3.7274,5.7521 3.7274,5.7521 l 2.3964,9.1507 -1.8638,3.1374 -1.3312,5.4906 4.7926,1.3071 3.7277,-2.3529 v -4.4448 l -2.6626,-2.8759 4.5265,-5.752 5.8576,-1.0459 5.059,2.3531 7.7215,-4.4445 7.4553,4.9674 -0.2663,8.3665 4.5265,2.6145 5.0588,-4.4446 1.3314,-7.5821 -5.5914,-8.8894 -0.2663,-7.0591 5.5915,-3.1376 4.5265,0.2615 1.5975,7.0593 2.3964,3.3988 c 0,0 1.5975,6.5362 1.5975,7.5821 0,1.0459 -5.8578,8.8894 -5.8578,8.8894 l -1.5975,7.0593 6.6565,3.6602 3.9939,-2.353 2.3964,-8.1051 -1.3314,-4.1831 6.3902,-4.9677 12.2481,1.0459 4.7927,3.1373 -0.7989,5.7519 -5.059,3.6605 -0.7986,3.3988 6.9228,3.3989 7.4551,-2.3531 v -6.2749 l 2.1302,-3.9217 v -8.1052 l -3.4614,-2.6143 6.6566,-3.3988 7.9877,-1.5688 1.3314,3.3988 4.7926,2.6145 -1.8637,11.5039 -7.1892,3.1374 -0.7987,5.4905 2.9289,2.3531 3.7276,-1.8301 8.7865,-2.6145 4.2603,-7.8436 -3.4614,-5.7519 2.1302,-4.4448 4.7925,-1.3071 5.3252,3.1373 7.7216,12.5496 h 5.8577 l 7.9879,-8.3664 9.5853,-4.9676 c 0,0 6.3904,1.0459 7.9878,2.0916 1.5976,1.046 2.3964,4.4448 2.3964,4.4448 h 4.7927 l 5.5915,-6.0136 -3.7278,-6.5362 1.0652,-2.0916 -4.2601,-1.5686 -10.118,2.353 -4.2602,-5.229 1.5976,-2.6145 11.183,-0.5229 5.5913,-3.399 4.2602,1.3074 6.1241,-3.1374 2.3962,-7.0593 4.2603,-1.5686 3.1951,2.8759 -4.2601,8.628 c 0,0 5.0588,2.8759 6.3902,2.8759 1.3312,0 7.7216,-1.5688 7.7216,-1.5688 l 5.0588,-6.5363 11.9818,-4.7061 3.1952,5.7519 -2.6626,5.4905 -1.5976,9.6738 c 0,0 3.994,2.3531 5.8579,2.8759 1.8637,0.5229 8.5202,-4.4447 8.5202,-4.4447 l 2.13,-3.3988 3.4615,0.5229 6.9227,-0.7843 2.9289,-4.9677 -11.1829,-6.5362 v -3.9216 l 6.6564,-5.2294 6.3904,1.5689 3.195,6.275 1.3313,8.8892 3.994,-1.0459 6.3902,-6.0134 10.3841,-10.7194 5.8578,-1.5687 0.2663,-6.7978 4.2601,-3.6603 4.2602,2.6144 5.0589,-0.2613 0.5324,-4.9676 4.2603,-1.3074 4.7929,3.6605 0.5323,10.981 3.1951,0.7843 6.8276,-8.3149 7.531,-5.5461 7.5309,-4.0672 6.4013,-5.5463 v -3.3277 l 7.531,0.7396 2.2593,2.958 4.895,0.7394 2.2595,-2.5883 -1.5062,-2.2185 -3.0125,-0.7395 -2.6358,-3.6974 0.7533,-8.1346 4.1417,-5.5461 4.8953,0.7395 2.6358,5.1765 c 0,0 4.142,4.8066 5.6482,4.8066 1.5064,0 8.6606,0.3699 8.6606,0.3699 l 1.8828,-5.9161 -0.3764,-5.5461 -2.2593,-2.9581 -3.3889,-8.1344 h -6.4014 l -2.2593,3.6974 h -4.8953 l -3.0124,-4.8066 3.3892,-7.0253 4.5185,-5.1765 8.6607,0.3698 7.5309,-6.6555 4.895,-7.0253 -2.2591,-9.6135 3.7654,-4.4368 6.0248,2.958 c 0,0 3.7654,0 6.4014,0 2.6358,0 4.1419,-7.395 4.1419,-7.395 h 3.389 l 5.2716,-2.2185 3.389,0.3697 5.6482,-3.3278 9.4138,-10.3528 4.5185,-0.3698 12.0498,-9.6134 7.5309,-0.7396 8.2841,5.5463 1.1297,6.2857 5.2715,6.2857 9.3,2.1172 6.9652,7.2195 14.9105,2.3531 11.7154,-11.7654 3.7276,-13.5954 11.4494,-10.1967 9.319,0.2616 10.1179,8.1048 1.8638,8.1051 -2.9289,5.752 0.7989,8.6277 8.2541,4.7063 6.6565,-8.1051 -3.7277,-9.6738 0.2662,-4.7059 4.5264,-2.3531 7.4554,-9.1509 11.7154,-4.1832 10.9167,8.105 0.7988,8.1051 -4.2601,7.0591 1.8637,5.229 h 4.5264 l 6.9228,-4.4446 -2.13,-5.7519 0.5324,-6.0135 -1.3311,-10.7194 -2.3964,-3.3991 v -6.0132 l 6.1238,-6.2749 5.8579,2.6145 6.6565,-0.7845 2.9288,-7.3204 -10.6503,-1.8303 -2.6627,-4.9676 5.5914,-8.8894 5.369,-1.4487 5.8365,4.8067 5.8364,-3.5125 2.0563,-7.3574 -2.824,-3.3278 3.5771,-4.0673 11.0035,4.3332 9.0614,3.0389 11.1174,0.3018 8.5637,2.958 6.8879,-4.0674 2.7924,-8.3194 1.117,-7.3954 -5.0263,-5.1766 -0.3724,-4.0674 4.2817,-2.9581 7.4465,1.1093 5.9572,-0.7396 4.2818,-4.437 6.7019,4.622 6.5157,1.8488 3.9094,4.0673 2.6062,-4.6219 11.5421,-4.4373 11.5421,-13.1264 6.1434,-11.4627 3.9094,-5.1765 9.3081,-2.7732 9.8666,-5.3614 7.2604,-1.4792 4.4679,1.8487 0.5585,6.286 6.5156,7.5801 3.9095,0.3699 2.6062,-2.5884 h 5.771 c 0,0 7.8189,-6.4708 7.4466,-7.2104 -0.3724,-0.7395 -5.7711,-8.3196 -5.7711,-8.3196 l 0.1862,-8.5044 5.5849,-3.8827 8.7497,0.1851 2.6063,2.958 -0.3724,5.1766 5.771,3.8825 3.1649,4.807 0.3723,3.6975 5.9572,5.9163 11.3558,6.4708 5.3988,-0.5547 5.0264,-5.9161 2.4202,-5.3616 -2.4202,-5.3614 c 0,0 -2.7924,0.5545 -3.3509,-0.1851 -0.5584,-0.7394 -0.9309,-5.1766 -0.9309,-5.1766 0,0 -6.1434,-3.5127 -6.1434,-4.2522 0,-0.7395 -0.1861,-9.6139 -0.1861,-9.6139 l -3.7233,-9.6138 2.7924,-6.6556 6.888,-13.4963 10.7977,0.5546 11.5419,6.1012 6.888,1.2942 5.3988,-5.1768 -1.3032,-7.2102 3.9093,-4.4372 8.3774,1.8488 6.3295,6.1011 0.7448,4.9918 5.2124,5.9161 2.2341,4.8069 -1.3032,5.3614 3.3509,4.0675 10.6114,7.5802 11.7282,5.5463 10.2388,-0.3697 12.8453,-7.2105 13.2175,-2.0336 8.9359,5.1767 2.9786,7.2103 -0.1861,4.8069 2.42,2.958 4.0956,-4.9916 3.7233,-7.9499 5.9571,-5.1768 12.473,-3.5127 2.6063,1.8488 10.425,2.9581 10.7976,-1.8487 19.3608,-5.5464 14.8929,-3.143 9.4944,1.8488 4.0956,2.4035 6.1434,-9.4289 v -8.8744 l -4.8402,-3.6976 h -4.8404 l -6.3295,2.0337 -4.0955,-1.294 2.9786,-4.6221 3.3511,0.3697 7.074,-1.479 5.3987,-2.5882 3.5371,1.294 10.9836,3.143 8.3773,4.8068 2.7925,8.3197 -4.8401,11.4626 -0.5585,7.5802 5.0263,5.1766 4.468,-4.6221 6.3294,-7.765 2.9785,-11.2778 2.2341,-7.5799 -8.1911,-12.387 0.9307,-6.8406 6.5157,-1.2941 10.7975,8.3197 6.1433,12.9414 6.1432,5.3616 6.8881,3.3278 4.468,5.1767 7.2604,3.5128 c 0,0 7.0741,-6.4709 7.0741,-7.3953 0,-0.9244 -2.4201,-7.3951 -2.4201,-8.6894 0,-1.2942 2.7926,-6.101 2.7926,-6.101 l 7.26,-2.2186 7.4468,3.1431 0.7446,8.8742 -2.6064,6.2859 -5.585,5.9162 -2.6062,6.8406 4.4681,2.0336 11.542,2.2184 3.3509,-1.1092 5.3987,3.6977 4.2818,-0.7395 1.4893,-7.765 -3.537,-4.0673 6.1433,-4.4372 h 2.0477 l 10.239,-3.6976 9.3081,3.5126 c 0,0 5.0263,0 5.7712,0 0.7445,0 3.7231,-4.9917 3.7231,-4.9917 l -1.1169,-6.6556 -6.5158,-3.143 v -3.6976 l 3.9096,-2.0337 11.3558,3.5127 3.5371,2.9581 3.1648,1.8489 7.074,-0.3699 3.7233,-5.9161 2.4202,-4.2522 3.7233,-0.1849 8.1911,-0.3697 13.0313,5.1766 2.2341,7.58 5.7709,2.9581 6.1434,-1.479 3.1648,-7.2105 c 0,0 -3.7232,-9.059 -3.7232,-10.1683 0,-1.1092 0.7446,-3.8825 0.9308,-4.622 0.1861,-0.7394 -0.9308,-4.8069 -0.9308,-4.8069 l 3.3509,-2.0336 2.2339,3.1428 11.9144,9.2442 1.5297,3.5415 18.9556,7.5824 5.792,7.5823 v 2.3532 l 4.739,2.6146 c 0,0 7.3715,-2.6146 7.3715,-4.1833 0,-1.5688 -1.053,-5.7521 -1.053,-5.7521 l 3.4227,-6.798 v -2.6147 l -4.2125,-3.3989 -0.5266,-2.876 5.5289,-2.6147 3.4226,-2.6147 9.4779,2.8761 2.896,6.7981 -6.3188,8.6281 3.1595,3.9219 5.002,0.7844 3.686,-3.399 2.1062,-4.7063 2.8958,-1.0458 4.4758,-6.7979 1.5797,-9.1512 c 0,0 -3.9492,-6.2751 -3.9492,-8.1053 0,-1.8301 1.3162,-8.8897 1.3162,-8.8897 l 7.6352,-1.0457 11.8473,6.2751 2.3693,8.6281 -2.8958,8.3667 1.8428,7.5823 7.6349,5.7523 5.792,-0.7845 4.2125,-7.5823 5.5287,-3.399 5.5288,0.2614 2.896,4.1834 -1.5797,5.4907 2.3695,4.9677 3.949,0.2615 2.6327,-3.3989 3.4226,1.3072 7.3717,-1.8302 3.9491,-5.7521 v -3.922 l 7.6685,-4.0575 11.5842,-0.2614 2.8959,-3.9218 -0.7899,-4.1834 1.5796,-2.3532 h 4.2124 l 2.6986,1.438 4.1465,5.8829 -0.2632,6.0137 2.3696,4.7062 5.9233,2.3531 5.7923,-2.0917 6.4501,-4.5754 -1.5796,-6.4059 -2.1062,-3.3989 1.4481,-2.6146 3.4226,-0.1305 2.8959,2.6146 4.2123,4.4447 0.9216,3.5298 4.2123,6.7979 5.6604,2.0917 6.187,-1.8303 3.4226,-3.9218 4.9057,-2.0157 4.3738,1.9644 3.8524,6.2433 -0.5315,6.7746 3.4538,3.8523 7.5716,1.4612 c 0,0 6.9075,0.797 7.7045,1.5941 0.7971,0.797 1.0629,3.985 1.0629,3.985 l -6.2434,4.7822 -3.0552,-1.9925 -7.0404,1.8596 0.5315,6.2433 5.8447,3.4539 6.7747,7.5716 3.8522,-8.2358 -0.2657,-7.3061 3.3208,-7.4388 3.9853,-0.3985 5.579,-6.9075 6.6418,1.594 1.3285,3.7195 2.1253,1.594 3.1882,6.9075 3.7193,2.9224 4.7823,0.797 5.3133,-3.1881 6.6418,-4.782 h 4.7823 l 6.376,6.3761 -1.3282,8.2358 -7.4389,8.7673 1.5941,7.1731 6.6417,4.5165 5.8448,-1.0628 6.6418,-6.1104 1.594,-10.0955 -2.1252,-6.9076 -6.9077,-6.1105 -0.797,-6.9075 6.6418,-5.8448 h 6.1106 l 4.5165,1.0627 4.2508,7.9702 4.782,17.2688 5.5791,9.5642 6.1105,3.4537 6.6418,-6.1104 0.2657,-5.8448 0.797,-3.7195 -8.2357,-9.5642 0.5312,-6.1104 3.188,-3.9852 13.5494,7.9702 0.5314,9.2986 -5.0477,5.8448 0.2655,5.3135 -7.1731,10.6269 c 0,0 1.0628,3.4537 1.0628,4.5164 0,1.0626 4.5163,2.9224 4.5163,2.9224 l 4.7823,-3.4538 2.6567,-5.5791 11.1581,-9.5642 5.5792,-5.5791 14.8776,2.391 c 0,0 5.5792,7.4388 6.6419,8.2358 1.0627,0.7971 1.5942,9.5643 1.5942,9.5643 l -6.1106,5.3135 -7.1732,1.3283 -0.2655,3.4538 3.4535,3.4537 10.8928,-1.8597 11.4238,-3.4537 7.4388,0.5314 11.6898,-5.3135 2.391,-5.5791 6.6418,-6.3762 3.9851,-0.797 3.188,2.1253 2.1254,9.0329 -1.0627,7.4389 -2.6567,7.9702 1.8597,6.1104 8.2359,1.8597 11.9553,-11.6896 7.7045,-5.3134 -1.594,-3.7194 2.6567,-3.9852 5.8448,0.797 4.782,-1.0626 3.4537,-6.1105 5.0478,-2.391 2.9226,-11.424 -1.8597,-7.7046 -11.4239,-9.5641 -2.3913,-7.1732 4.5166,-4.2508 11.424,3.4537 5.0478,18.0659 0.797,10.3612 6.6418,6.1104 4.5165,1.0628 7.7045,-13.2837 -1.5942,-2.9224 5.0478,-11.4239 7.1733,-2.3912 5.579,5.0479 h 3.1883 l 5.5791,11.4239 9.2985,1.594 5.5792,1.8598 16.7374,13.2836 9.7316,2.4746 -275.2137,114.0306 2.8179,5.4479 -1.5031,2.6301 3.3816,3.3814 5.6357,10.5201 6.3873,3.0058 3.7573,8.6416 h 3.0055 l 6.0115,-3.0058 7.5146,-0.3758 v -3.7571 l 4.8843,2.2543 5.2599,-3.3815 6.0115,4.133 1.1273,4.1329 3.7571,1.8785 0.7515,6.0115 2.6299,2.2543 -1.127,6.0115 7.1386,0.7515 1.8785,-1.503 2.2545,2.6301 4.5086,1.1272 0.3756,1.8786 6.0116,-1.8786 2.63,5.6358 5.26,-3.7572 1.8786,-5.2601 11.2715,-5.26 7.5145,3.0057 1.5027,3.0058 3.7574,1.8785 c 0,0 3.0057,7.5144 3.0057,9.393 0,1.8786 -2.2543,3.3815 -2.2543,3.3815 l 1.1271,5.2601 5.6357,2.2542 0.7515,5.6358 3.0057,0.7514 1.8785,4.5086 4.5088,-1.1271 3.7571,6.0115 3.7573,-0.3757 5.2599,6.3872 -3.7572,4.1329 7.1388,3.7572 0.7515,4.5086 6.7627,1.1272 1.5031,3.0058 3.0057,3.7572 -6.0115,1.5028 4.1328,5.2601 -1.127,1.8786 4.8842,6.0115 4.8843,1.8785 0.7515,7.8901 3.0057,6.7629 h 2.6301 l 0.3757,4.5087 6.0115,7.8901 4.133,2.63 c 0,0 0.7514,4.1329 0.3756,6.0115 -0.3756,1.8786 -0.7513,3.7572 -0.7513,3.7572 l 5.2601,10.1444 -0.7516,7.8901 5.6359,4.1329 h 4.133 l 3.0055,1.5028 3.3815,6.3872 6.3873,1.8787 4.133,-0.3757 1.8785,0.3757 1.8785,2.2543 2.2543,-0.3757 3.3814,-3.7573 1.8787,3.0058 4.8844,0.7515 3.0058,-1.8786 1.5027,3.0057 4.8845,1.1272 5.0431,4.4782 -4.5595,3.0567 5.0478,4.2508 0.5313,4.7822 -4.5164,5.3133 -1.5942,6.1106 -3.188,-1.5941 1.594,-4.5165 -3.985,-1.594 -5.3135,3.4538 -7.7046,-5.8448 0.5315,-13.5494 h -4.7823 l -3.188,3.9851 -3.7195,0.5314 -3.188,8.5016 5.5792,4.2507 -3.9853,4.7821 -15.6745,2.9225 -4.2508,8.2358 h -17.5346 l -7.173,-4.7822 0.2657,-3.4536 3.9851,-0.5314 2.1252,3.985 6.642,1.5941 3.7194,-3.9851 -5.0478,-1.594 v -5.8448 h -7.1731 l -3.7195,-5.8448 -3.9851,0.5313 -1.0627,6.6418 -2.1255,1.5941 -6.1103,-3.7194 -7.7046,4.5164 0.7971,3.1881 7.7045,2.9223 v 1.5941 l -7.4388,-1.8597 -5.8449,4.2508 -1.0627,9.0329 -2.9224,0.797 -2.9224,-3.7195 c 0,0 2.9224,-2.391 2.9224,-3.4536 0,-1.0628 -5.3135,-5.5792 -5.3135,-5.5792 l -5.0478,-0.2656 -1.8595,3.7193 6.376,4.2508 0.2657,5.5791 -3.7195,2.9224 -6.1105,9.8299 -3.4537,0.2657 -2.6568,-7.4388 -7.7043,1.3283 -4.7823,-1.0626 -5.5791,9.8299 -5.3135,0.5313 -1.594,-9.2986 -8.7673,0.2657 -4.782,-3.9851 -2.3911,4.5164 3.4538,4.5165 v 3.9851 l -5.3135,0.797 -9.83,3.1881 1.0627,-3.9851 -2.6567,-2.1254 5.8448,-5.5792 0.5314,-5.0478 -5.5792,-1.594 -7.9701,5.5792 -3.4538,-0.5314 -3.7195,5.0478 5.3135,5.5792 -1.0627,8.2358 -5.3133,-2.9223 -10.0955,5.0477 -2.3913,6.1105 2.3913,2.1254 -2.9226,6.1105 -9.5643,-6.1105 3.7195,-7.9702 -5.5792,-13.2837 -3.4538,1.8598 -0.797,4.2507 1.8598,3.1881 -0.2658,2.391 -6.9073,-2.1253 1.8596,-5.8448 2.6567,-3.7195 -7.173,-1.3284 -7.7046,5.5792 -9.2985,-3.188 -0.797,-11.424 -6.6418,-5.8448 -11.4241,1.3283 -2.6568,-1.0626 -10.6268,4.2507 -5.0477,-2.9224 -6.6419,2.391 -6.642,-5.0478 6.642,-2.9223 4.2506,-7.9702 -6.9073,-3.4538 -4.2508,2.9224 -0.5315,3.9851 -9.8298,6.9075 -4.782,-0.797 -3.4538,3.1881 4.2508,2.391 1.8595,6.3762 9.5643,6.1105 6.9076,2.6567 0.5312,3.9851 -4.2508,1.3284 -0.797,5.0478 -6.1103,2.391 -1.5942,-7.1731 -8.2359,-3.4538 1.0629,-5.3135 -4.2508,-2.391 -2.6568,4.7821 -6.3761,-0.7971 -4.5164,5.5792 4.5164,4.7821 -0.797,4.2508 -4.7822,0.2657 -4.2507,2.391 -4.5166,-2.1254 4.7823,-10.0956 -3.1881,-3.7193 2.3911,-9.5643 -1.5941,-10.8926 -3.1882,1.594 0.797,7.7046 -2.3911,1.0627 -6.6417,-1.8597 1.0627,-8.2359 -5.3134,0.797 -3.9851,-2.6567 -3.9851,0.797 2.3911,3.4538 -3.1883,3.7193 -11.4238,0.2657 -5.3135,-6.3761 -6.9076,-2.6567 -1.0625,-5.0478 -6.642,-1.5941 -5.3133,5.0479 5.5791,1.3283 v 6.6418 l -4.2508,2.6567 0.2657,2.1255 6.9075,1.594 2.9224,6.9074 -4.7821,3.9852 -3.1881,7.7045 -15.1435,-0.797 -3.7193,-4.5165 2.9222,-4.2507 4.2508,4.5164 6.9076,-0.5314 4.2508,-4.7821 -2.9223,-1.0627 -3.1883,1.3284 -11.4238,-8.2359 -6.1105,-1.8596 -5.0478,-6.6419 -4.2507,-0.7971 -3.9851,3.7195 7.1731,1.8597 0.797,5.8448 -4.7821,2.3911 -0.5314,5.3135 -3.7193,6.6418 -2.6568,-0.5313 1.594,-3.1882 -4.5163,-6.3761 5.3134,-5.5792 -2.6568,-3.4537 -3.7193,1.0627 -1.8598,-7.4389 -7.7045,-3.985 7.4388,-8.7673 h 5.8448 l 1.3284,-5.0478 -5.8448,-3.4537 -3.1881,-7.1731 -4.2507,-5.5792 -7.4389,-5.3134 5.8448,-2.9225 0.797,-4.5165 12.221,-10.3611 v -4.5165 l -5.0478,-3.1882 -0.5313,-2.6566 5.8448,0.2656 2.1253,-1.8596 -4.5163,-5.5792 -1.8598,-4.7821 -9.5642,-2.3911 -10.0956,6.6419 -7.4388,1.594 -1.8598,1.594 1.8598,2.9225 0.5313,3.985 -10.6269,1.3283 -6.1105,-2.6567 -0.5313,6.6419 h -3.7195 l -1.8597,-3.4537 h -6.3761 l 4.7821,5.0477 -7.7046,7.4389 -2.6567,8.2358 1.8597,3.7195 -5.3135,6.1105 -0.797,-11.6897 -5.5791,-5.3134 -0.2657,5.5791 -5.3135,-3.4538 -3.7193,0.797 -0.2658,6.3763 -11.6896,3.985 h -7.1732 l -2.6566,2.9225 6.1104,8.5015 -4.7821,1.8596 -2.9223,2.6568 -5.0479,1.3284 -1.5941,3.9851 6.3762,6.3761 -1.8597,2.391 -6.6418,-0.2656 -2.9225,2.1254 -2.9223,-3.1881 h -5.5792 l -2.9223,2.6568 h -5.3135 l 0.2657,5.5791 -4.2508,2.6567 -8.5016,-6.1104 -9.0329,3.1881 -11.6896,-3.9852 -5.5791,0.7971 -2.391,-3.7195 -10.627,2.1254 v -4.2508 l -7.7046,-0.797 -0.2656,4.7822 -5.0478,0.5313 -1.3284,6.3761 6.3762,7.4389 -0.797,3.7194 -3.1881,3.1881 3.9851,2.6567 h 2.9224 l 2.1254,5.3135 -1.594,1.8597 -1.0627,10.3613 2.6567,3.985 0.2656,2.9224 -6.3761,3.9852 -5.3135,-7.4389 -6.9075,-3.9851 -6.1104,5.5792 3.7194,7.1731 13.815,4.5165 -2.9225,2.9223 -0.5313,7.4389 -4.5164,0.2656 -6.1104,-6.3761 -9.2987,-0.5313 -0.7968,-7.9702 -6.642,2.391 1.8597,-6.1105 -2.391,-2.9223 -4.2508,6.3761 -5.0478,0.5314 -3.1881,-4.7822 -4.2507,-0.5313 v -4.7821 l 5.8449,1.0626 5.3134,-1.594 -1.3285,-3.188 -5.0476,1.594 -4.5165,-5.3135 4.5165,-4.2508 -1.3284,-9.5641 1.0627,-2.6568 h -2.6567 l -7.4389,7.1731 -0.5313,3.9852 -11.6896,-5.0479 1.594,-10.6269 -9.2987,-0.2657 1.8598,-7.1731 -6.3762,-3.7195 4.7821,-2.9223 0.2656,-9.033 -13.2836,-3.4536 -6.3761,1.0626 -12.221,-0.5313 -4.5165,0.2657 -4.7821,6.3761 -10.3612,-10.0956 -3.4538,-7.9702 h -7.7045 l -5.8448,-5.8448 -7.9702,-1.594 -4.2507,1.594 -0.7971,-10.6269 -3.4537,-4.5165 1.3283,-8.5015 -3.7195,-3.9851 -8.2358,5.5791 1.3284,6.6419 5.0478,4.2508 0.797,6.1104 -10.627,5.5792 -3.7193,8.2358 -7.9703,0.2657 -8.2358,-13.2837 -5.5792,-2.391 -2.391,4.7821 6.1105,0.5314 10.8925,16.7374 -0.2656,5.3134 h -2.3911 l -2.391,6.9076 -5.8448,-0.2657 -10.0956,-11.424 h -3.1881 l -0.2657,7.4389 -8.7672,3.188 0.2657,2.3911 8.7672,2.9224 3.4538,7.9702 -1.8597,2.6567 1.0627,3.1881 -3.4538,1.3284 c 0,0 -0.5314,-6.1105 -1.8597,-6.9075 -1.3283,-0.797 -9.5643,-8.5016 -9.5643,-8.5016 l -3.7193,0.5313 2.9223,5.5792 -2.6567,3.4538 -4.2508,-1.3284 -2.6568,0.5314 -3.188,5.3134 -10.8926,-3.7194 -2.6567,-5.5792 -8.5016,1.3284 -5.8448,-2.6567 0.2657,-6.3762 -3.188,-1.8596 -9.033,-13.2838 h -7.1731 l 0.5313,-6.9075 -6.9075,-11.1582 -7.9702,-2.391 -5.8448,0.7969 -3.4537,-1.8596 -1.5941,2.391 -3.1881,-4.5165 0.2657,-8.7671 -3.1881,-3.4538 -7.7045,3.7194 -6.3761,-0.2656 -6.1105,2.391 2.391,4.2508 h 5.8448 l -0.797,2.1253 -7.4388,2.1255 -5.0478,-3.1881 c 0,0 0,-9.83 -0.797,-11.1583 -0.797,-1.3284 -5.3135,-4.5165 -5.3135,-4.5165 0,0 2.1253,-3.7194 1.8597,-5.0478 -0.2657,-1.3283 -2.1254,-2.9224 -2.1254,-2.9224 l -1.594,-6.3761 -3.1881,2.6567 c 0,0 -1.3284,-4.7822 -2.6567,-5.3135 -1.3284,-0.5313 -3.7195,-1.3283 -3.7195,-1.3283 l -2.391,4.7821 -4.7821,-5.5791 -5.5792,-1.3284 -2.1254,1.3284 h -9.5642 l -2.1254,2.1253 -2.391,-2.391 -3.1882,0.2657 -0.2656,4.2508 -4.5164,-2.3912 -7.7046,0.5314 -10.3612,-4.7821 c 0,0 2.1254,-3.1881 0,-3.1881 -2.1254,0 -5.8448,-0.797 -5.8448,-0.797 l -1.3284,-3.4538 -4.2507,4.5165 -3.7195,0.5313 -4.7821,-3.188 2.1253,-4.2508 -3.4537,-3.1881 -12.4866,1.0626 -4.5165,-1.8596 3.7195,-6.6418 -4.7821,-0.2657 0.2657,-4.2508 -4.2508,-2.1254 -3.1881,6.1105 -9.8299,-4.7821 v -5.0478 l -2.1253,-1.3284 -4.5165,6.3762 -4.5165,-0.797 -2.391,-3.9851 h -2.6568 c 0,0 0.5313,-2.9224 -0.797,-3.7194 -1.3283,-0.797 -7.9702,-4.7821 -7.9702,-4.7821 l -1.5941,-4.7822 -4.5163,-2.6567 -4.5165,5.3134 -3.985,-0.5313 -3.4539,-5.3135 -8.7672,0.7971 -9.5643,-5.5791 -3.985,-0.2657 -5.0478,5.5791 -4.5164,-3.4538 -6.6419,0.7971 -1.3283,2.9224 -5.5791,-4.118 -3.4538,2.2582 -5.5792,-0.2656 -1.8597,-3.9851 h -5.8448 l -3.4538,2.391 -4.5164,-0.5313 -2.9224,-0.797 -5.0478,1.0627 -1.0627,3.9851 -15.409,6.6418 -8.2359,0.797 -19.3942,9.83 -5.0477,1.0626 -3.4538,-1.0626 -2.1253,4.782 -3.9852,0.5313 -4.5164,5.3135 -4.5165,0.7971 -8.2358,-4.7821 -8.2358,-2.1255 h -7.9703 l -12.4866,-8.2358 -2.391,-2.9225 -6.6419,-2.9223 h -19.6598 l -2.391,-3.1881 -8.236,6.6419 v 3.4537 l -9.5642,-3.188 -13.018,2.1253 -5.8448,6.6418 -5.3135,3.7195 -9.5642,12.4866 -3.4537,1.0627 -1.8597,2.6568 1.8597,3.188 -5.8449,3.4538 -7.4388,1.8597 -10.8926,11.9552 -0.2657,3.4538 -12.7523,5.8449 -11.1582,13.8149 -4.5165,2.6567 -2.6566,5.5792 -4.7822,0.2656 -8.5016,6.6419 -10.3612,5.3135 -13.815,1.3283 -15.6748,10.3613 -5.5789,2.9224 -14.6122,11.9553 -10.8926,13.8149 v 4.5165 l -6.3762,3.4538 -4.2507,3.4537 -4.655,6.799 z"
     style="fill:#c12838;fill-opacity:1;stroke:#646464;stroke-width:0.64000005;stroke-linecap:butt;stroke-linejoin:round;stroke-miterlimit:4;stroke-dasharray:none;stroke-opacity:1"
     id="San_Jose_del_Guaviare,_Código_DANE_:_95001" />
  <g
     id="layer10"
     style="display:inline"
     transform="translate(-3151.0266,-5679.3162)">
    <path
       id="path8325"
       style="fill:none;stroke:#646464;stroke-width:3.73333335;stroke-linecap:butt;stroke-linejoin:round;stroke-miterlimit:4;stroke-dasharray:none;stroke-opacity:1"
       d="m 3191.9302,6557.0148 10.0025,5.8476 4.5306,6.5274 -5.2681,4.7409 0.527,8.429 6.3214,4.2144 -3.1605,5.7949 5.7948,7.3751 c 0,0 3.6875,2.6345 5.7945,3.1611 2.1072,0.5267 4.7415,0 4.7415,0 l 4.2144,8.9555 -5.2683,7.3755 5.7948,5.7949 4.7416,0.5267 7.3751,8.429 2.6341,-2.6343 4.2142,2.6343 -1.5802,6.3214 3.6876,6.3218 6.3214,-0.5269 5.2683,2.6339 -1.5804,4.2146 4.2146,2.107 2.107,5.7949 10.0092,3.6878 -3.6876,7.3751 2.1072,4.2144 -5.7947,4.2146 1.5803,3.6873 0.5269,3.1608 6.3216,0.527 0.5266,8.4286 6.3218,-2.107 3.6876,2.107 4.7412,-0.5266 6.3216,5.2681 1.5804,8.4288 3.6875,-2.1072 4.7415,1.0535 v -2.1074 l 4.7413,5.2685 5.2678,3.1603 4.2142,13.6973 5.2684,4.2142 -2.1075,12.6436 7.9022,6.3214 -3.1605,3.6878 6.8482,3.1606 3.1608,-3.6877 h 4.2141 l 3.1611,-4.2144 c 0,0 -1.0536,7.9021 -1.0536,10.0095 0,2.107 4.7412,3.6878 4.7412,3.6878 h -3.1609 l 1.5807,4.2142 -6.3218,8.9556 9.4826,4.2142 3.6878,6.849 3.1606,1.0534 -4.7412,2.107 c 0,0 1.0536,2.634 0.5268,5.2681 -0.5268,2.6341 -7.3755,5.7949 -7.3755,5.7949 l 6.3218,4.7414 0.5269,3.1608 h 5.2678 l -3.1606,5.7946 -1.5804,0.5266 -5.2681,3.6878 2.6341,0.5268 5.2682,6.8485 -1.5804,5.2681 4.7408,1.5804 3.6875,-3.6876 1.0537,0.5268 3.6878,0.5267 -3.1608,9.4823 4.1133,3.2169 -2.9799,4.4702 5.215,3.7252 2.2353,-3.3527 7.0775,0.7452 -4.0978,5.2149 1.8625,3.7251 7.4501,2.6076 3.3527,-1.4901 4.0976,1.4901 -1.8627,1.49 1.4901,3.3527 3.3528,-3.3527 1.8623,0.7449 -1.8623,2.9804 3.3523,1.4897 h 4.8427 l 2.6075,1.1176 -4.8426,4.47 h -4.0976 v 4.0976 h 4.8426 l 3.3526,1.8627 -3.7253,3.7248 3.7253,1.49 h 5.2152 l 0.3726,3.7253 2.6072,3.3523 4.47,-2.98 2.6077,4.8429 2.2351,-2.6079 2.6076,8.9402 h 6.7049 l 2.2349,-2.2349 h 5.9603 l -2.9801,4.4701 2.6079,7.8227 5.5873,1.8625 2.6077,-3.3527 4.8428,3.3527 4.8423,-1.4902 -1.49,4.8424 2.6074,2.6079 4.4701,-2.6079 0.7452,4.4704 -5.5879,3.3523 c 0,0 -7.45,1.49 -2.2348,5.9604 5.215,4.47 7.0775,4.8426 7.0775,4.8426 l 3.3525,-1.8625 1.1175,3.3522 8.5679,3.3526 1.49,4.4704 7.8226,-2.6077 -1.4903,-3.3529 2.6077,-1.49 0.3726,3.353 3.725,1.1172 2.6074,-3.3525 1.8624,2.6075 4.8429,-2.2352 1.4899,3.7253 9.3126,3.7252 -5.2148,-0.7449 -1.8627,3.725 1.8627,3.3522 0.3724,3.7252 -4.4702,0.3726 -0.3723,2.2348 -2.9803,2.9804 h -2.2351 l 1.1178,2.235 6.3326,-1.8625 1.8626,2.2349 -2.2351,3.725 1.1177,2.9802 5.5873,-2.2352 4.0974,4.8428 -2.2349,5.5876 3.3528,3.3523 2.6073,-4.4698 4.0974,1.8624 2.2353,-2.2349 1.1175,3.7248 -1.8628,2.6076 -4.8422,-0.3725 -1.4902,2.2351 10.0577,2.2348 h 3.3527 l 0.3723,1.1176 -3.3525,2.2349 0.3725,3.7255 7.4502,1.4898 3.725,-5.2153 4.4699,1.4905 5.2151,-4.0976 1.4901,0.3722 -3.7252,3.3526 2.6076,3.7252 h 5.2152 l 4.4702,4.0976 6.705,-2.6076 -1.8623,2.9802 3.3525,3.3525 -2.2353,2.2348 5.5877,2.6077 4.8425,-5.9601 4.8428,-0.7452 5.9601,-3.7248 0.7448,4.8422 h 5.9603 l 1.1173,2.9802 1.8625,-4.8422 -0.7449,-5.2153 6.7052,-4.4701 2.6075,7.0778 3.7252,-0.7454 3.7248,0.7454 2.9799,-5.9601 -2.6073,-5.2151 0.7448,-4.0978 5.5879,0.3725 -1.4901,4.8428 5.2153,2.6071 v -4.0974 l 4.4696,-1.1172 -3.3522,-7.8228 -4.0976,-1.1175 v -6.3326 l 6.3323,2.9799 0.7451,-7.8226 1.8625,-0.7449 0.745,3.7248 5.9601,1.1177 7.4502,-6.3325 1.1174,2.9801 4.0978,-10.0579 -2.6076,-4.0977 5.2152,-2.2348 v 4.0976 l 4.0976,1.4899 5.215,-5.5875 -1.8627,-2.6073 5.5875,-7.4502 -4.4698,-5.5877 2.235,-5.2152 2.6074,2.2349 1.4902,-2.6074 5.215,1.8627 -1.4901,4.0976 6.7051,2.6072 4.47,-3.7246 -1.8626,-1.4901 2.9802,-2.9803 0.7451,4.8428 3.7253,-0.745 1.1172,-3.3526 h 2.6078 l 1.4898,-4.4704 1.8625,-1.49 1.4899,4.4703 4.0978,-2.6078 4.4702,0.7451 v -2.9801 l -4.8426,-4.47 0.3724,-3.3524 4.8428,0.745 -1.8626,-3.3525 -6.7054,0.7449 -0.7451,-2.6076 3.7253,-3.725 3.7252,1.8625 5.215,5.215 2.9798,1.1177 v -4.4702 l -3.3525,-4.8425 0.7451,-10.8023 c 0,0 -2.9799,-0.7453 -4.47,-0.7453 -1.4899,0 -3.3526,-2.2353 -3.3526,-2.2353 l -6.7053,6.7052 -1.1174,-3.7246 0.7449,-4.4706 3.7253,-1.49 3.725,1.49 3.3527,-4.8425 -5.9603,-1.49 -1.1174,-4.8425 h -4.8427 l 0.7451,-3.3526 7.8226,0.3725 3.3527,-2.98 h 2.9798 v 1.8623 l 5.2152,2.6077 4.8425,-5.2153 -5.2151,-5.5873 -9.6849,-1.49 -3.3527,-10.4303 3.3527,-8.9403 2.98,2.2351 8.1952,0.7451 2.2347,-6.3326 -7.45,-4.0974 v -3.7253 l 3.725,0.3724 1.1175,2.2353 7.4503,2.6073 1.8625,3.3526 c 0,0 5.9601,-5.5874 6.705,-2.6075 0.745,2.9802 1.49,5.215 1.49,5.215 l 2.235,-7.0775 4.0978,-1.1174 v -5.5876 l -4.8427,-2.6076 -0.7448,-2.9802 8.195,1.4902 3.725,-4.4702 h 2.6074 l 2.6078,5.5879 4.47,-1.1177 2.235,0.3728 2.2351,-3.3529 10.8025,-1.1175 v 3.725 l -7.0777,4.0976 -4.8423,13.7829 7.8224,5.5877 2.6077,5.9595 5.5875,-1.117 7.0774,4.0973 6.3329,-6.7047 -2.6076,-5.2155 2.2352,-5.9599 8.195,1.8623 2.6075,0.7451 -0.745,-2.9802 -4.8427,-2.6073 2.9802,-7.4502 -1.1174,-4.8424 1.8625,-5.5877 7.4503,-0.745 1.8623,4.0974 10.2437,-0.3723 6.8913,1.4899 4.0976,-2.9799 3.3528,2.6072 1.1174,7.8229 1.863,1.4899 5.215,-4.8425 2.6072,-7.0775 -4.0976,-4.4703 2.6076,-5.5874 3.725,0.7451 4.0976,11.1749 1.8626,3.3527 0.745,9.3127 5.2151,2.6073 4.4701,4.8427 9.3128,0.3726 4.0974,2.6076 5.9599,1.49 2.9801,4.8424 -1.4899,5.5877 2.9802,3.725 2.9799,-1.4898 -0.3726,-5.9601 5.5877,0.7446 4.8426,6.3329 4.0978,1.49 0.3726,6.3324 12.6651,5.9604 h 5.5873 l 9.6852,6.3324 3.3523,4.4702 4.8429,-1.1177 0.7449,-2.2351 4.4704,-1.1174 3.3522,1.49 h 2.6077 l 4.4698,-6.705 3.7255,1.1176 3.7247,-0.745 2.6075,2.6075 4.4702,0.3726 0.3725,9.3127 6.3327,2.6073 2.98,0.7452 c 0,0 1.1176,2.9801 1.4902,4.4699 0.3723,1.49 11.5061,11.5064 11.5061,11.5064 l 0.7449,10.8028 9.3128,6.3325 h 5.2151 l 1.4898,3.7252 -3.7249,8.195 -5.9599,1.8623 2.2349,4.098 2.6075,1.1174 1.4901,8.9399 h 5.9599 l 2.9801,3.3525 4.4704,-2.2349 1.8623,7.8226 -3.3525,10.8028 -7.8226,8.5676 1.4901,2.9801 12.665,0.7449 5.9601,-5.9601 7.4502,-5.5875 6.7051,4.0975 1.4899,8.9403 -6.705,4.8425 4.0976,10.0575 7.0776,6.3329 -1.1175,3.7252 -4.8426,1.1172 -0.3726,6.3326 8.1952,8.9402 2.2349,5.5875 3.3525,2.9802 5.2154,-8.5677 v -2.98 l -7.8227,-9.3128 4.8425,-5.5874 7.8225,0.7449 5.2152,-2.6074 4.4704,2.6074 c 0,0 4.8422,7.0774 4.4696,8.5677 -0.3723,1.4898 -2.6074,4.47 -2.6074,4.47 l -6.7049,2.9802 -0.7452,8.1952 6.3327,9.6849 7.4501,1.8627 -7.8224,3.3525 -5.5878,-1.1172 -4.0978,1.4897 -0.7451,6.7051 10.4307,12.2925 1.4897,6.3328 7.4504,2.98 7.0773,5.9599 4.4701,-3.3524 -1.4899,-6.7051 -6.3327,-8.9401 2.9799,-1.8625 h 5.9606 l 5.9599,2.9798 5.215,11.9204 4.4702,4.8424 8.5675,4.0976 -0.3726,14.5279 -5.5875,5.9599 -0.7449,5.9604 5.215,4.4699 10.4302,4.8425 7.8224,-10.0575 1.4901,-7.8228 5.215,0.745 2.6076,5.5875 6.3327,3.7254 4.47,-5.2151 -3.1458,-4.9288 5.3707,0.2687 2.6858,5.1021 5.3703,5.9075 7.7873,-5.9075 -4.2967,-7.5191 5.9077,-1.8796 6.1761,4.0279 -2.6852,5.102 -0.2686,5.9076 9.6669,10.204 h 9.9355 l 4.8336,-2.9537 6.4446,3.7595 4.8335,9.6669 c 0,0 -1.0742,11.2783 -2.1482,11.5465 -1.0743,0.2688 -8.5927,-0.5369 -8.5927,-0.5369 l -1.8799,4.028 8.3243,3.2221 18.3012,-0.2707 8.8613,-6.9816 7.8585,0.541 135.3433,-141.204 7.7201,-1.0648 2.3958,1.0648 7.9863,-2.6621 2.396,-3.7269 -0.7986,-2.6622 2.9283,-3.4607 3.4607,-0.2662 2.3959,-12.2457 -3.9931,-2.9283 v -4.5257 l 3.4607,-3.1944 v -1.5973 l -2.6621,-1.8635 2.6621,-2.1297 h 2.9283 l 12.7781,-11.7133 v -2.6621 l 3.1946,-2.6622 h 2.9283 l 2.1297,1.8636 3.7269,-0.2662 0.2663,-1.8635 3.4607,-2.6622 h 5.058 l 2.9283,4.5257 2.396,-2.1297 6.9215,2.1297 -1.3311,3.1945 3.1945,4.5256 h 3.727 l 1.331,1.8634 h 3.9932 l -0.2662,-2.1297 5.3241,-1.8634 2.6622,1.8634 1.331,-2.3958 3.1946,-0.2662 -2.1297,-4.5256 3.1945,-1.5973 2.6621,1.8634 10.1161,-11.9795 -2.9284,-3.993 3.727,-1.5974 3.1945,-7.4538 5.3242,-3.4608 0.7987,-3.727 6.389,-1.5972 0.5325,-4.2594 7.4539,-1.3311 0.2662,-2.6621 5.058,-3.1945 -4.5256,-3.4607 1.3311,-3.727 5.3241,-0.2662 -1.8634,-3.9932 1.0648,-2.1297 3.9932,0.2662 4.5255,-1.331 -2.3958,-2.9284 3.4607,-2.9283 v -3.1944 l -4.5255,2.3958 -2.6621,-4.2593 2.9283,-5.5905 -2.1297,-1.8635 -4.5256,-1.8634 1.331,-3.4607 4.2594,-0.5325 1.331,1.8634 2.9283,-2.3958 -2.662,-2.6622 h -4.2594 l -2.1296,-4.5255 7.4538,-2.9283 1.8635,3.7269 4.7918,-2.1297 5.8566,4.7918 1.3311,3.727 7.1877,1.0649 3.9932,-3.7271 -8.2526,-9.3173 -5.8566,-8.785 v -6.3891 l 7.9863,-4.5255 8.2526,-0.2663 2.9282,3.1946 -5.0579,6.9215 0.5324,9.5835 2.6621,8.5188 10.6485,7.1877 6.1228,4.2594 8.5188,-1.3311 6.9214,-3.9932 -2.3959,-4.7917 -2.3959,-6.6553 -3.9931,-3.4608 h -5.5905 l -3.1945,-3.7269 1.5973,-3.727 -2.1297,-2.662 1.5972,-4.7918 -1.331,-3.7271 -3.9931,-0.5323 2.1297,-2.6621 -0.7988,-3.4608 h -7.7201 l -4.2593,-4.2593 2.9284,-0.2663 1.0648,-6.6552 -4.7918,-1.065 3.727,-2.9282 -3.1946,-5.3243 -4.5257,2.1297 -1.0647,-2.662 -5.3243,1.331 -2.1297,-3.9932 2.9283,-1.5972 -1.3309,-1.5974 1.3309,-3.7269 3.4608,-1.0649 v -5.058 l 3.4607,-2.6621 -3.4607,-2.6621 -0.7986,-3.1945 2.3959,-1.331 -1.0649,-1.8636 h -3.9932 l 0.7987,-2.6621 h 3.4608 l 1.5972,-2.662 -4.2594,-1.5973 v -7.1877 l -3.727,-1.3311 v -2.9283 l 3.727,-1.3311 1.8635,3.1946 3.9932,1.3311 0.2661,-1.5973 5.5906,-0.2662 2.1296,-2.1297 -4.7819,-7.1108 4.8942,-2.6355 -3.0119,-3.7647 3.3883,-4.8942 h 4.8943 l -3.3884,-8.2826 8.2826,-7.906 -2.6353,-3.0119 5.6471,-3.0118 -1.5059,-3.3883 0.3765,-7.9061 3.3883,-4.1412 3.7648,0.3764 v -4.8942 l 4.8943,-0.753 -2.6354,-4.1413 4.5177,-9.7884 5.6472,-3.7648 -2.6353,-2.6354 2.2589,-9.0355 -3.3884,-3.7648 1.8824,-5.6471 -7.5296,-5.6472 2.6355,-3.3884 2.6353,0.753 13.9297,-7.5296 5.2707,-10.9179 2.2589,-4.1412 -3.3883,-3.0118 -1.5059,-4.1414 4.1412,-1.5059 v -6.0237 l 7.906,-11.6708 -1.8823,-1.8823 v -4.1414 l 1.8823,-2.6353 -0.3764,-3.0118 -7.1531,-3.0119 1.1294,-2.2588 4.5178,-1.506 1.1294,-5.2707 -0.753,-5.6471 3.0119,-2.2589 4.5177,3.3883 -2.2589,4.5177 5.2708,2.6353 1.5059,-6.4001 4.8943,1.1295 5.2707,-5.2707 -5.2707,-3.0119 9.7884,-2.6354 5.6472,-10.9178 -5.6472,-1.1295 -0.3765,-5.6472 4.5178,-6.0237 -1.8825,-20.7063 7.5296,-6.7766 -5.2707,-25.2241 -3.7647,-5.6472 9.412,-9.0355 -0.3766,-7.9061 7.5296,-7.5295 7.5296,2.2588 v 7.9061 l 5.2707,2.6353 8.659,11.2944 9.4121,-3.7648 13.5532,4.1413 -4.1413,3.7648 9.412,6.0236 5.6472,9.0355 11.2944,-0.753 4.5177,8.2826 4.5177,-3.0118 8.6591,2.2588 0.3765,-7.906 13.9297,-10.9179 2.259,-8.2825 9.7884,-1.8825 0.3764,-7.5296 20.3298,-19.2004 11.2944,-3.0118 3.0118,1.8824 5.2708,-6.7766 h 7.1532 l -1.1296,-8.6591 h 5.6473 l 3.7648,-3.0117 2.2589,3.0117 11.6709,0.7529 3.3881,-6.0235 -5.6471,-5.6473 3.7648,-3.0118 7.1532,3.7648 4.5177,-7.906 3.0119,-1.506 0.7529,9.7885 7.1531,-6.0237 5.2708,-0.3765 1.5057,-8.659 4.5179,-1.1295 v 6.4002 l 8.659,1.1294 4.5178,-4.1412 -2.2591,-4.1413 6.0239,3.3883 1.1294,-4.5177 5.2706,-1.1295 1.1296,4.1413 6.4,-3.0118 -1.1293,-6.4001 4.8941,4.1412 3.7648,-7.906 8.2826,1.1294 16.565,-13.5533 -3.7648,-3.3883 6.4002,-5.6471 4.5179,0.3764 0.753,-6.0237 6.7766,-3.3883 4.5175,2.6353 4.5179,-2.2588 -3.0118,-4.8942 5.2706,-3.7648 v -8.2826 l 5.2708,-2.2589 -3.0118,-7.5296 8.659,-4.8941 5.2706,3.3882 -3.3882,2.6354 2.6354,3.0119 h 4.5176 l -0.7528,8.659 h 4.1411 l 3.0119,-3.0119 4.1412,2.2589 -0.7528,-4.5178 6.7766,-3.3882 3.0118,6.0235 6.4002,2.2589 3.3882,-3.0118 1.506,1.8824 9.412,-1.8824 v 3.3884 l 8.6591,0.7529 -5.2709,-5.6472 6.4003,-2.6353 5.2706,6.0236 3.3883,-5.6471 -2.2587,-3.3884 4.8942,-2.6353 10.5414,4.1412 -4.8943,4.1413 4.5177,4.1413 9.4119,0.753 3.0118,-3.0119 -4.5175,-3.7648 7.9059,-3.0118 2.6354,3.3884 6.7767,0.3764 v 3.7648 l 12.8002,-1.1295 -3.3882,3.7648 5.6472,2.6354 3.3882,-1.5059 v 5.2707 l 4.5178,-2.2589 1.1294,-4.1413 5.2708,2.6354 6.0236,-2.2589 -0.753,-3.7648 7.1532,0.3764 0.3764,5.6473 10.5415,0.753 4.8942,-3.0119 -5.6473,-4.1413 6.0238,-5.2706 7.1531,3.0117 -4.1413,-5.6471 5.2706,-2.2589 3.0119,1.8824 v 4.5178 l 6.0238,-3.0118 v -4.8943 l 8.2823,-4.8942 4.1415,0.3764 -1.5061,4.8943 6.7767,3.0118 -0.3765,-4.5177 8.2827,1.1294 0.3763,-4.8942 7.1533,-2.6354 1.5058,2.6354 9.7884,-4.5178 v -6.0237 l 3.7648,-1.8824 1.1294,4.8943 7.9062,-4.1414 4.5178,1.8825 -4.5178,8.659 5.6472,1.1295 0.3764,-6.4002 9.0356,1.5059 4.1412,-3.3883 -3.3884,-4.8943 4.8943,-4.1412 2.6353,4.1412 9.0356,-1.8823 3.7648,-6.0237 -4.5178,-3.3883 2.6354,-7.1531 4.1413,1.8824 h 7.9059 l -0.3763,-9.412 4.8942,-1.8824 1.1293,7.906 12.0474,4.5178 7.5297,-3.3883 -3.3885,-2.6354 -1.5058,-4.1412 6.7767,-2.2589 6.0235,4.5178 -1.8823,3.7648 6.0236,3.0118 2.2589,-2.2589 4.5179,-1.8824 -6.4002,-5.6472 4.1412,-5.6471 8.2826,0.7529 -1.1294,7.1531 1.8823,6.0237 3.0119,-1.5059 7.1529,5.2707 -1.8823,-6.0237 5.2708,-4.1413 6.0236,1.5059 4.1412,3.3884 -1.5058,-6.7767 h 6.4002 l -2.259,-5.2707 7.1532,-5.6471 6.4,8.2824 1.1296,-6.4001 13.5533,2.2589 7.153,-9.412 h 4.1414 l -1.1294,6.4001 8.2824,-2.6353 -3.7648,-5.2707 4.5177,-3.3884 3.3885,2.2589 -1.8825,3.7648 8.2825,-1.1294 -1.5058,-3.3883 5.6471,-3.3883 6.1104,0.4425 v 7.4538 l 12.2457,4.2594 -2.6622,-6.3891 4.7919,-3.1945 7.454,5.8567 5.324,-4.2594 v -11.1809 l 5.8567,4.2594 7.4539,-5.8566 -7.4539,-8.5188 9.5836,-10.116 3.1946,9.0512 10.6484,-6.9215 6.9215,1.5972 7.0249,-5.5748 -2.0664,-3.0058 6.9506,-6.9507 -9.017,-1.8786 2.63,-4.1329 -4.5088,-3.5693 4.321,-1.8786 1.8785,-4.3208 5.6357,4.6965 5.2601,-3.3815 -1.7126,-4.5974 -4.9919,-1.6829 -0.2658,-3.7193 1.8597,-1.5942 4.5164,3.9852 1.5942,-1.0627 5.0478,2.1253 1.5939,-2.1253 -2.6567,-3.4538 4.2507,-4.2508 3.7194,2.9225 1.3284,-3.1882 7.4388,-2.1253 -0.2657,-2.6567 2.3912,-3.9851 -1.8597,-1.594 -0.2658,-2.9225 5.0478,-0.797 2.9225,2.1254 2.391,-1.3284 3.4538,2.391 4.7821,-0.797 1.3284,-8.5015 -4.2508,-0.797 v -2.3911 l -3.1881,-1.3283 0.5314,-1.0627 h 3.4537 c 0,0 -2.1254,-1.3284 0.797,-2.6568 2.9224,-1.3283 3.9851,-1.8597 3.9851,-1.8597 l 0.797,3.9851 2.9225,1.5941 -1.5939,2.6567 3.1879,0.797 1.3283,-2.1254 3.7195,-1.3283 0.2658,-2.3911 -3.9853,-1.3284 v -3.188 l 4.2508,-3.4538 -1.3283,-2.9224 2.391,-1.594 0.2657,-2.1254 1.8597,-0.797 2.6567,3.7194 5.8448,-6.6418 -5.5791,-1.3284 -1.0627,-2.6567 2.6567,-0.2657 1.1292,-5.4463 -4.5829,0.1328 -1.8598,-2.6567 -11.6896,-1.8597 -2.6567,-5.3135 4.5165,-6.3761 -2.1255,-3.9852 -2.9223,-0.5313 -0.2657,-3.188 1.594,-4.5165 -3.7194,-2.391 -5.3134,5.0477 -0.2658,-1.8597 0.2658,-3.188 -3.9851,-0.7971 -3.1882,-4.2507 5.048,-4.7821 -1.8598,-6.1105 -4.5165,0.797 -5.3135,-0.797 -5.3133,4.7821 1.594,6.1105 -3.7195,5.8448 -5.3135,2.391 v 2.9225 l -5.3133,-1.5941 -7.439,2.3911 -3.9851,-4.5165 -5.8448,2.6567 -7.4388,-1.3283 -7.7046,-6.1105 -0.797,-2.391 -6.3762,1.0626 -0.5313,6.3762 8.5016,2.391 2.1253,2.6568 -5.3133,3.7194 -0.797,4.5164 -4.7823,-1.3283 v -8.2359 l -3.7192,-2.1254 -0.2659,10.8926 -1.0627,1.3283 0.2657,5.3135 -5.5792,-3.985 -3.7193,3.4537 -4.5165,-2.391 -1.594,-6.6418 -5.3135,-0.5314 -1.5941,1.8597 5.0478,4.5165 0.5315,4.7821 -7.7045,4.2507 -2.9225,-3.7194 -2.1253,-3.1881 -6.642,4.5165 -3.1881,-3.7195 -3.7192,-4.7821 -4.7823,3.9851 -2.9222,-2.9223 -7.1734,-0.5315 -2.1252,-2.391 3.1881,-4.2508 8.7672,0.2657 0.5312,-4.7821 -3.1879,-2.1254 -9.5644,1.594 -4.2508,3.4538 -0.5312,6.6418 -4.2508,0.5313 -1.8597,3.7195 c 0,0 -7.4388,-1.594 -8.5015,-2.6568 -1.0629,-1.0627 -6.6419,-5.3134 -6.6419,-5.3134 h -5.8448 l -1.5942,2.9224 7.439,5.3135 3.4538,5.3134 0.797,3.9852 -8.236,6.1104 -1.8596,3.9851 -4.2507,2.9224 -6.3763,-5.3134 2.6568,-4.2508 h 3.985 l 2.9225,-1.0627 -3.188,-2.9225 -2.9225,-0.2656 -0.797,-6.9075 -2.1255,-2.1254 -1.8596,1.8597 1.0625,7.9703 -1.8595,0.2656 -3.4537,-1.8597 -5.5793,-0.2657 -2.391,-5.5791 0.7969,-4.2507 -2.9222,-1.0628 -4.7823,3.9851 -2.3909,6.1105 h -5.8448 l -5.0478,-6.3762 -6.6418,-0.5313 -4.5165,-5.8448 -1.594,-7.7045 -4.7823,-2.1254 -1.0625,6.1104 -6.9076,4.2508 -2.3912,-2.391 1.0627,-6.6419 -5.8448,-1.8597 -9.0327,8.5016 -13.2837,1.8597 -3.7194,3.7195 7.7045,2.6566 -0.2658,2.9225 -3.4538,0.2657 -3.7192,3.985 -2.3913,-0.797 v -5.3135 l -4.2508,0.797 -9.564,5.8448 -13.815,-4.782 -2.3911,-5.8448 3.9851,-5.8448 6.1105,6.1105 5.3135,0.5313 2.1253,-5.8448 -3.188,-2.1255 h -4.7821 l -6.642,-3.985 2.6567,-7.1733 -4.2508,-3.4536 -3.1879,4.7821 -0.797,4.782 -4.5166,0.5315 2.391,5.3133 -5.3133,5.8448 -2.6567,-1.594 3.188,-6.9074 -0.797,-1.8597 -4.5166,-0.5314 -2.9222,-5.3134 -5.8448,-2.3911 1.7439,0.6931 -4.8843,-4.5086 -4.8844,-1.1272 -1.5028,-3.0056 -3.0057,1.8785 -4.8844,-0.7514 -1.8787,-3.0058 -3.3815,3.7572 -2.2543,0.3757 -1.8785,-2.2542 -1.8785,-0.3758 -4.133,0.3758 -6.3873,-1.8787 -3.3814,-6.3872 -3.0056,-1.5029 h -4.133 l -5.6358,-4.1329 0.7515,-7.8901 -5.26,-10.1444 c 0,0 0.3757,-1.8786 0.7512,-3.7572 0.3758,-1.8786 -0.3755,-6.0115 -0.3755,-6.0115 l -4.133,-2.63 -6.0116,-7.8901 -0.3756,-4.5086 h -2.6301 l -3.0058,-6.763 -0.7514,-7.89 -4.8843,-1.8786 -4.8843,-6.0115 1.1271,-1.8787 -4.1328,-5.26 6.0115,-1.5028 -3.0058,-3.7573 -1.503,-3.0057 -6.7628,-1.1272 -0.7515,-4.5086 -7.1387,-3.7572 3.7572,-4.1329 -5.26,-6.3872 -3.7573,0.3758 -3.757,-6.0115 -4.5088,1.1271 -1.8785,-4.5086 -3.0058,-0.7514 -0.7514,-5.6359 -5.6358,-2.2543 -1.127,-5.26 c 0,0 2.2543,-1.5028 2.2543,-3.3815 0,-1.8786 -3.0058,-9.3929 -3.0058,-9.3929 l -3.7573,-1.8786 -1.5027,-3.0058 -7.5146,-3.0057 -11.2715,5.26 -1.8786,5.2601 -5.2599,3.7572 -2.6301,-5.6357 -6.0115,1.8785 -0.3757,-1.8785 -4.5086,-1.1273 -2.2545,-2.63 -1.8785,1.5029 -7.1386,-0.7514 1.1271,-6.0115 -2.63,-2.2543 -0.7515,-6.0115 -3.7571,-1.8787 -1.1272,-4.1329 -6.0115,-4.1329 -5.26,3.3815 -4.8843,-2.2543 v 3.7572 l -7.5145,0.3757 -6.0115,3.0057 h -3.0056 l -3.7572,-8.6414 -6.3873,-3.0058 -5.6358,-10.5201 -3.3815,-3.3816 1.503,-2.6299 -2.8179,-5.4479 275.2138,-114.0306 -9.7316,-2.4746 -16.7374,-13.2837 -5.5792,-1.8598 -9.2986,-1.594 -5.5791,-11.4239 h -3.1883 l -5.5789,-5.0478 -7.1734,2.3911 -5.0478,11.4239 1.5943,2.9224 -7.7046,13.2836 -4.5164,-1.0626 -6.6418,-6.1105 -0.7971,-10.3613 -5.0477,-18.0658 -11.424,-3.4536 -4.5166,4.2506 2.3912,7.1733 11.4239,9.5642 1.8597,7.7046 -2.9225,11.4239 -5.0478,2.391 -3.4538,6.1105 -4.7819,1.0627 -5.8448,-0.797 -2.6568,3.9851 1.594,3.7194 -7.7045,5.3134 -11.9553,11.6897 -8.2358,-1.8597 -1.8598,-6.1105 2.6568,-7.9702 1.0627,-7.4389 -2.1254,-9.0328 -3.1881,-2.1255 -3.9851,0.7971 -6.6418,6.3762 -2.3909,5.5791 -11.6898,5.3135 -7.4388,-0.5314 -11.4238,3.4538 -10.8928,1.8596 -3.4536,-3.4537 0.2655,-3.4537 7.1732,-1.3284 6.1107,-5.3135 c 0,0 -0.5316,-8.7671 -1.5943,-9.5642 -1.0626,-0.797 -6.6418,-8.2359 -6.6418,-8.2359 l -14.8777,-2.391 -5.5792,5.5792 -11.158,9.5641 -2.6568,5.5792 -4.7823,3.4538 c 0,0 -4.5162,-1.8598 -4.5162,-2.9225 0,-1.0627 -1.0629,-4.5165 -1.0629,-4.5165 l 7.1732,-10.6268 -0.2655,-5.3135 5.0476,-5.8448 -0.5314,-9.2986 -13.5493,-7.9701 -3.1881,3.985 -0.5312,6.1105 8.2358,9.5642 -0.797,3.7195 -0.2657,5.8448 -6.6419,6.1105 -6.1105,-3.4538 -5.5791,-9.5642 -4.7819,-17.2687 -4.2508,-7.9703 -4.5166,-1.0627 h -6.1105 l -6.6418,5.8448 0.797,6.9075 6.9076,6.1105 2.1253,6.9075 -1.5941,10.0956 -6.6418,6.1105 -5.8448,1.0626 -6.6417,-4.5163 -1.594,-7.1733 7.4388,-8.7671 1.3282,-8.236 -6.376,-6.3761 h -4.7823 l -6.6418,4.7821 -5.3133,3.1882 -4.7823,-0.7971 -3.7192,-2.9224 -3.1883,-6.9075 -2.1252,-1.594 -1.3285,-3.7195 -6.6419,-1.594 -5.5789,6.9075 -3.9853,0.3985 v -1e-4 l -3.3209,7.4389 0.2657,7.3059 -3.8521,8.236 -6.7747,-7.5717 -5.8447,-3.4538 -0.5316,-6.2433 7.0405,-1.8597 3.0551,1.9925 6.2434,-4.7821 c 0,0 -0.2658,-3.188 -1.0628,-3.9851 -0.797,-0.797 -7.7045,-1.594 -7.7045,-1.594 l -7.5717,-1.4612 -3.4537,-3.8523 0.5315,-6.7747 -3.8525,-6.2433 -4.3737,-1.9644 -4.9057,2.0157 -3.4227,3.9218 -6.1869,1.8303 -5.6604,-2.0917 -4.2124,-6.7979 -0.9216,-3.5298 -4.2123,-4.4447 -2.8959,-2.6146 -3.4226,0.1304 -1.4481,2.6147 2.1063,3.3989 1.5796,6.4059 -6.4501,4.5754 -5.7924,2.0917 -5.9233,-2.3531 -2.3696,-4.7063 0.2633,-6.0136 -4.1466,-5.8829 -2.6985,-1.4381 h -4.2124 l -1.5796,2.3533 0.7898,4.1834 -2.8959,3.9218 -11.5842,0.2614 -7.6685,4.0575 v 3.9219 l -3.9491,5.7521 -7.3716,1.8302 -3.4226,-1.3072 -2.6328,3.399 -3.949,-0.2615 -2.3695,-4.9678 1.5798,-5.4906 -2.896,-4.1834 -5.5289,-0.2614 -5.5286,3.399 -4.2125,7.5823 -5.792,0.7844 -7.635,-5.7522 -1.8428,-7.5823 2.8958,-8.3667 -2.3693,-8.6282 -11.8472,-6.275 -7.6352,1.0457 c 0,0 -1.3163,7.0595 -1.3163,8.8897 0,1.8302 3.9492,8.1053 3.9492,8.1053 l -1.5797,9.1511 -4.4757,6.798 -2.8958,1.0458 -2.1062,4.7063 -3.686,3.399 -5.002,-0.7845 -3.1595,-3.9218 6.3187,-8.6281 -2.896,-6.7981 -9.4779,-2.8761 -3.4226,2.6146 -5.5288,2.6148 0.5266,2.876 4.2125,3.3988 v 2.6148 l -3.4228,6.7979 c 0,0 1.0531,4.1834 1.0531,5.7521 0,1.5688 -7.3716,4.1834 -7.3716,4.1834 l -4.7389,-2.6146 v -2.3532 l -5.792,-7.5823 -18.9557,-7.5824 -1.5297,-3.5415 -11.9143,-9.2442 -2.2339,-3.1428 -3.351,2.0336 c 0,0 1.1169,4.0675 0.9309,4.8069 -0.1862,0.7394 -0.9309,3.5128 -0.9309,4.622 0,1.1093 3.7232,10.1683 3.7232,10.1683 l -3.1648,7.2105 -6.1433,1.479 -5.7709,-2.9581 -2.2342,-7.58 -13.0312,-5.1767 -8.1912,0.3697 -3.7233,0.185 -2.4201,4.2522 -3.7233,5.9161 -7.0741,0.3698 -3.1648,-1.8488 -3.537,-2.9581 -11.3559,-3.5127 -3.9095,2.0337 v 3.6976 l 6.5157,3.143 1.1169,6.6556 c 0,0 -2.9785,4.9917 -3.7231,4.9917 -0.7448,0 -5.7712,0 -5.7712,0 l -9.308,-3.5126 -10.2391,3.6976 h -2.0476 l -6.1434,4.4371 3.5371,4.0673 -1.4893,7.7651 -4.2818,0.7395 -5.3987,-3.6977 -3.351,1.1092 -11.5419,-2.2185 -4.4681,-2.0336 2.6062,-6.8405 5.5849,-5.9163 2.6064,-6.2858 -0.7446,-8.8743 -7.4467,-3.143 -7.2601,2.2186 c 0,0 -2.7925,4.8068 -2.7925,6.101 0,1.2943 2.4201,7.765 2.4201,8.6894 0,0.9243 -7.0742,7.3953 -7.0742,7.3953 l -7.2604,-3.5128 -4.4679,-5.1767 -6.8881,-3.3278 -6.1433,-5.3616 -6.1432,-12.9415 -10.7976,-8.3196 -6.5157,1.294 -0.9307,6.8407 8.1912,12.387 -2.2341,7.5799 -2.9785,11.2778 -6.3295,7.765 -4.4679,4.6221 -5.0264,-5.1767 0.5585,-7.5801 4.8401,-11.4626 -2.7924,-8.3197 -8.3774,-4.8068 -10.9836,-3.143 -3.537,-1.2941 -5.3987,2.5883 -7.0741,1.4789 -3.351,-0.3697 -2.9787,4.6222 4.0956,1.294 6.3295,-2.0337 h 4.8403 l 4.8402,3.6976 v 8.8743 l -6.1433,9.4289 -4.0956,-2.4034 -9.4944,-1.8488 -14.8929,3.143 -19.3609,5.5464 -10.7975,1.8487 -10.4251,-2.9581 -2.6063,-1.8488 -12.4729,3.5127 -5.9572,5.1768 -3.7233,7.9498 -4.0955,4.9917 -2.4201,-2.9581 0.1861,-4.8068 -2.9785,-7.2103 -8.9359,-5.1767 -13.2175,2.0336 -12.8453,7.2105 -10.2389,0.3697 -11.7282,-5.5464 -10.6114,-7.5801 -3.3508,-4.0675 1.3031,-5.3614 -2.234,-4.807 -5.2125,-5.916 -0.7447,-4.9918 -6.3295,-6.1011 -8.3774,-1.8488 -3.9093,4.4371 1.3031,7.2103 -5.3987,5.1767 -6.888,-1.2942 -11.542,-6.1011 -10.7976,-0.5546 -6.888,13.4963 -2.7925,6.6556 3.7233,9.6138 c 0,0 0.1862,8.8744 0.1862,9.6139 0,0.7395 6.1433,4.2521 6.1433,4.2521 0,0 0.3725,4.4373 0.9309,5.1767 0.5585,0.7396 3.3509,0.1851 3.3509,0.1851 l 2.4202,5.3613 -2.4202,5.3616 -5.0263,5.9162 -5.3988,0.5547 -11.3559,-6.4709 -5.9572,-5.9162 -0.3723,-3.6975 -3.1649,-4.8071 -5.771,-3.8824 0.3724,-5.1767 -2.6063,-2.9579 -8.7496,-0.1851 -5.585,3.8827 -0.1861,8.5044 c 0,0 5.3987,7.5801 5.7711,8.3196 0.3722,0.7396 -7.4466,7.2104 -7.4466,7.2104 h -5.771 l -2.6062,2.5884 -3.9096,-0.3699 -6.5156,-7.5801 -0.5585,-6.2861 -4.4678,-1.8486 -7.2604,1.4792 -9.8667,5.3613 -9.308,2.7733 -3.9095,5.1765 -6.1433,11.4627 -11.5421,13.1264 -11.5422,4.4372 -2.6062,4.622 -3.9093,-4.0673 -6.5157,-1.8488 -6.7019,-4.622 -4.2818,4.437 -5.9573,0.7396 -7.4465,-1.1093 -4.2817,2.9581 0.3724,4.0674 5.0264,5.1766 -1.1171,7.3953 -2.7924,8.3195 -6.8879,4.0674 -8.5636,-2.9581 -11.1174,-0.3017 -9.0615,-3.039 -11.0034,-4.3331 -3.5772,4.0673 2.824,3.3278 -2.0563,7.3573 -5.8364,3.5126 -5.8364,-4.8067 -5.369,1.4487 -5.5915,8.8894 2.6627,4.9676 10.6504,1.8303 -2.9289,7.3204 -6.6565,0.7845 -5.8578,-2.6145 -6.1238,6.2749 v 6.0132 l 2.3963,3.3991 1.3311,10.7194 -0.5324,6.0135 2.1301,5.7519 -6.9228,4.4445 h -4.5264 l -1.8638,-5.229 4.2602,-7.0591 -0.7989,-8.105 -10.9166,-8.105 -11.7155,4.1832 -7.4553,9.1509 -4.5264,2.3531 -0.2663,4.7059 3.7277,9.6738 -6.6564,8.1051 -8.2542,-4.7063 -0.7988,-8.6277 2.9288,-5.752 -1.8638,-8.1051 -10.1178,-8.1048 -9.3191,-0.2616 -11.4493,10.1967 -3.7276,13.5954 -11.7154,11.7654 -14.9105,-2.3531 -6.9653,-7.2195 -9.2999,-2.1173 -5.2716,-6.2856 -1.1297,-6.2858 -8.284,-5.5462 -7.5309,0.7396 -12.0498,9.6134 -4.5185,0.3698 -9.4138,10.3528 -5.6482,3.3278 -3.389,-0.3697 -5.2716,2.2185 h -3.389 c 0,0 -1.5062,7.3949 -4.142,7.3949 -2.6359,0 -6.4014,0 -6.4014,0 l -6.0247,-2.9579 -3.7655,4.4368 2.2591,9.6135 -4.8949,7.0253 -7.531,6.6555 -8.6607,-0.3699 -4.5185,5.1766 -3.3891,7.0253 3.0124,4.8066 h 4.8952 l 2.2593,-3.6974 h 6.4014 l 3.3889,8.1344 2.2593,2.9581 0.3764,5.5461 -1.8827,5.9161 c 0,0 -7.1543,-0.37 -8.6606,-0.37 -1.5063,0 -5.6482,-4.8065 -5.6482,-4.8065 l -2.6359,-5.1765 -4.8952,-0.7395 -4.1418,5.5461 -0.7533,8.1346 2.6359,3.6974 3.0125,0.7395 1.5062,2.2185 -2.2595,2.5882 -4.8951,-0.7394 -2.2593,-2.9579 -7.531,-0.7397 v 3.3278 l -6.4012,5.5463 -7.5309,4.0672 -7.531,5.5461 -6.8276,8.3149 -3.1951,-0.7843 -0.5324,-10.9811 -4.7928,-3.6604 -4.2603,1.3074 -0.5325,4.9675 -5.0589,0.2614 -4.2601,-2.6144 -4.2602,3.6602 -0.2662,6.7979 -5.8578,1.5687 -10.3842,10.7194 -6.3901,6.0134 -3.9941,1.0459 -1.3313,-8.8893 -3.195,-6.2749 -6.3904,-1.5689 -6.6564,5.2293 v 3.9216 l 11.1829,6.5363 -2.9288,4.9676 -6.9228,0.7844 -3.4614,-0.5229 -2.13,3.3988 c 0,0 -6.6566,4.9676 -8.5203,4.4447 -1.8639,-0.5228 -5.8579,-2.876 -5.8579,-2.876 l 1.5977,-9.6738 2.6626,-5.4904 -3.1952,-5.7519 -11.9819,4.7061 -5.0588,6.5362 c 0,0 -6.3904,1.5689 -7.7216,1.5689 -1.3314,0 -6.3901,-2.876 -6.3901,-2.876 l 4.26,-8.6279 -3.1951,-2.876 -4.2602,1.5687 -2.3962,7.0593 -6.1242,3.1374 -4.2601,-1.3074 -5.5914,3.399 -11.1829,0.5229 -1.5977,2.6145 4.2603,5.229 10.118,-2.3531 4.26,1.5687 -1.0652,2.0916 3.7278,6.5362 -5.5914,6.0136 h -4.7928 c 0,0 -0.7987,-3.3989 -2.3964,-4.4448 -1.5974,-1.0457 -7.9878,-2.0917 -7.9878,-2.0917 l -9.5853,4.9677 -7.9878,8.3664 h -5.8577 l -7.7216,-12.5496 -5.3252,-3.1373 -4.7926,1.3071 -2.1301,4.4448 3.4613,5.7519 -4.2602,7.8436 -8.7865,2.6145 -3.7277,1.8301 -2.9288,-2.3531 0.7987,-5.4905 7.1891,-3.1374 1.8638,-11.5039 -4.7926,-2.6145 -1.3315,-3.3989 -7.9877,1.5689 -6.6565,3.3988 3.4613,2.6143 v 8.1052 l -2.1301,3.9217 v 6.2749 l -7.4552,2.353 -6.9227,-3.3988 0.7986,-3.3988 5.059,-3.6605 0.7989,-5.7519 -4.7928,-3.1374 -12.2481,-1.0458 -6.3902,4.9676 1.3315,4.1832 -2.3964,8.1051 -3.9939,2.353 -6.6566,-3.6602 1.5976,-7.0593 c 0,0 5.8578,-7.8436 5.8578,-8.8894 0,-1.0459 -1.5976,-7.5821 -1.5976,-7.5821 l -2.3963,-3.3988 -1.5976,-7.0593 -4.5265,-0.2615 -5.5914,3.1376 0.2663,7.0591 5.5914,8.8894 -1.3315,7.5821 -5.0587,4.4446 -4.5265,-2.6145 0.2662,-8.3666 -7.4552,-4.9673 -7.7215,4.4445 -5.059,-2.3531 -5.8576,1.0459 -4.5265,5.752 2.6626,2.8759 v 4.4448 l -3.7277,2.3529 -4.7926,-1.3071 1.3312,-5.4906 1.8637,-3.1374 -2.3963,-9.1507 c 0,0 -3.7275,-4.4448 -3.7275,-5.7521 0,-1.3072 2.13,-10.1965 2.13,-10.1965 l -7.9878,-1.046 -2.3964,2.0918 v 4.4447 l -4.7927,3.3988 -6.3903,1.5686 -3.4614,3.6605 -1.5975,4.4445 -4.7927,3.1374 -9.5854,-1.83 -3.195,-8.3665 3.9938,-1.8302 c 0,0 0.7987,-7.5822 0.7987,-8.6278 0,-1.0458 -5.3252,-3.6604 -5.3252,-3.6604 l -1.8637,2.8761 -6.9229,4.7061 -10.1178,0.7843 -1.3313,4.4446 -7.1892,3.9219 -1.5974,3.1374 3.7276,4.9676 0.7989,3.3988 6.9227,1.3074 2.6626,3.9216 -5.059,6.2748 -6.3902,-0.5228 -3.7278,6.0134 -0.5325,8.8892 5.5915,4.7063 -0.2662,3.3989 -5.8577,6.2748 -5.3253,-0.2616 -4.3779,-4.9604 -1.539,435.0053 z" />
  </g>
</svg>
