<?xml version="1.0" encoding="UTF-8" standalone="no"?>
<svg
   xmlns:dc="http://purl.org/dc/elements/1.1/"
   xmlns:cc="http://creativecommons.org/ns#"
   xmlns:rdf="http://www.w3.org/1999/02/22-rdf-syntax-ns#"
   xmlns:svg="http://www.w3.org/2000/svg"
   xmlns="http://www.w3.org/2000/svg"
   width="2576.3564"
   height="2443.4099"
   id="svg2"
   version="1.1">
  <defs
     id="defs4" />
  <metadata
     id="metadata7">
    <rdf:RDF>
      <cc:Work
         rdf:about="">
        <dc:format>image/svg+xml</dc:format>
        <dc:type
           rdf:resource="http://purl.org/dc/dcmitype/StillImage" />
        <dc:title></dc:title>
      </cc:Work>
    </rdf:RDF>
  </metadata>
  <g
     id="layer3"
     style="display:inline"
     transform="translate(-5063.0089,-3886.3886)" />
  <path
     d="m 397.9146,670.7122 5.9698,-7.782 6.6586,-2.1222 5.0513,0.4715 6.8883,-6.3671 2.5257,-11.3189 9.8729,-5.8954 6.6586,0.2357 2.9851,3.3014 3.444,0.4716 2.9848,-6.1311 6.6585,-3.3014 2.7553,-6.367 -2.2961,-4.4806 3.9034,-7.5461 h 4.1329 l 7.8066,-3.773 2.9849,-7.7818 6.8882,-4.2448 5.2808,0.4718 7.3475,-4.2448 3.4441,1.6508 7.8066,-3.7731 8.9344,-1.8021 3.444,-7.0743 3.2145,-3.773 3.2147,-4.0089 6.6584,-2.3583 1.1481,2.1224 9.1931,-8.5825 5.5195,-7.2649 10.7915,-4.0089 9.4164,4.2081 3.444,4.0088 11.6143,5.98 16.5469,2.131 6.5262,-0.9271 5.0758,-2.4275 11.2547,1.324 9.1186,-3.8636 4.9101,-1.2912 2.7553,-2.3583 5.2808,-0.4716 6.1995,-2.8298 2.5257,-6.6028 11.2506,-7.7819 2.7552,-4.7163 9.6437,-2.5939 12.169,0.4716 3.4441,2.8297 7.1178,2.1224 3.9033,-5.1879 5.0513,-1.6507 2.7553,-6.367 6.1993,-8.2536 4.5923,-0.7074 5.0512,-10.6118 8.0362,-7.0743 2.2962,-11.0833 4.592,-3.3015 c 0,0 3.6738,-0.2358 4.5922,-1.4148 0.9184,-1.1791 6.429,-7.0744 6.429,-7.0744 l 1.6071,-6.1312 7.1178,-7.5462 2.9848,-0.4715 7.118,-9.9043 0.9184,-5.8953 8.4954,-13.4415 4.5921,-5.188 1.1481,-4.7162 3.6737,-0.7075 6.6585,-8.0177 7.577,-2.3581 -0.2296,-6.367 2.296,-4.9522 c 0,0 4.3627,-0.4715 4.8219,-1.6507 0.4592,-1.179 2.9848,-7.7819 2.9848,-7.7819 l -3.6738,-3.0655 v -5.8954 l 3.4443,-9.6684 3.2142,-1.415 10.3325,-8.4893 2.296,-0.2357 3.2145,-5.1879 1.3776,-8.0177 3.4441,-10.1401 3.9034,-0.7075 6.4289,-5.8954 2.5256,-4.9521 5.281,-3.0656 1.3776,0.2357 5.0514,-5.4235 2.0665,-4.4806 -1.1481,-2.3581 2.5257,-9.4327 4.8216,-0.2357 3.6737,-4.4804 0.2296,-6.603 5.97,-17.9218 5.5838,-5.8987 3.2257,-3.3201 1.1507,-4.8873 6.2128,-5.12 2.7614,-5.5854 10.815,-7.4472 1.6107,1.1637 12.1958,-4.8872 7.3635,0.2327 2.0709,2.3273 16.7978,7.9126 13.5763,-1.3964 4.3721,0.2328 2.7612,3.4909 6.213,2.0945 3.9119,3.2582 12.1956,-2.0946 3.4517,-3.4909 10.3547,-1.6291 8.9743,2.5601 10.8151,-1.3964 4.8322,1.1635 10.8151,-0.9308 3.2216,-1.629 14.2665,-1.6292 2.0711,1.8618 13.8064,-1.1635 5.7526,-4.4219 11.7356,-3.0254 8.5139,-1.1636 3.4516,-3.491 5.5227,-3.4909 2.9913,0.6983 8.0538,-3.4909 3.9119,-8.3781 10.5849,-3.2582 4.372,2.7927 7.5315,-8.0493 3.737,1.0332 7.8001,-6.4368 10.4144,-2.8268 6.9434,0.7066 7.8688,-4.0046 6.7119,-4.7114 12.4977,-2.5914 3.2402,0.7069 9.2574,5.7895 8.7428,13.744 1.1453,5.9965 10.4739,10.9939 0.8181,1.499 15.3834,5.9967 2.1276,-1.3327 10.6373,-0.1665 2.4548,-5.1637 4.7462,-3.3315 8.5894,-4.0556 5.3209,-18.1304 23.9688,-17.9733 12.6891,-4.3156 6.3824,-8.6618 8.0191,-8.6617 0.4907,-1.9988 18.6523,-7.6294 7.8512,-8.1951 10.6456,-9.1616 9.3243,0.1668 13.451,1.6657 5.7003,8.8282 6.055,5.8301 14.6249,6.246 4.2548,-6.4964 10.3102,-3.3315 19.3109,8.995 7.5281,7.4957 h 8.8371 l 3.4366,-1.4991 7.037,-0.4997 2.9459,3.1649 10.9647,-1.6658 15.5468,-4.9971 12.7649,-1.166 2.1274,2.4985 9.1493,0.919 -0.08,493.5898 -6.3849,1.7784 -4.9434,-5.4509 -4.3256,0.2098 v 3.564 l 6.3852,4.8218 0.2062,6.9185 -4.5315,5.8701 -5.3554,1.0483 0.412,-3.7737 -6.5912,-5.2414 -8.8564,-1.6769 -4.9435,1.6769 -1.6479,2.7256 2.8836,2.9351 3.5017,-2.306 3.0895,-0.2097 0.8238,3.5639 -4.5312,1.2579 -5.5614,6.08 v 5.241 l -5.9731,3.5641 -1.0299,6.9184 -7.415,2.7254 -3.5015,-6.0797 -2.0597,0.8385 -1.2358,4.193 2.0597,2.0964 -1.4418,5.0315 -4.5315,0.8386 -5.561,-4.193 -0.6182,-5.8703 -6.797,-1.6771 -2.2656,4.6122 c 0,0 0.6177,2.7255 2.0598,3.1449 1.4418,0.4192 1.6478,5.0314 1.6478,5.0314 l -7.6211,0.6291 -5.7673,6.9184 -5.3552,-6.4992 -5.3553,0.6291 -4.9433,4.193 1.648,4.8217 -9.0629,8.8052 -2.2657,0.4195 -6.385,-7.5474 0.8239,-4.8219 -3.5016,-2.0966 -9.0629,3.3545 -2.2656,3.9832 -7.209,1.8869 -4.3254,-1.6772 1.8538,-1.6772 c 0,0 0.4119,-3.7736 -0.6181,-3.7736 -1.0297,0 -5.5611,-0.2098 -5.5611,-0.2098 l -3.9135,4.6124 -9.4749,0.2097 -0.2057,6.2891 -4.7375,3.7738 c 0,0 -2.6775,2.0965 0,2.0965 2.6776,0 8.445,0 8.445,0 l 0.824,2.7254 3.9134,1.2581 0.4119,-3.3547 3.7074,-0.8385 0.8239,1.4679 8.4446,3.5638 1.236,2.7253 -6.5911,7.3378 -4.3253,-0.2097 -3.0895,-4.6122 -7.2092,0.6289 -10.0926,4.8218 -1.6477,6.0799 4.9432,2.0964 1.442,5.2412 -4.3254,2.7254 -10.2986,-0.8385 c 0,0 0,-4.6122 -1.0296,-4.6122 -1.0303,0 -12.1525,2.5157 -12.1525,2.5157 l -4.3255,4.4026 5.1493,2.9349 h 7.8268 l 7.415,4.6124 0.206,6.9184 -6.5911,1.2579 -11.5344,-1.4677 -8.2388,3.9835 -2.4717,4.1929 3.2954,1.0482 -4.1195,3.1448 v 2.3061 l 9.4748,2.306 1.0299,3.3545 -3.7074,3.5639 -0.8239,2.3062 3.0896,2.935 -0.6179,3.1448 -7.621,-2.0966 -4.5313,1.4677 -6.1794,-1.258 1.6478,-5.6604 -7.2089,-7.5475 -7.4149,2.3062 -1.03,1.6772 3.7076,2.0965 -0.6181,5.0315 -6.7969,3.1449 -2.8837,-1.6773 1.0299,-5.6605 0.206,-4.8219 -3.7074,0.6289 -2.8836,5.4509 -2.2658,0.2096 -4.3255,-5.6605 -2.8837,3.3544 -8.8566,3.564 -9.6805,-1.0481 -2.8835,-3.3545 -5.7675,-0.2097 -6.5909,6.2895 -1.854,4.193 -4.1196,2.5157 -1.4415,2.7254 -5.1494,-1.0482 -5.1493,3.1448 -3.9134,-1.4677 2.8837,-6.2893 -2.8837,-2.7255 h -5.1493 l -1.4418,4.4026 -3.9135,1.8868 -6.7969,-1.6771 5.7671,-4.4026 v -6.7087 l -3.7075,-0.2098 -2.8835,3.1449 -16.4781,0.6289 -8.4445,7.757 -12.1523,1.8867 -0.412,-2.935 2.6776,-0.4193 3.5014,-3.3544 -5.1494,-4.8218 -3.5014,2.3061 h -12.7701 l 0.6178,4.4027 -3.7075,2.0963 4.7375,3.1447 v 2.5158 l -4.5314,3.5641 1.4415,1.4674 5.1494,1.2579 1.648,2.7255 -3.5017,1.4675 -1.2358,3.7737 3.2954,1.4675 0.8243,-2.7255 h 3.2954 l 2.8834,3.3544 -2.8834,3.5641 -2.2657,0.2096 -2.0599,3.9833 3.9136,1.6772 0.2059,2.9351 -4.5314,2.3061 -1.6476,5.2411 6.797,0.6291 1.4418,5.4508 -3.5017,1.2579 1.236,3.1446 -1.4419,5.4509 -3.7072,2.3061 -2.06,3.3544 3.2955,0.4193 0.412,3.3544 -5.3554,4.6122 1.6479,2.5157 h 3.2955 l 1.648,2.9351 -0.8238,2.0965 -3.0898,-0.4193 -1.6477,1.4675 c 0,0 2.0596,-1.0482 2.0596,1.2579 0,2.3062 0,4.1929 0,4.1929 l -2.4716,0.629 -2.2656,5.8702 -3.7076,-1.0483 3.0894,-2.9351 -1.4415,-3.5639 -3.0897,0.2096 1.6478,3.9832 -4.7373,5.2412 -3.7076,0.2097 -2.2656,3.7737 -2.4717,1.4675 -0.8238,-2.935 3.7074,-5.2413 -4.5315,-1.4674 -3.5014,1.6771 -1.4421,6.4991 2.4719,3.1447 -0.8236,4.822 -3.2955,0.4192 -1.2361,2.935 -3.0895,-2.935 -4.9436,2.5158 -5.1489,-2.935 -2.6778,2.5157 5.9732,3.564 -0.2059,3.7736 -2.8836,0.4193 -1.648,2.5158 4.9434,1.8868 1.2358,4.193 -3.5016,1.6772 -3.5014,-2.5159 -4.5313,-0.6289 -4.1193,3.3544 -2.2656,-5.0316 -0.9201,0.467 -4.515,4.8919 -5.5347,0.7414 -0.8738,1.0376 3.4955,1.3342 -1.3109,2.3719 -1.3108,0.1483 -1.3105,2.2237 5.3887,0.7412 -0.4368,4.5954 1.8933,2.0755 h 7.4279 v 2.2236 l -4.0782,4.8921 -2.6216,-0.1484 -3.9327,-6.2261 h -3.4951 l -5.9715,3.7061 2.3304,3.2614 -2.185,3.113 -1.4564,0.2964 -4.0777,4.151 -2.3304,-3.5579 -7.4276,0.593 -2.3305,2.8166 4.9519,0.2965 1.1653,3.1131 -3.4955,1.0378 -4.2237,5.0402 h -1.4564 l -1.3109,-4.2991 -7.5735,-2.5201 -1.8933,2.8166 2.0389,1.1859 -4.9518,1.9272 -1.0196,1.6307 -1.4566,-0.5929 v -3.2614 l -1.4563,-0.593 -2.3302,3.8544 -1.6022,0.1482 -2.1848,-3.5578 -3.9323,1.3341 2.913,2.372 -1.8935,4.1507 -2.6214,0.2965 -3.2043,-1.9271 1.0197,-3.8544 -3.2043,-5.9296 -9.4667,-6.5228 -2.3303,-11.563 -3.0586,-0.1482 -2.3304,9.191 0.8739,4.0026 2.476,1.4825 0.5824,9.1911 c 0,0 -1.6019,-2.0754 -2.3301,-2.0754 -0.7283,0 -3.4957,-0.2966 -3.4957,-0.2966 l -1.8931,2.5201 -3.3499,-4.7437 -5.6802,-1.1859 -4.2238,4.4472 2.9131,3.1131 4.3692,-2.3718 3.2046,0.8894 -0.8741,5.9297 3.0584,4.0026 -0.8737,6.8192 -4.8066,3.4097 -6.1169,-0.4448 0.437,-5.3368 -3.7868,-3.1132 -4.9519,1.4826 -0.7281,4.0025 5.5343,3.4097 1.1651,4.1507 -3.3497,3.1132 -6.4084,-4.2991 1.4565,-5.7815 -3.4954,-6.9674 -4.9519,-1.7789 -3.9325,2.2237 -0.4368,2.2235 6.6994,1.6308 1.7479,4.8919 -2.3304,3.5579 -3.7868,-0.1483 c 0,0 -5.243,-8.7463 -5.9712,-8.7463 -0.728,0 -5.9713,-0.8895 -5.9713,-0.8895 l -3.2042,2.9649 v 3.5578 l 2.0391,0.2965 1.4565,2.8166 -1.7479,2.9648 -5.2434,-1.1859 -0.8739,-4.1508 -3.4953,-1.0377 -2.6216,3.8543 -3.4955,-0.593 0.5827,-4.4472 -1.4566,-1.6307 -4.5148,2.8166 -3.4957,-4.4474 -1.8932,2.9649 -5.0977,-1.6306 -0.1457,2.8166 -6.2626,2.3719 -4.515,-2.0754 0.4369,-4.0026 -5.2433,-5.485 0.8741,-4.0025 2.3304,-3.7062 -5.5348,-3.4095 -0.1457,-4.2992 2.3305,-1.334 0.1457,-5.9299 -4.9521,0.1483 2.7675,-2.8165 v -4.2991 l -2.7675,-2.3719 -2.4757,1.6307 -2.4761,-0.8894 0.8743,-5.0402 -4.224,-3.7062 -2.6215,2.5201 h -3.6411 l -1.1654,1.1861 2.3309,1.0375 0.4366,4.2992 -6.2628,1.1859 -1.3108,-1.779 1.3108,-5.0402 -3.3496,-5.9298 -5.2432,-0.8895 -2.3301,2.5202 2.4756,1.6306 0.1457,7.4122 -3.3497,1.6307 -0.728,2.372 -3.35,0.1482 v -12.6006 l -4.5148,-3.5579 -1.748,4.8921 -3.2039,1.9271 -4.9521,-2.6684 2.0389,-1.9272 -0.5824,-5.6332 4.6606,-3.2613 -3.2041,-2.8166 -1.8934,1.9271 -6.4083,-0.2965 -2.4758,2.6683 2.7669,2.5203 -3.3496,2.6683 -1.4565,-3.1131 -2.039,0.1483 -1.8935,3.2613 4.3695,1.4825 0.2912,5.1885 -3.7868,2.8165 -3.6411,-1.334 1.4565,-4.1509 -2.9129,-1.1859 -1.3108,5.3368 -2.9129,1.334 -0.7282,0.8896 2.6215,1.7789 -0.1457,3.1131 -3.3497,0.7412 -1.0195,-1.3341 1.602,-1.3343 -3.2041,-4.5955 -2.476,0.593 -0.7283,8.0051 -2.4758,0.593 -3.2043,-3.5578 0.874,-2.372 -2.6215,-0.7412 -2.476,1.9272 2.3301,3.2614 -0.4368,2.6683 -6.4084,2.6685 2.3301,-5.9299 -6.6995,-3.8543 -3.2042,2.0755 0.1457,1.7788 3.4954,1.0377 1.1653,3.2615 -1.4564,1.0376 -1.8936,-2.3719 -6.1169,-0.2965 -1.4565,1.4826 3.9324,2.6682 0.8738,2.9649 -4.515,4.5956 -2.3303,-0.4448 1.3107,-4.299 -3.0582,-5.7815 -3.4953,-0.7413 1.3105,2.6685 -1.1651,2.0754 v 5.3367 l -2.4763,0.1483 -0.4366,-5.1885 -4.9519,-1.6307 -2.0389,2.6684 -4.3694,0.7413 1.1651,2.3718 -1.7476,3.2614 -2.6217,-2.0754 -5.6802,1.4824 -2.6214,-4.7439 1.3105,-0.5928 0.1457,-4.4474 -6.2626,-2.6683 -0.8739,5.1885 4.515,4.7437 2.7672,7.1158 -2.3304,2.3718 -2.1845,-4.4474 -3.2044,-0.2963 -0.1458,-4.5956 -4.0776,-1.7789 -2.4762,1.9272 -3.9322,-3.7062 -2.6217,0.7414 1.8935,3.4096 -1.7478,6.819 -2.1847,0.1484 -1.6022,2.2236 h -2.6215 l 1.3108,-4.8921 -1.3108,-1.927 -5.0975,-0.5931 c 0,0 -1.4564,4.7438 -2.039,5.1886 -0.5828,0.4447 -3.7868,2.5201 -3.7868,2.5201 l -1.165,-2.6683 -3.2044,-0.2966 c 0,0 -1.6021,2.0754 -1.7478,2.9649 -0.1457,0.8894 10.6323,3.5579 10.6323,3.5579 l 0.4366,3.706 -2.4757,1.779 -2.6216,-4.0027 -6.4084,-1.4823 -1.7478,2.6683 1.165,1.9271 4.8064,0.5931 1.3109,1.9271 -1.3109,4.7438 c 0,0 -2.3303,-0.593 -2.9128,-0.593 -0.5826,0 -4.0782,0.2966 -4.0782,0.2966 l -0.1457,-4.1508 -3.0587,-2.6685 -3.7865,1.779 1.4564,2.2236 -2.476,4.2991 -5.6801,-1.6307 1.8935,-4.892 -2.7675,-2.3719 -3.7865,3.1131 c 0,0 -0.2914,-1.4825 -1.1653,-1.4825 -0.8737,0 -6.6995,0 -6.6995,0 l -0.1457,4.8921 -5.6802,4.1508 -3.9323,-1.0377 -0.1457,-4.0025 1.6021,-1.0378 2.3302,-6.3744 -6.117,-2.2236 -2.6216,3.4095 1.8931,0.8894 1.8936,3.4096 -5.0976,4.299 -5.8258,-0.7411 -1.4566,-4.1508 2.6219,-1.9272 -1.4565,-3.8544 -3.0586,1.186 -1.3107,4.5956 -2.3304,-1.9272 -3.7868,0.593 -2.6215,4.299 h 4.2237 l 1.3107,2.5202 -4.3102,5.3382 -274.7654,-338.1708 z"
     style="display:inline;fill:#fefee9;fill-opacity:1;stroke:#646464;stroke-width:0.85333335;stroke-linecap:butt;stroke-linejoin:round;stroke-miterlimit:4;stroke-dasharray:none;stroke-opacity:1"
     id="La_Primavera,_Código_DANE_:_99524" />
  <path
     d="m 2197.2757,695.3496 -8.681,-5.8689 -5.5281,-1.3765 -8.3977,3.1397 -5.1417,-2.6166 -0.6856,-4.7101 2.0569,-1.3956 -0.343,-6.2797 -3.9418,-6.1055 -6.5126,0.3487 -5.1417,3.3142 h -4.6274 l -20.3948,6.4546 -4.9699,5.7567 3.4275,2.9654 0.3426,4.5355 -2.7419,1.2214 -6.1699,-2.0934 -3.2564,2.4422 v 8.7222 l -6.3413,7.1522 -2.2279,9.4199 -3.7704,3.3145 -5.6558,-1.9188 -5.6557,-11.8624 -4.2848,-4.8843 1.0285,-15.7 -8.9119,-8.7223 -13.7109,-1.0467 -1.7139,4.7102 -4.456,2.9654 -9.5977,-7.6756 -3.2562,-6.9775 -16.4529,-8.3734 -2.742,2.0933 v 2.9656 l 8.912,5.582 1.3709,7.1524 -4.2847,4.0122 -7.5409,-2.2677 -5.4842,-5.5822 -8.055,-3.8378 -0.8571,-6.1056 2.9135,-4.7097 1.0283,-19.1887 -5.9983,-6.6291 -12.1684,-1.5701 -4.9702,3.6634 1.1998,4.0123 6.8554,4.5355 1.7138,4.361 -6.1698,5.2332 -10.7973,-0.5231 -3.4277,-5.9311 0.3429,-5.2333 -6.8556,-6.8035 -28.6213,-2.7908 -6.8554,3.4887 -0.1712,5.2334 5.9982,4.3612 9.255,3.4885 5.3128,8.1989 -2.5706,5.5825 -5.8273,2.2675 -7.8836,-3.14 -5.6557,-14.6531 -8.2266,-12.7345 -6.6839,-2.6167 -4.6274,1.7444 h -5.3129 l -1.0282,-12.9087 -6.3415,-7.1522 h -3.5991 l -3.256,-1.7444 -3.0853,0.6976 2.9137,3.3146 -0.5143,6.1055 -2.742,2.4422 -0.5141,4.5356 4.1132,1.9187 1.5425,4.8846 -3.4279,4.7098 -7.5408,1.2213 -8.055,-7.6757 -5.3131,-2.4421 -1.5423,-5.7565 2.2279,-1.5701 -1.5425,-10.9898 -5.8269,-1.9191 -6.8555,3.8378 -1.3713,-3.4888 -3.9417,-0.5236 -2.0565,-3.4887 3.2562,-1.0468 2.3994,-4.3609 -4.1133,-2.6167 c 0,0 -0.8568,-2.6166 0,-3.1399 0.8571,-0.5233 3.5992,-1.7446 3.5992,-1.7446 v -4.5356 l -4.799,-0.1741 -4.7987,-2.4424 -11.6542,-2.0934 -5.4843,4.7099 -5.6556,-1.7444 -4.4562,-5.4077 2.3999,-4.0121 -1.7141,-4.1865 -1.7141,-10.6413 c 0,0 -3.7703,0.5235 -4.4557,0.8722 -0.6856,0.3488 -11.9972,6.9777 -11.9972,6.9777 l -0.6852,3.8378 -2.9135,4.7102 -6.1702,-2.6169 v -6.6287 l -6.1699,-2.4421 -6.8553,5.2331 -3.5989,5.2333 h -5.4843 l -7.0269,-4.5353 -2.0567,-5.7569 3.7705,-1.7443 0.3428,-11.8622 -4.1133,-1.2213 -9.5975,9.0711 h -4.9702 l -2.7422,-3.6631 h -6.684 l -8.9121,6.4545 -0.6854,9.4196 9.5975,3.4891 2.5707,6.28 -4.7985,3.4888 -6.3414,5.7567 -8.398,-2.7912 -1.1996,-11.8622 -11.3114,-8.8966 -2.3994,1.2212 1.5426,4.8844 -4.1133,4.0123 -3.2564,-0.698 -3.7704,1.7444 -1.0283,4.361 -5.6558,3.4893 -4.113,-1.9192 -6.6842,3.1399 -3.4276,-1.3954 -5.313,4.8844 -2.5706,-3.489 -5.2768,0.052 -3.0703,1.2672 -0.4121,3.3542 1.854,3.3545 0.8239,5.4505 -5.3554,5.4512 0.206,5.6605 4.7373,5.2412 -0.2062,9.8533 -9.0625,0.6291 -13.1824,-10.9017 1.03,-5.4507 -3.5014,-5.0317 -7.6212,-1.4678 v 2.7255 l 7.2094,5.2412 -3.5017,3.5639 h -6.5912 l -4.1194,9.4343 2.4717,1.6771 1.0297,6.7089 0.206,2.7255 -3.5013,1.8869 -3.0898,-3.5642 1.2359,-5.2411 -2.2656,-4.1931 h -3.7075 l -3.7075,3.3543 0.8239,6.7087 -2.8836,3.9835 -4.7375,0.4191 -1.4418,8.1763 h -2.8834 l -3.5016,-3.7734 -4.9435,1.6769 v 3.1448 l 4.5315,3.9835 -6.3852,11.1112 -5.3552,0.8386 -4.3252,-3.564 2.2655,-4.8219 -3.2956,-3.1448 -2.4713,0.4193 -1.442,6.2895 -3.0896,-0.2097 -0.2061,-3.3543 -7.621,-10.0631 h -6.7969 l -2.2658,3.7736 2.4719,5.0317 -3.9138,4.193 -7.2088,-5.4511 v -6.0798 l -6.3852,1.0483 -2.9355,5.2426 0.1232,-493.7883 4.6072,0.5089 0.6545,2.4986 9.8192,14.8249 6.2188,1.9989 6.8732,-1.9989 4.7462,1.3326 5.2367,-4.3308 6.2322,-0.969 2.6186,1.8323 6.8733,0.4996 11.2922,-1.1659 2.2909,2.4985 10.9647,8.1622 5.8914,6.9959 3.2731,1.4992 3.7639,-3.6645 14.4016,-2.1655 10.6373,2.9983 2.6185,-0.8328 2.6182,-5.1639 7.2007,-8.6617 12.1104,-5.3304 1.3091,-1.9988 10.4738,-2.8318 6.7097,7.3293 11.1285,7.8289 5.4002,-0.3331 4.0916,-5.8301 8.6734,-4.8306 14.7287,-3.4981 3.1096,-1.8323 3.7639,-6.996 6.8733,-2.8318 h 6.3823 l 1.6367,1.4992 2.9456,0.6663 4.4187,-3.3314 11.1282,-0.9994 0.9822,2.665 7.6914,2.6652 0.6547,-3.4979 8.346,-0.4999 0.6548,1.4992 6.8733,3.3315 5.0733,-1.6657 1.3092,0.1667 0.9819,1.9988 5.0733,3.498 3.1092,-0.6662 v -2.1656 l 5.8916,-3.1648 6.8734,1.166 4.0912,5.3304 7.8554,1.4991 4.5825,2.9984 6.3822,1.6656 1.9637,-3.498 12.6012,-4.8306 1.4731,2.1655 7.037,3.1648 5.8915,-0.9994 1.9636,-2.6652 6.5463,-5.3302 1.6361,-6.3299 4.9099,-6.6629 2.6183,-0.1665 6.5464,-1.3326 11.2917,-7.3291 10.9648,-1.6657 1.3092,1.8323 5.4005,0.4996 5.564,-2.6652 9.8193,-6.996 13.5831,-3.9978 6.2187,2.1656 0.982,1.3326 5.4003,1.6657 3.6007,-3.3316 11.7826,-5.83 15.8744,1.9989 1.1456,2.1654 10.31,9.8279 6.2188,3.3314 3.6004,-1.166 10.4737,-1.4992 0.6546,2.1655 12.7649,4.664 10.31,-1.8323 1.6366,-3.6646 3.4367,-0.4996 13.7466,-11.4937 9.0009,-1.9988 4.2552,-4.664 h 3.4365 l 14.5652,-8.1621 0.8181,-10.3275 18.377,-10.4941 13.0922,-3.8311 13.2557,-10.161 1.9638,-6.3297 11.6195,-5.9966 3.9275,-0.4998 9.492,5.9967 3.6004,-0.6663 4.0913,2.8317 2.2911,4.1644 10.8008,1.3325 3.4366,-2.332 6.7099,1.166 0.8183,1.8323 20.2928,4.1643 3.273,1.8323 3.9276,1.9988 3.6003,-2.8317 11.7831,-3.3314 12.2739,-5.4969 3.4367,-3.8312 9.9828,-1.9989 1.8002,3.1649 14.2378,4.331 6.5457,6.4963 -0.327,3.1649 4.7457,7.4957 8.0191,5.1638 9.0008,-0.9994 5.5643,-2.3321 8.837,-0.3332 6.3826,-1.4991 8.0189,4.4974 1.3092,5.3304 5.2369,4.1643 12.1101,4.4975 2.1277,3.1649 v 1.9988 l 4.582,4.4974 -1.1455,2.6652 0.9819,2.8318 5.0734,6.6629 2.7821,0.8329 7.2006,1.8323 1.8003,2.332 4.8604,5.6715 0.3453,5.6985 -8.6307,5.5449 -1.9495,2.6455 -7.7553,4.878 -4.2448,9.2191 2.6185,2.8318 0.6543,5.4969 -2.1275,1.9989 0.1639,3.4979 2.6262,2.9367 5.0733,7.3292 -0.8184,4.3308 -2.6183,3.1649 0.1638,9.3281 7.6917,2.9984 5.0732,3.8312 10.9646,4.9972 0.9819,1.9988 10.9649,10.3275 0.9818,10.6606 4.255,3.498 h 2.6184 l 6.8735,5.6636 2.6186,9.1614 -3.9278,6.663 -4.9096,0.4996 -9.1646,7.8289 -2.2911,3.8312 -14.7288,8.6617 -4.7457,4.331 -1.6368,8.6618 -4.0912,7.4957 -12.601,3.3315 -17.5109,6.1632 -4.0912,4.3309 -13.7469,10.3275 -3.764,8.3286 0.3273,3.9977 -8.1826,6.4964 -9.6554,2.6652 -9.6554,16.8237 0.9819,9.9944 -4.9095,9.4946 -2.6184,14.6584 -3.9277,5.1639 -6.4473,15.3922 -4.9095,5.3304 -4.2548,1.6656 -7.3645,10.3276 -1.3092,9.6612 2.6184,6.663 7.0371,4.8305 2.7821,4.8306 -0.8183,14.825 3.1094,10.9939 v 6.4962 l 6.2189,10.3276 -2.4551,6.3297 3.7641,9.9944 v 11.327 l 6.219,7.1625 5.5638,3.8313 3.1096,5.8299 -3.2732,6.3299 -2.2909,7.8289 -3.1093,4.4973 -6.0552,12.6596 1.4728,1.166 -0.6545,9.4947 -5.0733,3.3315 0.1639,6.3297 -7.5281,6.4963 -3.9273,0.9995 -9.9828,10.3274 -8.6738,3.6646 -8.3461,4.1643 -3.764,4.331 -13.2558,7.1626 -7.6918,11.9932 -13.7467,6.4963 -10.9646,3.4981 -8.51,9.4946 -7.8552,-0.3332 z"
     style="display:inline;fill:#c12838;fill-opacity:1;stroke:#646464;stroke-width:0.85333335;stroke-linecap:butt;stroke-linejoin:round;stroke-miterlimit:4;stroke-dasharray:none;stroke-opacity:1"
     id="Puerto_Carreño,_Código_DANE_:_99001" />
  <path
     d="m 104.2527,1109.5637 9.4793,-5.6875 4.9765,-4.0286 4.2657,-0.474 3.0807,1.6589 h 4.7396 l 5.6875,-3.5548 6.6354,-0.7109 3.7917,-2.1328 h 2.3698 l 5.6875,5.6876 1.185,2.6067 8.5313,1.6589 0.9478,-2.1328 1.8959,-1.4219 2.8437,-2.6068 0.2371,-6.1615 -2.3699,-3.3177 -1.1849,-6.8724 -1.8958,-0.9479 v -3.5547 l 4.9765,-3.3178 3.7917,-1.1848 2.8438,-2.1328 12.086,-1.422 2.1328,0.7109 3.7917,-1.6587 1.1849,-5.4506 7.1094,-4.2656 3.0807,-0.9479 2.3699,-4.9767 4.5026,-0.9478 4.0286,1.8958 1.8958,-2.8438 3.3177,0.474 1.185,-1.4219 h 1.6588 l 2.3697,2.6068 h 4.0287 l 3.0808,3.5547 2.8437,-2.3698 3.0808,-0.237 2.3698,2.3698 4.7396,0.237 4.0287,-1.6589 7.1093,0.948 0.237,1.6588 6.3984,1.8958 0.4741,2.8438 4.2656,4.0286 0.9479,3.5547 1.6589,0.474 0.2369,-1.6588 3.3178,3.0807 4.2656,1.4219 0.474,-4.0287 h 1.4219 l 1.4218,-2.3698 5.4506,-1.1849 1.8958,-3.0807 -2.6067,-3.0808 3.7916,-2.1328 2.1328,0.948 5.9245,-4.0287 2.1328,0.4739 2.8437,-0.2369 1.6589,0.9479 8.2943,-2.3698 4.7054,2.3944 2.5331,3.5825 5.8256,-0.2966 3.6412,-2.9649 1.602,1.9272 6.6998,-0.4446 1.3107,-2.2237 h 4.6605 l 4.8065,6.6708 -1.8937,2.2237 4.6608,2.8167 -0.874,10.5253 -1.7476,1.6306 9.4668,5.0402 10.7777,0.1484 1.4564,4.2991 c 0,0 5.2433,-2.5202 5.8258,-3.1132 0.5827,-0.5929 1.4564,-3.7061 1.4564,-3.7061 0,0 4.0783,0 4.8063,0.1482 0.7282,0.1484 1.6021,3.2615 1.6021,3.2615 l 11.6513,-1.4825 2.476,8.0052 9.0301,-1.0377 4.6608,6.2262 7.2822,0.4447 3.0584,3.4096 3.3497,-0.7411 9.1755,4.892 3.0589,4.0025 10.1948,-2.6684 v -1.0376 l 3.9324,-0.8896 0.1457,3.8544 h 6.8455 l 3.2042,6.3745 2.0391,-2.5202 3.2039,1.3342 -0.291,4.5956 6.2625,-0.5931 1.6022,-2.8165 -2.0392,-1.3342 3.9325,-2.2237 3.0586,1.186 v 3.7061 l 6.1169,-1.9273 0.2914,6.2264 -1.3108,0.7411 0.7282,1.4825 3.4952,-2.6684 0.1457,-2.5202 h 2.7677 l 2.6213,1.6308 2.476,-5.0403 5.2435,-0.7413 2.767,3.4096 4.3693,-4.0025 -1.165,-3.4096 -5.0976,-3.7061 2.4759,-1.7789 0.437,-4.1509 c 0,0 4.3694,-0.1482 4.9519,-0.1482 0.5826,0 2.4758,2.9648 2.4758,2.9648 l 9.1755,-11.7112 -1.7476,-4.892 5.0973,-0.2964 2.3307,3.5577 6.4082,-0.7412 2.1846,3.2613 4.6606,-2.2237 h 5.5346 l 3.7866,4.5957 -1.1651,2.9648 4.0782,-0.2965 3.7866,-3.706 1.3108,0.4446 -0.2915,2.8167 4.6607,1.4824 4.8062,-1.7789 2.0391,-4.8919 -1.3106,-1.6309 4.5148,-4.4472 3.4956,-1.6306 1.4565,3.2613 5.243,-2.6685 0.1457,-3.113 -5.0978,-4.1509 5.5346,-6.0778 4.078,0.7411 2.0392,-4.892 2.1847,0.8894 -0.7283,3.1132 h 4.5151 l 3.9322,-1.4826 0.2915,-5.7813 2.9129,-2.8167 c 0,0 3.4952,-0.1483 4.369,0 0.8738,0.1483 0.7281,2.3719 0.7281,2.3719 l 2.6218,-3.1132 -0.1457,-2.0753 -1.6021,-0.5929 c 0,0 3.6411,-3.7062 4.3695,-4.2991 0.728,-0.593 3.6406,-2.3719 3.6406,-2.3719 l 0.2917,-1.6308 4.0779,0.2965 1.1652,1.4825 2.6214,-5.0402 -1.0193,-2.372 1.7475,-2.2235 4.6607,1.4823 -0.5825,3.2613 h 2.913 l 1.165,-3.113 6.554,1.779 1.4564,-2.6685 -1.7476,-1.1859 2.7671,-4.7438 c 0,0 6.8455,-3.2614 9.1756,-4.4473 2.3304,-1.186 2.3304,-8.1534 2.3304,-8.1534 l 2.7672,-1.779 -1.8933,-5.485 -1.7479,-1.0376 1.3109,-2.9649 2.1846,-0.5929 3.9325,0.8894 4.2236,-5.3367 -1.3108,-2.5203 h -4.2237 l 2.6214,-4.2989 3.787,-0.593 2.3302,1.9271 1.3107,-4.5956 3.0586,-1.1858 1.4566,3.8543 -2.6219,1.9271 1.4566,4.1509 5.8258,0.7411 5.0976,-4.2989 -1.8935,-3.4097 -1.8932,-0.8895 2.6215,-3.4095 6.1171,2.2237 -2.3301,6.3744 -1.6021,1.0378 0.1457,4.0024 3.9322,1.0378 5.6801,-4.1509 0.1457,-4.8919 c 0,0 5.8259,0 6.6997,0 0.8739,0 1.1651,1.4823 1.1651,1.4823 l 3.7865,-3.113 2.7675,2.3718 -1.8933,4.8921 5.6801,1.6307 2.4758,-4.2991 -1.4564,-2.2237 3.7867,-1.7789 3.0586,2.6684 0.1457,4.1508 c 0,0 3.4955,-0.2965 4.0782,-0.2965 0.5825,0 2.9129,0.593 2.9129,0.593 l 1.3108,-4.7438 -1.3108,-1.9272 -4.8064,-0.5929 -1.165,-1.9273 1.7476,-2.6682 6.4085,1.4824 2.6216,4.0026 2.4757,-1.779 -0.4366,-3.706 c 0,0 -10.7779,-2.6685 -10.6324,-3.5579 0.1457,-0.8895 1.7478,-2.9649 1.7478,-2.9649 l 3.2044,0.2965 1.165,2.6684 c 0,0 3.2042,-2.0754 3.7868,-2.5201 0.5827,-0.4448 2.039,-5.1885 2.039,-5.1885 l 5.0975,0.593 1.311,1.927 -1.311,4.8921 h 2.6216 l 1.6021,-2.2236 2.1849,-0.1484 1.7476,-6.8191 -1.8933,-3.4096 2.6215,-0.7413 3.9323,3.7061 2.4762,-1.9271 4.0777,1.7788 0.1457,4.5957 3.2044,0.2963 2.1844,4.4474 2.3306,-2.3719 -2.7673,-7.1157 -4.515,-4.7437 0.8739,-5.1885 6.2626,2.6683 -0.1457,4.4473 -1.3105,0.5929 2.6214,4.7439 5.6803,-1.4825 2.6215,2.0755 1.7478,-3.2615 -1.1653,-2.3717 4.3694,-0.7414 2.039,-2.6683 4.9519,1.6307 0.4366,5.1886 2.4762,-0.1484 v -5.3367 l 1.1652,-2.0755 -1.3106,-2.6683 3.4954,0.7412 3.0582,5.7815 -1.3107,4.2989 2.3303,0.4448 4.5149,-4.5955 -0.8737,-2.9649 -3.9325,-2.6683 1.4567,-1.4825 6.1169,0.2965 1.8935,2.3718 1.4565,-1.0375 -1.1654,-3.2614 -3.4953,-1.0377 -0.1457,-1.779 3.204,-2.0754 6.6996,3.8544 -2.3302,5.9297 6.4085,-2.6684 0.4368,-2.6683 -2.3301,-3.2615 2.4759,-1.9271 2.6215,0.7412 -0.8739,2.372 3.2042,3.5577 2.4759,-0.5929 0.7282,-8.0052 2.476,-0.5929 3.2041,4.5955 -1.6019,1.3343 1.0195,1.3341 3.3498,-0.7413 0.1457,-3.113 -2.6216,-1.7789 0.7281,-0.8895 2.9131,-1.3342 1.3107,-5.3367 2.913,1.1859 -1.4566,4.1508 3.641,1.3342 3.787,-2.8166 -0.2913,-5.1885 -4.3694,-1.4826 1.8933,-3.2612 2.0392,-0.1484 1.4564,3.1132 3.3495,-2.6684 -2.7669,-2.5202 2.4758,-2.6683 6.4084,0.2965 1.8934,-1.9272 3.2041,2.8167 -4.6605,3.2613 0.5823,5.6332 -2.039,1.9271 4.9521,2.6685 3.204,-1.9272 1.7479,-4.892 4.5149,3.5579 v 12.6006 l 3.3499,-0.1483 0.7281,-2.3719 3.3498,-1.6306 -0.1458,-7.4123 -2.4757,-1.6306 2.3303,-2.5202 5.243,0.8895 3.3497,5.9298 -1.3107,5.0402 1.3107,1.779 6.2628,-1.1859 -0.4367,-4.2991 -2.3307,-1.0377 1.1653,-1.186 h 3.6412 l 2.6214,-2.5201 4.224,3.7061 -0.8742,5.0402 2.476,0.8894 2.4758,-1.6306 2.7673,2.3718 v 4.2991 l -2.7673,2.8167 4.952,-0.1484 -0.1458,5.9298 -2.3304,1.3342 0.1457,4.2991 5.5347,3.4095 -2.3303,3.7061 -0.8741,4.0026 5.2434,5.485 -0.4371,4.0026 4.515,2.0754 6.2626,-2.372 0.1457,-2.8165 5.0979,1.6306 1.8932,-2.9649 3.4957,4.4474 4.5147,-2.8167 1.4566,1.6307 -0.5826,4.4473 3.4954,0.5931 2.6216,-3.8544 3.4953,1.0376 0.874,4.1508 5.2433,1.186 1.7478,-2.9648 -1.4564,-2.8166 -2.0391,-0.2965 v -3.5579 l 3.2041,-2.9649 c 0,0 5.2433,0.8895 5.9714,0.8895 0.7282,0 5.9712,8.7464 5.9712,8.7464 l 3.7869,0.1482 2.3303,-3.5577 -1.7478,-4.8921 -6.6994,-1.6307 0.4368,-2.2236 3.9325,-2.2237 4.9518,1.7789 3.4954,6.9675 -1.4564,5.7814 6.4083,4.2991 3.3498,-3.1132 -1.1652,-4.1507 -5.5343,-3.4097 0.728,-4.0024 4.952,-1.4826 3.7867,3.1133 -0.4369,5.3366 6.1169,0.4448 4.8065,-3.4097 0.8738,-6.8191 -3.0584,-4.0026 0.8741,-5.9297 -3.2046,-0.8894 -4.3693,2.3718 -2.9129,-3.1131 4.2237,-4.4472 5.6803,1.1859 3.3497,4.7437 1.8934,-2.5201 c 0,0 2.7671,0.2965 3.4957,0.2965 0.7282,0 2.3301,2.0754 2.3301,2.0754 l -0.5825,-9.191 -2.4761,-1.4826 -0.8739,-4.0025 2.3306,-9.1911 3.0584,0.1483 2.3304,11.563 9.4667,6.5228 3.2042,5.9296 -1.0195,3.8544 3.2041,1.9271 2.6215,-0.2965 1.8935,-4.1508 -2.9129,-2.3718 3.9322,-1.3342 2.1848,3.5578 1.6021,-0.1483 2.3304,-3.8544 1.4562,0.5931 v 3.2613 l 1.4566,0.593 1.0196,-1.6307 4.9517,-1.9272 -2.0388,-1.1859 1.8933,-2.8167 7.5735,2.5202 1.3109,4.299 h 1.4564 l 4.2237,-5.0402 3.4955,-1.0377 -1.1654,-3.1131 -4.9518,-0.2965 2.3305,-2.8166 7.4275,-0.593 2.3306,3.5578 4.0776,-4.1509 1.4565,-0.2964 2.1849,-3.1131 -2.3303,-3.2613 5.9714,-3.706 h 3.4951 l 3.9326,6.2261 2.6218,0.1483 4.0782,-4.892 v -2.2237 h -7.428 l -1.8934,-2.0754 0.4368,-4.5955 -5.3887,-0.7412 1.3105,-2.2237 1.3109,-0.1484 1.3109,-2.3718 -3.4955,-1.3342 0.8737,-1.0377 5.5348,-0.7413 4.5149,-4.8919 0.9201,-0.467 2.2656,5.0315 4.1195,-3.3543 4.5313,0.629 3.5013,2.5157 3.5016,-1.6772 -1.2359,-4.1928 -4.9432,-1.887 1.6479,-2.5157 2.8836,-0.4193 0.206,-3.7737 -5.9733,-3.5639 2.6777,-2.5157 5.149,2.935 4.9436,-2.5158 3.0895,2.935 1.236,-2.935 3.2955,-0.4192 0.8238,-4.822 -2.4719,-3.1448 1.442,-6.4991 3.5015,-1.6771 4.5315,1.4675 -3.7074,5.2412 0.8236,2.9351 2.4718,-1.4676 2.2656,-3.7736 3.7076,-0.2097 4.7373,-5.2412 -1.6477,-3.9833 3.0896,-0.2096 1.4414,3.564 -3.0892,2.935 3.7076,1.0484 2.2656,-5.8701 2.4715,-0.629 c 0,0 0,-1.8869 0,-4.193 0,-2.3061 -2.0596,-1.2579 -2.0596,-1.2579 l 1.6476,-1.4675 3.0899,0.4193 0.8237,-2.0966 -1.648,-2.935 h -3.2955 l -1.6477,-2.5157 5.3554,-4.6122 -0.4122,-3.3545 -3.2955,-0.4193 2.06,-3.3543 3.7073,-2.3061 1.4418,-5.4509 -1.2358,-3.1447 3.5016,-1.2579 -1.4419,-5.4508 -6.7969,-0.629 1.6477,-5.2411 4.5313,-2.3062 -0.206,-2.935 -3.9136,-1.6772 2.06,-3.9833 2.2658,-0.2096 2.8833,-3.5642 -2.8833,-3.3542 h -3.2955 l -0.8243,2.7253 -3.2955,-1.4674 1.2359,-3.7737 3.5016,-1.4676 -1.648,-2.7254 -5.1492,-1.2579 -1.4415,-1.4674 4.5313,-3.5642 v -2.5157 l -4.7375,-3.1448 3.7074,-2.0963 -0.6177,-4.4027 h 12.7701 l 3.5015,-2.3061 5.1492,4.8219 -3.5012,3.3543 -2.6778,0.4193 0.4122,2.9351 12.1522,-1.8867 8.4446,-7.7571 16.478,-0.6289 2.8835,-3.1448 3.7075,0.2098 v 6.7087 l -5.767,4.4027 6.7969,1.677 3.9134,-1.8869 1.4418,-4.4025 h 5.1493 l 2.8837,2.7254 -2.8837,6.2894 3.9134,1.4676 5.1493,-3.1447 5.1495,1.0482 1.4415,-2.7254 4.1195,-2.5158 1.854,-4.1929 6.5909,-6.2895 5.7674,0.2097 2.8835,3.3544 9.6807,1.0481 8.8565,-3.5639 2.8837,-3.3545 4.3256,5.6605 2.2657,-0.2096 2.8835,-5.4509 3.7074,-0.6289 -0.206,4.822 -1.0298,5.6605 2.8837,1.6772 6.7969,-3.1448 0.6181,-5.0315 -3.7076,-2.0964 1.0301,-1.6774 7.4148,-2.3061 7.2089,7.5474 -1.6478,5.6605 6.1793,1.2579 4.5314,-1.4676 7.621,2.0965 0.6179,-3.1446 -3.0897,-2.9352 0.8239,-2.3061 3.7075,-3.5639 -1.0299,-3.3545 -9.4748,-2.306 v -2.3062 l 4.1196,-3.1447 -3.2955,-1.0482 2.4717,-4.193 8.2388,-3.9833 11.5344,1.4676 6.5912,-1.2579 -0.206,-6.9184 -7.4151,-4.6124 h -7.8268 l -5.1493,-2.9349 4.3256,-4.4026 c 0,0 11.1221,-2.5157 12.1523,-2.5157 1.0298,0 1.0298,4.6121 1.0298,4.6121 l 10.2985,0.8385 4.3254,-2.7253 -1.4421,-5.2413 -4.9431,-2.0963 1.6477,-6.0799 10.0926,-4.8219 7.2092,-0.6289 3.0895,4.6123 4.3254,0.2097 6.5909,-7.3378 -1.2358,-2.7253 -8.4446,-3.5639 -0.8239,-1.4678 -3.7074,0.8385 -0.4121,3.3547 -3.9134,-1.2581 -0.8239,-2.7253 c 0,0 -5.7673,0 -8.4451,0 -2.6773,0 0,-2.0966 0,-2.0966 l 4.7375,-3.7737 0.2059,-6.2893 9.4747,-0.2097 3.9136,-4.6123 c 0,0 4.5313,0.2098 5.5611,0.2098 1.0301,0 0.6181,3.7736 0.6181,3.7736 l -1.8538,1.6772 4.3254,1.6772 7.2091,-1.887 2.2655,-3.9831 9.0629,-3.3546 3.5016,2.0967 -0.8239,4.8218 6.3849,7.5474 2.2658,-0.4195 9.0629,-8.805 -1.648,-4.8219 4.9433,-4.1929 5.3552,-0.6291 5.3552,6.4992 5.7674,-6.9183 7.621,-0.6293 c 0,0 -0.206,-4.6121 -1.6477,-5.0313 -1.442,-0.4194 -2.0598,-3.145 -2.0598,-3.145 l 2.2656,-4.6121 6.7971,1.6771 0.618,5.8703 5.5611,4.1929 4.5313,-0.8386 1.4418,-5.0315 -2.0595,-2.0964 1.2356,-4.1929 2.0599,-0.8385 3.5014,6.0796 7.415,-2.7253 1.0299,-6.9184 5.973,-3.5641 v -5.241 l 5.5615,-6.08 4.5311,-1.2579 -0.8238,-3.564 -3.0894,0.2097 -3.5015,2.306 -2.8838,-2.935 1.648,-2.7256 4.9435,-1.677 8.8564,1.677 6.5913,5.2413 -0.4122,3.7738 5.3554,-1.0483 4.5316,-5.8701 -0.2061,-6.9184 -6.3854,-4.8219 v -3.5639 l 4.3258,-0.2098 4.9432,5.4507 6.385,-1.677 2.8837,-5.2411 6.3852,-1.0484 v 6.0798 l 7.2088,5.451 3.9138,-4.1928 -2.472,-5.0317 2.2659,-3.7737 h 6.7969 l 7.621,10.0631 0.206,3.3543 3.0897,0.2096 1.442,-6.2894 2.4713,-0.4193 3.2955,3.1448 -2.2654,4.8218 4.3253,3.564 5.3552,-0.8384 6.3851,-11.1114 -4.5316,-3.9833 v -3.1449 l 4.9436,-1.6769 3.5016,3.7734 h 2.8832 l 1.4421,-8.1763 4.7373,-0.4191 2.8836,-3.9834 -0.824,-6.7087 3.7077,-3.3544 h 3.7074 l 2.2656,4.1931 -1.2358,5.2412 3.0898,3.5641 3.5013,-1.8869 -0.206,-2.7255 -1.0297,-6.709 -2.4718,-1.677 4.1194,-9.4342 h 6.5912 l 3.5017,-3.564 -7.2094,-5.2411 v -2.7256 l 7.6211,1.4677 3.5015,5.0318 -1.03,5.4506 13.1825,10.9019 9.0625,-0.6292 0.2062,-9.8534 -4.7374,-5.2412 -0.2061,-5.6605 5.3554,-5.451 -0.8239,-5.4506 -1.8539,-3.3545 0.4122,-3.3542 3.1165,-1.2517 5.2306,-0.067 2.5705,3.4889 5.313,-4.8843 3.4276,1.3954 6.6842,-3.14 4.113,1.9193 5.6558,-3.4893 1.0284,-4.3611 3.7704,-1.7443 3.2563,0.6979 4.1133,-4.0122 -1.5425,-4.8844 2.3993,-1.2212 11.3115,8.8966 1.1996,11.8622 8.3981,2.7911 6.3412,-5.7567 4.7986,-3.4887 -2.5708,-6.28 -9.5974,-3.4892 0.6854,-9.4195 8.912,-6.4545 h 6.6841 l 2.7421,3.663 h 4.9703 l 9.5974,-9.071 4.1133,1.2212 -0.3427,11.8623 -3.7706,1.7442 2.0567,5.7569 7.027,4.5354 h 5.4843 l 3.5989,-5.2333 6.8553,-5.2332 6.1699,2.4422 v 6.6287 l 6.1701,2.6168 2.9135,-4.7102 0.6853,-3.8377 c 0,0 11.3116,-6.6289 11.9972,-6.9777 0.6854,-0.3487 4.4557,-0.8722 4.4557,-0.8722 l 1.714,10.6412 1.7142,4.1866 -2.3999,4.012 4.4561,5.4077 5.6557,1.7445 5.4843,-4.7099 11.6542,2.0933 4.7987,2.4425 4.799,0.1741 v 4.5355 c 0,0 -2.7422,1.2214 -3.5992,1.7447 -0.8568,0.5233 0,3.1399 0,3.1399 l 4.1133,2.6167 -2.3994,4.3609 -3.2563,1.0467 2.0566,3.4888 3.9416,0.5236 1.3713,3.4888 6.8556,-3.8378 5.8269,1.919 1.5425,10.9899 -2.2279,1.57 1.5423,5.7566 5.3131,2.442 8.055,7.6758 7.5408,-1.2214 3.4279,-4.7097 -1.5425,-4.8846 -4.1132,-1.9187 0.5141,-4.5356 2.742,-2.4422 0.5142,-6.1055 -2.9136,-3.3146 3.0852,-0.6976 3.2561,1.7443 h 3.5991 l 6.3415,7.1522 1.0282,12.9087 h 5.3129 l 4.6274,-1.7443 6.6839,2.6167 8.2266,12.7345 5.6556,14.6531 7.8836,3.1399 5.8273,-2.2674 2.5707,-5.5825 -5.3128,-8.1989 -9.2551,-3.4886 -5.9982,-4.3611 0.1712,-5.2334 6.8555,-3.4888 28.6213,2.7909 6.8555,6.8035 -0.3428,5.2333 3.4277,5.9311 10.7972,0.523 6.1699,-5.2331 -1.7138,-4.361 -6.8555,-4.5356 -1.1998,-4.0122 4.9702,-3.6634 12.1684,1.57 5.9984,6.6292 -1.0283,19.1887 -2.9135,4.7097 0.8571,6.1056 8.0549,3.8378 5.4843,5.5822 7.5409,2.2677 4.2846,-4.0123 -1.3708,-7.1523 -8.912,-5.5821 v -2.9655 l 2.742,-2.0934 16.4528,8.3735 3.2563,6.9775 9.5977,7.6756 4.456,-2.9654 1.7139,-4.7102 13.7109,1.0467 8.9118,8.7222 -1.0284,15.7 4.2848,4.8844 5.6556,11.8624 5.6558,1.9188 3.7704,-3.3147 2.228,-9.4197 6.3412,-7.1523 v -8.7222 l 3.2565,-2.4421 6.1699,2.0933 2.742,-1.2213 -0.3427,-4.5356 -3.4276,-2.9653 4.97,-5.7567 20.3948,-6.4546 h 4.6273 l 5.1418,-3.3143 6.5126,-0.3486 3.9417,6.1054 0.3431,6.2797 -2.0569,1.3957 0.6856,4.71 5.1417,2.6167 8.3976,-3.1398 5.5176,1.3656 8.9036,6.0457 -6.19,5.6187 -7.914,8.2809 -1.4726,4.8306 -9.819,10.3276 -2.4285,12.0643 v 6.6629 l 3.7639,4.1643 8.4934,3.2334 6.3661,10.0627 -3.102,9.4911 1.8024,15.1515 -1.1455,6.8296 -6.7097,7.9955 -1.9639,8.9948 -6.5459,12.6596 -4.7238,4.3176 2.6824,5.6788 1.9791,5.5044 5.3686,6.8371 5.1121,6.3339 6.5239,7.9417 v 4.4974 l -5.4285,4.3635 0.9653,5.5619 7.5555,3.117 7.1537,1.9683 -1.9639,12.4931 -4.5822,4.664 -2.9456,19.1558 2.6183,4.1643 1.9639,10.3275 -6.2187,8.4953 -6.8735,5.1637 -2.9456,10.4941 3.4366,11.8267 v 15.9909 l -1.1455,5.4969 5.4007,11.1604 3.2727,18.1564 -0.9816,0.6663 -1.1458,3.8311 7.3644,7.3292 1.1457,12.493 -5.7278,9.1615 -0.3273,9.3281 4.2548,7.9955 v 5.3303 l -3.2732,7.1626 0.3274,12.6596 2.2911,7.4956 -3.764,15.1582 -5.5641,9.4946 -6.2189,8.3287 -3.2729,12.493 3.1096,5.6635 1.9637,11.9931 -3.1096,8.8284 3.2733,9.6612 3.109,12.9926 -1.9636,8.9949 -5.4005,3.165 -3.4367,10.8272 2.1274,10.9939 11.2918,8.9947 15.8746,4.8308 9.9827,5.4968 4.5821,10.3275 -2.291,6.4964 -0.4909,8.1619 2.4547,3.9978 8.3463,2.8318 4.5823,11.3269 -1.8001,7.3292 -4.5822,4.4975 -0.8185,6.9961 7.3644,4.8305 6.0551,13.4924 2.2912,8.6618 -5.5643,9.6612 -3.4367,10.4941 -8.8373,14.1587 -3.273,19.6556 -3.7638,2.6652 -6.5461,15.4912 4.5824,8.3286 8.6734,12.3264 -2.1275,13.1592 6.5461,9.4947 1.8002,6.3297 3.9277,3.4981 13.5829,4.9971 11.2921,15.991 v 14.4919 l 6.546,17.6565 6.8734,6.4965 0.3273,7.6623 2.9848,4.9085 -26.0865,9.8692 -45.0219,24.6226 -19.4869,30.0943 -10.7516,6.8394 -12.7674,12.3113 -21.5029,4.1038 v -4.7877 l -0.6721,-12.3114 -10.7513,-19.8347 -6.72,-0.684 -14.111,0.684 -10.0797,-5.4717 -6.7197,-5.4716 h -4.0315 l -16.1273,4.7876 -5.3758,-6.8395 3.3599,-10.2594 -1.3443,-6.1557 -7.3915,-1.368 -6.7193,6.8398 v 15.7309 l -8.0637,19.151 -6.0479,8.2073 -8.0636,-5.4714 6.7197,-8.8916 2.688,-10.9434 -8.0636,-4.7876 h -8.7354 l -2.6883,8.2075 0.6723,8.8913 -6.7199,8.8916 -6.7195,2.0518 -10.7517,-8.8914 3.3599,-7.5238 6.0477,-7.5234 2.0159,-10.9434 -8.0636,-5.4715 h -9.4075 l -11.4234,9.5754 -12.7675,1.3679 -11.4236,-7.5237 -5.3755,-0.6837 -6.0476,-6.8398 h -7.392 l -4.7036,8.2076 7.3917,1.3678 13.4395,4.1039 4.7036,8.8915 -4.7036,6.8396 h -9.4076 l -11.4236,-9.5754 h -11.4235 l -8.0635,2.7358 -10.0794,-6.1556 -5.3758,5.4716 h -12.0955 l -13.4393,-13.6792 h -5.3756 l -5.3758,8.2076 1.3438,7.5235 v 6.1557 l -5.3755,6.1554 v 4.788 l 8.7356,6.1554 -1.3443,8.2076 -8.0636,2.0518 h -4.0319 l -10.7512,5.4717 -8.0637,-2.7358 -8.7352,-4.7877 -8.736,-1.3678 -8.7355,3.4196 -2.0159,8.8915 2.6879,6.1557 10.7515,4.7878 6.048,4.7876 10.7514,6.8396 v 7.5237 l -4.0321,8.2073 -8.0634,0.684 -8.0636,-15.047 -8.7356,-7.5235 -6.0479,-0.6841 -3.3599,7.5235 2.0163,5.4717 4.0316,8.2076 -0.6721,7.5235 -8.7355,0.6841 -2.688,-5.4718 -8.7353,-4.1036 -10.7516,4.7876 -12.7676,12.9952 -2.6876,9.5754 6.0478,8.2076 3.3596,7.5235 -7.3918,6.1557 -6.7193,-0.684 -12.7674,-18.4669 -10.7516,-6.8396 -8.7356,0.6838 -1.3438,5.4717 2.688,6.1558 12.0951,10.2594 4.0322,7.5235 v 4.7876 l -8.7359,1.368 v -8.2075 l -9.4074,-9.5753 -6.0478,0.6837 -1.344,7.5238 -5.3757,1.3678 -4.704,-4.7877 h -6.0474 l -11.4234,4.7877 h -7.3917 l -7.3918,-16.4151 -12.0953,-6.1554 -6.7196,0.6837 -1.3439,8.2076 6.7195,6.1557 13.4393,3.4199 5.3758,8.2074 -7.3915,7.5237 -8.0635,-10.9435 -12.7281,-0.1596 -7.0698,6.3926 -11.9549,-0.4682 -4.1381,-3.276 -4.5981,0.468 -7.3567,-4.68 -5.9775,-2.808 -9.1961,2.3399 -3.2184,7.9561 -0.4602,16.3804 -9.1957,11.2322 -13.3346,4.6801 -9.1958,-6.552 -10.1157,-10.7643 -6.8968,0.4681 -4.5983,5.6161 0.4595,9.36 9.1963,12.1683 1.8393,6.5521 6.897,9.3602 -5.5177,5.6161 -6.8969,-4.212 -1.3792,-11.7003 -5.0583,-6.5522 -8.7362,-1.8719 -13.3341,7.0202 -10.1157,8.4241 h -6.4374 l -9.1959,-6.552 -0.4598,-10.2964 4.5981,-9.3602 -0.9198,-9.3601 -10.1156,-4.6801 -5.5175,2.34 -1.8394,6.5522 7.3569,11.7002 0.4597,12.1682 -3.2186,8.8921 -6.8969,1.8721 -5.0578,-1.8721 -8.2763,-7.9559 h -10.1161 l -13.334,5.616 -10.5756,14.9762 -5.5176,2.3401 -3.6784,8.8922 -9.1961,5.1481 -5.9775,-4.2121 -2.7587,-6.5522 -5.9773,0.468 -3.2189,5.1482 -6.4371,3.744 -5.9775,-1.8721 -4.5979,-7.9561 -0.46,-11.2321 -6.4368,-2.8081 -4.1388,3.276 -11.035,16.8484 -15.6335,9.8282 -11.035,-2.3402 -1.3794,-5.1481 8.2764,-4.6801 5.5176,-6.0841 0.4597,-8.4241 -6.8971,-2.8081 -4.598,4.6802 h -8.2763 l -4.5982,-4.2121 6.897,-12.6361 -4.5977,-5.1483 -9.1963,1.8721 -2.2989,12.6362 -6.4373,6.0841 -6.897,-4.6801 -3.2187,-21.5284 -12.4145,-8.8922 -11.4952,-0.4678 -4.1384,3.7439 2.2992,8.4242 10.5755,12.1683 -3.6786,20.5922 -10.1154,9.3602 -8.2766,-1.872 -1.839,-11.7002 6.8972,-9.3601 2.7586,-13.5724 -5.5177,-8.8922 -6.8972,-0.936 -5.9772,5.1481 -1.8394,8.4243 -15.6332,5.1481 -8.7363,8.4241 -8.7362,5.1481 -5.0578,-4.212 -1.8393,-8.8922 -4.1382,-0.468 -3.2184,3.276 -0.9197,6.0842 -7.8168,6.084 -8.2764,-0.4679 -7.8167,-15.4445 -6.4375,-13.1042 -11.9546,-1.8719 -9.6558,6.552 -5.0578,15.9123 -1.3795,12.6363 -5.5177,3.7441 -5.5172,-3.7441 4.5976,-9.8283 -3.6783,-3.7439 -7.8169,-0.4681 -10.1154,2.8081 -15.6331,-1.8719 -10.1159,-3.7442 -7.8168,-0.4681 -5.5175,5.1482 0.9196,3.2761 11.495,-2.3401 3.2185,5.6161 -8.7363,7.4881 -1.8388,8.8923 5.9772,9.8281 -2.9529,10.4021 -8.2764,7.4883 1.3796,7.4881 -4.598,3.744 -4.1385,-6.0841 -5.5178,-9.8281 h -7.3564 l -1.8394,3.276 1.3794,7.4881 -10.1156,5.6161 -5.9777,-1.872 -3.2182,-8.4242 -7.8168,-1.872 -7.8165,6.0841 -1.8395,10.2962 -9.1961,14.9763 -4.1383,-0.4681 -0.4594,-5.148 -0.92,-13.5723 -11.4948,-10.7641 -9.196,-3.7441 -5.9777,2.8081 v 7.02 c 0,0 4.5981,4.6801 6.4374,5.1482 1.8391,0.468 5.9772,0 5.9772,0 l 5.5177,6.5521 -0.9194,8.4241 -8.2766,3.276 -7.8167,-4.212 -9.1959,-10.7642 -12.8745,-2.34 -7.3569,4.6801 -1.3793,12.1682 0.9197,14.5083 -9.656,8.8921 -5.9772,-3.7441 -2.2995,-7.02 3.6786,-9.8283 v -6.0841 l -9.1962,-7.0201 -10.5751,1.404 -4.1384,8.8922 4.1384,12.1682 10.1154,17.3163 8.2768,9.8282 -1.8396,5.1481 -5.5174,-1.404 -14.7139,-5.1481 -6.4369,-5.6161 -1.3795,-11.2322 -5.9777,-14.5083 -7.8165,-5.6161 -6.8971,2.34 -4.1383,7.0202 1.8396,8.4241 11.4948,10.2962 3.6783,7.0202 5.0581,2.808 -0.9198,11.2322 -5.9774,6.5521 v 11.2323 l -2.2992,7.4881 h -9.6557 l -7.3566,2.3401 -2.7589,-8.4242 -5.5178,-8.8922 -11.4951,-5.148 -14.2538,0.4679 -4.5982,5.6161 1.8393,9.8282 12.8745,10.7642 v 11.2323 l -5.5176,6.5521 h -13.3345 l -9.1958,6.0841 -7.8167,6.0841 h -8.2766 l -5.5175,-10.7642 2.7589,-10.2962 -1.3795,-6.0841 -10.1156,-3.7441 -6.4374,3.7441 -7.3566,11.2322 -13.7943,5.6161 h -5.5175 l -7.8167,2.8081 -6.897,-2.3401 -5.0577,-2.34 0.4595,-7.0202 -4.1381,-1.872 -6.897,4.6801 -0.4599,4.2121 3.6785,7.4881 -4.5981,7.9562 -11.9549,6.0841 h -5.9773 l -8.2762,4.212 v 3.7441 l 7.8163,4.2121 10.5757,14.5083 h 7.3568 l 7.8165,7.9561 6.897,3.744 v 11.7003 l -6.4371,-0.468 -7.3566,-7.4882 -13.7945,3.2761 -5.0578,7.9561 9.1963,14.0404 h 5.9771 l 7.3569,6.5521 1.8394,15.9123 v 13.5723 l -10.5756,5.148 -6.4372,-2.34 0.4597,-12.1681 -3.2184,-11.2324 -9.196,-3.7441 -5.9774,4.6801 2.2988,12.1684 9.6559,11.2321 -3.6784,9.8282 -10.1158,4.2121 -10.5754,-6.0842 -2.2989,-13.1042 -9.1962,-3.7441 -4.1382,6.0842 9.1962,9.3602 -2.7587,8.8921 h -6.8973 l -3.2187,-10.7642 -11.955,4.6801 -3.6783,8.8921 2.8224,5.9434 -7.8169,8.4242 -12.4144,2.808 -2.7591,11.7003 5.0897,7.3473 -1.7016,7.1556 -5.6869,2.8133 h -13.7944 l -5.0577,6.5523 3.2188,7.0201 23.4498,-0.468 13.7941,13.1042 -0.4598,7.9562 -12.4148,5.1481 -13.3342,-2.3401 -4.1381,4.68 8.2763,6.5523 5.9776,14.5081 2.4692,16.9415 1.8363,8.545 -1.8363,13.3518 -4.7226,2.1361 -9.1824,-1.335 -6.2963,6.1415 -9.445,5.608 -5.7716,-1.3353 -6.7876,-2.0967 -7.5743,5.1358 0.9821,7.3753 4.9845,12.8177 -1.574,10.1473 -7.0837,10.1472 -7.0835,-0.8011 -9.7068,4.5397 -5.5092,4.8065 -11.806,5.3407 -30.6792,2.8451 -12.3307,6.1418 -6.821,0.5341 -2.0988,-1.8694 -6.0344,4.2726 2.6236,7.7441 1.6976,6.3169 -9.7316,-2.4745 -16.7374,-13.2838 -5.5792,-1.8597 -9.2985,-1.594 -5.5791,-11.4239 h -3.1883 l -5.579,-5.0478 -7.1733,2.391 -5.0478,11.4239 1.5942,2.9225 -7.7045,13.2836 -4.5165,-1.0626 -6.6418,-6.1105 -0.797,-10.3613 -5.0478,-18.0658 -11.424,-3.4537 -4.5166,4.2507 2.3913,7.1732 11.4239,9.5643 1.8597,7.7045 -2.9226,11.4239 -5.0477,2.3911 -3.4538,6.1105 -4.782,1.0627 -5.8448,-0.797 -2.6567,3.985 1.594,3.7195 -7.7045,5.3134 -11.9553,11.6897 -8.2359,-1.8597 -1.8597,-6.1105 2.6567,-7.9703 1.0628,-7.4388 -2.1255,-9.0329 -3.188,-2.1254 -3.9851,0.797 -6.6418,6.3762 -2.391,5.5791 -11.6898,5.3135 -7.4388,-0.5313 -11.4238,3.4538 -10.8928,1.8596 -3.4535,-3.4538 0.2655,-3.4536 7.1732,-1.3285 6.1106,-5.3134 c 0,0 -0.5315,-8.7672 -1.5942,-9.5642 -1.0626,-0.797 -6.6418,-8.236 -6.6418,-8.236 l -14.8777,-2.391 -5.5792,5.5792 -11.1581,9.5642 -2.6567,5.5792 -4.7823,3.4537 c 0,0 -4.5163,-1.8597 -4.5163,-2.9224 0,-1.0627 -1.0628,-4.5165 -1.0628,-4.5165 l 7.1731,-10.6269 -0.2655,-5.3135 5.0477,-5.8448 -0.5314,-9.2985 -13.5494,-7.9702 -3.188,3.9851 -0.5312,6.1105 8.2357,9.5642 -0.797,3.7194 -0.2657,5.8448 -6.6418,6.1105 -6.1105,-3.4537 -5.5791,-9.5643 -4.782,-17.2687 -4.2508,-7.9702 -4.5165,-1.0627 h -6.1105 l -6.6419,5.8448 0.7971,6.9075 6.9076,6.1105 2.1252,6.9075 -1.594,10.0956 -6.6418,6.1105 -5.8448,1.0626 -6.6417,-4.5164 -1.5941,-7.1732 7.4389,-8.7672 1.3282,-8.2359 -6.376,-6.3761 h -4.7823 l -6.6418,4.7821 -5.3133,3.1881 -4.7823,-0.7971 -3.7193,-2.9223 -3.1882,-6.9076 -2.1253,-1.594 -1.3285,-3.7194 -6.6418,-1.5941 -5.579,6.9075 -3.9853,0.3986 v -2e-4 l -3.3208,7.439 0.2657,7.3059 -3.8522,8.2359 -6.7747,-7.5717 -5.8447,-3.4537 -0.5315,-6.2434 7.0404,-1.8597 3.0552,1.9925 6.2434,-4.782 c 0,0 -0.2658,-3.1881 -1.0628,-3.9851 -0.7971,-0.797 -7.7046,-1.594 -7.7046,-1.594 l -7.5716,-1.4613 -3.4538,-3.8522 0.5316,-6.7747 -3.8525,-6.2433 -4.3738,-1.9644 -3.235,-1175.9479 z"
     style="fill:#fefee9;fill-opacity:1;stroke:#646464;stroke-width:0.85333335;stroke-linecap:butt;stroke-linejoin:round;stroke-miterlimit:4;stroke-dasharray:none;stroke-opacity:1"
     id="Cumaribo,_Código_DANE_:_99773" />
  <path
     d="m 389.4242,672.9793 274.899,338.2825 3e-4,2e-4 -3.9349,-0.9244 -2.1846,0.5929 -1.3109,2.9649 1.7479,1.0377 1.8933,5.485 -2.7673,1.7789 c 0,0 0,6.9675 -2.3303,8.1534 -2.3301,1.1859 -9.1757,4.4472 -9.1757,4.4472 l -2.767,4.7439 1.7476,1.1859 -1.4564,2.6684 -6.554,-1.7789 -1.1651,3.1131 h -2.9129 l 0.5825,-3.2613 -4.6607,-1.4824 -1.7475,2.2235 1.0193,2.3719 -2.6215,5.0403 -1.1651,-1.4824 -4.078,-0.2965 -0.2916,1.6308 c 0,0 -2.9126,1.7789 -3.6407,2.3717 -0.7282,0.5931 -4.3694,4.2991 -4.3694,4.2991 l 1.6022,0.5931 0.1456,2.0753 -2.6217,3.1132 c 0,0 0.1457,-2.2237 -0.7281,-2.372 -0.8741,-0.1482 -4.3691,0 -4.3691,0 l -2.913,2.8167 -0.2914,5.7814 -3.9322,1.4825 h -4.5152 l 0.7284,-3.1132 -2.1848,-0.8894 -2.0391,4.8921 -4.078,-0.7413 -5.5346,6.078 5.0978,4.1508 -0.1457,3.1131 -5.243,2.6684 -1.4566,-3.2614 -3.4955,1.6308 -4.515,4.4472 1.3107,1.6307 -2.039,4.8921 -4.8062,1.7789 -4.6607,-1.4825 0.2914,-2.8166 -1.3107,-0.4447 -3.7868,3.7061 -4.078,0.2963 1.1651,-2.9648 -3.7866,-4.5955 h -5.5346 l -4.6606,2.2237 -2.1846,-3.2613 -6.4082,0.7412 -2.3307,-3.5579 -5.0973,0.2964 1.7475,4.8921 -9.1754,11.7111 c 0,0 -1.8932,-2.9648 -2.4759,-2.9648 -0.5825,0 -4.9519,0.1484 -4.9519,0.1484 l -0.437,4.1508 -2.4758,1.7789 5.0976,3.7062 1.165,3.4094 -4.3693,4.0027 -2.7671,-3.4096 -5.2434,0.7411 -2.476,5.0404 -2.6213,-1.6308 h -2.7677 l -0.1457,2.5201 -3.4954,2.6685 -0.7282,-1.4825 1.311,-0.7412 -0.2915,-6.2262 -6.1169,1.9271 v -3.706 l -3.0585,-1.1859 -3.9325,2.2237 2.0391,1.3341 -1.6021,2.8166 -6.2625,0.593 0.291,-4.5957 -3.204,-1.334 -2.039,2.5201 -3.2043,-6.3745 h -6.8454 l -0.1457,-3.8543 -3.9324,0.8895 v 1.0376 l -10.1949,2.6685 -3.0588,-4.0027 -9.1755,-4.8919 -3.3498,0.7411 -3.0583,-3.4095 -7.2823,-0.4448 -4.6608,-6.2261 -9.03,1.0376 -2.476,-8.0052 -11.6513,1.4826 c 0,0 -0.8739,-3.1132 -1.6021,-3.2615 -0.728,-0.1483 -4.8063,-0.1483 -4.8063,-0.1483 0,0 -0.8736,3.1132 -1.4563,3.7061 -0.5826,0.593 -5.8258,3.1131 -5.8258,3.1131 l -1.4565,-4.299 -10.7777,-0.1483 -9.4669,-5.0402 1.7477,-1.6307 0.8741,-10.5254 -4.6608,-2.8165 1.8935,-2.2237 -4.8064,-6.6709 h -4.6604 l -1.3108,2.2237 -6.6997,0.4446 -1.602,-1.9272 -3.6412,2.965 -5.8257,0.2964 -2.5329,-3.5822 -4.7053,-2.394 -8.2943,2.3698 -1.6589,-0.9479 -2.8437,0.2369 -2.1328,-0.4739 -5.9245,4.0287 -2.1328,-0.948 -3.7916,2.1328 2.6067,3.0808 -1.8958,3.0807 -5.4506,1.1849 -1.4218,2.3698 h -1.4219 l -0.474,4.0287 -4.2656,-1.4219 -3.3178,-3.0807 -0.2369,1.6588 -1.6589,-0.474 -0.9479,-3.5547 -4.2656,-4.0286 -0.4741,-2.8438 -6.3984,-1.8958 -0.237,-1.6588 -7.1093,-0.948 -4.0287,1.6589 -4.7396,-0.237 -2.3698,-2.3698 -3.0808,0.237 -2.8437,2.3698 -3.0808,-3.5547 h -4.0287 l -2.3697,-2.6068 h -1.6588 l -1.185,1.4219 -3.3177,-0.474 -1.8958,2.8438 -4.0286,-1.8958 -4.5026,0.9478 -2.3699,4.9767 -3.0807,0.9479 -7.1094,4.2656 -1.1849,5.4506 -3.7917,1.6587 -2.1328,-0.7109 -12.086,1.422 -2.8438,2.1328 -3.7917,1.1848 -4.9765,3.3178 v 3.5547 l 1.8958,0.9479 1.1849,6.8724 2.3699,3.3177 -0.2371,6.1615 -2.8437,2.6068 -1.8959,1.4219 -0.9478,2.1328 -8.5313,-1.6589 -1.185,-2.6067 -5.6875,-5.6876 h -2.3698 l -3.7917,2.1328 -6.6354,0.7109 -5.6875,3.5548 h -4.7396 l -3.0807,-1.6589 -4.2657,0.474 -4.9765,4.0286 -9.4793,5.6875 -6.6769,1.5148 -0.3633,-108.4012 10.7094,-7.7197 5.0514,-0.4715 6.8884,-8.0177 v -5.6597 l 3.444,-4.9521 5.9697,-1.4149 4.1329,-7.546 5.0513,-4.4806 4.5922,-13.913 0.9182,-5.1879 4.1332,-5.8953 5.5105,-4.2448 2.9849,-7.0744 3.444,-2.8299 1.148,-7.3102 -1.6072,-4.952 v -5.8954 l 3.2144,-2.1224 5.9699,-2.3581 3.6737,-7.0745 0.4592,-4.7163 5.7403,-6.8387 -2.0665,-7.0744 3.2144,-2.8298 1.8368,-9.6684 6.8884,-9.9042 6.6585,-1.6506 9.1841,-4.7163 8.7252,-2.1224 1.8369,0.7075 3.9033,-2.8299 12.3985,-2.1224 3.2145,1.8865 6.1995,-2.5939 6.8882,-8.2534 5.9697,-1.4149 2.5256,-3.5373 -0.9184,-5.6595 3.2146,-6.8387 7.3475,-4.0088 h 3.6735 l 10.7914,-7.0745 11.2508,-5.4238 0.9185,-5.1878 12.858,-8.0177 4.3625,-4.4805 0.6887,-4.7163 2.7553,-5.4238 6.6586,-5.1879 3.9034,0.7075 9.4138,-6.6029 5.7402,-2.1223 6.8881,-6.367 3.9035,-3.0657 -2.0667,-7.5459 4.5921,-10.6117 2.5258,-0.9433 0.6888,-6.8387 -2.0664,-5.6595 -3.6736,-10.6117 -4.822,-9.4326 2.7553,-6.1311 7.1179,-4.0088 h 6.1993 l 7.1177,-0.4718 3.444,-4.0089 6.8883,-0.7074 z"
     style="fill:#fefee9;fill-opacity:1;stroke:#646464;stroke-width:0.85333335;stroke-linecap:butt;stroke-linejoin:round;stroke-miterlimit:4;stroke-dasharray:none;stroke-opacity:1"
     id="Santa_Rosalía,_Código_DANE_:_99624" />
  <g
     id="layer10"
     style="display:inline"
     transform="translate(-4748.6089,-3444.8154)">
    <path
       id="path6785"
       style="fill:none;stroke:#646464;stroke-width:3.20000005;stroke-linecap:butt;stroke-linejoin:round;stroke-miterlimit:4;stroke-dasharray:none;stroke-opacity:1"
       d="m 7144.8637,3640.001 5.0733,7.3292 -0.8184,4.3308 -2.6183,3.1649 0.1638,9.3281 7.6917,2.9984 5.0732,3.8312 10.9646,4.9972 0.9819,1.9988 10.9649,10.3275 0.9818,10.6606 4.255,3.498 h 2.6184 l 6.8735,5.6636 2.6186,9.1614 -3.9278,6.663 -4.9096,0.4996 -9.1646,7.8289 -2.2911,3.8312 -14.7288,8.6617 -4.7457,4.331 -1.6368,8.6618 -4.0912,7.4957 -12.601,3.3315 -17.5109,6.1632 -4.0912,4.3309 -13.7469,10.3275 -3.764,8.3286 0.3273,3.9977 -8.1826,6.4964 -9.6554,2.6652 -9.6554,16.8237 0.9819,9.9944 -4.9095,9.4946 -2.6184,14.6584 -3.9277,5.1639 -6.4473,15.3922 -4.9095,5.3304 -4.2548,1.6656 -7.3645,10.3276 -1.3092,9.6612 2.6184,6.663 7.0371,4.8305 2.7821,4.8306 -0.8183,14.825 3.1094,10.9939 v 6.4962 l 6.2189,10.3276 -2.4551,6.3297 3.7641,9.9944 v 11.327 l 6.219,7.1625 5.5638,3.8313 3.1096,5.8299 -3.2732,6.3299 -2.2909,7.8289 -3.1093,4.4973 -6.0552,12.6596 1.4728,1.166 -0.6545,9.4947 -5.0733,3.3315 0.1639,6.3297 -7.5281,6.4963 -3.9273,0.9995 -9.9828,10.3274 -8.6738,3.6646 -8.3461,4.1643 -3.764,4.331 -13.2558,7.1626 -7.6918,11.9932 -13.7467,6.4963 -10.9646,3.4981 -8.51,9.4946 -7.8552,-0.3332 -14.7287,13.1593 -7.9139,8.2808 -1.4726,4.8306 -9.819,10.3276 -2.4285,12.0643 v 6.663 l 3.7638,4.1642 8.4935,3.2334 6.366,10.0627 -3.1019,9.4911 1.8023,15.1516 -1.1455,6.8295 -6.7096,7.9956 -1.964,8.9947 -6.5459,12.6597 -4.7237,4.3175 2.6823,5.6788 1.9791,5.5045 5.3687,6.8371 5.1121,6.3338 6.5238,7.9417 v 4.4975 l -5.4285,4.3634 0.9654,5.5619 7.5555,3.117 7.1537,1.9684 -1.964,12.4931 -4.5822,4.664 -2.9456,19.1557 2.6184,4.1644 1.9638,10.3275 -6.2186,8.4952 -6.8735,5.1637 -2.9456,10.4941 3.4366,11.8268 v 15.9908 l -1.1455,5.497 5.4006,11.1603 3.2728,18.1565 -0.9817,0.6662 -1.1457,3.8312 7.3644,7.3291 1.1457,12.4931 -5.7278,9.1614 -0.3274,9.3282 4.2549,7.9955 v 5.3302 l -3.2732,7.1627 0.3273,12.6595 2.2911,7.4957 -3.7639,15.1582 -5.5642,9.4946 -6.2189,8.3286 -3.2728,12.493 3.1095,5.6635 1.9638,11.9932 -3.1097,8.8283 3.2733,9.6613 3.109,12.9925 -1.9635,8.995 -5.4005,3.1649 -3.4367,10.8272 2.1273,10.9939 11.2919,8.9948 15.8745,4.8307 9.9827,5.4969 4.5821,10.3274 -2.291,6.4965 -0.4908,8.1619 2.4547,3.9977 8.3462,2.8318 4.5823,11.327 -1.8001,7.3291 -4.5822,4.4975 -0.8184,6.9962 7.3643,4.8305 6.0552,13.4924 2.2912,8.6617 -5.5644,9.6613 -3.4367,10.494 -8.8372,14.1588 -3.2731,19.6555 -3.7637,2.6652 -6.5461,15.4912 4.5824,8.3286 8.6733,12.3264 -2.1274,13.1593 6.546,9.4946 1.8002,6.3297 3.9277,3.4981 13.5829,4.9972 11.2922,15.9909 v 14.4919 l 6.5459,17.6566 6.8734,6.4964 0.3274,7.6623 2.9847,4.9086 -26.0865,9.8691 -45.0219,24.6226 -19.4869,30.0943 -10.7516,6.8395 -12.7673,12.3112 -21.503,4.1038 v -4.7876 l -0.6721,-12.3115 -10.7512,-19.8346 -6.72,-0.6841 -14.1111,0.6841 -10.0796,-5.4717 -6.7197,-5.4717 h -4.0316 l -16.1273,4.7876 -5.3757,-6.8394 3.3599,-10.2595 -1.3444,-6.1557 -7.3914,-1.368 -6.7194,6.8398 v 15.731 l -8.0637,19.1509 -6.0479,8.2074 -8.0635,-5.4715 6.7196,-8.8915 2.688,-10.9435 -8.0635,-4.7876 h -8.7355 l -2.6882,8.2076 0.6722,8.8913 -6.7199,8.8915 -6.7195,2.0518 -10.7516,-8.8914 3.3599,-7.5237 6.0476,-7.5234 2.0159,-10.9435 -8.0635,-5.4715 h -9.4075 l -11.4235,9.5754 -12.7674,1.3679 -11.4236,-7.5236 -5.3756,-0.6838 -6.0476,-6.8397 h -7.392 l -4.7035,8.2075 7.3916,1.3678 13.4395,4.1039 4.7037,8.8915 -4.7037,6.8396 h -9.4076 l -11.4235,-9.5754 h -11.4235 l -8.0636,2.7358 -10.0793,-6.1556 -5.3758,5.4717 h -12.0956 l -13.4393,-13.6793 h -5.3755 l -5.3758,8.2076 1.3438,7.5235 v 6.1558 l -5.3756,6.1554 v 4.7879 l 8.7357,6.1554 -1.3443,8.2076 -8.0636,2.0518 h -4.0319 l -10.7513,5.4717 -8.0636,-2.7358 -8.7353,-4.7877 -8.736,-1.3678 -8.7355,3.4196 -2.0159,8.8916 2.6879,6.1557 10.7515,4.7877 6.048,4.7877 10.7515,6.8395 v 7.5238 l -4.0321,8.2072 -8.0635,0.6841 -8.0636,-15.0471 -8.7355,-7.5235 -6.0479,-0.684 -3.3599,7.5235 2.0163,5.4717 4.0316,8.2075 -0.6721,7.5235 -8.7355,0.6841 -2.688,-5.4718 -8.7354,-4.1036 -10.7515,4.7877 -12.7676,12.9952 -2.6877,9.5753 6.0479,8.2076 3.3596,7.5235 -7.3918,6.1558 -6.7194,-0.6841 -12.7673,-18.4669 -10.7516,-6.8396 -8.7357,0.6839 -1.3438,5.4717 2.688,6.1557 12.0952,10.2594 4.0322,7.5235 v 4.7877 l -8.7359,1.368 v -8.2075 l -9.4075,-9.5754 -6.0478,0.6838 -1.344,7.5237 -5.3756,1.3679 -4.704,-4.7877 h -6.0474 l -11.4235,4.7877 h -7.3917 l -7.3917,-16.4152 -12.0954,-6.1554 -6.7196,0.6838 -1.3439,8.2075 6.7195,6.1558 13.4394,3.4198 5.3757,8.2075 -7.3914,7.5236 -8.0636,-10.9435 -12.7281,-0.1595 -7.0698,6.3925 -11.9548,-0.4682 -4.1382,-3.2759 -4.5981,0.4679 -7.3566,-4.68 -5.9775,-2.808 -9.1962,2.34 -3.2183,7.956 -0.4602,16.3804 -9.1957,11.2322 -13.3347,4.6801 -9.1958,-6.552 -10.1156,-10.7642 -6.8969,0.468 -4.5983,5.6161 0.4596,9.36 9.1962,12.1683 1.8394,6.5522 6.8969,9.3602 -5.5176,5.6161 -6.897,-4.2121 -1.3792,-11.7002 -5.0582,-6.5523 -8.7362,-1.8719 -13.3341,7.0202 -10.1157,8.4241 h -6.4375 l -9.1958,-6.552 -0.4599,-10.2963 4.5981,-9.3602 -0.9198,-9.3601 -10.1156,-4.6801 -5.5174,2.3399 -1.8395,6.5522 7.3569,11.7003 0.4597,12.1681 -3.2185,8.8922 -6.897,1.8721 -5.0578,-1.8721 -8.2763,-7.956 h -10.116 l -13.3341,5.616 -10.5756,14.9762 -5.5175,2.3402 -3.6784,8.8921 -9.1962,5.1481 -5.9775,-4.2121 -2.7587,-6.5522 -5.9773,0.4681 -3.2188,5.1481 -6.4372,3.744 -5.9775,-1.8721 -4.5978,-7.956 -0.4601,-11.2321 -6.4368,-2.8081 -4.1388,3.2759 -11.0349,16.8484 -15.6335,9.8282 -11.035,-2.3402 -1.3794,-5.148 8.2763,-4.6801 5.5177,-6.0842 0.4596,-8.4241 -6.897,-2.8081 -4.598,4.6802 h -8.2764 l -4.5982,-4.212 6.8971,-12.6362 -4.5978,-5.1483 -9.1962,1.8722 -2.2989,12.6361 -6.4374,6.0842 -6.8969,-4.6801 -3.2188,-21.5285 -12.4145,-8.8921 -11.4951,-0.4679 -4.1385,3.7439 2.2992,8.4242 10.5756,12.1684 -3.6786,20.5922 -10.1154,9.3602 -8.2766,-1.872 -1.8391,-11.7003 6.8972,-9.3601 2.7586,-13.5724 -5.5176,-8.8921 -6.8972,-0.936 -5.9773,5.148 -1.8394,8.4244 -15.6331,5.148 -8.7363,8.4241 -8.7363,5.1482 -5.0578,-4.2121 -1.8392,-8.8921 -4.1383,-0.4681 -3.2183,3.2761 -0.9198,6.0841 -7.8167,6.0841 -8.2764,-0.468 -7.8168,-15.4444 -6.4374,-13.1043 -11.9547,-1.8719 -9.6558,6.552 -5.0578,15.9124 -1.3795,12.6362 -5.5176,3.7441 -5.5173,-3.7441 4.5977,-9.8282 -3.6783,-3.7439 -7.817,-0.4682 -10.1154,2.8081 -15.6331,-1.8719 -10.1159,-3.7442 -7.8167,-0.468 -5.5176,5.1481 0.9197,3.2762 11.4949,-2.3402 3.2186,5.6161 -8.7363,7.4881 -1.8389,8.8923 5.9772,9.8282 -2.9528,10.4021 -8.2764,7.4882 1.3795,7.4881 -4.598,3.744 -4.1384,-6.084 -5.5179,-9.8282 h -7.3564 l -1.8393,3.2761 1.3794,7.4881 -10.1156,5.6161 -5.9777,-1.872 -3.2183,-8.4242 -7.8167,-1.872 -7.8166,6.084 -1.8394,10.2962 -9.1962,14.9763 -4.1382,-0.468 -0.4594,-5.1481 -0.92,-13.5722 -11.4949,-10.7642 -9.1959,-3.7441 -5.9777,2.8081 v 7.0201 c 0,0 4.5981,4.6801 6.4373,5.1481 1.8392,0.4681 5.9773,0 5.9773,0 l 5.5176,6.5521 -0.9193,8.4241 -8.2766,3.2761 -7.8168,-4.2121 -9.1959,-10.7641 -12.8745,-2.3401 -7.3569,4.6801 -1.3793,12.1682 0.9197,14.5083 -9.656,8.8922 -5.9772,-3.7441 -2.2995,-7.0201 3.6786,-9.8283 v -6.084 l -9.1961,-7.0202 -10.5752,1.4041 -4.1383,8.8921 4.1383,12.1683 10.1154,17.3162 8.2768,9.8283 -1.8395,5.148 -5.5175,-1.4039 -14.7139,-5.1482 -6.4369,-5.6161 -1.3794,-11.2322 -5.9777,-14.5083 -7.8166,-5.6161 -6.897,2.3401 -4.1384,7.0202 1.8396,8.4241 11.4948,10.2962 3.6783,7.0201 5.0582,2.808 -0.9198,11.2322 -5.9774,6.5522 v 11.2323 l -2.2992,7.4881 h -9.6558 l -7.3566,2.34 -2.7588,-8.4242 -5.5179,-8.8921 -11.495,-5.1481 -14.2539,0.468 -4.5982,5.6161 1.8394,9.8281 12.8744,10.7643 v 11.2322 l -5.5175,6.5521 h -13.3345 l -9.1959,6.0842 -7.8167,6.084 h -8.2766 l -5.5174,-10.7641 2.7588,-10.2963 -1.3794,-6.084 -10.1156,-3.7441 -6.4375,3.7441 -7.3566,11.2321 -13.7942,5.6161 h -5.5176 l -7.8167,2.8081 -6.897,-2.34 -5.0577,-2.3401 0.4596,-7.0202 -4.1382,-1.872 -6.8969,4.6802 -0.46,4.212 3.6785,7.4881 -4.5981,7.9563 -11.9548,6.084 h -5.9773 l -8.2763,4.2121 v 3.7441 l 7.8163,4.212 10.5757,14.5083 h 7.3568 l 7.8165,7.9562 6.897,3.744 v 11.7002 l -6.437,-0.4679 -7.3567,-7.4882 -13.7945,3.276 -5.0578,7.9562 9.1963,14.0403 h 5.9772 l 7.3569,6.5521 1.8393,15.9123 v 13.5723 l -10.5755,5.1481 -6.4373,-2.3401 0.4598,-12.1681 -3.2185,-11.2323 -9.1959,-3.7441 -5.9774,4.6801 2.2988,12.1683 9.6559,11.2321 -3.6784,9.8283 -10.1159,4.212 -10.5753,-6.0841 -2.2989,-13.1042 -9.1963,-3.7442 -4.1381,6.0842 9.1961,9.3602 -2.7587,8.8922 h -6.8973 l -3.2186,-10.7643 -11.955,4.6801 -3.6783,8.8922 2.8224,5.9433 -7.817,8.4243 -12.4144,2.808 -2.759,11.7002 5.0897,7.3473 -1.7017,7.1557 -5.6869,2.8133 h -13.7943 l -5.0577,6.5522 3.2187,7.0202 23.4498,-0.4681 13.7942,13.1042 -0.4599,7.9563 -12.4148,5.148 -13.3342,-2.34 -4.138,4.68 8.2763,6.5522 5.9776,14.5082 2.4692,16.9414 1.8363,8.5451 -1.8363,13.3518 -4.7227,2.1361 -9.1824,-1.3351 -6.2963,6.1416 -9.4449,5.608 -5.7716,-1.3354 -6.7877,-2.0966 -7.5743,5.1358 0.9821,7.3752 4.9846,12.8177 -1.574,10.1473 -7.0837,10.1472 -7.0836,-0.801 -9.7067,4.5397 -5.5093,4.8065 -11.8059,5.3407 -30.6793,2.845 -12.3307,6.1419 -6.821,0.534 -2.0987,-1.8694 -6.0345,4.2726 2.6237,7.7442 1.6976,6.3169 -9.7316,-2.4746 -16.7374,-13.2837 -5.5792,-1.8598 -9.2986,-1.594 -5.5791,-11.4239 h -3.1883 l -5.5789,-5.0478 -7.1734,2.3911 -5.0478,11.4239 1.5943,2.9224 -7.7046,13.2836 -4.5164,-1.0626 -6.6418,-6.1105 -0.7971,-10.3613 -5.0477,-18.0658 -11.424,-3.4536 -4.5166,4.2506 2.3912,7.1733 11.4239,9.5642 1.8597,7.7046 -2.9225,11.4239 -5.0478,2.391 -3.4538,6.1105 -4.7819,1.0627 -5.8448,-0.797 -2.6568,3.9851 1.594,3.7194 -7.7045,5.3134 -11.9553,11.6897 -8.2358,-1.8597 -1.8598,-6.1105 2.6568,-7.9702 1.0627,-7.4389 -2.1254,-9.0328 -3.1881,-2.1255 -3.9851,0.7971 -6.6418,6.3762 -2.3909,5.5791 -11.6898,5.3135 -7.4388,-0.5314 -11.4238,3.4538 -10.8928,1.8596 -3.4536,-3.4537 0.2655,-3.4537 7.1732,-1.3284 6.1107,-5.3135 c 0,0 -0.5316,-8.7671 -1.5943,-9.5642 -1.0626,-0.797 -6.6418,-8.2359 -6.6418,-8.2359 l -14.8777,-2.391 -5.5792,5.5792 -11.158,9.5641 -2.6568,5.5792 -4.7823,3.4538 c 0,0 -4.5162,-1.8598 -4.5162,-2.9225 0,-1.0627 -1.0629,-4.5165 -1.0629,-4.5165 l 7.1732,-10.6268 -0.2655,-5.3135 5.0476,-5.8448 -0.5314,-9.2986 -13.5493,-7.9701 -3.1881,3.985 -0.5312,6.1105 8.2358,9.5642 -0.797,3.7195 -0.2657,5.8448 -6.6419,6.1105 -6.1105,-3.4538 -5.5791,-9.5642 -4.7819,-17.2687 -4.2508,-7.9703 -4.5166,-1.0627 h -6.1105 l -6.6418,5.8448 0.797,6.9075 6.9076,6.1105 2.1253,6.9075 -1.5941,10.0956 -6.6418,6.1105 -5.8448,1.0626 -6.6417,-4.5163 -1.594,-7.1733 7.4388,-8.7671 1.3282,-8.236 -6.376,-6.3761 h -4.7823 l -6.6418,4.7821 -5.3133,3.1882 -4.7823,-0.7971 -3.7192,-2.9224 -3.1883,-6.9075 -2.1252,-1.594 -1.3285,-3.7195 -6.6419,-1.594 -5.5789,6.9075 -3.9853,0.3985 v -1e-4 l -3.3209,7.4389 0.2657,7.3059 -3.8521,8.236 -6.7747,-7.5717 -5.8447,-3.4538 -0.5316,-6.2433 7.0405,-1.8597 3.0551,1.9925 6.2434,-4.7821 c 0,0 -0.2658,-3.188 -1.0628,-3.9851 -0.797,-0.797 -7.7045,-1.594 -7.7045,-1.594 l -7.5717,-1.4612 -3.4537,-3.8523 0.5315,-6.7747 -3.8525,-6.2433 -4.3737,-1.9644 -3.7124,-1284.2629 10.7095,-7.7197 5.0514,-0.4716 6.8883,-8.0177 v -5.6596 l 3.4441,-4.9521 5.9697,-1.4149 4.1329,-7.5461 5.0513,-4.4805 4.5922,-13.9131 0.9182,-5.1878 4.133,-5.8954 5.5106,-4.2448 2.9849,-7.0743 3.444,-2.8299 1.1481,-7.3103 -1.6073,-4.952 v -5.8953 l 3.2144,-2.1224 5.9699,-2.3582 3.6737,-7.0744 0.4592,-4.7163 5.7402,-6.8387 -2.0664,-7.0745 3.2144,-2.8297 1.8368,-9.6684 6.8884,-9.9042 6.6584,-1.6507 9.1841,-4.7162 8.7253,-2.1224 1.8369,0.7074 3.9032,-2.8298 12.3985,-2.1224 3.2145,1.8865 6.1995,-2.5939 6.8882,-8.2534 5.9697,-1.415 2.5257,-3.5372 -0.9184,-5.6596 3.2146,-6.8386 7.3474,-4.0088 h 3.6735 l 10.7915,-7.0745 11.2507,-5.4238 0.9185,-5.1878 12.8581,-8.0177 4.3624,-4.4806 0.6888,-4.7162 2.7553,-5.4238 6.6585,-5.188 3.9034,0.7076 9.4139,-6.6029 5.7401,-2.1224 6.8881,-6.3669 3.9035,-3.0657 -2.0667,-7.5459 4.5921,-10.6118 2.5258,-0.9432 0.6889,-6.8387 -2.0665,-5.6595 -3.6736,-10.6117 -4.822,-9.4326 2.7553,-6.1311 7.1179,-4.0089 h 6.1994 l 7.1177,-0.4717 3.4441,-4.0089 6.8883,-0.7074 11.2507,-6.3669 8.4953,-2.3581 5.9698,-7.782 6.6586,-2.1222 5.0513,0.4715 6.8883,-6.3671 2.5257,-11.3189 9.8729,-5.8954 6.6586,0.2357 2.9851,3.3014 3.444,0.4716 2.9848,-6.1311 6.6585,-3.3014 2.7553,-6.367 -2.2961,-4.4806 3.9034,-7.5461 h 4.1329 l 7.8066,-3.773 2.9849,-7.7818 6.8882,-4.2448 5.2808,0.4718 7.3475,-4.2448 3.4441,1.6508 7.8066,-3.7731 8.9344,-1.8021 3.444,-7.0743 3.2145,-3.773 3.2147,-4.0089 6.6584,-2.3583 1.1481,2.1224 9.1931,-8.5825 5.5195,-7.2649 10.7915,-4.0089 9.4164,4.2081 3.444,4.0088 11.6143,5.98 16.5469,2.131 6.5262,-0.9271 5.0758,-2.4275 11.2547,1.324 9.1186,-3.8636 4.9101,-1.2912 2.7553,-2.3583 5.2808,-0.4716 6.1995,-2.8298 2.5257,-6.6028 11.2506,-7.7819 2.7552,-4.7163 9.6437,-2.5939 12.169,0.4716 3.4441,2.8297 7.1178,2.1224 3.9033,-5.1879 5.0513,-1.6507 2.7553,-6.367 6.1993,-8.2536 4.5923,-0.7074 5.0512,-10.6118 8.0362,-7.0743 2.2962,-11.0833 4.592,-3.3015 c 0,0 3.6738,-0.2358 4.5922,-1.4148 0.9184,-1.1791 6.429,-7.0744 6.429,-7.0744 l 1.6071,-6.1312 7.1178,-7.5462 2.9848,-0.4715 7.118,-9.9043 0.9184,-5.8953 8.4954,-13.4415 4.5921,-5.188 1.1481,-4.7162 3.6737,-0.7075 6.6585,-8.0177 7.577,-2.3581 -0.2296,-6.367 2.296,-4.9522 c 0,0 4.3627,-0.4715 4.8219,-1.6507 0.4592,-1.179 2.9848,-7.7819 2.9848,-7.7819 l -3.6738,-3.0655 v -5.8954 l 3.4443,-9.6684 3.2142,-1.415 10.3325,-8.4893 2.296,-0.2357 3.2145,-5.1879 1.3776,-8.0177 3.4441,-10.1401 3.9034,-0.7075 6.4289,-5.8954 2.5256,-4.9521 5.281,-3.0656 1.3776,0.2357 5.0514,-5.4235 2.0665,-4.4806 -1.1481,-2.3581 2.5257,-9.4327 4.8216,-0.2357 3.6737,-4.4804 0.2296,-6.603 5.97,-17.9218 5.5838,-5.8987 3.2257,-3.3201 1.1507,-4.8873 6.2128,-5.12 2.7614,-5.5854 10.815,-7.4472 1.6107,1.1637 12.1958,-4.8872 7.3635,0.2327 2.0709,2.3273 16.7978,7.9126 13.5763,-1.3964 4.3721,0.2328 2.7612,3.4909 6.213,2.0945 3.9119,3.2582 12.1956,-2.0946 3.4517,-3.4909 10.3547,-1.6291 8.9743,2.5601 10.8151,-1.3964 4.8322,1.1635 10.8151,-0.9308 3.2216,-1.629 14.2665,-1.6292 2.0711,1.8618 13.8064,-1.1635 5.7526,-4.4219 11.7356,-3.0254 8.5139,-1.1636 3.4516,-3.491 5.5227,-3.4909 2.9913,0.6983 8.0538,-3.4909 3.9119,-8.3781 10.5849,-3.2582 4.372,2.7927 7.5315,-8.0493 3.737,1.0332 7.8001,-6.4368 10.4144,-2.8268 6.9434,0.7066 7.8688,-4.0046 6.7119,-4.7114 12.4977,-2.5914 3.2402,0.7069 9.2574,5.7895 8.7428,13.744 1.1453,5.9965 10.4739,10.9939 0.8181,1.499 15.3834,5.9967 2.1276,-1.3327 10.6373,-0.1665 2.4548,-5.1637 4.7462,-3.3315 8.5894,-4.0556 5.3209,-18.1304 23.9688,-17.9733 12.6891,-4.3156 6.3824,-8.6618 8.0191,-8.6617 0.4907,-1.9988 18.6523,-7.6294 7.8512,-8.1951 10.6456,-9.1616 9.3243,0.1668 13.451,1.6657 5.7003,8.8282 6.055,5.8301 14.6249,6.246 4.2548,-6.4964 10.3102,-3.3315 19.3109,8.995 7.5281,7.4957 h 8.8371 l 3.4366,-1.4991 7.037,-0.4997 2.9459,3.1649 10.9647,-1.6658 15.5468,-4.9971 12.7649,-1.166 2.1274,2.4985 13.7469,1.3326 0.6545,2.4986 9.8192,14.8249 6.2188,1.9989 6.8732,-1.9989 4.7462,1.3326 5.2367,-4.3308 6.2322,-0.969 2.6186,1.8323 6.8733,0.4996 11.2922,-1.1659 2.2909,2.4985 10.9647,8.1622 5.8914,6.9959 3.2731,1.4992 3.7639,-3.6645 14.4016,-2.1655 10.6373,2.9983 2.6185,-0.8328 2.6182,-5.1639 7.2007,-8.6617 12.1104,-5.3304 1.3091,-1.9988 10.4738,-2.8318 6.7097,7.3293 11.1285,7.8289 5.4002,-0.3331 4.0916,-5.8301 8.6734,-4.8306 14.7287,-3.4981 3.1096,-1.8323 3.7639,-6.996 6.8733,-2.8318 h 6.3823 l 1.6367,1.4992 2.9456,0.6663 4.4187,-3.3314 11.1282,-0.9994 0.9822,2.665 7.6914,2.6652 0.6547,-3.4979 8.346,-0.4999 0.6548,1.4992 6.8733,3.3315 5.0733,-1.6657 1.3092,0.1667 0.9819,1.9988 5.0733,3.498 3.1092,-0.6662 v -2.1656 l 5.8916,-3.1648 6.8734,1.166 4.0912,5.3304 7.8554,1.4991 4.5825,2.9984 6.3822,1.6656 1.9637,-3.498 12.6012,-4.8306 1.4731,2.1655 7.037,3.1648 5.8915,-0.9994 1.9636,-2.6652 6.5463,-5.3302 1.6361,-6.3299 4.9099,-6.6629 2.6183,-0.1665 6.5464,-1.3326 11.2917,-7.3291 10.9648,-1.6657 1.3092,1.8323 5.4005,0.4996 5.564,-2.6652 9.8193,-6.996 13.5831,-3.9978 6.2187,2.1656 0.982,1.3326 5.4003,1.6657 3.6007,-3.3316 11.7826,-5.83 15.8744,1.9989 1.1456,2.1654 10.31,9.8279 6.2188,3.3314 3.6004,-1.166 10.4737,-1.4992 0.6546,2.1655 12.7649,4.664 10.31,-1.8323 1.6366,-3.6646 3.4367,-0.4996 13.7466,-11.4937 9.0009,-1.9988 4.2552,-4.664 h 3.4365 l 14.5652,-8.1621 0.8181,-10.3275 18.377,-10.4941 13.0922,-3.8311 13.2557,-10.161 1.9638,-6.3297 11.6195,-5.9966 3.9275,-0.4998 9.492,5.9967 3.6004,-0.6663 4.0913,2.8317 2.2911,4.1644 10.8008,1.3325 3.4366,-2.332 6.7099,1.166 0.8183,1.8323 20.2928,4.1643 3.273,1.8323 3.9276,1.9988 3.6003,-2.8317 11.7831,-3.3314 12.2739,-5.4969 3.4367,-3.8312 9.9828,-1.9989 1.8002,3.1649 14.2378,4.331 6.5457,6.4963 -0.327,3.1649 4.7457,7.4957 8.0191,5.1638 9.0008,-0.9994 5.5643,-2.3321 8.837,-0.3332 6.3826,-1.4991 8.0189,4.4974 1.3092,5.3304 5.2369,4.1643 12.1101,4.4975 2.1277,3.1649 v 1.9988 l 4.582,4.4974 -1.1455,2.6652 0.9819,2.8318 5.0734,6.6629 2.7821,0.8329 7.2006,1.8323 1.8003,2.332 4.8604,5.6715 0.3453,5.6985 -8.6307,5.5449 -1.9495,2.6455 -7.7553,4.878 -4.2448,9.2191 2.6185,2.8318 0.6543,5.4969 -2.1275,1.9989 0.1639,3.4979 z" />
  </g>
  <g
     id="layer2"
     style="display:inline"
     transform="translate(-5063.0089,-3886.3886)" />
</svg>
