<?xml version="1.0" encoding="UTF-8" standalone="no"?>
<svg
   xmlns:dc="http://purl.org/dc/elements/1.1/"
   xmlns:cc="http://creativecommons.org/ns#"
   xmlns:rdf="http://www.w3.org/1999/02/22-rdf-syntax-ns#"
   xmlns:svg="http://www.w3.org/2000/svg"
   xmlns="http://www.w3.org/2000/svg"
   width="912"
   height="1294.9031"
   id="svg2"
   version="1.1">
  <defs
     id="defs4" />
  <metadata
     id="metadata7">
    <rdf:RDF>
      <cc:Work
         rdf:about="">
        <dc:format>image/svg+xml</dc:format>
        <dc:type
           rdf:resource="http://purl.org/dc/dcmitype/StillImage" />
        <dc:title></dc:title>
      </cc:Work>
    </rdf:RDF>
  </metadata>
  <g
     id="layer3"
     style="display:inline"
     transform="translate(-2075.6378,-1473.8947)" />
  <path
     d="m 343.0655,393.6068 3.1401,-4.8289 2.174,-8.9333 h 3.8649 l 4.348,6.7603 8.213,6.519 -0.9662,5.5532 4.1047,3.1714 3.0952,1.4441 0.3418,5.8078 5.637,3.9288 5.8078,-1.879 7.6869,1.1957 -0.8541,2.3915 7.3452,2.904 -2.5625,3.9287 0.6834,4.0998 1.5373,1.8789 0.6833,4.7829 -2.733,3.0748 4.2704,5.8079 0.1708,7.1744 -2.5622,3.758 0.1707,4.0996 2.2207,1.1957 -0.3415,8.3702 -2.5849,7.6372 -6.2977,0.7329 -4.4414,3.5872 -3.9288,-1.1957 -3.5871,2.7331 -2.0499,-1.5374 1.8789,-4.9537 1.8792,-2.3915 -3.0748,-2.9039 -2.3915,-0.1709 -0.1708,-1.879 -7.6869,-3.758 -4.2704,-4.7829 -0.5125,-4.0996 -2.904,-0.6833 3.0747,-3.758 0.5126,-9.5659 -4.9537,-3.5872 -4.783,0.8541 -1.8791,-2.0498 3.0748,-12.8114 -2.5623,-2.904 5.2954,-6.4911 2.5623,-1.0249 1.3666,-2.3914 -4.0998,-2.5624 -1.1956,-3.5872 -4.0996,2.0498 -7.0037,0.3417 -4.0996,-5.4663 -1.0736,-6.1789 z"
     style="display:inline;fill:#fefee9;fill-opacity:1;stroke:#646464;stroke-width:0.53333336;stroke-linecap:butt;stroke-linejoin:round;stroke-miterlimit:4;stroke-dasharray:none;stroke-opacity:1"
     id="Chalan,_Código_DANE_:_70230" />
  <path
     id="Coloso,_Código_DANE_:_70204"
     style="fill:#fefee9;fill-opacity:1;stroke:#646464;stroke-width:0.53333336;stroke-linecap:butt;stroke-linejoin:round;stroke-miterlimit:4;stroke-dasharray:none;stroke-opacity:1"
     d="m 338.3937,515.3358 -6.1,-3.0637 -4.6327,-0.5451 -2.9977,-5.9952 2.4527,-2.7251 0.545,-10.3554 1.6351,-1.3626 -0.5451,-6.2677 -5.4501,0.5451 v -2.7251 l -2.1802,-2.1801 -2.725,-5.1777 2.9975,-1.3626 1.9077,-4.3602 -0.5451,-3.5426 2.4526,-4.3602 h 3.5426 l 2.9977,-2.9976 -0.2726,-3.8151 1.3626,-5.4502 3.2702,-0.5451 4.3602,-8.1753 -4.3602,0.8175 -1.9077,-1.9075 1.9077,-4.6327 -4.9052,-0.545 -2.7251,-7.9028 2.18,-1.09 -0.5449,-5.1778 -5.1777,1.3626 -5.4503,-4.6327 -6.5404,-1.9076 1.9078,-2.18 0.2724,-1.0901 5.1777,-2.9976 v -5.1777 l 3.5426,-2.7251 -1.9075,-2.7251 0.283,-5.3722 5.6778,-3.8 1.2077,1.4494 h 2.899 l 2.6573,1.9326 3.9373,0.3343 1.0082,6.286 4.0996,5.4663 7.0037,-0.3417 4.0996,-2.0498 1.1956,3.5872 4.0998,2.5624 -1.3666,2.3914 -2.5623,1.0249 -5.2954,6.4911 2.5623,2.904 -3.0748,12.8114 1.8791,2.0498 4.783,-0.8541 4.9537,3.5872 -0.5126,9.5659 -3.0747,3.758 2.904,0.6833 0.5125,4.0996 4.2704,4.7829 7.6869,3.758 0.1708,1.879 2.3915,0.1709 3.0748,2.9039 -1.8792,2.3915 -1.8789,4.9537 2.0499,1.5374 3.5871,-2.7331 3.9288,1.1957 4.4414,-3.5872 6.2118,-0.6901 -1.9414,4.1065 -2.0499,-0.1709 -5.2952,2.2207 -1.1959,3.9289 2.904,3.0747 -1.3054,7.6476 -5.6982,-1.4981 -5.2955,1.0249 -0.1708,3.4164 -1.5373,1.0249 -4.783,1.0249 -3.0747,3.4164 v 2.5623 l -4.7829,0.854 -0.5124,2.2207 -1.3666,-1.879 -2.0498,-0.3417 -2.7331,1.3667 -4.4413,0.3415 0.3416,3.4164 h -3.2455 l -2.5623,3.2456 -2.2207,-1.1958 -1.1957,1.3667 z" />
  <path
     id="Los_Palmitos,_Código_DANE_:_70418"
     style="fill:#fefee9;fill-opacity:1;stroke:#646464;stroke-width:0.53333336;stroke-linecap:butt;stroke-linejoin:round;stroke-miterlimit:4;stroke-dasharray:none;stroke-opacity:1"
     d="m 483.3763,540.6784 2.967,-0.512 3.1975,1.4389 3.0377,-2.8778 0.6396,1.7587 4.4766,0.4797 1.7587,-2.718 h 2.0785 l 1.2789,2.3982 3.7574,0.3997 -0.8794,-2.7979 -2.2384,-3.1977 1.7587,-5.276 c 0,0 2.5581,-0.3197 2.7179,-1.7586 0.1599,-1.439 0.1599,-4.3168 0.1599,-4.3168 l -2.2383,-3.3576 0.7995,-2.7178 4.4599,-3.1068 -6.7593,-1.4311 -4.54,-0.2269 -6.5829,-3.859 -0.681,-2.043 -9.7608,-1.8159 v -1.816 l 5.9018,-2.043 3.405,-2.043 -0.908,-1.1349 h -6.8098 l -9.5339,-6.356 -1.135,-2.4969 -2.724,-0.454 -5.9018,4.313 -1.816,-1.3621 -9.761,2.951 -2.0429,3.405 -2.9509,1.3619 -8.3988,-4.313 -3.859,-8.6258 -7.0369,-3.1779 -3.632,-0.2271 -1.816,0.9081 -4.3129,-0.227 -4.086,-3.178 -5.9018,3.178 h -3.859 l -2.043,-3.178 -5.9019,-0.227 -3.7951,-2.7615 -1.986,-0.2086 -5.2952,2.2207 -1.1959,3.9289 2.904,3.0747 -1.2532,7.6789 -0.5391,3.0417 -1.284,1.4446 1.9261,1.6051 v 3.5312 l -1.4446,1.7657 5.2969,1.284 0.321,4.3338 2.7287,1.6051 2.8892,-1.1235 2.2471,2.2471 -0.321,2.8892 2.7287,4.4943 h 1.6051 l -0.1605,3.5312 2.8893,0.8025 2.2471,-0.1604 3.5312,3.0497 -0.8025,3.0497 1.4445,0.963 0.1605,3.0497 -5.1362,7.544 -0.9631,5.297 1.284,2.5681 -0.1605,3.6917 -4.8154,3.0497 7.8651,4.3339 1.7656,-0.1605 3.2102,4.4943 -0.4815,2.2471 -3.0497,-0.4815 -2.8892,1.1235 -5.6179,-3.8522 v 2.8891 l -3.5312,-0.1604 -4.4942,3.0497 5.9388,0.1604 4.6548,2.7288 4.1732,1.7656 h 4.4944 l 0.1606,0.963 4.6547,1.1237 2.5682,-1.7657 4.3337,2.2471 4.0128,-2.2471 0.3211,-3.5312 6.0994,-4.3339 7.8651,-2.2471 5.2968,-5.4573 4.4943,-1.7656 1.9261,-2.8892 2.7287,-2.7288 3.2102,-0.1605 3.5313,-7.0624 4.0127,-2.4077 4.3339,-0.321 3.5312,-6.2599 3.8522,-1.2841 v 3.6917 z" />
  <path
     id="Since,_Código_DANE_:_70742"
     style="fill:#fefee9;fill-opacity:1;stroke:#646464;stroke-width:0.53333336;stroke-linecap:butt;stroke-linejoin:round;stroke-miterlimit:4;stroke-dasharray:none;stroke-opacity:1"
     d="m 633.7346,666.9306 -32.5974,-7.9733 -0.4796,0.6395 2.0785,2.5581 2.2382,1.1191 0.6395,1.9186 6.2354,0.9593 v 2.5581 h -2.2384 l -0.7993,-1.2791 -1.7587,0.1599 -2.718,2.8779 h -2.8779 l -4.4766,2.8777 -7.0346,-0.4795 -1.4391,1.5988 -6.5551,-0.4797 -2.2383,-2.718 h -3.9969 l -6.5552,-6.3952 -1.5987,1.7588 h -3.3575 l -7.8342,5.5957 h -3.5173 l -10.2324,-3.0377 h -5.7555 l -2.5581,1.7587 -2.0785,-2.8778 h -2.8779 l 0.9593,2.2383 -1.439,1.1191 -0.1598,3.5174 -2.8779,3.6772 -0.4796,8.9534 -2.2383,1.9185 1.5987,2.2383 -0.3197,0.9593 -1.279,0.3197 -0.7995,1.7587 1.7587,1.2791 -3.8371,4.6365 h -2.2383 l -1.9186,2.3983 3.5174,3.9969 v 1.5988 l 5.9156,6.0754 0.1598,6.0755 -1.5988,1.9185 5.3333,6.1336 -1.3377,1.2304 -1.9263,3.3708 -1.605,0.1605 -3.6919,-2.4077 -1.605,-3.2102 -3.5312,2.4076 -1.7656,5.1364 -6.0995,0.642 -3.3707,-1.9261 -3.8523,2.2472 -1.605,-2.0867 1.605,-1.9261 3.2102,-0.321 -0.642,-3.2102 5.2969,-4.4943 -2.0866,-6.26 -3.3708,-2.0866 -0.4815,-4.4943 -10.1122,-5.7784 -3.0497,0.321 -0.4815,-1.7656 1.284,-2.0866 0.8026,-7.544 3.6917,-5.2969 -1.284,-1.2842 -3.5313,2.8893 -2.2472,-0.321 -3.3638,-3.8521 -1.272,-3.5172 -1.7589,0.1599 -0.9592,-1.1193 1.2791,-0.7993 v -2.0784 l -4.6365,-0.9594 -1.1192,-1.9185 -4.7964,0.4796 -1.279,-1.4389 -1.4389,1.2791 -2.5581,-0.3198 -1.7587,1.4389 -2.2383,-3.3575 -3.0377,-0.4796 -0.9592,1.7586 -2.7807,0.6635 -5.5332,-2.4221 -1.9186,-7.0348 v -5.5958 l 2.718,-0.3197 1.5988,-3.1976 2.3981,1.1191 4.9564,-1.7586 0.6395,-1.4389 -1.7587,-2.5581 v -3.6774 l -1.1191,-2.8777 1.279,-1.5988 -3.0376,-1.439 1.2789,-3.997 -2.2384,-0.9592 -2.0783,-4.6366 0.9593,-2.2383 c 0,0 1.7586,0.7994 1.7586,-0.1599 0,-0.9593 -1.1192,-5.5957 -1.1192,-5.5957 l -2.3981,-0.7995 -1.7587,-2.8779 3.6772,-2.7178 v -2.0786 l 2.7179,-2.3981 0.4797,1.4389 h 2.718 l 2.2383,2.8779 5.4359,0.4795 -3.0376,-3.8371 -1.2792,-6.715 2.0785,-3.997 -1.9186,-10.2323 2.3982,-3.0377 0.3199,-4.9562 -4.1569,-2.8779 1.5988,-1.7587 v -2.5581 h 2.0783 l 7.9941,-3.8371 1.279,-0.1599 6.2354,-5.436 6.8749,-1.9185 -1.9187,-2.3981 1.5988,-3.8372 1.4389,-2.558 -0.9592,-1.2791 -1.9185,-0.3198 1.9185,-4.3168 -1.9185,-0.7993 1.1191,-1.9186 0.1599,-4.4766 -3.1977,-2.2384 -0.2007,-4.0146 2.9188,-0.6219 3.1975,1.4389 3.0377,-2.8778 0.6396,1.7587 4.4766,0.4795 1.7587,-2.7179 h 2.0785 l 1.2789,2.3983 3.9989,0.6696 -0.8012,6.8447 3.5173,3.0378 v 5.9155 l -1.5988,1.1191 3.8372,4.4767 3.5174,-0.1599 3.1976,2.2383 -6.8749,4.7964 -0.16,8.7935 1.9188,1.4388 -3.3576,4.9564 -3.6773,0.4796 v 3.6772 l -3.3575,6.5551 3.8373,-1.4388 4.7963,-6.715 h 4.4766 l 0.7995,1.279 1.5988,-1.4389 -1.7587,-1.7587 2.2383,-0.9593 2.2383,-2.3982 2.8778,-0.6395 4.3168,-4.4766 h 2.0784 l 4.6365,1.279 2.0785,1.5987 3.3575,1.439 3.5173,-0.9593 5.9156,1.1192 1.2791,2.0785 5.276,0.1597 6.2353,2.3983 0.9593,1.2791 3.5174,-0.1599 5.0695,2.9206 2.9244,4.4338 4.6366,2.3982 3.1976,4.7965 -0.1599,8.1538 2.2384,3.1977 3.6772,-0.3198 0.3198,3.6772 4.3168,5.2761 3.837,1.9186 3.1977,4.9562 -0.7994,1.9186 3.6772,4.1569 0.3195,11.361 3.9285,0.1805 5.4663,-3.4164 1.7081,1.5374 0.6833,6.3203 4.7829,2.7331 1.5374,6.4911 4.7829,-0.5124 2.3915,-3.5872 1.7081,0.6832 2.904,4.6121 3.9241,1.1685 z" />
  <path
     id="San_Juan_Betulia,_Código_DANE_:_70702"
     style="fill:#fefee9;fill-opacity:1;stroke:#646464;stroke-width:0.53333336;stroke-linecap:butt;stroke-linejoin:round;stroke-miterlimit:4;stroke-dasharray:none;stroke-opacity:1"
     d="m 454.9215,676.5235 -5.5106,-2.2176 -1.9186,-7.0348 v -5.5957 l 2.718,-0.3198 1.5988,-3.1976 2.3981,1.1191 4.9564,-1.7586 0.6395,-1.4389 -1.7587,-2.5581 v -3.6772 l -1.1191,-2.8779 1.279,-1.5988 -3.0376,-1.439 1.2789,-3.997 -2.2384,-0.9592 -2.0783,-4.6365 0.9593,-2.2384 c 0,0 1.7586,0.7995 1.7586,-0.1598 0,-0.9594 -1.1192,-5.5958 -1.1192,-5.5958 l -2.3981,-0.7995 -1.7587,-2.8778 3.6772,-2.7179 v -2.0785 l 2.7179,-2.3982 0.4797,1.4389 h 2.718 l 2.2383,2.8779 5.4359,0.4795 -3.0376,-3.8371 -1.2792,-6.7149 2.0785,-3.997 -1.9186,-10.2323 2.3982,-3.0378 0.3199,-4.9562 -4.1569,-2.8779 1.5988,-1.7587 v -2.5581 h 2.0783 l 7.9941,-3.8371 1.279,-0.1599 6.2354,-5.4358 6.8749,-1.9187 -1.9187,-2.3981 1.5988,-3.8372 1.4389,-2.558 -0.9592,-1.2791 -1.9185,-0.3198 1.9185,-4.3168 -1.9185,-0.7993 1.1191,-1.9185 0.1599,-4.4767 -3.1977,-2.2383 -0.2278,-3.981 -1.7147,-1.2349 v -3.6917 l -3.8522,1.2841 -3.5312,6.2599 -4.3339,0.321 -4.0127,2.4077 -3.5313,7.0624 -3.2102,0.1605 -2.7287,2.7288 -1.9261,2.8892 -4.4943,1.7656 -5.2968,5.4573 -7.8651,2.2471 -6.0994,4.3339 -0.3211,3.5312 -3.7719,2.2471 -2.3275,3.6918 -1.7656,0.9631 -3.2102,3.5312 -1.4445,0.4816 -0.6422,0.9631 4.1734,4.1732 -2.7287,4.0128 -0.1606,2.0866 -1.1235,1.1236 1.9261,2.8892 1.1237,2.2472 h -5.4575 l -4.6547,-2.4077 -4.4943,1.6051 -1.9262,1.9261 2.0866,2.2472 -1.6051,1.605 -3.2103,0.9631 -4.6548,6.0994 2.8893,3.8523 h 3.0497 l 0.4815,3.6917 3.0497,3.2103 -0.1604,2.5682 -1.9262,1.4446 0.963,5.9389 -2.4076,2.8891 0.963,3.0497 3.3708,2.8892 -0.8026,7.5441 3.0497,3.3707 h 5.6179 l 6.4204,7.3835 h 3.2102 l 3.8523,4.4944 6.902,-2.4077 1.1235,0.963 1.4447,6.7415 4.3337,2.5681 4.0128,2.8892 6.4204,-0.963 z" />
  <path
     id="Corozal,_Código_DANE_:_70215"
     style="fill:#fefee9;fill-opacity:1;stroke:#646464;stroke-width:0.53333336;stroke-linecap:butt;stroke-linejoin:round;stroke-miterlimit:4;stroke-dasharray:none;stroke-opacity:1"
     d="m 400.6541,706.2562 -1.9421,-4.7138 -2.2207,-1.3665 0.6833,-3.2456 -0.6833,-0.854 2.3914,-2.2207 -2.3914,-1.7082 -3.2456,-7.516 -2.3914,-1.1958 -2.0499,-2.0498 0.5125,-1.5374 -0.8541,-1.1957 -1.7082,0.6833 -2.2207,-0.1709 -2.3914,-4.612 -2.3915,0.1707 -2.9039,-2.2206 -0.3416,-4.0997 1.3666,-1.3665 -0.6833,-2.7331 -2.05,-0.1708 -3.5871,-4.9538 -0.854,1.025 -0.1709,2.9039 -1.7083,1.5373 -0.5123,3.758 1.0249,1.1957 v 1.8791 l -2.5623,1.1957 -1.3666,4.4413 -2.3915,0.6833 2.5623,1.7082 -0.1708,4.7829 2.0499,2.7331 h 2.3915 l -1.0251,1.8791 -3.0745,-0.3417 -2.904,-3.758 -1.3667,-5.1246 -0.854,-0.3416 v -4.2705 l -1.0249,-2.2206 -2.0499,-1.1957 -0.6832,-4.4414 -1.025,-1.0249 1.8791,-2.2207 -0.8541,-1.3665 h -3.0747 l -3.5873,-2.2207 1.8791,-3.4163 3.9287,-0.1709 2.0499,-3.2455 -2.3914,-0.8541 -0.073,-0.3457 1.3626,-3.5426 -1.4989,-2.3164 0.8175,-4.7689 3.9515,0.4087 0.4087,-0.6813 3.8152,-0.5449 -2.5888,-2.9977 0.8175,-3.8151 1.9076,-0.1363 0.4087,-6.949 -4.2239,-4.2239 1.0901,-3.9514 -2.0439,-3.4064 1.635,-2.3163 3.5427,3.1339 1.635,-1.4989 -0.1362,-2.4526 -4.9052,-1.4988 0.1363,-3.1338 4.7689,-1.0901 0.4089,-2.3163 -2.0439,-1.7713 -3.0955,-7.2807 4.0062,-2.0847 7.1832,-0.1492 5.3146,-3.1404 0.7247,-1.9327 3.9861,-0.1207 5.9185,-3.2612 1.4494,-6.1603 2.1741,1.2079 3.3821,-0.3623 0.8456,-3.3821 -1.4495,-1.3286 0.4275,-3.1533 5.7015,0.2039 4.6549,2.7288 4.1732,1.7656 h 4.4943 l 0.1606,0.963 4.6548,1.1237 2.5682,-1.7657 4.5122,2.4436 -2.2651,3.4953 -1.7656,0.9631 -3.2102,3.5312 -1.4446,0.4816 -0.6421,0.9631 4.1733,4.1732 -2.7286,4.0128 -0.1606,2.0866 -1.1236,1.1236 1.9262,2.8892 1.1237,2.2472 H 415.07 l -4.6548,-2.4077 -4.4944,1.6051 -1.926,1.9261 2.0866,2.2472 -1.6051,1.605 -3.2103,0.9631 -4.6548,6.0994 2.8893,3.8523 h 3.0497 l 0.4815,3.6917 3.0497,3.2103 -0.1606,2.5682 -1.926,1.4446 0.9629,5.9389 -2.4075,2.8891 0.963,3.0497 3.3707,2.8892 -0.8025,7.5441 3.0497,3.3707 h 5.6178 l 6.4205,7.3835 h 3.2102 l 3.8523,4.4944 6.902,-2.4077 1.1235,0.963 1.4447,6.7415 4.3337,2.5681 4.0127,2.8892 6.4205,-0.963 2.5346,-2.1761 2.7203,-0.6699 0.9594,-1.7587 3.0376,0.4797 2.2383,3.3574 1.7588,-1.4389 2.558,0.3198 1.439,-1.2791 1.279,1.439 4.7964,-0.4797 1.1191,1.9186 4.6366,0.9593 v 2.0784 l -1.2791,0.7994 0.9592,1.1192 1.7587,-0.1599 1.2722,3.5172 -6.2668,6.9018 0.4815,2.5682 -2.2472,2.2471 1.1237,4.8153 -2.4077,1.9262 -0.6421,2.0866 1.6051,3.6917 1.6052,-0.1604 2.7286,-2.0867 2.0866,4.1733 6.7415,4.0128 4.8153,8.9886 0.1605,7.0625 -2.2472,1.7655 -1.7655,-1.284 -4.6549,3.3707 0.321,1.4447 6.7416,2.2471 0.8025,1.2841 -6.902,4.9757 -2.8892,0.3211 -1.1236,2.2472 -1.9261,0.4816 v 2.247 l 2.5682,1.4447 -1.7657,2.5681 -0.1604,2.0867 -4.9758,-3.3708 -0.9632,-2.0866 -8.3466,-3.8522 -0.642,-5.7785 3.8523,-7.2229 0.1605,-5.7785 -3.8523,-4.4943 -3.6917,1.6051 -0.9631,1.4446 -1.9262,-1.4446 -0.8024,-4.3337 -13.0014,0.1605 -3.0497,1.2841 -0.642,4.1732 -1.6052,1.2842 -8.3465,0.1605 -2.8892,2.2471 -1.7656,-0.6421 0.1605,-3.6917 -3.8523,-2.4077 -7.223,-12.3593 -0.642,-4.8153 2.5681,-4.1734 -2.5681,-2.0866 -8.8282,1.9262 -1.4446,0.963 -2.4076,-0.963 -2.6993,2.1454 z" />
  <path
     id="Morroa,_Código_DANE_:_70473"
     style="fill:#fefee9;fill-opacity:1;stroke:#646464;stroke-width:0.53333336;stroke-linecap:butt;stroke-linejoin:round;stroke-miterlimit:4;stroke-dasharray:none;stroke-opacity:1"
     d="m 395.6548,571.3396 4.3279,-3.021 3.5312,0.1604 v -2.8891 l 5.6179,3.8522 2.8892,-1.1235 3.0497,0.4815 0.4815,-2.2471 -3.2102,-4.4943 -1.7656,0.1605 -7.8651,-4.3339 4.8154,-3.0497 0.1605,-3.6917 -1.284,-2.5681 0.9631,-5.297 5.1362,-7.544 -0.1605,-3.0497 -1.4445,-0.963 0.8025,-3.0497 -3.5312,-3.0497 -2.2471,0.1604 -2.8893,-0.8025 0.1605,-3.5312 h -1.6051 l -2.7287,-4.4943 0.321,-2.8892 -2.2471,-2.2471 -2.8892,1.1235 -2.7287,-1.6051 -0.321,-4.3338 -5.2969,-1.284 1.4446,-1.7657 v -3.5312 l -1.9261,-1.6051 1.284,-1.4446 0.5487,-3.0638 -5.76,-1.5073 -5.2955,1.0249 -0.1708,3.4164 -1.5373,1.0249 -4.783,1.0249 -3.0747,3.4164 v 2.5623 l -4.7829,0.854 -0.5124,2.2207 -1.3666,-1.879 -2.0498,-0.3417 -2.7331,1.3667 -4.4413,0.3415 0.3416,3.4164 h -3.2455 l -2.5623,3.2456 -2.2207,-1.1958 -1.1957,1.3667 -3.2401,0.7272 1.1903,3.714 -11.6157,4.783 c 0,0 -0.5124,3.0746 -0.5124,4.2704 0,1.1957 -1.879,0.5125 -1.879,0.5125 l 2.3914,4.2704 -2.9039,5.637 -1.2575,6.184 0.6957,4.1596 4.6327,3.5427 -1.3627,2.1801 0.2726,1.9076 2.5888,0.2724 2.4526,-2.5888 1.6351,0.545 -0.2725,7.4941 1.3624,1.09 2.9978,-1.7713 0.6812,3.5426 1.6351,2.0438 -3.9514,2.5889 v 1.0901 l 2.0438,1.3625 0.1364,3.2701 -1.3627,1.4989 2.9975,-0.1363 1.9078,-4.2239 2.725,2.0438 c 0,0 -0.4088,6.1315 -0.5451,6.6765 -0.1361,0.5451 -2.0438,2.5889 -2.0438,2.5889 l 0.2726,0.9537 4.7689,0.8176 2.0438,3.8151 v 6.5403 l -2.4526,3.4063 5.1777,1.7713 5.859,-5.5864 2.7927,-0.4783 4.3062,-2.1026 7.1265,-0.1209 5.3147,-3.1404 0.7247,-1.9327 3.986,-0.1207 5.9185,-3.2612 1.4495,-6.1603 2.1741,1.2079 3.382,-0.3623 0.8456,-3.3821 -1.4495,-1.3286 z" />
  <path
     id="Tolu_Viejo,_Código_DANE_:_70823"
     style="fill:#fefee9;fill-opacity:1;stroke:#646464;stroke-width:0.53333336;stroke-linecap:butt;stroke-linejoin:round;stroke-miterlimit:4;stroke-dasharray:none;stroke-opacity:1"
     d="m 338.4297,515.3997 -6.136,-3.1276 -4.6327,-0.5451 -2.9977,-5.9952 2.4527,-2.7251 0.545,-10.3554 1.6351,-1.3626 -0.5451,-6.2677 -5.4501,0.5451 v -2.7251 l -2.1802,-2.1801 -2.725,-5.1777 2.9975,-1.3626 1.9077,-4.3602 -0.5451,-3.5426 2.4526,-4.3602 h 3.5426 l 2.9977,-2.9976 -0.2726,-3.8151 1.3626,-5.4502 3.2702,-0.5451 4.3602,-8.1753 -4.3602,0.8175 -1.9077,-1.9075 1.9077,-4.6327 -4.9052,-0.545 -2.7251,-7.9028 2.18,-1.09 -0.5449,-5.1778 -5.1777,1.3626 -5.4503,-4.6327 -6.5404,-1.9076 1.9078,-2.18 0.2724,-1.0901 5.1777,-2.9976 v -5.1777 l 3.5426,-2.7251 -1.9075,-2.7251 0.2384,-5.7296 -3.9407,-0.7853 -3.6237,2.1742 h -6.0392 l -2.6573,3.6235 -3.8653,1.6911 -1.4494,-1.6911 -10.6293,-5.073 -5.1939,-4.4691 -2.0534,2.5365 -4.3482,0.4832 -2.1742,-0.4832 2.4158,4.8316 0.4831,4.8314 6.764,2.6573 2.1742,-3.8652 3.1405,2.1742 -0.7248,5.5562 -0.7247,3.1405 -2.8989,-1.2079 -4.5898,0.4832 -2.4158,1.691 0.9663,5.3146 2.8988,2.6573 0.7247,3.8652 3.1405,0.4832 2.4158,1.691 0.9663,5.5562 3.1405,3.1405 1.691,0.9663 -2.4158,1.9326 -3.6236,-0.7247 -1.9326,1.2078 -1.2079,-1.691 -2.4158,1.9326 -5.556,-0.9663 -3.3821,1.4495 -2.6574,5.073 h -1.2079 l -1.9326,0.9663 0.7248,2.8989 6.7641,6.5225 -3.6236,5.5562 v 5.3147 l -5.5563,3.1405 -4.1067,4.8315 -1.9326,6.764 -2.6574,3.1405 -1.691,-1.2079 h -2.1742 l -1.9326,5.7978 2.8989,4.8315 -6.5224,6.5225 -0.7247,3.6237 3.1403,1.2077 -5.0729,8.9383 2.6573,3.3821 1.4494,7.4888 -1.385,2.6875 4.6766,7.717 4.0997,1.3666 1.0249,3.758 -5.637,4.0996 v 4.4414 l 4.0996,0.8541 1.0249,2.0498 5.2954,1.0248 2.5622,-3.0746 0.1709,-0.8541 3.5872,-1.025 1.0249,1.025 5.2954,-2.5623 1.0249,-2.0499 2.5623,1.7082 v 3.7581 l 2.3914,5.2953 -0.1708,0.6833 h 2.3915 l 1.3666,-1.3666 2.9039,-1.0248 4.9537,1.7081 2.904,-2.0498 1.8789,1.3665 2.5624,0.1709 0.8541,2.0498 -2.2207,2.3915 3.0747,2.0498 1.7082,-3.5872 2.5624,0.1708 0.1707,-1.7082 -1.1957,-1.7081 0.3416,-0.8541 2.9039,0.5124 1.5374,-0.8541 2.2207,-0.6833 h 1.5374 l 1.7082,0.6833 1.5374,-0.8541 0.6832,-4.7829 1.3666,-2.7331 1.1957,1.1957 2.2214,1.2805 1.195,-6.2343 2.9039,-5.637 -2.3914,-4.2704 c 0,0 1.879,0.6832 1.879,-0.5125 0,-1.1958 0.5124,-4.2704 0.5124,-4.2704 l 11.6157,-4.783 z" />
  <path
     d="m 207.4633,385.1919 2.7961,8.0935 1.5378,9.8126 1.2582,6.4461 0.1398,12.9641 -2.4465,15.1843 -3.0757,12.5342 -4.963,15.3992 -2.796,9.0245 -4.963,11.6748 -4.1242,8.8814 -2.017,2.9887 2.4113,1.4263 -2.8039,5.9327 0.9038,3.8659 -1.8642,2.007 -1.2947,3.066 -1.7588,2.7318 -0.3226,4.5958 1.2079,4.9618 -1.2698,3.413 -2.6757,1.2513 -0.9955,3.3003 9.8534,-0.3705 2.4158,2.1742 5.0731,-0.7247 4.5898,4.3483 6.0394,-1.2079 2.1742,3.8653 5.0731,0.7247 2.1741,-1.691 2.4158,0.2415 3.8652,2.8989 2.8989,-1.691 7.8357,1.3818 h 4e-4 l -4.0324,-3.6179 0.03,-5.2837 -4.3418,-1.9266 0.2666,-3.1154 3.2089,-1.2382 4.7447,0.1363 5.5746,0.6187 4.8933,-4.2549 4.5492,-0.6493 1.4283,-2.8262 -1.4494,-7.4888 -2.6573,-3.3821 5.073,-8.9383 -3.1405,-1.2077 0.7248,-3.6237 6.5225,-6.5225 -2.8989,-4.8315 1.9326,-5.7978 h 2.1742 l 1.691,1.2079 2.6574,-3.1405 1.9325,-6.764 4.1068,-4.8315 5.5563,-3.1405 v -5.3147 l 3.6236,-5.5562 -6.7641,-6.5225 -0.7248,-2.8989 1.9326,-0.9663 h 1.2079 l 2.6574,-5.073 3.3821,-1.4495 5.556,0.9663 2.4158,-1.9326 1.2079,1.691 1.9326,-1.2078 3.6235,0.7247 2.4158,-1.9326 -1.691,-0.9663 -3.1404,-3.1405 -0.9663,-5.5562 -2.4158,-1.691 -3.1405,-0.4832 -0.7247,-3.8652 -2.8989,-2.6573 -0.9663,-5.3146 2.4158,-1.691 4.5899,-0.4832 2.8989,1.2079 0.7247,-3.1405 0.7248,-5.5562 -3.1405,-2.1742 -2.1742,3.8652 -6.7641,-2.6573 -0.483,-4.8314 -2.4158,-4.8316 2.1742,0.4832 4.3482,-0.4832 2.3194,-2.8908 -5.943,-8.7047 -0.2416,-8.2136 -4.1067,2.8989 -2.6573,4.1068 -5.3147,-0.2416 -2.8989,-1.9326 -3.6236,-0.2416 -7.0057,3.8653 -0.4832,2.4156 -5.7977,1.2079 -1.9326,-3.382 -5.3147,-1.9326 -1.2078,5.3146 -2.6574,4.1068 h -4.8314 l -4.3484,5.0731 -3.1405,-1.4495 -2.1741,-5.7978 -1.2079,-0.7247 -1.4495,2.6573 -6.2809,-0.9663 -0.9663,-3.6236 0.4832,-2.8988 -1.691,-2.4158 h -3.8653 l -2.594,2.5294 z"
     style="display:inline;fill:#fefee9;fill-opacity:1;stroke:#646464;stroke-width:0.53333336;stroke-linecap:butt;stroke-linejoin:round;stroke-miterlimit:4;stroke-dasharray:none;stroke-opacity:1"
     id="Tolu,_Código_DANE_:_70820" />
  <path
     d="m 162.6615,561.1912 1.4495,-3.8651 -0.2416,-3.3821 8.6966,0.2416 0.2416,-2.4158 v -5.0731 l 1.691,-1.4493 2.4158,0.2416 2.6573,-5.0731 -0.4831,-3.6237 1.2342,-2.2156 1.0202,-3.13 2.6757,-1.2513 1.2698,-3.4129 -1.2078,-4.9619 0.3225,-4.5958 1.7588,-2.7317 1.2948,-3.0661 1.8641,-2.007 -0.9038,-3.8659 2.804,-5.9326 -2.363,-1.4089 -6.3494,11.5338 -3.7748,3.3663 -5.8716,8.3801 -5.3824,5.3001 -1.7476,0.7163 -0.5591,1.2893 -1.9573,3.1514 -1.2583,0.7879 -5.662,4.4406 -4.5435,2.2921 -2.866,-0.072 -0.2795,0.4299 -3.565,-0.5014 -1.1183,0.931 0.629,-1.3607 -4.194,-3.1516 -0.069,-0.7878 -0.778,-0.9358 -7.4041,1.902 -3.8047,3.471 0.975,8.2155 3.4918,2.5342 1.0819,3.874 -2.4125,6.2037 7.9269,2.7573 3.1019,4.2666 3.4465,-5.5144 2.4125,0.6894 2.1988,4.415 6.1383,-1.985 0.3447,3.7912 5.0193,0.3791 z m -22.3347,-26.8982 0.3881,0.3979 -0.038,0.5571 3.5711,2.865 3.4547,1.0345 0.8926,-0.4376 h 2.3678 l 4.5415,-1.7907 4.2697,-3.8199 2.6782,-1.7508 0.6211,-1.353 0.854,-0.1989 0.3105,-1.9498 -1.5914,-0.6366 -4.231,2.9842 -2.5618,2.8253 -6.4822,3.5813 -3.8428,0.5172 -0.854,-1.1142 -3.1053,-1.711 h -1.242 z"
     style="display:inline;fill:#fefee9;fill-opacity:1;stroke:#646464;stroke-width:0.53333336;stroke-linecap:butt;stroke-linejoin:round;stroke-miterlimit:4;stroke-dasharray:none;stroke-opacity:1"
     id="Coveñas,_Código_DANE_:_70221" />
  <path
     d="m 254.9434,620.1357 0.9663,-5.5562 -0.4832,-1.9327 1.9326,-2.4157 0.4832,-5.3146 1.9326,-2.8989 0.7247,-3.6236 -2.1742,-2.4158 -0.4831,-5.3146 -1.4495,-2.8989 1.4495,-3.3821 0.2416,-5.0731 -5.3147,-8.6966 -4.5899,-0.9663 -1.9568,-2.9818 4.2704,-7.9477 -7.1815,-2.0276 -1.2665,-6.8227 -7.2584,-5.1446 -7.8658,-1.4072 -2.8989,1.691 -3.8651,-2.8989 -2.4158,-0.2415 -2.1741,1.691 -5.0731,-0.7247 -2.1742,-3.8653 -6.0393,1.2079 -4.59,-4.3483 -5.0731,0.7247 -2.4156,-2.1742 -9.9922,0.3957 -1.1203,2.0201 0.4831,3.6236 -2.6573,5.0731 -2.4157,-0.2416 -1.691,1.4495 v 5.073 l -0.2416,2.4157 -8.6967,-0.2415 0.2416,3.382 -1.4495,3.8652 -0.682,7.7819 4.892,4.9048 4.8251,-3.1019 0.3447,-5.8591 6.2691,5.0868 2.6263,6.4 0.3447,3.1019 4.8251,5.1697 h 4.8251 l 0.3447,6.2038 5.1044,9.6502 8.6162,3.7911 3.1019,-1.3785 1.3786,1.7233 1.7232,9.9949 -2.0678,2.7571 6.893,6.8931 4.4804,1.0339 2.068,3.7912 4.4804,4.825 6.5484,1.3787 3.4465,-2.0679 11.0288,-2.0679 7.2148,-8.3158 z"
     style="display:inline;fill:#fefee9;fill-opacity:1;stroke:#646464;stroke-width:0.53333336;stroke-linecap:butt;stroke-linejoin:round;stroke-miterlimit:4;stroke-dasharray:none;stroke-opacity:1"
     id="Palmito,_Código_DANE_:_70523" />
  <path
     d="m 288.2833,639.9432 2.3162,2.589 8.0391,2.3162 4.3602,0.1363 2.4526,1.4988 5.7227,-0.9538 3.1339,5.4502 1.7713,-0.4087 -1.2262,-3.4064 1.635,-1.9076 1.9076,0.1363 1.2262,2.5888 2.3164,0.8176 3.8152,-2.5889 -0.4088,-5.4503 4.9052,-0.9537 1.9076,1.3626 2.9976,-1.3626 6.949,2.4526 -0.8175,2.4526 2.9975,1.9075 h 2.4526 l 4.769,5.7228 4.1766,-0.2252 h -4e-4 l 1.2736,-3.3174 -1.4989,-2.3164 0.8175,-4.7689 3.9516,0.4087 0.4087,-0.6813 3.8151,-0.5449 -2.5888,-2.9977 0.8174,-3.8151 1.9077,-0.1363 0.4087,-6.949 -4.2239,-4.2239 1.0901,-3.9514 -2.0438,-3.4064 1.6349,-2.3163 3.5427,3.1339 1.6351,-1.4989 -0.1363,-2.4526 -4.9052,-1.4988 0.1363,-3.1338 4.7689,-1.0901 0.4088,-2.3163 -2.0438,-1.7713 -3.1128,-7.3054 -3.0187,0.4926 -5.859,5.5864 -5.1777,-1.7713 2.4526,-3.4063 v -6.5403 l -2.0439,-3.8151 -4.7688,-0.8176 -0.2727,-0.9537 c 0,0 1.9078,-2.0438 2.0439,-2.5889 0.1363,-0.545 0.5451,-6.6765 0.5451,-6.6765 l -2.7251,-2.0438 -1.9077,4.2239 -2.9975,0.1363 1.3626,-1.4989 -0.1363,-3.2701 -2.0438,-1.3625 v -1.0901 l 3.9513,-2.5889 -1.6351,-2.0438 -0.6811,-3.5426 -2.9978,1.7713 -1.3625,-1.09 0.2726,-7.4941 -1.6351,-0.545 -2.4526,2.5888 -2.5888,-0.2724 -0.2726,-1.9076 1.3626,-2.1801 -4.6326,-3.5427 -0.6666,-4.0958 -2.188,-1.294 -1.1958,-1.1957 -1.3666,2.7331 -0.6832,4.7829 -1.5374,0.8541 -1.7081,-0.6833 h -1.5374 l -2.2207,0.6833 -1.5374,0.8541 -2.9039,-0.5124 -0.3416,0.8541 1.1957,1.7081 -0.1708,1.7082 -2.5623,-0.1708 -1.7082,3.5872 -3.0748,-2.0498 2.2207,-2.3915 -0.854,-2.0498 -2.5624,-0.1709 -1.8789,-1.3665 -2.904,2.0498 -4.9537,-1.7081 -2.9039,1.0248 -1.3666,1.3666 h -2.3915 l 0.1708,-0.6833 -2.3914,-5.2953 v -3.7581 l -2.5623,-1.7082 -1.0249,2.0499 -5.2955,2.5623 -1.0248,-1.025 -3.5872,1.025 -0.1709,0.8541 -2.5622,3.0746 -5.2954,-1.0248 -1.0249,-2.0498 -4.0997,-0.8541 v -4.4414 l 5.637,-4.0996 -1.0249,-3.758 -4.0996,-1.3666 -4.5449,-7.5948 -4.7243,0.6658 -4.8933,4.2549 -5.5746,-0.6187 -4.7447,-0.1363 -3.2089,1.2382 -0.2666,3.1154 4.3418,1.9266 -0.03,5.2837 4.3531,3.9017 6.9678,4.8862 1.2665,6.8227 7.1815,2.0276 -4.2704,7.9477 1.9568,2.9818 4.5899,0.9663 5.3147,8.6966 -0.2416,5.0731 -1.4495,3.3821 1.4495,2.8989 0.4831,5.3146 2.1742,2.4158 -0.7247,3.6236 -1.9326,2.8989 -0.4832,5.3146 -1.9326,2.4157 0.4832,1.9327 -0.9663,5.5562 0.346,2.8225 2.4394,2.731 -3.1018,3.4465 6.2037,6.5483 v 5.1699 l 3.4465,3.4465 2.0679,-5.5145 5.5145,-0.3446 1.0339,-1.7233 11.0288,-1.3786 0.6055,6.8154 z"
     style="display:inline;fill:#c12838;fill-opacity:1;stroke:#646464;stroke-width:0.53333336;stroke-linecap:butt;stroke-linejoin:round;stroke-miterlimit:4;stroke-dasharray:none;stroke-opacity:1"
     id="Sincelejo,_Código_DANE_:_70001" />
  <path
     d="m 414.8689,751.5527 0.8375,-5.5686 1.2832,-1.3953 0.3416,-3.9289 -6.1495,-6.1494 -0.1709,-10.9324 2.7333,-1.879 -8.541,-4.7829 -1.3667,-3.4165 1.0251,-4.2704 -4.1301,-2.7342 -2.0194,-4.9527 -2.2207,-1.3665 0.6833,-3.2456 -0.6833,-0.854 2.3914,-2.2207 -2.3914,-1.7082 -3.2456,-7.516 -2.3914,-1.1958 -2.0499,-2.0498 0.5125,-1.5374 -0.8541,-1.1957 -1.7082,0.6833 -2.2207,-0.1709 -2.3914,-4.612 -2.3915,0.1707 -2.9039,-2.2206 -0.3416,-4.0997 1.3666,-1.3665 -0.6833,-2.7331 -2.05,-0.1708 -3.5871,-4.9538 -0.854,1.025 -0.1709,2.9039 -1.7083,1.5373 -0.5123,3.758 1.0249,1.1957 v 1.8791 l -2.5623,1.1957 -1.3666,4.4413 -2.3915,0.6833 2.5623,1.7082 -0.1708,4.7829 2.0499,2.7331 h 2.3915 l -1.0251,1.8791 -3.0745,-0.3417 -2.904,-3.758 -1.3667,-5.1246 -0.854,-0.3416 v -4.2705 l -1.0249,-2.2206 -2.0499,-1.1957 -0.6832,-4.4414 -1.025,-1.0249 1.8791,-2.2207 -0.8541,-1.3665 h -3.0747 l -3.5873,-2.2207 1.8791,-3.4163 3.9287,-0.1709 2.0499,-3.2455 -2.3914,-0.8541 -0.073,-0.6182 -4.0877,0.2725 -4.7689,-5.7228 h -2.4526 l -2.9975,-1.9075 0.8174,-2.4526 -6.949,-2.4526 -2.9976,1.3626 -1.9075,-1.3626 -4.9053,0.9537 0.4087,5.4503 -3.815,2.5889 -2.3164,-0.8176 -1.2262,-2.5888 -1.9077,-0.1363 -1.6349,1.9076 1.2262,3.4064 -1.7713,0.4087 -3.1339,-5.4502 -5.7227,0.9538 -2.4526,-1.4988 -4.3602,-0.1363 -8.0391,-2.3162 -2.3163,-2.589 -3.7734,2.2658 -2.3103,5.5379 0.3447,6.893 -4.8252,7.5823 2.0679,2.4126 -2.7572,3.4465 2.7572,4.1358 -2.4126,2.7572 0.6894,3.4465 h 3.7912 l 3.4465,2.4126 3.7911,3.7911 3.1019,1.0339 7.2376,7.5824 7.5823,0.6893 0.3447,2.0679 -3.4465,4.1359 -1.3786,8.2715 3.4465,4.8252 5.5145,-3.7912 4.1358,-1.3786 3.1018,5.1698 5.1698,-4.1359 10.3396,-1.3785 1.3785,-2.7573 2.068,-0.6893 v 2.4126 l 6.893,11.3735 4.4804,1.7233 5.1698,-5.1698 4.4804,1.0339 8.2717,6.893 5.1697,1.034 9.9949,10.3395 2.068,5.8591 4.825,-1.034 4.8252,2.7572 1.3786,7.5824 -3.7912,5.1697 2.068,3.4466 7.9269,-6.5484 h 4.1358 l 3.4465,3.4465 z"
     style="display:inline;fill:#fefee9;fill-opacity:1;stroke:#646464;stroke-width:0.53333336;stroke-linecap:butt;stroke-linejoin:round;stroke-miterlimit:4;stroke-dasharray:none;stroke-opacity:1"
     id="Sampues,_Código_DANE_:_70670" />
  <path
     d="m 445.2258,772.4845 5.3039,0.6274 1.4389,3.0376 7.9939,8.4737 -7.0346,4.4766 5.9155,6.0756 1.279,0.3196 2.2384,-3.5173 1.1191,0.6396 2.558,-0.4797 0.16,-3.1976 10.0725,-3.997 4.7963,2.0784 0.6396,1.7588 2.7179,1.1191 -3.837,8.3137 7.3543,3.0378 3.5174,-4.6365 0.1599,-5.1162 3.3576,0.4796 3.997,-5.1162 -1.9186,-1.4389 1.279,-1.4389 2.8778,0.3198 0.7995,2.3981 1.1192,0.3198 1.4388,-3.6772 -3.3575,-2.0785 -0.6395,-2.5581 1.1193,-0.9592 4.7962,0.3198 0.3199,-2.3982 4.3167,-3.6773 1.7587,0.3197 2.0784,-1.1191 1.5988,0.3198 -1.1191,2.7179 2.0785,2.2383 h 4.1568 l 2.718,0.9593 3.5173,8.1539 4.1569,0.1599 0.9593,-3.0378 2.718,2.2384 h 3.8371 l 2.2383,-6.2354 -5.5957,-6.5551 7.1945,-0.7993 3.1977,-6.2353 6.8747,-3.3576 2.0785,1.5988 12.6306,1.5989 1.0789,0.9996 h 4e-4 l 1.3193,-3.2379 -7.0348,-11.8312 1.2791,-2.5581 -1.9186,-1.7587 h -3.997 l -0.3198,-1.4389 -3.6772,-1.279 -3.1975,-5.9156 -4.6366,4.1569 -2.7179,-2.3981 h -4.3169 l -3.9969,-3.8373 -3.3575,-0.3197 -1.5988,-5.5958 -1.8369,-1.0367 -1.2023,1.2061 -1.9263,3.3707 -1.605,0.1605 -3.6919,-2.4077 -1.605,-3.2102 -3.5312,2.4077 -1.7656,5.1363 -6.0995,0.6421 -3.3707,-1.9262 -3.8523,2.2472 -1.605,-2.0866 1.605,-1.9262 3.2102,-0.321 -0.642,-3.2102 5.2969,-4.4943 -2.0866,-6.26 -3.3708,-2.0866 -0.4815,-4.4943 -10.1122,-5.7784 -3.0497,0.321 -0.4815,-1.7656 1.284,-2.0866 0.8026,-7.544 3.6917,-5.2969 -1.284,-1.2841 -3.5313,2.8892 -2.2472,-0.321 -3.3708,-3.8523 -6.2598,6.902 0.4815,2.5682 -2.2472,2.2471 1.1237,4.8153 -2.4077,1.9262 -0.642,2.0866 1.605,3.6917 1.6052,-0.1604 2.7286,-2.0867 2.0867,4.1733 6.7414,4.0128 4.8154,8.9886 0.1604,7.0625 -2.2472,1.7655 -1.7655,-1.284 -4.6548,3.3707 0.321,1.4447 6.7415,2.2471 0.8025,1.2841 -6.9019,4.9757 -2.8893,0.3211 -1.1235,2.2472 -1.9261,0.4816 v 2.247 l 2.5681,1.4447 -1.7657,2.5681 -0.1604,2.0867 -4.9758,-3.3708 -0.9632,-2.0866 -8.3464,-3.8522 -0.6422,-5.7785 3.8523,-7.2229 0.1605,-5.7785 -3.8522,-4.4943 -3.6918,1.6051 -0.9631,1.4446 -1.926,-1.4446 -0.8026,-4.3337 -13.0014,0.1605 -3.0497,1.2841 -0.642,4.1732 -1.6051,1.2842 -8.3466,0.1605 -2.8892,2.2471 -1.7656,-0.6421 0.1605,-3.6917 -3.8523,-2.4077 -7.223,-12.3593 -0.642,-4.8153 2.5681,-4.1734 -2.5681,-2.0866 -8.8282,1.9262 -1.4446,0.963 -2.4075,-0.963 -2.6616,2.0897 0.085,0.353 4.0839,2.6758 -1.0251,4.2704 1.3666,3.4165 8.541,4.7829 -2.7332,1.879 0.1709,10.9324 6.1494,6.1494 -0.3415,3.9289 -1.2682,1.429 -0.8275,5.4796 4.8216,2.7466 5.5143,1.3787 5.1698,4.1358 2.7572,6.893 4.8251,2.7572 6.5484,0.6893 z"
     style="display:inline;fill:#fefee9;fill-opacity:1;stroke:#646464;stroke-width:0.53333336;stroke-linecap:butt;stroke-linejoin:round;stroke-miterlimit:4;stroke-dasharray:none;stroke-opacity:1"
     id="El_Roble,_Código_DANE_:_70233" />
  <path
     d="m 443.8983,848.332 3.5085,1.2264 1.3567,-0.6783 -1.3567,-2.1481 1.9219,-0.6782 3.4062,2.8263 3.9569,0.7914 3.9569,5.2004 5.3134,3.8437 5.3135,-0.9044 6.7831,0.7914 7.4615,3.3915 2.035,5.3135 3.9568,0.6783 3.8438,4.5221 6.8961,1.4697 6.3309,-0.5652 2.9394,0.9043 4.8613,6.7831 9.0441,9.8357 3.0525,1.5827 5.0873,7.0092 0.1131,6.1048 3.3916,4.296 1.5827,4.5221 1.6958,-0.4522 8.2528,-6.444 1.2436,3.8438 h 4.296 v 1.4697 l -1.2436,0.5653 1.1305,1.3565 3.3916,-1.6957 1.9218,0.4522 1.4698,4.0699 3.2785,0.1131 1.5827,-1.3566 h 1.0174 l -0.3391,2.7131 2.4871,-1.0173 3.2786,0.339 0.3392,3.5047 3.0524,3.9568 h 1.6957 l 1.4698,2.7133 -1.1306,2.261 -0.9044,0.4522 -0.1131,5.3135 1.0175,2.0349 -2.4871,2.3741 h -2.3742 l -0.9043,-0.9044 -0.7914,0.113 -0.9044,0.9045 v 5.8787 l -1.5829,1.1305 -2.7132,3.7307 -2.261,-0.226 -0.1131,2.1479 2.7133,1.0175 -2.3741,2.148 0.1131,2.035 2.261,2.1479 -0.3392,2.4873 -4.7482,-0.1131 -1.9218,1.5827 1.4696,2.6002 7.6876,2.3741 2.3741,6.2178 -4.6351,5.4266 -1.4698,4.409 2.4872,0.9045 6.7831,-2.6002 1.1305,2.4871 -2.6001,2.261 h -2.4872 l -0.3391,1.6958 1.4697,1.1306 4.8611,-0.3392 2.9394,5.0873 1.5828,0.6783 5.7657,-4.8612 3.9568,-0.2261 5.8787,2.2611 0.5654,2.7133 -2.6004,3.8437 -3.3914,-0.7914 -1.3566,-1.4696 h -1.6959 l -1.6958,1.2435 v 2.4871 l 5.5395,1.1306 2.7133,3.6177 -2.148,2.7132 -5.0873,-2.6001 -5.9918,-0.1131 -5.6526,4.409 -0.3392,5.4265 -5.9918,6.444 -0.113,4.5221 -1.2435,1.5827 v 5.0874 l 4.522,3.0524 0.1666,2.6687 v 2e-4 l -1.2519,0.3386 -1.2792,4.3168 -0.9592,-2.3981 -4.9563,-0.1599 -1.5987,-3.9971 -3.5175,2.5581 -2.0784,-7.1945 -3.997,-3.997 -3.3575,4.1569 v 1.9185 l -2.3982,2.558 -6.8748,-3.1975 -0.9592,-4.3168 -1.1192,-1.7587 h -5.1162 l 0.9593,-5.436 -1.2791,-1.7586 -0.3197,-5.276 4.6365,-2.8779 1.4389,-7.3545 -2.2383,-2.2384 2.718,-3.5173 c 0,0 0,-2.3982 0,-3.1975 0,-0.7995 2.558,-2.8779 2.558,-2.8779 l -3.1976,-0.9593 -8.4736,-12.9502 -5.436,0.9592 -2.7179,2.5581 -5.1162,-2.3982 -2.5581,3.3574 h -1.5988 l -3.5173,-3.997 -1.1192,-2.2383 -3.3574,1.5989 -6.3953,-0.6396 -0.9593,-2.0784 h -1.279 l -3.6772,3.1975 -6.2353,0.4797 -6.2355,-2.718 -4.3167,1.9187 -2.558,-0.7995 -6.715,-6.3952 -3.1977,-0.7994 -3.1976,1.5987 -1.9185,-0.7993 -3.1977,1.1191 -2.8777,-1.7586 -5.276,-0.7994 h -2.7181 l -0.9592,-3.1976 -1.5989,-2.5581 1.2791,-2.3982 -0.9593,-1.279 -2.0976,1.6866 -2.2049,0.069 -1.1305,2.2612 -3.9568,-2.035 1.6958,-1.5827 -1.3567,-1.0175 h -4.0699 l -2.148,1.3567 0.1131,-3.9569 h -3.9569 v 1.3566 l -3.0524,-2.9394 v -1.1305 l -2.035,0.2261 -0.9044,1.2436 -2.6001,-2.148 1.4697,-2.3741 -2.7133,-3.6177 v -3.6176 l 1.2436,-1.2436 3.8437,-0.3391 0.2261,-2.9394 4.6353,-5.7657 -0.9044,-1.9219 2.374,0.6783 1.1305,-1.9218 4.5221,-0.6784 0.7914,1.9219 1.6958,-0.3392 1.6958,-3.5045 2.1479,-0.1131 0.7915,-1.1306 -2.9394,-1.5827 0.6782,-0.6783 3.1656,0.3391 1.1304,-3.9568 2.9395,-3.3916 -0.1132,-3.8437 1.6959,-1.9219 1.5826,-0.4523 0.2262,-1.4696 -3.8438,-3.5047 -1.9219,0.1131 -5.2005,-4.409 -3.1654,-1.5828 -1.8088,-3.2785 -8.592,-1.8089 -2.148,1.1306 0.5652,-5.0874 -1.0174,-1.6957 2.148,-2.0349 0.2261,-5.2005 3.3916,-0.3392 0.5652,-1.3565 3.0524,3.0523 7.2354,-5.0873 -0.2261,-2.8264 1.4697,-1.3566 2.7133,1.922 7.4614,-0.7914 0.6782,-1.8089 2.8265,-1.5827 3.5045,-8.705 -0.226,-3.0524 -6.331,-5.2004 -6.331,0.4521 -3.2759,-2.7214 -0.014,-0.063 4.9836,-3.4669 3.7912,1.7232 z"
     style="display:inline;fill:#fefee9;fill-opacity:1;stroke:#646464;stroke-width:0.53333336;stroke-linecap:butt;stroke-linejoin:round;stroke-miterlimit:4;stroke-dasharray:none;stroke-opacity:1"
     id="Caimito,_Código_DANE_:_70124" />
  <path
     d="m 433.5011,857.6395 -1.3786,4.1357 -9.6502,9.6503 -3.1019,2.0678 -5.8591,-6.893 h -8.9609 l -0.6893,5.5145 -6.5484,7.5823 h -4.8252 l -7.9269,6.893 -3.4465,-3.4465 -2.4126,1.3786 2.7572,7.2377 v 6.5484 l -5.5144,4.1357 -8.9609,-4.825 -9.3056,-0.6893 -9.3056,2.7571 -7.9269,-3.7911 -13.4415,3.7911 -5.1697,5.5145 3.1019,5.5144 9.6502,2.4126 4.1358,4.4804 -1.6141,4.1262 0.8896,7.3392 7.1168,7.1168 -0.4448,3.7808 1.3344,3.5584 4.2256,-0.6672 6.8944,5.7824 h 2.4464 l 1.5568,1.112 -0.6672,2.8912 3.336,2.8912 10.6752,2.0016 -3.336,2.6688 -4.2256,-0.8896 -5.9957,3.8118 8.5013,0.6088 6.331,3.7308 h 10.853 l 3.6177,-2.148 0.4523,3.6176 3.3914,3.2785 -0.226,4.5222 1.9218,0.9044 2.3741,-5.6526 1.1307,-0.113 0.1129,-5.2005 -0.9044,-1.4696 1.3567,-0.4523 3.5046,2.6002 v 1.9219 l 5.6526,6.7832 11.8705,-0.1131 5.5396,3.1655 -0.5653,-3.6177 0.7913,-1.3566 5.7657,-1.3566 5.9918,-3.8439 0.9055,-4.3815 -2.4882,0.085 -1.1305,2.2611 -3.9568,-2.0349 1.6957,-1.5828 -1.3567,-1.0175 h -4.0698 l -2.148,1.3566 0.1131,-3.9568 h -3.9569 v 1.3566 l -3.0524,-2.9393 v -1.1305 l -2.035,0.2261 -0.9044,1.2436 -2.6001,-2.148 1.4697,-2.3741 -2.7133,-3.6177 v -3.6176 l 1.2436,-1.2437 3.8437,-0.3392 0.2261,-2.9393 4.6353,-5.7656 -0.9045,-1.9219 2.3741,0.6783 1.1305,-1.9219 4.5221,-0.6784 0.7914,1.922 1.6958,-0.3392 1.6957,-3.5046 2.148,-0.113 0.7915,-1.1306 -2.9395,-1.5827 0.6783,-0.6783 3.1656,0.3391 1.1304,-3.9568 2.9394,-3.3916 -0.1131,-3.8437 1.6959,-1.9219 1.5826,-0.4523 0.2262,-1.4697 -3.8438,-3.5046 -1.9219,0.1131 -5.2005,-4.4091 -3.1654,-1.5827 -1.8089,-3.2785 -8.592,-1.8089 -2.1479,1.1306 0.5652,-5.0874 -1.0174,-1.6958 2.148,-2.035 0.2261,-5.2003 3.3916,-0.3392 0.5652,-1.3566 3.0524,3.0524 7.2354,-5.0873 -0.2261,-2.8264 1.4697,-1.3566 2.7133,1.9219 7.4613,-0.7913 0.6783,-1.8089 2.8265,-1.5827 3.5045,-8.7051 -0.226,-3.0523 -6.331,-5.2005 -6.331,0.4522 -3.2518,-2.7386 z"
     style="display:inline;fill:#fefee9;fill-opacity:1;stroke:#646464;stroke-width:0.53333336;stroke-linecap:butt;stroke-linejoin:round;stroke-miterlimit:4;stroke-dasharray:none;stroke-opacity:1"
     id="La_Unión,_Código_DANE_:_70400" />
  <path
     d="m 364.6855,967.9941 -1.112,6.4496 -6.2272,9.5632 v 5.1152 l 4.8928,4.8928 -1.5568,4.2256 -5.56,6.672 1.112,13.344 4.8928,3.7808 5.56,-0.4448 0.4448,1.112 -3.5584,4.0032 -0.6672,3.336 4.0032,1.3344 -2.224,2.224 -1.112,9.5632 2.4464,6.8944 7.1168,11.1201 1.3344,9.7856 -1.5568,0.6672 -3.336,9.1184 -1.3344,1.3344 v 1.7792 l 3.5584,1.7792 3.1136,6.0048 2.8912,0.6672 1.112,8.2288 2.224,1.3344 -2.4464,1.7792 -1.112,3.1136 3.1136,4.6704 1.5568,5.1152 -2.224,1.3344 2.0016,4.0032 2.4464,-2.6688 h 10.008 l 6.672,4.8928 1.3344,2.0016 11.7872,0.4448 3.336,-0.2224 7.1168,3.5584 2.224,4.0032 5.3376,1.7792 0.8896,-4.2256 3.5584,-0.6672 1.112,2.4464 -0.8896,3.5584 7.784,6.0048 3.5584,-0.2224 0.2224,-2.4464 h 2.224 l 0.8896,2.6688 -3.5584,2.0016 -1.112,2.224 1.112,2.8912 -2.6688,5.3376 -6.0048,0.6672 -5.1152,7.3392 3.1136,6.672 -0.2224,7.1168 1.7792,0.6672 1.3344,-4.8928 6.672,-4.6704 3.7808,0.2224 -1.7792,2.0016 3.1136,2.224 2.0016,8.0064 3.5585,4.6704 3.7808,-2.224 h 3.1136 l 0.8896,2.4464 7.784,1.3344 1.112,-2.224 3.5584,2.6688 2.6688,-2.0016 0.2224,-5.3376 3.7808,-0.4448 3.336,2.0016 6.4496,-2.224 0.8896,-2.4464 5.56,-0.2224 12.232,-7.1168 -1.7792,-3.7808 2.224,-2.224 5.3376,1.5568 3.5584,-2.224 -2.0016,-4.0032 -1.112,-2.4464 3.5584,-2.6688 5.3376,0.8896 9.7856,-5.7824 2.8912,-6.0048 3.6893,-2.0564 2.8012,4.0463 7.47,-2.49 3.4238,-7.1589 -2.1787,-7.1587 3.4237,-8.0926 3.4238,-1.245 v 3.1126 l 9.96,11.2051 h 4.3576 l 3.145,-2.2028 -0.4601,-4.6579 -4.0043,-3.8122 2.8779,-0.7993 3.6772,-9.433 -3.8371,-2.3982 -1.1192,-3.6773 -3.1976,-3.9969 1.439,-2.0785 v -4.4766 c 0,0 4.1568,-1.2792 4.3167,-1.9186 0.1599,-0.6396 0.1599,-4.4767 0.1599,-4.4767 l 3.1977,-4.6365 -3.1977,-2.0784 v -2.718 l 4.1569,-3.6773 0.3198,-0.9593 3.0377,-2.2383 0.3196,-2.3981 -2.558,-1.7588 -0.3197,-1.5988 2.3982,-2.2383 1.279,-3.6772 -3.6772,-3.6772 3.6772,-2.718 -6.0754,-6.3952 c 0,0 -0.3198,-3.0378 -0.4796,-3.6772 -0.16,-0.6396 -5.436,2.558 -5.436,2.558 l -1.5987,-1.1191 1.7586,-3.6773 -3.9969,-0.1599 -0.8023,-1.5974 v 3e-4 l -1.2762,0.3182 -1.2792,4.3168 -0.9592,-2.3981 -4.9563,-0.1599 -1.5987,-3.997 -3.5175,2.558 -2.0784,-7.1945 -3.997,-3.997 -3.3575,4.1569 v 1.9185 l -2.3982,2.5581 -6.8748,-3.1976 -0.9592,-4.3168 -1.1192,-1.7587 h -5.1162 l 0.9593,-5.436 -1.2791,-1.7586 -0.3197,-5.276 4.6365,-2.8779 1.4389,-7.3544 -2.2383,-2.2384 2.718,-3.5174 c 0,0 0,-2.3982 0,-3.1975 0,-0.7995 2.558,-2.8779 2.558,-2.8779 l -3.1976,-0.9592 -8.4736,-12.9503 -5.436,0.9592 -2.7179,2.5581 -5.1162,-2.3982 -2.5581,3.3574 h -1.5988 l -3.5173,-3.997 -1.1192,-2.2383 -3.3574,1.5989 -6.3953,-0.6396 -0.9593,-2.0784 h -1.279 l -3.6772,3.1975 -6.2353,0.4797 -6.2355,-2.718 -4.3167,1.9187 -2.558,-0.7995 -6.715,-6.3952 -3.1977,-0.7994 -3.1976,1.5988 -1.9185,-0.7994 -3.1977,1.1191 -2.8777,-1.7586 -5.276,-0.7994 h -2.7181 l -0.9592,-3.1976 -1.5989,-2.5581 1.2791,-2.3982 -0.9593,-1.279 -1.7321,1.4419 -0.9877,4.6103 -5.9917,3.8438 -5.7658,1.3566 -0.7913,1.3566 0.5653,3.6177 -5.5395,-3.1655 -11.8706,0.1131 -5.6525,-6.7831 v -1.922 l -3.5047,-2.6002 -1.3567,0.4523 0.9045,1.4697 -0.113,5.2004 -1.1307,0.113 -2.3741,5.6526 -1.9218,-0.9044 0.2261,-4.5221 -3.3915,-3.2785 -0.4523,-3.6176 -3.6177,2.1479 h -10.853 l -6.331,-3.7308 -8.3149,-0.6492 z"
     style="display:inline;fill:#fefee9;fill-opacity:1;stroke:#646464;stroke-width:0.53333336;stroke-linecap:butt;stroke-linejoin:round;stroke-miterlimit:4;stroke-dasharray:none;stroke-opacity:1"
     id="San_Marcos,_Código_DANE_:_70708" />
  <path
     d="m 685.5127,1187.7432 -3.1125,1.2451 4.0463,6.8475 3.4238,-1.245 8.4038,4.3575 3.1124,3.4237 -1.8674,0.9338 -0.3112,3.735 3.1124,1.5563 -0.9338,4.0463 1.8675,4.6688 -2.49,2.8013 2.8013,2.1787 0.3112,7.1588 -0.9337,4.3575 -2.1788,0.6225 1.8675,2.4901 0.3113,3.735 -3.4237,1.8675 4.6687,4.0462 0.2501,11.6474 2.1912,-0.1231 0.6863,1.0977 2.8827,0.068 0.5492,1.0978 1.8531,-0.068 1.2929,-0.9476 2.6082,-0.1373 0.4118,1.2349 1.7845,-0.2745 0.2744,-3.1556 9.609,-3.979 0.8237,-4.3905 5.0789,-4.9394 0.6863,-2.8813 2.4709,-0.2745 1.6472,3.7046 1.6472,1.9208 0.549,3.7046 8.9227,4.9394 2.3336,-0.9605 0.9608,-0.8232 0.4117,-0.8233 -1.6471,-0.2743 -1.0982,-2.1953 2.6082,-1.2349 h 4.3926 l 1.3726,1.3721 4.1182,0.2744 0.549,-1.7837 2.8827,-0.5488 0.8236,0.8233 4.8044,0.5488 3.9808,-2.1953 h 8.0989 l 4.8045,2.6069 2.8826,6.9975 1.7846,1.0976 0.2744,-1.3721 h 2.3337 l 2.3335,-2.4697 -0.5542,-12.2359 1.51,-6.9974 2.4709,-0.4117 6.8635,-5.7625 5.3535,-3.979 7.9616,-11.9369 2.1963,-19.7574 -2.0591,-2.8813 -0.2745,-3.0185 2.6082,-2.7442 0.4117,-4.5277 2.4708,-1.5093 h 0.8236 v 2.1953 l 2.3337,2.8813 0.1373,3.979 2.4708,0.9604 14.0751,0.2926 8.2361,-1.6465 0.1373,-0.686 -1.3728,-0.686 -0.549,-3.8417 0.9609,-0.9605 -0.1373,-4.9394 5.2162,-7.1346 1.2355,-0.1372 6.1771,-8.2323 2.4708,-10.702 0.6314,-4.9825 1.9218,-5.3509 1.3727,-0.8233 0.1372,-1.6465 -1.3726,-1.2347 -2.6082,-6.0371 -5.1228,-6.7449 -0.5238,-10.518 -0.2745,-1.9208 -1.6473,-0.4117 -0.8236,1.3721 -5.0606,-1.1439 -0.8236,0.8232 -1.9218,0.5488 -2.9871,-2.8491 -2.9519,3.4384 -2.7132,1.1304 -7.9137,-0.226 -0.9044,2.0349 -4.5221,5.2004 -6.557,0.4522 -1.8088,1.8088 1.5826,1.8089 -0.6782,4.296 4.522,4.522 -3.1654,1.3567 -1.5827,3.1654 v 3.1655 l -3.3916,-0.2261 -2.2611,-2.9394 -1.5827,2.7133 -3.8438,2.035 -3.1655,-2.9394 -2.0349,-0.4523 -1.3566,-1.1304 -4.0699,0.9044 -3.1655,3.6177 0.226,5.8787 2.9395,0.4523 2.4871,4.2959 -2.0349,4.5221 -2.4872,-0.2261 -0.9045,1.1305 -2.9393,-3.3916 -2.261,0.6784 -4.2959,9.2703 -2.7133,2.7132 -3.1655,1.5826 3.1655,0.6784 v 6.331 l -1.8088,1.5826 2.487,4.2962 -0.9044,0.9044 2.7133,7.0092 1.1305,0.226 -0.6783,2.9395 -44.9948,9.4964 -1.3566,1.3566 h -6.1048 l 0.2261,4.9742 1.5826,2.7133 -0.4522,0.6784 -3.3916,-1.8089 -6.1047,0.2261 -0.6784,-4.0698 -2.261,-1.1306 2.7133,-5.2004 -2.2612,-5.2004 1.8089,-3.1656 -6.1048,-7.4614 1.1305,-3.6176 -0.226,-2.2611 -5.4266,-4.0699 -1.3566,-3.8437 -5.4265,-3.3916 -2.4872,-3.6176 -3.1654,0.4522 -4.0699,4.9741 -7.6876,3.6178 -3.8437,7.2354 3.3915,3.6177 -6.3309,0.4521 -2.5612,-0.287 z"
     style="display:inline;fill:#fefee9;fill-opacity:1;stroke:#646464;stroke-width:0.53333336;stroke-linecap:butt;stroke-linejoin:round;stroke-miterlimit:4;stroke-dasharray:none;stroke-opacity:1"
     id="Guaranda,_Código_DANE_:_70265" />
  <path
     d="m 685.365,1183.729 2.632,0.3518 6.3309,-0.4521 -3.3915,-3.6177 3.8437,-7.2354 7.6876,-3.6177 4.0699,-4.9742 3.1654,-0.4522 2.4871,3.6176 5.4266,3.3916 1.3566,3.8437 5.4266,4.0699 0.226,2.2611 -1.1305,3.6176 6.1048,7.4614 -1.8089,3.1656 2.2611,5.2004 -2.7132,5.2004 2.261,1.1306 0.6784,4.0698 6.1047,-0.2261 3.3917,1.8089 0.4522,-0.6784 -1.5828,-2.7133 -0.226,-4.9742 h 6.1048 l 1.3565,-1.3566 44.9949,-9.4964 0.6783,-2.9395 -1.1305,-0.226 -2.7133,-7.0092 0.9044,-0.9044 -2.487,-4.2961 1.8088,-1.5827 v -6.3309 l -3.1655,-0.6784 3.1655,-1.5827 2.7133,-2.7132 4.2959,-9.2703 2.261,-0.6784 2.9393,3.3917 0.9044,-1.1306 2.4873,0.2261 2.0349,-4.5221 -2.4871,-4.2959 -2.9395,-0.4523 -0.226,-5.8787 3.1655,-3.6177 4.0699,-0.9044 1.3566,1.1304 2.0349,0.4523 3.1655,2.9394 3.8437,-2.035 1.5828,-2.7133 2.2611,2.9395 3.3916,0.226 v -3.1655 l 1.5827,-3.1654 3.1654,-1.3567 -4.522,-4.522 0.6782,-4.296 -1.5826,-1.8089 1.8088,-1.8088 6.557,-0.4522 4.5221,-5.2004 0.9044,-2.0349 7.9137,0.226 2.7132,-1.1304 2.9171,-3.377 v -3.1123 l -0.9608,-5.3509 -2.3336,-2.7441 -0.4117,-5.8999 -1.3728,-0.8232 -0.2746,-3.8417 3.1572,-2.3325 v -1.5092 l 0.8236,-0.5488 0.4119,-1.5094 -2.3336,-2.4696 v -1.3721 l -0.8237,-0.5488 -0.2746,-2.7441 1.5101,-1.2349 0.6863,-2.8812 1.0983,-1.0976 v -1.9209 l -5.6282,-5.6255 -5.6281,-0.4116 -4.6672,-4.665 -0.8235,-0.4116 -0.4118,-1.5092 1.6473,-1.0976 2.7454,-6.7231 0.2562,-8.872 h 1.0981 l 0.2745,-2.0582 -2.3336,-3.0184 -3.1572,-10.4276 -2.059,-1.9209 v -3.5674 l 0.961,-0.1371 3.0198,-4.8022 h 0.9609 l 0.2745,-1.2348 -3.1572,-5.2138 -0.2744,-6.7231 1.3725,-1.0976 0.1373,-3.5674 -4.2552,-5.7625 0.1372,-2.6069 -2.3336,-6.723 -3.9808,-4.5278 -0.5491,-2.0582 2.0393,-1.2555 -1.228,-1.1098 h -7.6877 l -4.5219,-9.9487 -8.1399,-1.8088 -1.8088,-6.7831 -2.7133,-0.4522 -0.6783,-2.2611 -8.1397,-0.9044 -3.3917,-4.5221 -3.8437,2.9394 -2.7133,0.4522 -4.9743,5.6525 5.4266,3.1656 1.3565,-1.8089 h 3.1656 l 1.5826,3.1655 0.9044,-1.3566 2.4873,-0.4523 0.226,-1.1304 6.1049,2.0349 2.0349,0.4522 v 4.0699 l -3.3916,3.1654 h -2.7132 l -2.9394,4.0699 -3.8438,-5.4265 -5.2004,2.7132 -2.4871,2.2611 h -1.8089 v 4.296 l -4.0698,-0.9044 -2.0349,3.1654 -3.8439,-2.0349 h -1.5827 l -5.4265,3.8438 -2.9395,-1.5827 h -6.557 l -0.6782,-5.2004 -5.6527,-5.4266 -5.8786,0.2261 -2.2611,2.7133 1.5827,1.8089 v 7.6875 l 6.3309,9.9486 2.9394,-0.6783 4.296,3.1655 v 2.9393 l -3.1654,4.0698 0.9044,2.4873 -2.2611,5.4264 h -2.035 l -1.5826,2.2611 h -4.9744 l -2.261,2.9394 1.3566,4.0698 3.1655,0.9045 1.1305,2.7132 -3.1654,1.1305 -2.2611,3.8438 1.3567,1.8089 3.8437,-0.9044 3.1655,4.7481 -2.4873,4.0699 -3.6175,0.2261 -0.9044,3.6177 -5.8788,0.4522 -2.7132,-1.1305 -5.2005,0.4522 -4.0698,9.4964 -2.035,0.2262 -2.2611,2.261 -4.7482,-0.4523 -3.6176,3.6177 1.3566,5.4266 -2.4872,5.8787 h -2.261 l -4.5221,4.7482 -4.296,-0.9045 -4.0699,2.7133 1.5828,2.261 -6.1049,3.3916 h -8.8181 l -3.2784,1.4696 -1.6959,3.5047 4.2961,6.331 v 4.7481 l 4.9743,2.035 -0.2261,5.6526 -4.07,3.3916 -1.5826,-1.1306 0.226,4.5222 2.4872,3.1654 -0.4522,3.8438 -1.8088,2.2612 0.6782,4.7481 -4.9742,-1.5828 -2.7133,1.5828 -8.3659,-1.8088 -2.261,-0.6784 -1.3567,5.2004 2.4873,3.1655 -3.6178,2.9393 -1.8088,4.5222 0.9044,2.9393 -6.5571,1.8088 -2.487,4.0699 -2.9395,1.3566 -5.6526,-2.9393 -3.1075,7.3794 2.4924,-0.011 5.9138,4.0463 1.5563,5.6026 4.0463,2.8012 8.715,16.8076 -1.5562,4.6687 4.6687,5.9138 4.0463,1.2451 4.6688,-3.1126 1.8675,0.3113 2.8013,2.49 5.9137,1.245 1.8675,-2.49 z"
     style="display:inline;fill:#fefee9;fill-opacity:1;stroke:#646464;stroke-width:0.53333336;stroke-linecap:butt;stroke-linejoin:round;stroke-miterlimit:4;stroke-dasharray:none;stroke-opacity:1"
     id="Majagual,_Código_DANE_:_70429" />
  <path
     d="m 715.7708,779.0277 -5.1161,-0.9592 -1.9185,2.5581 -4.1569,-2.8779 -0.9593,2.2383 2.2383,4.7965 -5.4359,4.7963 -5.436,11.5114 -7.3544,11.1917 -8.9533,6.3952 -3.5174,-0.9594 1.279,5.1162 1.9187,4.1569 -0.9595,5.1161 -8.9531,8.6336 0.6395,5.7557 -1.9187,4.4767 v 9.9125 l -8.9532,0.3198 1.5989,4.4766 6.715,4.4767 -0.6396,15.988 5.1161,11.5114 -5.7557,3.5173 h -12.7904 v 6.0754 l 3.8371,6.715 1.5989,7.0348 1.9186,3.1975 -6.3953,6.0755 0.3197,-9.273 -2.558,-2.8779 -7.6743,1.2791 -0.9592,7.3544 4.1569,7.994 -5.1163,4.4767 2.8779,4.7964 3.1976,7.994 3.1976,2.5581 -7.6743,5.436 3.1977,4.1569 -3.1977,3.5173 4.1569,6.0754 -3.5173,2.8779 3.1976,5.1161 4.7963,1.2791 -3.1975,3.5173 4.1569,2.8779 -1.5988,8.3138 4.4767,7.994 6.3952,-1.9186 4.4767,0.9593 6.7149,9.9126 -4.4768,8.9533 2.878,0.6394 -2.878,7.3546 -6.0754,5.4358 -4.1569,0.9594 v 1.5987 l 5.4361,1.2791 v 4.1569 l -4.1569,4.1569 0.9592,6.0754 5.4359,0.9593 -4.4766,3.5174 h 5.4358 l -1.2789,8.6335 6.715,2.8778 1.3649,2.7034 3.4014,-1.3809 h 8.8181 l 6.1048,-3.3916 -1.5828,-2.261 4.07,-2.7133 4.296,0.9045 4.522,-4.7482 h 2.261 l 2.4873,-5.8787 -1.3566,-5.4266 3.6176,-3.6177 4.7482,0.4523 2.2611,-2.261 2.035,-0.2262 4.0697,-9.4964 5.2006,-0.4522 2.7131,1.1305 5.8789,-0.4522 0.9044,-3.6177 3.6175,-0.2261 2.4872,-4.0699 -3.1654,-4.7481 -3.8437,0.9044 -1.3567,-1.8089 2.2611,-3.8438 3.1653,-1.1305 -1.1304,-2.7132 -3.1656,-0.9045 -1.3566,-4.0698 2.261,-2.9394 h 4.9744 l 1.5827,-2.2611 h 2.0349 l 2.2612,-5.4264 -0.9045,-2.4873 3.1655,-4.0698 v -2.9393 l -4.296,-3.1655 -2.9394,0.6783 -6.3309,-9.9486 v -7.6875 l -1.5827,-1.8089 2.2611,-2.7133 5.8786,-0.2261 5.6527,5.4266 0.6782,5.2004 h 6.5571 l 2.9393,1.5827 5.4266,-3.8438 h 1.5827 l 3.8438,2.0349 2.0349,-3.1654 4.0699,0.9044 v -4.296 h 1.8088 l 2.4872,-2.2611 5.2004,-2.7132 3.8437,5.4265 2.9394,-4.0699 h 2.7133 l 3.3916,-3.1654 v -4.0699 l -2.035,-0.4522 -6.1048,-2.0349 -0.2261,1.1304 -2.4872,0.4523 -0.9044,1.3566 -1.5827,-3.1655 h -3.1655 l -1.3566,1.8089 -5.4266,-3.1656 4.9743,-5.6525 2.7133,-0.4522 3.8438,-2.9394 3.3916,4.5221 8.1398,0.9044 0.6783,2.2611 2.7132,0.4522 1.8089,6.7831 8.1398,1.8088 4.522,9.9487 h 7.6876 l 1.2718,1.1359 3.1328,-2.4751 0.7358,-8.7325 -4.5953,-3.5126 -0.6715,-5.6392 -0.2745,-0.9604 3.4317,-1.5092 7.8844,-0.028 2.2154,1.2759 1.6472,-2.058 -1.2354,-0.8233 v -1.7837 l 1.2354,-1.9208 1.0982,1.7837 h 1.2355 l 1.3726,-1.7837 3.31,-1.6304 1.0247,-2.2936 -3.7459,-2.0993 1.2353,-2.0719 0.6865,-2.058 4.0543,0.4614 0.1373,-1.9209 h 1.3728 l 1.9217,-3.4302 2.3335,-0.686 2.6081,-2.7441 8.3196,0.2583 1.6472,-2.8813 -1.2354,-1.921 v -1.9208 l -4.1181,-3.4301 h -1.3726 l -9.4717,-8.2323 0.1373,-1.3721 -8.5015,-9.6787 -0.6864,-6.037 -1.5098,-0.686 -0.2746,-1.9208 1.2354,-0.8233 2.1963,-3.979 v -3.2929 l -1.6473,-2.3325 -7.5498,-1.9208 -2.3335,-5.8999 -0.1374,-7.8206 -0.248,-4.8825 -6.3201,-3.159 -1.0247,-4.2682 0.5125,-6.3167 -4.6118,-3.7559 -4.0993,3.9267 -3.7578,-0.6829 2.3913,-3.0731 -0.5124,-4.951 -9.0528,-13.6581 -1.708,-8.1948 -11.1022,-8.3637 -5.9782,-3.0731 -3.0745,-6.0615 -4.6974,-2.6474 0.9644,-2.5677 -9.9041,0.5657 -5.1114,3.0062 -12.5735,-2.5622 -8.7881,-4.4003 -7.3402,-6.1118 -3.2795,-5.005 -0.5505,-3.9101 -7.8728,0.761 -3.2664,2.4386 -3.063,-0.4819 z"
     style="display:inline;fill:#fefee9;fill-opacity:1;stroke:#646464;stroke-width:0.53333336;stroke-linecap:butt;stroke-linejoin:round;stroke-miterlimit:4;stroke-dasharray:none;stroke-opacity:1"
     id="Sucre,_Código_DANE_:_70771" />
  <path
     d="m 582.4884,1131.0955 v 3.4236 l 12.7613,9.0264 1.8675,-0.9338 -1.5563,-4.98 4.0463,-3.4238 1.245,-6.8475 h 2.1788 l 3.1125,2.49 3.4238,-2.1787 4.0462,0.3112 1.8675,3.1126 8.4039,6.2249 2.49,0.3113 2.49,1.8675 0.3113,4.3575 3.735,1.2451 1.5589,-0.1003 3.1054,-7.2725 5.6527,2.9393 2.9394,-1.3566 2.4871,-4.0699 6.5571,-1.8088 -0.9044,-2.9394 1.8088,-4.5221 3.6177,-2.9393 -2.4872,-3.1655 1.3567,-5.2005 2.261,0.6784 8.3659,1.8089 2.7132,-1.5828 4.9743,1.5828 -0.6783,-4.7482 1.8089,-2.2611 0.4521,-3.8438 -2.4871,-3.1655 -0.226,-4.5221 1.5826,1.1306 4.07,-3.3916 0.2261,-5.6526 -4.9743,-2.035 v -4.7482 l -4.2961,-6.3309 1.6859,-3.4804 v 4e-4 l -1.4779,-2.8165 -6.715,-2.8778 1.2789,-8.6335 h -5.4358 l 4.4766,-3.5175 -5.4359,-0.9592 -0.9592,-6.0754 4.1569,-4.1569 v -4.1569 l -5.4361,-1.2791 v -1.5987 l 4.157,-0.9594 6.0754,-5.4358 2.8779,-7.3546 -2.8779,-0.6394 4.4768,-8.9533 -6.715,-9.9127 -4.4767,-0.9592 -6.3952,1.9185 -4.4767,-7.9939 1.5988,-8.3138 -4.1569,-2.8779 3.1976,-3.5173 -4.7964,-1.2791 -3.1976,-5.1161 3.5174,-2.8779 -4.1569,-6.0754 3.1976,-3.5173 -3.1976,-4.157 7.6742,-5.4359 -3.1975,-2.5581 -3.1977,-7.994 -2.8779,-4.7964 5.1163,-4.4767 -4.1569,-7.994 0.9593,-7.3545 7.6742,-1.279 2.5581,2.8779 -0.3198,9.273 6.3953,-6.0755 -1.9186,-3.1975 -1.5988,-7.0348 -3.8372,-6.715 v -6.0754 h 12.7904 l 5.7558,-3.5173 -5.1162,-11.5114 0.6396,-15.988 -6.715,-4.4767 -1.5988,-4.4766 8.9531,-0.3198 v -9.9125 l 1.9188,-4.4767 -0.6396,-5.7557 8.9532,-8.6336 0.9594,-5.1161 -1.9187,-4.1569 -1.2789,-5.1162 3.5173,0.9594 8.9533,-6.3952 7.3544,-11.1917 5.436,-11.5114 5.4359,-4.7963 -2.2383,-4.7965 0.9593,-2.2383 4.1569,2.8778 1.9185,-2.558 5.1162,0.9592 3.0818,-6.3667 -4.9937,-0.8921 -0.5738,-2.8577 -4.3582,-3.2199 h -5.6495 l -9.1915,-1.9781 -7.2808,-4.6081 -0.9947,-6.7888 -3.4524,-10.6863 -5.9375,-10.3823 -0.8551,-1.9873 -7.4389,1.4835 -4.3168,-0.1599 -3.9969,1.9186 -4.7965,-4.3168 -3.6772,2.0785 h -4.4767 l -1.1192,-0.3198 -2.3981,2.718 -3.3575,-1.5988 v -2.3982 l -1.5988,0.9592 -4.7965,-2.8777 h -2.5581 l -0.9592,0.7993 0.7993,0.9593 -0.3196,3.6772 h -2.8779 l 0.6396,4.3168 h -2.3983 l -2.718,1.2791 -0.4796,2.558 -2.2383,1.2791 -3.8372,3.1976 -2.8778,1.5987 -2.3981,-1.5987 h -4.9564 l -3.6771,2.2383 -7.0349,-0.3198 -1.7586,-0.7993 -1.1192,2.7179 -3.0377,0.3197 -0.9593,3.5175 -3.3575,7.3544 v 7.5144 l 5.436,9.5928 -0.4797,4.4766 -4.6364,-3.0376 h -2.878 l -1.2789,-2.3982 -7.0348,-4.3168 0.7993,-2.5581 -6.1554,-3.2776 -1.0391,-0.8793 -12.6305,-1.5988 -2.0785,-1.5989 -6.8748,3.3576 -3.1977,6.2353 -7.1945,0.7993 5.5957,6.5551 -2.2383,6.2354 h -3.8371 l -2.718,-2.2384 -0.9592,3.0378 -4.1569,-0.1599 -3.5174,-8.1539 -2.7179,-0.9593 H 517.52 l -2.0785,-2.2383 1.119,-2.7179 -1.5987,-0.3198 -2.0784,1.1191 -1.7587,-0.3196 -4.3167,3.6772 -0.3199,2.3982 -4.7963,-0.3198 -1.1193,0.9592 0.6395,2.5581 3.3576,2.0785 -1.4389,3.6772 -1.1192,-0.3197 -0.7995,-2.3982 -2.8777,-0.3198 -1.2791,1.4389 1.9186,1.439 -3.997,5.1161 -3.3575,-0.4796 -0.1599,5.1162 -3.5175,4.6365 -7.3543,-3.0378 3.837,-8.3137 -2.7179,-1.1191 -0.6395,-1.7588 -4.7964,-2.0784 -10.0724,3.997 -0.16,3.1976 -2.5581,0.4797 -1.1191,-0.6396 -2.2384,3.5173 -1.279,-0.3196 -5.9155,-6.0756 7.0346,-4.4765 -7.9939,-8.4737 -1.4389,-3.0377 -5.3915,-0.6435 -2.3319,2.1094 -6.2038,10.6843 -4.1357,1.7232 v 2.4126 l 4.4804,2.7572 13.0967,12.0627 5.1698,2.4126 8.2716,12.4075 v 3.7911 l -1.3785,1.7233 -4.4806,-3.7912 h -4.825 l -3.1019,3.1018 -2.4126,0.3447 -3.1019,9.3056 -0.3697,14.7923 3.5913,1.2531 1.3567,-0.6783 -1.3567,-2.148 1.9219,-0.6783 3.4062,2.8263 3.9569,0.7914 3.9569,5.2003 5.3134,3.8438 5.3135,-0.9044 6.7831,0.7914 7.4615,3.3916 2.035,5.3134 3.9568,0.6783 3.8438,4.5222 6.8961,1.4696 6.3309,-0.5652 2.9394,0.9043 4.8613,6.7832 9.0441,9.8356 3.0525,1.5827 5.0873,7.0092 0.1131,6.1048 3.3916,4.296 1.5827,4.5222 1.6958,-0.4523 8.2528,-6.4439 1.2436,3.8437 h 4.296 v 1.4698 l -1.2436,0.5652 1.1305,1.3566 3.3916,-1.6958 1.9218,0.4522 1.4698,4.0699 3.2785,0.1131 1.5827,-1.3566 h 1.0174 l -0.3391,2.7132 2.4871,-1.0174 3.2786,0.3391 0.3392,3.5046 3.0524,3.9568 h 1.6957 l 1.4698,2.7133 -1.1306,2.261 -0.9044,0.4523 -0.1131,5.3135 1.0175,2.0348 -2.4871,2.3741 h -2.3742 l -0.9043,-0.9044 -0.7914,0.1131 -0.9044,0.9044 v 5.8787 l -1.5829,1.1306 -2.7132,3.7306 -2.261,-0.226 -0.1131,2.148 2.7133,1.0175 -2.3741,2.1479 0.1131,2.035 2.261,2.1479 -0.3392,2.4872 -4.7482,-0.113 -1.9218,1.5827 1.4696,2.6003 7.6876,2.374 2.3741,6.2178 -4.6351,5.4266 -1.4698,4.4091 2.4872,0.9044 6.7831,-2.6002 1.1305,2.4871 -2.6001,2.261 h -2.4872 l -0.3391,1.6958 1.4697,1.1306 4.8611,-0.3392 2.9394,5.0874 1.5828,0.6782 5.7657,-4.8612 3.9568,-0.2261 5.8787,2.2611 0.5654,2.7133 -2.6004,3.8437 -3.3914,-0.7913 -1.3566,-1.4697 h -1.6959 l -1.6958,1.2435 v 2.4872 l 5.5395,1.1305 2.7133,3.6177 -2.148,2.7132 -5.0873,-2.6001 -5.9918,-0.1131 -5.6526,4.409 -0.3392,5.4266 -5.9918,6.4439 -0.113,4.5221 -1.2435,1.5828 v 5.0873 l 4.522,3.0524 0.1765,2.6439 0.8166,1.6425 3.997,0.1599 -1.7586,3.6772 1.5987,1.1193 c 0,0 5.276,-3.1977 5.436,-2.5581 0.1598,0.6395 0.4796,3.6772 0.4796,3.6772 l 6.0754,6.3952 -3.6772,2.718 3.6772,3.6772 -1.279,3.6772 -2.3982,2.2383 0.3197,1.5989 2.558,1.7587 -0.3196,2.3982 -3.0378,2.2383 -0.3197,0.9592 -4.1569,3.6773 v 2.7179 l 3.1977,2.0785 -3.1977,4.6365 c 0,0 0,3.8371 -0.1599,4.4767 -0.1599,0.6395 -4.3167,1.9186 -4.3167,1.9186 v 4.4766 l -1.439,2.0785 3.1976,3.9969 1.1192,3.6773 3.8371,2.3981 -3.6772,9.4331 -2.8779,0.7993 4.0311,3.8538 0.4553,4.6192 z"
     style="display:inline;fill:#fefee9;fill-opacity:1;stroke:#646464;stroke-width:0.53333336;stroke-linecap:butt;stroke-linejoin:round;stroke-miterlimit:4;stroke-dasharray:none;stroke-opacity:1"
     id="San_Benito_Abad,_Código_DANE_:_70678" />
  <path
     d="m 601.1372,658.9574 -0.4796,0.6395 2.0785,2.5581 2.2382,1.1191 0.6395,1.9186 6.2354,0.9593 v 2.5581 h -2.2384 l -0.7993,-1.2791 -1.7587,0.1599 -2.718,2.8779 h -2.8779 l -4.4766,2.8779 -7.0346,-0.4797 -1.4391,1.5988 -6.5551,-0.4797 -2.2383,-2.7179 h -3.9969 l -6.5552,-6.3952 -1.5987,1.7587 h -3.3575 l -7.8342,5.5957 h -3.5173 l -10.2324,-3.0376 h -5.7555 l -2.5581,1.7586 -2.0785,-2.8778 h -2.8779 l 0.9593,2.2383 -1.439,1.1191 -0.1598,3.5174 -2.8779,3.6773 -0.4796,8.9533 -2.2383,1.9185 1.5987,2.2383 -0.3197,0.9594 -1.279,0.3196 -0.7995,1.7588 1.7587,1.279 -3.8371,4.6366 h -2.2383 l -1.9186,2.3982 3.5174,3.997 v 1.5987 l 5.9156,6.0755 0.1598,6.0754 -1.5988,1.9186 5.2761,6.0755 1.7587,1.1191 1.5988,5.5958 3.3575,0.3197 3.9969,3.8373 h 4.3169 l 2.7179,2.3981 4.6366,-4.1569 3.1975,5.9156 3.6772,1.279 0.3198,1.4389 h 3.997 l 1.9186,1.7587 -1.2791,2.5581 7.0348,11.8312 -1.359,3.1975 6.1553,3.1977 -0.7993,2.5581 7.0348,4.3168 1.2789,2.3981 h 2.878 l 4.6364,3.0377 0.4797,-4.4766 -5.436,-9.5928 v -7.5144 l 3.3575,-7.3544 0.9593,-3.5175 3.0377,-0.3197 1.1192,-2.7179 1.7586,0.7993 7.0349,0.3198 3.6771,-2.2383 h 4.9564 l 2.3981,1.5987 2.8778,-1.5987 3.8372,-3.1976 2.2383,-1.2791 0.4796,-2.5581 2.718,-1.279 h 2.3983 l -0.6396,-4.3168 h 2.8779 l 0.3196,-3.6772 -0.7993,-0.9593 0.9592,-0.7993 h 2.5581 l 4.7965,2.8777 1.5988,-0.9592 v 2.3982 l 3.3575,1.5988 2.3981,-2.718 1.1192,0.3198 h 4.4767 l 3.6772,-2.0785 4.7965,4.3168 3.9969,-1.9186 4.3168,0.1599 7.461,-1.5007 -5.1497,-12.6889 1.8832,-8.1718 -3.0874,-4.5027 -6.7832,-0.1743 -3.5419,-2.7707 -2.7992,-4.8785 -6.4565,-2.6027 -6.0464,2.8589 -5.0218,-3.4574 -1.5691,-7.8576 -2.1971,-4.0858 1.5692,-5.029 -2.606,-8.9643 z"
     style="display:inline;fill:#fefee9;fill-opacity:1;stroke:#646464;stroke-width:0.53333336;stroke-linecap:butt;stroke-linejoin:round;stroke-miterlimit:4;stroke-dasharray:none;stroke-opacity:1"
     id="Galeras,_Código_DANE_:_70235" />
  <path
     d="m 633.588,661.0583 -2.904,-4.6121 -1.7081,-0.6832 -2.3915,3.5872 -4.7829,0.5124 -1.5374,-6.4911 -4.7829,-2.7331 -0.6833,-6.3203 -1.7081,-1.5374 -5.4663,3.4164 -3.9285,-0.1805 -0.3195,-11.361 -3.6772,-4.1568 0.7994,-1.9186 -3.1977,-4.9563 -3.837,-1.9186 -4.3168,-5.2761 -0.3198,-3.6772 -3.6772,0.3198 -2.2384,-3.1977 0.1599,-8.1538 -3.1976,-4.7965 -4.6366,-2.3982 -2.8877,-4.4224 4.8064,-2.7721 0.3197,-3.8371 1.5989,-1.439 2.2382,1.7588 2.718,-2.0786 -3.1976,-5.1161 v -3.0378 l 5.7557,-3.0376 0.6395,1.1191 3.8371,-1.1191 1.1192,-2.0785 5.9156,-2.0784 2.2383,-1.9186 0.6395,1.5988 h 2.2383 l 1.1192,0.9592 1.5988,-2.558 -1.5988,-1.5988 0.1599,-4.9562 1.7587,-3.1977 -1.7587,-11.3515 -2.3982,-2.3981 3.1976,-5.1163 v -3.5173 l -5.5958,-7.0347 0.1598,-3.0378 2.5968,-2.3217 2.1488,2.2494 13.183,-6.6039 -1.0378,-4.0927 4.6478,-1.4633 2.5456,0.943 2.9409,3.0606 4.5809,1.4229 3.5044,5.6405 11.2816,0.9598 1.8832,3.143 -6.2772,4.7146 h -3.7662 l -7.2654,1.7559 -1.8365,7.0445 -4.6318,7.229 3.2,3.0262 -6.81,7.479 -0.093,4.9785 -7.9023,7.5305 0.6518,3.1846 -7.3971,2.6077 1.3242,4.3991 8.2983,3.8657 3.6191,4.1679 -1.1563,5.2398 -3.081,4.76 2.7194,12.7462 5.0217,3.143 -0.2243,4.6327 -1.8831,5.9717 1.8831,2.2001 -3.3372,6.6107 2.8248,4.4002 7.0084,1.051 6.5964,8.4498 -0.045,9.7091 2.0498,6.1135 z"
     style="display:inline;fill:#fefee9;fill-opacity:1;stroke:#646464;stroke-width:0.53333336;stroke-linecap:butt;stroke-linejoin:round;stroke-miterlimit:4;stroke-dasharray:none;stroke-opacity:1"
     id="Buenavista,_Código_DANE_:_70110" />
  <path
     d="m 616.7528,511.5502 -2.3191,-5.509 -7.6753,2.2415 7.8468,-9.1753 -4.5789,-2.5811 -8.1756,7.8627 -6.0915,7.7893 -7.8464,1.5716 -3.1385,-2.8288 h -7.5326 l -7.8465,-6.2861 -3.0301,-3.2111 -7.2718,-1.3837 -5.3668,-6.2906 1.9884,-4.3516 -1.5825,0.086 -2.0784,1.5988 -4.1569,0.4797 -1.4389,-0.7995 -3.6772,0.1599 -4.3169,3.1977 -3.3575,0.3196 -1.1191,3.6774 -3.837,0.9592 v 2.718 l 1.5988,3.5173 -4.4768,6.0754 -0.9593,5.436 1.1192,4.9563 0.16,8.4737 -1.7588,0.7993 -2.2382,-0.7993 -2.2384,-3.0378 -3.997,-0.9593 -2.8778,-3.997 0.1598,-3.0377 -0.1598,-3.8371 -3.2764,-0.8252 -4.5577,3.0636 -0.7995,2.7178 2.2383,3.3576 c 0,0 0,2.8778 -0.1599,4.3168 -0.1598,1.4389 -2.7179,1.7586 -2.7179,1.7586 l -1.7587,5.276 2.2384,3.1977 1.1167,3.0889 -0.797,6.8236 3.5173,3.0378 v 5.9155 l -1.5988,1.1191 3.8372,4.4767 3.5174,-0.1599 3.1976,2.2383 -6.8749,4.7965 -0.16,8.7934 1.9188,1.4389 -3.3576,4.9563 -3.6773,0.4796 v 3.6773 l -3.3575,6.5551 3.8373,-1.4389 4.7963,-6.715 h 4.4766 l 0.7995,1.279 1.5988,-1.4389 -1.7587,-1.7587 2.2383,-0.9593 2.2383,-2.3982 2.8778,-0.6395 4.3168,-4.4766 h 2.0784 l 4.6365,1.279 2.0785,1.5988 3.3575,1.439 3.5173,-0.9594 5.9156,1.1192 1.2791,2.0785 5.276,0.1599 6.2353,2.3981 0.9593,1.2791 3.5174,-0.1599 5.0304,2.9564 4.8822,-2.7965 0.3197,-3.8371 1.5989,-1.439 2.2382,1.7588 2.718,-2.0786 -3.1976,-5.1161 v -3.0377 l 5.7557,-3.0377 0.6395,1.1191 3.8371,-1.1191 1.1192,-2.0785 5.9156,-2.0784 2.2383,-1.9185 0.6395,1.5987 h 2.2383 l 1.1192,0.9593 1.5988,-2.558 -1.5988,-1.5989 0.1599,-4.9562 1.7587,-3.1977 -1.7587,-11.3515 -2.3982,-2.3981 3.1976,-5.1162 v -3.5174 l -5.5958,-7.0347 0.1598,-3.0378 2.6266,-2.3013 2.1504,2.2959 13.2058,-6.6937 z"
     style="display:inline;fill:#fefee9;fill-opacity:1;stroke:#646464;stroke-width:0.53333336;stroke-linecap:butt;stroke-linejoin:round;stroke-miterlimit:4;stroke-dasharray:none;stroke-opacity:1"
     id="San_Pedro,_Código_DANE_:_70717" />
  <path
     d="m 368.0344,401.8494 3.0045,1.4434 0.3418,5.8078 5.637,3.9288 5.8078,-1.879 7.6869,1.1957 -0.8541,2.3915 7.3452,2.9039 -2.5624,3.9288 0.6832,4.0998 1.5374,1.8789 0.6833,4.7829 -2.733,3.0748 4.2704,5.8078 0.1708,7.1744 -2.5623,3.7581 0.1708,4.0996 2.2207,1.1957 -0.3415,8.3702 -2.7029,7.9429 -2.037,3.9188 3.8589,2.724 5.9019,0.227 2.043,3.178 h 3.8589 l 5.9019,-3.178 4.086,3.178 4.3128,0.227 1.816,-0.9081 3.632,0.227 7.0369,3.178 3.859,8.6259 8.3989,4.3129 2.9509,-1.362 2.0429,-3.4049 9.7609,-2.951 1.816,1.362 5.9019,-4.3129 2.7239,0.454 1.1351,2.4969 9.5339,6.3559 h 6.8098 l 0.908,1.135 -3.405,2.043 -5.9019,2.043 v 1.8159 l 9.7609,1.816 0.681,2.043 6.5829,3.8589 4.5399,0.2271 6.7223,1.4164 3e-4,-2e-4 3.4113,0.883 0.1598,3.8371 -0.1598,3.0377 2.8778,3.997 3.997,0.9593 2.2384,3.0378 2.2382,0.7993 1.7588,-0.7993 -0.16,-8.4737 -1.1192,-4.9563 0.9593,-5.436 4.4768,-6.0754 -1.5988,-3.5173 v -2.718 l 3.837,-0.9592 1.1191,-3.6774 3.3575,-0.3196 4.3169,-3.1977 3.6772,-0.1599 1.4389,0.7995 4.1569,-0.4797 2.0784,-1.5988 1.5261,-0.082 1.5083,-3.2946 0.8606,-3.8108 2.9509,-1.3035 -1.8083,-3.435 1.1234,-5.2965 -1.648,-4.7128 6.2777,-5.333 3.4908,-0.091 2.174,-5.0703 -10.87,0.7243 -4.5895,-5.0703 -7.9714,-2.8973 -5.5559,5.7947 -4.8311,-0.9659 -5.4441,1.0679 -5.0727,0.1922 -4.4935,-4.7334 0.6762,-3.5548 -8.6165,-7.7865 -3.6234,-4.1045 -7.0052,-1.4487 -3.3817,-6.7604 h -6.522 l -1.9325,-1.9315 1.4493,-8.4505 -3.3818,-3.8631 -13.5093,0.3309 -2.0773,-5.454 -0.7351,-1.7601 -3.9813,-1.425 -4.0593,3.7509 -4.0343,2.7405 -1.9102,-4.048 2.04,-4.6644 -4.0166,-5.753 1.2608,-3.1087 2.8987,1.2072 11.1035,-7.1252 1.1516,-3.3652 -2.7523,-1.9402 -2.2798,2.0713 -5.6844,2.6273 -5.1856,-1.6616 -9.9038,-3.1388 -3.7818,0.1433 -1.5172,2.2024 -6.0524,-4.7592 -5.9216,0.2852 -1.573,3.5817 -5.1545,-5.9162 -7.2113,-0.7327 -2.713,-5.288 -0.7247,-4.346 -4.8312,5.3118 -1.6908,-0.7244 1.4493,-3.3802 -1.6909,-3.1387 -1.2078,-9.1749 -3.1402,1.2073 -4.0771,0.9811 -4.1651,6.2051 h -3.6233 l -4.9366,5.4703 -0.44,6.6359 -10.9131,4.712 -3.9528,16.3673 z"
     style="display:inline;fill:#fefee9;fill-opacity:1;stroke:#646464;stroke-width:0.53333336;stroke-linecap:butt;stroke-linejoin:round;stroke-miterlimit:4;stroke-dasharray:none;stroke-opacity:1"
     id="Ovejas,_Código_DANE_:_70508" />
  <path
     d="m 130.7574,353.0943 h 0.3311 l 0.7568,-1.3086 0.6149,-0.097 0.1893,-0.3877 -0.5676,-0.8724 -0.3312,-0.049 -0.5203,1.6964 -0.3784,0.2908 -0.095,0.727 z m 13.2961,-33.5932 -0.669,0.2741 -0.602,-0.4797 0.6689,-0.5485 z m 194.517,73.4085 -3.9074,-0.3371 -2.6573,-1.9326 h -2.899 l -1.2077,-1.4494 -5.3147,3.6236 -4.3484,-0.9663 -3.6237,2.1742 h -6.0392 l -2.6573,3.6235 -3.8653,1.6911 -1.4494,-1.6911 -10.6293,-5.073 -5.2423,-4.3763 0.2577,-0.6226 -5.8862,-8.5292 -0.2416,-8.2136 -4.1068,2.8989 -2.6573,4.1068 -5.3146,-0.2416 -2.8989,-1.9326 -3.6237,-0.2416 -7.0057,3.8653 -0.4831,2.4156 -5.7977,1.2079 -1.9327,-3.382 -5.3146,-1.9326 -1.2079,5.3146 -2.6572,4.1068 h -4.8316 l -4.3483,5.0731 -3.1405,-1.4495 -2.1741,-5.7978 -1.2079,-0.7247 -1.4495,2.6573 -6.2809,-0.9663 -0.9663,-3.6236 0.4831,-2.8988 -1.691,-2.4158 h -3.8651 l -2.7661,2.5167 -2.7983,-2.1452 -1.9572,-2.6501 -2.866,-6.9476 -0.9087,-1.3608 0.2097,-1.5041 -3.8445,-7.5922 -2.6563,-4.5123 -2.796,-2.5069 -1.5378,-0.5729 -0.8388,0.4297 h -1.5379 l -3.0757,2.0055 h -1.0485 l -0.4893,0.5013 -1.5378,-0.7163 -0.4893,-1.4324 -2.6791,-0.9154 -2.8173,-1.5194 v -0.9622 l -5.437,-4.2037 h -5.0911 l -1.5817,0.7597 -0.2471,-0.6077 -0.7415,0.9115 -5.6347,-0.4051 -5.3877,1.5194 -3.8058,-0.6584 h -4.1025 l -5.1404,2.2791 -1.8783,2.6335 -0.6921,0.2533 0.099,-1.3675 1.2853,-1.8232 1.9275,-2.7855 3.2623,-2.1778 2.9656,-3.5959 -0.1483,-0.861 -0.5437,-0.4558 0.5437,-1.4688 0.346,1.7221 1.2358,-1.0636 -0.5932,-1.8233 -0.6426,0.4558 -0.049,-0.6583 0.7908,-0.9624 0.5438,-1.0634 0.6919,-0.152 0.6426,1.1142 0.5437,0.4558 0.099,0.709 1.1862,-0.8104 0.099,-0.5571 -1.3839,-0.3038 -0.2965,-0.3545 0.7413,-0.5571 1.5817,-0.2026 1.4335,-1.5194 v -0.861 l -0.3461,-0.557 0.4943,-0.7091 0.4448,0.7091 1.2358,-0.051 1.4828,-0.6584 0.1977,-0.6077 -0.5437,-0.4052 1.2851,-0.4052 1.5322,-1.2661 0.6426,-1.1649 0.049,-1.6713 2.9657,-3.14 4.9922,-1.9246 2.9656,-2.3297 1.7795,-2.3804 2.0759,-1.7219 1.8783,-3.1907 0.4448,-0.4558 0.2471,-0.4558 -0.9391,-0.861 -1.3346,-3.4946 -0.593,-0.4051 -0.3956,-1.8233 1.2358,-0.9622 2.2243,-2.6843 2.0265,-1.2661 1.5322,-2.5324 3.3117,-2.6336 0.4943,-2.1777 0.3954,-0.4051 0.1977,-0.6585 -0.7414,-0.5064 -0.099,-1.3675 0.8897,-0.709 2.076,-3.2414 0.1976,-1.0636 0.3954,-0.3544 0.1978,-0.861 -0.6426,-0.4558 -0.1482,-1.9246 1.4334,-1.2662 0.8897,-4.4061 0.4943,-1.6207 -1.1864,-0.861 -0.247,-3.8491 0.8896,-1.3168 0.6425,-4.5581 1.038,-1.4688 -0.099,-0.8609 1.1864,-1.1649 0.4448,-2.3804 0.1482,0.1014 v 2.279 l -1.0873,1.418 -0.049,0.4559 0.5931,-0.051 0.4943,0.709 h 0.346 l 0.4448,-2.6335 -0.3954,-3.4439 -0.1483,-2.9375 -2.422,-3.9503 -0.7908,-1.6714 -1.7794,-0.8103 -0.181,-0.9018 0.7545,-0.7731 0.5929,-2.8164 0.2694,0.5522 -0.4311,2.0433 0.6467,-0.7731 0.1617,-1.7672 1.0779,-2.0433 0.7545,-0.3865 v -0.5522 h -1.2934 l -0.8084,0.7731 -0.2695,1.8224 -0.3774,-0.2762 -0.5388,-0.7731 0.1078,-1.2702 0.97,-0.4418 2.048,-1.6566 1.3474,-2.4299 0.5929,-1.7119 2.2097,-1.2149 0.485,-0.1657 0.4312,-0.7731 1.6707,-1.3253 0.9701,-2.1537 0.6468,-0.5524 2.3175,-4.8596 1.4551,-0.7731 -0.2694,-1.7672 1.1857,-1.1045 0.9701,-0.3313 0.485,-0.994 -0.5928,-1.0493 -0.539,0.3867 -0.1078,1.1595 -0.3772,0.3867 v -4.4179 l 1.6168,-2.7612 0.4312,-3.479 -1.1857,-3.7552 -0.8623,-1.9328 -0.4851,-0.6628 0.3773,-0.8283 2.6408,-1.1597 3.4493,-3.3134 2.048,-3.3134 1.5091,-1.6567 1.2396,-5.1911 0.3233,-3.9208 -0.7006,-0.4418 0.8623,-0.1104 1.3474,-2.8165 0.539,-8.4491 1.6168,-1.0493 1.5629,-2.3194 h 3.1799 l 0.4311,0.3313 0.5929,-0.6074 0.3233,-1.6015 1.7247,-1.2701 h 0.6467 l 2.3175,0.9388 0.2156,0.3865 h 5.4973 l 0.3233,-0.7178 0.2695,-1.3255 -0.7007,-0.6626 0.1618,-2.7059 2.1557,-2.4851 h 1.078 l 0.9701,-0.8836 0.1077,-2.3193 2.6409,-1.712 1.1318,-0.055 0.3773,-0.5522 -0.3773,-0.3314 -0.7545,-0.2761 -2.4253,-1.8776 -1.1857,-0.2209 -0.7545,-0.994 0.3233,-0.3865 0.1079,-1.0493 -1.3473,-1.7671 -0.6469,-2.0433 -2.9641,-2.1537 -1.9411,-2.1514 0.1524,-0.8591 1.3719,1.3277 2.6677,0.781 0.5335,0.3124 v -0.781 l 0.9147,-0.5467 v -0.2343 l -0.8384,-0.3123 -0.5336,0.5466 -2.0579,-0.781 -1.4481,-1.3276 -1.7531,-0.3904 -1.2195,-2.5773 0.1525,-1.0934 1.8293,-1.2496 -0.3812,-0.8591 v -0.6247 l 0.5336,-0.1562 0.381,-1.6401 -2.2865,-0.3124 -0.2287,-1.1714 1.7531,-1.0933 v -0.5468 l -2.1341,-0.1562 -2.1342,-1.1714 -1.6006,0.5466 -0.8384,0.7029 -0.9146,-0.8591 v -2.7333 l 0.6097,-0.3905 0.076,0.4686 2.058,0.7028 1.6005,1.562 1.0671,0.078 0.8384,0.6247 h 0.7622 l 0.3049,-0.2342 h 0.6098 l 0.4573,0.2342 1.6768,0.2343 0.3048,0.5467 -0.4572,0.5467 -0.1525,2.421 1.0671,2.1087 0.8384,0.5467 -0.4573,0.5466 0.6097,1.8744 2.2866,2.4991 0.5335,1.4057 1.4482,1.7963 2.6676,-1.0152 -1.0669,-0.6249 -0.686,-0.7028 -0.5336,0.5466 h -0.7622 l -0.9908,-1.0152 -0.077,-0.2342 0.6859,0.1561 1.1433,-0.5467 h 0.8384 l 1.7531,1.0153 0.3048,-1.0153 -1.6768,-0.859 -0.9908,0.4685 -1.6768,0.1562 -2.6677,-2.7334 0.2286,-2.1086 1.5244,-0.9372 0.2286,-1.0153 -1.5244,-0.6248 v -0.5467 l 1.5244,-1.3277 1.0671,-0.1561 1.0671,-0.781 2.9726,-0.859 0.2663,-1.4621 0.9531,-0.7247 -0.2416,-1.2542 -1.1304,-0.9326 -0.4572,0.2344 -0.5336,0.6247 -0.8384,-0.3124 -0.3911,-0.587 -0.6406,0.1642 -0.5337,0.4375 0.3736,0.2188 0.053,1.5313 -1.1744,0.4923 -0.2669,0.4375 -2.402,-0.054 -1.8682,-1.6956 -1.9749,-0.1093 -1.548,-0.6017 -2.0284,-0.054 -0.8539,-0.711 -2.2419,-0.1095 -2.402,1.3127 -1.5479,0.2187 -1.4412,0.7111 -0.4804,-0.054 -0.6405,0.4922 -0.8541,-0.875 0.5338,-0.2188 1.281,-4.9771 2.6155,-1.5314 1.4412,-0.054 2.4554,-2.3518 -0.4271,-0.4375 v -0.3282 l 0.5872,-0.3282 0.3202,0.5469 0.7473,0.383 0.3204,1.1484 h 0.7472 l 1.0141,-0.3828 0.2669,-1.0939 -0.9074,-0.3281 v -0.3282 l 1.2811,-0.3281 2.3486,0.5469 0.5872,1.8049 0.7473,0.4923 h 0.7473 l 0.1601,-0.4923 -0.3737,-0.3829 -0.7473,-1.5861 -1.4946,-0.3828 1.121,-0.1094 0.3736,-0.3828 1.8148,-0.9299 -1.014,-0.6016 0.3735,-0.7656 0.6405,0.4374 0.2136,-0.2186 -0.053,-1.1486 -1.3344,0.9298 -0.053,-0.3282 -0.5337,0.2187 -0.6406,0.8204 -2.402,0.7658 -0.9074,-1.0939 -0.4804,1.8048 h -0.3736 l -1.1209,-1.2579 -0.3204,0.8204 h -0.9607 l -1.7081,1.422 0.4318,0.8799 -1.1882,0.788 0.069,0.5013 -0.5942,0.8237 -0.699,-0.2148 v -0.7163 l -1.1184,-0.8237 -0.699,0.2149 0.2796,0.3581 0.035,0.5014 1.0485,0.1074 0.2096,0.5373 -1.8174,1.0026 -0.8388,-0.1432 -0.6641,-1.5041 -0.2796,-0.072 0.1045,-3.1515 -0.5941,-0.8952 -0.5941,-2.6143 v -1.3251 l 0.3495,-0.072 2.132,-1.3608 1.5028,-0.036 0.3495,0.7163 h -0.7689 l -0.7689,0.752 0.1045,1.1101 0.7689,0.788 1.5029,0.179 0.7689,-0.3939 0.1398,-0.6805 0.5592,-0.1074 0.2797,0.5013 1.1184,-0.036 -0.3146,-0.3224 v -0.6446 h 0.3844 l 0.5243,0.3223 0.035,0.7163 2.0272,0.3223 0.1045,0.179 1.0834,0.2149 1.2233,-1.3608 0.6291,-0.3224 0.07,-0.6088 -0.4194,-0.036 0.035,-0.4656 0.4195,-0.072 0.4543,-0.7162 0.8038,-0.071 0.2796,0.3581 -0.035,0.6087 1.1884,0.4298 0.4194,0.5372 0.2097,-0.2149 -0.069,-1.325 0.734,-0.6804 0.4544,-0.072 0.2795,-0.2865 0.9087,0.072 0.1399,0.4296 -0.9437,0.1791 -0.1046,0.3224 -0.5242,0.071 v 0.1791 l 0.6291,0.1433 0.2446,0.573 0.5243,0.2865 0.3495,-1.3967 0.3844,-0.071 0.1749,-0.8953 -0.9787,-0.2865 -1.0834,-0.7163 V 95.903 l -0.5244,-0.1075 -0.7689,0.8237 -1.2232,-0.179 -1.5728,1.2176 -0.3146,-0.1075 -0.699,1.146 -0.3495,0.036 -0.1045,-0.4297 -0.7339,-0.072 -0.2797,-0.4656 0.4544,-0.072 0.2796,-0.3582 -0.4543,-0.036 -1.6777,-0.8237 v -0.2865 l -0.9786,-0.072 -0.734,0.6805 -0.4194,0.179 h -1.0485 l -0.699,-1.3966 -0.664,-0.2149 -0.07,1.1459 -0.4194,0.5373 -0.3146,0.036 V 96.654 l -1.2234,-0.1432 v 0.2865 l -2.3416,0.1432 0.069,0.215 -1.0834,0.3581 0.035,0.1432 1.0835,0.1433 0.2097,0.6088 -0.8738,0.179 -0.2097,0.6089 -1.0485,-0.4298 -0.4785,0.083 44.6229,-35.2222 1.6777,1.9919 -19.0391,47.4638 -6.1592,14.8626 0.7859,4.5332 5.8719,-0.9386 3.255,2.6865 1.12,5.0677 6.9924,2.1193 12.7651,-8.9216 4.8715,1.5643 3.1773,-1.1353 4.6723,2.819 -1.9561,3.0122 -1.9681,10.4683 0.5592,5.4066 2.1078,7.1744 v 6.5447 l 2.2369,4.8376 2.796,1.7073 2.5165,8.5367 -2.7961,2.2765 -1.6719,8.5107 -3.6348,3.4148 -2.5165,5.122 2.3902,4.7105 -2.6757,7.5515 0.1451,4.0166 6.5083,-4.9682 6.4686,-0.1455 -2.7764,5.9345 1.6776,3.1302 6.7105,1.9919 3.3553,-0.5691 8.9474,1.9919 5.0329,4.2683 6.431,2.8457 9.9125,-2.096 7.1807,3.3489 9.2806,5.6869 6.0549,-0.2403 3.0734,-5.5947 -2.0271,-7.0704 3.3818,-0.2413 3.3818,3.863 9.6623,5.3118 9.6623,1.9315 v 4.9164 l -6.1585,3.4022 -3.0757,8.202 3.3059,2.5386 -4.2682,5.743 -3.5723,7.0683 -0.6655,6.0412 -4.6752,2.9113 2.2533,4.9927 7.677,1.0243 -0.9662,5.3117 -3.9876,8.8458 0.9662,6.5191 -3.9838,9.1254 -0.3043,9.3916 -9.3579,6.9219 v 3.6217 l 3.1402,10.8649 -2.4156,2.8973 1.4493,4.8289 -3.1402,0.9658 -6.522,7.0018 -0.4831,7.2433 -0.9662,3.1388 1.8445,11.0555 z m -111.2076,-257.0209 2.3715,1.9881 0.2154,0.994 0.8624,0.4418 1.024,2.0432 -0.1078,2.1537 -1.4552,1.215 -0.6467,2.7611 -0.8084,0.5523 -1.7246,4.0866 -0.5928,4.6387 -1.9403,1.8224 h -0.8084 l -1.7786,-1.3806 h -2.048 l -1.2396,1.2149 -0.5928,-0.1105 -0.9162,-1.1044 -2.2097,-0.4971 -0.4851,-1.4909 h -1.2935 l -0.7006,0.7731 -1.2935,-0.1104 -0.5389,-0.3314 0.3233,-0.1104 0.3235,-5.1911 0.5927,-0.4418 1.3474,-0.056 1.0779,-0.8283 0.3234,-0.6074 3.6648,-0.2209 0.7006,-0.9389 h 0.4312 l 0.1078,0.3314 1.1857,0.6075 1.4013,2.6507 0.2156,1.7671 1.2396,0.994 0.7545,-0.4969 v -0.3866 l -1.1857,-0.3865 -0.7544,-2.4852 -0.1618,-1.4911 -0.6468,-0.4969 -0.054,-0.8284 2.3714,-0.8835 0.9702,-1.3254 -0.054,-3.2582 1.0778,-1.3253 0.1079,-1.6568 -2.2097,-2.3746 -0.7006,-0.2209 -0.7546,0.3866 -1.024,-1.3254 -1.7247,-0.2209 -0.1077,-0.3313 -1.8324,-0.1656 v 1.3253 l 0.8353,0.1933 0.1887,0.9111 1.7784,0.6628 0.3773,1.3805 1.8864,2.8165 v 2.485 l -0.7546,1.2149 -3.9343,0.3866 -0.4851,0.5522 -1.1318,-0.4418 -0.485,-1.2701 -0.8085,0.2209 v 0.8284 l 1.1858,1.0492 0.054,0.9388 -1.8864,-0.1105 -0.3773,0.7731 -0.4312,-0.3865 -1.1856,-0.1104 1.0239,1.1044 -0.8083,0.2762 -1.1318,0.055 -0.5389,-0.5523 0.2156,-2.6506 1.509,-5.0254 0.5928,-4.8597 0.059,-0.075 -0.1647,-4.0495 -0.3842,-0.675 0.7684,-0.8436 1.2076,0.8436 1.0978,0.2251 0.9331,-0.5063 1.3173,-0.2812 0.8783,-1.5186 0.8782,-1.1248 -0.2744,-0.2249 h -0.3293 l -1.5918,1.4061 -0.2196,0.5061 -0.2195,-0.5625 0.988,-2.3059 0.5767,-0.1843 0.5158,0.2589 1.4872,-0.018 -0.1097,0.3374 -0.6587,0.3375 0.1098,0.6187 2.7445,-0.1688 0.494,1.4061 1.0429,1.7436 0.6586,2.5871 2.2079,2.1581 z m -12.8016,-5.7295 1.5096,0.1126 0.4666,-0.4781 v -1.5748 l 1.2899,-2.1654 0.3842,-1.0966 0.1921,-1.0687 h 0.3293 l 0.3842,0.8156 0.3568,0.1406 0.5215,-0.3657 0.1647,-0.956 0.8507,-1.6592 0.3568,-0.028 0.028,-0.6468 -0.4118,-0.3375 -0.082,-0.7874 h 0.4666 l 0.6312,0.7594 h 0.2471 l 0.3842,-1.4343 -0.2471,-0.2249 -0.686,-0.028 -2.0584,0.9562 -1.6193,0.1687 -0.2195,-0.5905 -0.6313,-0.2813 -0.5763,-1.4623 0.2471,-1.7434 -1.1253,0.253 -1.3448,0.8156 -1.0429,0.084 -1.1252,1.2654 -0.028,1.2093 0.6313,0.7311 v 0.9843 l 0.3567,0.7874 0.3842,0.1968 0.028,2.1372 0.3568,0.2813 -0.3018,0.3374 -0.082,1.8841 -0.2744,0.057 -0.082,1.2936 0.6313,1.1248 0.6037,0.1406 0.1373,0.3937 z m -3.3669,33.5622 0.9163,-0.6627 0.7006,-1.6567 1.563,-0.718 0.485,0.3315 1.1318,-0.1105 0.485,-0.4419 0.3773,0.3866 0.8624,0.055 0.3772,-1.8223 -3.1799,-1.3806 -0.485,-0.7732 -1.4013,-0.7732 -0.485,0.4419 -1.2395,0.1656 -0.9702,1.1045 0.4312,0.1657 0.4851,1.8775 -0.054,3.8105 z m 4.5197,-23.8603 0.8782,-0.057 1.0978,-1.7436 0.2744,-0.056 0.2745,-0.3936 -1.6467,-0.6188 -0.3293,-0.5061 0.8233,-0.225 -1.2075,-0.3937 -0.054,-0.2813 -0.3294,0.1688 -0.2745,2.4184 -0.4391,0.2812 0.9332,1.4061 z m 13.1735,-15.6916 h 1.0429 l 0.4666,-0.6187 0.3842,-0.028 0.4116,-0.6749 -0.6586,-0.3656 -1.4546,0.1687 -0.1372,-0.8436 0.4117,-0.1968 0.054,-0.2813 -0.7959,-0.5343 0.1646,-1.3779 0.3294,-0.028 0.247,-1.4622 -1.6468,-1.6029 -1.8387,-0.1688 -0.2196,-0.3375 -0.9881,-0.084 -2.1681,1.3498 v 0.3937 l 1.2351,0.7031 0.3842,-0.1969 h 3.0739 l 0.3292,0.4499 0.4941,0.3094 0.3842,0.2812 -0.1921,0.3656 -0.2744,2.9246 0.7136,0.7874 0.2469,1.0686 z"
     style="display:inline;fill:#fefee9;fill-opacity:1;stroke:#646464;stroke-width:0.53333336;stroke-linecap:butt;stroke-linejoin:round;stroke-miterlimit:4;stroke-dasharray:none;stroke-opacity:1"
     id="San_Onofre,_Código_DANE_:_70713" />
  <g
     id="layer10"
     style="display:inline"
     transform="translate(-1761.2378,-1032.3215)">
    <path
       id="path7644"
       style="display:inline;fill:none;stroke:#646464;stroke-width:2.13333344;stroke-linecap:butt;stroke-linejoin:round;stroke-miterlimit:4;stroke-dasharray:none;stroke-opacity:1"
       d="m 1986.7005,1191.2994 2.1341,-0.2734 0.6098,-0.5076 0.1143,-3.8268 1.1433,-2.1087 1.41,-1.1714 h 0.8003 l 0.8003,-1.1325 -0.038,-1.718 1.753,-1.4448 1.2957,-0.5078 0.038,-0.3904 -1.5625,-0.9762 -0.3048,-0.5858 h -1.5244 l -1.1814,0.9372 v 0.3905 l -0.5717,0.4295 0.1906,0.3125 0.038,1.3667 -1.2194,0.9371 -0.076,1.2495 0.3811,0.2734 0.1905,0.6639 -0.6859,0.898 -1.1052,0.5859 -0.4954,1.3666 v 2.3039 l -1.1814,1.6401 -0.7622,0.3514 -0.1906,0.9372 z m -85.1359,375.3151 0.3881,0.3979 -0.038,0.5571 3.5711,2.865 3.4547,1.0345 0.8926,-0.4376 h 2.3678 l 4.5415,-1.7907 4.2697,-3.8199 2.6782,-1.7508 0.6211,-1.353 0.854,-0.1989 0.3105,-1.9498 -1.5914,-0.6366 -4.231,2.9842 -2.5618,2.8253 -6.4822,3.5813 -3.8428,0.5172 -0.854,-1.1142 -3.1053,-1.711 h -1.242 z m -8.22,1.6315 -3.8047,3.471 0.975,8.2155 3.4918,2.5342 1.0819,3.874 -2.4125,6.2037 7.9269,2.7573 3.1019,4.2666 3.4465,-5.5144 2.4125,0.6894 2.1988,4.415 6.1383,-1.985 0.3447,3.7912 5.0389,0.3446 4.8251,4.8906 4.8251,-3.1019 0.3447,-5.8591 6.2691,5.0868 2.6263,6.4 0.3447,3.1019 4.8251,5.1697 h 4.8251 l 0.3447,6.2038 5.1044,9.6502 8.6162,3.7911 3.1019,-1.3785 1.3786,1.7233 1.7232,9.9949 -2.0678,2.7571 6.893,6.8931 4.4804,1.0339 2.068,3.7912 4.4804,4.825 6.5484,1.3787 3.4465,-2.0679 11.0288,-2.0679 7.2377,-8.6163 2.4125,3.1019 -3.1018,3.4465 6.2037,6.5483 v 5.1699 l 3.4465,3.4465 2.0679,-5.5145 5.5145,-0.3446 1.0339,-1.7233 11.0288,-1.3786 0.6894,6.893 -2.4126,5.5145 0.3447,6.893 -4.8252,7.5823 2.0679,2.4126 -2.7572,3.4465 2.7572,4.1358 -2.4126,2.7572 0.6894,3.4465 h 3.7912 l 3.4465,2.4126 3.7911,3.7911 3.1019,1.0339 7.2376,7.5824 7.5823,0.6893 0.3447,2.0679 -3.4465,4.1359 -1.3786,8.2715 3.4465,4.8252 5.5145,-3.7912 4.1358,-1.3786 3.1018,5.1698 5.1698,-4.1359 10.3396,-1.3785 1.3785,-2.7573 2.068,-0.6893 v 2.4126 l 6.893,11.3735 4.4804,1.7233 5.1698,-5.1698 4.4804,1.0339 8.2717,6.893 5.1697,1.034 9.9949,10.3395 2.068,5.8591 4.825,-1.034 4.8252,2.7572 1.3786,7.5824 -3.7912,5.1697 2.068,3.4466 7.9269,-6.5484 h 4.1358 l 3.4465,3.4465 5.8591,-3.1019 4.8252,2.7572 5.5143,1.3787 5.1698,4.1358 2.7572,6.893 4.8251,2.7572 6.5484,0.6893 0.6894,2.4126 -2.4126,2.0678 -6.2038,10.6843 -4.1357,1.7232 v 2.4126 l 4.4804,2.7572 13.0967,12.0627 5.1698,2.4126 8.2716,12.4075 v 3.7911 l -1.3785,1.7234 -4.4806,-3.7913 h -4.825 l -3.1019,3.1019 -2.4126,0.3446 -3.1019,9.3056 -0.3446,14.8201 1.3787,5.5143 -3.7913,-1.7232 -7.9269,5.5145 -1.3786,4.1357 -9.6502,9.6503 -3.1019,2.0678 -5.8591,-6.893 h -8.9609 l -0.6893,5.5145 -6.5484,7.5823 h -4.8252 l -7.9269,6.893 -3.4465,-3.4465 -2.4126,1.3786 2.7572,7.2377 v 6.5484 l -5.5144,4.1357 -8.9609,-4.825 -9.3056,-0.6893 -9.3056,2.7571 -7.9269,-3.7911 -13.4415,3.7911 -5.1697,5.5145 3.1019,5.5144 9.6502,2.4126 4.1358,4.4804 -1.6141,4.1262 0.8896,7.3392 7.1168,7.1168 -0.4448,3.7808 1.3344,3.5584 4.2256,-0.6672 6.8944,5.7824 h 2.4464 l 1.5568,1.112 -0.6672,2.8912 3.336,2.8912 10.6752,2.0016 -3.336,2.6688 -4.2256,-0.8896 -6.0048,3.7808 3.7808,4.8928 -1.112,6.4496 -6.2272,9.5632 v 5.1152 l 4.8928,4.8928 -1.5568,4.2256 -5.56,6.672 1.112,13.344 4.8928,3.7808 5.56,-0.4448 0.4448,1.112 -3.5584,4.0032 -0.6672,3.336 4.0032,1.3344 -2.224,2.224 -1.112,9.5632 2.4464,6.8944 7.1168,11.1201 1.3344,9.7856 -1.5568,0.6672 -3.336,9.1184 -1.3344,1.3344 v 1.7792 l 3.5584,1.7792 3.1136,6.0048 2.8912,0.6672 1.112,8.2288 2.224,1.3344 -2.4464,1.7792 -1.112,3.1136 3.1136,4.6704 1.5568,5.1152 -2.224,1.3344 2.0016,4.0032 2.4464,-2.6688 h 10.008 l 6.672,4.8928 1.3344,2.0016 11.7872,0.4448 3.336,-0.2224 7.1168,3.5584 2.224,4.0032 5.3376,1.7792 0.8896,-4.2256 3.5584,-0.6672 1.112,2.4464 -0.8896,3.5584 7.784,6.0048 3.5584,-0.2224 0.2224,-2.4464 h 2.224 l 0.8896,2.6688 -3.5584,2.0016 -1.112,2.224 1.112,2.8912 -2.6688,5.3376 -6.0048,0.6672 -5.1152,7.3392 3.1136,6.672 -0.2224,7.1168 1.7792,0.6672 1.3344,-4.8928 6.672,-4.6704 3.7808,0.2224 -1.7792,2.0016 3.1136,2.224 2.0016,8.0064 3.5585,4.6704 3.7808,-2.224 h 3.1136 l 0.8896,2.4464 7.784,1.3344 1.112,-2.224 3.5584,2.6688 2.6688,-2.0016 0.2224,-5.3376 3.7808,-0.4448 3.336,2.0016 6.4496,-2.224 0.8896,-2.4464 5.56,-0.2224 12.232,-7.1168 -1.7792,-3.7808 2.224,-2.224 5.3376,1.5568 3.5584,-2.224 -2.0016,-4.0032 -1.112,-2.4464 3.5584,-2.6688 5.3376,0.8896 9.7856,-5.7824 2.8912,-6.0048 3.6893,-2.0564 2.8012,4.0463 7.47,-2.49 3.4238,-7.1589 -2.1787,-7.1587 3.4237,-8.0926 3.4238,-1.245 v 3.1126 l 9.96,11.2051 h 4.3576 l 3.1125,-2.1788 2.1788,0.3113 v 3.4236 l 12.7613,9.0264 1.8675,-0.9338 -1.5563,-4.98 4.0463,-3.4238 1.245,-6.8475 h 2.1788 l 3.1125,2.49 3.4238,-2.1787 4.0462,0.3112 1.8675,3.1126 8.4039,6.2249 2.49,0.3113 2.49,1.8675 0.3113,4.3575 3.735,1.2451 h 4.0462 l 5.9138,4.0462 1.5563,5.6026 4.0463,2.8012 8.715,16.8077 -1.5562,4.6687 4.6687,5.9138 4.0463,1.245 4.6688,-3.1126 1.8675,0.3113 2.8013,2.49 5.9137,1.245 1.8675,-2.49 4.0463,-0.9337 v 4.0462 l -3.1125,1.2451 4.0463,6.8475 3.4238,-1.245 8.4038,4.3575 3.1124,3.4237 -1.8674,0.9338 -0.3112,3.735 3.1124,1.5563 -0.9338,4.0463 1.8675,4.6688 -2.49,2.8013 2.8013,2.1787 0.3112,7.1588 -0.9337,4.3575 -2.1788,0.6225 1.8675,2.4901 0.3113,3.735 -3.4237,1.8675 4.6687,4.0462 0.2501,11.6474 2.1912,-0.1231 0.6863,1.0977 2.8827,0.068 0.5492,1.0978 1.8531,-0.068 1.2929,-0.9476 2.6082,-0.1373 0.4118,1.2349 1.7845,-0.2745 0.2744,-3.1556 9.609,-3.979 0.8237,-4.3905 5.0789,-4.9394 0.6863,-2.8813 2.4709,-0.2745 1.6472,3.7046 1.6472,1.9208 0.549,3.7046 8.9227,4.9394 2.3336,-0.9605 0.9608,-0.8232 0.4117,-0.8233 -1.6471,-0.2743 -1.0982,-2.1953 2.6082,-1.2349 h 4.3926 l 1.3726,1.3721 4.1182,0.2744 0.549,-1.7837 2.8827,-0.5488 0.8236,0.8233 4.8044,0.5488 3.9808,-2.1953 h 8.0989 l 4.8045,2.6069 2.8826,6.9975 1.7846,1.0976 0.2744,-1.3721 h 2.3337 l 2.3335,-2.4697 -0.5542,-12.2359 1.51,-6.9974 2.4709,-0.4117 6.8635,-5.7625 5.3535,-3.979 7.9616,-11.9369 2.1963,-19.7574 -2.0591,-2.8813 -0.2745,-3.0185 2.6082,-2.7442 0.4117,-4.5277 2.4708,-1.5093 h 0.8236 v 2.1953 l 2.3337,2.8813 0.1373,3.979 2.4708,0.9604 14.0751,0.2926 8.2361,-1.6465 0.1373,-0.686 -1.3728,-0.686 -0.549,-3.8417 0.9609,-0.9605 -0.1373,-4.9394 5.2162,-7.1346 1.2355,-0.1372 6.1771,-8.2323 2.4708,-10.702 0.6314,-4.9825 1.9218,-5.3509 1.3727,-0.8233 0.1372,-1.6465 -1.3726,-1.2347 -2.6082,-6.0371 -5.1228,-6.7449 -0.5238,-10.518 -0.2745,-1.9208 -1.6473,-0.4117 -0.8236,1.3721 -5.0606,-1.1439 -0.8236,0.8232 -1.9218,0.5488 -3.02,-2.8812 v -3.0186 l -0.9607,-5.3509 -2.3337,-2.7441 -0.4117,-5.8999 -1.3728,-0.8232 -0.2746,-3.8417 3.1573,-2.3325 v -1.5092 l 0.8235,-0.5488 0.412,-1.5094 -2.3337,-2.4696 v -1.3721 l -0.8237,-0.5488 -0.2745,-2.7441 1.5101,-1.2349 0.6863,-2.8812 1.0982,-1.0976 v -1.9209 l -5.6282,-5.6255 -5.628,-0.4116 -4.6672,-4.665 -0.8236,-0.4116 -0.4117,-1.5092 1.6472,-1.0976 2.7454,-6.7231 0.2562,-8.872 h 1.0982 l 0.2744,-2.0582 -2.3335,-3.0184 -3.1573,-10.4276 -2.0589,-1.9209 v -3.5674 l 0.9609,-0.1371 3.0199,-4.8022 h 0.9608 l 0.2746,-1.2348 -3.1573,-5.2138 -0.2744,-6.7231 1.3726,-1.0976 0.1373,-3.5674 -4.2553,-5.7625 0.1373,-2.6069 -2.3337,-6.723 -3.9808,-4.5278 -0.5491,-2.0582 2.0591,-1.2347 3.1571,-2.4698 0.7358,-8.7325 -4.5953,-3.5126 -0.6715,-5.6392 -0.2745,-0.9604 3.4317,-1.5092 7.8844,-0.028 2.2154,1.2759 1.6472,-2.058 -1.2354,-0.8233 v -1.7837 l 1.2354,-1.9208 1.0982,1.7837 h 1.2355 l 1.3726,-1.7837 3.31,-1.6304 1.0247,-2.2936 -3.7459,-2.0993 1.2353,-2.0719 0.6865,-2.058 4.0543,0.4614 0.1373,-1.9209 h 1.3728 l 1.9217,-3.4302 2.3335,-0.686 2.6081,-2.7441 8.3196,0.2583 1.6472,-2.8813 -1.2354,-1.921 v -1.9208 l -4.1181,-3.4301 h -1.3726 l -9.4717,-8.2323 0.1373,-1.3721 -8.5015,-9.6787 -0.6864,-6.037 -1.5098,-0.686 -0.2746,-1.9208 1.2354,-0.8233 2.1963,-3.979 v -3.2929 l -1.6473,-2.3325 -7.5498,-1.9208 -2.3335,-5.8999 -0.1374,-7.8206 -0.248,-4.8825 -6.3201,-3.159 -1.0247,-4.2682 0.5125,-6.3167 -4.6118,-3.7559 -4.0993,3.9267 -3.7578,-0.6829 2.3913,-3.0731 -0.5124,-4.951 -9.0528,-13.6581 -1.708,-8.1948 -11.1022,-8.3637 -5.9782,-3.0731 -3.0745,-6.0615 -4.6974,-2.6474 0.9644,-2.5677 -9.9041,0.5657 -5.1114,3.0062 -12.5735,-2.5622 -8.7881,-4.4003 -7.3402,-6.1118 -3.2795,-5.005 -0.5505,-3.9101 -7.8728,0.761 -3.2664,2.4386 -8.0451,-1.3972 -0.5738,-2.8578 -4.3582,-3.2199 h -5.6495 l -9.1915,-1.9781 -7.2808,-4.6081 -0.9947,-6.7888 -3.4524,-10.6863 -5.9375,-10.3823 -5.9827,-14.6937 1.8832,-8.1718 -3.0874,-4.5027 -6.7832,-0.1743 -3.5419,-2.7707 -2.7992,-4.8785 -6.4565,-2.6027 -6.0464,2.8589 -5.0218,-3.4574 -1.5691,-7.8576 -2.1971,-4.0858 1.5692,-5.029 -2.6151,-8.9827 3.8513,-4.8704 -2.0498,-5.9344 0.045,-9.7091 -6.5964,-8.4498 -7.0084,-1.051 -2.8248,-4.4002 3.3372,-6.6107 -1.8831,-2.2001 1.8831,-5.9717 0.2243,-4.6327 -5.0217,-3.143 -2.7194,-12.7462 3.081,-4.76 1.1563,-5.2398 -3.6191,-4.1679 -8.2983,-3.8657 -1.3242,-4.3991 7.3971,-2.6077 -0.6518,-3.1846 7.9023,-7.5305 0.093,-4.9785 6.81,-7.479 -3.2,-3.0262 4.6318,-7.229 1.8365,-7.0445 7.2654,-1.7559 h 3.7662 l 6.2772,-4.7146 -1.8832,-3.143 -11.2816,-0.9598 -3.5044,-5.6405 -4.5809,-1.4229 -2.9409,-3.0606 -2.5456,-0.943 -4.6439,1.5226 -2.3191,-5.509 -7.6753,2.2415 7.8468,-9.1753 -4.5789,-2.5811 -8.1756,7.8627 -6.0915,7.7893 -7.8464,1.5716 -3.1385,-2.8288 h -7.5326 l -7.8465,-6.2861 -3.0301,-3.2111 -7.2718,-1.3837 -5.3668,-6.2906 3.4403,-7.642 0.8606,-3.8108 2.9509,-1.3035 -1.8083,-3.435 1.1234,-5.2965 -1.648,-4.7128 6.2777,-5.333 3.4908,-0.091 2.174,-5.0703 -10.87,0.7243 -4.5895,-5.0703 -7.9714,-2.8973 -5.5559,5.7947 -4.8311,-0.9659 -5.4441,1.0679 -5.0727,0.1922 -4.4935,-4.7334 0.6762,-3.5548 -8.6165,-7.7865 -3.6234,-4.1045 -7.0052,-1.4487 -3.3817,-6.7604 h -6.522 l -1.9325,-1.9315 1.4493,-8.4505 -3.3818,-3.8631 -13.5093,0.3309 -2.0773,-5.454 -0.7351,-1.7601 -3.9813,-1.425 -4.0593,3.7509 -4.0343,2.7405 -1.9102,-4.048 2.04,-4.6644 -4.0166,-5.753 1.2608,-3.1087 2.8987,1.2072 11.1035,-7.1252 1.2608,-3.3587 -2.8881,-1.92 -2.2532,2.0446 -5.6844,2.6273 -5.1856,-1.6616 -9.9038,-3.1388 -3.7818,0.1433 -1.5172,2.2024 -6.0524,-4.7592 -5.9216,0.2852 -1.573,3.5817 -5.1545,-5.9162 -7.2113,-0.7327 -2.713,-5.288 -0.7247,-4.346 -4.8312,5.3118 -1.6908,-0.7244 1.4493,-3.3802 -1.6909,-3.1387 -1.2078,-9.1749 -3.1402,1.2073 -4.0771,0.9811 -4.1651,6.2051 h -3.6233 l -4.9366,5.4703 -0.44,6.6359 -10.9131,4.712 -3.9528,16.3673 -1.9325,3.6217 -4.1065,-3.1388 0.9662,-5.5532 -8.213,-6.519 -4.348,-6.7603 h -3.8649 l -2.174,8.9333 -3.1401,4.8289 -4.5897,-0.4829 0.9663,-10.1407 -1.8445,-11.0555 0.9662,-3.1388 0.4831,-7.2433 6.522,-7.0018 3.1402,-0.9658 -1.4493,-4.8289 2.4156,-2.8973 -3.1402,-10.8649 v -3.6217 l 9.3579,-6.9219 0.3043,-9.3916 3.9838,-9.1254 -0.9662,-6.5191 3.9876,-8.8458 0.9662,-5.3117 -7.677,-1.0243 -2.2533,-4.9927 4.6752,-2.9113 0.6655,-6.0412 3.5723,-7.0683 4.2682,-5.743 -3.3059,-2.5386 3.0757,-8.202 6.1585,-3.4022 v -4.9164 l -9.6623,-1.9315 -9.6623,-5.3118 -3.3818,-3.863 -3.3818,0.2413 2.0271,7.0704 -3.0734,5.5947 -6.0549,0.2403 -9.2806,-5.6869 -7.1807,-3.3489 -9.9125,2.096 -6.431,-2.8457 -5.0329,-4.2683 -8.9474,-1.9919 -3.3553,0.5691 -6.7105,-1.9919 -1.6776,-3.1302 2.7764,-5.9345 -6.4686,0.1455 -6.5083,4.9682 -0.1451,-4.0166 2.6757,-7.5515 -2.3902,-4.7105 2.5165,-5.122 3.6348,-3.4148 1.6719,-8.5107 2.7961,-2.2765 -2.5165,-8.5367 -2.796,-1.7073 -2.2369,-4.8376 v -6.5447 l -2.1078,-7.1744 -0.5592,-5.4066 1.9681,-10.4683 1.9561,-3.0122 -4.6723,-2.819 -3.1773,1.1353 -4.8715,-1.5643 -12.7651,8.9216 -6.9924,-2.1193 -1.12,-5.0677 -3.255,-2.6865 -5.8719,0.9386 -0.7859,-4.5332 6.1592,-14.8626 19.0391,-47.4638 -1.6777,-1.9919 -44.6229,35.2222 0.4785,-0.083 1.0485,0.4298 0.2097,-0.6089 0.8738,-0.179 -0.2097,-0.6088 -1.0835,-0.1433 -0.035,-0.1432 1.0834,-0.3581 -0.069,-0.215 2.3416,-0.1432 v -0.2865 l 1.2234,0.1432 v 0.4298 l 0.3146,-0.036 0.4194,-0.5373 0.07,-1.1459 0.664,0.2149 0.699,1.3966 h 1.0485 l 0.4194,-0.179 0.734,-0.6805 0.9786,0.072 v 0.2865 l 1.6777,0.8237 0.4543,0.036 -0.2796,0.3582 -0.4544,0.072 0.2797,0.4656 0.7339,0.072 0.1045,0.4297 0.3495,-0.036 0.699,-1.146 0.3146,0.1075 1.5728,-1.2176 1.2232,0.179 0.7689,-0.8237 0.5244,0.1075 v 0.6087 l 1.0834,0.7163 0.9787,0.2865 -0.1749,0.8953 -0.3844,0.071 -0.3495,1.3967 -0.5243,-0.2865 -0.2446,-0.573 -0.6291,-0.1433 v -0.1791 l 0.5242,-0.071 0.1046,-0.3224 0.9437,-0.1791 -0.1399,-0.4296 -0.9087,-0.072 -0.2795,0.2865 -0.4544,0.072 -0.734,0.6804 0.069,1.325 -0.2097,0.2149 -0.4194,-0.5372 -1.1884,-0.4298 0.035,-0.6087 -0.2796,-0.3581 -0.8038,0.071 -0.4543,0.7162 -0.4195,0.072 -0.035,0.4656 0.4194,0.036 -0.07,0.6088 -0.6291,0.3224 -1.2233,1.3608 -1.0834,-0.2149 -0.1045,-0.179 -2.0272,-0.3223 -0.035,-0.7163 -0.5243,-0.3223 h -0.3844 v 0.6446 l 0.3146,0.3224 -1.1184,0.036 -0.2797,-0.5013 -0.5592,0.1074 -0.1398,0.6805 -0.7689,0.3939 -1.5029,-0.179 -0.7689,-0.788 -0.1045,-1.1101 0.7689,-0.752 h 0.7689 l -0.3495,-0.7163 -1.5028,0.036 -2.132,1.3608 -0.3495,0.072 v 1.3251 l 0.5941,2.6143 0.5941,0.8952 -0.1045,3.1515 0.2796,0.072 0.6641,1.5041 0.8388,0.1432 1.8174,-1.0026 -0.2096,-0.5373 -1.0485,-0.1074 -0.035,-0.5014 -0.2796,-0.3581 0.699,-0.2149 1.1184,0.8237 v 0.7163 l 0.699,0.2148 0.5942,-0.8237 -0.069,-0.5013 1.1882,-0.788 -0.4318,-0.8799 1.7081,-1.422 h 0.9607 l 0.3204,-0.8204 1.1209,1.2579 h 0.3736 l 0.4804,-1.8048 0.9074,1.0939 2.402,-0.7658 0.6406,-0.8204 0.5337,-0.2187 0.053,0.3282 1.3344,-0.9298 0.053,1.1486 -0.2136,0.2186 -0.6405,-0.4374 -0.3735,0.7656 1.014,0.6016 -1.8148,0.9299 -0.3736,0.3828 -1.121,0.1094 1.4946,0.3828 0.7473,1.5861 0.3737,0.3829 -0.1601,0.4923 h -0.7473 l -0.7473,-0.4923 -0.5872,-1.8049 -2.3486,-0.5469 -1.2811,0.3281 v 0.3282 l 0.9074,0.3281 -0.2669,1.0939 -1.0141,0.3828 h -0.7472 l -0.3204,-1.1484 -0.7473,-0.383 -0.3202,-0.5469 -0.5872,0.3282 v 0.3282 l 0.4271,0.4375 -2.4554,2.3518 -1.4412,0.054 -2.6155,1.5314 -1.281,4.9771 -0.5338,0.2188 0.8541,0.875 0.6405,-0.4922 0.4804,0.054 1.4412,-0.7111 1.5479,-0.2187 2.402,-1.3127 2.2419,0.1095 0.8539,0.711 2.0284,0.054 1.548,0.6017 1.9749,0.1093 1.8682,1.6956 2.402,0.054 0.2669,-0.4375 1.1744,-0.4923 -0.053,-1.5313 -0.3736,-0.2188 0.5337,-0.4375 0.6406,-0.1642 0.3911,0.587 0.8384,0.3124 0.5336,-0.6247 0.4572,-0.2344 1.1304,0.9326 0.2416,1.2542 -0.9531,0.7247 -0.2663,1.4621 -2.9726,0.859 -1.0671,0.781 -1.0671,0.1561 -1.5244,1.3277 v 0.5467 l 1.5244,0.6248 -0.2286,1.0153 -1.5244,0.9372 -0.2286,2.1086 2.6677,2.7334 1.6768,-0.1562 0.9908,-0.4685 1.6768,0.859 -0.3048,1.0153 -1.7531,-1.0153 h -0.8384 l -1.1433,0.5467 -0.6859,-0.1561 0.077,0.2342 0.9908,1.0152 h 0.7622 l 0.5336,-0.5466 0.686,0.7028 1.0669,0.6249 -2.6676,1.0152 -1.4482,-1.7963 -0.5335,-1.4057 -2.2866,-2.4991 -0.6097,-1.8744 0.4573,-0.5466 -0.8384,-0.5467 -1.0671,-2.1087 0.1525,-2.421 0.4572,-0.5467 -0.3048,-0.5467 -1.6768,-0.2343 -0.4573,-0.2342 h -0.6098 l -0.3049,0.2342 h -0.7622 l -0.8384,-0.6247 -1.0671,-0.078 -1.6005,-1.562 -2.058,-0.7028 -0.076,-0.4686 -0.6097,0.3905 v 2.7333 l 0.9146,0.8591 0.8384,-0.7029 1.6006,-0.5466 2.1342,1.1714 2.1341,0.1562 v 0.5468 l -1.7531,1.0933 0.2287,1.1714 2.2865,0.3124 -0.381,1.6401 -0.5336,0.1562 v 0.6247 l 0.3812,0.8591 -1.8293,1.2496 -0.1525,1.0934 1.2195,2.5773 1.7531,0.3904 1.4481,1.3276 2.0579,0.781 0.5336,-0.5466 0.8384,0.3123 v 0.2343 l -0.9147,0.5467 v 0.781 l -0.5335,-0.3124 -2.6677,-0.781 -1.3719,-1.3277 -0.1524,0.8591 1.9411,2.1514 2.9641,2.1537 0.6469,2.0433 1.3473,1.7671 -0.1079,1.0493 -0.3233,0.3865 0.7545,0.994 1.1857,0.2209 2.4253,1.8776 0.7545,0.2761 0.3773,0.3314 -0.3773,0.5522 -1.1318,0.055 -2.6409,1.712 -0.1077,2.3193 -0.9701,0.8836 h -1.078 l -2.1557,2.4851 -0.1618,2.7059 0.7007,0.6626 -0.2695,1.3255 -0.3233,0.7178 h -5.4973 l -0.2156,-0.3865 -2.3175,-0.9388 h -0.6467 l -1.7247,1.2701 -0.3233,1.6015 -0.5929,0.6074 -0.4311,-0.3313 h -3.1799 l -1.5629,2.3194 -1.6168,1.0493 -0.539,8.4491 -1.3474,2.8165 -0.8623,0.1104 0.7006,0.4418 -0.3233,3.9208 -1.2396,5.1911 -1.5091,1.6567 -2.048,3.3134 -3.4493,3.3134 -2.6408,1.1597 -0.3773,0.8283 0.4851,0.6628 0.8623,1.9328 1.1857,3.7552 -0.4312,3.479 -1.6168,2.7612 v 4.4179 l 0.3772,-0.3867 0.1078,-1.1595 0.539,-0.3867 0.5928,1.0493 -0.485,0.994 -0.9701,0.3313 -1.1857,1.1045 0.2694,1.7672 -1.4551,0.7731 -2.3175,4.8596 -0.6468,0.5524 -0.9701,2.1537 -1.6707,1.3253 -0.4312,0.7731 -0.485,0.1657 -2.2097,1.2149 -0.5929,1.7119 -1.3474,2.4299 -2.048,1.6566 -0.97,0.4418 -0.1078,1.2702 0.5388,0.7731 0.3774,0.2762 0.2695,-1.8224 0.8084,-0.7731 h 1.2934 v 0.5522 l -0.7545,0.3865 -1.0779,2.0433 -0.1617,1.7672 -0.6467,0.7731 0.4311,-2.0433 -0.2694,-0.5522 -0.5929,2.8164 -0.7545,0.7731 0.181,0.9018 1.7794,0.8103 0.7908,1.6714 2.422,3.9503 0.1483,2.9375 0.3954,3.4439 -0.4448,2.6335 h -0.346 l -0.4943,-0.709 -0.5931,0.051 0.049,-0.4559 1.0873,-1.418 v -2.279 l -0.1482,-0.1014 -0.4448,2.3804 -1.1864,1.1649 0.099,0.8609 -1.038,1.4688 -0.6425,4.5581 -0.8896,1.3168 0.247,3.8491 1.1864,0.861 -0.4943,1.6207 -0.8897,4.4061 -1.4334,1.2662 0.1482,1.9246 0.6426,0.4558 -0.1978,0.861 -0.3954,0.3544 -0.1976,1.0636 -2.076,3.2414 -0.8897,0.709 0.099,1.3675 0.7414,0.5064 -0.1977,0.6585 -0.3954,0.4051 -0.4943,2.1777 -3.3117,2.6336 -1.5322,2.5324 -2.0265,1.2661 -2.2243,2.6843 -1.2358,0.9622 0.3956,1.8233 0.593,0.4051 1.3346,3.4946 0.9391,0.861 -0.2471,0.4558 -0.4448,0.4558 -1.8783,3.1907 -2.0759,1.7219 -1.7795,2.3804 -2.9656,2.3297 -4.9922,1.9246 -2.9657,3.14 -0.049,1.6713 -0.6426,1.1649 -1.5322,1.2661 -1.2851,0.4052 0.5437,0.4052 -0.1977,0.6077 -1.4828,0.6584 -1.2358,0.051 -0.4448,-0.7091 -0.4943,0.7091 0.3461,0.557 v 0.861 l -1.4335,1.5194 -1.5817,0.2026 -0.7413,0.5571 0.2965,0.3545 1.3839,0.3038 -0.099,0.5571 -1.1862,0.8104 -0.099,-0.709 -0.5437,-0.4558 -0.6426,-1.1142 -0.6919,0.152 -0.5438,1.0634 -0.7908,0.9624 0.049,0.6583 0.6426,-0.4558 0.5932,1.8233 -1.2358,1.0636 -0.346,-1.7221 -0.5437,1.4688 0.5437,0.4558 0.1483,0.861 -2.9656,3.5959 -3.2623,2.1778 -1.9275,2.7855 -1.2853,1.8232 -0.099,1.3675 0.6921,-0.2533 1.8783,-2.6335 5.1404,-2.2791 h 4.1025 l 3.8058,0.6584 5.3877,-1.5194 5.6347,0.4051 0.7415,-0.9115 0.2471,0.6077 1.5817,-0.7597 h 5.0911 l 5.437,4.2037 v 0.9622 l 2.8173,1.5194 2.6791,0.9154 0.4893,1.4324 1.5378,0.7163 0.4893,-0.5013 h 1.0485 l 3.0757,-2.0055 h 1.5379 l 0.8388,-0.4297 1.5378,0.5729 2.796,2.5069 2.6563,4.5123 3.8445,7.5922 -0.2097,1.5041 0.9087,1.3608 2.866,6.9476 1.9572,2.6501 3.0057,2.077 3.6349,5.8732 2.7961,8.0935 1.5378,9.8126 1.2582,6.4461 0.1398,12.9641 -2.4465,15.1843 -3.0757,12.5342 -4.963,15.3992 -2.796,9.0245 -4.963,11.6748 -4.1242,8.8814 -8.3181,14.5397 -3.7748,3.3663 -5.8716,8.3801 -5.3824,5.3001 -1.7476,0.7163 -0.5591,1.2893 -1.9573,3.1514 -1.2583,0.7879 -5.662,4.4406 -4.5435,2.2921 -2.866,-0.072 -0.2795,0.4299 -3.565,-0.5014 -1.1183,0.931 0.629,-1.3607 -4.194,-3.1516 -0.069,-0.7878 -0.778,-0.9358 z m 11.9467,-216.4234 -0.669,0.2741 -0.602,-0.4797 0.6689,-0.5485 z m 84.8341,-195.3316 h 1.0429 l 0.4666,-0.6187 0.3842,-0.028 0.4116,-0.6749 -0.6586,-0.3656 -1.4546,0.1687 -0.1372,-0.8436 0.4117,-0.1968 0.054,-0.2813 -0.7959,-0.5343 0.1646,-1.3779 0.3294,-0.028 0.247,-1.4622 -1.6468,-1.6029 -1.8387,-0.1688 -0.2196,-0.3375 -0.9881,-0.084 -2.1681,1.3498 v 0.3937 l 1.2351,0.7031 0.3842,-0.1969 h 3.0739 l 0.3292,0.4499 0.4941,0.3094 0.3842,0.2812 -0.1921,0.3656 -0.2744,2.9246 0.7136,0.7874 0.2469,1.0686 z m -14.3263,5.9897 1.5096,0.1126 0.4666,-0.4781 v -1.5748 l 1.2899,-2.1654 0.3842,-1.0966 0.1921,-1.0687 h 0.3293 l 0.3842,0.8156 0.3568,0.1406 0.5215,-0.3657 0.1647,-0.956 0.8507,-1.6592 0.3568,-0.028 0.028,-0.6468 -0.4118,-0.3375 -0.082,-0.7874 h 0.4666 l 0.6312,0.7594 h 0.2471 l 0.3842,-1.4343 -0.2471,-0.2249 -0.686,-0.028 -2.0584,0.9562 -1.6193,0.1687 -0.2195,-0.5905 -0.6313,-0.2813 -0.5763,-1.4623 0.2471,-1.7434 -1.1253,0.253 -1.3448,0.8156 -1.0429,0.084 -1.1252,1.2654 -0.028,1.2093 0.6313,0.7311 v 0.9843 l 0.3567,0.7874 0.3842,0.1968 0.028,2.1372 0.3568,0.2813 -0.3018,0.3374 -0.082,1.8841 -0.2744,0.057 -0.082,1.2936 0.6313,1.1248 0.6037,0.1406 0.1373,0.3937 z m 1.1528,9.7019 0.8782,-0.057 1.0978,-1.7436 0.2744,-0.056 0.2745,-0.3936 -1.6467,-0.6188 -0.3293,-0.5061 0.8233,-0.225 -1.2075,-0.3937 -0.054,-0.2813 -0.3294,0.1688 -0.2745,2.4184 -0.4391,0.2812 0.9332,1.4061 z m 11.6488,-3.9724 2.3715,1.9881 0.2154,0.994 0.8624,0.4418 1.024,2.0432 -0.1078,2.1537 -1.4552,1.215 -0.6467,2.7611 -0.8084,0.5523 -1.7246,4.0866 -0.5928,4.6387 -1.9403,1.8224 h -0.8084 l -1.7786,-1.3806 h -2.048 l -1.2396,1.2149 -0.5928,-0.1105 -0.9162,-1.1044 -2.2097,-0.4971 -0.4851,-1.4909 h -1.2935 l -0.7006,0.7731 -1.2935,-0.1104 -0.5389,-0.3314 0.3233,-0.1104 0.3235,-5.1911 0.5927,-0.4418 1.3474,-0.056 1.0779,-0.8283 0.3234,-0.6074 3.6648,-0.2209 0.7006,-0.9389 h 0.4312 l 0.1078,0.3314 1.1857,0.6075 1.4013,2.6507 0.2156,1.7671 1.2396,0.994 0.7545,-0.4969 v -0.3866 l -1.1857,-0.3865 -0.7544,-2.4852 -0.1618,-1.4911 -0.6468,-0.4969 -0.054,-0.8284 2.3714,-0.8835 0.9702,-1.3254 -0.054,-3.2582 1.0778,-1.3253 0.1079,-1.6568 -2.2097,-2.3746 -0.7006,-0.2209 -0.7546,0.3866 -1.024,-1.3254 -1.7247,-0.2209 -0.1077,-0.3313 -1.8324,-0.1656 v 1.3253 l 0.8353,0.1933 0.1887,0.9111 1.7784,0.6628 0.3773,1.3805 1.8864,2.8165 v 2.485 l -0.7546,1.2149 -3.9343,0.3866 -0.4851,0.5522 -1.1318,-0.4418 -0.485,-1.2701 -0.8085,0.2209 v 0.8284 l 1.1858,1.0492 0.054,0.9388 -1.8864,-0.1105 -0.3773,0.7731 -0.4312,-0.3865 -1.1856,-0.1104 1.0239,1.1044 -0.8083,0.2762 -1.1318,0.055 -0.5389,-0.5523 0.2156,-2.6506 1.509,-5.0254 0.5928,-4.8597 0.059,-0.075 -0.1647,-4.0495 -0.3842,-0.675 0.7684,-0.8436 1.2076,0.8436 1.0978,0.2251 0.9331,-0.5063 1.3173,-0.2812 0.8783,-1.5186 0.8782,-1.1248 -0.2744,-0.2249 h -0.3293 l -1.5918,1.4061 -0.2196,0.5061 -0.2195,-0.5625 0.988,-2.3059 0.5767,-0.1843 0.5158,0.2589 1.4872,-0.018 -0.1097,0.3374 -0.6587,0.3375 0.1098,0.6187 2.7445,-0.1688 0.494,1.4061 1.0429,1.7436 0.6586,2.5871 2.2079,2.1581 z m -16.1685,27.8327 0.9163,-0.6627 0.7006,-1.6567 1.563,-0.718 0.485,0.3315 1.1318,-0.1105 0.485,-0.4419 0.3773,0.3866 0.8624,0.055 0.3772,-1.8223 -3.1799,-1.3806 -0.485,-0.7732 -1.4013,-0.7732 -0.485,0.4419 -1.2395,0.1656 -0.9702,1.1045 0.4312,0.1657 0.4851,1.8775 -0.054,3.8105 z m -80.437,189.3729 h 0.3311 l 0.7568,-1.3086 0.6149,-0.097 0.1893,-0.3877 -0.5676,-0.8724 -0.3312,-0.049 -0.5203,1.6964 -0.3784,0.2908 -0.095,0.727 z" />
  </g>
  <g
     id="layer15"
     style="display:inline"
     transform="translate(-1761.2378,-1417.0736)" />
</svg>
