<?xml version="1.0" encoding="UTF-8" standalone="no"?>
<svg
   xmlns:dc="http://purl.org/dc/elements/1.1/"
   xmlns:cc="http://creativecommons.org/ns#"
   xmlns:rdf="http://www.w3.org/1999/02/22-rdf-syntax-ns#"
   xmlns:svg="http://www.w3.org/2000/svg"
   xmlns="http://www.w3.org/2000/svg"
   width="2765.3577"
   height="1951.1055"
   id="svg2"
   version="1.1">
  <defs
     id="defs4" />
  <metadata
     id="metadata7">
    <rdf:RDF>
      <cc:Work
         rdf:about="">
        <dc:format>image/svg+xml</dc:format>
        <dc:type
           rdf:resource="http://purl.org/dc/dcmitype/StillImage" />
        <dc:title></dc:title>
      </cc:Work>
    </rdf:RDF>
  </metadata>
  <g
     id="layer3"
     style="display:inline"
     transform="translate(-5228.1088,-5397.3097)" />
  <path
     d="m 2570.4296,1548.4019 h -12.7592 l -3.6933,2.6861 -2.0145,4.7007 -11.4158,1.3431 -1.3432,-2.0147 -5.0362,0.6716 -5.0366,4.3649 -8.7298,3.0219 -2.0145,-1.6788 -2.6862,0.3358 -5.0363,9.0654 -15.7809,10.0729 -3.3577,-0.3358 -3.3574,4.7007 v 6.3795 l -4.9944,3.2343 1.3176,1.1308 3.8798,0.3528 4.5853,4.4676 1.1757,1.7635 0.1175,3.5272 -1.0581,0.5878 -0.5879,3.9975 -1.4109,4.7027 -3.8797,5.2907 -0.3528,4.35 1.0581,2.8218 0.7055,2.9392 2.7041,5.5258 2.9392,9.9934 1.9988,4.2326 6.4663,10.6989 2.469,10.8164 -0.9406,8.23 -4.2325,8.8177 -1.0581,6.5839 2.1162,11.4043 1.5285,11.4043 1.881,16.93 v 17.7532 l -2.1162,14.6962 -3.8798,14.9314 -1.1757,11.6395 1.5284,14.2259 0.3527,14.4611 3.8799,14.4612 5.6433,14.6963 5.996,17.4003 151.5479,-42.2077 -1.0582,-5.996 -7.5245,-7.7596 -7.4069,-8.1124 -2.8216,-15.8719 5.4082,-11.1692 7.0542,-2.5866 4.8203,0.3528 3.8799,-3.5272 1.0582,-8.1123 -2.4691,-14.4611 -2.7041,-7.5245 -2.2338,-6.9366 -5.8785,-7.1718 -6.4663,-9.2881 -15.1666,-5.2906 -5.7609,-4.3501 -2.469,-9.7583 1.646,-7.9948 -0.823,-15.0489 2.2338,-3.6447 0.9405,-8.7002 -3.8798,-11.757 -4.2325,-7.0542 -1.2932,-11.9921 -0.4703,-5.5259 -5.761,-4.2325 -2.7041,-4.3501 0.4703,-4.2325 -2.2338,-3.9973 -7.1717,-9.4057 -6.9367,-1.1757 -3.1744,-3.8798 0.4703,-4.5852 2.4689,-2.9392 1.1757,-11.6395 -2.9392,-13.6381 -4.3501,-5.6434 0.2351,-3.4095 -4.9379,-5.8785 -2.9392,-1.7635 -2.8435,-4.9029 z"
     style="display:inline;fill:#fefee9;fill-opacity:1;stroke:#646464;stroke-width:0.74666667;stroke-linecap:butt;stroke-linejoin:round;stroke-miterlimit:4;stroke-dasharray:none;stroke-opacity:1"
     id="La_Guadalupe,_Código_DANE_:_94885" />
  <path
     d="m 2488.168,1591.7152 v -6.3795 l 3.3574,-4.7007 3.3577,0.3358 15.7809,-10.0729 5.0363,-9.0654 2.6862,-0.3358 2.0145,1.6788 8.7298,-3.0219 5.0366,-4.3649 5.0362,-0.6716 1.3432,2.0147 11.4158,-1.3431 2.0145,-4.7007 3.6933,-2.6861 12.7636,-0.076 9.2085,-5.6253 -2.8588,-5.0529 -1.4109,-7.0542 v -5.5257 l -5.5258,-13.7558 -5.5257,-6.5838 -3.6447,-4.7029 0.4703,-8.2298 -2.9393,-8.9354 -8.5826,-8.3475 -2.7041,-7.407 -1.8811,-11.0515 1.2932,-16.1071 0.3528,-7.4069 -6.4664,-6.8191 -3.4096,-12.1096 -5.8785,-11.4044 -1.2932,-11.0515 -2.9805,-7.3834 -2.7495,-3.3284 -1.1578,-4.052 -2.4602,-3.3285 -6.8016,-0.7235 -4.4861,-7.9594 -4.7756,-1.5919 -2.8943,-3.6178 -0.4341,-3.3284 -5.2099,-5.9334 -4.3414,0.1447 -2.3154,-3.6178 v -4.1968 l 0.7235,-1.7366 1.3025,-5.9333 3.4732,-4.9203 0.8683,-10.2748 1.013,-2.1708 1.8812,-1.4471 1.0131,-4.052 6.6568,-9.4065 0.5789,-9.5512 -7.091,-19.6812 1.4472,-5.7887 -0.2895,-4.7756 -4.7756,-12.3008 -4.9203,-5.0649 -6.3675,0.4341 -8.6829,6.8016 -4.4862,1.013 -7.8146,-4.6309 -10.5642,-13.7479 -8.9723,-18.0894 -2.1708,-10.1301 -4.7756,-9.8406 0.2894,-6.3675 -1.013,-3.3284 -3.0389,-1.7366 -8.683,-12.735 0.4342,-7.3803 2.3154,-2.3156 1.8813,-1.4471 -0.1447,-6.078 1.013,-1.4471 -0.4341,-5.0651 -2.8943,-3.4732 0.7236,-6.8016 2.7495,-5.6439 5.3545,-2.0259 6.6568,-5.9334 3.0391,-7.2357 2.4601,-2.8944 -0.7235,-6.2227 -8.5382,-8.6829 -8.2488,-9.8406 -0.8682,-4.7756 -3.0391,-5.4992 -7.0911,-6.2227 -7.9592,-2.8943 -9.696,-9.1171 -0.7235,-2.0261 -3.4732,-1.4471 -6.8016,-0.1447 -4.0521,-2.026 -4.052,-3.3284 -2.1707,-1.7367 -2.4601,-0.2893 -4.0521,-4.3415 -1.1576,-3.039 0.7235,-2.8943 -1.5919,-3.9073 -7.6699,-5.0651 v -2.8943 l -4.7756,-5.3544 -3.7626,-0.7237 -4.9203,-8.5381 -0.1447,-3.1838 0.9394,-1.7555 -8.1623,3.9829 -5.6982,3.7988 -13.7704,4.2736 -9.9714,-0.9498 -6.173,5.6981 -8.0721,0.4748 -13.7705,7.1226 -9.4968,7.5974 -11.8709,-0.9497 -12.3458,-13.7703 h -13.2955 l -5.6981,5.2233 h -3.3238 l -2.849,-3.3239 -3.7987,-0.4749 -9.9716,10.4465 h -3.7988 v 10.9213 l 8.0724,9.9715 -10.9213,-0.4747 -1.8994,-3.7988 -6.1729,-5.2232 -13.2954,-3.3238 -8.0723,-8.5471 v -4.7484 l -6.173,-5.698 -6.6477,5.698 0.4749,4.2735 -3.7987,-1.4244 -0.9498,-2.3743 -3.3238,0.9497 -3.7988,3.7987 -2.374,-0.9497 -2.3742,-1.8993 -2.849,2.849 -5.6981,-2.3741 -6.173,5.2231 1.8994,2.8491 2.3743,11.8709 -2.8492,2.8491 4.2736,7.1225 5.2231,1.8993 -0.9495,4.2736 h -6.1729 l -2.3743,4.2735 v 4.7484 l -5.2233,0.9498 v 3.3238 l -3.3238,3.7987 1.8994,0.4748 1.4244,8.5471 3.3239,4.2736 -3.3239,3.3238 -0.4748,8.0723 -4.7483,0.4748 v 2.3742 l 4.2736,2.8491 -1.4246,3.3238 h -4.2734 l 0.9495,2.8491 -3.7987,3.3238 -3.7987,-0.9496 -1.8992,1.8993 1.8992,5.2232 -3.3239,5.6981 9.0219,9.0219 5.2233,-0.4749 2.3741,4.7484 3.3239,1.8994 3.7987,-2.3742 7.5974,4.7484 2.849,4.2735 5.2235,2.8491 h 3.3238 l 2.8489,4.2735 -0.4749,4.7485 8.0724,6.6476 v 3.7988 l -1.8994,2.3741 4.7483,6.6478 3.324,1.4245 v 7.1226 l -2.8492,2.3742 2.8492,3.3238 -6.1729,0.9497 -4.7484,10.4464 h -3.7987 l -4.2736,7.5974 -0.4749,9.9717 3.7988,3.3238 -0.4747,10.4465 -5.2235,4.2735 v 6.6478 l -2.8488,5.698 -2.3743,9.9716 -5.6982,3.7988 2.8492,4.7483 -11.871,12.8206 -7.1967,2.3601 -0.6716,2.0145 v 3.3577 l -5.3722,4.7007 0.2614,1.7102 13.1823,0.5955 3.8129,2.5928 11.7437,2.5928 11.8962,0.9151 8.8458,-3.2029 5.7956,-2.1351 2.2877,0.1524 3.2028,-2.2877 0.4576,-5.7956 5.7955,-7.1682 3.5079,-8.9984 5.7956,-3.3553 3.8129,0.305 7.9308,-4.1179 3.9654,-11.8963 6.1006,-3.0502 1.8302,2.2877 8.9984,-1.2201 1.2201,-2.4403 4.2705,-9.3034 4.2704,-4.728 3.9654,-0.4576 4.4229,-6.2531 3.6604,-5.338 -0.4576,-3.2028 -1.6776,-2.2878 1.9827,-5.6429 5.7955,-3.508 8.9984,0.6101 4.2705,-1.6776 h 4.5755 l 1.3726,0.61 3.6603,0.7626 4.1179,-3.3553 1.0676,-9.3035 -0.9151,-7.9308 0.9151,-9.3034 5.7956,-5.4906 3.813,-0.305 3.9653,-2.4403 16.3191,-2.5927 6.8633,4.728 2.1351,2.4402 5.7957,3.0503 3.8129,5.6431 -0.1526,3.3553 -2.7452,2.2877 v 7.0158 l 1.5251,1.5251 0.4576,1.9827 -1.9827,1.6777 0.1525,3.2028 3.2028,3.9654 4.5754,1.3726 6.2531,4.728 v 5.7956 l -2.5927,1.5251 -0.3051,2.4403 2.7453,2.2877 1.3727,6.1006 0.7626,2.5928 v 1.0676 l -1.5252,0.3051 -1.2201,2.1351 -2.7453,2.4403 -1.9827,0.1525 -1.0676,1.9827 1.9827,1.0676 -0.4575,2.5928 -1.2202,1.2201 0.3051,4.8804 8.2358,11.2862 4.7279,2.2877 7.3208,5.0331 v 4.1178 l 0.9151,3.3555 c 0,0 -0.3051,2.8977 -0.3051,3.8128 0,0.915 -2.8977,6.7107 -2.8977,6.7107 l -6.5582,3.6603 -1.5251,3.6604 0.1524,4.1179 1.6778,1.6776 -2.4403,3.0504 -3.2028,1.9827 -1.2202,2.8978 v 2.1352 l 1.9827,2.1352 -0.305,9.3035 3.3554,10.0659 4.1179,0.4576 5.7956,-0.1525 0.61,1.3727 -3.8129,3.8128 -0.61,3.3554 2.7453,2.4402 1.2201,3.2028 -1.0676,3.3554 1.22,2.1351 4.2705,1.2202 3.6604,5.0329 2.8977,9.9135 3.9655,6.2532 3.8129,2.8978 4.2704,1.6776 5.6431,6.2531 2.1351,3.5079 3.2029,5.0331 8.0833,5.0329 5.6431,3.3554 1.0675,3.6604 2.7453,1.2201 5.338,-0.305 3.508,2.8977 3.2027,5.0331 2.5928,0.9151 1.2201,-1.9828 8.6934,-0.7625 3.8129,-2.5928 4.1179,-0.1525 5.338,2.4402 5.9481,1.0676 9.6292,2.39 7.9946,5.0556 0.8231,3.9973 1.0581,1.1758 0.1175,6.1136 -2.2338,2.7041 -2.7041,6.8191 -0.2351,3.0568 1.9986,1.1757 v 3.0568 l 1.4109,4.3501 3.4095,6.584 1.5284,1.6459 0.8231,3.292 -1.4109,5.1731 -5.2907,8.9353 -1.1756,2.469 -6.9367,5.0554 -1.2932,2.8218 0.9405,1.2932 0.7055,3.8798 1.881,5.2907 2.7041,3.7622 -0.1175,7.642 v 5.1732 l 1.7635,5.6434 1.7636,1.646 0.9405,5.173 2.3515,4.4677 5.996,6.1136 4.4677,2.2338 4.7028,2.2338 -0.1176,7.9948 -5.2906,7.0542 -0.2352,2.5865 -1.5283,1.2934 -0.1177,6.2311 1.0581,1.5285 0.8231,2.5865 1.2186,1.0476 z"
     style="display:inline;fill:#fefee9;fill-opacity:1;stroke:#646464;stroke-width:0.74666667;stroke-linecap:butt;stroke-linejoin:round;stroke-miterlimit:4;stroke-dasharray:none;stroke-opacity:1"
     id="San_Felipe,_Código_DANE_:_94883" />
  <path
     d="m 2282.7727,531.4879 31.8158,-0.1426 2.6116,-1.1871 v -2.8491 l -4.2736,-5.2231 v -2.8491 l 5.6981,-5.2232 -3.3238,-6.1729 1.4244,-9.0219 6.173,-3.3239 9.9716,-3.3239 4.7484,-6.1729 3.3239,-2.3742 4.7483,-9.0218 2.3742,-7.5975 4.7483,-1.8994 -1.8993,-4.2735 0.9498,-6.6477 8.547,-3.3239 -3.3239,-18.0439 -6.1729,-7.1225 -3.7987,-6.6478 -2.849,-14.2451 -4.7483,-4.2735 -6.6478,-0.9498 -10.9213,-5.2231 -2.849,-4.7484 h -11.3961 l -8.2476,-6.6478 -2.3743,-13.2954 1.4244,-12.3459 -1.4244,-10.9212 -7.7027,-6.1379 -4.7483,-6.1729 v -7.1225 l -1.4244,-6.1729 -7.1228,-2.3742 -2.8489,-4.2735 -0.4749,-5.6981 -1.4246,-2.3742 1.8995,-8.0722 4.7482,-9.4969 -2.374,-7.5972 -6.173,-7.5975 -2.8489,-6.6479 6.6477,-9.0219 -2.849,-4.2734 -10.9213,-0.4749 -2.3743,-6.173 -8.547,-8.547 -0.9497,-6.6477 -1.4246,-16.1444 -5.698,-8.0724 v -4.7483 l -6.173,-5.6981 -7.5972,-1.8993 -1.8994,-2.8492 -4.2736,1.4247 -3.3239,5.2232 -8.547,8.547 -13.0149,1.3893 -9.4967,-0.9495 -3.2774,4.3108 6.1263,11.3588 8.5472,6.6478 -5.2231,3.3238 5.698,1.4246 2.849,7.5974 -5.6981,4.2736 5.6981,4.2734 7.5974,-4.7483 v 4.2734 l -3.7987,2.8492 6.1728,5.698 0.9497,5.2233 -4.7482,2.8489 -1.8994,8.5472 -5.6981,-2.8491 -3.7987,5.6981 h 6.6477 l 5.2231,11.871 -5.2231,1.8992 -2.849,4.2736 2.849,2.3743 -5.2233,2.3742 -3.3238,-2.8492 -8.0723,5.6982 2.8491,1.4245 1.4245,4.7484 -6.173,3.3238 -4.2734,-3.7987 -3.7987,3.3238 h -5.2232 l 2.374,6.1729 -9.0219,10.9213 -6.6477,1.4246 -3.3238,-3.7988 -3.3238,1.4246 2.374,6.1729 -4.2734,8.0722 -4.2737,-1.8993 -1.4244,4.7484 h -7.5974 l 1.8994,6.1729 -3.7988,1.4245 -7.1226,-5.2233 -1.4244,7.1226 h -4.2736 l -6.1728,4.7484 -1.8993,4.7484 h -8.0725 l -5.2231,3.7987 1.8993,5.6981 -5.2231,0.4748 -2.8492,6.6478 -5.698,-1.4246 -6.6477,8.5471 -8.5471,-3.7987 -1.4247,4.7484 -9.4966,2.3742 -0.4749,2.849 4.7484,3.3239 -2.849,2.849 -0.9495,4.2735 2.374,2.3742 -2.849,1.8994 -6.6478,-0.4748 -9.4966,7.1225 v 5.2233 l 4.7482,1.4245 -1.4244,2.3742 h -6.6477 l -5.6981,3.3238 v 7.1226 l -5.698,0.4749 -7.5975,9.4967 -5.2232,-0.9496 -7.5975,16.1444 v 13.7703 l -5.2231,3.3239 v 5.6981 l 10.9213,8.0722 v 6.6478 l -3.3239,5.698 2.849,9.4968 -1.8994,6.6478 9.4968,6.1729 v 1.4245 l -4.7486,1.8993 v 4.2735 l 5.2235,7.1227 4.7483,-0.4749 3.3238,5.698 7.5975,4.2736 6.173,1.4246 12.8206,13.7702 4.7483,6.6478 v 6.1729 l 2.849,3.3238 -3.3238,2.3742 0.4748,7.5975 -4.7483,3.7987 2.1367,6.4102 5.9355,-1.1871 2.3742,2.8491 -5.2232,6.6478 0.9496,2.8489 h 5.6981 l 0.9495,-5.2232 h 3.7988 l 7.1227,5.6981 v 4.2735 h 4.2734 v 3.7987 l 6.6479,-0.4747 5.2233,-4.2736 5.2231,3.3238 2.849,-7.5973 10.4464,-8.0724 h 10.9213 l 3.7987,-1.4244 6.173,6.6477 3.7987,-4.7484 5.2232,0.4749 1.4244,-2.8491 2.3743,-3.3238 5.2232,-0.9498 2.8489,-2.8489 h 5.6981 l 4.7485,-5.2233 5.6981,-0.9496 6.6477,3.7987 7.1226,-4.7484 4.2736,3.7986 3.3238,-9.0218 3.3238,-0.9497 2.8489,4.7484 h 6.6479 l -2.8491,-6.1729 2.8491,-3.3239 5.6981,-0.9497 v -5.6981 l 11.8923,11.9613 z"
     style="display:inline;fill:#fefee9;fill-opacity:1;stroke:#646464;stroke-width:0.74666667;stroke-linecap:butt;stroke-linejoin:round;stroke-miterlimit:4;stroke-dasharray:none;stroke-opacity:1"
     id="Cacahual,_Código_DANE_:_94886" />
  <path
     d="m 2118.1257,1313.1278 -0.2956,-1.7734 5.3721,-4.7007 v -3.3576 l 0.6716,-2.0146 7.1967,-2.36 11.8711,-12.8207 -2.8492,-4.7483 5.6981,-3.7988 2.3742,-9.9715 2.849,-5.6981 v -6.6477 l 5.2234,-4.2736 0.4747,-10.4464 -3.7987,-3.3238 0.4749,-9.9717 4.2736,-7.5974 h 3.7987 l 4.7482,-10.4464 6.1731,-0.9498 -2.8492,-3.3238 2.8492,-2.3742 v -7.1226 l -3.3241,-1.4245 -4.7483,-6.6477 1.8993,-2.3742 v -3.7987 l -8.0723,-6.6478 0.4749,-4.7483 -2.8489,-4.2735 h -3.3238 l -5.2235,-2.8491 -2.8489,-4.2736 -7.5975,-4.7484 -3.7987,2.3742 -3.3238,-1.8993 -2.3742,-4.7484 -5.2233,0.4748 -9.0218,-9.0219 3.3238,-5.698 -1.8992,-5.2232 1.8992,-1.8994 3.7987,0.9497 3.7988,-3.3239 -0.9497,-2.849 h 4.2735 l 1.4246,-3.3239 -4.2736,-2.849 v -2.3742 l 4.7483,-0.4749 0.4749,-8.0722 3.3238,-3.3239 -3.3238,-4.2735 -1.4244,-8.5471 -1.8995,-0.4748 3.3239,-3.7988 v -3.3239 l 5.2232,-0.9496 v -4.7484 l 2.3742,-4.2735 h 6.173 l 0.9496,-4.2736 -5.2232,-1.8993 -4.2736,-7.1226 2.8492,-2.849 -2.3743,-11.8709 -1.8994,-2.8491 6.173,-5.2233 5.6981,2.3742 2.8489,-2.8489 2.3743,1.8993 2.3741,0.9496 3.7987,-3.7987 3.3238,-0.9496 0.9498,2.3741 3.7987,1.4246 -0.4749,-4.2735 6.6477,-5.6982 6.173,5.6982 v 4.7484 l 8.0723,8.547 13.2953,3.3239 6.173,5.2232 1.8994,3.7987 10.9213,0.4748 -8.0723,-9.9716 v -10.9213 h 3.7987 l 9.9716,-10.4464 3.7988,0.4748 2.8489,3.3239 h 3.3239 l 5.6981,-5.2232 h 13.2955 l 12.3458,13.7703 11.8708,0.9497 9.4968,-7.5974 13.7705,-7.1226 8.0721,-0.4749 6.173,-5.698 9.9714,0.9496 13.7705,-4.2735 5.6981,-3.7987 8.2366,-4.0726 0.1366,-3.9431 -6.5121,-7.8146 -3.7626,-2.1706 -4.7756,-0.2895 -3.039,-3.6178 -4.1967,-0.4343 -4.7756,-4.6308 -6.657,-2.3154 -0.5788,-3.9073 0.5788,-9.5513 -5.4991,-5.7886 -3.9073,-0.5788 -7.6699,-2.7496 -6.5123,-6.3675 -5.2097,-3.3284 -2.6049,-4.6309 -6.6568,-6.3675 -2.026,-0.8683 -3.1837,-3.3284 -2.7497,-0.8684 -3.4732,2.0261 -2.6048,-0.1448 -2.8942,-1.7365 v -2.8943 l -4.4862,-10.2748 -1.4472,-4.9203 -2.026,-3.3284 -1.1578,-6.3675 -2.1706,-2.1708 -3.618,1.7367 -10.7089,-1.3025 -5.065,-3.9073 -3.9073,-0.4342 -4.9204,3.3285 h -3.7625 l -5.0651,2.7496 -2.1706,3.3284 -3.7627,3.3285 -1.7365,0.7236 -3.4732,-1.4472 -1.5919,-4.4861 -2.4602,-2.8943 -1.4471,-11.722 3.4732,-6.8016 -0.1447,-8.3934 2.3154,-4.4862 -1.013,-6.9464 -4.3414,-2.8943 -10.5643,-8.104 -0.8683,-10.709 2.7497,-5.4991 -0.7236,-5.6439 -13.4586,-15.0504 -3.7626,-1.5919 -0.4341,-3.9073 -5.0651,-2.4601 h -6.9462 l -4.3415,2.7496 -4.3415,0.7235 -4.3414,7.2358 -7.8146,1.1577 -5.2097,-3.9073 -17.5105,-2.026 -17.3659,-5.7886 -8.6829,-1.7366 -0.5789,-4.3415 1.8813,-3.1836 1.013,-2.605 -2.026,-2.6049 -9.6959,-1.4471 -6.9463,4.6309 -14.761,4.1967 -10.2748,-1.3024 -4.9203,-2.6049 -7.2357,1.1578 -5.9334,7.9593 -2.7495,6.5121 0.7235,2.7497 -1.5918,4.9203 -1.3475,2.8139 -4.5858,0.5145 -4.1968,-1.013 -2.3154,0.7237 -0.8683,2.1706 -3.9408,-0.2591 0.2373,-47.7213 216.4596,-198.3734 -11.8003,-11.9802 v 5.6981 l -5.6981,0.9497 -2.8492,3.3239 2.8492,6.1729 h -6.6479 l -2.8488,-4.7484 -3.3239,0.9497 -3.3238,9.0218 -4.2736,-3.7986 -7.1226,4.7484 -6.6477,-3.7987 -5.6981,0.9496 -4.7485,5.2233 h -5.6981 l -2.849,2.8489 -5.2231,0.9498 -2.3743,3.3238 -1.4244,2.8491 -5.2233,-0.4749 -3.7987,4.7484 -6.1729,-6.6477 -3.7987,1.4244 h -10.9213 l -10.4464,8.0724 -2.849,7.5973 -5.2232,-3.3238 -5.2232,4.2736 -6.6479,0.4747 v -3.7987 h -4.2733 v -4.2735 l -7.1228,-5.6981 h -3.7987 l -0.9496,5.2232 h -5.6981 l -0.9496,-2.8489 5.2232,-6.6478 -2.3742,-2.8491 -5.3195,1.1165 -7.9761,7.9055 v 6.1729 l -5.6979,4.2735 -3.7987,-1.8993 -3.7987,2.8491 -6.1729,-3.324 2.3741,-6.1728 -3.7987,-1.4245 -3.3238,1.4245 -7.5975,-6.6478 -9.9717,0.4749 -1.4244,2.3741 -4.2734,-0.4748 -5.2233,-1.8993 -10.4466,4.7484 v 3.3238 l -11.8708,5.698 -6.6479,9.9717 -5.2231,2.3742 -2.849,-1.8994 h -8.5472 l -3.7985,-3.7987 -8.5473,8.0722 -3.7987,-1.8993 -6.1728,2.3742 v 4.7484 l -5.2232,5.698 h -3.324 l -3.7985,3.3239 2.374,2.849 -5.6981,3.3239 v 3.3239 l -3.7985,2.849 -10.4466,-1.8993 -5.2232,-7.1226 -6.6476,-7.5974 h -4.7486 l -6.1727,-3.3239 -1.8994,-4.7485 h -6.6479 l -1.4245,3.324 -10.4464,-0.4749 -2.3742,-1.8993 h -6.6476 l -4.2737,3.3238 -5.6981,-1.8993 h -15.1946 l -5.2233,-1.4245 -5.6981,6.6477 5.6981,5.6981 v 4.2735 l -2.3743,6.6478 5.2233,6.6477 0.9497,14.2451 2.849,2.3742 -1.4244,9.022 -6.173,3.3238 -3.7988,5.6981 -5.2232,6.1729 -123.9328,-33.7136 -1.9816,4.9424 -7.3867,3.3576 -3.6934,5.3721 v 7.7226 l -4.7005,-1.6788 -8.3943,6.3795 v 4.3649 l -6.7151,-1.343 -3.0217,2.3503 3.6933,4.0291 -2.3504,1.6788 -3.3577,-3.3576 -4.3648,3.0218 -2.3504,-2.0146 0.3357,-4.0291 -3.3574,-1.0073 v 5.708 l -5.7081,5.3721 -8.0581,-0.6714 -2.3504,5.0363 -4.7006,0.3358 -5.3723,3.6934 2.3502,1.343 -0.6713,4.3649 -5.7081,-0.6715 -2.0145,4.0292 -4.7007,0.3358 1.3431,4.7005 2.3504,2.3504 0.3356,2.3503 -4.3648,0.6716 -2.3504,3.6933 -9.4011,0.3358 -3.6935,3.0219 2.6862,2.3503 -6.7154,7.7224 -6.7151,-2.0145 -10.7444,6.3796 v 4.7005 l -8.0584,3.0219 -10.4086,-1.0072 -6.7152,1.6788 2.0145,4.3648 -1.0073,6.0437 -4.7005,1.3431 -11.7517,10.4086 -2.6861,-2.6861 -5.7078,2.0145 -4.0294,-0.3357 -3.0217,4.7006 h -5.7079 l -3.022,-2.6861 h -5.0363 l -2.3504,3.6935 h -5.3722 l -2.0145,2.0145 1.3429,3.0219 -6.3793,5.7079 v 3.6933 l -8.7298,5.708 -3.3576,0.6716 1.0072,3.3576 -3.6934,3.3576 -7.051,0.6715 -3.3574,1.6789 -4.0294,-2.3504 -2.3502,0.6715 -4.0292,4.7007 -5.3722,0.3357 -3.6934,4.0291 -5.0363,0.3358 -7.0509,4.3649 2.686,3.0219 v 3.0219 l -5.0366,3.0218 2.3506,3.6934 -6.3796,4.3649 h -7.051 l -6.3795,7.0509 -4.7006,-0.3357 -2.0145,4.0291 -5.7081,-2.0145 -7.7224,4.0291 v 5.7079 l -5.0365,-1.6788 -1.6788,2.3504 v 3.6933 l -6.3795,3.6934 -3.3574,-3.0219 -4.3649,4.3649 -3.3578,0.3358 -5.7078,6.0437 h -6.0438 l -3.3577,1.6789 0.6715,3.3575 -4.029,1.0074 -5.3721,-2.3504 -6.0439,1.343 0.3357,3.3577 -9.0653,9.4012 -12.7591,14.4378 -23.5032,7.051 -4.7008,4.0291 -6.0435,-3.3575 -12.4232,5.3721 -3.3577,11.7517 0.3359,4.3649 -5.3723,5.0364 -7.7225,-6.7152 -35.9266,1.0072 -2.6861,-3.0218 -3.6934,0.6715 -6.0435,8.7299 -4.0293,14.1019 5.3723,5.3722 v 3.0219 l -8.0584,4.3649 -3.6933,6.3794 2.6861,6.7152 2.0147,1.0073 0.3357,2.6861 -3.6934,2.6861 -3.3576,3.3577 1.0072,2.686 -5.7079,10.4086 -5.3722,3.6934 -2.6861,9.7371 2.3504,5.0363 -0.3359,6.7152 -6.3794,4.365 -0.6715,5.0364 6.3796,4.0292 0.3357,4.0291 -7.7227,9.4014 -3.6933,-1.0074 -4.0291,3.6934 1.0073,4.0292 2.6861,0.6714 v 6.0438 l 3.3576,2.686 -3.0219,2.3503 1.6788,6.0438 -6.3794,3.3576 v 6.7152 h 6.0437 l 1.3429,8.0583 5.3723,0.6715 v -2.686 l 4.0292,1.343 3.3575,4.7007 h 8.7299 l 0.6716,-3.3577 h 5.3721 l 6.7152,6.0438 5.3722,-5.3722 6.7151,3.3576 v 5.3721 h 12.7589 l 10.7444,5.3723 9.4015,-10.0729 0.6714,-3.3576 -3.3576,-3.3577 3.3576,-3.3575 6.7153,4.7006 h 6.0436 l -3.3575,-3.3576 0.6716,-3.3576 4.7006,2.686 16.788,-2.686 -6.7152,-5.3722 5.3723,-5.3722 -6.0439,-8.0582 h 6.7152 l 4.0292,4.7006 h 6.7151 l -0.6713,-8.7298 7.3868,-4.7006 v 6.0436 l 6.715,-1.343 5.3723,-8.0583 8.0583,-1.343 5.3722,-8.0582 3.3577,2.686 8.058,-2.686 2.6862,7.3866 5.3721,-2.0145 6.0438,6.7152 2.6861,-5.3721 7.3867,-1.3431 0.6716,-4.7007 -6.0437,-2.6861 4.0292,-4.0291 4.7006,2.0145 4.7007,7.3868 10.0727,1.343 4.7007,-7.3866 10.0728,6.0436 -0.6714,7.3868 5.3722,4.7007 2.6862,-6.0438 8.7296,-7.3867 -2.6861,-4.7006 6.0437,-2.6862 5.3723,4.7007 7.3866,-8.7298 h 2.6861 l -0.6716,8.0583 10.7445,10.7443 3.3576,-6.0437 8.7297,3.3577 -4.029,5.3721 -0.6716,4.0291 6.7154,2.6861 0.6713,4.0291 -7.3867,11.4159 4.0293,2.0146 -1.3432,11.4159 -3.3574,2.0146 v 5.3722 l 4.7006,4.0291 -2.0147,4.7007 -5.3721,4.0291 -4.7008,7.3868 -6.7151,-0.6716 -10.0728,8.7299 v 4.7006 l -7.3867,6.0437 h -8.0584 v 4.7007 l -10.7444,13.4305 v 4.7006 l 4.0291,3.3576 -8.7297,5.3722 -2.6861,4.7007 6.0436,5.3721 v 10.0729 l 3.3576,1.343 -0.6716,5.3722 -4.7005,2.0146 4.7005,2.6861 v 3.3575 l -9.4011,12.759 v 10.7444 l 4.0292,3.3576 -1.3431,8.7297 7.3866,10.7445 4.7007,0.6714 v 5.3723 h 5.3722 l 4.7008,-1.343 2.0146,-7.3868 5.3721,-0.6716 0.6714,-8.0582 h 7.3867 l 4.7009,-3.3577 2.0145,-4.7006 9.4012,9.4013 11.416,-5.3721 4.7007,-2.0147 h 8.0582 l 12.7589,11.4159 v 10.0729 l 8.0583,0.6716 3.3577,-2.0147 4.029,2.6861 4.0293,-4.0291 7.3867,4.7007 3.3575,-2.0146 5.3721,6.7152 8.73,-5.3722 8.7298,4.0291 4.0291,7.3868 6.0437,-6.0437 3.3575,3.3576 h 7.387 l 9.4011,4.0292 8.0584,-4.7007 7.3867,7.3867 2.0146,-3.3576 h 5.3721 l 6.7153,5.3723 2.0146,-7.3868 h 10.0728 l 0.6716,-8.0583 5.3722,6.0437 12.0873,-3.3576 6.0436,4.0291 4.7008,-4.7007 h 4.7006 l 8.0583,-3.3575 2.6861,4.7006 12.0874,-4.0291 -0.6716,-7.3868 4.0292,-1.343 8.7297,4.0291 v 6.0437 l 11.416,-0.6715 5.3722,2.0145 4.7006,-5.3721 4.7007,5.3721 10.7443,-8.7298 8.7299,-0.6714 -4.0292,-5.3722 4.7008,-5.3723 -4.0292,-6.7152 h 4.0292 l 4.029,-4.0291 -2.6861,-3.3576 -0.6716,-7.3867 5.3722,-6.7153 -1.3429,-6.0436 7.3867,-0.6716 -4.7006,-4.7007 2.0146,-4.0291 h 8.7298 l 4.029,-4.0291 4.7007,4.7007 6.0437,-0.6716 6.7152,5.3721 8.7298,10.0729 h 4.7006 v 12.7589 l 6.0439,10.7445 4.7005,1.343 1.343,6.0437 -3.3575,13.4304 -7.3866,6.0438 v 8.7298 l 2.6861,6.7152 -5.3723,13.4304 -7.3869,6.0437 3.3577,10.0729 9.4015,6.7152 -0.6716,7.3867 10.0727,2.0146 4.0291,-4.0291 9.4296,-0.046 1.2292,-2.0374 1.4153,-9.0573 -0.2831,-15.5671 0.7473,-5.1427 2.1352,-1.2202 2.5928,2.2877 0.1525,5.3381 0.9151,14.3365 3.8129,12.2011 4.423,6.4057 4.2704,1.3726 12.8113,0.9151 12.6587,5.9481 8.3884,6.5582 5.1855,11.4386 1.5251,10.6761 6.4057,11.8962 3.6603,2.2877 8.0834,-0.1525 3.3553,2.5928 h 3.5078 l 4.728,-3.8129 h 3.5078 l 2.1353,1.3726 12.2012,1.2201 9.1509,6.4057 2.4402,4.5755 1.0676,1.3725 2.4404,0.3051 5.1855,7.4733 6.5581,6.5581 9.1509,1.9827 2.7452,-1.2201 9.151,-0.1525 7.1682,2.8978 2.5927,2.7453 9.151,3.0502 2.5927,5.1855 10.9811,5.4906 2.8979,0.7625 1.6776,-3.5078 0.7626,-4.4229 -2.8977,-2.1352 v -2.7453 l 5.7955,-5.7956 1.2201,-3.9654 -0.7625,-3.2028 2.8977,-3.0503 2.2878,0.1525 4.8804,-5.338 0.7627,-3.8129 2.4402,-2.1352 0.7625,0.9151 3.0504,-2.4403 4.2704,-1.6777 3.0503,-2.7452 0.305,-5.3381 3.6604,-1.6776 2.2878,0.7625 6.1005,-2.1351 0.4575,-3.5079 -0.3049,-6.2532 1.5251,-1.0675 0.7626,-2.8978 -3.0503,-0.7626 -1.3727,-5.033 1.2202,-7.7783 0.9151,-1.3727 v -2.4402 l 7.1682,-8.8459 2.4402,0.3051 0.3051,-1.9827 3.6603,-3.0504 1.3726,-0.3049 0.6101,-3.508 6.5581,-2.8977 1.5253,0.1525 3.8128,-1.8302 6.5582,-6.5581 4.4229,-0.1525 7.7783,-7.0157 5.4905,-8.2359 1.9827,0.4575 1.2202,1.8302 4.2704,-0.3049 0.4576,-2.5929 -1.2202,-0.9151 v -3.5078 l 4.5755,-3.5079 5.0329,1.3727 9.151,-0.1525 10.5236,-3.8129 z"
     style="display:inline;fill:#fefee9;fill-opacity:1;stroke:#646464;stroke-width:0.74666667;stroke-linecap:butt;stroke-linejoin:round;stroke-miterlimit:4;stroke-dasharray:none;stroke-opacity:1"
     id="Puerto_Colombia,_Código_DANE_:_94884" />
  <path
     d="m 1788.0837,1352.9285 -1.1321,9.6234 -6.2269,3.9626 -1.4154,6.7929 -9.6232,9.9064 -4.2457,3.9625 -1.6982,6.2269 -4.5286,9.3404 -0.2831,11.6047 -3.9625,2.5473 -1.9813,-0.283 -2.8304,2.5473 -1.1336,3.4335 0.7406,2.9623 -3.9497,5.1838 -7.1588,2.4686 -1.2343,2.4686 2.7154,0.9874 4.1966,-2.2217 2.2216,2.7154 -2.9622,3.2092 -0.2468,2.9622 1.2342,0.9874 1.9748,3.7028 -1.9748,2.4686 0.2468,1.728 4.4435,-0.4937 6.8305,-1.711 7.7339,-1.2513 4.4434,3.2092 4.1965,-4.9372 3.7029,-0.7406 0.9874,1.728 -3.4559,3.7029 -0.9874,5.6776 c 0,0 -2.7155,3.2092 -3.7029,3.7028 -0.9874,0.4938 -5.6777,14.3177 -5.6777,14.3177 l 3.7028,2.9622 -0.4937,4.6903 1.9749,2.4686 2.9622,-2.2217 -0.4936,-4.6902 3.456,-2.4686 2.2216,6.6651 6.6651,1.4811 4.1966,-4.6902 0.4936,-3.2092 3.456,-1.9748 3.2092,2.2216 5.6776,0.4938 1.4811,4.1965 6.912,4.4434 v 1.728 h -1.728 l -2.9622,5.184 -3.7029,0.4936 -0.4937,6.6652 -3.5831,2.2317 4.3237,1.4711 2.2216,4.1965 7.1589,-1.481 0.2468,-4.1966 h 4.4434 l 1.2236,8.8625 -797.6166,1.516 -6.8843,-3.7067 2.1184,-5.2956 -6.3548,3.1774 -5.825,-3.1774 1.5888,4.2365 h -5.8249 l -5.825,-7.9433 -2.648,1.5886 -10.5909,-1.5886 -0.5294,-5.8251 -6.8844,2.6478 2.1184,5.825 -5.8249,1.0591 -3.7072,-2.6477 2.6477,-3.7069 -5.8249,-2.1182 -2.118,3.1773 -3.7072,-2.1182 -0.5294,-3.7067 -11.1205,-2.1183 -0.5296,-3.7068 -8.4728,1.5886 -0.5296,3.7069 -3.1771,-1.0591 1.5886,-6.8842 h -10.0616 l -2.6474,-1.0591 -11.1206,7.9433 -0.5296,4.2363 -6.8842,1.0591 -3.7067,-1.0591 -1.5888,4.2364 -7.4136,1.5887 1.0592,4.7659 -11.6501,5.2954 1.5886,2.6478 -11.1203,4.2364 -3.1774,-3.1773 -6.8842,4.766 h -5.8249 l -3.7068,-3.1773 -10.0614,4.7659 4.2364,-4.2364 -2.6478,-6.3546 -3.1774,0.5295 -5.2953,6.3547 -6.3546,-2.6478 -0.5296,-3.7069 -2.6478,-2.118 -12.1795,5.2954 -8.4728,-2.1182 -9.5318,7.9432 1.059,5.8251 -7.4135,-1.5887 -13.7683,5.2955 2.6477,6.3546 -6.8841,2.1182 -6.8842,-6.8842 h -3.7068 l -0.5296,6.3546 h -4.2363 l -7.9434,-9.5319 h -5.8249 l -3.1772,-3.1772 2.1182,-4.766 -2.6478,-0.5295 -4.7671,4.8659 -1.4987,-3.1161 h -5.7797 l -3.6779,-2.6271 -4.2034,-2.1017 -5.7797,2.1017 -1.0509,-6.3051 -9.9827,-3.6779 h -6.8305 l -4.2034,-7.3559 -9.4575,4.2034 -12.61,-1.5763 -3.1525,2.6271 h -11.5593 l -3.1524,-4.7288 -11.0339,-1.5762 4.2034,-3.678 -6.8305,-2.1016 -5.2541,1.5762 -7.8814,-1.0508 -1.5763,-4.7288 -7.8812,0.5254 -9.4576,-3.6779 -9.983,-13.6609 v -5.2542 l -4.2033,-1.0508 -5.7795,3.6779 -9.4577,-7.3558 2.1017,-4.2034 -11.5591,-12.0846 h -11.0339 v -5.2542 l -4.2034,-4.2034 v -4.2033 l -6.8305,-6.8305 h -21.542 l -3.1526,-7.8813 9.4576,-8.9322 -1.0509,-3.6778 6.8305,-9.4576 v -8.4066 l -3.6781,-4.2034 6.3052,-12.6101 4.8322,-0.034 12.927,0.4771 11.4156,-11.0802 6.3796,-3.0219 v -6.7152 l 4.7005,-5.3721 2.3504,-4.3649 19.8101,-0.3358 2.0145,3.0218 8.7298,1.6789 4.0291,-3.6934 h 2.0147 l 3.3575,5.0364 17.1238,-3.0219 14.4378,-7.3867 22.8318,-1.0073 2.0145,-2.6861 6.0437,0.6716 11.0801,13.4304 6.3794,-3.0219 3.3578,3.0219 5.0365,-1.343 4.3647,1.343 13.4305,2.0146 6.0437,-1.6788 1.343,2.3503 11.0802,-0.3358 8.3941,3.6934 v 3.3577 l 2.3502,0.6715 6.0437,-0.3358 3.3578,1.0072 0.3356,2.0146 4.7006,0.3358 6.7153,-3.6933 1.6789,3.3575 6.7152,0.3358 2.686,-2.686 6.3796,-0.3358 0.3358,2.686 h 7.0508 l 2.6861,-4.3649 6.0438,-4.3649 3.3577,2.6861 h 7.7223 l 7.0511,-5.7079 10.0728,1.0073 10.4085,-10.0728 v -4.0291 l 6.3795,-8.0584 -2.0146,-5.7079 0.3359,-11.4159 6.7152,-6.7152 1.3432,-5.0364 h 5.0362 l 18.1312,-10.0729 1.0073,-4.3649 8.7298,-5.0364 v -8.3941 l 5.0364,-8.394 4.3649,-0.6715 8.0582,-5.0364 v -7.3868 h 4.7007 l 10.0728,-11.4159 0.3358,-6.7152 7.3868,-12.7589 4.3649,-3.0219 v -7.051 l 6.0437,-1.343 v -3.6934 l 6.7153,-4.0291 1.0072,-8.7298 -5.0365,-4.3649 2.3504,-5.708 6.0438,-0.3357 3.6934,-4.7007 -2.0148,-6.3795 5.0366,-2.686 -4.0292,-3.6934 v -2.6862 l 5.0364,-2.686 2.3504,-7.051 -6.0437,-5.0364 -2.0146,-3.3576 2.6862,-1.3431 1.3429,-6.7152 6.7153,-5.3721 h 4.7006 l 0.6717,3.6933 5.7078,-3.6933 5.0365,1.6787 5.372,-3.3576 v -3.3576 h 6.7153 l 4.365,-7.051 6.7152,-2.0145 2.0145,2.0145 5.0364,1.6788 0.3357,6.3794 3.3577,2.3504 1.0073,-2.6861 h 3.6934 l 3.0217,-2.686 4.0293,4.7006 -2.0146,2.3504 4.3647,3.0218 v 8.394 l 4.7009,3.6934 3.0218,-2.3503 1.0073,3.0219 7.0509,0.3356 2.0147,-2.3503 h 3.6933 l 0.3359,3.3577 4.7006,-0.6716 v -3.0218 l 5.3722,-3.0219 4.7006,2.3504 5.3722,-5.708 13.7662,1.0073 2.3504,-4.7007 5.3722,-0.3357 4.0291,-3.3576 -2.6861,-3.6935 5.0365,-2.0145 3.0217,1.3431 8.0584,-8.3941 2.3501,1.3431 6.0438,1.343 0.6716,-3.0219 8.0583,1.0074 1.0073,-2.3504 3.0217,-1.6788 2.6861,1.343 4.365,-1.343 -2.3504,-9.4013 6.3794,-1.6788 0.6716,5.3721 3.0218,2.3504 1.6788,-3.6934 5.0366,-1.0073 1.6788,1.6789 3.0218,-1.8468 v 6.8831 h 6.0437 l 1.3429,8.0583 5.3723,0.6716 v -2.6861 l 4.0292,1.343 3.3575,4.7007 h 8.7299 l 0.6715,-3.3576 h 5.3722 l 6.7152,6.0437 5.3722,-5.3722 6.7152,3.3576 v 5.3721 h 12.7588 l 10.7444,5.3723 9.4015,-10.0729 0.6714,-3.3576 -3.3575,-3.3577 3.3575,-3.3575 6.7153,4.7006 h 6.0436 l -3.3575,-3.3576 0.6715,-3.3576 4.7007,2.6861 16.788,-2.6861 -6.7152,-5.3722 5.3722,-5.3721 -6.0438,-8.0583 h 6.7152 l 4.0292,4.7006 h 6.7152 l -0.6714,-8.7298 7.3867,-4.7006 v 6.0436 l 6.7151,-1.343 5.3723,-8.0582 8.0582,-1.3431 5.3723,-8.0582 3.3577,2.6861 8.058,-2.6861 2.6862,7.3866 5.3721,-2.0145 6.0438,6.7152 2.6861,-5.3721 7.3867,-1.3431 0.6716,-4.7007 -6.0437,-2.686 4.0292,-4.0292 4.7006,2.0145 4.7007,7.3868 10.0727,1.3431 4.7007,-7.3867 10.0727,6.0436 -0.6713,7.3868 5.3723,4.7007 2.686,-6.0437 8.7296,-7.3868 -2.686,-4.7006 6.0438,-2.6862 5.3722,4.7007 7.3866,-8.7298 h 2.6862 l -0.6716,8.0583 10.7444,10.7444 3.3576,-6.0438 8.7297,3.3577 -4.029,5.3721 -0.6716,4.0292 6.7153,2.686 0.6714,4.0292 -7.3867,11.4158 4.0293,2.0147 -1.3432,11.4159 -3.3574,2.0146 v 5.3721 l 4.7006,4.0291 -2.0148,4.7007 -5.3719,4.0292 -4.7009,7.3867 -6.7151,-0.6715 -10.0729,8.7298 v 4.7007 l -7.3866,6.0436 h -8.0584 v 4.7007 l -10.7444,13.4305 v 4.7006 l 4.0291,3.3576 -8.7297,5.3722 -2.6861,4.7007 6.0435,5.3721 v 10.0729 l 3.3577,1.343 -0.6716,5.3722 -4.7006,2.0146 4.7006,2.6861 v 3.3575 l -9.4011,12.759 v 10.7444 l 4.0292,3.3577 -1.3432,8.7297 7.3867,10.7444 4.7007,0.6715 v 5.3722 h 5.3722 l 4.7008,-1.343 2.0146,-7.3868 5.3721,-0.6716 0.6714,-8.0582 h 7.3867 l 4.7009,-3.3577 2.0145,-4.7005 9.4012,9.4012 11.4159,-5.3721 4.7007,-2.0146 h 8.0583 l 12.7589,11.4159 v 10.0728 l 8.0584,0.6716 3.3576,-2.0146 4.029,2.686 4.0292,-4.0291 7.3868,4.7007 3.3575,-2.0146 5.3721,6.7152 8.7299,-5.3722 8.73,4.0292 4.029,7.3867 6.0437,-6.0437 3.3574,3.3577 h 7.387 l 9.4013,4.0291 8.0583,-4.7007 7.3867,7.3868 2.0145,-3.3577 h 5.3722 l 6.7154,5.3723 2.0145,-7.3868 h 10.0728 l 0.6715,-8.0582 5.3723,6.0436 12.0874,-3.3576 6.0435,4.0292 4.7008,-4.7007 h 4.7007 l 8.0582,-3.3576 2.6861,4.7006 12.0874,-4.0291 -0.6716,-7.3868 4.0292,-1.343 8.7297,4.0291 v 6.0437 l 11.416,-0.6714 5.3722,2.0145 4.7006,-5.3722 4.7007,5.3722 10.7443,-8.7298 8.7299,-0.6715 -4.0292,-5.3722 4.7008,-5.3722 -4.0293,-6.7152 h 4.0293 l 4.029,-4.0292 -2.6861,-3.3576 -0.6716,-7.3867 5.3722,-6.7153 -1.3429,-6.0436 7.3867,-0.6716 -4.7007,-4.7007 2.0146,-4.0291 h 8.7299 l 4.029,-4.0291 4.7007,4.7007 6.0437,-0.6716 6.7152,5.3722 8.7298,10.0728 h 4.7006 v 12.7589 l 6.0438,10.7445 4.7006,1.343 1.343,6.0437 -3.3575,13.4304 -7.3866,6.0438 v 8.7298 l 2.686,6.7152 -5.3722,13.4304 -7.3869,6.0437 3.3576,10.0729 9.4015,6.7152 -0.6715,7.3868 10.0727,2.0146 4.0291,-4.0292 9.3715,0.03 z"
     style="display:inline;fill:#fefee9;fill-opacity:1;stroke:#646464;stroke-width:0.74666667;stroke-linecap:butt;stroke-linejoin:round;stroke-miterlimit:4;stroke-dasharray:none;stroke-opacity:1"
     id="Pana_Pana,_Código_DANE_:_94887" />
  <path
     d="m 2182.8395,212.0919 6.1542,11.3215 8.5472,6.6479 -5.2231,3.3238 5.698,1.4245 2.849,7.5975 -5.6981,4.2736 5.6981,4.2734 7.5974,-4.7483 v 4.2734 l -3.7987,2.8491 6.1728,5.6981 0.9497,5.2232 -4.7482,2.849 -1.8994,8.5472 -5.6981,-2.8492 -3.7987,5.6981 h 6.6477 l 5.2231,11.8711 -5.2231,1.8992 -2.849,4.2736 2.849,2.3743 -5.2233,2.3742 -3.3238,-2.8492 -8.0723,5.6981 2.8491,1.4246 1.4245,4.7483 -6.173,3.3239 -4.2734,-3.7987 -3.7987,3.3238 h -5.2232 l 2.374,6.1729 -9.0219,10.9213 -6.6477,1.4245 -3.3238,-3.7987 -3.3238,1.4245 2.374,6.1729 -4.2734,8.0722 -4.2737,-1.8993 -1.4244,4.7484 h -7.5974 l 1.8994,6.1729 -3.7988,1.4246 -7.1226,-5.2233 -1.4244,7.1226 h -4.2736 l -6.1728,4.7483 -1.8993,4.7484 h -8.0725 l -5.2231,3.7987 1.8993,5.6982 -5.2231,0.4747 -2.8492,6.6478 -5.698,-1.4245 -6.6477,8.5471 -8.5471,-3.7987 -1.4247,4.7483 -9.4966,2.3742 -0.4749,2.8491 4.7484,3.3238 -2.849,2.8491 -0.9495,4.2735 2.374,2.3742 -2.849,1.8994 -6.6478,-0.4749 -9.4966,7.1226 v 5.2232 l 4.7482,1.4246 -1.4244,2.3741 h -6.6477 l -5.6981,3.3239 v 7.1225 l -5.698,0.4749 -7.5975,9.4968 -5.2232,-0.9497 -7.5975,16.1444 v 13.7704 l -5.2231,3.3238 v 5.6982 l 10.9213,8.0722 v 6.6478 l -3.3239,5.698 2.849,9.4967 -1.8994,6.6478 9.4968,6.1729 v 1.4246 l -4.7486,1.8993 v 4.2735 l 5.2235,7.1226 4.7483,-0.4749 3.3238,5.6981 7.5975,4.2736 6.173,1.4245 12.8206,13.7702 4.7483,6.6478 v 6.1729 l 2.849,3.3239 -3.3238,2.3742 0.4748,7.5974 -4.7483,3.7987 2.374,6.8851 v -8e-4 l -7.5974,7.36 v 6.1729 l -5.6979,4.2735 -3.7987,-1.8993 -3.7988,2.8491 -6.1729,-3.324 2.3742,-6.1728 -3.7987,-1.4245 -3.3238,1.4245 -7.5975,-6.6478 -9.9717,0.4749 -1.4244,2.3741 -4.2734,-0.4748 -5.2233,-1.8993 -10.4466,4.7484 v 3.3238 l -11.8708,5.698 -6.6479,9.9717 -5.2232,2.3742 -2.8489,-1.8994 h -8.5472 l -3.7985,-3.7987 -8.5473,8.0722 -3.7988,-1.8993 -6.1728,2.3742 v 4.7484 l -5.2231,5.698 h -3.3241 l -3.7985,3.3239 2.3741,2.849 -5.6981,3.3239 v 3.3239 l -3.7985,2.849 -10.4466,-1.8993 -5.2232,-7.1226 -6.6477,-7.5974 h -4.7485 l -6.1727,-3.3239 -1.8995,-4.7485 h -6.6478 l -1.4245,3.324 -10.4464,-0.4749 -2.3743,-1.8993 h -6.6475 l -4.2737,3.3238 -5.6981,-1.8993 h -15.1946 l -5.2233,-1.4245 -5.698,6.6477 5.698,5.6981 v 4.2735 l -2.3743,6.6478 5.2233,6.6477 0.9497,14.2451 2.849,2.3742 -1.4244,9.022 -6.1731,3.3238 -3.7987,5.6981 -5.2232,6.1729 -123.9328,-33.7136 -1.9816,4.9424 -7.3866,3.3576 -3.6935,5.3721 v 7.7226 l -4.7006,-1.6788 -8.3942,6.3795 v 4.3649 l -6.7151,-1.343 -3.0218,2.3503 3.6934,4.0291 -2.3504,1.6788 -3.3577,-3.3576 -4.3648,3.0218 -2.3504,-2.0146 0.3357,-4.0291 -3.3574,-1.0073 v 5.708 l -5.7081,5.3721 -8.0581,-0.6714 -2.3504,5.0363 -4.7006,0.3358 -5.3723,3.6934 2.3502,1.343 -0.6714,4.3649 -5.708,-0.6715 -2.0145,4.0292 -4.7006,0.3358 1.3429,4.7005 2.3504,2.3504 0.3357,2.3503 -4.3647,0.6716 -2.3505,3.6933 -9.4012,0.3358 -3.6933,3.0219 2.6861,2.3503 -6.7154,7.7224 -6.7151,-2.0145 -10.7444,6.3796 v 4.7005 l -8.0583,3.0219 -10.4087,-1.0072 -6.7152,1.6788 2.0146,4.3648 -1.0074,6.0437 -4.7006,1.3431 -11.7516,10.4086 -2.6861,-2.6861 -5.7079,2.0145 -4.0292,-0.3357 -3.0219,4.7006 h -5.7078 l -3.022,-2.6861 h -5.0363 l -2.3504,3.6935 h -5.3722 l -2.0145,2.0145 1.3429,3.0219 -6.3793,5.7079 v 3.6933 l -8.7298,5.708 -3.3577,0.6716 1.0073,3.3576 -3.6934,3.3576 -7.051,0.6715 -3.3575,1.6789 -4.0292,-2.3504 -2.3503,0.6715 -4.0292,4.7007 -5.3722,0.3357 -3.6934,4.0291 -5.0363,0.3358 -7.051,4.3649 2.6861,3.0219 v 3.0219 l -5.0365,3.0218 2.3504,3.6934 -6.3795,4.3649 h -7.051 l -6.3795,7.0509 -4.7006,-0.3357 -2.0145,4.0291 -5.708,-2.0145 -7.7225,4.0291 v 5.7079 l -5.0365,-1.6788 -1.6788,2.3504 v 3.6933 l -6.3795,3.6934 -3.3575,-3.0219 -4.3649,4.3649 -3.3577,0.3358 -5.7079,6.0437 h -6.0437 l -3.3578,1.6789 0.6716,3.3575 -4.029,1.0074 -5.3722,-2.3504 -6.0438,1.343 0.3357,3.3577 -9.0653,9.4012 -12.7591,14.4378 -23.5032,7.051 -4.7008,4.0291 -6.0435,-3.3575 -12.4233,5.3721 -3.3576,11.7517 0.3359,4.3649 -5.3723,5.0364 -7.7226,-6.7152 -35.9266,1.0072 -2.686,-3.0218 -3.6934,0.6715 -6.0435,8.7299 -4.0293,14.1019 5.3722,5.3722 v 3.0219 l -8.0583,4.3649 -3.6933,6.3794 2.686,6.7152 2.0148,1.0073 0.3356,2.6861 -3.6933,2.6861 -3.3577,3.3577 1.0073,2.686 -5.7079,10.4086 -5.3722,3.6934 -2.6861,9.7371 2.3504,5.0363 -0.3359,6.7152 -6.3794,4.365 -0.6716,5.0364 6.3797,4.0292 0.3356,4.0291 -7.7225,9.4014 -3.6935,-1.0074 -4.029,3.6934 1.0073,4.0292 2.6861,0.6714 v 6.0438 l 3.3576,2.686 -3.022,2.3503 1.6789,6.0438 -6.3703,3.4105 -124.8737,-294.3469 -11.3959,-4.2736 v -7.5974 l -7.1226,0.9498 -6.6479,-5.2233 2.3743,-2.8491 -3.3871,-3.0344 11.9341,-8.8365 8.0723,-2.3742 -3.3238,-3.3238 0.4746,-5.2233 h 5.6982 l 1.8993,-6.1729 -1.8993,-4.2735 h -6.1728 l -6.6479,-9.9716 0.4749,-7.5974 7.5975,-4.2735 0.4749,-4.7484 -3.7987,-4.7484 3.7987,-9.0219 -7.1228,-8.0723 7.1228,-4.2736 -4.7486,-2.849 1.8994,-4.7484 h 7.1226 l 3.7987,5.2233 5.6981,-4.7484 -4.7483,-6.1729 2.8489,-3.7987 5.2232,1.8994 0.475,6.6476 6.6475,2.3742 6.173,-6.6476 -2.8491,-0.9498 -0.4747,-4.2735 4.2734,-3.7987 -1.8993,-4.2735 8.5472,-9.4969 h 6.6477 l 19.9432,-7.1225 h 6.1729 v -8.5471 l 15.1948,-10.4464 2.3742,-10.9213 6.173,-5.2233 0.9495,-6.1729 18.9937,3.7988 24.6915,-17.569 0.4749,-5.6981 13.2953,-2.849 6.6479,-18.5187 11.8708,-11.8709 h 9.9718 l 5.2232,-3.7988 21.3677,16.6193 18.0438,5.2233 3.7987,-4.7484 7.5975,-3.7987 -1.8994,-6.6478 5.6981,-0.4748 7.1226,3.3239 13.2955,-0.4749 11.396,-14.72 5.2233,-0.9497 v -6.1729 l 8.5471,-9.4967 7.5975,-0.4749 v -5.698 l 9.9714,-5.698 h 2.3743 l 3.7987,-7.1226 h 9.9715 l 3.3239,-4.2736 5.2233,2.3742 0.9497,5.2232 4.2736,1.4246 4.7482,-5.2233 5.6982,-1.4245 0.4749,-5.698 h 3.7987 l 7.5972,-11.871 -0.4747,-3.7987 3.7988,-4.2736 h 2.8489 l 3.7987,-5.698 2.849,2.849 6.1729,-6.6477 -3.3238,-1.4246 v -3.3238 l 5.6981,2.3742 3.7985,-4.2736 2.3743,3.3239 4.2736,0.9497 7.5974,-5.2233 v -5.2231 l 4.7483,2.8489 1.4245,-3.7987 6.1729,0.9498 6.1728,5.698 7.5975,-4.2736 v -3.3238 l 8.0723,-2.3742 0.9497,1.8993 10.4466,-1.8993 2.8488,-5.6981 7.5975,2.3742 1.8994,-5.2232 5.6981,-1.8993 v 2.8489 l 10.9213,-4.2735 h 5.2231 l 0.4749,-2.3741 -3.7987,-2.3742 4.7483,-6.6478 6.6476,-0.9497 2.8492,4.2736 3.3239,-6.1729 -4.2736,-2.3742 h 5.698 l 3.7988,3.3239 2.8489,-2.8491 2.8491,2.3742 5.6982,-4.2735 v -6.1729 l 5.2231,4.2735 3.7987,-1.8993 v -5.2233 h 4.7484 l 0.9498,-3.3238 -3.3239,-2.3742 4.7483,-3.7987 7.1226,-0.9497 4.7482,-4.2736 h 4.2737 l 4.2736,-2.3742 5.6981,3.7988 4.2735,-2.8491 4.7484,2.3742 0.9496,-2.3742 7.1225,-1.8993 v -7.1226 l 5.6982,-3.3238 0.4749,-3.324 -1.4245,-2.8489 3.3238,-1.4246 v -2.849 l -3.3238,-1.4246 1.8991,-4.7483 4.2736,-1.8993 v -4.2736 l 5.2233,-5.2232 -1.4246,-2.3742 -3.3238,-0.4748 v -3.7988 l -2.3742,-5.2232 -13.2953,-6.6477 v -1.8994 l -8.5472,-0.9497 -3.3239,-1.4245 -6.1728,1.4245 v -2.3742 l -12.8209,0.4749 -3.3238,3.3239 h -5.6978 l -2.8492,-3.7988 -2.849,4.2736 2.849,1.4245 -2.3743,3.3239 -2.8489,-2.3742 -2.8489,2.849 -5.2235,-3.3238 -1.4244,3.3238 h -4.7483 l -1.8994,2.8491 -5.698,-2.8491 -1.4246,-3.7987 -3.7987,-2.3742 -4.2736,3.3239 -8.0721,-0.4748 -3.324,-2.3742 -7.1226,0.9496 -0.9495,2.8491 h -3.3239 l -2.3743,-2.3742 -4.7482,-0.4749 -7.5975,-5.698 -4.7486,0.4748 -6.1728,-4.7484 -0.9497,-5.2232 -7.1226,-5.6981 -5.2231,2.8491 -4.7484,-2.3742 -0.4749,-5.698 6.173,-2.8491 v -4.2736 l -9.0218,-7.1226 h -6.1731 l -2.3743,-4.2735 -3.3238,0.4748 -5.698,-5.2231 -0.4747,-3.7987 -3.7988,0.4748 -0.9498,2.849 -6.173,-0.4748 -0.9495,-3.7986 -10.4464,-1.8994 -3.3239,-1.4246 0.4748,-2.849 -2.3741,-1.4244 -5.2232,0.9495 0.4747,-7.5974 -2.8489,-1.4246 2.8489,-2.8489 -6.6476,-4.7485 1.4244,-3.3238 -0.7754,-3.1456 5.5074,-5.4863 -6.8969,-9.3602 -1.8394,-6.5522 -9.1962,-12.1683 -0.4596,-9.36 4.5983,-5.6161 6.8969,-0.468 10.1156,10.7642 9.1958,6.552 13.3347,-4.6801 9.1957,-11.2322 0.4602,-16.3804 3.2183,-7.956 9.1962,-2.34 5.9775,2.808 7.3566,4.68 4.5981,-0.4679 4.1382,3.2759 11.9548,0.4682 7.0698,-6.3925 12.7281,0.1595 8.0636,10.9435 7.3914,-7.5236 -5.3757,-8.2075 -13.4394,-3.4198 -6.7195,-6.1558 1.3439,-8.2075 6.7196,-0.6838 12.0954,6.1554 7.3917,16.4152 h 7.3917 l 11.4235,-4.7877 h 6.0474 l 4.704,4.7877 5.3756,-1.3679 1.344,-7.5237 6.0478,-0.6838 9.4075,9.5754 v 8.2075 l 8.7359,-1.368 v -4.7877 l -4.0322,-7.5235 -12.0952,-10.2594 -2.688,-6.1557 1.3438,-5.4717 8.7357,-0.6839 10.7516,6.8396 12.7673,18.4669 6.7194,0.6841 7.3918,-6.1558 -3.3596,-7.5235 -6.0479,-8.2076 2.6877,-9.5753 12.7676,-12.9952 10.7515,-4.7877 8.7354,4.1036 2.688,5.4718 8.7355,-0.6841 0.6721,-7.5235 -4.0316,-8.2075 -2.0163,-5.4717 3.3599,-7.5235 6.0479,0.684 8.7355,7.5235 8.0636,15.0471 8.0635,-0.6841 4.0321,-8.2072 v -7.5238 l -10.7515,-6.8395 -6.048,-4.7877 -10.7515,-4.7877 -2.6879,-6.1557 2.0159,-8.8916 8.7355,-3.4196 8.736,1.3678 8.7353,4.7877 8.0636,2.7358 10.7513,-5.4717 h 4.0319 l 8.0636,-2.0518 1.3443,-8.2076 -8.7357,-6.1554 v -4.7879 l 5.3756,-6.1554 v -6.1558 l -1.3438,-7.5235 5.3758,-8.2076 h 5.3755 l 13.4393,13.6793 h 12.0956 l 5.3758,-5.4717 10.0793,6.1556 8.0636,-2.7358 h 11.4235 l 11.4235,9.5754 h 9.4076 l 4.7037,-6.8396 -4.7037,-8.8915 -13.4395,-4.1039 -7.3916,-1.3678 4.7035,-8.2075 h 7.392 l 6.0476,6.8397 5.3756,0.6838 11.4236,7.5236 12.7674,-1.3679 11.4235,-9.5754 h 9.4075 l 8.0635,5.4715 -2.0159,10.9435 -6.0476,7.5234 -3.3599,7.5237 10.7516,8.8914 6.7195,-2.0518 6.7199,-8.8915 -0.6722,-8.8913 2.6882,-8.2076 h 8.7355 l 8.0635,4.7876 -2.688,10.9435 -6.7196,8.8915 8.0635,5.4715 6.0479,-8.2074 8.0637,-19.1509 v -15.731 l 6.7194,-6.8398 7.3914,1.368 1.3444,6.1557 -3.3599,10.2595 5.3757,6.8394 16.1273,-4.7876 h 4.0316 l 6.7197,5.4717 10.0796,5.4717 14.1111,-0.6841 6.72,0.6841 10.7512,19.8346 0.6721,12.3115 v 4.7876 l 21.503,-4.1038 12.7673,-12.3112 10.7516,-6.8395 19.4869,-30.0943 45.0219,-24.6226 26.1953,-9.6275 5.332,10.2131 v 8.5472 l -2.849,7.5976 3.3238,9.0218 v 4.7483 l -1.8993,3.3238 4.7485,6.173 -1.8993,11.3962 2.374,8.0721 5.2234,3.7987 v 7.5976 l 10.9213,9.9714 2.374,9.022 4.2737,7.1225 v 3.7987 l 4.7483,2.8492 2.3743,20.418 -2.3743,6.1728 0.9497,3.3239 5.6982,9.9717 0.4746,9.4968 2.3743,3.3238 h 5.698 l 5.6982,7.5974 0.9495,7.1226 9.022,5.2233 z"
     style="display:inline;fill:#c12838;fill-opacity:1;stroke:#646464;stroke-width:0.74666667;stroke-linecap:butt;stroke-linejoin:round;stroke-miterlimit:4;stroke-dasharray:none;stroke-opacity:1"
     id="Inirida,_Código_DANE_:_94001" />
  <path
     d="m 706.0533,744.6908 2.049,152.1494 4.6191,3.2171 8.0721,-8.0722 h 10.4466 l 9.9715,-4.2736 3.3239,-3.3238 4.7485,2.8489 3.3238,-3.3238 h 9.9715 l 0.9498,2.849 h 9.4968 l 10.4464,-6.1729 12.8206,0.4748 6.6477,-3.7986 -6.1729,-4.7484 1.8993,-6.1729 -7.5972,-7.5974 1.8994,-6.1729 -3.3241,-5.6981 7.5975,-6.1729 6.1729,-21.3678 -0.9498,-13.2954 12.346,-6.6477 4.7483,-2.8491 6.6477,-0.9496 4.2736,4.2735 3.7987,-4.7484 3.7987,-1.4245 5.2233,4.2736 v -7.5975 l 12.3457,0.4749 1.8993,-3.7987 19.4684,1.8993 3.324,4.7484 5.2232,-3.3239 9.0219,0.4749 3.3239,6.1728 8.0721,-2.849 0.9497,-2.3741 10.9213,-6.1729 4.2736,3.7987 7.1226,-0.4749 11.8709,-14.72 7.1226,2.8491 1.8993,-2.3742 4.2736,-0.9497 5.2232,5.698 3.7988,-0.4748 -0.9498,-3.7988 7.5974,-5.2231 5.2232,2.3742 16.6194,5.698 h 6.173 l 6.885,9.022 12.1084,-9.022 8.0723,-2.3742 -3.3238,-3.3238 0.4746,-5.2233 h 5.6982 l 1.8993,-6.1729 -1.8993,-4.2735 h -6.1728 l -6.6479,-9.9716 0.4749,-7.5974 7.5975,-4.2735 0.4749,-4.7484 -3.7987,-4.7484 3.7987,-9.0219 -7.1228,-8.0723 7.1228,-4.2736 -4.7486,-2.849 1.8994,-4.7484 h 7.1226 l 3.7987,5.2233 5.6981,-4.7484 -4.7483,-6.1729 2.8489,-3.7987 5.2232,1.8994 0.475,6.6476 6.6475,2.3742 6.173,-6.6476 -2.8491,-0.9498 -0.4747,-4.2735 4.2734,-3.7987 -1.8993,-4.2735 8.5472,-9.4969 h 6.6477 l 19.9432,-7.1225 h 6.1729 v -8.5471 l 15.1948,-10.4464 2.3742,-10.9213 6.173,-5.2233 0.9495,-6.1729 18.9937,3.7988 24.6915,-17.569 0.4749,-5.6981 13.2953,-2.849 6.6479,-18.5187 11.8708,-11.8709 h 9.9718 l 5.2232,-3.7988 21.3677,16.6193 18.0438,5.2233 3.7987,-4.7484 7.5975,-3.7987 -1.8994,-6.6478 5.6981,-0.4748 7.1226,3.3239 13.2955,-0.4749 11.396,-14.72 5.2233,-0.9497 v -6.1729 l 8.5471,-9.4967 7.5975,-0.4749 v -5.698 l 9.9714,-5.698 h 2.3743 l 3.7987,-7.1226 h 9.9715 l 3.3239,-4.2736 5.2233,2.3742 0.9497,5.2232 4.2736,1.4246 4.7482,-5.2233 5.6982,-1.4245 0.4749,-5.698 h 3.7987 l 7.5972,-11.871 -0.4747,-3.7987 3.7988,-4.2736 h 2.8489 l 3.7987,-5.698 2.849,2.849 6.1729,-6.6477 -3.3238,-1.4246 v -3.3238 l 5.6981,2.3742 3.7985,-4.2736 2.3743,3.3239 4.2736,0.9497 7.5974,-5.2233 v -5.2231 l 4.7483,2.8489 1.4245,-3.7987 6.1729,0.9498 6.1728,5.698 7.5975,-4.2736 v -3.3238 l 8.0723,-2.3742 0.9497,1.8993 10.4466,-1.8993 2.8488,-5.6981 7.5975,2.3742 1.8994,-5.2232 5.6981,-1.8993 v 2.8489 l 10.9213,-4.2735 h 5.2231 l 0.4749,-2.3741 -3.7987,-2.3742 4.7483,-6.6478 6.6476,-0.9497 2.8492,4.2736 3.3239,-6.1729 -4.2736,-2.3742 h 5.698 l 3.7988,3.3239 2.8489,-2.8491 2.8491,2.3742 5.6982,-4.2735 v -6.1729 l 5.2231,4.2735 3.7987,-1.8993 v -5.2233 h 4.7484 l 0.9498,-3.3238 -3.3239,-2.3742 4.7483,-3.7987 7.1226,-0.9497 4.7482,-4.2736 h 4.2737 l 4.2736,-2.3742 5.6981,3.7988 4.2735,-2.8491 4.7484,2.3742 0.9496,-2.3742 7.1225,-1.8993 v -7.1226 l 5.6982,-3.3238 0.4749,-3.324 -1.4245,-2.8489 3.3238,-1.4246 v -2.849 l -3.3238,-1.4246 1.8991,-4.7483 4.2736,-1.8993 v -4.2736 l 5.2233,-5.2232 -1.4246,-2.3742 -3.3238,-0.4748 v -3.7988 l -2.3742,-5.2232 -13.2953,-6.6477 v -1.8994 l -8.5472,-0.9497 -3.3239,-1.4245 -6.1728,1.4245 v -2.3742 l -12.8209,0.4749 -3.3238,3.3239 h -5.6978 l -2.8492,-3.7988 -2.849,4.2736 2.849,1.4245 -2.3743,3.3239 -2.8489,-2.3742 -2.8489,2.849 -5.2235,-3.3238 -1.4244,3.3238 h -4.7483 l -1.8994,2.8491 -5.698,-2.8491 -1.4246,-3.7987 -3.7987,-2.3742 -4.2736,3.3239 -8.0721,-0.4748 -3.324,-2.3742 -7.1226,0.9496 -0.9495,2.8491 h -3.3239 l -2.3743,-2.3742 -4.7482,-0.4749 -7.5975,-5.698 -4.7486,0.4748 -6.1728,-4.7484 -0.9497,-5.2232 -7.1226,-5.6981 -5.2231,2.8491 -4.7484,-2.3742 -0.4749,-5.698 6.173,-2.8491 v -4.2736 l -9.0218,-7.1226 h -6.1731 l -2.3743,-4.2735 -3.3238,0.4748 -5.698,-5.2231 -0.4747,-3.7987 -3.7988,0.4748 -0.9498,2.849 -6.173,-0.4748 -0.9495,-3.7986 -10.4464,-1.8994 -3.3239,-1.4246 0.4748,-2.849 -2.3741,-1.4244 -5.2232,0.9495 0.4747,-7.5974 -2.8489,-1.4246 2.8489,-2.8489 -6.6476,-4.7485 1.4244,-3.3238 -0.8507,-3.0529 -6.8319,-4.175 -1.3792,-11.7002 -5.0582,-6.5523 -8.7362,-1.8719 -13.3341,7.0202 -10.1157,8.4241 h -6.4375 l -9.1958,-6.552 -0.4599,-10.2963 4.5981,-9.3602 -0.9198,-9.3601 -10.1156,-4.6801 -5.5174,2.3399 -1.8395,6.5522 7.3569,11.7003 0.4597,12.1681 -3.2185,8.8922 -6.897,1.8721 -5.0578,-1.8721 -8.2763,-7.956 h -10.116 l -13.3341,5.616 -10.5756,14.9762 -5.5175,2.3402 -3.6784,8.8921 -9.1962,5.1481 -5.9775,-4.2121 -2.7587,-6.5522 -5.9773,0.4681 -3.2188,5.1481 -6.4372,3.744 -5.9775,-1.8721 -4.5978,-7.956 -0.4601,-11.2321 -6.4368,-2.8081 -4.1388,3.2759 -11.0349,16.8484 -15.6335,9.8282 -11.035,-2.3402 -1.3794,-5.148 8.2763,-4.6801 5.5177,-6.0842 0.4596,-8.4241 -6.897,-2.8081 -4.598,4.6802 h -8.2764 l -4.5982,-4.212 6.8971,-12.6362 -4.5978,-5.1483 -9.1962,1.8722 -2.2989,12.6361 -6.4374,6.0842 -6.8969,-4.6801 -3.2188,-21.5285 -12.4145,-8.8921 -11.4951,-0.4679 -4.1385,3.7439 2.2992,8.4242 10.5756,12.1684 -3.6786,20.5922 -10.1154,9.3602 -8.2766,-1.872 -1.8391,-11.7003 6.8972,-9.3601 2.7586,-13.5724 -5.5176,-8.8921 -6.8972,-0.936 -5.9773,5.148 -1.8394,8.4244 -15.6331,5.148 -8.7363,8.4241 -8.7363,5.1482 -5.0578,-4.2121 -1.8392,-8.8921 -4.1383,-0.4681 -3.2183,3.2761 -0.9198,6.0841 -7.8167,6.0841 -8.2764,-0.468 -7.8168,-15.4444 -6.4374,-13.1043 -11.9547,-1.8719 -9.6558,6.552 -5.0578,15.9124 -1.3795,12.6362 -5.5176,3.7441 -5.5173,-3.7441 4.5977,-9.8282 -3.6783,-3.7439 -7.817,-0.4682 -10.1154,2.8081 -15.6331,-1.8719 -10.1159,-3.7442 -7.8167,-0.468 -5.5176,5.1481 0.9197,3.2762 11.4949,-2.3402 3.2186,5.6161 -8.7363,7.4881 -1.8389,8.8923 5.9772,9.8282 -2.9528,10.4021 -8.2764,7.4882 1.3795,7.4881 -4.598,3.744 -4.1384,-6.084 -5.5179,-9.8282 h -7.3564 l -1.8393,3.2761 1.3794,7.4881 -10.1156,5.6161 -5.9777,-1.872 -3.2183,-8.4242 -7.8167,-1.872 -7.8166,6.084 -1.8394,10.2962 -9.1962,14.9763 -4.1382,-0.468 -0.4594,-5.1481 -0.92,-13.5722 -11.4949,-10.7642 -9.1959,-3.7441 -5.9777,2.8081 v 7.0201 c 0,0 4.5981,4.6801 6.4373,5.1481 1.8392,0.4681 5.9773,0 5.9773,0 l 5.5176,6.5521 -0.9193,8.4241 -8.2766,3.2761 -7.8168,-4.2121 -9.1959,-10.7641 -12.8745,-2.3401 -7.3569,4.6801 -1.3793,12.1682 0.9197,14.5083 -9.656,8.8922 -5.9772,-3.7441 -2.2995,-7.0201 3.6786,-9.8283 v -6.084 l -9.1961,-7.0202 -10.5752,1.4041 -4.1383,8.8921 4.1383,12.1683 10.1154,17.3162 8.2768,9.8283 -1.8395,5.148 -5.5175,-1.4039 -14.7139,-5.1482 -6.4369,-5.6161 -1.3794,-11.2322 -5.9777,-14.5083 -7.8166,-5.6161 -6.897,2.3401 -4.1384,7.0202 1.8396,8.4241 11.4948,10.2962 3.6783,7.0201 5.0582,2.808 -0.9198,11.2322 -5.9774,6.5522 v 11.2323 l -2.2992,7.4881 h -9.6558 l -7.3566,2.34 -2.7588,-8.4242 -5.5179,-8.8921 -11.495,-5.1481 -14.2539,0.468 -4.5982,5.6161 1.8394,9.8281 12.8744,10.7643 v 11.2322 l -5.5175,6.5521 h -13.3345 l -9.1959,6.0842 -7.8167,6.084 h -8.2766 l -5.5174,-10.7641 2.7588,-10.2963 -1.3794,-6.084 -10.1156,-3.7441 -6.4375,3.7441 -7.3566,11.2321 -13.7726,5.6243 z"
     style="display:inline;fill:#fefee9;fill-opacity:1;stroke:#646464;stroke-width:0.74666667;stroke-linecap:butt;stroke-linejoin:round;stroke-miterlimit:4;stroke-dasharray:none;stroke-opacity:1"
     id="Barranco_Mina,_Código_DANE_:_94343" />
  <path
     d="m 221.7147,1122.3954 5.26,10.1444 -0.7515,7.8901 5.6358,4.1329 h 4.133 l 3.0056,1.5029 3.3814,6.3872 6.3873,1.8786 4.133,-0.3757 1.8785,0.3757 1.8785,2.2543 2.2543,-0.3757 3.3815,-3.7572 1.8787,3.0058 4.8844,0.7514 3.0057,-1.8786 1.5027,3.0057 4.8845,1.1271 4.8843,4.5087 -1.7439,-0.6931 5.8448,2.3911 2.9222,5.3133 4.5166,0.5315 0.797,1.8597 -3.188,6.9074 2.6567,1.594 5.3133,-5.8448 -2.391,-5.3134 4.5165,-0.5314 0.7971,-4.782 3.1879,-4.7821 4.2508,3.4536 -2.6568,7.1733 6.6421,3.985 h 4.782 l 3.1881,2.1255 -2.1253,5.8448 -5.3135,-0.5313 -6.1105,-6.1106 -3.9851,5.8448 2.391,5.8448 13.8151,4.7821 9.564,-5.8448 4.2508,-0.797 v 5.3135 l 2.3913,0.797 3.7192,-3.985 3.4538,-0.2658 0.2658,-2.9224 -7.7046,-2.6566 3.7195,-3.7195 13.2836,-1.8597 9.0328,-8.5016 5.8448,1.8597 -1.0627,6.6419 2.3912,2.391 6.9075,-4.2508 1.0625,-6.1104 4.7823,2.1254 1.5941,7.7045 4.5164,5.8448 6.6419,0.5313 5.0477,6.3762 h 5.8448 l 2.391,-6.1105 4.7823,-3.9851 2.9222,1.0628 -0.7969,4.2507 2.3909,5.5791 5.5793,0.2657 3.4538,1.8597 1.8595,-0.2656 -1.0625,-7.9703 1.8595,-1.8597 2.1256,2.1254 0.797,6.9075 2.9225,0.2656 3.188,2.9225 -2.9226,1.0627 h -3.9849 l -2.6569,4.2508 6.3764,5.3134 4.2507,-2.9224 1.8595,-3.9851 8.2361,-6.1104 -0.797,-3.9852 -3.4538,-5.3134 -7.439,-5.3135 1.5942,-2.9225 h 5.8448 c 0,0 5.579,4.2508 6.6418,5.3135 1.0628,1.0628 8.5016,2.6568 8.5016,2.6568 l 1.8597,-3.7195 4.2508,-0.5313 0.5312,-6.6418 4.2508,-3.4538 9.5643,-1.594 3.188,2.1253 -0.5312,4.7822 -8.7673,-0.2657 -3.188,4.2508 2.1252,2.391 7.1733,0.5315 2.9223,2.9223 4.7823,-3.9851 3.7192,4.7821 3.1881,3.7195 6.642,-4.5165 2.1252,3.1881 2.9226,3.7194 7.7045,-4.2508 -0.5315,-4.782 -5.0478,-4.5165 1.594,-1.8597 5.3135,0.5314 1.5941,6.6418 4.5164,2.391 3.7194,-3.4537 5.5792,3.985 -0.2657,-5.3135 1.0627,-1.3283 0.2658,-10.8926 3.7193,2.1254 v 8.2359 l 4.7823,1.3283 0.797,-4.5165 5.3133,-3.7193 -2.1254,-2.6568 -8.5015,-2.391 0.5313,-6.3762 6.3762,-1.0626 0.797,2.391 7.7046,6.1105 7.4388,1.3283 5.8448,-2.6567 3.9851,4.5165 7.439,-2.3911 5.3133,1.5941 v -2.9225 l 5.3135,-2.391 3.7194,-5.8448 -1.5939,-6.1105 5.3133,-4.7821 5.3135,0.797 4.5165,-0.797 1.8598,6.1105 -5.048,4.7821 3.1882,4.2507 3.985,0.7971 -0.2657,3.188 0.2657,1.8597 5.3135,-5.0477 3.7194,2.391 -1.594,4.5165 0.2657,3.188 2.9223,0.5313 2.1255,3.9852 -4.5165,6.3761 2.6567,5.3135 11.6896,1.8597 1.8598,2.6567 4.5829,-0.1328 -1.1292,5.4463 -2.6567,0.2657 1.0627,2.6567 5.5791,1.3283 -5.8448,6.6419 -2.6568,-3.7194 -1.8596,0.797 -0.2657,2.1253 -2.391,1.5941 1.3283,2.9224 -4.2508,3.4538 v 3.188 l 3.9853,1.3284 -0.2658,2.3911 -3.7195,1.3283 -1.3283,2.1254 -3.188,-0.7971 1.594,-2.6566 -2.9225,-1.5941 -0.797,-3.9851 c 0,0 -1.0627,0.5314 -3.9851,1.8597 -2.9224,1.3284 -0.797,2.6568 -0.797,2.6568 h -3.4537 l -0.5315,1.0627 3.1882,1.3283 v 2.3911 l 4.2508,0.797 -1.3285,8.5015 -4.782,0.797 -3.4538,-2.391 -2.391,1.3284 -2.9225,-2.1254 -5.0478,0.797 0.2657,2.9225 1.8598,1.594 -2.3912,3.985 0.2657,2.6568 -7.4388,2.1253 -1.3284,3.1882 -3.7194,-2.9225 -4.2508,4.2508 2.6568,3.4538 -1.5939,2.1253 -5.0478,-2.1253 -1.5943,1.0627 -4.5163,-3.9852 -1.8598,1.5941 0.2658,3.7194 4.9919,1.6829 1.7127,4.5974 -5.2601,3.3815 -5.6357,-4.6965 -1.8785,4.3208 -4.321,1.8786 4.5088,3.5693 -2.6301,4.1329 9.0171,1.8786 -6.9506,6.9507 2.0663,3.0058 -6.9437,5.5166 1.0106,14.6535 -6.8305,5.2542 6.8305,6.305 -8.4067,9.4576 -1.5762,14.7116 -9.4577,11.5593 2.6272,4.7287 -4.6602,7.8515 12.9622,0.4724 11.4156,-11.0801 6.3796,-3.0219 v -6.7152 l 4.7005,-5.3722 2.3504,-4.3649 19.8101,-0.3357 2.0145,3.0218 8.7298,1.6788 4.0291,-3.6934 h 2.0147 l 3.3575,5.0365 17.1238,-3.0219 14.4378,-7.3868 22.8318,-1.0072 2.0145,-2.6861 6.0437,0.6715 11.0801,13.4305 6.3794,-3.0219 3.3578,3.0219 5.0365,-1.3431 4.3647,1.3431 13.4305,2.0145 6.0437,-1.6787 1.343,2.3503 11.0802,-0.3358 8.3941,3.6934 v 3.3576 l 2.3502,0.6715 6.0437,-0.3357 3.3578,1.0072 0.3356,2.0146 4.7006,0.3358 6.7153,-3.6934 1.6789,3.3576 6.7152,0.3358 2.686,-2.6861 6.3796,-0.3358 0.3358,2.6861 h 7.0508 l 2.6861,-4.3649 6.0438,-4.3649 3.3577,2.6861 h 7.7223 l 7.0511,-5.708 10.0728,1.0073 10.4085,-10.0728 v -4.0291 l 6.3795,-8.0583 -2.0146,-5.708 0.3359,-11.4159 6.7152,-6.7152 1.3432,-5.0364 h 5.0362 l 18.1312,-10.0728 1.0073,-4.3649 8.7298,-5.0365 v -8.394 l 5.0364,-8.394 4.3649,-0.6716 8.0582,-5.0364 v -7.3867 h 4.7007 l 10.0728,-11.4159 0.3358,-6.7152 7.3868,-12.759 4.3649,-3.0218 v -7.051 l 6.0437,-1.3431 v -3.6933 l 6.7153,-4.0292 1.0072,-8.7297 -5.0365,-4.3649 2.3504,-5.708 6.0438,-0.3358 3.6934,-4.7007 -2.0148,-6.3794 5.0366,-2.6861 -4.0292,-3.6934 v -2.6861 l 5.0364,-2.6861 2.3504,-7.0509 -6.0437,-5.0364 -2.0146,-3.3577 2.6862,-1.343 1.3429,-6.7152 6.7153,-5.3722 h 4.7006 l 0.6717,3.6934 5.7078,-3.6934 5.0365,1.6787 5.372,-3.3575 v -3.3577 h 6.7153 l 4.365,-7.0509 6.7152,-2.0147 2.0145,2.0147 5.0364,1.6788 0.3357,6.3794 3.3577,2.3504 1.0073,-2.6862 h 3.6934 l 3.0217,-2.6861 4.0293,4.7007 -2.0146,2.3504 4.3647,3.0218 v 8.394 l 4.7009,3.6935 3.0218,-2.3504 1.0073,3.0218 7.0509,0.3358 2.0147,-2.3503 h 3.6933 l 0.3359,3.3576 4.7006,-0.6715 v -3.0219 l 5.3722,-3.0218 4.7006,2.3503 5.3722,-5.708 13.7662,1.0074 2.3504,-4.7007 5.3722,-0.3358 4.0291,-3.3576 -2.6861,-3.6934 5.0365,-2.0145 3.0217,1.343 8.0584,-8.394 2.3501,1.343 6.0438,1.3431 0.6716,-3.0219 8.0583,1.0073 1.0073,-2.3503 3.0217,-1.6788 2.6861,1.343 4.365,-1.343 -2.3504,-9.4013 6.3794,-1.6789 0.6716,5.3722 3.0218,2.3503 1.6788,-3.6933 5.0366,-1.0073 1.6788,1.6788 3.0309,-1.7937 -124.8737,-294.179 -11.3959,-4.2736 v -7.5974 l -7.1226,0.9498 -6.6479,-5.2233 2.3743,-2.8491 -3.3238,-2.8489 -7.1226,-9.022 h -6.173 l -16.6194,-5.698 -5.2232,-2.3742 -7.5974,5.2231 0.9498,3.7988 -3.7988,0.4748 -5.2232,-5.698 -4.2736,0.9497 -1.8993,2.3742 -7.1226,-2.8491 -11.8709,14.72 -7.1226,0.4749 -4.2736,-3.7987 -10.9213,6.1729 -0.9497,2.3741 -8.0721,2.849 -3.3239,-6.1728 -9.0219,-0.4749 -5.2232,3.3239 -3.324,-4.7484 -19.4684,-1.8993 -1.8993,3.7987 -12.3457,-0.4749 v 7.5975 l -5.2233,-4.2736 -3.7987,1.4245 -3.7987,4.7484 -4.2736,-4.2735 -6.6477,0.9496 -4.7483,2.8491 -12.346,6.6477 0.9498,13.2954 -6.1729,21.3678 -7.5975,6.1729 3.3241,5.6981 -1.8994,6.1729 7.5972,7.5974 -1.8993,6.1729 6.1729,4.7484 -6.6477,3.7986 -12.8206,-0.4748 -10.4464,6.1729 h -9.4968 l -0.9498,-2.849 h -9.9715 l -3.3238,3.3238 -4.7485,-2.8489 -3.3239,3.3238 -9.9715,4.2736 h -10.4466 l -8.0721,8.0722 -4.6602,-3.29 -3.6324,-0.9912 -1.6246,-3.899 -6.1734,4.2239 -0.3251,3.2492 h -3.2491 l -1.6245,-2.5993 -2.2744,0.9748 -0.3248,1.9494 -6.4983,-0.6498 v -1.9494 l -5.1987,1.6245 -4.5489,-1.9495 -0.6498,5.1987 3.899,2.9241 0.6498,6.1735 -8.7726,11.3719 -1.9494,5.8486 -6.1735,5.8484 h -2.2743 l -2.2745,6.8232 8.7727,16.2458 h 5.8485 l 1.2996,2.9242 h 8.7727 l 6.8232,7.1481 v 4.8737 l 4.8737,0.6498 8.7726,8.4478 -0.3248,4.5488 4.8737,5.8486 5.1987,4.5488 -3.899,7.148 -8.7727,6.4984 -4.224,0.3249 -0.6499,2.9242 h -6.1731 l -3.899,4.8737 -6.1734,-0.3249 -3.2491,3.899 -2.2744,-2.9243 h -3.899 l -2.2745,-3.574 -1.9495,3.2491 h -4.5487 l -2.2745,2.9243 -2.5994,-2.9243 v -3.574 l -2.2742,-2.2745 -11.6969,-4.5488 -2.9243,-6.4982 -3.2492,0.3249 -3.249,3.2491 -6.1735,-3.574 v -1.9496 l -3.899,-0.6498 -11.6969,0.9748 v 1.9495 l -4.8737,2.2743 -2.2745,-1.6245 h -6.1733 l -3.2492,2.5993 -7.798,-1.6246 -1.2997,3.2492 h -2.9243 v -3.2492 l -3.249,0.6498 -0.9748,4.2239 -2.2744,0.9748 v 2.5993 l -10.3972,-0.3249 -1.2998,-3.2492 -7.4728,0.6499 -0.3251,2.9242 -9.4225,-6.8232 0.6499,-3.2491 h -4.2239 l -1.2998,-2.2745 1.9497,-2.2743 -2.9243,-6.1734 -8.4479,-7.1481 h -5.8483 l -7.4732,-5.1986 -11.3719,-0.9749 -4.224,-3.249 v -3.899 l -3.899,-0.6498 -1.9493,3.249 h -3.5742 l 0.325,-3.8988 -7.148,-2.9243 -2.2745,-3.2492 h -2.5995 l -1.2995,4.2239 -6.1734,1.6245 -3.2491,-1.6245 -0.9749,-3.5741 -2.2743,-2.9242 -5.1987,-0.6498 -1.6245,2.9242 -4.224,0.3249 -0.6496,-2.5993 h -7.4732 l -5.8484,2.5993 -3.899,-3.899 v -1.6245 l -6.8233,-4.5488 h -6.1734 l -2.9243,-3.2492 v -4.2239 l -6.4982,-4.8737 -0.6498,-5.1986 -4.2238,-2.9242 -15.9209,-0.9748 -3.249,-2.2744 -3.899,2.2744 -1.9497,-1.9495 -5.5235,1.6246 -3.899,-3.899 -2.9242,3.2491 h -2.5993 l -3.5742,2.5994 v -2.9243 l -6.823,-4.8737 5.1985,85.4526 -2.9241,1.2996 -1.9496,-4.8737 h -2.5993 v 6.1734 l -5.8485,-2.2744 -0.3248,-4.2239 -4.5489,-0.9747 -4.5488,-6.8233 h -3.899 l -1.6245,-2.2743 -6.4983,-0.9747 -3.2491,-4.8738 -4.2238,0.6499 -6.8233,-4.8737 -0.6499,-7.4731 -6.4982,-5.8485 h -7.4731 l -9.0975,-0.9748 -1.9497,-5.8484 -6.8232,0.6498 -5.1985,6.4984 -5.8486,-0.325 -1.6246,1.9495 1.6246,5.8484 -5.1985,6.1735 -2.5994,-4.5488 -3.574,-0.3249 -6.8233,2.5992 -1.6246,4.2239 1.6246,5.1986 -4.5489,3.5741 6.1735,3.5741 -5.8484,4.5488 3.5739,2.5993 v 3.899 l 1.6246,4.5488 h 5.8486 l 5.8483,7.1481 -1.9493,3.899 2.9243,2.9242 3.2491,-1.6245 6.4982,6.1733 -5.8484,6.4984 h -4.5488 l -1.2997,6.8231 -4.5489,1.6247 -0.6498,4.8737 -4.5487,2.9241 -8.123,1.9496 -0.6497,3.899 4.5487,4.8737 -1.9494,7.7979 -6.1734,4.8738 -0.6499,4.5488 -2.5993,1.6245 2.2745,10.0724 -4.8737,10.7221 -4.8738,1.6246 -0.6499,5.1987 -7.5387,3.8781 -1.9723,0.064 c -0.2415,1.3328 -0.452,2.3855 -0.452,2.3855 z"
     style="display:inline;fill:#fefee9;fill-opacity:1;stroke:#646464;stroke-width:0.74666667;stroke-linecap:butt;stroke-linejoin:round;stroke-miterlimit:4;stroke-dasharray:none;stroke-opacity:1"
     id="Morichal,_Código_DANE_:_94888" />
  <path
     d="m 222.4662,1118.6383 c 0.3758,-1.8786 -0.3755,-6.0115 -0.3755,-6.0115 l -4.133,-2.63 -6.0116,-7.8901 -0.3756,-4.5086 h -2.6301 l -3.0058,-6.763 -0.7514,-7.89 -4.8843,-1.8786 -4.8843,-6.0115 1.1271,-1.8787 -4.1328,-5.26 6.0115,-1.5028 -3.0058,-3.7573 -1.503,-3.0057 -6.7628,-1.1272 -0.7515,-4.5086 -7.1387,-3.7572 3.7572,-4.1329 -5.26,-6.3872 -3.7573,0.3758 -3.757,-6.0115 -4.5088,1.1271 -1.8785,-4.5086 -3.0058,-0.7514 -0.7514,-5.6359 -5.6358,-2.2543 -1.127,-5.26 c 0,0 2.2543,-1.5028 2.2543,-3.3815 0,-1.8786 -3.0058,-9.3929 -3.0058,-9.3929 l -3.7573,-1.8786 -1.5027,-3.0058 -7.5146,-3.0057 -11.2715,5.26 -1.8786,5.2601 -5.2599,3.7572 -2.6301,-5.6357 -6.0115,1.8785 -0.3757,-1.8785 -4.5086,-1.1273 -2.2545,-2.63 -1.8785,1.5029 -7.1386,-0.7514 1.1271,-6.0115 -2.63,-2.2543 -0.7515,-6.0115 -3.7571,-1.8787 -1.1272,-4.1329 -6.0115,-4.1329 -5.26,3.3815 -4.8843,-2.2543 v 3.7572 l -7.5145,0.3757 -6.0115,3.0057 h -3.0056 l -3.7572,-8.6414 -6.3873,-3.0058 -5.6358,-10.5201 -3.3815,-3.3816 1.503,-2.6299 -2.8179,-5.4479 275.2138,-114.0306 -1.6976,-6.3169 -2.6237,-7.7442 6.0345,-4.2726 2.0987,1.8694 6.821,-0.534 12.3307,-6.1419 30.6793,-2.845 11.8059,-5.3407 5.5093,-4.8065 9.7067,-4.5397 7.0836,0.801 7.0837,-10.1472 1.574,-10.1473 -4.9846,-12.8177 -0.9821,-7.3752 7.5743,-5.1358 6.7877,2.0966 5.7716,1.3354 9.4449,-5.608 6.2963,-6.1416 9.1824,1.3351 4.7227,-2.1361 1.8363,-13.3518 -1.8363,-8.5451 -2.4692,-16.9414 -5.9776,-14.5082 -8.2763,-6.5522 4.138,-4.68 13.3342,2.34 12.4148,-5.148 0.4599,-7.9563 -13.7942,-13.1042 -23.4498,0.4681 -3.2187,-7.0202 5.0577,-6.5522 h 13.7943 l 5.6869,-2.8133 1.7017,-7.1557 -5.0897,-7.3473 2.759,-11.7002 12.4144,-2.808 7.817,-8.4243 -2.8224,-5.9433 3.6783,-8.8922 11.955,-4.6801 3.2186,10.7643 h 6.8973 l 2.7587,-8.8922 -9.1961,-9.3602 4.1381,-6.0842 9.1963,3.7442 2.2989,13.1042 10.5753,6.0841 10.1159,-4.212 3.6784,-9.8283 -9.6559,-11.2321 -2.2988,-12.1683 5.9774,-4.6801 9.1959,3.7441 3.2185,11.2323 -0.4598,12.1681 6.4373,2.3401 10.5755,-5.1481 v -13.5723 l -1.8393,-15.9123 -7.3569,-6.5521 h -5.9772 l -9.1963,-14.0403 5.0578,-7.9562 13.7945,-3.276 7.3567,7.4882 6.437,0.4679 v -11.7002 l -6.897,-3.744 -7.8165,-7.9562 h -7.3568 l -10.5757,-14.5083 -7.8163,-4.212 v -3.7441 l 8.2763,-4.2121 h 5.9773 l 11.9548,-6.084 4.5981,-7.9563 -3.6785,-7.4881 0.46,-4.212 6.8969,-4.6802 4.1382,1.872 -0.4596,7.0202 5.0577,2.3401 6.897,2.34 7.8167,-2.8081 5.5926,0.064 126.1961,294.0892 2.0293,152.1344 -3.6538,-1.0489 -1.6246,-3.899 -6.1734,4.2239 -0.3251,3.2492 h -3.2491 l -1.6245,-2.5994 -2.2744,0.9749 -0.3248,1.9494 -6.4983,-0.6498 v -1.9494 l -5.1987,1.6245 -4.5489,-1.9496 -0.6498,5.1988 3.899,2.9241 0.6498,6.1735 -8.7726,11.3719 -1.9494,5.8485 -6.1735,5.8485 h -2.2743 l -2.2745,6.8232 8.7727,16.2458 h 5.8485 l 1.2996,2.9241 h 8.7727 l 6.8232,7.1482 v 4.8737 l 4.8737,0.6498 8.7726,8.4478 -0.3248,4.5488 4.8737,5.8485 5.1987,4.5488 -3.899,7.1481 -8.7727,6.4983 -4.224,0.325 -0.6499,2.9242 h -6.1731 l -3.899,4.8737 -6.1734,-0.3249 -3.2491,3.899 -2.2744,-2.9243 h -3.899 l -2.2745,-3.574 -1.9495,3.2491 h -4.5487 l -2.2745,2.9243 -2.5994,-2.9243 v -3.574 l -2.2742,-2.2745 -11.6969,-4.5488 -2.9243,-6.4982 -3.2492,0.3249 -3.249,3.2491 -6.1735,-3.574 v -1.9496 l -3.899,-0.6498 -11.6969,0.9748 v 1.9495 l -4.8737,2.2743 -2.2745,-1.6245 h -6.1733 l -3.2492,2.5993 -7.798,-1.6246 -1.2997,3.2492 h -2.9243 v -3.2492 l -3.249,0.6498 -0.9748,4.2239 -2.2744,0.9748 v 2.5993 l -10.3972,-0.3249 -1.2998,-3.2492 -7.4728,0.6499 -0.3251,2.9242 -9.4225,-6.8232 0.6499,-3.2491 h -4.2239 l -1.2998,-2.2745 1.9497,-2.2743 -2.9243,-6.1734 -8.4479,-7.1481 h -5.8483 l -7.4732,-5.1986 -11.3719,-0.9749 -4.224,-3.249 v -3.899 l -3.899,-0.6498 -1.9493,3.249 h -3.5742 l 0.325,-3.8988 -7.148,-2.9243 -2.2745,-3.2492 h -2.5995 l -1.2995,4.2239 -6.1734,1.6245 -3.2491,-1.6245 -0.9749,-3.5741 -2.2743,-2.9242 -5.1987,-0.6499 -1.6245,2.9243 -4.224,0.3249 -0.6496,-2.5993 h -7.4732 l -5.8484,2.5993 -3.899,-3.899 v -1.6245 l -6.8233,-4.5488 h -6.1734 l -2.9243,-3.2492 v -4.2239 l -6.4982,-4.8737 -0.6498,-5.1986 -4.2238,-2.9243 -15.9209,-0.9747 -3.249,-2.2744 -3.899,2.2744 -1.9497,-1.9495 -5.5235,1.6246 -3.899,-3.899 -2.9242,3.2491 h -2.5993 l -3.5742,2.5994 v -2.9243 l -6.823,-4.8737 5.1985,85.4526 -2.9241,1.2996 -1.9496,-4.8737 h -2.5993 v 6.1734 l -5.8485,-2.2744 -0.3248,-4.2239 -4.5489,-0.9747 -4.5488,-6.8233 h -3.899 l -1.6245,-2.2743 -6.4983,-0.9748 -3.2491,-4.8737 -4.2238,0.6499 -6.8233,-4.8738 -0.6499,-7.473 -6.4982,-5.8486 h -7.4731 l -9.0975,-0.9747 -1.9497,-5.8484 -6.8232,0.6498 -5.1985,6.4984 -5.8486,-0.3251 -1.6246,1.9496 1.6246,5.8484 -5.1985,6.1735 -2.5994,-4.5488 -3.574,-0.3249 -6.8233,2.5992 -1.6246,4.2239 1.6246,5.1986 -4.5489,3.5741 6.1735,3.5741 -5.8484,4.5488 3.5739,2.5993 v 3.899 l 1.6246,4.5488 h 5.8486 l 5.8483,7.1481 -1.9493,3.899 2.9243,2.9242 3.2491,-1.6245 6.4982,6.1733 -5.8484,6.4984 h -4.5488 l -1.2997,6.8231 -4.5489,1.6247 -0.6498,4.8737 -4.5487,2.9241 -8.123,1.9496 -0.6497,3.899 4.5487,4.8737 -1.9494,7.7979 -6.1734,4.8737 -0.6499,4.5488 -2.5993,1.6246 2.2745,10.0724 -4.8737,10.7221 -4.8738,1.6246 -0.6499,5.1987 -7.5756,3.9154 -1.9385,-0.013 z"
     style="display:inline;fill:#fefee9;fill-opacity:1;stroke:#646464;stroke-width:0.74666667;stroke-linecap:butt;stroke-linejoin:round;stroke-miterlimit:4;stroke-dasharray:none;stroke-opacity:1"
     id="Mapiripan,_Código_DANE_:_94663" />
  <g
     id="layer10"
     style="display:inline"
     transform="translate(-4913.7089,-4955.7364)">
    <path
       id="path6373"
       style="fill:none;stroke:#646464;stroke-width:3.20000005;stroke-linecap:butt;stroke-linejoin:round;stroke-miterlimit:4;stroke-dasharray:none;stroke-opacity:1"
       d="m 5472.7095,6267.1875 -6.8305,5.2542 6.8305,6.305 -8.4067,9.4576 -1.5762,14.7116 -9.4577,11.5593 2.6272,4.7287 -4.7287,7.8813 h -4.7288 l -6.3052,12.6101 3.6781,4.2034 v 8.4066 l -6.8305,9.4576 1.0509,3.6778 -9.4576,8.9322 3.1526,7.8813 h 21.542 l 6.8305,6.8305 v 4.2033 l 4.2034,4.2034 v 5.2542 h 11.0339 l 11.5591,12.0846 -2.1017,4.2034 9.4577,7.3558 5.7795,-3.6779 4.2033,1.0508 v 5.2542 l 9.983,13.6609 9.4576,3.6779 7.8812,-0.5254 1.5763,4.7288 7.8814,1.0508 5.2541,-1.5762 6.8305,2.1016 -4.2034,3.678 11.0339,1.5762 3.1524,4.7288 h 11.5593 l 3.1525,-2.6271 12.61,1.5763 9.4575,-4.2034 4.2034,7.3559 h 6.8305 l 9.9827,3.6779 1.0509,6.3051 5.7797,-2.1017 4.2034,2.1017 3.6779,2.6271 h 5.7797 l 1.4987,3.1161 4.7671,-4.8659 2.6478,0.5295 -2.1182,4.766 3.1772,3.1772 h 5.8249 l 7.9434,9.5319 h 4.2363 l 0.5296,-6.3546 h 3.7068 l 6.8842,6.8842 6.8841,-2.1182 -2.6477,-6.3546 13.7683,-5.2955 7.4135,1.5887 -1.059,-5.8251 9.5318,-7.9432 8.4728,2.1182 12.1795,-5.2954 2.6478,2.118 0.5296,3.7069 6.3546,2.6478 5.2953,-6.3547 3.1774,-0.5295 2.6478,6.3546 -4.2364,4.2364 10.0614,-4.7659 3.7068,3.1773 h 5.8249 l 6.8842,-4.766 3.1774,3.1773 11.1203,-4.2364 -1.5886,-2.6478 11.6501,-5.2954 -1.0592,-4.7659 7.4136,-1.5887 1.5888,-4.2364 3.7067,1.0591 6.8842,-1.0591 0.5296,-4.2363 11.1206,-7.9433 2.6474,1.0591 h 10.0616 l -1.5886,6.8842 3.1771,1.0591 0.5296,-3.7069 8.4728,-1.5886 0.5296,3.7068 11.1205,2.1183 0.5294,3.7067 3.7072,2.1182 2.118,-3.1773 5.8249,2.1182 -2.6477,3.7069 3.7072,2.6477 5.8249,-1.0591 -2.1184,-5.825 6.8844,-2.6478 0.5294,5.8251 10.5909,1.5886 2.648,-1.5886 5.825,7.9433 h 5.8249 l -1.5888,-4.2365 5.825,3.1774 6.3548,-3.1774 -2.1184,5.2956 6.8843,3.7067 797.6166,-1.516 -1.2236,-8.8625 h -4.4434 l -0.2468,4.1966 -7.1589,1.481 -2.2216,-4.1965 -4.3237,-1.4711 3.5831,-2.2317 0.4937,-6.6652 3.7029,-0.4936 2.9622,-5.184 h 1.728 v -1.728 l -6.912,-4.4434 -1.4811,-4.1965 -5.6776,-0.4938 -3.2092,-2.2216 -3.456,1.9748 -0.4936,3.2092 -4.1966,4.6902 -6.6651,-1.4811 -2.2216,-6.6651 -3.456,2.4686 0.4936,4.6902 -2.9622,2.2217 -1.9749,-2.4686 0.4937,-4.6903 -3.7028,-2.9622 c 0,0 4.6903,-13.8239 5.6777,-14.3177 0.9874,-0.4936 3.7029,-3.7028 3.7029,-3.7028 l 0.9874,-5.6776 3.4559,-3.7029 -0.9874,-1.728 -3.7029,0.7406 -4.1965,4.9372 -4.4434,-3.2092 -7.7339,1.2513 -6.8305,1.711 -4.4435,0.4937 -0.2468,-1.728 1.9748,-2.4686 -1.9748,-3.7028 -1.2342,-0.9874 0.2468,-2.9622 2.9622,-3.2092 -2.2216,-2.7154 -4.1966,2.2217 -2.7154,-0.9874 1.2343,-2.4686 7.1588,-2.4686 3.9497,-5.1838 -0.7406,-2.9623 1.1336,-3.4335 2.8304,-2.5473 1.9813,0.283 3.9625,-2.5473 0.2831,-11.6047 4.5286,-9.3404 1.6982,-6.2269 4.2457,-3.9625 9.6232,-9.9064 1.4154,-6.7929 6.2269,-3.9626 1.1321,-9.6234 5.3117,-8.7381 1.4153,-9.0573 -0.2831,-15.5671 0.7473,-5.1427 2.1352,-1.2202 2.5928,2.2877 0.1525,5.3381 0.9151,14.3365 3.8129,12.2011 4.423,6.4057 4.2704,1.3726 12.8113,0.9151 12.6587,5.9481 8.3884,6.5582 5.1855,11.4386 1.5251,10.6761 6.4057,11.8962 3.6603,2.2877 8.0834,-0.1525 3.3553,2.5928 h 3.5078 l 4.728,-3.8129 h 3.5078 l 2.1353,1.3726 12.2012,1.2201 9.1509,6.4057 2.4402,4.5755 1.0676,1.3725 2.4404,0.3051 5.1855,7.4733 6.5581,6.5581 9.1509,1.9827 2.7452,-1.2201 9.151,-0.1525 7.1682,2.8978 2.5927,2.7453 9.151,3.0502 2.5927,5.1855 10.9811,5.4906 2.8979,0.7625 1.6776,-3.5078 0.7626,-4.4229 -2.8977,-2.1352 v -2.7453 l 5.7955,-5.7956 1.2201,-3.9654 -0.7625,-3.2028 2.8977,-3.0503 2.2878,0.1525 4.8804,-5.338 0.7627,-3.8129 2.4402,-2.1352 0.7625,0.9151 3.0504,-2.4403 4.2704,-1.6777 3.0503,-2.7452 0.305,-5.3381 3.6604,-1.6776 2.2878,0.7625 6.1005,-2.1351 0.4575,-3.5079 -0.3049,-6.2532 1.5251,-1.0675 0.7626,-2.8978 -3.0503,-0.7626 -1.3727,-5.033 1.2202,-7.7783 0.9151,-1.3727 v -2.4402 l 7.1682,-8.8459 2.4402,0.3051 0.3051,-1.9827 3.6603,-3.0504 1.3726,-0.3049 0.6101,-3.508 6.5581,-2.8977 1.5253,0.1525 3.8128,-1.8302 6.5582,-6.5581 4.4229,-0.1525 7.7783,-7.0157 5.4905,-8.2359 1.9827,0.4575 1.2202,1.8302 4.2704,-0.3049 0.4576,-2.5929 -1.2202,-0.9151 v -3.5078 l 4.5755,-3.5079 5.0329,1.3727 9.151,-0.1525 10.5236,-3.8129 15.8615,0.61 3.8129,2.5929 11.7437,2.5927 11.8962,0.9151 8.8459,-3.2029 5.7955,-2.1351 2.2878,0.1524 3.2028,-2.2877 0.4576,-5.7956 5.7955,-7.1682 3.5078,-8.9984 5.7957,-3.3553 3.8129,0.305 7.9308,-4.1179 3.9654,-11.8962 6.1006,-3.0503 1.8302,2.2877 8.9984,-1.2201 1.22,-2.4403 4.2705,-9.3033 4.2704,-4.728 3.9655,-0.4576 4.4229,-6.2532 3.6604,-5.338 -0.4576,-3.2028 -1.6777,-2.2877 1.9827,-5.643 5.7956,-3.508 8.9984,0.6102 4.2705,-1.6777 h 4.5754 l 1.3726,0.61 3.6604,0.7626 4.1179,-3.3553 1.0676,-9.3035 -0.9151,-7.9308 0.9151,-9.3034 5.7956,-5.4906 3.8129,-0.3049 3.9654,-2.4404 16.3191,-2.5927 6.8633,4.728 2.1351,2.4402 5.7956,3.0504 3.8129,5.643 -0.1525,3.3554 -2.7453,2.2876 v 7.0158 l 1.5251,1.5251 0.4576,1.9828 -1.9827,1.6776 0.1526,3.2028 3.2027,3.9654 4.5755,1.3726 6.2531,4.728 v 5.7956 l -2.5927,1.5252 -0.3051,2.4402 2.7453,2.2878 1.3727,6.1005 0.7625,2.5928 v 1.0676 l -1.5251,0.3051 -1.2201,2.1351 -2.7453,2.4404 -1.9827,0.1524 -1.0677,1.9827 1.9827,1.0676 -0.4574,2.5928 -1.2202,1.2201 0.3051,4.8805 8.2358,11.2861 4.7279,2.2877 7.3207,5.0331 v 4.1179 l 0.9151,3.3554 c 0,0 -0.305,2.8977 -0.305,3.8128 0,0.9151 -2.8977,6.7107 -2.8977,6.7107 l -6.5582,3.6604 -1.5251,3.6603 0.1524,4.1179 1.6777,1.6777 -2.4403,3.0503 -3.2028,1.9827 -1.2201,2.8978 v 2.1352 l 1.9827,2.1352 -0.3051,9.3035 3.3555,10.0659 4.1178,0.4576 5.7956,-0.1525 0.6101,1.3727 -3.8129,3.8128 -0.6101,3.3554 2.7453,2.4402 1.2202,3.2028 -1.0676,3.3554 1.22,2.1351 4.2705,1.2202 3.6604,5.033 2.8977,9.9135 3.9654,6.2531 3.8129,2.8978 4.2704,1.6776 5.6431,6.2532 2.1352,3.5078 3.2029,5.0331 8.0833,5.0329 5.6431,3.3554 1.0675,3.6604 2.7453,1.2201 5.338,-0.305 3.5079,2.8977 3.2028,5.0331 2.5928,0.9151 1.2201,-1.9827 8.6933,-0.7626 3.813,-2.5927 4.1178,-0.1526 5.338,2.4402 5.9482,1.0677 9.6291,2.3899 7.9947,5.0556 0.823,3.9973 1.0582,1.1758 0.1175,6.1136 -2.2338,2.7041 -2.7041,6.8191 -0.2351,3.0568 1.9986,1.1758 v 3.0567 l 1.4109,4.3501 3.4095,6.584 1.5284,1.646 0.8231,3.2919 -1.4109,5.1731 -5.2907,8.9353 -1.1757,2.469 -6.9366,5.0555 -1.2932,2.8217 0.9404,1.2932 0.7055,3.8798 1.8811,5.2907 2.7041,3.7622 -0.1175,7.6421 v 5.1731 l 1.7635,5.6434 1.7636,1.646 0.9405,5.173 2.3515,4.4677 5.996,6.1136 4.4676,2.2338 4.7029,2.2338 -0.1176,7.9948 -5.2907,7.0542 -0.2352,2.5866 -1.5283,1.2933 -0.1176,6.2311 1.0581,1.5285 0.823,2.5865 2.5866,2.2338 3.8798,0.3528 4.5853,4.4676 1.1757,1.7635 0.1175,3.5272 -1.0581,0.5878 -0.5879,3.9975 -1.4109,4.7027 -3.8797,5.2907 -0.3528,4.35 1.0581,2.8218 0.7055,2.9392 2.7041,5.5258 2.9392,9.9934 1.9988,4.2326 6.4663,10.6989 2.469,10.8164 -0.9406,8.23 -4.2325,8.8177 -1.0581,6.5839 2.1162,11.4043 1.5285,11.4043 1.881,16.93 v 17.7532 l -2.1162,14.6962 -3.8798,14.9314 -1.1757,11.6395 1.5284,14.2259 0.3527,14.4611 3.8799,14.4612 5.6433,14.6963 5.996,17.4003 151.5479,-42.2077 -1.0582,-5.996 -7.5245,-7.7596 -7.4069,-8.1124 -2.8216,-15.8719 5.4082,-11.1692 7.0542,-2.5866 4.8203,0.3528 3.8799,-3.5272 1.0582,-8.1123 -2.4691,-14.4611 -2.7041,-7.5245 -2.2338,-6.9366 -5.8785,-7.1718 -6.4663,-9.2881 -15.1666,-5.2906 -5.7609,-4.3501 -2.469,-9.7583 1.646,-7.9948 -0.823,-15.0489 2.2338,-3.6447 0.9405,-8.7002 -3.8798,-11.757 -4.2325,-7.0542 -1.2932,-11.9921 -0.4703,-5.5259 -5.761,-4.2325 -2.7041,-4.3501 0.4703,-4.2325 -2.2338,-3.9973 -7.1717,-9.4057 -6.9367,-1.1757 -3.1744,-3.8798 0.4703,-4.5852 2.4689,-2.9392 1.1757,-11.6395 -2.9392,-13.6381 -4.3501,-5.6434 0.2351,-3.4095 -4.9379,-5.8785 -2.9392,-1.7635 -5.6434,-9.876 -1.4109,-7.0542 v -5.5257 l -5.5258,-13.7558 -5.5257,-6.5838 -3.6447,-4.7029 0.4703,-8.2298 -2.9393,-8.9354 -8.5826,-8.3475 -2.7041,-7.407 -1.8811,-11.0515 1.2932,-16.1071 0.3528,-7.4069 -6.4664,-6.8191 -3.4096,-12.1096 -5.8785,-11.4044 -1.2932,-11.0515 -2.9805,-7.3834 -2.7495,-3.3284 -1.1578,-4.052 -2.4602,-3.3285 -6.8016,-0.7235 -4.4861,-7.9594 -4.7756,-1.5919 -2.8943,-3.6178 -0.4341,-3.3284 -5.2099,-5.9334 -4.3414,0.1447 -2.3154,-3.6178 v -4.1968 l 0.7235,-1.7366 1.3025,-5.9333 3.4732,-4.9203 0.8683,-10.2748 1.013,-2.1708 1.8812,-1.4471 1.0131,-4.052 6.6568,-9.4065 0.5789,-9.5512 -7.091,-19.6812 1.4472,-5.7887 -0.2895,-4.7756 -4.7756,-12.3008 -4.9203,-5.0649 -6.3675,0.4341 -8.6829,6.8016 -4.4862,1.013 -7.8146,-4.6309 -10.5642,-13.7479 -8.9723,-18.0894 -2.1708,-10.1301 -4.7756,-9.8406 0.2894,-6.3675 -1.013,-3.3284 -3.0389,-1.7366 -8.683,-12.735 0.4342,-7.3803 2.3154,-2.3156 1.8813,-1.4471 -0.1447,-6.078 1.013,-1.4471 -0.4341,-5.0651 -2.8943,-3.4732 0.7236,-6.8016 2.7495,-5.6439 5.3545,-2.0259 6.6568,-5.9334 3.0391,-7.2357 2.4601,-2.8944 -0.7235,-6.2227 -8.5382,-8.6829 -8.2488,-9.8406 -0.8682,-4.7756 -3.0391,-5.4992 -7.0911,-6.2227 -7.9592,-2.8943 -9.696,-9.1171 -0.7235,-2.0261 -3.4732,-1.4471 -6.8016,-0.1447 -4.0521,-2.026 -4.052,-3.3284 -2.1707,-1.7367 -2.4601,-0.2893 -4.0521,-4.3415 -1.1576,-3.039 0.7235,-2.8943 -1.5919,-3.9073 -7.6699,-5.0651 v -2.8943 l -4.7756,-5.3544 -3.7626,-0.7237 -4.9203,-8.5381 -0.1447,-3.1838 1.013,-1.8813 0.1447,-3.9073 -6.5121,-7.8146 -3.7627,-2.1706 -4.7756,-0.2895 -3.039,-3.6179 -4.1967,-0.4342 -4.7756,-4.6308 -6.6569,-2.3154 -0.5789,-3.9073 0.5789,-9.5513 -5.4991,-5.7886 -3.9073,-0.5789 -7.67,-2.7495 -6.5122,-6.3675 -5.2097,-3.3284 -2.6049,-4.6309 -6.6569,-6.3675 -2.026,-0.8683 -3.1837,-3.3284 -2.7497,-0.8684 -3.4731,2.0261 -2.6048,-0.1448 -2.8943,-1.7365 v -2.8943 l -4.4862,-10.2748 -1.4472,-4.9203 -2.026,-3.3284 -1.1577,-6.3675 -2.1707,-2.1708 -3.6179,1.7367 -10.7089,-1.3025 -5.0651,-3.9073 -3.9073,-0.4342 -4.9203,3.3284 h -3.7626 l -5.0651,2.7497 -2.1706,3.3284 -3.7627,3.3285 -1.7365,0.7236 -3.4732,-1.4472 -1.5919,-4.4862 -2.4602,-2.8942 -1.4471,-11.722 3.4732,-6.8016 -0.1447,-8.3935 2.3154,-4.4861 -1.013,-6.9464 -4.3414,-2.8943 -10.5643,-8.104 -0.8682,-10.709 2.7496,-5.4991 -0.7236,-5.6439 -13.4586,-15.0504 -3.7625,-1.5919 -0.4342,-3.9073 -5.065,-2.4601 h -6.9463 l -4.3415,2.7496 -4.3415,0.7235 -4.3414,7.2358 -7.8146,1.1577 -5.2097,-3.9073 -17.5105,-2.026 -17.3659,-5.7886 -8.6829,-1.7366 -0.5789,-4.3415 1.8813,-3.1837 1.013,-2.6049 -2.026,-2.6049 -9.6959,-1.4471 -6.9463,4.6309 -14.761,4.1967 -10.2748,-1.3024 -4.9203,-2.6049 -7.2357,1.1578 -5.9333,7.9593 -2.7496,6.5121 0.7235,2.7497 -1.5918,4.9203 -1.3475,2.8139 -4.5858,0.5145 -4.1968,-1.013 -2.3154,0.7236 -0.8683,2.1707 -3.9408,-0.2591 0.2374,-47.7213 273.2678,-250.3346 31.8158,-0.1426 2.6116,-1.1871 v -2.8491 l -4.2736,-5.2231 v -2.8491 l 5.6981,-5.2232 -3.3238,-6.1729 1.4244,-9.0219 6.173,-3.3239 9.9716,-3.3239 4.7484,-6.1729 3.3239,-2.3742 4.7483,-9.0218 2.3742,-7.5975 4.7483,-1.8994 -1.8993,-4.2735 0.9498,-6.6477 8.547,-3.3239 -3.3239,-18.0439 -6.1729,-7.1225 -3.7987,-6.6478 -2.849,-14.2451 -4.7483,-4.2735 -6.6478,-0.9498 -10.9213,-5.2231 -2.849,-4.7484 h -11.3961 l -8.2476,-6.6478 -2.3743,-13.2954 1.4244,-12.3459 -1.4244,-10.9212 -7.7027,-6.1379 -4.7483,-6.1729 v -7.1225 l -1.4244,-6.1729 -7.1228,-2.3742 -2.8489,-4.2735 -0.4749,-5.6981 -1.4246,-2.3742 1.8995,-8.0722 4.7482,-9.4969 -2.374,-7.5972 -6.173,-7.5975 -2.8489,-6.6479 6.6477,-9.0219 -2.849,-4.2734 -10.9213,-0.4749 -2.3743,-6.173 -8.547,-8.547 -0.9497,-6.6477 -1.4246,-16.1444 -5.698,-8.0724 v -4.7483 l -6.173,-5.6981 -7.5972,-1.8993 -1.8994,-2.8492 -4.2736,1.4247 -3.3239,5.2232 -8.547,8.547 -13.0149,1.3893 -9.4967,-0.9495 -3.3239,4.2736 -11.237,-3.4129 -9.022,-5.2233 -0.9495,-7.1226 -5.6982,-7.5974 h -5.698 l -2.3743,-3.3238 -0.4746,-9.4968 -5.6982,-9.9717 -0.9497,-3.3239 2.3743,-6.1728 -2.3743,-20.418 -4.7483,-2.8492 v -3.7987 l -4.2737,-7.1225 -2.374,-9.022 -10.9213,-9.9714 v -7.5976 l -5.2234,-3.7987 -2.374,-8.0721 1.8993,-11.3962 -4.7485,-6.173 1.8993,-3.3238 v -4.7483 l -3.3238,-9.0218 2.849,-7.5976 v -8.5472 l -5.332,-10.2131 -26.1953,9.6275 -45.0219,24.6226 -19.4869,30.0943 -10.7516,6.8395 -12.7673,12.3112 -21.503,4.1038 v -4.7876 l -0.6721,-12.3115 -10.7512,-19.8346 -6.72,-0.6841 -14.1111,0.6841 -10.0796,-5.4717 -6.7197,-5.4717 h -4.0316 l -16.1273,4.7876 -5.3757,-6.8394 3.3599,-10.2595 -1.3444,-6.1557 -7.3914,-1.368 -6.7194,6.8398 v 15.731 l -8.0637,19.1509 -6.0479,8.2074 -8.0635,-5.4715 6.7196,-8.8915 2.688,-10.9435 -8.0635,-4.7876 h -8.7355 l -2.6882,8.2076 0.6722,8.8913 -6.7199,8.8915 -6.7195,2.0518 -10.7516,-8.8914 3.3599,-7.5237 6.0476,-7.5234 2.0159,-10.9435 -8.0635,-5.4715 h -9.4075 l -11.4235,9.5754 -12.7674,1.3679 -11.4236,-7.5236 -5.3756,-0.6838 -6.0476,-6.8397 h -7.392 l -4.7035,8.2075 7.3916,1.3678 13.4395,4.1039 4.7037,8.8915 -4.7037,6.8396 h -9.4076 l -11.4235,-9.5754 h -11.4235 l -8.0636,2.7358 -10.0793,-6.1556 -5.3758,5.4717 h -12.0956 l -13.4393,-13.6793 h -5.3755 l -5.3758,8.2076 1.3438,7.5235 v 6.1558 l -5.3756,6.1554 v 4.7879 l 8.7357,6.1554 -1.3443,8.2076 -8.0636,2.0518 h -4.0319 l -10.7513,5.4717 -8.0636,-2.7358 -8.7353,-4.7877 -8.736,-1.3678 -8.7355,3.4196 -2.0159,8.8916 2.6879,6.1557 10.7515,4.7877 6.048,4.7877 10.7515,6.8395 v 7.5238 l -4.0321,8.2072 -8.0635,0.6841 -8.0636,-15.0471 -8.7355,-7.5235 -6.0479,-0.684 -3.3599,7.5235 2.0163,5.4717 4.0316,8.2075 -0.6721,7.5235 -8.7355,0.6841 -2.688,-5.4718 -8.7354,-4.1036 -10.7515,4.7877 -12.7676,12.9952 -2.6877,9.5753 6.0479,8.2076 3.3596,7.5235 -7.3918,6.1558 -6.7194,-0.6841 -12.7673,-18.4669 -10.7516,-6.8396 -8.7357,0.6839 -1.3438,5.4717 2.688,6.1557 12.0952,10.2594 4.0322,7.5235 v 4.7877 l -8.7359,1.368 v -8.2075 l -9.4075,-9.5754 -6.0478,0.6838 -1.344,7.5237 -5.3756,1.3679 -4.704,-4.7877 h -6.0474 l -11.4235,4.7877 h -7.3917 l -7.3917,-16.4152 -12.0954,-6.1554 -6.7196,0.6838 -1.3439,8.2075 6.7195,6.1558 13.4394,3.4198 5.3757,8.2075 -7.3914,7.5236 -8.0636,-10.9435 -12.7281,-0.1595 -7.0698,6.3925 -11.9548,-0.4682 -4.1382,-3.2759 -4.5981,0.4679 -7.3566,-4.68 -5.9775,-2.808 -9.1962,2.34 -3.2183,7.956 -0.4602,16.3804 -9.1957,11.2322 -13.3347,4.6801 -9.1958,-6.552 -10.1156,-10.7642 -6.8969,0.468 -4.5983,5.6161 0.4596,9.36 9.1962,12.1683 1.8394,6.5522 6.8969,9.3602 -5.5176,5.6161 -6.897,-4.2121 -1.3792,-11.7002 -5.0582,-6.5523 -8.7362,-1.8719 -13.3341,7.0202 -10.1157,8.4241 h -6.4375 l -9.1958,-6.552 -0.4599,-10.2963 4.5981,-9.3602 -0.9198,-9.3601 -10.1156,-4.6801 -5.5174,2.3399 -1.8395,6.5522 7.3569,11.7003 0.4597,12.1681 -3.2185,8.8922 -6.897,1.8721 -5.0578,-1.8721 -8.2763,-7.956 h -10.116 l -13.3341,5.616 -10.5756,14.9762 -5.5175,2.3402 -3.6784,8.8921 -9.1962,5.1481 -5.9775,-4.2121 -2.7587,-6.5522 -5.9773,0.4681 -3.2188,5.1481 -6.4372,3.744 -5.9775,-1.8721 -4.5978,-7.956 -0.4601,-11.2321 -6.4368,-2.8081 -4.1388,3.2759 -11.0349,16.8484 -15.6335,9.8282 -11.035,-2.3402 -1.3794,-5.148 8.2763,-4.6801 5.5177,-6.0842 0.4596,-8.4241 -6.897,-2.8081 -4.598,4.6802 h -8.2764 l -4.5982,-4.212 6.8971,-12.6362 -4.5978,-5.1483 -9.1962,1.8722 -2.2989,12.6361 -6.4374,6.0842 -6.8969,-4.6801 -3.2188,-21.5285 -12.4145,-8.8921 -11.4951,-0.4679 -4.1385,3.7439 2.2992,8.4242 10.5756,12.1684 -3.6786,20.5922 -10.1154,9.3602 -8.2766,-1.872 -1.8391,-11.7003 6.8972,-9.3601 2.7586,-13.5724 -5.5176,-8.8921 -6.8972,-0.936 -5.9773,5.148 -1.8394,8.4244 -15.6331,5.148 -8.7363,8.4241 -8.7363,5.1482 -5.0578,-4.2121 -1.8392,-8.8921 -4.1383,-0.4681 -3.2183,3.2761 -0.9198,6.0841 -7.8167,6.0841 -8.2764,-0.468 -7.8168,-15.4444 -6.4374,-13.1043 -11.9547,-1.8719 -9.6558,6.552 -5.0578,15.9124 -1.3795,12.6362 -5.5176,3.7441 -5.5173,-3.7441 4.5977,-9.8282 -3.6783,-3.7439 -7.817,-0.4682 -10.1154,2.8081 -15.6331,-1.8719 -10.1159,-3.7442 -7.8167,-0.468 -5.5176,5.1481 0.9197,3.2762 11.4949,-2.3402 3.2186,5.6161 -8.7363,7.4881 -1.8389,8.8923 5.9772,9.8282 -2.9528,10.4021 -8.2764,7.4882 1.3795,7.4881 -4.598,3.744 -4.1384,-6.084 -5.5179,-9.8282 h -7.3564 l -1.8393,3.2761 1.3794,7.4881 -10.1156,5.6161 -5.9777,-1.872 -3.2183,-8.4242 -7.8167,-1.872 -7.8166,6.084 -1.8394,10.2962 -9.1962,14.9763 -4.1382,-0.468 -0.4594,-5.1481 -0.92,-13.5722 -11.4949,-10.7642 -9.1959,-3.7441 -5.9777,2.8081 v 7.0201 c 0,0 4.5981,4.6801 6.4373,5.1481 1.8392,0.4681 5.9773,0 5.9773,0 l 5.5176,6.5521 -0.9193,8.4241 -8.2766,3.2761 -7.8168,-4.2121 -9.1959,-10.7641 -12.8745,-2.3401 -7.3569,4.6801 -1.3793,12.1682 0.9197,14.5083 -9.656,8.8922 -5.9772,-3.7441 -2.2995,-7.0201 3.6786,-9.8283 v -6.084 l -9.1961,-7.0202 -10.5752,1.4041 -4.1383,8.8921 4.1383,12.1683 10.1154,17.3162 8.2768,9.8283 -1.8395,5.148 -5.5175,-1.4039 -14.7139,-5.1482 -6.4369,-5.6161 -1.3794,-11.2322 -5.9777,-14.5083 -7.8166,-5.6161 -6.897,2.3401 -4.1384,7.0202 1.8396,8.4241 11.4948,10.2962 3.6783,7.0201 5.0582,2.808 -0.9198,11.2322 -5.9774,6.5522 v 11.2323 l -2.2992,7.4881 h -9.6558 l -7.3566,2.34 -2.7588,-8.4242 -5.5179,-8.8921 -11.495,-5.1481 -14.2539,0.468 -4.5982,5.6161 1.8394,9.8281 12.8744,10.7643 v 11.2322 l -5.5175,6.5521 h -13.3345 l -9.1959,6.0842 -7.8167,6.084 h -8.2766 l -5.5174,-10.7641 2.7588,-10.2963 -1.3794,-6.084 -10.1156,-3.7441 -6.4375,3.7441 -7.3566,11.2321 -13.7942,5.6161 h -5.5176 l -7.8167,2.8081 -6.897,-2.34 -5.0577,-2.3401 0.4596,-7.0202 -4.1382,-1.872 -6.8969,4.6802 -0.46,4.212 3.6785,7.4881 -4.5981,7.9563 -11.9548,6.084 h -5.9773 l -8.2763,4.2121 v 3.7441 l 7.8163,4.212 10.5757,14.5083 h 7.3568 l 7.8165,7.9562 6.897,3.744 v 11.7002 l -6.437,-0.4679 -7.3567,-7.4882 -13.7945,3.276 -5.0578,7.9562 9.1963,14.0403 h 5.9772 l 7.3569,6.5521 1.8393,15.9123 v 13.5723 l -10.5755,5.1481 -6.4373,-2.3401 0.4598,-12.1681 -3.2185,-11.2323 -9.1959,-3.7441 -5.9774,4.6801 2.2988,12.1683 9.6559,11.2321 -3.6784,9.8283 -10.1159,4.212 -10.5753,-6.0841 -2.2989,-13.1042 -9.1963,-3.7442 -4.1381,6.0842 9.1961,9.3602 -2.7587,8.8922 h -6.8973 l -3.2186,-10.7643 -11.955,4.6801 -3.6783,8.8922 2.8224,5.9433 -7.817,8.4243 -12.4144,2.808 -2.759,11.7002 5.0897,7.3473 -1.7017,7.1557 -5.6869,2.8133 h -13.7943 l -5.0577,6.5522 3.2187,7.0202 23.4498,-0.4681 13.7942,13.1042 -0.4599,7.9563 -12.4148,5.148 -13.3342,-2.34 -4.138,4.68 8.2763,6.5522 5.9776,14.5082 2.4692,16.9414 1.8363,8.5451 -1.8363,13.3518 -4.7227,2.1361 -9.1824,-1.3351 -6.2963,6.1416 -9.4449,5.608 -5.7716,-1.3354 -6.7877,-2.0966 -7.5743,5.1358 0.9821,7.3752 4.9846,12.8177 -1.574,10.1473 -7.0837,10.1472 -7.0836,-0.801 -9.7067,4.5397 -5.5093,4.8065 -11.8059,5.3407 -30.6793,2.845 -12.3307,6.1419 -6.821,0.534 -2.0987,-1.8694 -6.0345,4.2726 2.6237,7.7442 1.6976,6.3169 -275.2138,114.0306 2.8179,5.4479 -1.503,2.6299 3.3815,3.3816 5.6358,10.5201 6.3873,3.0058 3.7572,8.6414 h 3.0056 l 6.0115,-3.0057 7.5145,-0.3757 v -3.7572 l 4.8843,2.2543 5.26,-3.3815 6.0115,4.1329 1.1272,4.1329 3.7571,1.8787 0.7515,6.0115 2.63,2.2543 -1.1271,6.0115 7.1386,0.7514 1.8785,-1.5029 2.2545,2.63 4.5086,1.1273 0.3757,1.8785 6.0115,-1.8785 2.6301,5.6357 5.2599,-3.7572 1.8786,-5.2601 11.2715,-5.26 7.5146,3.0057 1.5027,3.0058 3.7573,1.8786 c 0,0 3.0058,7.5143 3.0058,9.3929 0,1.8787 -2.2543,3.3815 -2.2543,3.3815 l 1.127,5.26 5.6358,2.2543 0.7514,5.6359 3.0058,0.7514 1.8785,4.5086 4.5088,-1.1271 3.757,6.0115 3.7573,-0.3758 5.26,6.3872 -3.7572,4.1329 7.1387,3.7572 0.7515,4.5086 6.7628,1.1272 1.503,3.0057 3.0058,3.7573 -6.0115,1.5028 4.1328,5.26 -1.1271,1.8787 4.8843,6.0115 4.8843,1.8786 0.7514,7.89 3.0058,6.763 h 2.6301 l 0.3756,4.5086 6.0116,7.8901 4.133,2.63 c 0,0 0.7513,4.1329 0.3755,6.0115 -0.3755,1.8786 -0.7512,3.7572 -0.7512,3.7572 l 5.26,10.1444 -0.7515,7.8901 5.6358,4.1329 h 4.133 l 3.0056,1.5029 3.3814,6.3872 6.3873,1.8787 4.133,-0.3758 1.8785,0.3758 1.8785,2.2542 2.2543,-0.3757 3.3815,-3.7572 1.8787,3.0058 4.8844,0.7514 3.0057,-1.8785 1.5028,3.0056 4.8844,1.1272 4.8843,4.5086 -1.7439,-0.6931 5.8448,2.3911 2.9222,5.3134 4.5166,0.5314 0.797,1.8597 -3.188,6.9074 2.6567,1.594 5.3133,-5.8448 -2.391,-5.3133 4.5166,-0.5315 0.797,-4.782 3.1879,-4.7821 4.2508,3.4536 -2.6567,7.1733 6.642,3.985 h 4.7821 l 3.188,2.1255 -2.1253,5.8448 -5.3135,-0.5313 -6.1105,-6.1105 -3.9851,5.8448 2.3911,5.8448 13.815,4.782 9.564,-5.8448 4.2508,-0.797 v 5.3135 l 2.3913,0.797 3.7192,-3.985 3.4538,-0.2657 0.2658,-2.9225 -7.7045,-2.6566 3.7194,-3.7195 13.2837,-1.8597 9.0327,-8.5016 5.8448,1.8597 -1.0627,6.6419 2.3912,2.391 6.9076,-4.2508 1.0625,-6.1104 4.7823,2.1254 1.594,7.7045 4.5165,5.8448 6.6418,0.5313 5.0478,6.3762 h 5.8448 l 2.3909,-6.1105 4.7823,-3.9851 2.9222,1.0628 -0.7969,4.2507 2.391,5.5791 5.5793,0.2657 3.4537,1.8597 1.8595,-0.2656 -1.0625,-7.9703 1.8596,-1.8597 2.1255,2.1254 0.797,6.9075 2.9225,0.2656 3.188,2.9225 -2.9225,1.0627 h -3.985 l -2.6568,4.2508 6.3763,5.3134 4.2507,-2.9224 1.8596,-3.9851 8.236,-6.1104 -0.797,-3.9852 -3.4538,-5.3134 -7.439,-5.3135 1.5942,-2.9224 h 5.8448 c 0,0 5.579,4.2507 6.6419,5.3134 1.0627,1.0628 8.5015,2.6568 8.5015,2.6568 l 1.8597,-3.7195 4.2508,-0.5313 0.5312,-6.6418 4.2508,-3.4538 9.5644,-1.594 3.1879,2.1254 -0.5312,4.7821 -8.7672,-0.2657 -3.1881,4.2508 2.1252,2.391 7.1734,0.5315 2.9222,2.9223 4.7823,-3.9851 3.7192,4.7821 3.1881,3.7195 6.642,-4.5165 2.1253,3.1881 2.9225,3.7194 7.7045,-4.2507 -0.5315,-4.7821 -5.0478,-4.5165 1.5941,-1.8597 5.3135,0.5314 1.594,6.6418 4.5165,2.391 3.7193,-3.4537 5.5792,3.985 -0.2657,-5.3135 1.0627,-1.3283 0.2659,-10.8926 3.7192,2.1254 v 8.2359 l 4.7823,1.3283 0.797,-4.5164 5.3133,-3.7194 -2.1253,-2.6568 -8.5016,-2.391 0.5313,-6.3762 6.3762,-1.0626 0.797,2.391 7.7046,6.1105 7.4388,1.3283 5.8448,-2.6567 3.9851,4.5165 7.439,-2.3911 5.3133,1.5941 v -2.9225 l 5.3135,-2.391 3.7195,-5.8448 -1.594,-6.1105 5.3133,-4.7821 5.3135,0.797 4.5165,-0.797 1.8598,6.1105 -5.048,4.7821 3.1882,4.2507 3.9851,0.7971 -0.2658,3.188 0.2658,1.8597 5.3134,-5.0477 3.7194,2.391 -1.594,4.5165 0.2657,3.188 2.9223,0.5313 2.1255,3.9852 -4.5165,6.3761 2.6567,5.3135 11.6896,1.8597 1.8598,2.6567 4.5829,-0.1328 -1.1292,5.4463 -2.6567,0.2657 1.0627,2.6567 5.5791,1.3284 -5.8448,6.6418 -2.6567,-3.7194 -1.8597,0.797 -0.2657,2.1254 -2.391,1.594 1.3283,2.9224 -4.2508,3.4538 v 3.188 l 3.9853,1.3284 -0.2658,2.3911 -3.7195,1.3283 -1.3283,2.1254 -3.1879,-0.797 1.5939,-2.6567 -2.9225,-1.5941 -0.797,-3.9851 c 0,0 -1.0627,0.5314 -3.9851,1.8597 -2.9224,1.3284 -0.797,2.6568 -0.797,2.6568 h -3.4537 l -0.5314,1.0627 3.1881,1.3283 v 2.3911 l 4.2508,0.797 -1.3284,8.5015 -4.7821,0.797 -3.4538,-2.391 -2.391,1.3284 -2.9225,-2.1254 -5.0478,0.797 0.2658,2.9225 1.8597,1.594 -2.3912,3.9851 0.2657,2.6567 -7.4388,2.1253 -1.3284,3.1882 -3.7194,-2.9225 -4.2507,4.2508 2.6567,3.4538 -1.5939,2.1253 -5.0478,-2.1253 -1.5942,1.0627 -4.5164,-3.9852 -1.8597,1.5942 0.2658,3.7193 4.9919,1.6829 1.7126,4.5974 -5.2601,3.3815 -5.6357,-4.6965 -1.8785,4.3208 -4.321,1.8786 4.5088,3.5693 -2.63,4.1329 9.017,1.8786 -6.9506,6.9507 2.0664,3.0058 -6.9438,5.5166 z" />
  </g>
  <g
     id="layer2"
     style="display:inline"
     transform="translate(-5228.1088,-5397.3097)" />
</svg>
