<?xml version="1.0" encoding="UTF-8" standalone="no"?>
<svg
   xmlns:dc="http://purl.org/dc/elements/1.1/"
   xmlns:cc="http://creativecommons.org/ns#"
   xmlns:rdf="http://www.w3.org/1999/02/22-rdf-syntax-ns#"
   xmlns:svg="http://www.w3.org/2000/svg"
   xmlns="http://www.w3.org/2000/svg"
   version="1.0"
   id="svg2"
   height="1066.6666"
   width="1066.6666">
  <defs
     id="defs4" />
  <metadata
     id="metadata7">
    <rdf:RDF>
      <cc:Work
         rdf:about="">
        <dc:format>image/svg+xml</dc:format>
        <dc:type
           rdf:resource="http://purl.org/dc/dcmitype/StillImage" />
        <dc:title></dc:title>
      </cc:Work>
    </rdf:RDF>
  </metadata>
  <g
     style="display:inline"
     id="layer7" />
  <path
     id="Providencia_y_Santa_Catalina,_Código_DANE_:_88564"
     style="display:inline;fill:#fefee9;fill-opacity:1;fill-rule:evenodd;stroke:#0978aa;stroke-width:2.13333344;stroke-linecap:butt;stroke-linejoin:miter;stroke-miterlimit:4;stroke-dasharray:none;stroke-opacity:1"
     d="m 655.6208,471.4265 h -2.50716 l -1.4625,-2.50716 2.0893,-1.04464 2.29822,0.83571 0.62679,1.46251 z m 280.99982,-149.82071 -0.45339,7.26505 -5.89399,3.63251 0.22669,4.08659 7.70753,3.85954 0.22669,6.35691 -2.26692,1.3622 -2.04023,8.17317 -2.947,2.27033 0.90677,5.22172 2.947,2.7244 -0.22669,7.038 -1.81353,2.27033 2.49362,2.04329 4.30714,11.12459 -0.76411,6.65661 2.95029,0.73868 -1.47515,4.43207 -1.47514,0.59093 -3.98289,7.68228 -1.91769,11.6711 -5.60553,9.60282 -2.65527,0.88641 -5.90057,13.29621 -4.72045,5.90942 -0.44255,6.94356 -3.24531,2.80698 -0.44254,7.82999 -2.80278,2.65926 -7.2282,0.29545 -2.06519,2.80698 -7.52325,-0.29546 -0.88507,3.39791 -2.50776,-0.14773 -1.47513,-1.77282 -11.50613,0.29546 -6.19559,5.90943 -14.60392,0.29546 -6.49063,4.28433 -4.42543,0.44322 -3.39283,5.61395 -4.42543,4.43208 -0.88508,6.64808 -7.52323,1.32962 -11.50612,8.27321 2.50774,1.18188 -1.32763,3.69339 -5.75305,1.32963 -0.59006,5.4662 -7.81825,11.22791 -5.31053,0.14774 -9.14589,8.71641 -5.3105,2.0683 -4.86797,0.4432 -0.88509,2.36377 -6.19559,-0.29548 -3.09782,-2.51149 -1.1801,-1.77285 h -13.71884 v -1.62507 l -0.73757,0.14774 -3.83538,5.31847 -15.34148,4.43207 -10.91607,7.53452 -2.06519,5.31848 -7.22821,4.72754 h -3.24531 l -13.27629,-2.65924 -13.12877,-4.72755 0.29503,-0.8864 1.91768,-0.73868 -0.29503,-0.88642 2.06521,-1.47736 -0.29503,-6.05715 -4.72046,-4.57981 v -4.43207 l -4.42543,-3.10244 -1.0326,-4.72756 -6.34311,-5.76168 0.88507,-5.61395 4.42543,-4.87528 -1.03259,-7.38677 -2.80278,-1.03416 0.59006,-1.62509 1.32763,-0.14773 -0.59006,-3.10245 6.49063,-1.47735 2.06521,-2.95472 -0.59006,-10.93243 -1.62267,-1.62509 0.14752,-4.28434 -3.0978,-3.69339 0.29503,-3.39792 -1.47515,-1.6251 -5.90056,-15.8077 -1.91769,-1.03415 0.59005,-4.28433 3.0978,-2.80698 -0.29502,-0.88642 -2.95029,-0.8864 -0.29503,-2.65925 -5.01548,-2.95471 -9.73595,-2.65925 -8.70334,-3.84112 -2.36023,-5.76168 2.36023,-3.84113 2.65525,-0.88642 2.9503,-2.65923 -0.44255,-2.21605 -3.39283,-1.03413 0.59005,-2.95472 2.80278,-2.65923 -0.44254,-4.57982 3.39283,-2.80698 -0.73758,-5.90943 -1.32762,-0.59093 0.59005,-1.03414 5.31052,-0.29548 2.0652,-1.47736 -0.29503,-3.39792 2.65526,-1.92055 2.0652,-5.3185 -0.59006,-3.69338 -2.95029,-1.32962 0.14751,-1.32963 3.98289,-3.98885 1.62266,-6.35263 0.44255,-8.42093 3.24531,-2.95472 -0.14752,-2.21603 -1.32763,-0.59094 -2.50774,-8.27321 0.14752,-4.72753 -2.80277,-2.0683 -0.47158,-5.7649 2.71201,-1.67144 -0.41722,-4.38752 -3.12926,-0.41787 0.20862,-1.25358 1.87754,-0.41785 0.20862,-3.76074 2.71202,-2.08929 -1.66893,-4.38753 3.12925,-1.88037 -0.83447,-1.88036 -1.66893,-0.83572 0.41724,-4.59645 5.63265,-7.52148 0.62585,-5.85003 3.33786,-4.38752 -2.5034,-1.04465 v -1.46251 l 5.63265,-3.96966 2.71202,-4.59645 3.33787,-4.59646 1.46032,-8.77504 8.74483,-9.5938 0.54901,-7.42284 6.58821,-12.37141 0.2745,-2.19938 -2.47057,-1.92443 -0.2745,-1.09967 6.31368,-2.47428 h 4.66665 l 2.19606,-4.12381 2.19607,-0.82476 9.05878,-12.37141 v -4.1238 l 15.37247,-8.79744 6.31368,-1.64954 2.74508,-5.22347 h 4.94116 l 3.84312,5.22347 4.66664,-0.27491 3.0196,-3.29905 3.01958,-0.27491 v 3.02412 l 9.88231,12.3714 5.21565,0.54984 3.0196,-4.94856 1.09804,2.19937 2.74507,0.27491 2.47057,3.02413 4.39214,0.27492 1.64705,-1.64952 10.98033,-0.27492 13.17641,-10.72188 0.82353,-4.67366 3.01958,-1.92443 1.09804,-3.84889 7.41173,-7.97269 2.19606,-13.47109 -2.74508,-12.92124 -1.09804,-0.82476 -0.54901,-3.29904 2.47057,-1.3746 1.37256,-12.37142 2.74507,-3.02411 -5.21565,-4.12381 2.74508,-1.64952 4.11763,-6.59809 7.96074,-3.02411 11.25484,-1.37461 1.09803,-5.49841 -2.47057,-1.64951 0.0133,-1.5617 2.98933,-3.26598 0.54352,-3.81032 -3.26109,-2.17732 -0.54351,-2.449483 -2.17406,-0.54433 -0.11264,-1.381398 h 5.76484 l 2.49811,2.116939 2.11377,-1.539595 9.99239,0.192448 2.49812,3.464096 0.38431,7.505543 2.69027,4.04144 5.957,3.849 0.9608,4.42634 2.11379,0.76981 -1.34514,2.69429 0.38433,3.27165 -0.19217,8.27534 2.69027,7.69799 4.61186,1.73204 1.34515,2.6943 8.45509,1.15469 0.96081,1.34716 h 3.84323 l 1.15297,-3.65654 1.53729,1.92449 3.65106,-0.19245 1.53729,1.9245 3.0746,-1.5396 h 5.18835 l 10.95321,2.50184 6.91781,5.00369 0.96081,3.27165 0.96081,8.27534 -3.26675,8.66024 -3.84324,5.58104 -1.34512,4.2339 -4.61188,1.73205 -5.18835,6.15839 -3.65107,0.7698 -1.15296,3.65654 -5.76486,5.19615 0.76864,5.96594 0.76866,-2.30939 h 4.03539 l 1.92161,-1.9245 -0.19215,1.9245 3.4589,2.30939 v 2.11696 l -1.92161,1.34713 0.38432,3.849 -2.30594,1.9245 -6.72566,0.19246 0.19218,1.53959 1.53729,0.57734 2.11377,5.96595 1.53729,-2.88675 2.30594,0.19246 0.96081,-1.34715 1.92161,2.88675 0.19216,3.46409 4.80403,7.31309 1.15298,5.38859 2.49809,2.6943 h 2.11379 l 1.53728,2.30939 -2.69026,0.38491 -2.49809,1.9245 v 4.2339 l 4.41972,0.38489 3.4589,3.27164 0.76864,6.92819 2.69026,2.88674 -0.38432,1.53962 4.80403,2.50184 -0.19215,3.46409 -2.49811,3.27166 -16.71805,0.76979 -4.80403,3.07919 -0.19216,3.65655 3.4589,2.3094 0.38433,-1.73205 6.91781,-3.4641 0.9608,-1.1547 4.99621,-0.38489 0.57648,-1.34716 h 2.88242 l 1.53729,1.53959 9.60807,0.57736 10.95322,-6.54329 3.4589,-0.57735 2.4981,-1.92449 0.57648,-3.65656 h 1.92161 l 0.57648,1.15471 2.1138,0.57735 3.84323,4.61878 -0.19217,2.11696 1.34513,1.1547 1.15296,8.85268 -4.03538,13.27904 -2.49811,2.11695 -0.57648,6.73575 -6.14917,3.07918 h -3.07458 l -1.15297,-3.27164 -0.96081,0.19246 -1.53729,3.65653 -5.957,3.65655 -5.76485,0.7698 -3.26675,3.84899 -7.30213,0.3849 -1.72945,2.50185 -3.4589,0.57734 -1.90378,-1.5013 z m 61.64041,-16.5298 -1.54187,-3.98696 0.58103,-2.05824 2.37382,-1.36263 2.88459,1.48765 7.7145,-2.01603 0.4408,0.76037 -6.6834,3.1528 -0.3518,-0.79952 -4.17737,0.88376 0.53907,3.15587 z m 4.77367,-11.11318 0.7076,0.64293 2.2525,-0.67306 1.2091,1.05857 3.9536,-1.63368 -3.5639,-1.82489 z m 9.877,-7.82607 0.8665,2.69359 3.0815,-0.7197 1.437,0.85229 3.1205,-0.63085 -0.9274,-2.34886 -3.7499,0.16561 -1.9451,-2.0071 -0.9571,-0.003 -0.926,1.99798 z m -3.5598,-130.01623 0.7322,2.91881 3.0834,2.03631 6.4991,-1.01119 3.4442,0.83933 0.3243,-2.96174 -2.2403,-1.56278 -0.9091,-3.34953 -4.4451,-1.76572 -4.5112,1.54435 z m -224.32665,-30.34244 4.1304,0.59094 6.78566,-5.61395 11.2111,-0.59094 2.65525,2.36376 5.90057,-6.20489 2.65526,-0.29547 4.72047,2.65924 h 5.90055 l 0.59006,-6.50037 7.08068,-8.2732 0.29504,-6.500358 4.42543,-2.954709 h 3.24531 l 5.31052,-2.068299 h -3.54034 l -7.96577,-3.841131 -0.29504,-2.363765 -3.54034,-2.363776 -1.47515,5.318485 -2.65525,-5.613952 -0.88509,2.068299 -2.36022,0.590944 -0.29503,1.772821 -3.24531,-2.068298 v -2.363766 l 2.65525,-1.477354 0.88508,-4.653678 2.28649,-2.806976 -2.58151,-3.767254 -0.29502,-2.659242 -2.36024,-1.181889 -0.59005,-5.909425 1.77016,-2.36377 2.65525,-8.864135 9.73596,-7.09131 0.29502,-3.250185 4.1304,-3.841125 -2.06519,-4.72754 -1.47515,-0.886413 -4.72046,5.02301 -1.77017,0.295472 -5.60553,-3.545654 -0.29504,-2.954714 -3.2453,1.181886 -6.19562,6.500367 -5.60555,0.886414 -2.06519,-2.068299 -10.91605,2.068299 -3.24533,3.545654 h -2.06519 l -3.24531,-2.954713 -4.42543,0.590943 -0.8851,2.659241 -2.95028,-2.659241 -4.1304,1.477356 -0.59006,3.250184 2.95029,1.772826 -0.59006,3.250184 -5.90057,0.295472 -1.18011,2.954712 h -4.1304 l -2.06522,-1.772826 -1.1801,2.363768 -4.1304,4.432069 -0.29503,10.932435 -5.60555,7.386776 0.59006,5.023022 1.47514,0.886411 1.47514,10.046026 -0.59005,2.659232 -2.36023,0.295478 5.60556,3.545653 1.77016,4.136598 7.08069,2.65924 -2.0652,0.29547 1.18011,6.20489 2.36023,-1.18187 1.77017,1.77282 3.83537,-2.65924 0.29504,3.25018 2.95027,0.88641 v 4.72754 l 5.60555,3.54566 z" />
  <path
     id="San_Andres,_Código_DANE_:_88001"
     style="display:inline;fill:#c12838;fill-opacity:1;fill-rule:evenodd;stroke:#0978aa;stroke-width:2.13333344;stroke-linecap:butt;stroke-linejoin:round;stroke-miterlimit:4;stroke-dasharray:none;stroke-opacity:1"
     d="m 486.65939,464.49727 -3.90908,1.43499 -5.28926,-0.69012 -2.46456,-2.14742 0.0514,-2.85552 -3.01397,-4.68841 0.11649,-4.02384 2.56259,-3.00875 4.35351,-1.67442 4.35351,1.67442 v 4.01863 l 4.37138,2.83987 0.98681,2.18342 -2.11888,6.93715 z m -107.96116,54.10269 -1.49389,1.30714 -2.24081,-1.68061 0.18673,-2.61429 2.05408,-0.18674 1.12041,1.12042 z m 5.4153,11.20407 -3.54797,-3.36122 1.30715,-3.73469 2.98776,-0.37347 1.49387,2.24082 -0.74693,1.49387 v 2.80103 z m 93.13703,-99.91369 -1.88393,-1.85801 0.36732,-1.57794 -1.74255,-1.98229 0.63317,-1.56063 -1.64107,-3.57755 -0.71807,-2.59885 -5.151,-1.30255 -4.30461,-2.2029 2.42037,-2.37867 4.69466,-0.36173 1.75946,1.71641 2.40955,-0.11008 7.1116,7.80492 -0.56419,6.77116 2.00839,1.9996 -1.4138,1.24282 -0.43498,2.64144 -2.37572,-0.42168 z m -226.1623,419.78714 -5.85655,5.43087 v 6.95154 l -4.98894,1.95512 -4.33819,5.43088 v 3.25853 l -3.25365,2.38957 3.47056,6.95154 -1.73527,7.16875 -8.45948,10.21006 1.08454,7.386 -11.0624,11.07899 -1.73528,6.29983 -5.85657,9.12387 0.21691,9.77559 -2.16909,4.56193 -5.42275,5.64813 -14.09913,28.24057 -19.9557,30.19565 -1.73528,6.2999 -3.25366,1.5206 0.43383,6.0826 -10.8455,18.8995 -12.14694,10.21 -8.8933,1.7379 -5.85657,-0.8689 -6.29038,-8.4722 -4.33819,-1.5207 -1.08456,-3.693 -3.90437,-0.4344 -11.279308,-5.6481 v -3.2586 l 2.602908,-0.6517 1.30147,-5.2136 1.30146,-1.9551 -1.9522,-1.0862 -3.470555,-5.6481 -0.867638,-6.5171 -2.819829,-5.4309 -5.205835,-4.3447 -0.65073,-5.21363 -3.036736,-5.64811 -3.47055,-1.73789 0.867638,-2.17235 1.735274,-1.08616 -0.65073,-4.12747 1.952192,-4.34471 1.735274,-1.30342 -3.904373,-0.65169 -3.904373,-1.73789 v -1.08617 l 3.253642,-1.95512 0.433824,-1.30341 -3.47056,-3.69299 -0.433824,-7.16878 2.602923,-3.47574 1.084544,-8.68943 1.518368,-0.86894 v -1.30341 l -2.169099,-1.95511 v -11.079 l 5.422752,-16.7271 10.41167,-17.8133 3.904371,-1.95511 1.30146,-4.56194 11.49622,-12.81688 14.96678,-26.71993 v -10.86176 l 2.38601,-1.52065 2.60291,-10.64452 -0.43382,-2.60683 -1.73527,-1.3034 0.21691,-1.95512 2.1691,-1.52065 v -1.52065 l -1.9522,-0.86894 -0.2169,-2.17235 -2.60293,-1.30341 -3.03673,-7.16876 1.73528,-26.06822 2.1691,-26.93718 -1.95219,-1.73786 1.30146,-3.47578 h 1.30145 l -0.2169,-9.77558 4.77202,-5.64812 -0.65073,-2.82405 -1.73529,-1.73788 0.86764,-4.12748 3.47056,-3.25852 0.43381,-4.77917 -3.03672,-4.99641 0.99337,-4.47495 1.8011,-0.72153 0.72044,-6.13293 h 1.08066 l 3.24198,-5.4114 h -4.32264 l -0.72044,-4.68989 h -2.88176 l -5.76352,-3.24685 2.16132,-1.08228 v -4.32912 l -2.88176,-5.77217 2.88176,-1.08228 3.24198,6.13293 3.24198,-1.08229 3.96242,-5.4114 3.24199,-1.08228 5.76352,-3.96836 -2.52155,-3.60761 -19.09166,2.88608 -3.24198,-4.32912 -7.56462,-5.05065 -6.12375,-0.72152 -2.52153,-3.24685 -14.408802,-5.77216 -7.924843,-7.57597 -2.161322,-6.49369 -4.682859,-5.41141 -0.720448,-7.57596 6.123744,-9.74054 1.080661,-9.019 11.52704,-20.2026 1.080659,-11.18357 6.84418,-11.18357 1.08067,-6.85445 -3.24199,-3.24684 0.43156,-6.38323 3.566,-2.80605 -0.76414,-4.59173 7.38671,-11.98953 0.25471,-4.33663 2.03772,-1.53057 -0.50943,-4.08155 -2.80186,-1.27548 0.76414,-5.86722 4.58485,-3.06115 1.52829,-8.16307 9.42442,-6.37741 2.03771,-7.39778 1.783,-1.27549 -5.34899,-2.80605 -8.915,-8.92837 -3.05656,-10.71404 -0.25471,-7.90798 -4.58486,-9.69365 0.25471,-5.10192 -4.33013,-10.96914 0.25471,-7.90798 2.29243,-1.27548 7.38671,-11.73443 0.50942,-9.43856 3.566,-3.31623 1.27357,-4.59174 8.91498,-8.16308 2.80186,-1.27548 4.07542,-6.37741 5.85843,-3.06115 3.82071,-3.82644 v -1.27548 l -2.03771,-0.76529 0.25471,-3.06115 3.05658,-1.53058 5.85841,-8.41819 2.80187,-1.02037 2.54712,-3.06115 12.73571,-9.18346 1.78299,-4.33665 6.87728,-10.71404 h 3.05659 l 3.56599,-1.78567 0.25471,-2.29586 -1.52828,-0.51019 -0.50944,-5.10192 -1.01884,-8.67327 1.78298,-1.27548 -2.0377,-0.76529 v -1.02039 l -2.54715,-2.29586 2.54715,-1.53057 1.52828,-7.39781 3.82071,-2.04076 0.50943,-5.35702 3.31128,-2.04077 -2.29242,-1.78567 -0.50942,-2.29586 -2.03773,-1.27548 1.27358,-3.82644 1.78299,-0.25511 1.27358,-2.29586 -3.31129,-1.02039 0.16114,-5.00247 -3.07458,-1.34714 -0.38433,-4.04144 1.34514,-3.27165 h 3.26673 l 2.88242,-2.6943 -0.38431,-16.35822 -2.69027,-2.11696 0.57649,-3.65655 -1.92162,-2.11694 2.30594,-0.7698 -0.38432,-1.9245 1.53729,-2.3094 1.72945,-0.19245 3.45891,-2.6943 0.19215,-4.42634 7.30215,-9.62249 2.30594,-0.96225 3.65107,-3.07919 6.53348,-14.43373 6.34134,-6.15839 3.26674,-1.34716 4.41971,-4.04144 8.07079,-3.27164 24.02018,-21.16948 0.19215,-1.9245 18.25535,-23.09396 3.84324,-2.11695 16.14155,-17.32048 13.06699,-9.622485 3.4589,-0.96225 2.69027,-3.271648 23.25152,-8.082891 7.68647,0.769803 6.14917,13.663925 10.56889,5.581046 9.03158,9.04514 1.92161,5.77349 8.83942,3.65655 -5.57267,-0.3849 -2.30594,2.3094 -0.76865,5.96594 12.68267,16.55068 20.17695,12.31679 4.62944,0.42521 3.68516,2.02989 3.86943,-2.39895 2.57961,2.02987 13.81939,2.02989 1.84258,4.2443 9.58144,5.16698 8.84439,7.56592 11.05551,2.21442 4.60645,2.5835 h 4.05369 l 3.1324,6.27418 3.13239,3.87524 3.68517,0.73812 0.55278,2.5835 1.47406,0.5536 -0.55277,3.6907 -4.23794,2.95255 0.18426,2.76802 -0.92129,-0.36907 h -3.86943 l -0.18426,2.58349 -0.92129,0.55361 3.50091,1.29174 h -7.00183 l -0.18424,-0.92268 -2.94815,-0.18452 -1.65832,-1.66082 -0.36852,3.32163 -1.10555,2.39895 h -4.23794 l -0.9213,-2.95256 -4.05368,-2.39896 -2.76388,0.18455 v 1.29173 l -2.2111,1.47629 -2.39536,-4.61338 h -2.2111 l -3.31664,3.13709 -0.36853,-2.58348 -3.5009,-0.55361 -0.73704,-3.32162 -1.47407,-0.18453 -1.79565,3.10058 h -4.58625 l 1.09196,1.74978 -4.58625,0.21871 -1.09196,-1.31232 -0.2184,1.31232 h -2.18393 l -1.31036,2.84337 -3.49429,0.21872 -0.87356,1.9685 -1.31037,-3.71826 -10.04607,0.43744 -0.65519,1.74976 -7.42535,4.59314 -4.14949,0.65616 0.2184,3.28082 -1.96553,0.87488 -4.36785,0.21873 -12.44842,13.12323 -3.93107,0.21872 -3.93108,3.49952 -3.27589,0.21873 -5.8966,5.68673 -3.7127,0.65617 -2.18392,5.46802 -5.89662,2.84336 v 4.59313 l 3.2759,2.18721 12.4944,7.7155 10.13421,10.70302 0.73704,2.58348 2.02684,1.84536 -0.55277,11.99476 -5.15924,1.47628 -6.81756,-0.73814 -2.02685,2.39895 0.55278,3.32163 -2.02684,1.47627 v 1.47629 l 1.65832,1.66081 v 3.50617 l -2.94812,2.39895 -6.63332,0.18454 0.92131,-2.76804 -7.92312,-7.56592 v -1.1072 l -2.94814,-0.55361 -0.55277,1.66081 -3.1324,0.36907 -0.18426,-2.02988 -9.76569,-4.05976 -5.71501,0.49551 -3.64814,-2.08777 v -0.78292 h 1.82407 l 0.65145,-2.7402 h 1.3029 l 1.17262,2.34874 6.38423,1.56584 h 4.29958 l 4.03901,-2.60973 h 3.51783 l 0.78175,-1.04388 -6.12365,-4.82797 h -4.82074 l -8.07801,-3.26216 -2.99667,-5.61088 -8.07801,-4.82799 -1.82406,-2.6097 h -0.78174 l -1.17262,4.04505 4.16929,1.17437 0.52116,7.04624 -4.1693,9.91692 0.78175,6.39381 1.17262,-3.65361 5.34191,-0.39145 -0.52117,1.8268 2.08465,2.60972 4.16929,0.13047 0.39087,0.91341 -1.69377,0.78292 -0.52117,3.13166 1.95435,2.34874 5.21163,0.39147 2.08465,1.82679 -1.56349,0.78292 -0.13029,2.74021 2.93037,3.16828 3.5009,-0.18453 1.2898,-7.19685 3.50091,-1.29175 0.18427,-2.39895 2.76388,0.18453 2.57962,2.58348 0.36852,2.39895 2.5796,0.55361 0.36853,2.21443 -4.60647,0.36907 3.92189,2.73025 2.60745,6.14434 1.84053,-2.1505 2.60743,-0.15362 1.07365,1.22887 4.44798,0.61443 0.92026,-2.15052 2.60744,4.60825 9.35607,0.61443 1.38041,1.22888 -4.75473,1.68969 v 0.92166 l 3.52771,1.53607 0.61351,3.99383 -1.99392,0.76804 -0.46014,3.68661 1.68716,0.76804 -5.82837,4.76185 -1.53379,-1.8433 -2.60743,-0.46082 -0.46013,-2.61134 -1.53379,2.30412 -6.13513,2.30413 -1.99392,5.06908 -7.51553,0.76804 -9.66285,-3.8402 h -6.59527 l -11.35,2.61134 -5.98176,4.30104 0.15339,5.22269 1.84053,0.76804 -1.53378,1.53608 v 3.37938 l 1.22702,0.61444 0.7669,3.22578 1.68717,2.91856 6.59526,2.30413 4.29459,-3.22577 2.60745,-0.46084 v 1.07527 l 2.60742,3.37938 1.53378,-3.22579 1.53378,3.07218 1.5338,-0.76804 0.92025,-0.15361 0.92028,-1.07526 3.83446,3.07216 -3.83446,4.14744 h 1.68716 l 0.76689,4.76187 1.68718,1.38247 0.46012,7.68042 -4.44796,2.91857 1.75202,1.41364 0.2169,19.55117 3.90439,2.38958 0.21691,1.52065 -1.73528,1.52065 -0.86764,5.43088 -4.77201,5.43088 0.21691,2.17235 2.16909,1.73789 0.2169,6.29981 -3.90436,6.95152 1.30146,12.38241 -2.38601,3.25854 -0.21691,5.43086 1.51837,1.52066 1.30146,14.12029 5.42274,9.12388 0.43382,5.43087 3.25365,1.73788 0.43382,11.73071 -3.25365,4.77918 -8.24257,1.30339 -18.43733,7.16878 -11.0624,11.079 0.21691,3.04128 2.6029,1.73789 1.95219,10.64452 2.38602,1.08618 -0.43382,3.0413 -5.20583,4.34469 0.21691,1.52065 1.51836,1.08618 v 12.59965 l 2.60292,1.73787 -4.12128,2.82406 1.26034,9.27123 4.59621,0.0699 1.67478,3.87259 2.66343,0.68936 v 1.95512 l -4.55511,3.47576 h -2.38601 l -0.48286,5.99722 3.7648,1.50818 0.37649,4.1475 4.70601,1.13115 v 1.50818 l -2.63536,0.56557 0.18823,6.22126 -4.32952,4.71305 -0.18824,3.39342 -5.83546,5.27864 0.37649,7.54091 -3.38833,1.88523 -3.20009,0.37705 -0.56471,3.01635 -3.2001,5.27865 v 3.01636 l -3.01185,1.50818 -4.706,3.95898 -1.12945,6.78682 -7.52962,2.63933 -7.52961,6.97534 -5.27074,0.37704 -5.45895,5.09012 -0.37649,9.99172 -3.7648,4.14748 -0.75296,6.40978 -2.07066,6.40978 2.63536,6.22126 -0.37647,10.93432 -3.2001,3.01636 0.18825,3.95898 1.69416,0.94262 0.18824,5.84421 -3.57657,1.88522 0.94121,13.95068 -3.01185,5.84421 -0.56472,6.40978 -2.63537,4.14749 0.37648,16.4015 1.8824,1.6967 0.18825,1.88523 -2.44713,3.20489 0.75296,4.90159 -3.01184,9.23762 -3.57656,5.84421 -3.01186,9.61466 -0.18824,6.78682 1.12945,5.09011 0.92513,10.17362 z m 184.86695,-581.08371 -2.40233,-1.74976 -2.62071,-0.43744 -1.96553,-3.28081 v -3.06209 l 3.52847,-2.59023 4.33368,-1.12802 3.71267,0.43745 -0.21839,3.93696 -1.09196,3.06209 0.21839,2.62465 z m 34.81135,-221.330525 -3.49927,-3.020018 0.0282,-5.698192 2.70168,-6.692377 4.78991,-4.88703 4.72009,-2.572952 1.84279,-1.703636 2.20866,1.187135 4.97725,1.147452 2.09556,3.081489 -1.68978,2.447837 -0.69853,2.38022 -1.00456,0.891794 0.0266,3.462733 -2.43486,2.601594 1.92259,3.57352 -3.23983,1.352997 -1.38375,-1.174798 -0.18627,1.3162 -2.09559,2.029592 -4.42399,-1.962179 -4.65684,2.238619 z" />
</svg>
