<?xml version="1.0" encoding="UTF-8" standalone="no"?>
<svg
   xmlns:dc="http://purl.org/dc/elements/1.1/"
   xmlns:cc="http://creativecommons.org/ns#"
   xmlns:rdf="http://www.w3.org/1999/02/22-rdf-syntax-ns#"
   xmlns:svg="http://www.w3.org/2000/svg"
   xmlns="http://www.w3.org/2000/svg"
   width="2254.6636"
   height="1355.9823"
   id="svg2"
   version="1.1">
  <defs
     id="defs4" />
  <metadata
     id="metadata7">
    <rdf:RDF>
      <cc:Work
         rdf:about="">
        <dc:format>image/svg+xml</dc:format>
        <dc:type
           rdf:resource="http://purl.org/dc/dcmitype/StillImage" />
        <dc:title></dc:title>
      </cc:Work>
    </rdf:RDF>
  </metadata>
  <g
     id="layer3"
     style="display:inline"
     transform="translate(-1161.6486,-7058.2925)" />
  <path
     id="Puerto_Caicedo,_Código_DANE_:_86569"
     style="fill:#fefee9;fill-opacity:1;stroke:#646464;stroke-width:0.64000005;stroke-linecap:butt;stroke-linejoin:round;stroke-miterlimit:4;stroke-dasharray:none;stroke-opacity:1"
     d="m 407.91197,540.0672 15.1153,-31.061 -2.5088,-1.0343 c 0,0 -3.3598,-0.7147 -3.1198,0.4766 0.24,1.1912 0.24,1.4294 0.24,1.4294 l -1.2,1.4296 -4.8,-0.4766 -3.3599,-1.9059 0.48,-2.859 -2.16,-1.1913 -2.4,1.6678 -5.2799,-0.2383 -3.84,-3.5736 1.92,-1.1913 -1.68,-2.6207 -0.24,-2.6207 -0.24,-1.1913 h -2.1599 l -3.84,-3.8119 -0.24,-5.2415 2.16,-0.2382 1.68,-3.3356 -2.64,-2.1441 -0.48,-2.8591 -1.92,-1.4294 -2.8799,1.906 -2.88,-0.2383 -3.5999,-3.5737 1.6799,-1.6677 -0.7199,-3.5737 -2.16,0.7147 -3.36,-2.6207 -2.4,-0.9529 0.96,-2.1443 -1.9199,-3.3355 -2.88,1.1913 -3.8399,-0.953 -1.92,0.953 -4.08,-0.4765 -1.2,-3.812 -1.1999,-0.7147 -1.92,-0.2382 0.017,-2.4135 157.9005,5.5106 6.4797,1.1913 4.8,0.2383 4.08,-2.3826 -0.2401,-2.1441 2.1601,-1.1914 0.96,-7.6239 40.5594,-1.4294 43.4395,1.4294 1.3863,2.0108 2.3759,-0.8424 3.0546,4.0432 h 5.4305 l 4.0729,5.2224 0.8485,-0.5053 3.0546,1.8532 0.8486,3.5377 2.0364,1.8532 -0.3394,3.0323 1.5274,0.1685 4.9214,5.3909 2.5455,-0.6738 3.0547,4.0432 -0.1697,1.5162 2.3758,1.6846 2.3759,-0.6739 3.9031,3.7063 2.3759,0.1685 6.2789,6.9071 1.188,5.0541 4.4122,5.3908 2.2062,0.3369 1.188,2.5271 0.1697,2.5269 1.3576,4.0432 -0.8485,3.0324 0.1696,4.8856 3.3942,3.5378 -1.0182,6.0648 2.2061,1.8531 -1.6971,3.8747 -1.8668,1.3478 1.188,2.3585 -1.697,2.527 -1.5273,-0.5055 -0.974,2.3242 -204.0466,41.9408 -1.92,-2.859 -5.0399,-0.953 v 2.8589 l -4.5599,2.8591 -2.88,-1.1913 1.44,-4.0502 -0.48,-1.1912 -3.84,-0.7148 -2.8799,-1.9059 0.7199,-5.718 h -2.1599 -3.12 l -1.92,-3.5738 4.56,-1.6677 v -5.4796 l 2.16,-0.7147 1.1999,-3.0973 -5.2799,-1.1912 -0.48,-2.8589 -3.5999,-1.9061 -3.12,1.1913 -2.4,-1.6678 -4.3199,-0.4765 -4.7999,0.7148 -2.4,-2.6207 0.24,-2.859 -4.8,-1.906 -1.9199,-3.0971 -2.88,-0.7148 -2.64,1.6677 -3.9666,-0.068 z" />
  <path
     d="m 417.42027,744.5021 -26.976,-108.809 -5.0911,1.0107 -5.4305,-1.3478 -3.3941,1.3478 0.3394,2.0216 -10.1822,4.0432 -1.0182,2.6955 -9.164,-1.3478 -6.7881,2.3586 -5.77,-1.3478 -2.3758,-5.054 -7.4517,-1.4859 73.6673,-98.4692 4.0934,0.017 2.64,-1.6677 2.88,0.7147 1.9198,3.0972 4.8,1.906 -0.24,2.859 2.3999,2.6207 4.8,-0.7149 4.3199,0.4766 2.4,1.6678 3.12,-1.1913 3.5999,1.906 0.48,2.859 5.2799,1.1912 -1.2,3.0972 -2.1599,0.7148 v 5.4796 l -4.56,1.6677 1.92,3.5738 h 3.12 2.1599 l -0.7199,5.718 2.8799,1.9059 3.84,0.7148 0.48,1.1912 -1.44,4.0501 2.8799,1.1914 4.56,-2.859 v -2.859 l 5.0399,0.953 1.92,2.859 204.4084,-41.9938 4.3211,1.7963 1.3782,3.1924 -2.2969,4.7885 2.7564,2.7365 8.9582,-1.1402 1.8377,-1.8243 6.4317,3.8765 0.4594,3.8764 4.8238,0.2281 1.8376,-2.5083 5.0535,2.7362 1.1485,2.9645 4.5941,0.4561 0.6891,-3.1925 -2.2972,-1.8242 0.9188,-2.2802 3.2159,-1.3681 -1.1485,-1.8242 h -2.7565 l -2.986,-3.1926 1.8376,-7.5249 2.0673,-0.456 2.5267,3.1924 h 2.7565 l 0.2296,-3.1924 5.5129,0.228 2.297,3.6485 h 4.594 l 0.6891,4.1044 3.4456,-0.456 1.6079,4.3326 2.9861,-2.5084 4.1347,2.9644 0.2296,2.7363 2.5268,1.5962 1.1485,-4.7885 -2.5267,-2.9645 2.9861,-1.8242 2.9861,1.3682 2.0673,-0.228 -0.9188,-4.5606 3.905,-0.456 2.5268,3.4204 3.2158,-1.1401 3.2158,1.5961 -0.9189,2.2803 -3.6753,0.456 2.5269,1.5963 -1.608,2.0523 2.0674,1.5961 4.3642,-2.0521 2.7565,2.5082 -2.5267,2.9643 4.8237,0.2281 2.9862,-1.3682 5.7425,2.7364 1.6079,5.4726 -2.7564,2.7363 1.6079,1.3682 3.2158,-1.5962 1.6079,1.5962 0.2298,2.2804 3.4455,2.2802 v 3.4205 l -3.4455,1.8242 1.3781,2.2802 5.0536,-0.9121 2.7563,2.9643 2.2971,-1.5961 -0.4594,-2.0523 2.7564,-0.684 3.9049,0.9121 0.6892,2.9643 h 3.2158 l 1.1485,2.0522 -2.5268,1.5963 -5.0533,-0.228 0.2296,2.7362 6.6614,0.2281 3.9048,-1.8242 3.216,0.6841 -0.4595,-4.1046 -2.7565,-2.2802 0.6892,-2.7363 6.2019,-1.1402 2.5268,3.6484 -3.4456,5.0167 2.0674,2.0522 3.905,-1.5961 -1.8377,-2.9645 h 4.8237 l 3.4456,3.4205 2.5267,-2.9644 3.6753,0.228 2.7564,4.1046 -3.2158,1.3681 1.3781,2.5083 h 3.6753 l 0.6891,3.8766 -1.8377,2.2802 h 5.2832 l 0.6891,-1.1402 2.4572,-0.4726 0.9394,5.769 -0.48,2.6207 4.5599,1.6678 1.2001,-1.906 -2.64,-1.1912 -0.4801,-1.4295 5.52,-0.953 6.2399,5.0032 1.92,-0.7147 2.6399,1.1912 v -3.0972 l -2.8799,-0.4765 0.24,-2.1442 4.3199,-2.6208 2.88,1.906 1.68,-0.7146 -0.4801,-3.3355 h 2.4001 l 1.4399,-0.9531 -1.4399,-2.1442 1.68,-1.4295 2.3999,2.3825 0.2398,-3.3355 -2.3998,-1.6677 1.44,-2.3824 4.7998,0.9529 -1.1998,-2.3824 1.68,-1.6677 3.3598,-0.4766 0.72,-1.4294 4.0799,2.1441 -1.2,1.906 0.7201,4.0502 2.6399,-2.1442 h 1.6799 l -0.2399,5.2415 1.68,0.4764 0.4799,2.8591 3.84,-0.9531 2.8799,3.0972 -0.4799,2.6208 2.88,2.1442 -1.2001,2.8589 1.92,1.4296 2.4,-0.2383 -0.96,-2.6208 2.3999,0.4765 0.72,-1.9059 4.08,0.4765 0.2401,3.3355 h 3.5998 l 2.64,-1.9061 1.68,0.4766 -0.72,4.0501 3.36,1.4295 -0.96,4.2885 2.6399,1.9059 h 2.88 l 3.6,3.8121 -1.68,2.3825 3.36,2.1441 3.1199,-1.1911 2.1599,3.3354 2.88,-1.1912 3.1199,4.2884 -1.9199,0.7147 1.44,5.0032 3.6,1.906 2.6399,-2.8589 2.8799,6.6709 -1.6799,5.0032 1.6799,0.953 4.8,-2.1443 1.44,3.812 -2.64,1.1912 0.96,4.2884 -4.0799,2.3826 3.1199,2.3824 3.84,-1.4295 2.4,2.8591 -2.4,1.9059 0.48,4.2885 -1.9199,2.8589 5.2798,2.3825 4.8,-3.0973 3.36,2.1444 0.4799,3.0971 4.3079,2.4128 v 3e-4 l -240.5055,37.248 -3.0736,-4.3002 -7.5847,1.8016 -3.0203,4.5184 -6.2037,3.0093 -10.0753,1.2915 0.8467,-6.4745 -5.9683,-4.4307 -8.6399,7.1475 h -5.9999 l -3.12,-3.5737 2.6218,-9.9521 -5.2617,-6.0105 -6.3272,6.3824 -6.7594,-3.7281 -3.5999,-6.9092 -0.941,-7.2033 -9.8906,-5.7498 -4.3199,-1.4295 -4.0799,4.0502 -0.24,2.8589 -5.52,1.906 -4.0799,-5.0032 -4.32,-0.7147 -7.6799,7.8621 -3.1199,14.5331 -5.5199,8.8152 -7.44,2.1443 -5.5198,-3.812 -0.24,-5.2414 -7.6799,-3.0972 -4.3199,5.0031 -11.0399,3.8119 h -7.1999 l -2.16,-3.3354 -1.4399,-0.4765 v 94.8226 l -3.12,3.3333 -6.4799,2.3846 -5.2799,0.7147 -0.9867,-3.6208 2.9933,-2.0737 2.4867,-4.2414 0.2399,-4.5267 -4.7999,-2.6207 -4.7999,3.0972 0.96,3.5738 -5.3399,5.9102 -10.5466,1.9776 -7.6799,0.2382 -8.3999,-3.3354 -4.5598,0.4765 -2.64,2.3825 -8.1599,-1.1935 -6.9267,-5.4796 -0.24,-5.2415 -6.5865,-2.6923 -4.5599,3.3355 -5.4294,4.6091 -10.26,3.264 -2.978,3.8182 0.2381,4.1592 -3.12,5.4796 h -4.5599 l -5.7599,-6.1944 -9.3599,-2.6207 -5.28,-4.0502 v -5.7179 l -1.583,-3.4034 -3.1281,-2.8039 -6.1088,0.6101 -3.8705,2.5641 z"
     style="display:inline;fill:#fefee9;fill-opacity:1;stroke:#646464;stroke-width:0.64000005;stroke-linecap:butt;stroke-linejoin:round;stroke-miterlimit:4;stroke-dasharray:none;stroke-opacity:1"
     id="Puerto_Asis,_Código_DANE_:_86568" />
  <path
     d="m 1187.4315,647.585 -203.12823,31.7171 -4.3524,-2.4127 -0.4799,-3.0971 -3.36,-2.1443 -4.8,3.0972 -5.2798,-2.3825 1.9199,-2.8589 -0.48,-4.2885 2.4,-1.9059 -2.4,-2.8591 -3.84,1.4295 -3.1199,-2.3824 4.0799,-2.3826 -0.96,-4.2884 2.64,-1.1911 -1.44,-3.8121 -4.8,2.1443 -1.6799,-0.9529 1.6799,-5.0032 -2.8799,-6.671 -2.6399,2.8589 -3.6,-1.906 -1.44,-5.0032 1.9199,-0.7147 -3.1199,-4.2884 -2.88,1.1912 -2.1599,-3.3354 -3.1199,1.1911 -3.36,-2.1442 1.68,-2.3824 -3.6,-3.812 h -2.88 l -2.6399,-1.906 0.96,-4.2885 -3.36,-1.4294 0.72,-4.0502 -1.68,-0.4766 -2.64,1.9061 h -3.5998 l -0.2401,-3.3355 -4.08,-0.4765 -0.72,1.9059 -2.3999,-0.4764 0.96,2.6208 -2.4,0.2383 -1.92,-1.4297 1.2001,-2.8589 -2.88,-2.1442 0.4799,-2.6208 -2.8799,-3.0972 -3.84,0.9531 -0.4799,-2.8591 -1.68,-0.4764 0.2399,-5.2415 h -1.6799 l -2.6399,2.1443 -0.7201,-4.0503 1.2,-1.906 -4.0799,-2.1441 -0.72,1.4294 -3.3598,0.4766 -1.68,1.6676 1.1998,2.3825 -4.7998,-0.9529 -1.44,2.3824 2.3998,1.6677 -0.2398,3.3355 -2.3999,-2.3825 -1.68,1.4295 1.4399,2.1442 -1.4399,0.9531 h -2.4001 l 0.4801,3.3354 -1.68,0.7147 -2.88,-1.906 -4.3199,2.6208 -0.24,2.1442 2.8799,0.4765 v 3.0972 l -2.6399,-1.1912 -1.92,0.7147 -6.2399,-5.0032 -5.52,0.9531 0.4801,1.4294 2.64,1.1913 -1.2001,1.9059 -4.5599,-1.6678 0.48,-2.6206 -0.9394,-5.7691 -2.4572,0.4726 -0.6891,1.1402 h -5.2832 l 1.8377,-2.2802 -0.6891,-3.8766 h -3.6753 l -1.3781,-2.5083 3.2158,-1.3681 -2.7564,-4.1046 -3.6753,-0.228 -2.5267,2.9644 -3.4456,-3.4205 h -4.8237 l 1.8377,2.9645 -3.905,1.5962 -2.0674,-2.0523 3.4456,-5.0166 -2.5268,-3.6485 -6.2019,1.1402 -0.6892,2.7363 2.7565,2.2802 0.4595,4.1047 -3.216,-0.6842 -3.9048,1.8242 -6.6614,-0.228 -0.2296,-2.7363 5.0533,0.228 2.5268,-1.5963 -1.1485,-2.0521 h -3.2158 l -0.6892,-2.9644 -3.9049,-0.9121 -2.7564,0.684 0.4594,2.0523 -2.2971,1.5962 -2.7563,-2.9644 -5.0536,0.9121 -1.3781,-2.2802 3.4455,-1.8243 v -3.4204 l -3.4455,-2.2802 -0.2298,-2.2803 -1.6079,-1.5963 -3.2158,1.5963 -1.6079,-1.3683 2.7564,-2.7363 -1.6079,-5.4726 -5.7425,-2.7363 -2.9862,1.3681 -4.8237,-0.2281 2.5267,-2.9642 -2.7565,-2.5083 -4.3642,2.0521 -2.0674,-1.5961 1.608,-2.0523 -2.5269,-1.5962 3.6753,-0.456 0.9189,-2.2804 -3.2158,-1.5961 -3.2158,1.1401 -2.5268,-3.4203 -3.905,0.456 0.9188,4.5605 -2.0673,0.228 -2.9861,-1.3682 -2.9861,1.8242 2.5267,2.9645 -1.1485,4.7885 -2.5268,-1.5962 -0.2296,-2.7363 -4.1347,-2.9643 -2.9861,2.5083 -1.6079,-4.3326 -3.4456,0.456 -0.6891,-4.1044 h -4.594 l -2.297,-3.6485 -5.5129,-0.228 -0.2296,3.1925 h -2.7565 l -2.5267,-3.1925 -2.0673,0.456 -1.8376,7.5249 2.986,3.1926 h 2.7565 l 1.1485,1.8242 -3.2159,1.3681 -0.9188,2.2802 2.2972,1.8242 -0.6891,3.1926 -4.5941,-0.4562 -1.1485,-2.9644 -5.0535,-2.7362 -1.8376,2.5082 -4.8238,-0.228 -0.4594,-3.8765 -6.4317,-3.8765 -1.8377,1.8243 -8.9582,1.1402 -2.7564,-2.7364 2.2969,-4.7886 -1.3782,-3.1923 -4.5757,-1.965 0.8668,-2.1026 1.5274,0.5055 1.6969,-2.527 -1.1879,-2.3585 1.8667,-1.3478 1.6971,-3.8747 -2.2061,-1.8531 1.0183,-6.0648 -3.3943,-3.5378 -0.1696,-4.8856 0.8486,-3.0324 -1.3577,-4.0432 -0.1697,-2.5269 -1.1879,-2.5271 -2.2062,-0.3369 -4.4123,-5.3908 -1.1879,-5.0541 -6.279,-6.9071 -2.3759,-0.1685 -3.9031,-3.7063 -2.3759,0.6739 -2.3758,-1.6846 0.1697,-1.5162 -3.0547,-4.0432 -2.5455,0.6738 -4.9214,-5.3909 -1.5274,-0.1685 0.3395,-3.0323 -2.0365,-1.8532 -0.8486,-3.5377 -3.0546,-1.8532 -0.8485,0.5053 -4.0729,-5.2224 h -5.4305 l -3.0546,-4.0432 -2.3759,0.8424 -1.5273,-2.1901 -1.0183,-3.0324 -3.2243,-1.0108 -1.5273,-3.2008 -2.3758,-1.5163 h -1.5274 l 0.3394,-2.5269 c 0,0 0,-1.0109 -0.6788,-1.0109 -0.6788,0 -3.5637,0 -3.5637,0 l -2.2061,-1.0107 0.509,-1.0108 -1.5273,-2.0216 -0.3395,-1.6847 -5.2608,-2.3586 -1.3575,-3.0323 -2.5456,-1.3478 -1.6971,-3.5378 -3.2243,-2.19 -0.8485,-3.7063 1.1879,-1.0108 0.6788,-1.6847 -1.8667,-1.3476 0.3395,-5.7279 -2.376,-3.8748 -10.1821,-5.7278 -0.6789,-2.3585 -9.3336,-6.7387 -2.7153,-0.1685 v -4.0432 l -3.7334,-0.1685 -1.6971,-2.3584 -4.2426,1.0108 v -1.6847 l -7.1275,-4.0432 -4.9214,1.1793 -1.0183,-3.0324 -4.7516,-2.1901 -1.5274,-3.8748 -6.6183,-4.5486 -2.7154,-4.8854 -2.885,-1.8531 -5.4305,-7.4126 -0.8484,-3.3693 -2.2061,-1.1793 -1.5274,-6.7387 2.0364,-3.0324 1.5273,-0.1684 1.188,-4.3801 5.4305,-2.864 1.3576,-2.5269 6.2366,-2.9482 7.169,-7.0751 0.9178,4.1419 5.798,6.2222 3.6768,-0.8486 2.2626,0.8486 1.4141,2.5455 6.3636,3.8181 0.5657,2.4041 3.9595,1.5555 0.7071,1.8384 -1.1313,1.8384 0.8485,4.6666 2.2627,0.707 4.2423,-0.1414 2.9697,3.2526 3.3939,1.1313 0.1415,0.8484 1.6969,0.1415 2.8283,-2.9696 h 1.5556 l 1.1313,2.4039 1.8383,-0.2829 0.7071,-1.1313 0.5657,-3.818 1.4142,-0.5658 1.1313,-1.9798 0.4242,-3.3939 1.9798,-1.9798 3.3939,-0.4242 0.5657,1.4141 4.6667,2.6868 h 3.9595 l 2.6869,-2.4039 0.6869,-2.0351 2.4584,-2.1594 h 5.7368 l 1.902,2.7992 4.8816,-0.5349 2.1944,1.4218 1.2689,2.1489 3.8579,-0.3174 3.005,-1.3495 1.3659,3.2391 -1.3659,2.1593 2.4586,2.6993 -0.2732,2.9692 4.644,2.1595 1.9122,-1.3496 2.0123,-2.8185 3.8244,-0.8099 2.4586,-2.4293 h 2.7318 v 1.3496 l 3.6153,1.9397 2.9409,-1.3998 4.0976,3.5089 3.5512,-1.6193 0.2732,-2.9695 2.1295,-4.1029 1.0832,-2.9779 2.7008,-1.1888 2.8704,1.744 0.3834,2.6913 2.1855,2.239 4.6901,-1.707 3.8667,-2.612 3.0369,-1.1908 3.9683,6.6821 3.7783,1.1803 2.9277,-0.9156 -3.6037,-5.4863 3.037,-3.2627 h 3.278 l 9.4473,0.2363 10.3805,-4.8588 3.5512,-4.0488 -1.0926,-3.779 -4.9172,0.8098 -6.0097,-4.8587 v -4.0489 l 2.1853,-1.8894 3.0049,1.6195 7.9221,3.509 h 6.8294 l 3.0049,-1.8894 v -2.9692 l -4.0976,-2.6992 -0.8195,-2.1594 3.278,-1.6196 6.5563,0.5399 7.1025,4.3187 6.0098,5.6684 8.4685,1.8894 2.4585,1.3498 4.9171,0.5398 6.5561,-2.6993 3.2782,-5.3984 6.0098,-1.8896 3.392,1.6532 5.2381,-2.4293 6.2249,-5.646 -4.6042,-7.0629 v -3.7789 l -7.4326,-1.798 -0.2333,-3.4991 4.2044,-1.4276 5.8322,2.3277 2.0373,0.4527 5.8858,-0.2264 5.6593,3.8483 6.3384,0.9055 6.1121,-3.3956 7.6967,2.2638 4.3011,-0.2264 3.8483,-4.3011 3.8484,-1.811 4.0747,5.433 -2.2637,5.6593 2.2637,9.5077 6.1121,0.2264 4.0747,-11.3187 -3.3955,-9.9605 -6.7913,-2.49 -1.811,-2.9429 4.5275,-3.1692 9.5077,3.3956 14.9406,18.3362 10.8659,7.244 8.6023,-3.1693 5.6593,2.7165 -0.4527,6.7912 -4.0748,2.7165 -5.433,6.5648 3.8484,3.622 -0.4141,7.4769 -5.1357,2.353 -5.9256,-0.3921 -1.5802,3.5293 5.5306,3.9217 2.7654,3.5296 3.5553,-5.0981 5.5308,-1.1765 6.3207,5.8825 6.3208,0.7843 3.1603,5.0982 -1.9752,4.706 v 3.5295 l 2.7654,6.6669 h 3.1603 l 1.9752,3.1373 0.7902,3.9217 5.9256,1.1766 8.2961,3.1373 4.4975,5.4923 -2.7153,5.0539 0.3394,6.4017 9.5033,9.7711 10.5216,-0.3369 1.0183,-4.0432 7.467,-8.7602 6.4487,-0.337 6.4487,2.3585 -2.0364,4.0432 2.3758,4.3802 h 4.7517 l 5.4305,3.3693 -1.3576,2.6954 4.7517,7.0756 1.6971,9.4341 5.4305,4.0433 3.0546,-3.0324 0.3394,-3.0325 5.43053,-7.4125 8.1457,-0.337 6.4488,-3.0323 7.4669,-0.6739 4.7517,1.0109 3.0546,4.3801 5.4305,1.3477 2.0365,-3.3694 10.5216,-3.0324 11.8793,-8.0864 11.2004,-3.7061 2.3758,1.3476 8.8246,7.0756 2.0364,6.0648 -0.6788,2.3586 v 6.0647 l 7.1275,5.7279 6.7882,-1.0109 6.7882,-0.3368 2.7152,4.3801 4.4122,2.0216 3.3942,-3.3694 11.5397,-1.0108 7.8064,3.7063 v 5.7279 l 2.7152,2.6954 v 5.7278 l -2.7152,4.3802 -1.3577,4.3801 3.0548,4.3801 6.788,1.3478 2.7153,2.0217 -1.697,3.7061 2.0364,2.3586 -0.6788,3.7063 4.7517,2.0215 v -1.6847 l 7.1276,-2.6954 10.5216,-4.0431 v -3.3693 l 6.4487,-2.3586 3.394,4.7171 -1.697,4.0431 5.4305,7.7495 5.0911,0.3369 7.1275,3.7062 1.3577,2.6955 4.7516,-1.0108 4.4125,1.6847 4.0727,5.3909 9.5034,1.6846 2.3759,-2.6954 11.2004,-3.3693 4.7517,-3.7063 5.7699,-0.6739 4.0729,3.0326 h 4.4123 c 0,0 6.1092,-2.6955 6.1092,-4.0433 0,-1.3477 0.6789,-7.0757 0.6789,-7.0757 l 3.394,-2.6954 5.4305,0.337 1.6971,4.0431 -1.3576,2.3586 4.0728,7.4125 4.7517,1.6846 5.77,-1.6846 4.7516,1.0108 -0.3394,3.7063 2.7153,4.3801 6.1189,4.0099 z"
     style="display:inline;fill:#fefee9;fill-opacity:1;stroke:#646464;stroke-width:0.64000005;stroke-linecap:butt;stroke-linejoin:round;stroke-miterlimit:4;stroke-dasharray:none;stroke-opacity:1"
     id="Puerto_Guzman,_Código_DANE_:_86571" />
  <path
     d="m 743.73987,716.5737 239.0116,-36.9936 204.68003,-31.9951 108.5525,-151.9993 4.7233,-1.978 9.5058,3.4579 6.9619,2.4708 2.6399,5.9561 0.2401,8.3387 -6.4799,6.1945 -0.4801,5.0032 -6.7199,3.3353 v 6.671 l 8.88,6.1944 3.3599,-2.3824 10.5598,0.4765 9.8399,7.3856 -0.24,8.1005 5.52,1.906 5.7598,5.9562 -0.48,5.7178 -1.92,2.3825 0.72,9.7682 -10.5598,7.3856 h -3.3599 l -5.04,6.9093 1.2001,7.8622 3.1199,0.7146 4.3199,3.812 v 9.0534 l 3.6,5.4797 6.7198,0.9529 7.9199,5.9562 -0.24,10.0064 -8.6399,4.0502 -2.8798,-0.9529 -3.36,2.1442 0.72,5.4797 10.0798,2.1442 8.8928,1.6314 7.2661,4.6316 10.7467,-1.0215 10.3198,-5.0032 4.32,-6.1945 12.7198,-8.8151 7.4399,-4.0503 9.3598,2.859 c 0,0 1.4401,6.1945 1.2001,8.577 -0.2401,2.3824 -2.4,2.6207 -2.4,2.6207 l 1.92,5.7179 -5.04,2.6208 -1.1999,4.5267 3.5999,2.8589 13.1998,-6.671 8.8799,-2.6207 12.4798,2.1443 9.12,-5.4797 6.2398,1.4294 v 3.3356 l 4.6753,8.1184 2.23,11.9913 1.1999,8.3386 10.1829,6.3316 3.977,6.0573 -0.96,7.8622 -11.7598,6.6708 -5.76,-1.1911 -4.7998,9.2916 4.5598,5.718 v 6.6709 l -2.6398,6.6708 3.1198,4.5269 7.9199,8.5768 4.5599,-0.4766 5.04,5.9563 -0.48,10.0064 c 0,0 -8.8799,5.2415 -9.8399,5.9563 -0.96,0.7146 -6.0098,-0.2729 -6.0098,-0.2729 l -1.9101,4.5613 2.64,7.6239 5.9999,2.6208 16.7998,12.1505 5.5199,9.2917 7.6799,1.1912 10.7998,-5.4796 1.92,-4.0504 9.5999,-2.1441 21.8397,5.9562 13.6798,17.9199 19.1997,5.9048 4.7999,-2.8589 0.96,-3.812 15.1199,1.1912 11.0398,7.3858 6.4799,-0.2383 2.16,-3.8121 9.1199,-2.6207 27.1196,10.2446 4.8,9.0536 9.5999,3.0971 12.9598,15.7244 0.9599,10.0064 -3.4228,-5.616 -0.72,15.7244 5.76,5.2415 -4.8,13.58 -6.7199,4.0502 -9.3599,-4.5268 -2.88,-4.0501 -3.8398,0.4765 -1.92,5.9561 8.3998,8.1005 11.7599,2.1441 10.3199,-5.7178 9.1198,4.5267 0.24,11.1976 c 0,0 -11.2798,10.7211 -12.4799,11.9125 -1.1999,1.1911 -11.2798,0.4763 -11.2798,0.4763 l -6.2399,-1.906 -1.92,9.2917 12.7198,12.1507 6.96,0.4765 15.8397,18.8216 -0.72,8.815 -10.0798,8.1005 -7.6799,2.3825 v 8.5769 l 5.2799,2.6208 7.6799,-4.765 4.7999,-10.4829 5.76,-2.3825 16.5598,6.1944 3.4703,10.5898 -5.0911,10.1079 -8.1458,4.0432 3.7335,6.7387 9.164,-1.6847 26.1343,11.1187 9.8427,-0.6738 9.1641,5.7279 4.4123,-0.6739 1.6969,-4.3802 -7.1274,-12.1295 v -5.0539 l 7.4668,-3.7064 7.8064,5.3909 4.0729,21.5638 9.1639,4.3801 12.5581,-1.0107 6.4488,-12.1297 2.7152,-19.879 5.4305,-3.0324 10.1822,2.3585 8.8246,9.0972 -2.7153,9.4341 -12.2186,5.054 -2.7153,8.0864 2.7153,4.7171 11.2004,-1.3477 4.4122,-6.4018 4.4123,-1.6846 4.7518,2.0215 -1.3576,5.054 -7.1275,4.3802 -2.0365,5.3909 1.0182,3.3693 6.0073,0.06 6.9818,-4.0247 5.3677,-11.8006 6.6649,-6.456 10.32,-4.1946 11.9466,-2.7981 10.1822,1.0109 12.5581,15.1618 4.0729,9.7711 6.788,1.6847 17.3098,-7.4125 6.7881,5.7278 -1.3576,8.0864 -9.164,5.054 -5.7699,7.4125 1.2529,14.2904 13.5762,10.108 2.0365,6.7386 7.1276,2.6954 7.8063,5.0242 h 9.5033 l 1.6972,-6.0648 0.044,-5.2373 4.0729,-7.4126 9.4599,1.2241 10.1823,13.1404 -2.3758,18.8682 7.7628,5.8356 8.7814,-1.1024 5.091,-3.3695 2.3759,-8.4233 16.9704,-12.8035 4.7516,0.674 18.328,21.5636 2.0364,11.4557 11.5399,1.0108 6.4486,-6.4017 7.1276,-0.6738 3.3941,2.0215 0.6789,10.7819 3.7334,2.3585 -3.3941,6.7387 3.5952,4.9555 6.9471,1.441 0.9131,8.523 8.0209,7.0729 39.9803,8.1731 3.7334,3.3693 27.1526,7.7495 5.4305,-3.0324 6.1092,2.0217 h 2.376 l 22.0801,17.7778 -349.7399,98.2432 -5.0852,-5.4646 -3.5076,-1.9618 -4.1242,9.1827 -6.9824,3.4512 -5.609,-3.2245 -1.3805,-9.2052 3.7767,-18.2987 -3.1268,-9.1856 -9.1812,-4.2461 -11.5834,2.6604 -7.9863,-3.1712 -0.7614,-12.7028 -6.389,0.5285 -3.1946,11.6281 h -7.9864 l -3.7271,-6.8712 5.8569,-10.0423 -4.792,-3.6998 -5.3242,5.2854 -5.996,2.5654 -8.4713,-4.5181 -5.7125,-8.2004 -0.9331,-5.5227 1.697,-3.0324 -2.6676,-7.7189 -5.5469,-2.9396 -12.5476,-2.3451 -2.5106,-9.1489 2.2839,-5.3726 -9.9358,-7.107 -5.4659,-2.1702 -4.3724,2.1702 -8.1985,-1.6276 -0.5466,-4.3407 3.8259,-4.3407 -2.1862,-8.6814 -18.0369,5.4258 -3.826,7.0537 -11.4778,2.1703 -4.9192,-2.7129 -7.2576,-6.9398 -0.5266,-6.7561 4.5048,-5.8373 v -4.3406 l -1.6397,-2.1704 -9.2917,3.2556 -2.1864,6.511 -5.4656,5.4259 -7.1054,-1.0852 -7.1055,-11.9369 -0.5464,-9.7666 5.4656,-5.4259 -2.1863,-7.0535 -12.5712,-13.0221 -0.5464,-15.735 -6.8877,-17.5973 -6.5589,-4.8833 c 0,0 -4.9192,-8.1389 -5.4657,-10.3091 -0.5466,-2.1703 -15.5308,-6.8415 -15.5308,-6.8415 l -10.158,-7.2658 -0.5465,-4.3406 h -3.8261 l -0.5465,3.798 3.2794,5.9685 -0.5465,8.1389 -6.0124,3.2554 -5.4656,9.7666 -8.1986,11.3943 -11.4779,2.1704 -4.3727,-2.1704 -4.3725,-0.5426 -8.0204,-3.8606 -5.0973,-10.2466 -0.5465,-9.7665 -4.9191,-1.6278 -4.9192,4.3405 1.0663,5.9536 -1.0406,5.6037 -5.2474,-0.6865 -4.6164,-5.9874 -1.8263,-7.594 -13.0924,-2.2025 -7.0162,-7.123 -5.4742,-1.5534 3.9064,-7.5712 -2.7328,-12.4796 -4.9191,-3.2553 -12.0245,2.7128 -12.5711,-3.7981 -12.0246,-11.3943 -2.7328,-12.4795 -15.8505,-8.6814 -6.0123,-9.224 -7.1055,-2.7129 -6.0121,1.0852 -27.3286,-5.4258 -10.6464,-11.937 -9.2917,-8.1387 -8.1985,-0.5425 -18.5834,10.309 v 5.4259 l -2.1863,12.4795 -12.5711,9.7666 -9.2918,9.2239 -18.0366,5.4259 -5.4658,-2.1704 -13.1177,-8.6815 -21.0546,-2.1703 -8.7451,-5.4257 -9.2916,-2.713 -3.826,4.3407 -13.1177,5.4258 -22.9559,-6.511 -11.4779,-11.937 -7.1054,-1.6276 -4.3727,-8.1389 -10.9313,-4.3407 -12.0245,-0.5426 -11.4781,-7.5961 -7.1054,-8.6814 -10.9313,-2.1704 -6.5589,3.7981 -9.0039,-1.0292 -7.6519,-6.5111 3.2794,-8.6813 -1.6397,-9.7667 -6.0123,-2.1703 -6.0123,1.0852 -13.6642,-8.1388 -7.6519,-10.8517 -5.4659,-1.0851 -3.8259,4.8832 2.7329,3.2556 -5.4657,3.2554 -7.1054,-1.6277 -6.5588,-5.4259 -21.604,2.6572 -9.8296,-3.2956 -5.091,2.0216 -13.5763,0.337 -9.16393,1.3476 -5.7224,-3.63 -1.4287,-6.4779 -9.8192,-3.3694 -8.9826,3.3799 -4.4123,-4.0431 2.0364,-6.0648 -3.0546,-12.4665 -11.8793,-6.7387 -10.1821,-12.8033 -1.0183,-7.0757 -5.0912,-2.3586 -4.0727,0.6739 v 2.3585 l -5.4305,4.0432 -4.7518,-1.0108 -2.7152,-5.054 0.3394,-3.0323 -1.0182,-3.0325 -3.7336,-0.6738 -4.7516,-3.0324 1.6971,-3.0323 -1.3578,-7.7496 -3.7333,-5.0539 h -5.0912 l -6.788,-7.0757 v -4.38 l -4.7518,-5.391 -5.4305,-3.3693 h -8.4208 l -4.2367,-4.3038 1.0474,-5.1738 8.5554,-1.9781 0.6789,-5.054 -2.0365,-0.337 -1.3576,1.3477 -5.77,-1.6846 -5.7698,-4.717 -14.5946,-2.6955 -2.7152,-2.6955 -3.7335,-1.0107 -3.0546,-5.054 3.0546,-2.0217 1.6971,1.0108 5.4305,-1.6846 -0.3393,-4.7171 h -3.0548 l -4.0728,-4.0432 -2.5808,-8.9775 1.3578,-3.7062 -7.467,-7.4126 -6.4488,-2.3585 -7.1276,2.0215 -8.8245,-4.3801 -3.394,-7.7495 1.3576,-1.6846 -2.7153,-6.0648 -4.7516,0.3371 -11.8793,-1.3479 -4.7517,2.3585 -0.3394,3.7063 -7.1276,6.7387 -4.7516,3.0324 -6.7881,-4.7171 -2.7153,-5.7279 2.7153,-6.0647 1.0182,-8.4234 -5.4306,-3.7062 -2.3758,-4.3801 1.0182,-4.7171 -2.0364,-3.3693 -5.7699,-0.674 -6.2687,0.3345 z"
     style="display:inline;fill:#fefee9;fill-opacity:1;stroke:#646464;stroke-width:0.64000005;stroke-linecap:butt;stroke-linejoin:round;stroke-miterlimit:4;stroke-dasharray:none;stroke-opacity:1"
     id="Puerto_Leguizamo,_Código_DANE_:_86573" />
  <path
     d="m 339.87257,737.7837 77.5207,6.7117 -26.949,-108.8023 -5.0911,1.0108 -5.4305,-1.3479 -3.3942,1.3479 0.3394,2.0215 -10.1822,4.0432 -1.0182,2.6955 -9.1639,-1.3478 -6.7882,2.3587 -5.7699,-1.3479 -2.3758,-5.054 -7.3357,-1.381 -4.86,-2.26 -0.9662,-3.0695 -4.831,2.494 -4.2513,6.5223 -8.5027,1.7265 h -2.8987 l -3.8647,1.5347 -3.6716,3.8366 -10.0486,2.1102 -9.4688,-0.5756 -1.7392,-2.6856 -7.5364,0.9592 -12.1742,-3.2611 -1.3528,-1.5348 -13.72,3.8367 -3.0918,1.9183 -3.2851,-0.5755 -6.377,-2.4938 -5.0243,-2.8774 -11.981,-2.3021 -4.0582,1.151 -7.7296,-3.0693 -6.1836,-8.0571 -2.5123,-10.7426 0.7731,-1.5346 -1.7392,-2.6857 -1.3528,-1.7266 -1.5458,-5.5631 -2.8987,-2.8775 -45.92487,82.3369 -1.99478,3.1116 -4.01994,2.7884 -0.47403,3.5587 2.8384,0.7294 0.27595,4.393 4.13898,4.1182 -1.37973,1.9219 -1.37963,-0.2745 -1.65557,-2.1965 h -2.48331 l -1.10378,3.5693 4.41493,3.5692 -0.27595,1.0982 -1.37962,0.5491 -2.48342,3.2947 -1.93152,-2.1964 -3.86304,0.2745 -0.27594,3.0202 2.89728,4.8048 -4.5904,1.0141 2.07818,4.4562 0.68768,9.8003 4.81419,1.5474 1.71936,6.1897 -0.51584,3.0947 11.00384,4.6422 -0.34389,6.0177 -5.50187,3.2668 -0.85973,2.579 4.64224,2.9229 2.92288,6.8774 3.7825,2.0632 4.12655,-4.1265 6.0176,1.3755 6.26,-4.3732 5.3937,-16.9848 3.305,-1.2394 0.2066,1.6525 6.8164,1.859 2.4787,-1.6525 1.4459,-2.0656 1.8591,-0.2065 2.2721,-2.2722 -1.6525,-2.0656 -0.2065,-2.2721 1.6525,0.2065 c 0,0 0.2065,-4.9575 0.2065,-5.7837 0,-0.8263 -4.9574,-6.8164 -4.9574,-6.8164 l -3.718,-0.8263 1.4459,-3.5114 -1.4459,-1.0329 v -3.0983 l 4.1311,-0.4132 4.5443,-3.3049 v -2.6854 l -1.859,-1.8589 9.2952,-2.8919 5.9903,19.4167 20.4493,1.4458 8.2624,-21.0691 16.3182,1.8591 6.61,4.5443 0.6196,4.1312 4.3378,1.2394 1.0327,-1.8591 4.9575,-0.4131 3.0984,3.5115 4.1311,0.2065 2.6854,3.7181 1.6524,0.8263 1.2394,-2.2721 1.859,-0.2067 0.2066,2.8919 2.2721,1.446 2.0656,-1.2394 2.4787,1.4459 v 3.3049 l -2.4787,1.446 -2.6852,-0.2066 -0.8263,1.6525 1.6525,0.6196 4.9575,-0.6196 4.1312,1.6524 0.2065,4.3377 3.718,4.5444 -0.4131,4.1312 -1.4458,1.4459 0.2065,1.859 1.6524,0.4131 1.6525,5.5772 z"
     style="fill:#fefee9;fill-opacity:1;stroke:#646464;stroke-width:0.64000005;stroke-linecap:butt;stroke-linejoin:round;stroke-miterlimit:4;stroke-dasharray:none;stroke-opacity:1"
     id="Valle_del_Guamuez,_Código_DANE_:_86865" />
  <path
     d="m 167.46397,772.8959 5.4549,-17.1729 3.305,-1.2394 0.2066,1.6525 6.8164,1.859 2.4787,-1.6525 1.4459,-2.0656 1.8591,-0.2065 2.2721,-2.2722 -1.6525,-2.0656 -0.2065,-2.2721 1.6525,0.2065 c 0,0 0.2065,-4.9575 0.2065,-5.7837 0,-0.8263 -4.9574,-6.8164 -4.9574,-6.8164 l -3.718,-0.8263 1.4459,-3.5114 -1.4459,-1.0329 v -3.0983 l 4.1311,-0.4132 4.5443,-3.3049 v -2.6854 l -1.859,-1.8589 9.2952,-2.8919 5.9903,19.4167 20.4493,1.4458 8.2624,-21.0691 16.3182,1.8591 6.61,4.5443 0.6196,4.1312 4.3378,1.2394 1.0327,-1.8591 4.9575,-0.4131 3.0984,3.5115 4.1311,0.2065 2.6854,3.7181 1.6524,0.8263 1.2394,-2.2721 1.859,-0.2067 0.2066,2.8919 2.2721,1.446 2.0656,-1.2394 2.4787,1.4459 v 3.3049 l -2.4787,1.446 -2.6852,-0.2066 -0.8263,1.6525 1.6525,0.6196 4.9575,-0.6196 4.1312,1.6524 0.2065,4.3377 3.718,4.5444 -0.4131,4.1312 -1.4458,1.4459 0.2065,1.859 1.6524,0.4131 1.6525,5.5772 40.5393,-27.441 77.5545,6.7386 11.7819,52.6905 -3.0858,3.1199 -4.08,-1.1912 -4.08,-3.812 2.1601,-4.5266 -0.9399,-1.312 -3.5599,-0.1901 -2.96,-1.9542 -1.7199,-3.9295 -4.32,0.7147 -1,3.6679 -5.2133,-0.5941 -6.2665,-4.0266 -0.9601,-2.859 -6.4799,2.3824 -0.72,4.2885 -5.0399,-0.7148 -2.6399,-5.2415 -3.84,-2.1441 -0.24,-2.3826 h -4.5599 l -5.7599,3.0973 -2.88,5.2415 -4.8,3.8119 -3.8399,-0.953 -5.5199,5.0032 3.8399,3.3354 6.4799,-0.4764 v 2.8591 l -2.8799,0.9529 -2.64,2.3824 -10.3199,-2.1442 -1.9199,-2.1442 -6.24,-2.3824 -2.1599,-2.6208 -15.4465,4.0011 -4.32,3.0971 h -8.8798 l -1.44,-1.6677 -2.16,1.1912 -0.72,2.3826 -5.9999,3.3354 -2.64,-2.3825 -6.7198,1.6677 -12.9598,-5.0032 -0.48,-1.9059 -3.36,2.859 0.96,1.9059 -7.1999,3.3355 -4.2599,-0.5257 -4.1523,-5.6558 -7.5501,-1.546 -3.9375,-5.0887 -0.24,-3.0973 2.4,-1.9059 -1.5866,-3.0961 -6.5733,3.0961 -0.48,3.3355 -10.5665,-1.3826 -0.96,-2.1441 -6.48,1.906 -2.3999,2.3825 -4.56,-2.6207 -2.8452,-5.2415 -7.6358,-6.1716 v -3.453 l -2.319,-2.6857 -3.0919,-0.9592 -4.8309,1.9183 -2.5122,3.4532 -5.0243,5.212 -4.4445,-1.5346 -1.3528,-2.8776 -4.9102,-1.9304 z"
     style="fill:#fefee9;fill-opacity:1;stroke:#646464;stroke-width:0.64000005;stroke-linecap:butt;stroke-linejoin:round;stroke-miterlimit:4;stroke-dasharray:none;stroke-opacity:1"
     id="San_Miguel,_Código_DANE_:_86757" />
  <path
     d="m 143.14268,333.8175 -5.89835,9.3747 3.31371,-0.5595 4.79882,1.1426 2.74219,3.4278 v 1.8281 l 1.82816,0.6856 2.97076,5.2559 -0.91412,1.8281 v 3.6562 l 0.91412,1.5997 0.6856,2.0567 9.1407,7.7696 6.8554,2.0566 h 3.4278 l 5.2558,4.5703 15.0822,4.5703 3.4277,2.0567 3.8848,-0.9141 0.914,-2.5137 7.7696,-3.8847 2.2852,-1.8282 h 1.8281 v 3.1993 l 6.8556,4.3418 7.541,0.2285 1.8282,-0.9141 1.8281,0.4571 4.5703,6.8554 -1.8281,4.1133 v 1.3711 l 7.7695,5.4845 0.9141,7.3125 -2.9707,1.8282 1.3711,1.3711 -1.3711,1.3711 -0.2285,1.5995 2.2851,0.2286 0.2286,4.1133 -2.2852,1.8282 3.4278,3.4277 -0.2286,7.7695 v 2.9708 l -2.5137,2.0566 0.2286,1.3711 4.7988,0.4571 1.0067,4.1379 4.0402,2.9627 4.5787,0.5387 v 1.8854 l 6.7335,9.4268 2.9627,-0.808 -0.2693,3.5014 2.6933,6.4641 3.5015,1.8854 5.3868,-5.9254 7.8107,-1.3468 3.2321,-1.8853 h 1.0774 l 0.808,1.616 9.4268,0.808 1.9759,-1.1176 5.6307,-4.5369 5.7699,-0.337 3.7335,-1.5161 2.206,-2.8639 4.582,0.1684 1.697,3.3693 12.3884,0.1685 v -1.3477 l 3.0546,-0.5054 5.6002,0.8423 0.8486,-1.3478 2.7152,-1.3476 4.2427,2.3834 157.8877,5.4966 6.4798,1.1912 4.8,0.2383 4.08,-2.3826 -0.2401,-2.1441 2.1601,-1.1914 0.96,-7.6239 40.8008,-1.4227 -0.5566,-6.1691 -2.0365,-1.8531 1.0182,-1.5161 -2.0365,-4.0433 -2.5456,-1.3477 -1.1878,-1.8532 1.3576,-3.3693 -0.8485,-3.5378 -1.6969,-1.1793 0.1697,-2.0215 1.5273,-2.0217 -0.5091,-3.8747 -3.2244,-2.6954 0.1697,-1.8531 -2.0365,-2.1902 -3.0545,0.5055 -1.5275,-3.0325 0.1697,-1.6847 -1.0182,-2.5269 -2.8848,-1.5162 -0.8485,-2.3586 0.509,-1.6847 -1.8667,-3.3692 -0.5091,-2.5271 -5.2608,-3.8746 -0.1697,-1.5163 -3.3941,-1.5162 -4.4123,-0.8422 -5.0911,-3.3694 -1.3575,-1.8531 -7.8066,-4.5486 -9.5032,-8.9288 -6.7882,-8.5917 -8.6549,-10.6134 -9.3337,-7.581 -3.9031,-4.2117 -2.0365,-4.0431 -6.7881,-3.3694 -20.3644,-23.4169 -0.6789,-4.5485 -4.7517,-3.0325 -2.3758,-8.0863 -2.7153,-7.244 v -5.0541 l -25.4554,12.1297 -9.5033,5.5593 -22.91,9.2657 -8.9943,8.7602 -2.3758,5.3909 -2.5456,2.6955 1.368,5.3815 5.2503,1.5256 3.0548,-2.3584 1.3577,-2.3586 4.2425,2.0215 3.7334,0.5055 0.1698,3.8747 1.3576,2.3586 2.7151,0.6738 0.5092,3.2009 -1.5274,3.3692 2.3759,4.2118 3.9031,4.3801 1.6971,4.3802 -0.8485,3.2007 -1.697,1.3479 1.0182,2.3585 1.188,1.8531 -0.3394,5.8963 -1.6971,2.6955 1.0183,1.6846 2.2061,2.3585 -0.8485,4.8855 3.2243,5.2225 0.1697,2.6955 2.5456,2.8639 1.5274,-0.337 0.6787,1.5162 -0.6787,3.201 1.1878,2.3585 -3.2243,-0.3369 -1.1879,-3.201 -2.3758,-0.1684 -1.188,-1.0108 -0.1697,-2.3586 -1.3576,-1.0107 h -3.0546 l -0.8486,-4.0432 -1.188,-2.0216 -0.5091,-3.0323 c 0,0 0.6789,-0.1685 1.0183,-0.8424 0.3393,-0.674 1.0182,-6.7387 1.0182,-6.7387 l -3.2244,-5.054 -3.0547,-0.6738 -0.5091,-2.5271 -2.7151,-3.0324 -3.7336,-1.6846 -0.8485,-5.0539 0.3394,-2.5272 -2.2061,-3.3693 -6.1093,-0.8423 -2.7153,2.1902 -5.9395,0.3368 -2.5456,2.3586 -6.7882,-1.0108 -2.7152,1.3477 -9.3336,1.1793 -2.0365,-3.0324 -6.7882,-1.5162 c 0,0 -2.3758,-3.3694 -3.2243,-3.5378 -0.8485,-0.1685 -11.8793,-3.2009 -11.8793,-3.2009 l -4.4122,1.0108 -0.6788,1.6847 -5.6003,1.3477 -4.4122,3.3693 -160.25315,-12.4785 z"
     style="fill:#fefee9;fill-opacity:1;stroke:#646464;stroke-width:0.64000005;stroke-linecap:butt;stroke-linejoin:round;stroke-miterlimit:4;stroke-dasharray:none;stroke-opacity:1"
     id="Villa_Garzón,_Código_DANE_:_86885" />
  <path
     d="m 353.10327,454.1146 -4.2364,-2.3868 -2.7152,1.3476 -0.8485,1.3478 -5.6002,-0.8423 -3.0547,0.5054 v 1.3477 l -12.3884,-0.1685 -1.6969,-3.3693 -4.582,-0.1684 -2.2061,2.8639 -3.7335,1.5161 -5.7699,0.337 -5.6307,4.5369 -1.9759,1.1176 -9.4268,-0.808 -0.808,-1.616 h -1.0774 l -3.2321,1.8853 -7.8107,1.3468 -5.3868,5.9254 -3.5015,-1.8854 -2.6933,-6.4641 0.2693,-3.5014 -2.9627,0.808 -6.7335,-9.4268 v -1.8854 l -4.5787,-0.5387 -4.0402,-2.9627 -1.0067,-4.1379 -4.7988,-0.4571 -0.2286,-1.3711 2.5137,-2.0566 v -2.9708 l 0.2286,-7.7695 -3.4278,-3.4277 2.2852,-1.8282 -0.2286,-4.1133 -2.2851,-0.2286 0.2285,-1.5995 1.3711,-1.3711 -1.3711,-1.3711 2.9707,-1.8282 -0.9141,-7.3125 -7.7695,-5.4845 v -1.3711 l 1.8281,-4.1133 -4.5703,-6.8554 -1.8281,-0.4571 -1.8282,0.9141 -7.541,-0.2285 -6.8556,-4.3418 v -3.1993 h -1.8281 l -2.2852,1.8282 -7.7696,3.8847 -0.914,2.5137 -3.8848,0.9141 -3.4277,-2.0567 -15.0822,-4.5703 -5.2558,-4.5703 h -3.4278 l -6.8554,-2.0566 -9.1407,-7.7696 -0.6856,-2.0567 -0.91412,-1.5997 v -3.6562 l 0.91412,-1.8281 -2.97076,-5.2559 -1.82816,-0.6856 v -1.8281 l -2.74219,-3.4278 -4.79882,-1.1426 -3.33568,0.5787 -1.13142,7.758 1.95883,8.186 -1.56704,6.6269 -2.74229,3.5083 -0.65238,5.3201 v 0 l -1.24842,5.6284 -5.51862,10.7078 -0.82773,7.4131 -9.93355,11.5314 -8.82976,3.5692 -4.41482,3.5691 1.37962,4.9422 4.41483,5.4911 -1.65696,3.149 0.97419,5.2906 -1.95104,2.718 1.17066,3.6886 -30.13077,111.7924 3.72501,3.0201 9.93344,12.2873 9.24374,5.6285 14.20448,-0.073 7.31221,0.9609 5.51851,6.0403 -0.41387,1.9219 h -2.06944 l 0.27595,4.8048 -2.48342,1.51 0.13803,3.432 4.13888,3.7065 -0.96576,2.4711 -1.65557,1.3726 v 3.432 h -2.89728 l -3.72502,-3.981 -3.17322,4.5302 -0.41387,16.1989 9.79552,9.1977 -1.10368,4.6674 -1.51765,2.1964 5.65653,5.4912 v 3.432 l -2.34539,1.9219 0.41387,2.0592 4.27691,2.3337 2.06954,5.6285 3.0352,1.6473 -0.41386,3.8438 -1.37963,3.2946 v 2.3032 l -3.03531,4.1184 0.38454,4.3735 2.34186,6.8695 1.79702,1.1103 3.64597,-1.0546 1.50656,1.5416 3.17643,2.8451 45.82855,-82.2962 2.8987,2.8775 1.5458,5.5631 1.3528,1.7266 1.7392,2.6857 -0.7731,1.5346 2.5123,10.7426 6.1836,8.0571 7.7296,3.0693 4.0582,-1.151 11.981,2.3021 5.0243,2.8774 6.377,2.4938 3.2851,0.5755 3.0918,-1.9183 13.7201,-3.8367 1.3528,1.5348 12.1742,3.2611 7.5364,-0.9592 1.7392,2.6856 9.4687,0.5756 10.0486,-2.1102 3.6716,-3.8366 3.8647,-1.5347 h 2.8987 l 8.5027,-1.7265 4.2513,-6.5223 4.831,-2.494 0.9662,3.0695 4.6746,2.1909 73.8751,-98.6189 15.1036,-30.9978 -2.5088,-1.0344 c 0,0 -3.3599,-0.7146 -3.1199,0.4766 0.24,1.1913 0.24,1.4294 0.24,1.4294 l -1.2,1.4296 -4.8,-0.4766 -3.3599,-1.9059 0.48,-2.859 -2.16,-1.1913 -2.4,1.6678 -5.2799,-0.2383 -3.84,-3.5736 1.92,-1.1913 -1.68,-2.6207 -0.24,-2.6207 -0.24,-1.1913 h -2.1599 l -3.84,-3.8119 -0.2399,-5.2415 2.16,-0.2382 1.68,-3.3356 -2.64,-2.1441 -0.48,-2.8591 -1.92,-1.4294 -2.8799,1.906 -2.88,-0.2383 -3.5999,-3.5737 1.6799,-1.6677 -0.7199,-3.5737 -2.16,0.7148 -3.36,-2.6207 -2.4,-0.953 0.96,-2.1443 -1.9199,-3.3355 -2.88,1.1913 -3.8398,-0.953 -1.92,0.953 -4.08,-0.4765 -1.2,-3.812 -1.1999,-0.7147 -1.92,-0.2382 v -2.3976"
     style="fill:#fefee9;fill-opacity:1;stroke:#646464;stroke-width:0.64000005;stroke-linecap:butt;stroke-linejoin:round;stroke-miterlimit:4;stroke-dasharray:none;stroke-opacity:1"
     id="Orito,_Código_DANE_:_86320" />
  <path
     d="m 366.81617,314.6585 0.1348,-1.7523 -3.1002,-1.7522 -1.0783,-2.5612 -2.4264,-0.1347 0.1348,-3.5046 -4.0438,-2.1567 -0.5391,-3.2351 -3.1003,-0.8088 0.4044,-2.1567 2.4263,-1.4826 -0.5392,-3.5047 h -1.8871 l -1.3479,2.2914 -2.1567,-0.2695 0.2695,-1.7523 1.0784,-1.348 -0.2696,-2.4262 -3.7742,0.8087 -5.9309,-3.6394 -0.2696,-0.8088 2.4263,-1.3479 -0.2697,-7.5484 2.4264,-6.4701 3.235,-0.5392 0.9436,-2.561 -2.9655,-4.7178 v -3.3699 l 1.8872,-1.0783 -0.8088,-3.6395 -10.7836,-5.1221 -1.0783,-3.235 -2.4262,-1.3479 0.2696,-1.8872 3.5046,-3.5046 0.6739,-2.2916 -2.0219,-2.4262 0.8088,-1.6175 7.4136,-2.2915 1.6175,-2.6959 2.6959,-1.0783 7.9529,-14.2881 4.3134,-4.3134 v -2.022 l -2.1567,-2.1567 v -0.9434 h 2.4262 l 1.7523,-3.2351 0.1349,-5.257 4.9873,-4.8526 h 3.3698 l 1.8871,-3.5046 -2.2915,-1.3478 -3.6393,0.1347 -1.7524,1.7523 -5.1221,-0.1347 -0.5392,-2.4264 -5.6613,-0.4043 -1.4828,1.8871 -1.7523,-0.2696 -0.2696,-1.4827 h -1.2131 l -0.9436,1.4827 -1.0783,-1.348 -3.2351,-0.5391 -3.6394,-4.7177 -1.8871,-0.8089 -6.7397,0.9436 -3.3698,2.6959 h -5.257 l -11.9966,-15.5013 -5.5265,-0.4043 -4.7177,-1.0784 -1.348,-2.1567 -1.8871,0.1348 -0.5392,1.3479 -5.3917,-1.4827 -0.674,-2.6959 -1.0783,-1.0783 1.2131,-0.5392 0.6739,-6.3353 -0.5391,-4.7177 -3.6394,-0.4044 -2.9655,-2.5611 -0.1348,-6.6049 -2.1567,-1.2131 -4.3886,0.521 -1.388,2.6394 -1.7447,0.2908 -0.2907,6.2518 -7.7059,9.596 0.727,3.6348 0.8723,0.4361 -0.4362,2.1809 3.4894,6.8335 v 9.1597 l 6.1066,7.7058 -0.1454,2.9079 4.9432,2.617 0.1454,1.8901 -2.0354,1.5993 0.1454,5.9611 -8.4327,9.4505 -7.1243,3.7802 -3.344,-0.2908 -1.5994,-1.8901 -2.4716,0.5815 -6.8334,3.1988 -6.1065,-0.5817 -1.8901,-1.5992 -8.7235,3.1986 -1.454,3.4894 -1.1631,0.7269 h -2.6171 l -1.1631,3.1987 -7.3147,-2.6341 -0.8644,1.7668 -1.4745,0.8192 2.1299,2.1299 -1.6384,1.3107 -2.7853,0.9831 -0.4915,1.6384 1.9661,2.9491 -0.4915,2.2938 -1.3108,0.1638 -0.983,2.7853 3.4406,2.1299 -0.983,2.9491 -1.4746,0.4915 v 3.9322 c 0,0 -3.1129,1.6384 -3.7683,1.9661 -0.6553,0.3277 -4.7514,7.209 -4.7514,7.209 l -0.4916,5.5706 4.26,0.3277 1.6384,1.6384 3.1129,-0.1639 0.4916,-3.9321 3.1129,0.3277 1.6384,-1.4746 0.6554,1.3107 3.7683,0.4915 1.8022,-2.6214 1.6384,0.1638 v 2.4576 l 1.6384,1.3108 1.1469,-0.9831 1.4746,0.4915 1.9661,3.7684 0.6553,-0.9831 h 1.9661 l 2.1299,2.2938 1.6385,-2.1299 h 3.4407 l 2.6214,2.7852 1.8022,0.1639 1.4746,3.6045 3.6045,1.966 3.7683,1.1469 1.3107,2.9491 3.2768,1.3108 -1.1469,0.8192 v 1.8022 l 1.1469,0.4915 0.6554,1.8023 -1.6384,0.6553 0.1638,1.1469 3.9322,-0.6554 3.2768,2.7854 3.7683,-1.6385 h 1.8024 l 0.6553,1.3109 5.5706,2.1299 8.192,1.4745 3.4406,2.6215 0.1639,1.3107 3.7683,1.3107 1.3107,-1.8022 3.4406,0.1638 0.6554,1.3107 1.8022,2.7853 h 3.4408 l 2.6214,2.7853 4.2599,0.4915 1.1468,1.6384 0.5961,3.398 4.3807,2.7716 0.12,2.6207 4.4398,2.7398 2.2801,0.7148 0.8399,2.1442 h 2.1601 l 2.28,-1.1912 -0.24,-1.1913 3.4799,-1.1911 5.9999,2.025 2.76,3.3355 -1.8,1.3104 2.52,1.072 h 2.64 l 2.9999,1.6677 3.72,-1.1911 0.36,-1.5486 2.6399,-0.3574 0.12,-1.1913 2.16,-1.4294 2.52,2.3824 -1.2,1.0721 1.2,1.1913 1.9655,-0.7228 1.8127,-4.9104 z"
     style="fill:#fefee9;fill-opacity:1;stroke:#646464;stroke-width:0.64000005;stroke-linecap:butt;stroke-linejoin:round;stroke-miterlimit:4;stroke-dasharray:none;stroke-opacity:1"
     id="San_Francisco,_Código_DANE_:_86755" />
  <path
     d="m 145.49329,327.1907 4.70112,-2.7288 5.87646,-8.576 0.3918,-6.237 -2.7424,-1.949 -2.74229,-5.4574 -1.95882,-1.949 -1.56704,-7.4066 -3.13408,-4.6778 -7.44352,-1.1692 -3.91766,-4.288 -3.13408,-9.3557 -1.95882,-1.5592 3.13408,-5.0675 0.39178,-11.3048 0.78347,-5.8471 -3.52587,-10.5249 -0.78346,-9.3557 0.78346,-6.6268 -1.95872,-3.5083 3.52587,-3.5083 3.91755,-6.237 -4.30934,-3.8982 -2.7424,-5.4574 3.37216,-2.7016 3.72971,2.3311 1.39861,2.4864 4.50678,0.3109 3.41888,2.4865 2.4865,-3.1081 9.79055,-0.3108 1.8648,-0.9325 4.5067,-5.75 3.8851,-1.3986 2.4865,0.6217 3.7297,-0.7771 2.3311,-1.8648 2.1757,-0.1555 1.2432,1.2433 5.9054,2.6419 h 2.3311 l 0.4662,-1.0878 1.2432,-1.0879 5.75,0.9325 10.8783,10.7228 0.777,4.196 3.2635,3.2635 2.1757,-0.4663 1.554,-1.0878 h 1.7095 v 1.8649 l 6.5347,7.3304 -0.967,1.6651 -1.4745,0.8192 2.1299,2.1299 -1.6384,1.3107 -2.7853,0.9831 -0.4915,1.6384 1.9661,2.9491 -0.4915,2.2938 -1.3108,0.1638 -0.983,2.7853 3.4406,2.1299 -0.983,2.9491 -1.4746,0.4915 v 3.9322 c 0,0 -3.1129,1.6384 -3.7683,1.9661 -0.6553,0.3277 -4.7514,7.209 -4.7514,7.209 l -0.4916,5.5706 4.26,0.3277 1.6384,1.6384 3.1129,-0.1639 0.4916,-3.9321 3.1129,0.3277 1.6384,-1.4746 0.6554,1.3107 3.7683,0.4915 1.8022,-2.6214 1.6384,0.1638 v 2.4576 l 1.6384,1.3108 1.1469,-0.9831 1.4746,0.4915 1.9661,3.7684 0.6553,-0.9831 h 1.9661 l 2.1299,2.2938 1.6385,-2.1299 h 3.4407 l 2.6214,2.7852 1.8022,0.1639 1.4746,3.6045 3.6045,1.966 3.7683,1.1469 1.3107,2.9491 3.2768,1.3108 -1.1469,0.8192 v 1.8022 l 1.1469,0.4915 0.6554,1.8023 -1.6384,0.6553 0.1638,1.1469 3.9322,-0.6554 3.2768,2.7854 3.7683,-1.6385 h 1.8024 l 0.6553,1.3109 5.5706,2.1299 8.192,1.4745 3.4406,2.6215 0.1639,1.3107 3.7683,1.3107 1.3107,-1.8022 3.4406,0.1638 0.6554,1.3107 1.8022,2.7853 h 3.4408 l 2.6214,2.7853 4.2599,0.4915 1.1468,1.6384 0.5961,3.398 4.3806,2.7716 0.12,2.6207 4.4399,2.7398 2.28,0.7148 0.84,2.1442 h 2.16 l 2.28,-1.1912 -0.24,-1.1913 3.48,-1.1911 5.9999,2.025 2.76,3.3355 -1.8,1.3104 2.52,1.072 h 2.6399 l 3,1.6677 3.7199,-1.1911 0.3601,-1.5486 2.6399,-0.3574 0.1198,-1.1913 2.1602,-1.4294 2.52,2.3824 -1.2,1.0721 1.2,1.1913 1.9109,-0.6702 2.3063,1.5421 2.7152,-0.1685 2.0009,-0.5054 5.1266,1.5162 3.0548,-2.3584 1.3577,-2.3586 4.2425,2.0215 3.7334,0.5055 0.1698,3.8747 1.3576,2.3586 2.7151,0.6738 0.5092,3.2009 -1.5274,3.3692 2.3759,4.2118 3.9031,4.3801 1.6971,4.3802 -0.8485,3.2007 -1.697,1.3479 1.0182,2.3585 1.188,1.8531 -0.3394,5.8963 -1.6971,2.6955 1.0183,1.6846 2.2061,2.3585 -0.8485,4.8855 3.2243,5.2225 0.1697,2.6955 2.5456,2.8639 1.5274,-0.337 0.6787,1.5162 -0.6787,3.201 1.1878,2.3585 -3.2243,-0.3369 -1.1879,-3.201 -2.3758,-0.1684 -1.188,-1.0108 -0.1697,-2.3586 -1.3576,-1.0107 h -3.0546 l -0.8486,-4.0432 -1.188,-2.0216 -0.5091,-3.0323 c 0,0 0.6789,-0.1685 1.0183,-0.8424 0.3393,-0.674 1.0182,-6.7387 1.0182,-6.7387 l -3.2244,-5.054 -3.0547,-0.6738 -0.5091,-2.5271 -2.7151,-3.0324 -3.7336,-1.6846 -0.8485,-5.0539 0.3394,-2.5272 -2.2061,-3.3693 -6.1093,-0.8423 -2.7153,2.1902 -5.9395,0.3368 -2.5456,2.3586 -6.7882,-1.0108 -2.7152,1.3477 -9.3336,1.1793 -2.0365,-3.0324 -6.7882,-1.5162 c 0,0 -2.3758,-3.3694 -3.2243,-3.5378 -0.8485,-0.1685 -11.8793,-3.2009 -11.8793,-3.2009 l -4.4122,1.0108 -0.6788,1.6847 -5.6003,1.3477 -4.4122,3.3693 -160.02648,-12.5205 z"
     style="fill:#fefee9;fill-opacity:1;stroke:#646464;stroke-width:0.64000005;stroke-linecap:butt;stroke-linejoin:round;stroke-miterlimit:4;stroke-dasharray:none;stroke-opacity:1"
     id="Santiago,_Código_DANE_:_86760" />
  <path
     d="m 220.74267,220.1781 -6.6824,-7.304 v -1.8648 h -1.7095 l -1.554,1.0877 -2.1757,0.4663 -3.2635,-3.2635 -0.777,-4.1959 -10.8783,-10.7229 -5.75,-0.9325 -1.2432,1.0879 -0.4662,1.0878 h -2.3311 l -5.9054,-2.6418 -1.2432,-1.2433 -2.1757,0.1554 -2.3311,1.8648 -3.7297,0.7771 -2.4865,-0.6217 -3.8851,1.3987 -4.5067,5.7499 -1.8648,0.9325 -9.79055,0.3108 -2.4865,3.1081 -3.41888,-2.4865 -4.50678,-0.3108 -1.39861,-2.4864 -3.6528,-2.3448 0.0768,-5.8607 7.44352,-8.1861 2.7424,0.7796 13.7117,-5.4574 3.5258,-5.4575 6.2683,-7.7961 3.9176,-3.1186 1.1753,1.9491 7.0518,-0.7796 5.8764,-5.8473 7.8352,-2.3388 7.0518,-8.9657 6.2756,-4.574 4.0866,1.6244 3.3569,-2.4041 0.7836,-4.6778 2.4582,-2.118 6.9144,2.9365 1.0137,3.0412 -0.1689,3.2102 5.0687,1.8585 8.11,-1.5206 6.369,-5.8199 3.7803,4.6526 0.1454,3.9256 -4.9434,4.9433 -3.9255,2.9079 -0.5817,3.7801 1.1632,3.1987 2.3263,0.8724 -0.1454,2.7624 -1.3086,1.0177 -1.0177,2.9079 1.5993,1.1632 1.4539,4.2163 -2.3263,3.7802 v 9.5959 l -3.0532,0.2908 -2.9078,2.9078 -0.5816,5.9611 1.8901,2.7624 0.1453,3.1988 -6.1064,4.0709 -0.8723,4.9434 -2.4717,3.7801 -3.344,4.2164"
     style="fill:#fefee9;fill-opacity:1;stroke:#646464;stroke-width:0.64000005;stroke-linecap:butt;stroke-linejoin:round;stroke-miterlimit:4;stroke-dasharray:none;stroke-opacity:1"
     id="Colon,_Código_DANE_:_86219" />
  <path
     d="m 526.18387,308.9578 -0.5431,-4.6144 -7.1059,-2.9435 -4.0976,-0.2699 -3.2781,0.5398 -5.8911,-1.666 -5.1766,-1.9553 -1.5453,-2.6721 -3.8633,-2.2906 -3.477,0.382 -3.8634,-3.4357 0.3863,-3.8173 -2.7042,-5.726 -2.3179,-3.0538 -2.318,-8.0165 -0.7726,-2.672 -0.3865,-3.8174 -4.2496,-4.1989 3.4771,-2.6722 -0.7726,-4.9627 -1.5454,-3.4355 5.7951,-5.3442 3.4767,-6.8711 2.3179,-6.4896 -1.9315,-3.8173 v -6.1078 l 3.8632,-6.4895 -0.7726,-2.6721 0.7726,-3.0537 4.2497,-9.1616 v -3.8173 l 2.7042,-4.9626 1.5453,-6.4895 -2.923,0.067 -3.6786,-5.7257 -5.9966,-4.5809 -9.1044,-5.3442 1.5624,-4.2667 -3.4769,-1.1452 -0.7727,-5.7259 3.5112,-5.7261 -3.6787,-6.4895 v -5.7258 l -6.6017,-2.6722 -1.5454,-6.8712 5.0565,-4.5808 0.3862,-6.8713 3.0907,-4.5808 -3.0907,-4.9625 -4.2496,-2.2902 0.3865,-3.4357 3.8631,-2.672 0.7727,-7.2531 1.1589,-4.9625 -3.8678,-2.0804 3.7716,-6.069 -1.5949,-6.1439 -9.2556,-0.6815 -0.1669,-5.2065 -3.932,-0.6612 -2.5471,-3.0665 0.5055,-4.2848 -5.6411,-5.2585 -4.6577,-1.2951 -11.2035,-6.4894 -1.1589,-3.0538 1.1589,-5.3443 -2.318,-3.8173 -8.4992,-4.1991 -4.6358,-1.5268 -0.7726,-3.4357 -3.477,-2.2903 -6.5676,0.7634 -5.7949,4.9626 -4.6358,6.1076 -8.5733,5.2958 -3.0907,-1.1452 -3.4769,3.0538 -8.8856,4.9625 -8.1128,2.2905 -9.4825,4.2086 -8.4992,5.3443 h -9.2718 l -2.7042,-0.7634 -4.2497,3.4355 -10.4308,2.2904 -13.9076,8.3982 -9.2719,3.8173 -3.477,2.6722 -10.3567,0.812 -3.4768,-0.3819 -5.0224,1.1453 -5.0222,-3.0538 -2.7207,0.055 -2.9209,5.8671 1.0151,6.4413 -4.5681,3.9634 -1.9588,4.6779 -3.5259,2.3389 -0.4513,3.1742 -2.5344,1.3516 -0.6406,1.3301 1.2618,2.8458 1.8587,3.3792 3.0413,1.5207 1.1827,4.3928 -2.0274,2.1965 -2.0275,0.3379 -0.9474,2.4207 5.7961,1.0783 0.5392,6.6049 0.8088,0.8088 2.561,-2.0219 6.0657,0.2695 1.0783,-1.0782 h 2.2916 l 0.9435,3.5046 3.6395,4.3807 4.4481,-0.4717 2.1567,1.2131 0.1348,6.6049 2.9655,2.5611 3.6394,0.4044 0.5391,4.7177 -0.6739,6.3353 -1.2131,0.5392 1.0783,1.0783 0.674,2.6959 5.3917,1.4827 0.5392,-1.3479 1.8871,-0.1348 1.348,2.1567 4.7177,1.0784 5.5265,0.4043 11.9966,15.5013 h 5.257 l 3.3698,-2.6959 6.7397,-0.9436 1.8871,0.8089 3.6394,4.7177 3.2351,0.5391 1.0783,1.348 0.9436,-1.4827 h 1.2131 l 0.2696,1.4827 1.7523,0.2696 1.4828,-1.8871 5.6613,0.4043 0.5392,2.4264 5.1221,0.1347 1.7524,-1.7523 3.6393,-0.1347 2.2915,1.3478 -1.8871,3.5046 h -3.3698 l -4.9873,4.8526 -0.1349,5.257 -1.7523,3.2351 h -2.4262 v 0.9434 l 2.1567,2.1567 v 2.022 l -4.3134,4.3134 -7.9529,14.2881 -2.6959,1.0783 -1.6175,2.6959 -7.4136,2.2915 -0.8088,1.6175 2.0219,2.4262 -0.6739,2.2916 -3.5046,3.5046 -0.2696,1.8872 2.4262,1.3479 1.0783,3.235 10.7836,5.1221 0.8088,3.6395 -1.8872,1.0783 v 3.3699 l 2.9655,4.7178 -0.9436,2.561 -3.235,0.5392 -2.4264,6.4701 0.2697,7.5484 -2.4263,1.3479 0.2696,0.8088 5.9309,3.6394 3.7742,-0.8087 0.2696,2.4262 -1.0784,1.348 -0.2695,1.7523 2.1567,0.2695 1.3479,-2.2914 h 1.8871 l 0.5392,3.5047 -2.4263,1.4826 -0.4044,2.1567 3.1003,0.8088 0.5391,3.2351 4.0438,2.1567 -0.1348,3.5046 2.4264,0.1347 1.0783,2.5612 3.1002,1.7522 -0.1348,1.7523 -1.0785,1.0134 -1.767,4.989 2.1287,1.5377 2.7599,-0.1788 1.9997,-0.3971 -1.4578,-5.5105 2.5455,-2.6955 2.3758,-5.3909 8.9943,-8.7602 22.91,-9.2657 9.5033,-5.5593 25.4555,-12.1297 v 5.0541 l 2.7153,7.244 2.3758,8.0863 4.7517,3.0325 0.6788,4.5485 20.3645,23.4169 6.788,3.3694 2.0365,4.0431 3.9031,4.2117 9.3337,7.581 8.6549,10.6134 6.7882,8.5917 9.5032,8.9288 7.8066,4.5486 1.3575,1.8531 5.0911,3.3694 4.4123,0.8422 3.3941,1.5162 0.1697,1.5163 5.2608,3.8746 0.5091,2.5271 1.8667,3.3692 -0.509,1.6847 0.8485,2.3586 2.8848,1.5162 1.0182,2.5269 -0.1697,1.6847 1.5275,3.0325 3.0545,-0.5055 2.0365,2.1902 -0.1697,1.8531 3.2244,2.6954 0.5091,3.8747 -1.5273,2.0217 -0.1697,2.0215 1.697,1.1793 0.8485,3.5378 -1.3576,3.3693 1.1879,1.8532 2.5456,1.3477 2.0364,4.0433 -1.0182,1.5161 2.0365,1.8531 0.5606,6.1978 43.113,1.3887 -1.0782,-3.2064 -3.2243,-1.0108 -1.5274,-3.2008 -2.3758,-1.5163 h -1.5273 l 0.3394,-2.5269 c 0,0 0,-1.0109 -0.679,-1.0109 -0.6788,0 -3.5636,0 -3.5636,0 l -2.2061,-1.0107 0.509,-1.0107 -1.5272,-2.0217 -0.3395,-1.6847 -5.2608,-2.3586 -1.3576,-3.0323 -2.5456,-1.3478 -1.697,-3.5378 -3.2244,-2.1899 -0.8485,-3.7064 1.188,-1.0108 0.6788,-1.6847 -1.8668,-1.3476 0.3395,-5.7279 -2.376,-3.8748 -10.1821,-5.7277 -0.6789,-2.3585 -9.3335,-6.7388 -2.7153,-0.1684 v -4.0432 l -3.7335,-0.1686 -1.697,-2.3584 -4.2426,1.0108 v -1.6847 l -7.1276,-4.0432 -4.9214,1.1793 -1.0182,-3.0324 -4.7517,-2.1901 -1.5273,-3.8748 -6.6184,-4.5486 -2.7153,-4.8854 -2.885,-1.8531 -5.4305,-7.4126 -0.8484,-3.3693 -2.2061,-1.1793 -1.5275,-6.7387 2.0365,-3.0324 1.5272,-0.1684 1.1881,-4.3801 5.4305,-2.864 1.3575,-2.5269 6.237,-3.0154 7.1621,-7.0287 z"
     style="fill:#c12838;fill-opacity:1;stroke:#646464;stroke-width:0.64000005;stroke-linecap:butt;stroke-linejoin:round;stroke-miterlimit:4;stroke-dasharray:none;stroke-opacity:1"
     id="Mocoa,_Código_DANE_:_86001" />
  <path
     d="m 223.73607,215.903 2.4717,-3.7801 0.8723,-4.9434 6.1064,-4.0709 -0.1453,-3.1988 -1.8901,-2.7624 0.5816,-5.9611 2.9078,-2.9078 3.0532,-0.2908 v -9.5959 l 2.3263,-3.7802 -1.4539,-4.2163 -1.5993,-1.1632 1.0177,-2.9079 1.3086,-1.0177 0.1454,-2.7624 -2.3263,-0.8724 -1.1632,-3.1987 0.5817,-3.7801 3.9255,-2.9079 4.9434,-4.9433 -0.1454,-3.9256 -3.7845,-4.696 3.097,-2.923 v -5.0688 l 9.5793,-8.0824 5.9138,1.1059 0.5392,6.6049 0.8088,0.8088 2.561,-2.0219 6.0657,0.2695 1.0783,-1.0782 h 2.2916 l 0.9435,3.5046 3.7696,4.3048 -1.4586,2.7646 -1.7447,0.2908 -0.2907,6.2518 -7.7059,9.596 0.727,3.6348 0.8723,0.4361 -0.4362,2.1809 3.4894,6.8335 v 9.1597 l 6.1066,7.7058 -0.1454,2.9079 4.9432,2.617 0.1454,1.8901 -2.0354,1.5993 0.1454,5.9611 -8.4327,9.4505 -7.1243,3.7802 -3.344,-0.2908 -1.5994,-1.8901 -2.4716,0.5815 -6.8334,3.1988 -6.1065,-0.5817 -1.8901,-1.5992 -8.7235,3.1986 -1.454,3.4894 -1.1631,0.7269 h -2.6171 l -1.1631,3.1987 -7.3215,-2.7106 z"
     style="fill:#fefee9;fill-opacity:1;stroke:#646464;stroke-width:0.64000005;stroke-linecap:butt;stroke-linejoin:round;stroke-miterlimit:4;stroke-dasharray:none;stroke-opacity:1"
     id="Sibundoy,_Código_DANE_:_86749" />
  <g
     id="layer10"
     style="display:inline"
     transform="translate(-847.24863,-6616.7193)">
    <path
       id="path8136"
       style="fill:none;stroke:#646464;stroke-width:2.66666675;stroke-linecap:butt;stroke-linejoin:round;stroke-miterlimit:4;stroke-dasharray:none;stroke-opacity:1"
       d="m 1117.4757,6692.5993 5.0222,3.0538 5.0224,-1.1454 3.4768,0.382 10.3567,-0.812 3.477,-2.6723 9.2719,-3.8172 13.9076,-8.3982 10.4309,-2.2904 4.2497,-3.4355 2.7042,0.7634 h 9.2718 l 8.4992,-5.3443 9.4824,-4.2086 8.1129,-2.2905 8.8855,-4.9626 3.4769,-3.0537 3.0907,1.1452 8.5733,-5.2958 4.6359,-6.1077 5.7949,-4.9625 6.5675,-0.7634 3.477,2.2903 0.7726,3.4356 4.6359,1.5269 8.4992,4.1991 2.3179,3.8173 -1.1589,5.3443 1.1589,3.0538 11.2036,6.4894 4.6577,1.2951 5.641,5.2585 -0.5055,4.2848 2.5471,3.0665 3.9321,0.6611 0.1668,5.2066 9.2557,0.6814 1.5949,6.1439 -3.7716,6.0691 3.8678,2.0804 -1.1589,4.9624 -0.7727,7.2532 -3.8632,2.672 -0.3864,3.4357 4.2496,2.2902 3.0906,4.9625 -3.0906,4.5808 -0.3863,6.8712 -5.0564,4.5808 1.5454,6.8713 6.6017,2.6722 v 5.7258 l 3.6786,6.4895 -3.5111,5.726 0.7727,5.726 3.4769,1.1452 -1.5625,4.2666 9.1044,5.3443 5.9966,4.5809 3.6786,5.7257 2.923,-0.067 -1.5453,6.4895 -2.7042,4.9626 v 3.8173 l -4.2497,9.1616 -0.7726,3.0537 0.7726,2.6721 -3.8631,6.4895 v 6.1078 l 1.9315,3.8172 -2.318,6.4896 -3.4768,6.8712 -5.795,5.3442 1.5454,3.4355 0.7726,4.9627 -3.477,2.6722 4.2496,4.1989 0.3864,3.8174 0.7726,2.672 2.318,8.0164 2.318,3.0539 2.7042,5.726 -0.3864,3.8173 3.8634,3.4357 3.4769,-0.382 3.8634,2.2906 1.5453,2.6721 5.1766,1.9553 5.8911,1.666 3.2781,-0.5398 4.0976,0.2698 7.1059,2.9436 0.543,4.6144 3.6553,3.5738 0.8484,4.101 5.798,6.2222 3.6768,-0.8486 2.2626,0.8486 1.4141,2.5455 6.3636,3.8181 0.5657,2.4041 3.9595,1.5555 0.7071,1.8384 -1.1313,1.8384 0.8485,4.6666 2.2627,0.707 4.2423,-0.1414 2.9697,3.2526 3.3939,1.1313 0.1415,0.8484 1.6969,0.1415 2.8283,-2.9696 h 1.5556 l 1.1313,2.4039 1.8383,-0.2829 0.7071,-1.1313 0.5657,-3.818 1.4142,-0.5658 1.1313,-1.9798 0.4242,-3.3939 1.9798,-1.9798 3.3939,-0.4242 0.5657,1.4141 4.6667,2.6868 h 3.9595 l 2.6869,-2.4039 0.6869,-2.0351 2.4584,-2.1594 h 5.7368 l 1.902,2.7992 4.8816,-0.5349 2.1944,1.4218 1.2689,2.1489 3.8579,-0.3174 3.005,-1.3495 1.3659,3.2391 -1.3659,2.1593 2.4586,2.6993 -0.2732,2.9692 4.644,2.1595 1.9122,-1.3496 2.0123,-2.8185 3.8244,-0.8099 2.4586,-2.4293 h 2.7318 v 1.3496 l 3.6153,1.9397 2.9409,-1.3998 4.0976,3.5089 3.5512,-1.6193 0.2732,-2.9695 2.1295,-4.1029 1.0832,-2.9779 2.7008,-1.1888 2.8704,1.744 0.3834,2.6913 2.1855,2.239 4.6901,-1.707 3.8667,-2.612 3.0369,-1.1908 3.9683,6.6821 3.7783,1.1803 2.9277,-0.9156 -3.6037,-5.4863 3.037,-3.2627 h 3.278 l 9.4473,0.2363 10.3805,-4.8588 3.5512,-4.0488 -1.0926,-3.779 -4.9172,0.8098 -6.0097,-4.8587 v -4.0489 l 2.1853,-1.8894 3.0049,1.6195 7.9221,3.509 h 6.8294 l 3.0049,-1.8894 v -2.9692 l -4.0976,-2.6992 -0.8195,-2.1594 3.278,-1.6196 6.5563,0.5399 7.1025,4.3187 6.0098,5.6684 8.4685,1.8894 2.4585,1.3498 4.9171,0.5398 6.5561,-2.6993 3.2782,-5.3984 6.0098,-1.8896 3.392,1.6532 5.2381,-2.4293 6.2249,-5.646 -4.6042,-7.0629 v -3.7789 l -7.4326,-1.798 -0.2333,-3.4991 4.2044,-1.4276 5.8322,2.3277 2.0373,0.4527 5.8858,-0.2264 5.6593,3.8483 6.3384,0.9055 6.1121,-3.3956 7.6967,2.2638 4.3011,-0.2264 3.8483,-4.3011 3.8484,-1.811 4.0747,5.433 -2.2637,5.6593 2.2637,9.5077 6.1121,0.2264 4.0747,-11.3187 -3.3955,-9.9605 -6.7913,-2.49 -1.811,-2.9429 4.5275,-3.1692 9.5077,3.3956 14.9406,18.3362 10.8659,7.244 8.6023,-3.1693 5.6593,2.7165 -0.4527,6.7912 -4.0748,2.7165 -5.433,6.5648 3.8484,3.622 -0.4141,7.4769 -5.1357,2.353 -5.9256,-0.3921 -1.5802,3.5293 5.5306,3.9217 2.7654,3.5296 3.5553,-5.0981 5.5308,-1.1765 6.3207,5.8825 6.3208,0.7843 3.1603,5.0982 -1.9752,4.706 v 3.5295 l 2.7654,6.6669 h 3.1603 l 1.9752,3.1373 0.7902,3.9217 5.9256,1.1766 8.2961,3.1373 4.4975,5.4923 -2.7153,5.0539 0.3394,6.4017 9.5033,9.7711 10.5216,-0.3369 1.0183,-4.0432 7.467,-8.7602 6.4487,-0.337 6.4487,2.3585 -2.0364,4.0432 2.3758,4.3802 h 4.7517 l 5.4305,3.3693 -1.3576,2.6954 4.7517,7.0756 1.6971,9.4341 5.4305,4.0433 3.0546,-3.0324 0.3394,-3.0325 5.4305,-7.4125 8.1457,-0.337 6.4488,-3.0323 7.4669,-0.6739 4.7517,1.0109 3.0546,4.3801 5.4305,1.3477 2.0365,-3.3694 10.5216,-3.0324 11.8793,-8.0864 11.2004,-3.7061 2.3758,1.3476 8.8246,7.0756 2.0364,6.0648 -0.6788,2.3586 v 6.0647 l 7.1275,5.7279 6.7882,-1.0109 6.7882,-0.3368 2.7152,4.3801 4.4122,2.0216 3.3942,-3.3694 11.5397,-1.0108 7.8064,3.7063 v 5.7279 l 2.7152,2.6954 v 5.7278 l -2.7152,4.3802 -1.3577,4.3801 3.0548,4.3801 6.788,1.3478 2.7153,2.0217 -1.697,3.7061 2.0364,2.3586 -0.6788,3.7063 4.7517,2.0215 v -1.6847 l 7.1276,-2.6954 10.5216,-4.0431 v -3.3693 l 6.4487,-2.3586 3.394,4.7171 -1.697,4.0431 5.4305,7.7495 5.0911,0.3369 7.1275,3.7062 1.3577,2.6955 4.7516,-1.0108 4.4125,1.6847 4.0727,5.3909 9.5034,1.6846 2.3759,-2.6954 11.2004,-3.3693 4.7517,-3.7063 5.7699,-0.6739 4.0729,3.0326 h 4.4123 c 0,0 6.1092,-2.6955 6.1092,-4.0433 0,-1.3477 0.6789,-7.0757 0.6789,-7.0757 l 3.394,-2.6954 5.4305,0.337 1.6971,4.0431 -1.3576,2.3586 4.0728,7.4125 4.7517,1.6846 5.77,-1.6846 4.7516,1.0108 -0.3394,3.7063 2.7153,4.3801 6.1094,4.0432 4.7515,-2.0216 9.5058,3.4579 6.9619,2.4708 2.6399,5.9561 0.2401,8.3387 -6.4799,6.1945 -0.4801,5.0032 -6.7199,3.3353 v 6.671 l 8.88,6.1944 3.3599,-2.3824 10.5598,0.4765 9.8399,7.3856 -0.24,8.1005 5.52,1.906 5.7598,5.9562 -0.48,5.7178 -1.92,2.3825 0.72,9.7682 -10.5598,7.3856 h -3.3599 l -5.04,6.9093 1.2001,7.8622 3.1199,0.7146 4.3199,3.812 v 9.0534 l 3.6,5.4797 6.7198,0.9529 7.9199,5.9562 -0.24,10.0064 -8.6399,4.0502 -2.8798,-0.9529 -3.36,2.1442 0.72,5.4797 10.0798,2.1442 8.8928,1.6314 7.2661,4.6316 10.7467,-1.0215 10.3198,-5.0032 4.32,-6.1945 12.7198,-8.8151 7.4399,-4.0503 9.3598,2.859 c 0,0 1.4401,6.1945 1.2001,8.577 -0.2401,2.3824 -2.4,2.6207 -2.4,2.6207 l 1.92,5.7179 -5.04,2.6208 -1.1999,4.5267 3.5999,2.8589 13.1998,-6.671 8.8799,-2.6207 12.4798,2.1443 9.12,-5.4797 6.2398,1.4294 v 3.3356 l 4.6753,8.1184 2.23,11.9913 1.1999,8.3386 10.1829,6.3316 3.977,6.0573 -0.96,7.8622 -11.7598,6.6708 -5.76,-1.1911 -4.7998,9.2916 4.5598,5.718 v 6.6709 l -2.6398,6.6708 3.1198,4.5269 7.9199,8.5768 4.5599,-0.4766 5.04,5.9563 -0.48,10.0064 c 0,0 -8.8799,5.2415 -9.8399,5.9563 -0.96,0.7146 -6.0098,-0.2729 -6.0098,-0.2729 l -1.9101,4.5613 2.64,7.6239 5.9999,2.6208 16.7998,12.1505 5.5199,9.2917 7.6799,1.1912 10.7998,-5.4796 1.92,-4.0504 9.5999,-2.1441 21.8397,5.9562 13.6798,17.9199 19.1997,5.9048 4.7999,-2.8589 0.96,-3.812 15.1199,1.1912 11.0398,7.3858 6.4799,-0.2383 2.16,-3.8121 9.1199,-2.6207 27.1196,10.2446 4.8,9.0536 9.5999,3.0971 12.9598,15.7244 0.9599,10.0064 -3.4228,-5.616 -0.72,15.7244 5.76,5.2415 -4.8,13.58 -6.7199,4.0502 -9.3599,-4.5268 -2.88,-4.0501 -3.8398,0.4765 -1.92,5.9561 8.3998,8.1005 11.7599,2.1441 10.3199,-5.7178 9.1198,4.5267 0.24,11.1976 c 0,0 -11.2798,10.7211 -12.4799,11.9125 -1.1999,1.1911 -11.2798,0.4763 -11.2798,0.4763 l -6.2399,-1.906 -1.92,9.2917 12.7198,12.1507 6.96,0.4765 15.8397,18.8216 -0.72,8.815 -10.0798,8.1005 -7.6799,2.3825 v 8.5769 l 5.2799,2.6208 7.6799,-4.765 4.7999,-10.4829 5.76,-2.3825 16.5598,6.1944 3.4703,10.5898 -5.0911,10.1079 -8.1458,4.0432 3.7335,6.7387 9.164,-1.6847 26.1343,11.1187 9.8427,-0.6738 9.1641,5.7279 4.4123,-0.6739 1.6969,-4.3802 -7.1274,-12.1295 v -5.0539 l 7.4668,-3.7064 7.8064,5.3909 4.0729,21.5638 9.1639,4.3801 12.5581,-1.0107 6.4488,-12.1297 2.7152,-19.879 5.4305,-3.0324 10.1822,2.3585 8.8246,9.0972 -2.7153,9.4341 -12.2186,5.054 -2.7153,8.0864 2.7153,4.7171 11.2004,-1.3477 4.4122,-6.4018 4.4123,-1.6846 4.7518,2.0215 -1.3576,5.054 -7.1275,4.3802 -2.0365,5.3909 1.0182,3.3693 6.0073,0.06 6.9818,-4.0247 5.3677,-11.8006 6.6649,-6.456 10.32,-4.1946 11.9466,-2.7981 10.1822,1.0109 12.5581,15.1618 4.0729,9.7711 6.788,1.6847 17.3098,-7.4125 6.7881,5.7278 -1.3576,8.0864 -9.164,5.054 -5.7699,7.4125 1.2529,14.2904 13.5762,10.108 2.0365,6.7386 7.1276,2.6954 7.8063,5.0242 h 9.5033 l 1.6972,-6.0648 0.044,-5.2373 4.0729,-7.4126 9.4599,1.2241 10.1823,13.1404 -2.3758,18.8682 7.7628,5.8356 8.7814,-1.1024 5.091,-3.3695 2.3759,-8.4233 16.9704,-12.8035 4.7516,0.674 18.328,21.5636 2.0364,11.4557 11.5399,1.0108 6.4486,-6.4017 7.1276,-0.6738 3.3941,2.0215 0.6789,10.7819 3.7334,2.3585 -3.3941,6.7387 3.5952,4.9555 6.9471,1.441 0.9131,8.523 8.0209,7.0729 39.9803,8.1731 3.7334,3.3693 27.1526,7.7495 5.4305,-3.0324 6.1092,2.0217 h 2.376 l 22.3668,17.6866 -350.0266,98.3344 -5.0852,-5.4646 -3.5076,-1.9618 -4.1242,9.1827 -6.9824,3.4512 -5.609,-3.2245 -1.3805,-9.2052 3.7767,-18.2987 -3.1268,-9.1856 -9.1812,-4.2461 -11.5834,2.6604 -7.9863,-3.1712 -0.7614,-12.7028 -6.389,0.5285 -3.1946,11.6281 h -7.9864 l -3.7271,-6.8712 5.8569,-10.0423 -4.792,-3.6998 -5.3242,5.2854 -5.996,2.5654 -8.4713,-4.5181 -5.7125,-8.2004 -0.9331,-5.5227 1.697,-3.0324 -2.6676,-7.7189 -5.5469,-2.9396 -12.5476,-2.3451 -2.5106,-9.1489 2.2839,-5.3726 -9.9358,-7.107 -5.4659,-2.1702 -4.3724,2.1702 -8.1985,-1.6276 -0.5466,-4.3407 3.8259,-4.3407 -2.1862,-8.6814 -18.0369,5.4258 -3.826,7.0537 -11.4778,2.1703 -4.9192,-2.7129 -7.2576,-6.9398 -0.5266,-6.7561 4.5048,-5.8373 v -4.3406 l -1.6397,-2.1704 -9.2917,3.2556 -2.1864,6.511 -5.4656,5.4259 -7.1054,-1.0852 -7.1055,-11.9369 -0.5464,-9.7666 5.4656,-5.4259 -2.1863,-7.0535 -12.5712,-13.0221 -0.5464,-15.735 -6.8877,-17.5973 -6.5589,-4.8833 c 0,0 -4.9192,-8.1389 -5.4657,-10.3091 -0.5466,-2.1703 -15.5308,-6.8415 -15.5308,-6.8415 l -10.158,-7.2658 -0.5465,-4.3406 h -3.8261 l -0.5465,3.798 3.2794,5.9685 -0.5465,8.1389 -6.0124,3.2554 -5.4656,9.7666 -8.1986,11.3943 -11.4779,2.1704 -4.3727,-2.1704 -4.3725,-0.5426 -8.0204,-3.8606 -5.0973,-10.2466 -0.5465,-9.7665 -4.9191,-1.6278 -4.9192,4.3405 1.0663,5.9536 -1.0406,5.6037 -5.2474,-0.6865 -4.6164,-5.9874 -1.8263,-7.594 -13.0924,-2.2025 -7.0162,-7.123 -5.4742,-1.5534 3.9064,-7.5712 -2.7328,-12.4796 -4.9191,-3.2553 -12.0245,2.7128 -12.5711,-3.7981 -12.0246,-11.3943 -2.7328,-12.4795 -15.8505,-8.6814 -6.0123,-9.224 -7.1055,-2.7129 -6.0121,1.0852 -27.3286,-5.4258 -10.6464,-11.937 -9.2917,-8.1387 -8.1985,-0.5425 -18.5834,10.309 v 5.4259 l -2.1863,12.4795 -12.5711,9.7666 -9.2918,9.2239 -18.0366,5.4259 -5.4658,-2.1704 -13.1177,-8.6815 -21.0546,-2.1703 -8.7451,-5.4257 -9.2916,-2.713 -3.826,4.3407 -13.1177,5.4258 -22.9559,-6.511 -11.4779,-11.937 -7.1054,-1.6276 -4.3727,-8.1389 -10.9313,-4.3407 -12.0245,-0.5426 -11.4781,-7.5961 -7.1054,-8.6814 -10.9313,-2.1704 -6.5589,3.7981 -9.0039,-1.0292 -7.6519,-6.5111 3.2794,-8.6813 -1.6397,-9.7667 -6.0123,-2.1703 -6.0123,1.0852 -13.6642,-8.1388 -7.6519,-10.8517 -5.4659,-1.0851 -3.8259,4.8832 2.7329,3.2556 -5.4657,3.2554 -7.1054,-1.6277 -6.5588,-5.4259 -21.604,2.6572 -9.8296,-3.2956 -5.091,2.0216 -13.5763,0.337 -9.1639,1.3476 -5.7224,-3.63 -1.4287,-6.4779 -9.8192,-3.3694 -8.9826,3.3799 -4.4123,-4.0431 2.0364,-6.0648 -3.0546,-12.4665 -11.8793,-6.7387 -10.1821,-12.8033 -1.0183,-7.0757 -5.0912,-2.3586 -4.0727,0.6739 v 2.3585 l -5.4305,4.0432 -4.7518,-1.0108 -2.7152,-5.054 0.3394,-3.0323 -1.0182,-3.0325 -3.7336,-0.6738 -4.7516,-3.0324 1.6971,-3.0323 -1.3578,-7.7496 -3.7333,-5.0539 h -5.0912 l -6.788,-7.0757 v -4.38 l -4.7518,-5.391 -5.4305,-3.3693 h -8.4208 l -4.2367,-4.3038 1.0474,-5.1738 8.5554,-1.9781 0.6789,-5.054 -2.0365,-0.337 -1.3576,1.3477 -5.77,-1.6846 -5.7698,-4.717 -14.5946,-2.6955 -2.7152,-2.6955 -3.7335,-1.0107 -3.0546,-5.054 3.0546,-2.0217 1.6971,1.0108 5.4305,-1.6846 -0.3393,-4.7171 h -3.0548 l -4.0728,-4.0432 -2.5808,-8.9775 1.3578,-3.7062 -7.467,-7.4126 -6.4488,-2.3585 -7.1276,2.0215 -8.8245,-4.3801 -3.394,-7.7495 1.3576,-1.6846 -2.7153,-6.0648 -4.7516,0.3371 -11.8793,-1.3479 -4.7517,2.3585 -0.3394,3.7063 -7.1276,6.7387 -4.7516,3.0324 -6.7881,-4.7171 -2.7153,-5.7279 2.7153,-6.0647 1.0182,-8.4234 -5.4306,-3.7062 -2.3758,-4.3801 1.0182,-4.7171 -2.0364,-3.3693 -5.7699,-0.674 -6.2687,0.3345 -5.6204,-7.8036 -7.5847,1.8016 -3.0203,4.5184 -6.2037,3.0093 -10.0753,1.2915 0.8467,-6.4745 -5.9683,-4.4307 -8.6399,7.1475 h -5.9999 l -3.12,-3.5737 2.6218,-9.9521 -5.2617,-6.0105 -6.3272,6.3824 -6.7594,-3.7281 -3.5999,-6.9092 -0.941,-7.2033 -9.8906,-5.7498 -4.3199,-1.4295 -4.0799,4.0502 -0.24,2.8589 -5.52,1.906 -4.0799,-5.0032 -4.32,-0.7146 -7.6799,7.862 -3.1199,14.5332 -5.5199,8.8151 -7.44,2.1443 -5.5199,-3.812 -0.24,-5.2414 -7.6798,-3.0972 -4.3199,5.0031 -11.0399,3.812 h -7.1999 l -2.16,-3.3355 -1.4399,-0.4765 v 94.8226 l -3.12,3.3334 -6.4799,2.3845 -5.2799,0.7148 -0.9867,-3.6208 2.9933,-2.0737 2.4867,-4.2414 0.2399,-4.5268 -4.7999,-2.6206 -4.7999,3.0971 0.96,3.5738 -5.3399,5.9102 -10.5466,1.9776 -7.6799,0.2383 -8.3999,-3.3355 -4.5599,0.4765 -2.64,2.3825 -8.1598,-1.1935 -6.9267,-5.4796 -0.24,-5.2415 -6.5865,-2.6922 -4.5599,3.3354 -5.4295,4.6091 -10.2599,3.264 -2.978,3.8182 0.2381,4.1592 -3.12,5.4797 h -4.5599 l -5.7599,-6.1945 -9.3599,-2.6207 -5.28,-4.0502 v -5.7179 l -1.583,-3.4034 -3.1281,-2.8038 -6.1088,0.61 -3.72,2.5015 -3.2399,3.2163 -4.08,-1.1911 -4.0799,-3.8121 2.16,-4.5266 -0.9399,-1.312 -3.5599,-0.19 -2.96,-1.9542 -1.7199,-3.9295 -4.32,0.7147 -1,3.6678 -5.2132,-0.594 -6.2666,-4.0267 -0.96,-2.8589 -6.4799,2.3824 -0.72,4.2885 -5.04,-0.7148 -2.6399,-5.2415 -3.84,-2.1441 -0.24,-2.3826 h -4.5599 l -5.7598,3.0973 -2.88,5.2415 -4.8,3.8119 -3.8399,-0.953 -5.5199,5.0032 3.8399,3.3354 6.4799,-0.4765 v 2.8591 l -2.8799,0.953 -2.64,2.3824 -10.3199,-2.1442 -1.9199,-2.1442 -6.24,-2.3824 -2.1599,-2.6208 -15.4465,4.001 -4.32,3.0972 h -8.8798 l -1.44,-1.6677 -2.16,1.1912 -0.72,2.3825 -5.9999,3.3355 -2.64,-2.3825 -6.7199,1.6677 -12.9598,-5.0032 -0.48,-1.9059 -3.36,2.859 0.96,1.9059 -7.1999,3.3355 -4.2598,-0.5257 -4.1523,-5.6559 -7.5501,-1.5459 -3.9375,-5.0887 -0.24,-3.0973 2.4,-1.9059 -1.5867,-3.0961 -6.5732,3.0961 -0.48,3.3354 -10.5665,-1.3825 -0.96,-2.1441 -6.4799,1.9059 -2.4,2.3825 -4.5599,-2.6206 -2.8452,-5.2415 -7.636,-6.1717 v -3.4529 l -2.3189,-2.6857 -3.0919,-0.9592 -4.831,1.9183 -2.5122,3.4531 -5.0242,5.2121 -4.4446,-1.5346 -1.3527,-2.8776 -4.9102,-1.9304 -1.8913,-1.8912 -6.1896,4.2983 -6.0177,-1.3756 -4.12641,4.1266 -3.78255,-2.0632 -2.92288,-6.8774 -4.64223,-2.9229 0.85968,-2.579 5.50188,-3.2668 0.34388,-6.0177 -11.00379,-4.6422 0.5158,-3.0947 -1.71934,-6.1897 -4.81416,-1.5474 -0.68774,-9.8003 -2.07809,-4.4562 4.59039,-1.0141 -2.89727,-4.8048 0.27592,-3.0202 3.86303,-0.2745 1.93151,2.1963 2.48337,-3.2946 1.37965,-0.5491 0.27593,-1.0982 -4.41488,-3.5692 1.10372,-3.5693 h 2.48337 l 1.65558,2.1965 1.37965,0.2744 1.37965,-1.9218 -4.13894,-4.1183 -0.27594,-4.3929 -2.83842,-0.7294 0.47405,-3.5587 4.01995,-2.7884 2.18524,-3.2091 -3.27062,-2.7883 -1.50653,-1.5416 -3.64594,1.0546 -1.79707,-1.1103 -2.34188,-6.8695 -0.38448,-4.3736 3.03525,-4.1184 v -2.3031 l 1.37963,-3.2946 0.4139,-3.8439 -3.03523,-1.6472 -2.06947,-5.6285 -4.27692,-2.3338 -0.4139,-2.0592 2.34541,-1.9218 v -3.432 l -5.65656,-5.4912 1.51762,-2.1965 1.10372,-4.6674 -9.79552,-9.1976 0.41389,-16.199 3.17319,-4.5301 3.72506,3.981 h 2.89727 v -3.432 l 1.65558,-1.3727 0.96575,-2.471 -4.13894,-3.7066 -0.13798,-3.432 2.48339,-1.5099 -0.27594,-4.8048 h 2.06947 l 0.4139,-1.922 -5.5186,-6.0402 -7.31215,-0.9609 -14.20454,0.073 -9.24365,-5.6285 -9.93349,-12.2873 -3.72505,-3.0201 30.13077,-111.7924 -1.17067,-3.6887 1.95112,-2.7179 -0.97418,-5.2906 1.65695,-3.149 -4.41488,-5.4911 -1.37965,-4.9422 4.41488,-3.5692 8.82977,-3.5691 9.93349,-11.5314 0.82778,-7.4132 5.51861,-10.7077 1.24846,-5.6284 h -6e-5 l 0.65234,-5.3201 2.74235,-3.5084 1.56705,-6.6268 -1.95882,-8.1861 1.17529,-7.7963 5.87646,-9.3556 2.35058,-6.6267 4.70116,-2.7288 5.87642,-8.576 0.3918,-6.237 -2.7424,-1.949 -2.7423,-5.4574 -1.95881,-1.949 -1.56706,-7.4066 -3.1341,-4.6778 -7.44352,-1.1693 -3.91762,-4.288 -3.13411,-9.3556 -1.95883,-1.5592 3.13412,-5.0676 0.39176,-11.3047 0.78353,-5.8471 -3.52587,-10.525 -0.78354,-9.3556 0.78354,-6.6269 -1.95881,-3.5082 3.52587,-3.5083 3.91763,-6.237 -4.3094,-3.8982 -2.74235,-5.4574 3.52587,-2.7288 v -5.8471 l 7.44351,-8.1862 2.74235,0.7797 13.71174,-5.4574 3.5258,-5.4575 6.2683,-7.7962 3.9176,-3.1186 1.1753,1.9491 7.0517,-0.7796 5.8765,-5.8472 7.8352,-2.3388 7.0518,-8.9658 6.2756,-4.574 4.0866,1.6245 3.3569,-2.4042 0.7836,-4.6777 2.4582,-2.118 6.9143,2.9364 1.0138,3.0413 -0.169,3.2101 5.0687,1.8586 8.1101,-1.5207 9.4618,-8.7858 v -5.0688 l 9.4616,-8.1101 1.1827,-2.3654 2.0275,-0.3379 2.0276,-2.1965 -1.1828,-4.3928 -3.0412,-1.5207 -1.8587,-3.3792 -1.2619,-2.8459 0.6407,-1.33 2.5344,-1.3517 0.4513,-3.1741 3.5258,-2.3389 1.9589,-4.6779 4.5681,-3.9634 -1.0152,-6.4413 2.921,-5.8671 z" />
  </g>
  <g
     id="layer2"
     style="display:inline"
     transform="translate(-1161.6486,-7058.2925)" />
</svg>
