<?xml version="1.0" encoding="UTF-8" standalone="no"?>
<svg
   xmlns:dc="http://purl.org/dc/elements/1.1/"
   xmlns:cc="http://creativecommons.org/ns#"
   xmlns:rdf="http://www.w3.org/1999/02/22-rdf-syntax-ns#"
   xmlns:svg="http://www.w3.org/2000/svg"
   xmlns="http://www.w3.org/2000/svg"
   width="1310.8842"
   height="992.03516"
   id="svg2"
   version="1.1">
  <defs
     id="defs4" />
  <metadata
     id="metadata7">
    <rdf:RDF>
      <cc:Work
         rdf:about="">
        <dc:format>image/svg+xml</dc:format>
        <dc:type
           rdf:resource="http://purl.org/dc/dcmitype/StillImage" />
        <dc:title></dc:title>
      </cc:Work>
    </rdf:RDF>
  </metadata>
  <g
     id="layer3"
     style="display:inline"
     transform="translate(-1818.1361,-4140.9886)" />
  <path
     id="Manizales,_Código_DANE_:_17001"
     style="fill:#c12838;fill-opacity:1;stroke:#646464;stroke-width:0.42666668;stroke-linecap:butt;stroke-linejoin:round;stroke-miterlimit:4;stroke-dasharray:none;stroke-opacity:1"
     d="m 605.1665,738.8826 -5.3653,2.6722 v 14.8932 l 1.9567,2.2339 0.2446,3.2269 -7.5819,6.7018 -7.8265,-2.234 -4.8915,1.2411 -9.5383,-1.4893 -2.6905,-4.2196 h -3.1795 l -11.495,-8.6877 -2.2013,-0.7447 -3.424,2.234 -13.9408,0.7447 -5.1361,-4.4679 -4.647,0.7446 -0.489,4.9643 -9.7833,2.9787 -11.2503,-5.2127 -1.9567,0.2483 v 3.9715 l -4.4024,0.7446 -11.9842,-4.4678 -12.2288,-2.7305 h -9.783 l -6.1144,-6.7018 -2.4457,-5.2127 -6.3591,-1.7374 -6.6035,1.4893 -1.712,1.241 -5.87,-3.2269 c 0,0 -3.913,-8.6876 -4.8915,-8.6876 -0.9782,0 -4.6468,-0.2481 -4.6468,-0.2481 l -9.5386,6.2054 1.2229,2.2339 -1.2229,5.9572 -5.6252,0.993 -3.9132,4.4678 2.4457,0.993 4.1578,5.709 v 4.7162 l -10.2721,4.2196 0.9782,3.2269 1.712,6.4536 -4.8915,-1.2411 -2.6902,1.9858 -3.6687,0.2483 -2.9348,-1.9858 -3.9133,-0.7447 -2.4458,1.4893 2.6903,2.7305 -2.2012,7.6947 -4.4024,1.4893 -6.1144,-1.7375 -6.6035,2.4821 -2.9349,4.468 -4.1577,3.2268 -4.2802,0.8687 -3.0571,-4.3439 -5.1362,-0.4963 -2.9348,2.4822 -2.2013,-4.9644 3.6686,-4.4679 -0.7336,-9.1841 -3.1795,-4.4678 0.9782,-1.7376 0.2446,-3.7232 -3.5338,-0.2483 -2.0915,-4.4679 -0.2445,-4.9644 6.1143,-7.6948 v -4.4678 l -2.9348,-1.9858 -0.4892,-2.2339 3.6687,0.7446 3.1795,-4.2198 -2.6904,-3.2267 -6.8481,-2.9788 -3.9132,-8.6874 -3.4241,-1.9859 -4.647,2.9786 -2.2012,-2.9786 1.4675,-1.4892 0.2447,-2.7304 -2.2013,-2.2341 -1.4674,2.7304 -3.1795,0.2484 -2.4458,-0.993 -3.4241,-0.4965 0.2446,3.7234 -2.9348,2.2339 h -2.2013 v -2.9786 l -1.712,-1.2411 -2.935,-0.9928 -0.9782,-2.2341 -2.935,-1.2411 -7.5818,-7.9429 h -2.4458 l -1.2228,1.4893 h -9.0495 l 3.9133,-3.7232 -2.6903,-2.4823 -0.4892,-3.7232 -1.712,-0.2483 -0.7338,3.2269 -5.3806,-0.4964 0.2446,-3.7232 -0.7337,-2.9788 1.712,-2.482 4.6469,-0.4966 3.4241,-4.4678 -1.712,-2.7304 5.4272,-3.9157 -2.4211,-1.2286 -0.8647,-3.3349 -1.3836,-0.1755 -2.4212,3.3348 -1.9024,-0.702 -2.4211,0.8776 -1.7294,-1.9308 2.5941,-4.0368 0.173,-3.1593 3.1129,-1.2286 0.1729,-2.9837 -2.594,2.2816 -2.5941,-2.8082 3.4588,-2.6327 -2.9401,-3.335 1.2106,-3.3347 h -2.5941 l -2.2482,-6.8452 -3.1293,-1.9389 2.9251,-4.3093 2.7779,-5.2564 5.0849,-12.0417 6.2802,-4.3563 3.1184,4.7289 9.2939,-1.4893 3.424,14.8932 15.1638,-4.468 9.783,7.4465 19.0771,-10.9216 7.8263,0.4966 13.6962,7.4465 14.6746,-4.9643 0.4893,3.9713 11.7396,5.9573 0.4892,7.9431 -1.4676,7.4465 7.8264,-0.993 7.8265,1.9858 2.4458,7.9431 9.2938,4.4678 6.359,-5.4608 3.424,-0.9928 1.9567,-3.475 -0.9782,-2.9788 3.913,-6.4535 4.4025,2.9785 10.2723,-5.4608 -2.935,-4.4678 2.4457,-3.9715 5.3808,4.9642 h 6.848 l 5.8699,13.4039 7.3373,-1.9857 6.359,4.9642 3.9132,-3.9715 7.3373,-0.9927 3.9132,1.9857 -1.9567,2.9785 11.2506,1.4893 0.4892,-7.4465 13.207,-10.4252 4.8915,0.4966 7.8266,-4.9644 10.7613,2.4821 8.8048,-4.4678 3.424,2.482 h 7.3373 l 3.9132,-1.9857 4.4024,0.993 h 7.3373 l 4.4022,3.4749 0.4893,6.4537 2.4457,1.9857 -3.4241,15.8861 3.9133,4.9644 4.1195,6.1764 -0.4509,0.7736 -4.4023,-0.4965 -3.6687,2.7305 2.2011,3.4749 -0.7336,2.4823 -2.6904,1.9858 0.7338,3.2269 -0.9785,0.4963 -4.1577,-0.2482 -0.9783,1.9858 1.223,1.7374 -2.6905,4.7161 -1.9566,8.9359 -2.9349,2.9787 -1.712,5.4608 3.6687,3.4751 3.1795,-0.7446 6.8481,6.4535 -1.9566,3.9715 2.2011,2.7305 5.1362,-2.4823 2.4458,-0.4963 1.712,1.7374 5.4285,2.7391 1.5709,2.4022 6.9177,-0.351 z" />
  <path
     id="Palestina,_Código_DANE_:_17524"
     style="fill:#fefee9;fill-opacity:1;stroke:#646464;stroke-width:0.42666668;stroke-linecap:butt;stroke-linejoin:round;stroke-miterlimit:4;stroke-dasharray:none;stroke-opacity:1"
     d="m 340.2809,763.8691 -1.9316,-4.1943 -0.2445,-4.9644 6.1143,-7.6948 v -4.4678 l -2.9348,-1.9858 -0.4892,-2.2339 3.6687,0.7446 3.1795,-4.2198 -2.6904,-3.2267 -6.8481,-2.9788 -3.9132,-8.6874 -3.4241,-1.9859 -4.647,2.9786 -2.2012,-2.9786 1.4675,-1.4892 0.2447,-2.7304 -2.2013,-2.2341 -1.4674,2.7304 -3.1795,0.2484 -2.4458,-0.993 -3.4241,-0.4965 0.2446,3.7234 -2.9348,2.2339 h -2.2013 v -2.9786 l -1.712,-1.2411 -2.935,-0.9928 -0.9782,-2.2341 -2.935,-1.2411 -7.5818,-7.9429 h -2.4458 l -1.2228,1.4893 h -9.0495 l 3.9133,-3.7232 -2.6903,-2.4823 -0.4892,-3.7232 -1.712,-0.2483 -0.7338,3.2269 -5.3806,-0.4964 0.2446,-3.7232 -0.7337,-2.9788 1.712,-2.482 4.6469,-0.4966 3.4241,-4.4678 -1.712,-2.7304 5.4272,-3.9157 -2.4211,-1.2286 -0.8647,-3.3349 -1.3836,-0.1755 -2.4212,3.3348 -1.9024,-0.702 -2.4211,0.8776 -1.7294,-1.9308 2.5941,-4.0368 0.173,-3.1593 3.1129,-1.2286 0.1729,-2.9837 -2.594,2.2816 -2.5941,-2.8082 3.4588,-2.6327 -2.9401,-3.335 1.2106,-3.3347 h -2.5941 l -2.2482,-6.8452 -3.3507,-2.0906 -2.5822,4.9799 -2.935,1.4892 -5.6253,-1.7375 -1.9565,5.7091 -4.158,1.4892 -3.913,-0.4963 -2.2013,3.475 -1.2588,4.4095 3.9491,9.9872 1.712,3.9715 v 4.2196 l 2.2013,2.7305 0.4892,4.9643 -13.4517,13.4038 -0.8442,1.8566 3.7791,5.3417 -2.9349,8.6877 1.9567,6.2054 2.9348,2.9786 -0.4891,3.7233 -3.4242,2.9785 1.4675,3.2269 -0.2446,3.2269 -1.9567,2.7305 1.7123,3.2266 3.6685,7.1984 4.4025,0.9929 4.1578,4.4679 -0.2447,2.9786 2.6904,2.7304 3.424,-0.7446 1.2228,3.9715 0.2447,5.9572 4.4024,0.7447 4.8915,4.4678 2.6902,6.9501 2.2013,-1.241 5.136,0.9929 2.4458,-5.2127 -2.2011,-4.2196 6.1144,0.2483 5.6252,4.4678 12.2288,-0.7446 -0.489,2.2339 -0.7338,2.4823 4.4024,3.7232 5.8697,-0.9929 2.2012,-3.9715 2.4458,2.7304 2.4457,-0.2482 1.9566,-2.9786 7.8265,-0.7447 2.935,-3.7232 5.3806,-2.2339 3.9133,-6.702 0.9782,-2.7303 z" />
  <path
     d="m 295.7784,815.3725 -5.4515,3.2556 -1.2617,10.3555 -9.3169,2.3153 -12.5094,1.9798 -8.4976,-1.9533 -5.7767,-0.2992 -4.1085,1.8826 -5.8373,-3.9663 -0.6484,-3.3051 -5.1767,-0.6447 -6.1635,-7.5437 0.6486,-7.2707 -3.2431,-5.2883 3.2431,-3.305 -1.9458,-1.983 -1.2973,-3.9662 h -1.9456 l -2.5942,-4.6271 1.2972,-3.9661 -1.9458,-3.305 0.6486,-2.6441 -3.243,-3.3046 -0.6485,-3.9664 -3.5672,-4.6267 v -3.6354 l -6.1615,-4.9575 0.3242,-0.9917 3.8915,-1.322 0.6487,-1.983 -3.8916,-2.3136 -3.8913,-4.9573 v -4.2967 l -3.2431,-2.9744 -1.7776,-7.5774 1.3005,-5.917 5.9436,-6.0452 8.8046,-6.4537 6.9699,-2.5129 8.3157,-7.1984 2.1338,-3.3204 3.736,5.3062 -2.9349,8.6877 1.9567,6.2054 2.9348,2.9786 -0.4891,3.7233 -3.4242,2.9785 1.4675,3.2269 -0.2446,3.2269 -1.9567,2.7305 1.7123,3.2266 3.6685,7.1984 4.4025,0.9929 4.1578,4.4679 -0.2447,2.9786 2.6904,2.7304 3.424,-0.7446 1.2228,3.9715 0.2447,5.9572 4.4024,0.7447 4.8915,4.4678 2.6902,6.9501 2.2013,-1.241 5.136,0.9929 2.4458,-5.2127 -2.2011,-4.2196 6.1144,0.2483 5.6252,4.4678 12.2288,-0.7446 -0.489,2.2339 -0.7338,2.4823 4.4024,3.7232 5.8697,-0.9929 2.2012,-3.9715 2.4458,2.7304 2.4457,-0.2482 1.9566,-2.9786 7.8265,-0.7447 2.935,-3.7232 5.3806,-2.2339 3.9133,-6.702 0.9782,-2.7303 -0.4173,-1.6941 3.5968,0.2048 -0.2446,3.7232 -0.9782,1.7376 3.1795,4.4678 0.7336,9.1841 -3.6686,4.4679 2.2013,4.9644 2.9348,-2.4822 5.1362,0.4963 2.9771,4.2199 -2.2436,9.184 1.4676,1.9858 6.1144,-0.2482 -0.4892,10.4252 -3.1795,5.7089 2.4458,6.7019 -2.9348,5.2126 -4.4025,9.6806 -3.1635,5.497 -5.8219,-5.2957 -6.0927,-0.4881 c 0,0 -3.5273,-4.2323 -4.3289,-4.2323 -0.8017,0 -2.4049,0 -2.4049,0 l -1.2828,3.0928 -2.4049,0.4883 -2.405,-3.9067 2.8859,-5.0462 0.6413,-4.7207 -2.0844,-1.7907 0.3209,-5.6973 -5.2911,-2.9301 2.2447,-4.2323 -1.1225,-2.1163 -2.0842,0.6512 -3.5274,-2.1161 1.6033,-3.0931 2.2447,-1.1393 -2.2447,-2.2789 -4.8099,2.1161 -2.5652,-3.744 -1.6034,3.5811 -5.4513,-4.7207 -4.4893,3.2557 3.3668,0.8139 2.8861,3.5814 -2.4049,1.1394 -4.6496,-1.1394 z"
     style="fill:#fefee9;fill-opacity:1;stroke:#646464;stroke-width:0.42666668;stroke-linecap:butt;stroke-linejoin:round;stroke-miterlimit:4;stroke-dasharray:none;stroke-opacity:1"
     id="Chinchiná,_Código_DANE_:_17174" />
  <path
     id="Risaralda,_Código_DANE_:_17616"
     style="fill:#fefee9;fill-opacity:1;stroke:#646464;stroke-width:0.42666668;stroke-linecap:butt;stroke-linejoin:round;stroke-miterlimit:4;stroke-dasharray:none;stroke-opacity:1"
     d="m 209.1813,722.4906 8.8047,-6.4535 7.3691,-2.7791 8.3157,-7.1984 1.8343,-2.8544 1.1006,-2.3581 13.4517,-13.4038 -0.4892,-4.9643 -2.2013,-2.7305 v -4.2196 l -1.712,-3.9715 -3.8992,-9.718 -5.15,-3.6858 -5.3806,2.4822 -7.3373,0.2481 -7.582,-6.4535 -2.9348,-10.177 -3.4242,-0.9929 -9.5384,-12.4109 -4.4024,-1.241 -0.2446,-2.9788 5.8699,-4.9642 H 205.3 l 1.4675,-1.9859 -2.2013,-2.4822 -1.712,-5.2125 -12.4735,-2.7303 -10.5168,4.9642 -0.4891,3.2269 -3.424,1.2412 -6.8482,-0.7446 -8.8048,4.4678 -2.6902,-0.2482 -2.6904,2.2339 1.9566,3.9715 -4.4023,9.184 -4.647,1.9858 -6.1143,7.4465 -2.935,2.9786 -3.424,-2.482 -7.0927,2.7303 -2.9351,4.4679 -4.9345,0.7552 -2.9443,12.3352 0.7862,3.0439 -2.6904,2.9785 -4.8915,20.8504 -1.53,2.9804 5.4432,2.9767 1.4675,4.7161 h 1.9565 l 1.223,-2.2339 4.1577,1.9858 0.9784,-1.4892 1.712,-3.2269 -1.712,-3.4751 1.4675,-3.9715 4.8915,-2.234 -0.4893,-2.9786 1.9567,-0.9929 v -0.7446 l -4.8915,-1.2411 2.4458,-2.9785 1.712,-2.234 1.9566,0.2481 -1.2229,-3.2268 1.4676,-1.2411 h 1.9565 v 3.475 h 2.6903 l 1.712,-2.9786 5.1362,2.4823 3.1795,-2.2341 3.424,1.2411 0.9784,-4.7162 h 0.9782 l 3.6687,2.4823 1.712,-1.2411 -2.2012,-2.4821 -5.1361,-2.234 1.2228,-5.2125 -4.8915,-2.7305 1.9567,-2.9786 3.1795,1.4892 10.7613,2.9787 4.8915,-1.7376 6.1144,7.6949 2.2013,4.9643 7.0927,5.2125 h 3.1795 l 2.6903,2.2341 -2.4457,3.2267 -0.2446,15.1414 -2.4458,2.4822 1.4675,4.2196 h -2.935 l -5.136,5.2127 -1.712,4.9642 0.2445,1.4893 6.359,4.7162 15.4083,-1.2411 5.2475,6.9707 z" />
  <path
     id="San_José,_Código_DANE_:_17665"
     style="fill:#fefee9;fill-opacity:1;stroke:#646464;stroke-width:0.42666668;stroke-linecap:butt;stroke-linejoin:round;stroke-miterlimit:4;stroke-dasharray:none;stroke-opacity:1"
     d="m 95.2572,773.8231 v -1.648 l -0.5137,-1.0823 0.2446,-13.9002 4.6469,-17.6236 3.6686,-11.6662 3.1795,-26.8075 2.6355,-3.5484 5.4355,3.0519 1.4676,4.7161 h 1.9567 l 1.2228,-2.2339 4.1577,1.9858 0.9783,-1.4892 1.712,-3.2269 -1.712,-3.4751 1.4675,-3.9715 4.8915,-2.234 -0.489,-2.9786 1.9564,-0.9929 v -0.7446 l -4.8915,-1.2411 2.4458,-2.9785 1.7121,-2.234 1.9565,0.2481 -1.2229,-3.2268 1.4676,-1.2411 h 1.9565 v 3.475 h 2.6903 l 1.7122,-2.9786 5.136,2.4823 3.1795,-2.2341 3.4241,1.2411 0.9783,-4.7162 h 0.9782 l 3.6687,2.4823 1.7121,-1.2411 -2.2013,-2.4821 -5.136,-2.234 1.223,-5.2125 -4.8916,-2.7305 1.9565,-2.9786 3.1795,1.4892 10.7614,2.9787 4.8915,-1.7376 6.1145,7.6949 2.2011,4.9643 7.0927,5.2125 h 3.1795 l 2.6903,2.2341 -2.4457,3.2267 -0.2446,15.1414 -2.4458,2.4822 1.4675,4.2196 h -2.9349 l -5.1361,5.2127 -1.712,4.9642 0.2445,1.4893 h -6.359 l -7.5818,3.7234 -6.359,0.2481 -4.647,-6.95 -1.4675,-1.7376 -8.0708,6.9503 -2.9351,8.1911 v 4.7162 l -7.3373,9.4322 -2.4457,3.7233 -4.647,3.4751 -5.6252,8.6877 -8.8048,3.7232 -6.3589,11.1697 -5.3807,1.7376 -3.6521,-0.993 z" />
  <path
     id="Neira,_Código_DANE_:_17486"
     style="fill:#fefee9;fill-opacity:1;stroke:#646464;stroke-width:0.42666668;stroke-linecap:butt;stroke-linejoin:round;stroke-miterlimit:4;stroke-dasharray:none;stroke-opacity:1"
     d="m 256.9055,528.5837 -0.5441,-0.8537 8.867,-2.6673 6.2399,-4.6679 6.2397,-2.334 5.2009,-5.1981 -0.364,1.0685 4.4358,3.3376 4.8425,17.9025 4.1505,3.5104 2.0754,18.2537 4.8422,-0.7021 3.8048,1.7552 -1.3836,4.9145 4.4966,2.8083 1.7294,-0.7021 h 7.6092 l 3.4589,3.5104 5.1884,-3.8614 7.9552,-2.4573 5.5342,7.7227 9.3388,1.7552 10.3764,7.7228 3.8048,3.8614 12.4518,0.7021 4.8423,-3.1594 4.4965,-0.7021 3.0205,-4.109 3.2054,-0.8054 3.4589,-6.3187 6.2259,1.0531 2.4211,3.5104 3.8046,1.7552 7.2637,-4.9146 h 8.993 l 1.0376,-3.5102 8.993,-8.4248 h 4.1505 l 4.8424,-4.9146 7.9553,-3.1591 11.0682,4.9143 5.88,1.7552 4.4965,3.1594 c 0,0 3.4589,0.3509 4.8424,0.702 1.3836,0.351 10.0306,7.7228 10.0306,7.7228 l 6.9178,-3.1593 7.2634,0.7021 1.7295,-6.3187 5.88,-2.8083 5.5341,-8.7758 8.647,0.3511 1.7294,4.2122 12.7977,9.8291 6.2259,2.8083 4.1505,-4.5635 6.5718,0.702 3.113,3.5104 4.3657,1.7552 2.7249,2.4571 3.1129,8.0738 1.7295,7.1963 4.1505,5.0899 2.9401,1.2287 0.5188,1.7552 5.5341,1.4039 2.94,-2.106 2.7671,4.2123 3.1129,-1.4042 0.5189,-4.0368 4.8424,-1.4041 6.2259,10.8821 6.0528,0.7021 2.9402,6.143 -4.6694,10.3555 -2.0755,16.1476 2.9401,3.8612 2.0753,0.351 1.7295,5.0902 1.0375,5.2653 -3.9777,1.5798 0.346,2.9838 1.0377,1.404 v 6.4942 l -7.0908,11.584 -1.3834,0.351 -3.113,2.4573 -4.3235,0.1756 -2.4211,-2.6329 -3.8048,0.8777 -1.8842,3.6411 -4.0848,-6.1313 -3.9133,-4.9644 3.4241,-15.8861 -2.4457,-1.9857 -0.4893,-6.4537 -4.4022,-3.4749 h -7.3373 l -4.4024,-0.993 -3.9132,1.9857 h -7.3373 l -3.424,-2.482 -8.8048,4.4678 -10.7613,-2.4821 -7.8266,4.9644 -4.8915,-0.4966 -13.207,10.4252 -0.4892,7.4465 -11.2506,-1.4893 1.9567,-2.9785 -3.9132,-1.9857 -7.3373,0.9927 -3.9132,3.9715 -6.359,-4.9642 -7.3373,1.9857 -5.8699,-13.4039 h -6.848 l -5.3808,-4.9642 -2.4457,3.9715 2.935,4.4678 -10.2723,5.4608 -4.4025,-2.9785 -3.913,6.4535 0.9782,2.9788 -1.9567,3.475 -3.424,0.9928 -6.359,5.4608 -9.2938,-4.4678 -2.4458,-7.9431 -7.8265,-1.9858 -7.8264,0.993 1.4676,-7.4465 -0.4892,-7.9431 -11.7396,-5.9573 -0.4893,-3.9713 -14.6746,4.9643 -13.6962,-7.4465 -7.8263,-0.4966 -19.0771,10.9216 -9.783,-7.4465 -15.1638,4.468 -3.424,-14.8932 -9.2939,1.4893 -3.3018,-5.0884 0.3669,-3.3509 -2.4458,-6.4538 -5.6253,-2.7303 -1.2228,-2.4822 h -4.4025 l -2.201,-2.4822 -3.1795,0.2483 -0.9783,5.9571 -2.4457,-1.9857 -1.9567,-4.7161 -2.2013,0.7447 h -2.9348 l 0.2445,-8.1911 -1.712,-3.9716 -0.7337,-7.4466 -1.4675,-2.2339 -6.1144,-2.234 v -3.7232 l 4.8915,-2.9786 1.2229,-1.7376 -1.2229,-1.2412 -6.359,-1.7373 -0.9782,-1.2412 5.3805,-11.418 7.582,-5.2127 -0.7337,-4.4679 -3.1796,-3.7232 0.7338,-4.4679 z" />
  <path
     id="Anserma,_Código_DANE_:_17042"
     style="display:inline;fill:#fefee9;fill-opacity:1;stroke:#646464;stroke-width:0.42666668;stroke-linecap:butt;stroke-linejoin:round;stroke-miterlimit:4;stroke-dasharray:none;stroke-opacity:1"
     d="m 241.6238,661.7658 1.3408,-4.6051 2.2013,-3.475 3.913,0.4963 4.158,-1.4892 1.9565,-5.7091 5.6253,1.7375 2.935,-1.4892 2.8125,-4.8403 2.8126,-4.0956 2.935,-5.4608 5.136,-12.1626 6.1145,-4.2198 0.2446,-3.7232 -2.4458,-6.4538 -5.6253,-2.7303 -1.2228,-2.4822 h -4.4025 l -2.201,-2.4822 -3.1795,0.2483 -0.9783,5.9571 -2.4457,-1.9857 -1.9567,-4.7161 -2.2013,0.7447 h -2.9348 l 0.2445,-8.1911 -1.712,-3.9716 -0.7337,-7.4466 -1.4675,-2.2339 -6.1144,-2.234 v -3.7232 l 4.8915,-2.9786 1.2229,-1.7376 -1.2229,-1.2412 -6.359,-1.7373 -0.9782,-1.2412 5.3805,-11.418 7.582,-5.2127 -0.7337,-4.4679 -3.1796,-3.7232 0.7338,-4.4679 5.344,-4.3394 -4.693,-6.7355 -10.1806,1.3334 -3.9408,-1.3334 -10.1807,1.3334 -2.6273,-3.0006 -5.2546,-1.6671 -4.9261,2.0005 -0.9853,-5.3347 -7.5533,-3.6677 -4.2694,-11.3367 -3.9408,1.3338 -6.5681,5.6682 -0.9853,4.0011 -2.6274,-0.3334 -4.9261,1.0003 -6.8964,-0.6669 -7.8819,-12.0034 -2.6272,-8.0022 -6.2399,2.6675 -1.9704,3.6677 0.6568,5.6683 -5.5828,3.3343 -5.5831,-1.6671 -0.9852,5.0013 -6.8966,6.335 -5.2545,-0.3334 -2.9557,-3.3342 -1.9704,2.0004 v 9.6695 l 3.284,5.0012 v 5.6682 l 2.9557,7.3356 4.9262,6.0017 7.5533,-1.0003 0.6569,2.0005 1.3136,14.6707 -4.9261,7.3354 v 4.6679 l 4.2694,3.3343 0.985,6.3351 -5.9113,7.0019 -4.5976,-1.0002 -0.6569,6.6687 2.2989,1.6668 -4.9261,7.0021 -4.2694,3.0006 -1.3136,5.6685 -3.6124,4.3344 2.2987,3.0008 -3.6124,4.0011 -5.2547,3.3343 3.9411,2.3341 -1.6422,4.001 0.3286,1.3337 -1.6422,8.6689 -2.9556,4.6681 1.5536,4.2349 5.0116,-0.654 2.9351,-4.4679 7.0927,-2.7303 3.424,2.482 2.935,-2.9786 6.1143,-7.4465 4.647,-1.9858 4.4023,-9.184 -1.9566,-3.9715 2.6904,-2.2339 2.6902,0.2482 8.8048,-4.4678 6.8482,0.7446 3.424,-1.2412 0.4891,-3.2269 10.5168,-4.9642 12.4735,2.7303 1.712,5.2125 2.2013,2.4822 -1.4675,1.9859 h -3.6687 l -5.8699,4.9642 0.2446,2.9788 4.4024,1.241 9.5384,12.4109 3.4242,0.9929 2.9348,10.177 7.582,6.4535 7.3373,-0.2481 5.3806,-2.4822 z" />
  <path
     id="Belalcazar,_Código_DANE_:_17088"
     d="m 90.4814,835.7143 1.594,-3.0045 3.1882,-2.7734 -0.4555,-3.2356 4.0992,-5.5468 2.505,-5.0846 -0.6832,-2.3113 -2.2774,-3.0044 -2.9604,-3.0046 3.416,-3.4668 0.9108,-3.4666 -0.6832,-3.698 H 96.63 l -0.6832,-2.08 -1.594,-0.6933 2.7325,-0.9245 -0.6829,-3.0046 1.594,-4.8534 v -2.08 l -2.7328,-1.1555 v -1.3869 l -1.594,-4.6223 1.8262,-2.4641 3.4134,0.963 5.3808,-1.7376 6.3589,-11.1697 8.8048,-3.7232 5.6252,-8.6877 4.647,-3.4751 2.4457,-3.7233 7.3373,-9.4322 v -4.7162 l 2.9348,-8.1911 8.0711,-6.9503 1.4675,1.7376 4.6469,6.95 6.3591,-0.2481 7.5818,-3.7234 h 6.359 l 6.359,4.7162 15.4083,-1.2411 5.1146,7.1037 -1.6578,6.1595 -3.552,0.029 -4.2157,4.6271 -4.5399,3.3049 v 9.5851 l -6.4858,4.6269 h -4.2159 l -2.5943,3.3051 -1.297,6.2791 4.5398,2.9748 -4.8643,2.9744 -6.4856,-5.6182 0.6485,7.932 -4.8643,5.2881 0.6484,2.3132 4.5402,0.6611 1.9458,2.6442 -7.1344,1.9831 -2.5945,6.9405 -6.81,2.9744 2.9185,2.3135 1.6217,3.9662 -1.2973,1.9826 -4.2157,2.3137 -0.973,2.6441 3.2431,1.6522 v 9.2541 l 2.2701,2.6438 4.2154,2.6444 1.2873,3.3051 -3.5673,1.6524 -1.9457,6.9405 -5.5128,2.3139 -3.8916,-1.9833 -1.6215,2.3135 -0.3242,3.9661 -8.4315,6.2794 -2.9185,4.9574 -3.5673,-3.6351 -8.4315,-1.9832 h -4.54 l -12.6474,-7.2712 -11.032,3.4956 -3.2429,-3.9657 4.8646,-2.9747 -6.0498,-1.6388 z"
     style="display:inline;fill:#fefee9;fill-opacity:1;stroke:#646464;stroke-width:0.42666668;stroke-linecap:butt;stroke-linejoin:round;stroke-miterlimit:4;stroke-dasharray:none;stroke-opacity:1" />
  <path
     id="Viterbo,_Código_DANE_:_17877"
     style="display:inline;fill:#fefee9;fill-opacity:1;stroke:#646464;stroke-width:0.42666668;stroke-linecap:butt;stroke-linejoin:round;stroke-miterlimit:4;stroke-dasharray:none;stroke-opacity:1"
     d="m 91.1311,838.4822 -0.6497,-2.7679 1.594,-3.0045 3.1882,-2.7734 -0.4555,-3.2356 4.0992,-5.5468 2.505,-5.0846 -0.6832,-2.3113 -2.2774,-3.0044 -2.9604,-3.0046 3.416,-3.4668 0.9108,-3.4666 -0.6832,-3.698 H 96.63 l -0.6832,-2.08 -1.594,-0.6933 2.7325,-0.9245 -0.6829,-3.0046 1.594,-4.8534 v -2.08 l -2.7328,-1.1555 v -1.3869 l -1.594,-4.6223 1.594,-2.3111 v -1.849 l -0.5121,-1.0643 0.2446,-13.9002 4.6469,-17.6236 3.6686,-11.6662 3.1795,-26.8075 4.1578,-6.4536 4.8915,-20.8504 2.6904,-2.9785 -0.8083,-2.974 -4.5757,1.2637 -5.2546,-5.6682 0.3286,-6.335 -6.2399,-2.6673 -7.225,-2.6676 -5.9114,2.6676 h -3.2839 l -4.5978,-5.335 -4.5977,4.0012 -5.583,0.3332 -9.8522,8.3357 -7.225,14.6709 2.6272,11.003 -7.2249,6.6685 -12.1511,4.0012 -0.3285,5.3347 4.2693,6.0017 4.9262,12.3369 -4.2182,9.5943 -4.2158,8.9238 -2.5945,1.3222 1.2972,1.6521 3.243,1.3221 3.567,5.9496 9.7287,10.2451 0.9731,4.2967 2.9186,2.9745 -3.5674,1.3221 -0.3243,4.6267 -1.9454,2.6444 2.9185,1.983 -0.3243,6.61 -1.6216,2.3133 3.2428,6.2802 5.5132,7.2704 0.3242,5.9492 4.8643,6.2796 -1.2972,3.9659 2.5943,3.9661 6.8101,0.9915 4.8643,3.6356 -0.3241,2.9744 4.8643,-0.6612 1.297,6.28 z" />
  <path
     id="Aranzazu,_Código_DANE_:_17050"
     style="fill:#fefee9;fill-opacity:1;stroke:#646464;stroke-width:0.42666668;stroke-linecap:butt;stroke-linejoin:round;stroke-miterlimit:4;stroke-dasharray:none;stroke-opacity:1"
     d="m 556.2732,561.7303 -7.1133,-0.9335 -4.1505,4.5635 -6.2259,-2.8083 -12.7977,-9.8291 -1.7294,-4.2122 -8.647,-0.3511 -5.5341,8.7758 -5.88,2.8083 -1.7295,6.3187 -7.2634,-0.7021 -6.9178,3.1593 c 0,0 -8.647,-7.3718 -10.0306,-7.7228 -1.3835,-0.3511 -4.8424,-0.702 -4.8424,-0.702 l -4.4965,-3.1594 -5.88,-1.7552 -11.0682,-4.9143 -7.9553,3.1591 -4.8424,4.9146 h -4.1505 l -8.993,8.4248 -1.0376,3.5102 h -8.993 l -7.2637,4.9146 -3.8046,-1.7552 -2.4211,-3.5104 -6.2259,-1.0531 -3.4589,6.3187 -3.0344,0.8015 -1.1162,-13.0877 3.4589,-5.2655 -1.3835,-11.9351 2.0752,-6.3187 -0.3459,-11.233 6.5718,-3.8614 8.6471,3.1593 8.9929,-6.6697 -3.8047,-4.9143 2.4212,-7.7228 10.3765,-1.0531 v -14.0414 l -5.1882,-8.4248 -4.8424,-1.0529 1.3836,-8.074 -4.4966,-2.4571 1.3836,-3.1594 -4.8425,-3.1591 -3.4586,-0.3511 -2.7673,-3.1593 4.8425,-1.0532 1.7294,-1.4041 3.4588,-0.3511 14.1812,-6.3186 0.2633,-5.8048 5.6167,-0.8647 3.8048,2.1062 8.9929,-7.0208 3.4588,9.1268 7.2637,5.9677 -3.113,2.1062 -0.6918,6.6697 -1.3836,3.5102 8.993,7.3717 6.9176,-2.8082 8.6472,11.233 3.4587,1.4041 6.226,7.3718 0.6918,6.6695 8.3011,1.4042 7.9553,3.1593 2.7671,-1.4041 c 0,0 4.8424,0.351 7.6095,0.351 2.767,0 2.0752,3.8615 2.0752,3.8615 l 10.0307,0.702 14.8729,7.7228 h 3.113 l 0.6916,7.7227 3.4589,0.7021 2.0752,-0.3511 2.7673,10.1799 -2.4214,4.9145 v 6.6697 l 9.6848,11.5841 z" />
  <path
     id="Marulanda,_Código_DANE_:_17446"
     style="fill:#fefee9;fill-opacity:1;stroke:#646464;stroke-width:0.42666668;stroke-linecap:butt;stroke-linejoin:round;stroke-miterlimit:4;stroke-dasharray:none;stroke-opacity:1"
     d="m 593.2827,734.6195 0.1504,-4.6247 -1.3836,-2.1061 -6.5718,-3.8614 6.5718,-15.4455 -0.3459,-4.2125 -2.4211,-2.106 3.8047,-6.3187 5.1882,0.351 5.1882,-6.3186 3.8048,-1.0531 v -3.8612 l 2.0752,-3.1594 5.88,-1.4041 -0.3459,-2.4573 7.9554,-1.4041 5.5341,-9.4778 0.6918,-3.5104 6.9175,-1.7552 -2.4211,-2.4572 2.0754,-2.1063 2.7671,-0.351 6.2259,-7.3716 0.6916,-4.9146 h 9.3389 l 19.7154,8.4248 11.76,2.1062 3.8046,2.8083 h 4.4965 l 6.9178,-7.3716 7.6093,-2.8083 2.0753,2.4573 6.9176,-5.9677 -2.0752,-4.2124 4.4965,1.4042 1.3835,-6.3185 3.4589,-0.7021 v -2.1063 l -2.7672,-1.4041 11.4143,-10.1801 8.9929,1.0531 7.6094,-2.1062 0.6917,-4.9143 6.6817,1.3561 -0.039,-4.4754 -6.3591,-4.9643 -3.913,2.234 -9.5386,0.9929 -2.2012,-1.2412 -4.647,0.9929 3.4242,3.2269 -5.3807,-0.7447 -2.2013,1.2411 -4.6468,1.2412 -0.9784,-2.9788 -7.0926,-3.7232 3.9132,-11.9143 -7.8265,-12.9075 -0.9783,-6.95 -14.43,-8.936 -8.5602,-16.6305 4.8915,-4.4679 -2.6903,-9.9288 1.9567,-3.475 5.8698,0.9927 4.8915,-7.1982 1.2049,-4.8651 0.2268,-5.5173 2.4211,-3.1593 h 3.113 l 13.1434,-12.9882 v -7.3718 c 0,0 3.113,-2.1062 2.7671,-4.9145 -0.3457,-2.8083 -4.4965,-9.8289 -4.4965,-9.8289 l -4.8422,-1.0531 -16.2565,7.3716 -3.4589,4.2125 -9.6848,-15.7965 -11.0682,-6.3185 -9.6848,-9.829 h -6.5716 l -6.9178,-9.1268 -6.5202,-0.6314 3.4073,9.7582 h -10.0306 l -1.3835,-1.0531 -10.3765,1.7552 -5.88,7.3717 -4.8424,-5.6166 -1.0376,-7.0207 h -6.9176 l -3.4589,4.2125 -11.76,-1.4042 -7.2635,8.7759 -1.0378,10.1799 -2.767,3.5103 -0.6917,13.6904 0.6917,5.2655 -0.6917,7.7226 -7.6094,6.6697 1.7292,10.531 -3.4586,24.2213 1.0375,9.1268 -6.2259,3.5104 -2.9891,8.6004 2.8162,2.6326 3.1129,8.0738 1.7294,7.1963 4.1506,5.0899 2.94,1.2287 0.5189,1.7552 5.5341,1.4039 2.94,-2.106 2.7672,4.2123 3.1128,-1.4042 0.5189,-4.0368 4.8423,-1.4041 6.226,10.8821 6.053,0.7021 2.9399,6.143 -4.6694,10.3555 -2.0753,16.1476 2.9399,3.8612 2.0754,0.351 1.7294,5.0902 1.0377,5.2653 -3.9776,1.5798 0.3457,2.9838 1.0377,1.404 v 6.4942 l -7.0905,11.584 -1.3837,0.351 -3.1128,2.4573 -4.3237,0.1756 -2.4211,-2.6329 -3.8046,0.8777 -2.3005,4.4598 -4.4024,-0.4965 -3.6686,2.7305 2.2013,3.4749 -0.7338,2.4823 -2.6904,1.9858 0.7337,3.2269 -0.9782,0.4963 -4.1579,-0.2482 -0.9782,1.9858 1.2228,1.7374 -2.6904,4.7161 -1.9566,8.9359 -2.9349,2.9787 -1.712,5.4608 3.6686,3.4751 3.1795,-0.7446 6.8482,6.4535 -1.9566,3.9715 2.2011,2.7305 5.1361,-2.4823 2.4458,-0.4963 1.712,1.7374 5.4656,2.7452 z" />
  <path
     id="Manzanares,_Código_DANE_:_17433"
     style="fill:#fefee9;fill-opacity:1;stroke:#646464;stroke-width:0.42666668;stroke-linecap:butt;stroke-linejoin:round;stroke-miterlimit:4;stroke-dasharray:none;stroke-opacity:1"
     d="m 806.8044,480.7265 -6.6952,1.6886 -5.6252,-1.9857 -9.0493,4.4679 v 6.2055 h -4.4025 l -2.2013,7.6947 -2.4457,-0.2481 -1.4673,2.4822 v 2.4821 l -7.0928,1.9858 -6.1145,-2.4823 -9.0493,7.9431 0.7338,2.7303 -2.4458,0.7447 -1.9565,3.4751 -6.1145,5.2125 -5.1361,0.2483 -5.064,-10.887 h -5.3171 l -4.0121,-4.8308 -2.0366,-7.4918 -13.0463,12.8947 h -3.1129 l -2.4211,3.1593 -0.2267,5.5173 -1.205,4.8651 -4.8915,7.1982 -5.8699,-0.9927 -1.9565,3.475 2.6903,9.9288 -4.8916,4.4679 8.5601,16.6305 14.4301,8.936 0.9783,6.95 7.8264,12.9075 -3.9132,11.9143 7.0927,3.7232 0.9784,2.9788 4.6469,-1.2412 2.2011,-1.2411 5.3808,0.7447 -3.4241,-3.2269 4.647,-0.9929 2.2011,1.2412 9.5385,-0.9929 3.9132,-2.234 6.3591,4.9643 0.084,4.5651 2.8506,2.3852 10.5168,-4.4681 3.424,1.4893 1.2228,5.9574 5.3808,0.7446 3.9132,5.4608 10.5168,1.9857 6.359,-5.2126 3.1793,2.234 7.3373,-4.4679 -4.6468,-4.7162 4.4023,-13.1555 6.8482,-2.7304 -2.6904,-6.7019 11.495,-21.8432 4.158,-0.4965 2.2011,-6.9501 5.3727,-4.5389 7.575,0.4416 1.6283,-5.5709 -7.9678,-3.4419 0.3284,-5.6683 10.6729,-5.2987 3.6685,0.9929 5.1363,-3.9715 -2.2013,-7.943 -0.8903,-8.9848 -6.2108,-4.5641 -7.9555,-3.1594 -4.1505,-4.2125 1.3835,-4.2124 -3.113,-3.8614 -2.4211,2.1062 h -4.4964 l -6.5718,-4.2122 -3.113,1.4039 -2.4211,-3.1591 -3.113,0.351 -5.1881,-1.0531 -0.346,-5.2655 -3.1129,-2.8083 4.4964,-3.1594 -1.3835,-3.8612 z" />
  <path
     d="m 678.0645,342.2915 6.8727,-5.0185 2.0557,-8.2334 18.7506,-28.0848 8.6342,-5.5574 5.1395,-1.0293 4.1115,-3.7051 2.4329,-6.8834 11.3585,-1.5438 9.396,-6.9196 21.7912,-0.4118 3.0835,-1.8525 h 5.9619 l 5.1394,-4.7341 4.9339,-1.2352 5.5564,-10.3232 3.8748,3.9039 0.6919,-6.6696 h 2.0753 l 1.7293,4.5634 5.1883,1.0531 8.6471,2.1062 0.6918,6.3185 3.4587,0.7021 2.0754,3.5104 -6.2259,23.1682 4.1505,2.1063 -0.6916,2.8081 4.1505,1.0531 2.4211,-4.2123 5.1884,-0.351 2.0753,-2.4573 4.8422,-1.0531 2.0754,6.6695 v 5.2656 l 1.7294,4.2124 -0.6918,4.9146 h -2.4212 l -3.8048,7.0206 1.3836,1.7551 -2.4211,10.1799 2.4211,3.1594 v 5.6165 l 2.4212,2.4573 -3.4588,4.9143 1.0376,3.1594 5.8801,3.8614 -2.4212,3.8614 1.7294,3.8614 -4.8424,3.1591 4.4965,2.1063 0.3459,1.7552 -1.3835,3.1592 3.4589,2.4573 0.6916,10.531 -1.3834,2.8083 7.6093,7.7228 14.1812,2.106 3.8048,-2.457 2.767,1.4041 0.3459,3.5102 -1.3834,2.8083 2.4211,2.4573 8.647,1.7551 4.8424,9.1268 -5.5341,8.0738 -3.113,4.5636 -0.3459,4.5633 4.4965,3.8614 -1.0376,4.5634 3.0524,4.7297 0.9872,-0.136 -1.2726,8.3939 -3.8046,3.1593 -5.1883,-1.4042 -14.5271,0.3511 -7.6094,2.8083 -8.3013,-3.8613 -11.4141,3.8613 -2.767,9.8289 -7.2635,1.4042 -5.1884,-2.1063 -7.6093,2.8083 -2.3882,6.6301 -6.7666,1.6935 -5.6253,-1.9857 -9.0493,4.4679 v 6.2054 h -4.4023 l -2.2013,7.6948 -2.4458,-0.2481 -1.4674,2.4822 v 2.482 l -7.0928,1.9858 -6.1143,-2.4822 -9.0493,7.943 0.7338,2.7304 -2.4458,0.7446 -1.9567,3.4751 -6.1143,5.2126 -5.1363,0.2482 -5.064,-10.8869 h -5.3172 l -4.0118,-4.8308 -1.985,-7.3869 8e-4,6e-4 0.045,-7.5702 c 0,0 3.1129,-2.1062 2.767,-4.9145 -0.3459,-2.8083 -4.4964,-9.8289 -4.4964,-9.8289 l -4.8425,-1.0531 -16.2564,7.3716 -3.4588,4.2125 -9.6848,-15.7965 -11.0681,-6.3185 -9.6848,-9.829 h -6.5719 l -6.9175,-9.1268 -6.6614,-0.569 -6.8281,-7.1538 -9.3389,-1.0531 -10.3764,-13.3393 -2.4211,-12.2861 8.3011,-3.8614 4.1507,-6.6697 14.527,-8.7758 3.4589,-8.7759 3.4587,-0.351 0.6918,-9.1268 -4.8423,-7.0207 3.4589,-5.6165 -1.3836,-6.3186 -11.0683,-7.0208 -8.3011,-9.8288 -8.96,-3.9315 9.4651,-6.706 7.2991,-0.8236 1.6221,-3.2945 8.5158,-2.8826 5.0689,1.2356 0.2079,15.8484 2.2302,10.9103 5.2099,1.897 -2.3217,6.016 -1.4621,5.6676 3.6467,4.1161 10.5363,-6.9975 6.892,-16.0441 z"
     style="fill:#fefee9;fill-opacity:1;stroke:#646464;stroke-width:0.42666668;stroke-linecap:butt;stroke-linejoin:round;stroke-miterlimit:4;stroke-dasharray:none;stroke-opacity:1"
     id="Pensilvania,_Código_DANE_:_17541" />
  <path
     id="Marquetalia,_Código_DANE_:_17444"
     style="fill:#fefee9;fill-opacity:1;stroke:#646464;stroke-width:0.42666668;stroke-linecap:butt;stroke-linejoin:round;stroke-miterlimit:4;stroke-dasharray:none;stroke-opacity:1"
     d="m 806.8696,480.7313 2.3943,-6.6397 7.6095,-2.8083 5.1883,2.1062 7.2635,-1.4042 2.7671,-9.8289 11.4141,-3.8613 8.3012,3.8613 7.6095,-2.8083 14.527,-0.351 5.1883,1.4041 3.8047,-3.1592 1.3655,-8.443 10.0486,-0.6838 4.8423,-3.5104 3.113,2.1062 0.3459,6.3185 3.8047,1.0531 -0.6918,4.2125 -4.4964,5.2655 6.2259,4.9143 h 5.5341 l 4.4964,-8.4247 h 4.1507 l 3.8048,-7.7228 0.3457,-3.5102 h 7.6095 l 3.4588,1.755 9.3389,-4.9143 7.6093,4.0369 -1.3836,6.4941 0.3459,3.8613 -3.1129,4.2125 5.1884,4.9143 2.767,5.6167 -3.4589,4.2123 2.0753,2.8084 2.0752,7.1961 -8.474,2.1063 -0.6917,4.2122 -2.94,1.7552 -4.8424,-1.0531 -8.4741,6.6697 -20.2342,-4.3879 -3.113,-2.1062 -2.767,6.143 -9.166,0.8776 -2.4211,-2.6328 -3.9777,2.6328 v 8.6003 l -6.3987,3.1593 -3.4589,-2.4572 -14.0083,2.4572 -4.353,4.711 -3.6022,-1.3762 -1.7295,3.5104 -6.2259,-4.5633 -7.9553,-3.1594 -4.1507,-4.2125 1.3836,-4.2124 -3.1129,-3.8614 -2.4212,2.1062 h -4.4965 l -6.5718,-4.2122 -3.113,1.4039 -2.4211,-3.1591 -3.113,0.351 -5.1881,-1.0531 -0.346,-5.2655 -3.1129,-2.8083 4.4965,-3.1594 -1.3836,-3.8612 z" />
  <path
     d="m 795.538,246.7049 5.1393,-8.8509 9.4566,-4.1168 12.7459,-9.4684 6.5783,-10.086 1.6448,-6.1752 1.6445,-1.0291 0.4112,-2.2642 -5.1393,-5.7633 h -2.2614 l 0.4112,-3.7052 2.2612,-4.5283 0.8223,-12.3504 -3.9059,-3.4992 -0.6167,-7.8218 2.4669,-1.4407 2.8352,-12.895 5.345,-3.7052 4.7283,-3.0875 11.9235,1.2349 1.2334,-3.705 h 2.4669 l 4.5229,-3.0876 9.4216,0.3914 1.5259,3.6618 3.3567,0.9155 6.7134,-5.7979 5.1875,-1.5257 6.1032,-3.662 3.0516,-3.967 6.4081,-0.3051 15.868,-11.901 3.6619,-12.8164 1.8309,-1.5258 3.6619,0.3051 2.136,-3.3568 -3.6618,-3.3566 0.9154,-4.5773 h 4.2721 l 3.0516,-1.2207 4.8825,-0.6102 6.1056,1.183 1.8505,2.0585 h 5.3449 l 4.9339,-4.1168 5.4508,-0.1891 5.8369,-3.2928 0.2994,-3.4422 2.8436,-1.1974 1.0477,1.4968 5.837,-0.7485 7.633,-6.8847 5.8371,-1.0476 2.3947,3.2927 h 3.4422 l 3.4425,-4.041 12.5719,-0.2994 2.8437,-2.5443 9.4292,0.4489 3.1428,-1.3469 1.5862,-2.9824 1.7593,2.7341 -0.6919,6.6697 -4.4965,3.5104 v 3.1591 l 6.5718,6.3186 4.5836,-0.039 -2.4211,3.8614 v 5.6164 l 4.1505,6.6697 -1.3835,10.1799 c 0,0 7.9552,0.3511 9.3387,1.0532 1.3836,0.702 3.8048,5.9675 3.8048,5.9675 l -1.3835,2.4573 v 7.7227 l 2.0753,2.8083 -5.5341,7.3717 h -5.88 l -0.6918,5.9675 -5.5342,8.0738 c 0,0 -0.3458,6.6696 0.346,8.4248 0.6918,1.7552 2.4211,3.1593 2.4211,3.1593 l -3.4588,7.0207 -2.767,0.7021 -5.88,5.9675 -4.4965,-0.7021 -3.8048,3.5104 -6.5717,-1.7552 v -6.6696 l 2.4211,-4.5635 -2.4211,-4.9144 -6.9178,-1.4042 -2.767,11.9353 -12.4518,4.9143 -5.88,-1.4042 -3.4587,2.8084 -0.6918,11.935 3.8048,6.6698 -3.8048,5.9675 1.0375,10.8821 4.8425,2.8082 -2.0752,6.3187 -4.8425,3.1591 -3.8048,-0.351 -1.0375,4.5635 -3.113,2.1062 -1.7295,-2.1062 -5.5341,2.4572 -1.0375,5.2656 -4.1507,-3.5104 -4.1507,0.351 0.6919,9.1269 -6.9178,3.8614 0.3459,3.8613 4.4966,1.0532 4.1505,2.4572 4.8424,-1.4041 9.6848,5.6164 0.3457,2.4573 5.1884,1.7552 7.2635,3.5103 1.7295,-1.053 v -2.4573 l 5.1881,-3.8615 6.5719,0.3511 8.3011,-9.8289 -1.7293,-7.0207 3.8046,-2.4573 6.5718,-9.1267 5.88,1.7551 1.0377,5.9677 7.8813,2.048 -0.5703,1.0483 -5.7349,6.4061 -6.8819,2.3293 -2.8673,7.5712 -1.1469,8.1533 -6.3084,5.8237 -0.5735,8.1535 1.7203,7.5709 -1.1468,6.9886 2.294,7.5708 -6.8819,3.4943 -4.0144,8.1534 5.7347,5.8237 -2.8674,5.8239 -4.0144,5.8238 -4.5879,6.4061 v 9.9007 l 1.1469,8.1532 -0.5734,7.5709 -2.7968,8.5219 4.8642,13.0452 -6.2259,17.5516 -15.2188,16.1476 -1.7294,21.062 -6.2259,5.9675 -9.3417,-2.6589 -7.9524,-4.3617 -9.3389,4.9144 -3.4588,-1.755 h -7.6095 l -0.3457,3.5102 -3.8048,7.7227 h -4.1507 l -4.4964,8.4248 h -5.5341 l -6.2259,-4.9144 4.4964,-5.2655 0.6918,-4.2124 -3.8047,-1.0532 -0.3459,-6.3185 -3.113,-2.1062 -4.8423,3.5104 -11.1911,0.7774 -2.9901,-4.6395 1.0376,-4.5634 -4.4964,-3.8614 0.3459,-4.5633 3.1129,-4.5636 5.5341,-8.0738 -4.8424,-9.1268 -8.6471,-1.7551 -2.4211,-2.4573 1.3836,-2.8083 -0.3459,-3.5102 -2.7671,-1.4041 -3.8047,2.457 -14.1812,-2.106 -7.6095,-7.7228 1.3836,-2.8083 -0.6918,-10.531 -3.4588,-2.4573 1.3835,-3.1592 -0.3459,-1.7552 -4.4965,-2.1063 4.8424,-3.1591 -1.7295,-3.8614 2.4214,-3.8614 -5.88,-3.8614 -1.0378,-3.1594 3.4589,-4.9143 -2.4211,-2.4573 v -5.6165 l -2.4214,-3.1594 2.4214,-10.1799 -1.3837,-1.7551 3.8048,-7.0206 h 2.4211 l 0.6919,-4.9146 -1.7295,-4.2124 v -5.2656 l -2.0753,-6.6695 -4.8423,1.0531 -2.0754,2.4573 -5.1883,0.351 -2.4211,4.2123 -4.1506,-1.0531 0.6917,-2.8081 -4.1506,-2.1063 6.2259,-23.1682 -2.0753,-3.5104 -3.4587,-0.7021 -0.6919,-6.3185 -8.647,-2.1062 -5.1883,-1.0531 -1.7293,-4.5634 h -2.0754 l -0.6918,6.6696 -3.8496,-3.8569 z"
     style="fill:#fefee9;fill-opacity:1;stroke:#646464;stroke-width:0.42666668;stroke-linecap:butt;stroke-linejoin:round;stroke-miterlimit:4;stroke-dasharray:none;stroke-opacity:1"
     id="Samaná,_Código_DANE_:_17662" />
  <path
     id="Victoria,_Código_DANE_:_17867"
     style="fill:#fefee9;fill-opacity:1;stroke:#646464;stroke-width:0.42666668;stroke-linecap:butt;stroke-linejoin:round;stroke-miterlimit:4;stroke-dasharray:none;stroke-opacity:1"
     d="m 1095.235,207.3162 2.4954,-0.9654 0.6918,7.6249 5.1882,2.8084 13.1436,1.4041 3.8046,-2.1062 3.4588,8.7759 11.7601,3.5104 2.767,-1.7552 2.0752,-3.5104 8.993,-2.1062 8.993,5.2655 4.1506,-0.351 14.1812,-6.6697 h 10.7225 l 8.3011,4.9145 4.4966,6.3185 3.1128,2.4573 v 2.1062 l 2.4213,3.5103 h -2.4213 l -3.1128,-2.1061 -5.8802,0.351 -3.1127,1.7551 1.3834,2.4573 v 12.2862 l -2.4212,2.4572 -0.3458,4.2124 5.5341,3.8615 -1.3835,8.7757 1.3835,5.2656 4.4963,1.7552 1.3837,2.457 -4.4965,0.3511 -0.3459,2.8083 -5.1881,3.8614 v 3.8614 h -2.0755 l -2.0753,-3.5104 -2.4211,1.0531 -2.767,4.2125 1.0375,3.1591 -1.7294,6.3187 -3.1129,0.7021 -3.113,3.1593 h -2.4211 l -3.113,4.9145 -11.0683,4.5633 -4.8424,7.0207 h -3.4588 l 1.3836,4.2125 7.9553,2.1062 2.0754,6.6696 5.8798,2.1062 -1.0375,4.2124 -2.7671,1.7552 v 3.1591 l -0.6917,2.4573 v 1.7552 l -3.1131,3.1594 2.0753,5.2655 -0.3457,5.6164 -3.4588,3.5104 6.5716,1.4042 0.3459,4.2123 2.767,3.5104 6.5719,0.7021 v 3.1592 l -2.7672,1.0531 -1.7292,-2.4571 -3.8048,2.106 -4.1507,3.8615 1.3836,5.2655 -1.7293,1.7552 -1.7296,5.6164 -4.8422,2.1062 v 4.2125 l -5.1884,-0.7021 -1.3834,-3.1593 h -4.4966 l -4.8423,-3.5104 -1.7293,8.7759 h -4.8425 l -4.1505,3.1593 3.4587,2.1063 -3.8046,2.1062 -1.0376,2.4571 -3.1131,-4.9144 -2.4211,1.7552 -0.3459,3.5102 h -5.8799 l -1.0378,1.7552 3.8048,2.8083 -3.8048,2.1062 -0.6918,3.5104 10.7225,-3.5104 4.8423,2.4573 4.1507,-0.3511 v -2.8082 l 1.7293,-0.7021 2.4213,2.4572 4.8423,-2.4572 -2.0753,7.3718 3.1128,3.5101 -3.8046,4.2125 -6.5718,4.5634 c 0,0 -3.1129,9.1269 -3.4588,10.531 -0.3459,1.4042 -6.2259,1.4042 -6.2259,1.4042 l -5.88,9.478 -9.3389,6.6695 1.3836,2.8083 7.6093,0.7021 0.5824,13.2282 -0.9281,3.6214 -3.1131,-1.0531 -0.6917,-3.5104 -3.1129,0.351 -2.4211,2.1063 -4.1508,-3.8615 h -5.8799 l -0.6918,-3.8612 -3.4589,-1.7552 -1.0375,-2.1062 -1.7295,-5.6166 h -4.4964 l -4.4966,3.8614 -3.1129,-2.4572 -2.7671,1.7551 -2.4211,-1.4041 -0.3459,2.8082 -4.8424,2.1063 -2.0754,-2.4573 -4.1505,0.7021 -3.1128,-1.7552 -1.7296,1.7552 1.0377,3.8614 -4.1505,3.5102 -1.0377,2.1062 -6.9177,-0.702 -2.0753,1.0531 2.767,2.8083 h -2.4211 v 5.6165 l -4.1506,0.7021 -4.1505,-3.1593 h -7.2637 l -2.767,-3.1593 -2.4211,0.351 0.3459,2.4572 h -1.3836 l -2.4212,-1.053 h -5.5341 l -7.9554,-7.7229 -5.1882,-2.8081 -1.0377,1.7552 -2.7671,-0.7021 -1.7294,1.0532 -2.0752,0.351 -7.9554,-5.2656 -5.5341,1.4042 -1.7293,-1.0532 -5.88,6.6696 -5.1884,-0.7021 -4.4964,5.9677 -4.3895,-1.6267 -2.1823,-7.5001 -2.0753,-2.8084 3.4589,-4.2123 -2.767,-5.6167 -5.1884,-4.9143 3.1129,-4.2125 -0.3459,-3.8613 1.5904,-6.0888 9.478,2.5784 6.2259,-5.9675 1.7294,-21.0621 15.2188,-16.1475 6.2259,-17.5517 -4.8618,-13.0438 c -0.2197,-1.1799 2.594,-5.8758 2.7944,-8.5232 l 0.5734,-7.5709 -1.1469,-8.1533 v -9.9007 l 4.5879,-6.4061 4.0144,-5.8237 2.8674,-5.8239 -5.7347,-5.8237 4.0144,-8.1534 6.8819,-3.4943 -2.294,-7.5709 1.1468,-6.9886 -1.7203,-7.5708 0.5735,-8.1535 6.3084,-5.8237 1.1469,-8.1533 2.8673,-7.5712 6.8819,-2.3294 5.7349,-6.4061 6.3083,-4.0767 h 9.7493 l 10.8961,-5.2413 8.6023,-5.2415 1.7206,-6.9886 2.2938,-6.9885 6.8819,-2.912 4.5881,-6.9885 5.7347,1.1648 h 5.1613 z" />
  <path
     d="m 1168.9477,108.6362 0.9076,4.7146 -2.6021,3.4022 -4.9904,-0.4826 -3.0384,1.065 -2.9506,1.6285 -2.5434,1.5776 1.6521,3.0924 -0.5049,2.1491 -4.6455,0.016 -3.3836,1.1514 2.2905,2.5409 2.871,2.1179 3.1886,1.491 3.6934,2.0034 1.0887,3.8833 -1.0887,2.5229 -3.9834,-2.0627 -4.6191,-0.2669 -1.3357,3.1874 -0.9582,3.8013 0.1946,4.532 -1.9151,2.4565 -3.8116,0.2208 -3.6438,1.5264 -4.3249,0.7018 -3.7039,1.6276 -1.5312,3.1709 -1.3361,3.2354 -0.8614,4.1328 -3.7264,1.6909 -3.75,0.9475 -3.1318,1.3822 1.1059,2.9851 0.6144,3.4209 -2.4128,3.0404 -1.0279,3.3657 0.7081,3.9568 -0.7081,4.7789 -4.5881,5.2416 -2.8673,2.3295 -4.0146,3.4944 -5.4682,1.7483 -2.5604,1.1635 -5.735,4.0767 h -5.1613 l -5.7347,-1.1648 -4.5881,6.9885 -6.8819,2.912 -2.2938,6.9884 -1.7206,6.9886 -8.6023,5.2415 -10.8961,5.2414 h -9.7493 l -5.5566,3.0042 -8.0627,-2.0238 -1.0377,-5.9677 -5.88,-1.7551 -6.5718,9.1267 -3.8046,2.4573 1.7293,7.0207 -8.3011,9.8289 -6.5719,-0.351 -5.1881,3.8614 v 2.4573 l -1.7295,1.053 -7.2635,-3.5103 -5.1884,-1.7552 -0.3457,-2.4573 -9.6848,-5.6164 -4.8424,1.4042 -4.1505,-2.4573 -4.4966,-1.0531 -0.3459,-3.8614 6.9178,-3.8614 -0.6919,-9.1268 4.1507,-0.3511 4.1507,3.5104 1.0375,-5.2656 5.5341,-2.4572 1.7295,2.1062 3.113,-2.1062 1.0375,-4.5635 3.8048,0.3511 4.8425,-3.1592 2.0752,-6.3187 -4.8425,-2.8082 -1.0375,-10.882 3.8048,-5.9676 -3.8048,-6.6698 0.6918,-11.935 3.4587,-2.8083 5.88,1.4041 12.4518,-4.9143 2.767,-11.9353 6.9178,1.4042 2.4211,4.9144 -2.4211,4.5636 v 6.6695 l 6.5717,1.7552 3.8048,-3.5104 4.4965,0.7021 5.88,-5.9675 2.767,-0.7021 3.4588,-7.0207 c 0,0 -1.7293,-1.4041 -2.4211,-3.1593 -0.6918,-1.7552 -0.346,-8.4248 -0.346,-8.4248 l 5.5342,-8.0738 0.6918,-5.9674 h 5.88 l 5.5341,-7.3718 -2.0753,-2.8083 v -7.7227 l 1.3835,-2.4572 c 0,0 -2.4212,-5.2655 -3.8048,-5.9676 -1.3835,-0.7021 -9.3387,-1.0531 -9.3387,-1.0531 l 1.3835,-10.18 -4.1505,-6.6696 V 93.574 l 2.4211,-3.8614 -4.5836,0.039 -6.5718,-6.3186 v -3.1592 l 4.4965,-3.5104 0.6919,-6.6696 -1.853,-2.6816 3.5461,0.08 1.2334,-2.4701 5.5504,-1.2349 11.1013,0.6175 2.8781,2.6756 4.2071,-0.7062 8.4911,6.1487 8.1982,1.1712 2.0495,3.8064 -2.3423,1.464 0.5856,2.3422 2.9279,3.8064 -0.8784,3.2208 3.5136,7.027 11.7118,6.4414 3.8063,-3.2208 4.392,1.7568 -0.8784,3.8064 4.3918,5.8559 3.2208,-0.2928 0.8784,-3.8063 5.5631,0.2928 0.8784,2.3423 2.928,2.928 10.2477,1.1712 v 3.8062 l 8.1981,2.6352 3.8064,-1.1712 3.8064,-7.9054 2.9279,0.5856 4.3613,0.093 1.85,1.6467 6.9897,-1.235 2.6726,-2.2642 z"
     style="display:inline;fill:#fefee9;fill-opacity:1;stroke:#646464;stroke-width:0.42666668;stroke-linecap:butt;stroke-linejoin:round;stroke-miterlimit:4;stroke-dasharray:none;stroke-opacity:1"
     id="Norcasia,_Código_DANE_:_17495" />
  <path
     d="m 1117.722,488.7542 -0.6223,-13.6095 -7.6093,-0.7021 -1.3836,-2.8083 9.3389,-6.6695 5.88,-9.478 c 0,0 5.88,0 6.2259,-1.4042 0.3459,-1.4041 3.4588,-10.531 3.4588,-10.531 l 6.5718,-4.5634 3.8046,-4.2125 -3.1128,-3.5101 2.0753,-7.3718 -4.8423,2.4572 -2.4213,-2.4572 -1.7293,0.7021 v 2.8082 l -4.1507,0.3511 -4.8423,-2.4573 -10.7225,3.5104 0.6918,-3.5104 3.8048,-2.1062 -3.8048,-2.8083 1.0378,-1.7552 h 5.8799 l 0.3459,-3.5102 2.4211,-1.7552 3.1131,4.9144 1.0376,-2.4571 3.8046,-2.1062 -3.4587,-2.1063 4.1505,-3.1593 h 4.8425 l 1.7293,-8.7759 4.8423,3.5104 h 4.4966 l 1.3834,3.1593 5.1884,0.7021 v -4.2125 l 4.8422,-2.1062 1.7296,-5.6164 1.7293,-1.7552 -1.3836,-5.2655 4.1507,-3.8615 3.8048,-2.106 1.7292,2.4571 2.7672,-1.0531 v -3.1592 l -6.5719,-0.7021 -2.767,-3.5104 -0.3459,-4.2123 -6.5716,-1.4042 3.4588,-3.5104 0.3457,-5.6164 -2.0753,-5.2655 3.1131,-3.1594 v -1.7552 l 0.6917,-2.4573 v -3.1591 l 2.7671,-1.7552 1.0375,-4.2124 -5.8798,-2.1062 -2.0754,-6.6696 -7.9553,-2.1062 -1.3836,-4.2125 h 3.4588 l 4.8424,-7.0207 11.0683,-4.5633 3.113,-4.9145 h 2.4211 l 3.113,-3.1593 3.1129,-0.7021 1.7294,-6.3187 -1.0375,-3.1591 2.767,-4.2125 2.4211,-1.0531 2.0753,3.5104 h 2.0755 v -3.8614 l 5.1881,-3.8614 0.3459,-2.8083 4.4965,-0.3511 -1.3837,-2.457 -4.4963,-1.7552 -1.3835,-5.2656 1.3835,-8.7757 -5.5341,-3.8615 0.3458,-4.2124 2.4212,-2.4572 v -12.2862 l -1.3834,-2.4573 3.1127,-1.7551 5.8802,-0.351 3.1128,2.1061 h 2.4213 l -2.4213,-3.5103 v -2.1062 l -3.1128,-2.4573 -4.4966,-6.3185 -8.3011,-4.9145 h -10.7225 l -14.1812,6.6697 -4.1506,0.351 -8.993,-5.2655 -8.993,2.1062 -2.0752,3.5104 -2.767,1.7552 -11.7601,-3.5104 -3.4588,-8.7759 -3.8046,2.1062 -13.1436,-1.4041 -5.1882,-2.8084 -0.6592,-7.8921 c 1.8203,-0.4631 4.081,-0.2376 5.5006,-1.6792 1.247,-1.2662 3.0335,-2.4979 4.0146,-3.4944 0.9556,-0.7765 1.9115,-1.5531 2.8673,-2.3295 2.4978,-2.0291 4.1388,-2.2087 4.5881,-5.2416 l 0.7079,-4.7788 -0.7079,-3.9568 1.0281,-3.3659 2.4126,-3.0402 -0.6145,-3.4209 -1.1058,-2.9852 3.1318,-1.3822 3.75,-0.9475 3.7264,-1.6911 0.8614,-4.1326 1.3361,-3.2354 1.5312,-3.1709 3.7039,-1.6278 4.3249,-0.7016 3.6438,-1.5264 3.8116,-0.2208 1.9151,-2.4565 -0.1946,-4.5319 0.9582,-3.8013 1.3357,-3.1874 4.6191,0.2667 3.9834,2.0629 1.0887,-2.5229 -1.0887,-3.8833 -3.6932,-2.0035 -3.1888,-1.4909 -2.871,-2.1181 -2.2905,-2.5408 3.3836,-1.1514 4.6455,-0.016 0.5049,-2.1491 -1.6521,-3.0924 2.5434,-1.5776 2.9506,-1.6284 3.0382,-1.0653 4.9906,0.4829 2.4567,-3.579 -0.7216,-4.5311 2.4665,-1.8705 0.6168,-3.2934 2.2611,-2.2641 1.8505,1.4407 2.2614,1.2352 1.0278,-2.8818 h 1.6445 l 1.028,-2.2644 -3.2893,-0.6173 -1.6446,-2.2643 1.439,-0.4116 v -3.4992 l 3.2891,-3.4992 -0.2055,-2.8818 1.8503,-2.2641 -0.2055,-3.0877 h 1.439 l 1.439,-2.6757 -2.6725,-1.8526 0.6166,-4.3226 -1.4388,-0.6175 -1.8504,-3.9108 1.6448,-0.4117 2.4667,-3.0877 2.8782,-1.0291 -0.4112,-5.5576 1.2335,-0.6175 1.2336,-3.2934 1.85,-1.235 V 53.87 l 3.495,3.0874 1.6445,-1.4409 -1.439,-5.1457 1.2333,-2.47 v -2.2644 l -4.1115,-2.4699 0.4112,-2.4701 3.2893,-1.6467 2.2615,1.8524 h 3.9059 l 0.8222,1.0294 1.439,-1.0294 0.2057,-3.0874 1.6445,-1.0291 0.8223,-2.6761 h 1.8504 l 1.8501,5.7635 h 2.0558 l 1.6445,-1.4407 2.2614,0.4116 2.0557,-2.8817 -0.8222,-1.8527 2.0557,-1.4407 5.5507,1.6468 0.4112,2.0582 2.4669,1.8527 4.3171,-0.6178 2.4669,2.0586 0.4113,3.9109 2.4668,0.2058 -0.2057,1.8524 2.2615,1.441 2.4668,-1.8527 1.8503,-7.41 1.9461,0.263 2.24,2.8138 -0.9189,4.2878 -1.2251,2.7564 1.8378,1.8378 v 7.9632 l -3.9818,10.4137 -3.0627,2.7564 0.3062,5.2069 3.3691,8.5759 5.2067,1.8375 4.288,-3.0627 6.7383,2.7565 3.0627,5.8194 -0.3063,8.2695 4.2879,3.369 8.8823,2.144 4.9005,6.1256 -0.3065,3.3691 -1.8375,1.8378 0.6124,6.1256 -4.9003,8.5758 -6.4107,2.3706 -3.441,6.9888 -2.8675,2.6204 0.5736,5.2415 5.1615,4.659 -0.8604,3.7856 -2.5806,1.1647 0.5734,2.6208 2.8676,3.203 -2.5808,1.456 v 2.6207 l 3.7276,4.0768 v 2.3294 l -4.5878,6.1149 1.4336,2.912 2.2941,0.8736 -1.4339,2.0384 -2.0071,1.1647 v 2.6205 l -6.0216,8.7357 -3.1543,0.8736 -2.8675,9.0271 0.287,7.8621 -1.7206,2.0382 -2.5808,0.5824 -2.8672,11.3565 -2.5808,2.3295 2.5808,1.7472 10.896,-0.5824 2.0074,1.456 4.0144,9.9004 2.8675,2.0384 -0.8603,2.6206 -1.7205,0.2912 1.1391,6.7434 -3.9818,9.4947 -11.0261,12.6947 -13.1699,8.4067 -4.288,2.144 -0.9189,5.513 3.3691,4.5942 3.3692,3.401 -0.3065,7.9634 1.2252,5.2067 2.4502,2.7565 0.3064,3.3691 -0.9188,2.4502 v 4.9005 l 2.4502,4.5942 v 7.657 l 6.1255,7.9634 4.5943,1.8376 1.5314,2.7567 -3.0627,2.4502 -5.8194,1.8375 -4.288,-2.4502 -9.801,-0.3062 -4.5942,3.0627 0.3062,7.0445 3.3692,5.5131 5.8193,3.0628 2.9014,3.191 -1.3655,12.7517 -6.9177,2.1062 -6.226,-0.3512 -4.4966,4.9145 11.1555,23.56 -17.3814,9.0861 -8.3011,-2.1062 -4.4964,-9.1269 -4.1507,3.5104 10.0307,15.0944 -12.7978,14.0413 2.0756,23.8704 -12.7978,4.9144 -9.3389,10.1798 -2.767,13.8659 -6.2259,0.8778 0.6916,-6.6698 -12.1057,9.478 c 0,0 -2.0754,-3.1593 -4.1506,-4.2124 -2.0753,-1.0531 -6.9178,-1.7552 -6.9178,-1.7552 l -7.6094,-10.531 -13.1436,2.4573 z"
     style="fill:#fefee9;fill-opacity:1;stroke:#646464;stroke-width:0.42666668;stroke-linecap:butt;stroke-linejoin:round;stroke-miterlimit:4;stroke-dasharray:none;stroke-opacity:1"
     id="La_Dorada,_Código_DANE_:_17380" />
  <path
     id="Filadelfia,_Código_DANE_:_17272"
     style="fill:#fefee9;fill-opacity:1;stroke:#646464;stroke-width:0.42666668;stroke-linecap:butt;stroke-linejoin:round;stroke-miterlimit:4;stroke-dasharray:none;stroke-opacity:1"
     d="m 402.7698,463.1777 -1.3018,-5.5847 1.7293,-7.7226 -2.767,-2.8084 0.3459,-11.5842 -14.527,1.4042 -13.1437,7.3717 h -9.6846 l -3.8048,-4.5634 h -7.6095 l -5.5341,-5.2656 3.8048,-3.8612 -2.0753,-4.9146 -9.6848,-3.8613 -6.0361,-5.3079 -3.9148,4.1292 -0.2446,5.9572 -1.2229,3.2268 0.9784,3.9715 -3.1795,6.7019 -7.3373,7.6947 -10.0277,4.4681 -0.9782,11.1697 2.2011,3.4751 -0.9782,12.6592 -4.1578,3.7232 -4.647,-2.7305 -5.9619,1.2736 -2.9706,4.5469 -5.0614,6.5299 -1.8874,10.0127 -3.8605,2.8731 3.5173,6.4429 -0.2032,1.3263 4.4358,3.3376 4.8425,17.9025 4.1505,3.5104 2.0754,18.2537 4.8422,-0.7021 3.8048,1.7552 -1.3836,4.9145 4.4966,2.8083 1.7294,-0.7021 h 7.6092 l 3.4589,3.5104 5.1884,-3.8614 7.9552,-2.4573 5.5342,7.7227 9.3388,1.7552 10.3764,7.7228 3.8048,3.8614 12.4518,0.7021 4.8423,-3.1594 4.4965,-0.7021 3.1443,-4.5123 -1.069,-12.6883 3.4589,-5.2655 -1.3835,-11.9351 2.0752,-6.3187 -0.3459,-11.233 6.5718,-3.8614 8.6471,3.1593 8.9929,-6.6697 -3.8047,-4.9143 2.4212,-7.7228 10.3765,-1.0531 v -14.0414 l -5.1882,-8.4248 -4.8424,-1.0529 1.3836,-8.074 -4.4966,-2.4571 1.3836,-3.1594 -4.8425,-3.1591 -3.4586,-0.3511 z" />
  <path
     id="La_Merced,_Código_DANE_:_17388"
     style="fill:#fefee9;fill-opacity:1;stroke:#646464;stroke-width:0.42666668;stroke-linecap:butt;stroke-linejoin:round;stroke-miterlimit:4;stroke-dasharray:none;stroke-opacity:1"
     d="m 427.306,448.4476 -1.9721,-3.4918 1.3834,-5.6165 -5.534,-2.1063 -0.346,-4.9143 c 0,0 4.1508,-2.8083 4.1508,-4.9146 0,-2.1062 -2.7672,-9.1269 -2.7672,-9.1269 l -4.4965,-3.8612 2.7672,-12.9884 -2.0754,-12.2861 4.1506,-9.1268 -12.1059,-5.9677 3.4589,-8.0738 -4.8422,-10.8907 -9.8287,0.9898 -5.3808,1.4893 -16.1419,-7.4467 -2.4458,-6.95 -12.2288,-3.475 -6.9772,-0.3735 -3.7843,7.82 0.2447,8.1912 -5.6252,20.6021 -4.1578,22.5878 -5.3808,9.9286 -4.9791,7.9581 6.1253,5.3834 9.6848,3.8613 2.0753,4.9146 -3.8048,3.8612 5.5341,5.2656 h 7.6095 l 3.8048,4.5634 h 9.6846 l 13.1437,-7.3717 14.527,-1.4042 -0.3459,11.5842 2.767,2.8084 -1.7293,7.7226 1.2621,5.5456 4.9638,-0.9822 1.7294,-1.4041 3.4588,-0.3511 14.1812,-6.3186 z" />
  <path
     d="m 294.1284,479.7168 2.6309,-4.329 -6.2391,-3.7328 h -4.2692 l -4.5977,-5.6684 1.3136,-6.6685 -2.2988,-5.0012 0.6568,-5.3349 6.2397,-5.0012 -0.6569,-4.3347 -5.5641,-2.2947 -5.2481,1.9682 -9.8403,-1.9682 -8.5284,-11.8083 v -3.2801 -1.64 l -7.2162,-0.328 -0.328,-4.2642 -3.2801,-0.984 3.6081,-2.6241 v -5.5762 l -3.6081,-1.968 -6.2322,3.608 v -2.624 l -1.64,-1.64 -3.9361,2.296 -11.4803,-5.5761 -0.656,-4.9203 -3.6082,0.656 -4.6954,-2.3833 v 0 l -0.6567,2.3341 1.3136,2.3339 -2.6272,8.0023 -7.5535,2.3338 -4.5978,-3.3341 -5.9114,2.3338 -4.2692,-6.335 -8.5385,6.0016 -3.2842,9.0025 -10.1807,4.3347 -9.1955,6.0017 -11.4942,-0.6669 -5.5965,4.2208 -5.9113,-2.5536 -9.4995,-1.6099 -3.2957,3.6754 -4.9261,-1.3338 -2.2989,-5.0502 -5.5829,-4.001 -1.9706,2.3339 -4.9261,-6.0016 -2.9556,2.334 -8.8668,0.328 5.2543,-7.2812 1.642,-9.336 2.9558,-5.6682 -0.1088,-15.9866 -0.6739,-8.9372 -4.3655,-4.0785 0.6187,-8.5903 -2.7396,-6.9678 -3.3305,-3.5334 -0.1424,-6.0167 2.2874,-1.0274 1.5728,-3.6686 -2.8596,-1.3206 -1.5724,-3.5219 3.574,-2.3481 0.1737,-3.6686 -2.1445,-0.5871 -0.8576,-7.0669 0.7147,-3.0817 -2.8901,-2.7881 -3.1453,-6.6035 2.3273,-4.7996 0.1136,-6.4331 3.4384,-4.2981 6.5902,3.1519 1.4328,8.8825 7.4497,-0.2866 7.1634,6.3039 7.1633,-1.7192 4.0116,-4.0116 0.2866,-6.0172 10.6017,-11.4613 8.3096,-0.8597 2.5787,-3.4384 v -5.7307 l 3.725,-3.4384 5.7307,-2.0057 3.1519,-6.5903 6.5904,-4.298 8.0228,0.8596 3.1519,6.3037 3.152,-0.2864 0.5729,-7.1633 -2.8653,-4.5847 5.1577,-7.4499 12.6074,-0.2866 1.7193,2.8655 10.0286,-2.2924 5.7308,-11.4614 4.5846,0.5731 2.5787,6.5903 11.1749,7.1633 3.4384,6.877 4.0115,1.7191 2.8653,3.4384 9.559,6.7039 10.0734,5.146 h 3.7004 l 0.7002,1.9619 2.9191,4.8458 -0.3459,6.6698 3.1129,8.0738 -4.1505,4.9144 -1.7295,10.8821 3.113,7.3716 -1.0375,7.0207 3.1127,3.5104 -3.8046,14.3923 -6.2259,2.1063 v 7.7226 l -6.9177,6.3187 4.8425,8.4247 -2.4213,4.2125 2.767,4.2124 6.5718,2.1062 v 3.5102 l 8.993,0.351 4.4965,-0.7021 11.76,9.8291 2.7671,12.6372 6.5718,9.829 5.5341,0.351 3.4589,3.5102 -1.7295,5.6167 8.9929,-5.2656 0.6918,-2.8081 5.5342,-2.4573 8.6134,3.456 -3.3456,3.439 -0.2446,5.9572 -1.2229,3.2268 0.9784,3.9715 -3.1795,6.7019 -7.3373,7.6947 -10.0277,4.4681 -0.9782,11.1697 2.2011,3.4751 -0.9782,12.6592 -4.1578,3.7232 -4.647,-2.7305 -6.2031,1.0914 z"
     style="display:inline;fill:#fefee9;fill-opacity:1;stroke:#646464;stroke-width:0.42666668;stroke-linecap:butt;stroke-linejoin:round;stroke-miterlimit:4;stroke-dasharray:none;stroke-opacity:1"
     id="Riosucio,_Código_DANE_:_17614" />
  <path
     d="m 318.1102,287.3418 7.6094,3.8614 v 4.2124 l 4.4965,3.1592 -6.9176,8.7759 v 5.6166 l 6.9176,5.6164 -0.3459,6.6697 -2.4211,2.1062 1.3834,5.6165 17.986,8.4248 2.767,5.9677 2.7046,-0.2322 0.2447,8.1912 -5.6252,20.6021 -4.1578,22.5878 -5.3808,9.9286 -5.5004,8.7114 -8.5721,-3.4436 -5.5342,2.4573 -0.6918,2.8081 -8.9929,5.2656 1.7295,-5.6167 -3.4589,-3.5102 -5.5341,-0.351 -6.5718,-9.829 -2.7671,-12.6372 -11.76,-9.8291 -4.4965,0.7021 -8.993,-0.351 v -3.5102 l -6.5718,-2.1062 -2.767,-4.2124 2.4213,-4.2125 -4.8425,-8.4247 6.9177,-6.3187 v -7.7226 l 6.2259,-2.1063 3.8046,-14.3923 -3.1127,-3.5104 1.0375,-7.0207 -3.113,-7.3716 1.7295,-10.8821 4.1505,-4.9144 -3.1129,-8.0738 0.3459,-6.6698 -2.8726,-4.7047 3.3648,0.7786 5.3451,-3.2935 16.6517,-1.6466 14.3906,1.0291 5.7561,4.1167 5.6461,0.3976 z"
     style="fill:#fefee9;fill-opacity:1;stroke:#646464;stroke-width:0.42666668;stroke-linecap:butt;stroke-linejoin:round;stroke-miterlimit:4;stroke-dasharray:none;stroke-opacity:1"
     id="Supía,_Código_DANE_:_17777" />
  <path
     d="m 367.0712,284.0348 4.3171,-1.8527 0.8224,-7.6157 h 1.0278 l 1.2334,-5.3517 -1.439,-0.8234 0.4112,-3.0876 -1.4391,-0.6176 v -2.2641 l -2.6724,-1.8524 0.411,-2.4701 -1.4587,-1.919 7.7761,-1.5715 2.5788,-0.2643 5.1882,-7.0208 5.1882,-5.2654 6.2258,0.7021 5.1883,-1.7552 4.4965,-3.5103 5.5341,-3.1594 4.1507,-9.1268 5.5341,-0.7021 6.2259,-4.5634 5.1882,3.8614 v 2.8083 l 2.4212,1.4041 4.1506,-3.5104 h 4.8424 l 1.3836,-4.9144 4.1505,3.8613 1.0376,4.5635 3.113,4.2123 4.4964,1.7552 3.8048,5.2655 3.8047,-1.4041 4.8423,5.2655 0.3459,4.9144 14.5271,3.1593 15.5647,-2.4572 6.2259,-2.4571 2.0753,1.755 v 3.1593 l 4.4966,1.7552 3.4586,-1.0531 4.8425,4.9145 1.0377,4.2125 -2.7672,7.7226 0.3459,5.6166 5.88,12.2861 1.7295,7.7228 6.5718,2.8083 5.5341,2.4571 4.4964,-1.0531 11.4141,0.351 7.2636,4.2125 0.3459,13.6902 1.3835,3.8615 -4.8423,5.6165 0.3459,5.6164 1.0377,4.5636 -0.6918,13.3392 2.0753,4.5635 -2.0753,8.4248 -4.0266,3.6696 -9.117,-1.9144 h -7.2635 l -6.9177,-6.6697 h -7.6095 l -3.8046,-4.5634 h -5.88 l -3.113,1.0531 -13.8354,-6.3185 -10.7223,-2.8083 -3.4588,-2.8084 -1.3835,1.4042 h -1.7295 l -5.1882,0.351 -1.7295,3.8615 -2.7671,-1.7552 -8.647,2.8081 -2.4211,2.8083 -6.2259,2.1062 -10.0305,-2.1062 -1.7295,-3.8612 -5.88,-3.5104 -0.346,-3.5104 -4.4964,1.0531 -7.6095,-4.5634 -0.3459,-5.2656 -3.8046,-2.4571 -4.8424,3.5102 -1.3835,5.9677 2.0753,2.8082 -4.1507,3.5104 -0.3457,3.8612 -2.4185,5.6106 -9.8313,0.9871 -5.3808,1.4893 -16.1419,-7.4467 -2.4458,-6.95 -12.2288,-3.475 -7.2374,-0.361 1.123,-1.8732 1.9565,-13.6519 4.647,-8.1913 -1.1914,-20.32 3.5785,-8.3497 z"
     style="fill:#fefee9;fill-opacity:1;stroke:#646464;stroke-width:0.42666668;stroke-linecap:butt;stroke-linejoin:round;stroke-miterlimit:4;stroke-dasharray:none;stroke-opacity:1"
     id="Pácora,_Código_DANE_:_17513" />
  <path
     id="Salamina,_Código_DANE_:_17653"
     style="fill:#fefee9;fill-opacity:1;stroke:#646464;stroke-width:0.42666668;stroke-linecap:butt;stroke-linejoin:round;stroke-miterlimit:4;stroke-dasharray:none;stroke-opacity:1"
     d="m 556.2603,561.7475 2.9303,-3.4079 -9.6848,-11.5841 v -6.6697 l 2.4214,-4.9145 -2.7673,-10.1799 -2.0752,0.3511 -3.4589,-0.7021 -0.6916,-7.7227 h -3.113 l -14.8729,-7.7228 -10.0307,-0.702 c 0,0 0.6918,-3.8615 -2.0752,-3.8615 -2.7671,0 -7.6095,-0.351 -7.6095,-0.351 l -2.7671,1.4041 -7.9553,-3.1593 -8.3011,-1.4042 -0.6918,-6.6695 -6.226,-7.3718 -3.4587,-1.4041 -8.6472,-11.233 -6.9176,2.8082 -8.993,-7.3717 1.3836,-3.5102 0.6918,-6.6697 3.113,-2.1062 -7.2637,-5.9677 -3.4588,-9.1268 -8.9929,7.0208 -3.8048,-2.1062 -5.6481,0.8781 -1.9613,-3.3354 1.3834,-5.6165 -5.534,-2.1063 -0.346,-4.9143 c 0,0 4.1508,-2.8083 4.1508,-4.9146 0,-2.1062 -2.7672,-9.1269 -2.7672,-9.1269 l -4.4965,-3.8612 2.7672,-12.9884 -2.0754,-12.2861 4.1506,-9.1268 -12.1059,-5.9677 3.4589,-8.0738 -4.7842,-10.7057 2.3631,-5.7929 0.3457,-3.8612 4.1507,-3.5104 -2.0753,-2.8082 1.3835,-5.9677 4.8424,-3.5102 3.8046,2.4571 0.3459,5.2656 7.6095,4.5634 4.4964,-1.0531 0.346,3.5104 5.88,3.5104 1.7295,3.8612 10.0305,2.1062 6.2259,-2.1062 2.4211,-2.8083 8.647,-2.8081 2.7671,1.7552 1.7295,-3.8615 5.1882,-0.351 h 1.7295 l 1.3835,-1.4042 3.4588,2.8084 10.7223,2.8083 13.8354,6.3185 3.113,-1.0531 h 5.88 l 3.8046,4.5634 h 7.6095 l 6.9177,6.6697 h 7.2635 l 9.3754,1.9 7.144,7.4748 15.1637,-0.4966 10.7613,-5.4608 c 0,0 3.4241,0 5.3806,0 1.9567,0 2.935,-7.4465 2.935,-7.4465 l 6.848,0.993 11.2506,-12.4111 0.9784,-10.4251 1.9962,-2.9104 9.1034,3.8593 8.3012,9.8288 11.0683,7.0208 1.3835,6.3186 -3.4589,5.6165 4.8425,7.0207 -0.6919,9.1268 -3.4587,0.351 -3.4589,8.7759 -14.5271,8.7758 -4.1507,6.6697 -8.3011,3.8614 2.4211,12.2861 10.3766,13.3393 9.3388,1.0531 6.9178,7.1962 3.4587,9.6534 H 638.052 l -1.3836,-1.0531 -10.3764,1.7552 -5.88,7.3717 -4.8425,-5.6166 -1.0375,-7.0207 h -6.9178 l -3.4588,4.2125 -11.76,-1.4042 -7.2637,8.7759 -1.0375,10.1799 -2.767,3.5103 -0.6919,13.6904 0.6919,5.2655 -0.6919,7.7226 -7.6095,6.6697 1.7295,10.531 -3.4588,24.2213 1.0377,9.1268 -6.2259,3.5104 -3.113,8.7759 -4.1183,-1.6783 z" />
  <path
     d="m 367.6879,248.8369 -1.6446,-1.441 0.2056,-2.8816 1.6447,-3.2934 -0.8224,-5.7636 2.878,-1.6465 -0.8223,-3.4992 -2.2614,-0.6176 0.6169,-5.7635 -1.6447,-0.6175 -0.4112,-4.3225 -2.6725,-1.2349 -0.8223,-3.9108 2.0557,-1.2352 0.4112,-2.2643 -1.6446,-1.6465 0.8224,-12.7619 -3.2892,-2.0585 v -7.2041 l -1.2335,-1.0292 v -3.0877 l 1.439,-0.4117 0.6166,-3.4992 -2.2612,-1.0292 0.2056,-3.4992 -3.4949,-2.6758 0.8222,-0.8234 v -1.6467 l -2.2612,-1.2349 v -4.1168 l 1.8502,-0.6176 v -9.8321 l 2.6727,-0.6175 0.8222,-3.705 2.6725,-2.4701 2.6724,0.6176 4.3174,-2.2642 0.4109,-2.8817 1.8503,-0.4118 1.2335,-2.8817 -4.3171,-0.4117 -2.8781,-3.4992 -5.5506,0.206 -1.2334,-2.0585 -6.373,-0.4116 -0.6168,-2.0585 h -2.4669 l -3.4949,-3.0874 v -2.0583 l 1.8502,-4.0962 -2.4668,-1.6465 v -8.0965 l 1.439,-7.7883 h 2.0559 l -0.2057,-9.4685 -2.6724,-1.4408 -1.6447,-11.1486 2.2614,-0.206 -0.8223,-7.2041 1.439,-1.4408 6.5785,0.8336 7.0188,2.8736 6.9349,6.9482 10.0587,2.2499 5.0938,-2.0169 7.52,1.6377 3.009,2.8208 5.0963,-0.7686 3.1364,7.3351 -2.7374,0.7532 -1.2032,4.3926 3.5428,4.0641 0.9011,4.567 4.1302,3.1878 -0.7717,3.1115 4.4646,2.5797 1.2186,-3.7209 3.1744,-1.0057 2.7243,1.2355 2.3108,-2.961 2.2797,1.5332 0.5231,3.4171 6.7671,6.1639 0.8551,2.2679 4.3437,1.3027 -0.4886,-3.4796 3.229,-0.7927 2.2697,2.2659 10.9703,4.8534 3.0099,7.8112 3.1771,-0.12 4.3039,4.9821 4.2758,-3.2044 5.191,0.08 6.2712,-4.5696 1.4568,-3.2062 1.6055,-1.0351 1.5489,-3.4064 5.6661,-3.3994 5.3325,-0.1991 3.9066,-2.4995 2.3002,-4.7986 6.6515,-1.4443 3.6409,-3.7798 6.8363,0.5536 7.222,2.2592 1.878,5.9324 3.6871,5.8317 8.0176,2.0584 6.9894,6.175 11.5123,-1.6467 3.081,5.1672 3.0836,0.4117 1.6447,6.1752 3.9059,1.2349 0.2056,4.7344 -2.2613,0.4116 v 1.6466 l 2.6724,2.2644 -0.5738,12.0716 -1.4389,1.0292 -2.6727,6.1751 -2.0558,-0.4116 -6.9894,5.7633 h -2.2614 v 4.7343 l 1.6444,1.235 -0.2054,4.3225 2.0558,0.4118 2.0557,5.5575 4.1115,1.2351 3.906,3.7051 6.1395,3.8424 9.8343,-1.5414 9.4567,-1.2351 2.7891,4.5496 -4.8392,7.4999 4.9464,16.4765 3.2893,1.8525 3.2892,9.2567 2.878,4.3225 -4.1116,4.5284 0.2057,7.2043 4.9339,5.9691 -0.2055,6.1753 4.4909,9.2806 8.9081,6.1366 3.4868,6.2157 -0.7707,7.3089 -4.1917,6.8736 -2.6725,1.4409 2.8781,3.911 1.6447,18.1134 -1.2335,7.2044 3.4253,2.0807 -1.9128,2.6911 -0.9784,10.4251 -11.2506,12.4111 -6.848,-0.993 c 0,0 -0.9783,7.4465 -2.935,7.4465 -1.9565,0 -5.3806,0 -5.3806,0 l -10.7613,5.4608 -15.1637,0.4966 -7.2283,-7.671 3.8525,-3.459 2.0753,-8.4248 -2.0753,-4.5635 0.6918,-13.3392 -1.0377,-4.5636 -0.3459,-5.6164 4.8423,-5.6165 -1.3835,-3.8615 -0.3459,-13.6902 -7.2636,-4.2125 -11.4141,-0.351 -4.4964,1.0531 -5.5341,-2.4571 -6.5718,-2.8083 -1.7295,-7.7228 -5.88,-12.2861 -0.3459,-5.6166 2.7672,-7.7226 -1.0377,-4.2125 -4.8425,-4.9145 -3.4586,1.0531 -4.4966,-1.7552 v -3.1593 l -2.0753,-1.755 -6.2259,2.4571 -15.5647,2.4572 -14.5271,-3.1593 -0.3459,-4.9144 -4.8423,-5.2655 -3.8047,1.4041 -3.8048,-5.2655 -4.4964,-1.7552 -3.113,-4.2123 -1.0376,-4.5635 -4.1505,-3.8613 -1.3836,4.9144 h -4.8424 l -4.1506,3.5104 -2.4212,-1.4041 v -2.8083 l -5.1882,-3.8614 -6.2259,4.5634 -5.5341,0.7021 -4.1507,9.1268 -5.5341,3.1594 -4.4965,3.5103 -5.1883,1.7552 -6.2258,-0.7021 -5.1882,5.2654 -5.1882,7.0208 -2.4621,0.277 -8.4572,1.6622 z"
     style="display:inline;fill:#fefee9;fill-opacity:1;stroke:#646464;stroke-width:0.42666668;stroke-linecap:butt;stroke-linejoin:round;stroke-miterlimit:4;stroke-dasharray:none;stroke-opacity:1"
     id="Aguadas,_Código_DANE_:_17013" />
  <path
     d="m 366.3422,286.8666 -4.1205,8.3462 1.319,20.3997 -4.647,8.1913 -1.9565,13.6519 -4.7172,9.7402 -2.6345,0.1727 -2.767,-5.9677 -17.986,-8.4248 -1.3834,-5.6165 2.4211,-2.1062 0.3459,-6.6697 -6.9176,-5.6164 v -5.6166 l 6.9176,-8.7759 -4.4965,-3.1592 v -4.2124 l -7.6094,-3.8614 -0.4658,-9.3284 2.1439,0.2579 2.467,-2.47 2.6725,0.206 1.2334,-2.0585 3.4949,-0.8233 0.8222,2.2642 8.8399,2.4701 3.9059,4.9399 3.906,-1.0291 2.2614,1.6467 h 6.7841 l 0.6166,1.6467 6.373,-0.2058 0.4112,1.0291 z"
     style="fill:#fefee9;fill-opacity:1;stroke:#646464;stroke-width:0.42666668;stroke-linecap:butt;stroke-linejoin:round;stroke-miterlimit:4;stroke-dasharray:none;stroke-opacity:1"
     id="Marmato,_Código_DANE_:_17442" />
  <path
     d="m 363.1928,842.1318 5.4631,-3.8562 4.0169,0.8034 1.6068,-1.7676 3.0528,-0.3213 5.1417,13.1756 3.535,1.2855 6.1057,-4.8204 4.4991,-0.3213 1.7674,2.7315 -0.3213,5.6237 4.6596,3.3743 1.2854,-1.2854 7.07,-0.3213 9.1585,-5.9452 9.6409,-0.3214 6.5876,4.6596 9.4802,-0.4819 3.0528,2.7315 7.0699,0.1607 1.6067,1.7676 -4.017,4.3382 0.6428,3.2135 4.499,2.7316 4.0169,0.4821 2.5708,4.9809 -3.0528,4.017 v 4.3382 l 4.6596,1.7676 9.48,0.482 5.9452,3.3743 0.6427,3.5348 -3.0529,2.4103 v 1.2854 l 1.4461,1.1247 1.1248,4.1776 4.9809,8.1947 10.4441,7.5519 1.7676,6.2663 -4.1778,1.6069 -1.4461,2.5707 3.3743,1.6069 0.3214,4.4989 7.8732,2.8923 -0.1607,13.1756 1.2855,3.6956 10.1226,4.017 6.7485,7.8733 4.4991,0.4819 5.3024,-2.8922 4.8203,0.4821 5.463,5.7843 9.3194,1.1248 5.3024,-3.5348 0.4821,-3.0531 2.7444,-6.6796 12.0127,-4.472 6.3872,-9.2984 1.6298,-13.7727 6.5716,1.0531 7.6095,-10.1799 14.527,-11.2332 3.8048,-25.6254 -9.6848,-6.6696 -7.6092,-0.3511 -7.9555,-20.36 v -7.3716 l -7.9553,-5.2655 -0.6917,-14.3923 3.4588,-4.2125 -4.4966,-11.935 14.873,-8.4248 h 6.2259 l -1.7294,-8.0738 7.2635,-5.2656 6.5718,-12.2861 1.0377,-18.9558 2.4212,-10.531 -4.1505,-1.7552 -6.5775,-8.5734 -5.3862,2.5817 v 14.8932 l 1.9567,2.2339 0.2446,3.2269 -7.5819,6.7018 -7.8265,-2.234 -4.8915,1.2411 -9.5383,-1.4893 -2.6905,-4.2196 h -3.1795 l -11.495,-8.6877 -2.2013,-0.7447 -3.424,2.234 -13.9408,0.7447 -5.1361,-4.4679 -4.647,0.7446 -0.489,4.9643 -9.7833,2.9787 -11.2503,-5.2127 -1.9567,0.2483 v 3.9715 l -4.4024,0.7446 -11.9842,-4.4678 -12.2288,-2.7305 h -9.783 l -6.1144,-6.7018 -2.4457,-5.2127 -6.3591,-1.7374 -6.6035,1.4893 -1.712,1.241 -5.87,-3.2269 c 0,0 -3.913,-8.6876 -4.8915,-8.6876 -0.9782,0 -4.6468,-0.2481 -4.6468,-0.2481 l -9.5386,6.2054 1.2229,2.2339 -1.2229,5.9572 -5.6252,0.993 -3.9132,4.4678 2.4457,0.993 4.1578,5.709 v 4.7162 l -10.2721,4.2196 0.9782,3.2269 1.712,6.4536 -4.8915,-1.2411 -2.6902,1.9858 -3.6687,0.2483 -2.9348,-1.9858 -3.9133,-0.7447 -2.4458,1.4893 2.6903,2.7305 -2.2012,7.6947 -4.4024,1.4893 -6.1144,-1.7375 -6.6035,2.4821 -2.9349,4.468 -4.1577,3.2268 -4.337,0.8515 -2.2668,9.0772 1.4676,1.9858 6.1144,-0.2482 -0.4892,10.4252 -3.1795,5.7089 2.4458,6.7019 -2.9348,5.2126 -4.4025,9.6806 -3.3418,5.6058 z"
     style="fill:#fefee9;fill-opacity:1;stroke:#646464;stroke-width:0.42666668;stroke-linecap:butt;stroke-linejoin:round;stroke-miterlimit:4;stroke-dasharray:none;stroke-opacity:1"
     id="Villamaría,_Código_DANE_:_17873" />
  <g
     id="layer10"
     style="display:inline"
     transform="translate(-1503.7361,-3699.4154)">
    <path
       id="path5728"
       style="display:inline;fill:none;stroke:#646464;stroke-width:2.66666675;stroke-linecap:butt;stroke-linejoin:round;stroke-miterlimit:4;stroke-dasharray:none;stroke-opacity:1"
       d="m 2181.8,4041.7069 6.8726,-5.0185 2.0557,-8.2334 18.7506,-28.0848 8.6343,-5.5574 5.1395,-1.0293 4.1115,-3.7051 2.4328,-6.8834 11.3585,-1.5438 9.3961,-6.9196 21.7911,-0.4118 3.0835,-1.8525 h 5.962 l 5.1394,-4.7341 4.9338,-1.2352 5.5507,-10.4976 2.2614,-9.8801 5.1393,-8.8509 9.4565,-4.1168 12.746,-9.4684 6.5783,-10.086 1.6448,-6.1752 1.6445,-1.0291 0.4112,-2.2642 -5.1393,-5.7633 h -2.2615 l 0.4112,-3.7052 2.2613,-4.5283 0.8223,-12.3504 -3.906,-3.4992 -0.6166,-7.8218 2.4669,-1.4407 2.8352,-12.895 5.3449,-3.7052 4.7284,-3.0875 11.9235,1.2349 1.2334,-3.705 h 2.4668 l 4.5229,-3.0876 9.4217,0.3914 1.5258,3.6618 3.3567,0.9155 6.7134,-5.7979 5.1875,-1.5257 6.1033,-3.662 3.0515,-3.967 6.4081,-0.3051 15.8681,-11.901 3.6618,-12.8164 1.831,-1.5258 3.6618,0.3051 2.136,-3.3568 -3.6617,-3.3566 0.9154,-4.5773 h 4.2721 l 3.0515,-1.2207 4.8826,-0.6102 6.1056,1.183 1.8504,2.0585 h 5.345 l 4.9339,-4.1168 5.4507,-0.1891 5.8369,-3.2928 0.2995,-3.4422 2.8436,-1.1974 1.0477,1.4968 5.837,-0.7485 7.6329,-6.8847 5.8372,-1.0476 2.3946,3.2927 h 3.4423 l 3.4424,-4.041 12.572,-0.2994 2.8437,-2.5443 9.4291,0.4489 3.1428,-1.3469 1.5444,-3.0522 3.4949,0.2057 1.2334,-2.47 5.5504,-1.2349 11.1013,0.6174 2.8781,2.6757 4.2071,-0.7062 8.4911,6.1485 8.1982,1.1712 2.0495,3.8064 -2.3423,1.464 0.5856,2.3423 2.9279,3.8064 -0.8784,3.2208 3.5136,7.027 11.7118,6.4415 3.8063,-3.2208 4.392,1.7568 -0.8784,3.8064 4.3918,5.8558 3.2208,-0.2928 0.8784,-3.8062 5.5631,0.2928 0.8784,2.3422 2.928,2.928 10.2477,1.1712 v 3.8063 l 8.1981,2.6352 3.8064,-1.1712 3.8064,-7.9055 2.9279,0.5856 4.3613,0.093 1.85,1.6467 6.9897,-1.235 2.6726,-2.2642 5.756,-0.2057 2.4671,-1.8526 0.6167,-3.2934 2.2611,-2.2641 1.8505,1.4407 2.2614,1.2352 1.0279,-2.8818 h 1.6445 l 1.0279,-2.2644 -3.2893,-0.6173 -1.6446,-2.2643 1.4391,-0.4116 v -3.4992 l 3.289,-3.4992 -0.2055,-2.8818 1.8503,-2.2641 -0.2055,-3.0877 h 1.439 l 1.4391,-2.6757 -2.6726,-1.8526 0.6167,-4.3226 -1.4388,-0.6175 -1.8505,-3.9108 1.6448,-0.4117 2.4668,-3.0877 2.8782,-1.0291 -0.4112,-5.5576 1.2335,-0.6175 1.2336,-3.2934 1.85,-1.235 v 2.2643 l 3.4949,3.0874 1.6445,-1.4409 -1.4389,-5.1457 1.2332,-2.47 v -2.2644 l -4.1114,-2.4699 0.4112,-2.4701 3.2893,-1.6467 2.2614,1.8524 h 3.9059 l 0.8222,1.0294 1.439,-1.0294 0.2057,-3.0874 1.6446,-1.0291 0.8223,-2.6761 h 1.8503 l 1.8502,5.7635 h 2.0557 l 1.6445,-1.4407 2.2615,0.4116 2.0556,-2.8817 -0.8221,-1.8527 2.0556,-1.4407 5.5508,1.6468 0.4112,2.0582 2.4668,1.8527 4.3172,-0.6178 2.4668,2.0586 0.4113,3.9109 2.4668,0.2058 -0.2056,1.8524 2.2614,1.441 2.4669,-1.8527 1.8502,-7.41 1.9462,0.263 2.24,2.8138 -0.919,4.2878 -1.225,2.7564 1.8377,1.8378 v 7.9632 l -3.9817,10.4137 -3.0628,2.7564 0.3063,5.2069 3.369,8.5759 5.2068,1.8375 4.288,-3.0627 6.7382,2.7565 3.0627,5.8194 -0.3062,8.2695 4.2879,3.369 8.8822,2.144 4.9005,6.1256 -0.3065,3.3691 -1.8375,1.8378 0.6125,6.1256 -4.9004,8.5758 -6.4107,2.3706 -3.4409,6.9888 -2.8675,2.6204 0.5735,5.2415 5.1615,4.659 -0.8604,3.7856 -2.5806,1.1647 0.5735,2.6208 2.8675,3.203 -2.5808,1.456 v 2.6207 l 3.7277,4.0768 v 2.3294 l -4.5879,6.1149 1.4336,2.912 2.2941,0.8736 -1.4339,2.0384 -2.007,1.1647 v 2.6205 l -6.0217,8.7357 -3.1542,0.8736 -2.8676,9.0271 0.2871,7.8621 -1.7207,2.0382 -2.5808,0.5824 -2.8672,11.3565 -2.5808,2.3295 2.5808,1.7472 10.896,-0.5824 2.0074,1.456 4.0144,9.9004 2.8675,2.0384 -0.8602,2.6206 -1.7206,0.2912 1.1391,6.7434 -3.9817,9.4947 -11.0262,12.6947 -13.1699,8.4067 -4.288,2.144 -0.9188,5.513 3.369,4.5942 3.3692,3.401 -0.3064,7.9634 1.2251,5.2067 2.4503,2.7565 0.3063,3.3691 -0.9188,2.4502 v 4.9005 l 2.4502,4.5942 v 7.657 l 6.1256,7.9634 4.5942,1.8376 1.5314,2.7567 -3.0627,2.4502 -5.8194,1.8375 -4.288,-2.4502 -9.801,-0.3062 -4.5942,3.0627 0.3062,7.0445 3.3692,5.5131 5.8193,3.0628 2.9015,3.191 -1.3656,12.7517 -6.9176,2.1062 -6.2261,-0.3512 -4.4966,4.9145 11.1555,23.56 -17.3813,9.0861 -8.3011,-2.1062 -4.4965,-9.1269 -4.1507,3.5104 10.0307,15.0944 -12.7977,14.0413 2.0755,23.8704 -12.7978,4.9144 -9.3388,10.1798 -2.7671,13.8659 -6.2259,0.8778 0.6916,-6.6698 -12.1057,9.478 c 0,0 -2.0754,-3.1593 -4.1506,-4.2124 -2.0753,-1.0531 -6.9178,-1.7552 -6.9178,-1.7552 l -7.6093,-10.531 -13.1436,2.4573 -5.5341,-6.6696 -1.3835,3.8613 -3.1131,-1.0531 -0.6917,-3.5103 -3.1129,0.351 -2.4211,2.1063 -4.1508,-3.8615 h -5.8799 l -0.6918,-3.8612 -3.4589,-1.7552 -1.0375,-2.1062 -1.7295,-5.6166 h -4.4964 l -4.4966,3.8614 -3.1129,-2.4573 -2.7671,1.7552 -2.4211,-1.4042 -0.3459,2.8083 -4.8424,2.1063 -2.0754,-2.4573 -4.1505,0.7021 -3.1128,-1.7552 -1.7296,1.7552 1.0377,3.8614 -4.1505,3.5102 -1.0377,2.1062 -6.9177,-0.702 -2.0753,1.0531 2.767,2.8083 h -2.4211 v 5.6165 l -4.1506,0.7021 -4.1505,-3.1593 h -7.2636 l -2.767,-3.1593 -2.4212,0.351 0.3459,2.4572 h -1.3836 l -2.4211,-1.0531 h -5.5342 l -7.9552,-7.7228 -5.1884,-2.8081 -1.0375,1.755 -2.7671,-0.7021 -1.7295,1.0531 -2.0753,0.3511 -7.9554,-5.2654 -5.5341,1.4042 -1.7293,-1.0532 -5.88,6.6696 -5.1882,-0.7021 -4.4965,5.9676 -5.1883,-1.7551 -7.7824,1.9305 -0.6917,4.2125 -2.94,1.7552 -4.8424,-1.0531 -8.4741,6.6697 -20.2342,-4.3879 -3.113,-2.1062 -2.767,6.143 -9.166,0.8776 -2.4211,-2.6328 -3.9776,2.6328 v 8.6003 l -6.3988,3.1593 -3.4589,-2.4572 -14.0082,2.4572 -4.5088,4.4413 -3.4449,-1.3382 -1.5895,3.0472 0.7338,9.6805 2.2011,7.9429 -5.1361,3.9715 -3.6687,-0.9928 -10.7696,5.0799 -0.2391,5.7696 7.888,3.4988 -1.4673,5.5541 -7.5464,-0.5118 -5.475,4.6865 -2.2012,6.9501 -4.1578,0.4965 -11.4951,21.8432 2.6903,6.7019 -6.8481,2.7304 -4.4024,13.1555 4.647,4.7162 -7.3373,4.4678 -3.1795,-2.2339 -6.359,5.2126 -10.5168,-1.9857 -3.9131,-5.4608 -5.3807,-0.7446 -1.2228,-5.9574 -3.4242,-1.4893 -10.5168,4.4679 -3.3873,-2.5786 -6.1895,-1.2522 -0.6917,4.9143 -7.6094,2.1062 -8.9929,-1.0531 -11.4141,10.1801 2.767,1.4041 v 2.1061 l -3.4589,0.702 -1.3835,6.3188 -4.4965,-1.4042 2.0753,4.2124 -6.9177,5.9677 -2.0752,-2.4573 -7.6094,2.8083 -6.9178,7.3716 h -4.4965 l -3.8046,-2.8083 -11.76,-2.1062 -19.7154,-8.4248 h -9.3389 l -0.6916,4.9146 -6.2259,7.3716 -2.7671,0.351 -2.0754,2.1062 2.4214,2.4573 -6.9178,1.7552 -0.6917,3.5104 -5.5342,9.4777 -7.9552,1.4042 0.3457,2.4573 -5.88,1.4041 -2.0752,3.1592 v 3.8614 l -3.8048,1.0531 -5.1882,6.3186 -5.1882,-0.351 -3.8047,6.3185 2.4211,2.1062 0.3459,4.2125 -6.5718,15.4455 6.5718,3.8613 1.3836,2.1062 -0.3241,4.3768 1.6521,2.8633 6.863,-0.6964 3.569,2.5832 6.5718,8.4248 4.1505,1.7552 -2.4211,10.531 -1.0378,18.9557 -6.5716,12.2862 -7.2636,5.2655 1.7293,8.0737 h -6.2257 l -14.8729,8.4249 4.4964,11.9351 -3.4589,4.2124 0.6917,14.3924 7.9553,5.2655 v 7.3716 l 7.9555,20.36 7.6093,0.3511 9.6847,6.6696 -3.8047,25.6254 -14.5271,11.2332 -7.6093,10.1798 -6.5718,-1.053 -1.5299,13.855 -6.4871,9.2161 -12.0127,4.472 -2.7444,6.6796 -0.4821,3.0531 -5.3024,3.5348 -9.3194,-1.1248 -5.463,-5.7843 -4.8203,-0.4821 -5.3024,2.8922 -4.4991,-0.4819 -6.7485,-7.8733 -10.1226,-4.017 -1.2855,-3.6956 0.1607,-13.1756 -7.8732,-2.8923 -0.3214,-4.4989 -3.3743,-1.6069 1.4461,-2.5707 4.1778,-1.6069 -1.7676,-6.2663 -10.4441,-7.5519 -4.9809,-8.1947 -1.1248,-4.1776 -1.4461,-1.1247 v -1.2854 l 3.0529,-2.4103 -0.6427,-3.5348 -5.9452,-3.3743 -9.48,-0.482 -4.6596,-1.7676 v -4.3382 l 3.0528,-4.017 -2.5708,-4.9809 -4.0169,-0.4821 -4.499,-2.7316 -0.6428,-3.2135 4.017,-4.3382 -1.6067,-1.7676 -7.0699,-0.1607 -3.0528,-2.7315 -9.4802,0.4819 -6.5876,-4.6596 -9.6409,0.3214 -9.1585,5.9452 -7.07,0.3213 -1.2854,1.2854 -4.6596,-3.3743 0.3213,-5.6237 -1.7674,-2.7315 -4.4991,0.3213 -6.1057,4.8204 -3.535,-1.2855 -5.1417,-13.1756 -3.0528,0.3213 -1.6068,1.7676 -4.0169,-0.8034 -5.4631,3.8562 -11.0868,0.3214 -3.5349,4.981 h -2.7315 l -1.801,-3.4121 -6.0928,-0.4881 c 0,0 -3.5271,-4.2325 -4.3289,-4.2325 -0.8016,0 -2.4049,0 -2.4049,0 l -1.2828,3.093 -2.4049,0.4883 -2.405,-3.9068 2.8859,-5.0461 0.6414,-4.7207 -2.0842,-1.7907 0.3206,-5.6975 -5.2911,-2.9299 2.2447,-4.2323 -1.1222,-2.1163 -2.0844,0.6512 -3.5274,-2.1161 1.6034,-3.0931 2.2446,-1.1393 -2.2446,-2.279 -4.8101,2.1162 -2.5652,-3.744 -1.6034,3.5811 -5.4513,-4.7209 -4.4893,3.2559 3.367,0.8139 2.8859,3.5813 -2.4049,1.1393 -4.6496,-1.1393 -3.2067,6.0228 -5.4515,3.2556 -1.2617,10.3555 -9.3169,2.3153 -12.5094,1.9798 -8.4976,-1.9533 -5.7767,-0.2992 -4.1085,1.8826 -5.8373,-3.9663 -0.6484,-3.3051 -5.1767,-0.6447 -6.1635,-7.5437 0.6486,-7.2707 -3.2431,-5.2883 3.2431,-3.305 -1.9458,-1.983 -1.2973,-3.9662 h -1.9456 l -2.5942,-4.6271 1.2972,-3.9661 -1.9458,-3.305 0.6486,-2.6441 -3.243,-3.3046 -0.6485,-3.9664 -3.5672,-4.6267 v -3.6354 l -6.1615,-4.9575 0.3242,-0.9917 3.8915,-1.322 0.6487,-1.983 -3.8916,-2.3136 -3.8913,-4.9573 v -4.2967 l -3.2431,-2.9744 -1.6214,-7.602 -3.8915,0.3306 -4.2157,4.6269 -4.5399,3.305 v 9.5852 l -6.4858,4.6269 h -4.2159 l -2.5943,3.305 -1.297,6.2791 4.5398,2.9749 -4.8643,2.9744 -6.4856,-5.6182 0.6485,7.9319 -4.8643,5.2882 0.6484,2.3131 4.5402,0.6611 1.9458,2.6442 -7.1344,1.9832 -2.5945,6.9405 -6.81,2.9744 2.9185,2.3134 1.6217,3.9663 -1.2973,1.9825 -4.2157,2.3138 -0.973,2.6439 3.2431,1.6524 v 9.2541 l 2.2701,2.6438 4.2154,2.6443 1.2873,3.3052 -3.5673,1.6522 -1.9457,6.9407 -5.5128,2.3137 -3.8916,-1.9831 -1.6215,2.3134 -0.3242,3.9661 -8.4315,6.2795 -2.9185,4.9573 -3.5673,-3.635 -8.4315,-1.9833 h -4.54 l -12.6474,-7.2711 -11.032,3.4954 -3.2429,-3.9655 4.8646,-2.9747 -6.1616,-1.6524 -6.8099,-3.9659 -1.2973,-6.2802 -4.8643,0.6614 0.3241,-2.9744 -4.8643,-3.6356 -6.8101,-0.9916 -2.5941,-3.9661 1.297,-3.9658 -4.8643,-6.2796 -0.3242,-5.9492 -5.5129,-7.2706 -3.2431,-6.28 1.6216,-2.3133 0.3243,-6.61 -2.9185,-1.983 1.9456,-2.6444 0.3242,-4.6269 3.5673,-1.3219 -2.9186,-2.9745 -0.9729,-4.2967 -9.7289,-10.2453 -3.567,-5.9495 -3.2429,-1.322 -1.2973,-1.6523 2.5945,-1.3221 4.2158,-8.9237 4.2182,-9.5946 -4.9261,-12.3366 -4.2694,-6.0017 0.3285,-5.3347 12.1511,-4.0012 7.225,-6.6685 -2.6273,-11.003 7.225,-14.6709 9.8522,-8.3357 5.583,-0.3332 4.5977,-4.0012 4.5978,5.335 h 3.2839 l 5.9114,-2.6676 7.2252,2.6676 6.2397,2.6673 -0.3284,6.335 5.2544,5.6682 4.5978,-1.3336 2.9556,-12.0034 -1.642,-4.6679 2.9556,-4.6681 1.6422,-8.6689 -0.3284,-1.3338 1.642,-4.0011 -3.9408,-2.3339 5.2545,-3.3343 3.6124,-4.0011 -2.2988,-3.0008 3.6124,-4.3344 1.3136,-5.6685 4.2694,-3.0006 4.9262,-7.0021 -2.2989,-1.6671 0.6568,-6.6685 4.5978,1.0003 5.9114,-7.0022 -0.9853,-6.3348 -4.2694,-3.3343 v -4.6679 l 4.9261,-7.3354 -1.3136,-14.6707 -0.6567,-2.0006 -7.5535,1.0003 -4.9261,-6.0018 -2.9556,-7.3354 v -5.6682 l -3.2842,-5.0012 v -9.6695 l 1.9704,-2.0004 2.9557,3.3342 5.2545,0.3334 6.8966,-6.335 0.9853,-5.0014 5.583,1.6672 5.5828,-3.3344 -0.6568,-5.6684 1.9706,-3.6676 6.2397,-2.6674 2.6273,8.0022 7.8818,12.0034 6.8964,0.6669 4.9263,-1.0003 2.6272,0.3334 0.9853,-4.0011 6.5681,-5.6682 3.941,-1.3338 4.2692,11.3367 7.5533,3.6677 0.9853,5.3347 4.9261,-2.0005 5.2546,1.6671 2.6273,3.0006 10.1807,-1.3334 3.9409,1.3334 10.1807,-1.3334 3.9408,6.0014 8.867,-2.6673 6.2399,-4.6679 6.2397,-2.334 5.2545,-5.335 -3.6125,-6.6685 3.6125,-2.6673 1.9705,-10.0028 4.9261,-6.335 4.2693,-7.3354 2.6309,-4.329 -6.2391,-3.7328 h -4.2692 l -4.5977,-5.6684 1.3136,-6.6685 -2.2988,-5.0012 0.6568,-5.3349 6.2397,-5.0012 -0.6569,-4.3347 -5.5641,-2.2947 -5.2481,1.9682 -9.8403,-1.9682 -8.5284,-11.8083 v -3.2801 -1.64 l -7.2162,-0.328 -0.328,-4.2642 -3.2801,-0.984 3.6081,-2.6241 v -5.5762 l -3.6081,-1.968 -6.2322,3.608 v -2.624 l -1.64,-1.64 -3.9361,2.296 -11.4803,-5.5761 -0.656,-4.9203 -3.6082,0.656 -4.6954,-2.3833 v 0 l -0.6567,2.3341 1.3136,2.3339 -2.6272,8.0023 -7.5535,2.3338 -4.5978,-3.3341 -5.9114,2.3338 -4.2692,-6.335 -8.5385,6.0016 -3.2842,9.0025 -10.1807,4.3347 -9.1955,6.0017 -11.4942,-0.6669 -5.5965,4.2208 -5.9113,-2.5536 -9.4995,-1.6099 -3.2957,3.6754 -4.9261,-1.3338 -2.2989,-5.0502 -5.5829,-4.001 -1.9706,2.3339 -4.9261,-6.0016 -2.9556,2.334 -8.8668,0.328 5.2543,-7.2812 1.642,-9.336 2.9558,-5.6682 -0.1088,-15.9866 -0.6739,-8.9372 -4.3655,-4.0785 0.6187,-8.5903 -2.7396,-6.9678 -3.3305,-3.5334 -0.1424,-6.0167 2.2874,-1.0274 1.5728,-3.6686 -2.8596,-1.3206 -1.5724,-3.5219 3.574,-2.3481 0.1737,-3.6686 -2.1445,-0.5871 -0.8576,-7.0669 0.7147,-3.0817 -2.8901,-2.7881 -3.1453,-6.6035 2.3273,-4.7996 0.1136,-6.4331 3.4384,-4.2981 6.5902,3.1519 1.4328,8.8825 7.4497,-0.2866 7.1634,6.3039 7.1633,-1.7192 4.0116,-4.0116 0.2866,-6.0172 10.6017,-11.4613 8.3096,-0.8597 2.5787,-3.4384 v -5.7307 l 3.725,-3.4384 5.7307,-2.0057 3.1519,-6.5903 6.5904,-4.298 8.0228,0.8596 3.1519,6.3037 3.152,-0.2864 0.5729,-7.1633 -2.8653,-4.5847 5.1577,-7.4499 12.6074,-0.2866 1.7193,2.8655 10.0286,-2.2924 5.7308,-11.4614 4.5846,0.5731 2.5787,6.5903 11.1749,7.1633 3.4384,6.877 4.0115,1.7191 2.8653,3.4384 9.559,6.7039 10.0734,5.146 h 3.7004 l 0.6167,2.0583 3.4948,0.8234 5.3451,-3.2935 16.6517,-1.6465 14.3906,1.0291 5.7561,4.1166 7.8119,0.6175 2.467,-2.47 2.6725,0.206 1.2334,-2.0585 3.4949,-0.8233 0.8222,2.2642 8.8399,2.4701 3.9059,4.9399 3.906,-1.0291 2.2614,1.6467 h 6.7841 l 0.6166,1.6467 6.373,-0.2058 0.4112,1.0291 2.2613,1.2352 1.2335,-3.0877 4.3171,-1.8527 0.8224,-7.6157 h 1.0278 l 1.2334,-5.3517 -1.439,-0.8234 0.4112,-3.0876 -1.4391,-0.6176 v -2.2641 l -2.6724,-1.8524 0.411,-2.4701 -2.0557,-1.8525 v -7.4101 l -1.6446,-1.441 0.2056,-2.8816 1.6447,-3.2934 -0.8224,-5.7636 2.878,-1.6465 -0.8223,-3.4992 -2.2614,-0.6176 0.6169,-5.7635 -1.6447,-0.6175 -0.4112,-4.3225 -2.6725,-1.2349 -0.8223,-3.9108 2.0557,-1.2352 0.4112,-2.2643 -1.6446,-1.6465 0.8224,-12.7619 -3.2892,-2.0585 v -7.2041 l -1.2335,-1.0292 v -3.0877 l 1.439,-0.4117 0.6166,-3.4992 -2.2612,-1.0292 0.2056,-3.4992 -3.4949,-2.6758 0.8222,-0.8234 v -1.6467 l -2.2612,-1.2349 v -4.1168 l 1.8502,-0.6176 v -9.8321 l 2.6727,-0.6175 0.8222,-3.705 2.6725,-2.4701 2.6724,0.6176 4.3174,-2.2642 0.4109,-2.8817 1.8503,-0.4118 1.2335,-2.8817 -4.3171,-0.4117 -2.8781,-3.4992 -5.5506,0.206 -1.2334,-2.0585 -6.373,-0.4116 -0.6168,-2.0585 h -2.4669 l -3.4949,-3.0874 v -2.0583 l 1.8502,-4.0962 -2.4668,-1.6465 v -8.0965 l 1.439,-7.7883 h 2.0559 l -0.2057,-9.4685 -2.6724,-1.4408 -1.6447,-11.1486 2.2614,-0.206 -0.8223,-7.2041 1.439,-1.4408 6.5785,0.8336 7.0188,2.8736 6.9349,6.9482 10.0587,2.2499 5.0938,-2.0169 7.52,1.6377 3.009,2.8208 5.0963,-0.7686 3.1364,7.3351 -2.7374,0.7532 -1.2032,4.3926 3.5428,4.0641 0.9011,4.567 4.1302,3.1878 -0.7717,3.1115 4.4646,2.5797 1.2186,-3.7209 3.1744,-1.0057 2.7243,1.2355 2.3108,-2.961 2.2797,1.5332 0.5231,3.4171 6.7671,6.1639 0.8551,2.2679 4.3437,1.3027 -0.4886,-3.4796 3.229,-0.7927 2.2697,2.2659 10.9703,4.8534 3.0099,7.8112 3.1771,-0.12 4.3039,4.9821 4.2758,-3.2044 5.191,0.08 6.2712,-4.5696 1.4568,-3.2062 1.6055,-1.0351 1.5489,-3.4064 5.6661,-3.3994 5.3325,-0.1991 3.9066,-2.4995 2.3002,-4.7986 6.6515,-1.4443 3.6409,-3.7798 6.8363,0.5536 7.222,2.2592 1.878,5.9324 3.6871,5.8317 8.0176,2.0584 6.9894,6.175 11.5123,-1.6467 3.081,5.1672 3.0836,0.4117 1.6447,6.1752 3.9059,1.2349 0.2056,4.7344 -2.2613,0.4116 v 1.6466 l 2.6724,2.2644 -0.5738,12.0716 -1.4389,1.0292 -2.6727,6.1751 -2.0558,-0.4116 -6.9894,5.7633 h -2.2614 v 4.7343 l 1.6444,1.235 -0.2054,4.3225 2.0558,0.4118 2.0557,5.5575 4.1115,1.2351 3.906,3.7051 6.1395,3.8424 9.8343,-1.5414 9.4567,-1.2351 2.7891,4.5496 -4.8392,7.4999 4.9464,16.4765 3.2893,1.8525 3.2892,9.2567 2.878,4.3225 -4.1116,4.5284 0.2057,7.2043 4.9339,5.9691 -0.2055,6.1753 4.4909,9.2806 8.9081,6.1366 3.4868,6.2157 -0.7707,7.3089 -4.1917,6.8736 -2.6725,1.4409 2.8781,3.911 1.6447,18.1134 -1.2335,7.2044 3.4947,2.0583 6.7842,-4.5284 2.8376,-2.4467 7.2991,-0.8236 1.6221,-3.2945 8.5158,-2.8826 5.0689,1.2356 0.2079,15.8484 2.2302,10.9103 5.2099,1.897 -2.3217,6.016 -1.4621,5.6676 3.6467,4.1161 10.5363,-6.9975 6.892,-16.0441 z" />
  </g>
</svg>
