<?xml version="1.0" encoding="UTF-8" standalone="no"?>
<svg
   xmlns:dc="http://purl.org/dc/elements/1.1/"
   xmlns:cc="http://creativecommons.org/ns#"
   xmlns:rdf="http://www.w3.org/1999/02/22-rdf-syntax-ns#"
   xmlns:svg="http://www.w3.org/2000/svg"
   xmlns="http://www.w3.org/2000/svg"
   width="793.44226"
   height="1132.2233"
   id="svg2"
   version="1.1">
  <defs
     id="defs4" />
  <metadata
     id="metadata7">
    <rdf:RDF>
      <cc:Work
         rdf:about="">
        <dc:format>image/svg+xml</dc:format>
        <dc:type
           rdf:resource="http://purl.org/dc/dcmitype/StillImage" />
        <dc:title></dc:title>
      </cc:Work>
    </rdf:RDF>
  </metadata>
  <g
     id="layer3"
     style="display:inline"
     transform="translate(-2293.8757,-615.39557)" />
  <path
     d="m 590.5616,243.92073 -8.0247,-6.53866 -0.2972,-5.05261 -11.2941,-12.4829 0.2972,-3.86375 -4.1611,-0.59443 -6.8358,1.78328 -8.9163,-2.08049 -12.1858,-9.80798 v -3.86377 l -3.8637,1.78328 -0.5943,2.97211 -6.2415,2.08049 -3.7067,-1.76006 -10.0271,3.06406 0.3459,-8.51144 0.6914,-2.0428 h -10.3729 l -20.7459,6.12841 -2.1928,-0.38633 0.9626,-9.08012 6.7468,-4.65035 6.4096,1.9929 4.3855,-4.9824 h 4.3853 l 1.0121,-4.65039 -11.807,-12.29024 7.4215,0.33226 3.0361,-3.65389 4.7228,-1.66084 v -4.6503 l 9.783,-3.65393 3.3735,3.65393 5.3973,8.63633 4.723,-5.64681 -5.735,-1.99308 2.0241,-3.98601 -2.0241,-5.97909 2.0241,-1.66078 6.0723,-8.30407 5.8035,-7.4989 -0.3373,-2.65728 2.6989,-4.65034 6.0032,-11.43478 10.7949,0.3321 11.8071,0.33227 5.0601,2.98954 5.06,2.32519 8.39,-13.33048 3.7316,-10.79966 -13.0555,5.38782 -8.1485,0.66436 -8.0476,0.75994 -8.1101,-1.11471 -1.7875,3.79987 0.3776,2.34262 -6.4094,3.32162 -7.0843,-0.3321 -0.6746,-3.65391 3.3732,-5.64678 -2.6986,-0.99665 -1.6867,-6.64325 -5.06,0.99644 v -2.32516 l 0.6745,-7.97197 2.3614,-9.63279 1.0993,-6.43848 -0.2628,-1.06187 7.324,-4.97086 -1.6583,8.14682 2.6255,0.41421 0.1387,7.87052 1.382,4.55665 6.4947,7.18031 h 7.3239 l 6.3565,5.24702 4.1457,-2.34737 1.52,-5.93751 0.829,1.657 2.902,-4.41858 v 5.79944 l -4.2837,5.93737 -3.0403,1.657 5.2512,0.13781 12.2987,-4.28051 3.731,0.27614 4.1455,-7.4563 3.1784,-0.41423 -7.7384,-11.87488 -8.4294,-6.48981 -5.6658,-11.3226 -1.6582,-7.4563 -3.731,-6.48981 -3.8692,0.82843 -2.4873,1.38087 -3.1784,0.27614 -7.0475,3.03771 -3.4547,2.48544 -3.3165,7.59454 -0.829,-7.04209 3.5928,-3.4521 9.2586,-3.58999 6.4947,-3.03789 5.9518,-4.41858 4.9137,-0.6676 0.5605,10.7546 8.6993,18.11012 11.5059,11.70208 6.1736,5.57231 6.4549,1.11437 2.8062,1.11437 16.8377,1.11458 9.5416,2.78626 7.2962,13.0951 6.4544,4.45792 18.241,25.63294 15.1542,30.36949 2.4017,11.7759 -0.842,8.35855 0.5612,6.96552 -0.8418,7.24418 -0.5613,1.39301 0.2808,7.24396 0.1365,2.51567 h -5.7572 l -9.0645,0.46976 h -10.0186 l -7.6331,4.69765 -6.6792,5.63697 -7.1561,3.7581 -4.2935,4.69745 -2.3855,7.98581 -20.5141,0.46978 -2.8626,-0.46978 -17.6853,7.44299 z m -31.4937,-170.79454 -5.248,-4.22792 -5.7248,-1.4092 1.9082,-2.34892 6.6791,-5.16717 -4.7708,5.16717 3.3395,1.87914 z"
     style="fill:#c12838;fill-opacity:1;stroke:#646464;stroke-width:0.42666668;stroke-linecap:butt;stroke-linejoin:round;stroke-miterlimit:4;stroke-dasharray:none;stroke-opacity:1"
     id="Barranquilla,_Código_DANE_:_08001" />
  <path
     d="m 542.4155,978.43294 -8.688,-4.543 -4.8407,-2.7236 -0.6915,-6.7416 -4.6459,-1.5853 -2.0015,-2.7628 -5.4543,6.0607 -5.6442,-0.078 -5.0794,-3.5215 -6.9103,0.7978 -4.6119,4.6598 -4.0322,-0.2338 -4.8407,-0.3405 -2.4203,2.7239 2.5372,4.8545 -2.3085,3.5215 -0.9203,6.9444 -7.305,7.841 -2.4205,6.479 -12.4522,6.50766 -3.4187,5.4554 1.7387,5.312 -5.878,3.1318 -1.6947,3.0353 4.6218,25.2971 2.2946,3.0188 32.5517,44.1581 7.3195,-11.5086 8.0486,-29.1039 6.096,-23.8455 11.1017,-12.7503 3.0528,-7.4838 16.9301,-23.56016 3.0859,-8.9262 z"
     style="display:inline;fill:#fefee9;fill-opacity:1;stroke:#646464;stroke-width:0.42666668;stroke-linecap:butt;stroke-linejoin:round;stroke-miterlimit:4;stroke-dasharray:none;stroke-opacity:1"
     id="Suan,_Código_DANE_:_08770" />
  <path
     d="m 699.3638,582.58369 -3.2308,-0.0706 -6.2803,-2.70555 -6.0187,-1.15938 -5.4955,2.06122 -1.9627,3.73626 -5.2337,-2.19027 -2.6167,-1.41711 -2.0935,1.28845 -5.4954,-2.44803 -4.0561,-5.28226 -2.6168,2.44802 -3.5328,-1.03069 -3.5328,-1.41733 -7.8504,-3.73606 -5.888,3.47853 -8.6356,1.28825 -7.1963,-3.22082 -3.33,-1.29916 -2.4271,-3.33894 0.073,-2.74999 -2.7857,0.68654 -0.7857,-5.92659 -3.782,-1.54818 -2.3087,4.12286 -3.1445,-4.84288 -5.9764,-2.75413 -4.7104,2.31895 -2.3552,0.77299 v -4.38039 c 0,0 0.8201,-7.47057 0.4389,-7.98978 l -3.9717,-5.40894 2.4357,-2.10803 0.4429,-3.81854 2.4017,-3.90934 2.8362,1.76585 v -5.58656 l 4.4406,-0.0444 3.376,-2.70336 4.4827,-6.65716 2.486,2.70556 h 6.1496 l 0.9158,3.86511 h 1.5701 l 1.0469,-6.82839 6.4113,-3.22082 10.7289,-0.51525 5.6263,-13.14122 -0.1302,-5.15356 5.1027,-1.67484 0.1302,-5.15336 2.8785,-0.51527 -0.3925,-8.3744 1.5701,-1.54598 5.757,2.57668 3.1403,-2.31893 4.9719,1.15936 1.3084,-3.09197 3.9253,-0.38656 12.2991,-5.28224 7.4581,-7.85897 5.7571,0.12886 4.8413,-3.34968 2.7476,-1.28823 6.8307,0.0589 17.6226,5.10643 0.5222,5.58965 2.2206,19.67979 3.9379,19.37141 2.2206,11.36418 v 19.12559 l -6.106,21.61997 -5.2732,6.92939 -6.3835,3.32638 -8.0489,4.15769 -7.216,7.48382 z"
     style="display:inline;fill:#fefee9;fill-opacity:1;stroke:#646464;stroke-width:0.42666668;stroke-linecap:butt;stroke-linejoin:round;stroke-miterlimit:4;stroke-dasharray:none;stroke-opacity:1"
     id="Palmar_de_Varela,_Código_DANE_:_08520" />
  <path
     d="m 80.3417,700.21161 4.0348,-4.08407 3.6431,0.74733 -0.6072,-4.18501 2.4288,-1.64418 v -3.28834 l 2.7324,-2.54103 1.5178,-3.28834 2.1253,2.0925 -0.7591,4.78323 -1.0626,3.43763 1.5181,2.24203 5.0093,3.73689 2.2769,1.34511 3.4914,-2.83978 2.1252,-1.94324 1.9734,3.58718 1.8214,2.09272 c 0,0 1.9735,5.23136 2.5807,6.12817 0.6071,0.89685 2.1252,3.28836 2.1252,3.28836 l -0.1514,5.38086 -4.0986,6.12818 -4.5538,7.02502 -0.1515,6.27772 2.2769,2.54099 2.8843,-0.59783 4.2502,2.09248 3.6431,2.54104 4.0986,0.14955 3.795,-2.2422 2.7323,-3.28817 3.1879,-4.78302 5.1609,-5.08205 -1.0626,-5.08185 -5.6164,-4.63371 -1.3662,-2.5408 0.3036,-10.46289 -3.036,-1.04634 v -2.0925 l 2.1253,-2.0925 5.4647,-1.79369 7.7417,-8.07138 5.3128,-3.28834 8.349,-2.54084 3.1877,-3.58735 3.0359,-6.87552 3.795,-2.54104 5.9202,0.44854 8.5007,3.58713 6.3755,3.73692 2.4286,-0.59804 0.759,-5.53036 2.8843,-6.57649 3.0359,-0.29901 4.0986,4.33448 3.3395,6.42722 h 2.5805 l -0.3036,-6.12819 1.8216,-9.17602 6.0719,-6.06991 1.8215,-2.39151 -1.5179,-3.58716 -0.6071,-2.54101 4.5538,-1.34517 7.59,0.89685 7.438,6.42718 4.7057,3.88619 4.5539,0.89685 8.0454,0.29882 5.0093,2.54101 10.474,-22.12143 6.2238,-0.14955 29.7523,17.63744 13.9654,13.75104 17.305,28.84764 8.8041,28.69794 2.1252,21.22458 v 1.94319 l -1.9733,19.1319 0.1514,6.2777 -0.1514,17.7869 -0.4555,2.54103 -9.5631,1.64397 -7.1345,2.54101 -11.385,12.55559 0.1515,5.5302 -0.3036,3.73685 -3.4914,14.19953 -4.7057,16.5909 -1.8214,10.1641 -7.59,18.8328 -4.554,5.6799 -9.2596,0.4485 -4.7407,7.1536 -7.9918,-3.7124 -14.114,1.0259 -23.0432,4.1184 -28.2839,11.9957 -4.9914,-5.5289 -11.3689,-21.0103 -7.2096,-5.529 -3.0503,-6.9111 -4.4367,-5.5292 0.5547,-9.9522 -2.4956,-2.4881 -7.4871,-2.7646 -2.4956,-3.8701 -5.2685,-3.0409 -4.4369,0.5528 -2.7727,-2.2116 17.1921,-10.7815 0.2772,-3.87027 -5.5456,-8.57024 -6.1005,-4.69952 -11.6465,-0.82922 -8.0414,-3.59403 -12.7554,-1.65867 -5.8234,-3.31712 -12.4781,-3.04106 -7.2096,2.76437 -1.9409,2.76459 h -2.2184 l -4.4367,-3.5936 -6.655,1.65845 -8.3189,0.27627 -9.428,0.82944 -4.7139,2.76458 -4.9913,-1.93514 -5.8232,-5.52896 -1.9411,-5.2527 3.0505,-3.87008 14.6965,-8.57002 1.3865,-8.84672 5.8229,-11.61067 -1.3865,-12.99307 1.3865,-5.52917 8.3187,-7.46411 3.0505,-7.46432 v -5.52874 l 1.3864,-3.59403 4.714,-1.93515 0.832,-2.48789 -1.9413,-7.18784 -6.6551,-1.65867 -1.9409,1.65867 z"
     style="display:inline;fill:#fefee9;fill-opacity:1;stroke:#646464;stroke-width:0.42666668;stroke-linecap:butt;stroke-linejoin:round;stroke-miterlimit:4;stroke-dasharray:none;stroke-opacity:1"
     id="Repelon,_Código_DANE_:_08606" />
  <path
     d="m 305.6895,640.86682 v -11.89324 l 2.6259,-11.3762 -4.2011,-6.46363 -7.0897,-22.75232 -0.2626,-10.60039 5.7766,-7.498 4.2014,1.80992 -0.2626,-8.01506 -2.8884,-8.01504 -4.989,-2.327 -1.838,-6.20512 0.7878,-8.79068 -1.8381,-1.55119 -31.2467,-0.25856 -11.8159,-1.29284 -2.3633,0.5171 -4.7262,-5.42957 -3.6762,-4.13668 -4.4637,-1.8099 -4.9891,4.13687 -7.0894,0.51706 -2.3634,0.77559 -4.2011,-2.84405 -7.8774,2.06846 -4.7264,-4.13668 1.5755,7.75628 -3.1509,4.654 -3.676,6.20514 -1.8381,2.84403 -3.6761,-4.65395 -3.9386,-6.4637 H 187.53 l -2.3631,-1.03411 -5.2517,2.58551 -6.3018,1.03414 -4.989,-5.68807 -0.7877,4.39537 -3.1509,1.03416 h -5.514 l -11.2909,-0.25852 -6.5645,0.25852 -14.4418,-4.65393 -3.676,1.29282 -2.6257,6.46368 -2.1007,1.5514 -1.0502,5.42933 -4.7264,2.327 -4.2014,-4.65376 -3.6759,-6.72239 -7.0897,-12.4103 -6.0393,-7.75653 -2.1005,-1.29265 h -8.6651 l -10.6336,1.00901 -3.718,-1.30912 -0.5252,-4.9123 -2.1007,-5.17101 0.5252,-5.42957 -3.4136,-3.87816 -0.5252,-4.3954 -4.4638,-3.3611 -2.7364,5.23477 -6.9323,13.26955 2.2185,14.92864 -21.629,9.39904 6.3778,18.79872 -1.9413,11.3344 20.2425,10.22848 26.8975,19.62794 4.1592,9.12299 8.5964,12.16363 -2.7731,17.41632 -6.3778,17.96928 -7.4867,13.54624 -0.832,20.73344 1.1091,8.01728 5.4633,8.4497 3.952,-4.20437 3.6431,0.74733 -0.6072,-4.18501 2.4288,-1.64418 v -3.28834 l 2.7324,-2.54103 1.5178,-3.28834 2.1253,2.0925 -0.7591,4.78323 -1.0626,3.43763 1.5181,2.24203 5.0093,3.73689 2.2769,1.34511 3.4914,-2.83978 2.1252,-1.94324 1.9734,3.58718 1.8214,2.09272 c 0,0 1.9735,5.23136 2.5807,6.12817 0.6071,0.89685 2.1252,3.28836 2.1252,3.28836 l -0.1514,5.38086 -4.0986,6.12818 -4.5538,7.02502 -0.1515,6.27772 2.2769,2.54099 2.8843,-0.59783 4.2502,2.09248 3.6431,2.54104 4.0986,0.14955 3.795,-2.2422 2.7323,-3.28817 3.1879,-4.78302 5.1609,-5.08205 -1.0626,-5.08185 -5.6164,-4.63371 -1.3662,-2.5408 0.3036,-10.46289 -3.036,-1.04634 v -2.0925 l 2.1253,-2.0925 5.4647,-1.79369 7.7417,-8.07138 5.3128,-3.28834 8.349,-2.54084 3.1877,-3.58735 3.0359,-6.87552 3.795,-2.54104 5.9202,0.44854 8.5007,3.58713 6.3755,3.73692 2.4286,-0.59804 0.759,-5.53036 2.8843,-6.57649 3.0359,-0.29901 4.0986,4.33448 3.3395,6.42722 h 2.5805 l -0.3036,-6.12819 1.8216,-9.17602 6.0719,-6.06991 1.8215,-2.39151 -1.5179,-3.58716 -0.6071,-2.54101 4.5538,-1.34517 7.59,0.89685 7.438,6.42718 4.7057,3.88619 4.5539,0.89685 8.0454,0.29882 5.0093,2.54101 10.474,-22.12143 6.2238,-0.14955 29.8504,17.6752 z"
     style="display:inline;fill:#fefee9;fill-opacity:1;stroke:#646464;stroke-width:0.42666668;stroke-linecap:butt;stroke-linejoin:round;stroke-miterlimit:4;stroke-dasharray:none;stroke-opacity:1"
     id="Luruaco,_Código_DANE_:_08421" />
  <path
     d="m 295.7117,537.18887 -31.2467,-0.25856 -11.8159,-1.29284 -2.3633,0.5171 -4.7262,-5.42957 -3.6762,-4.13668 -4.4637,-1.8099 -4.9891,4.13687 -7.0894,0.51706 -2.3634,0.77559 -4.2011,-2.84405 -7.8774,2.06846 -4.7264,-4.13668 1.5755,7.75628 -3.1509,4.654 -3.676,6.20514 -1.8381,2.84403 -3.6761,-4.65395 -3.9386,-6.4637 H 187.53 l -2.3631,-1.03411 -5.2517,2.58551 -6.3018,1.03414 -4.989,-5.68807 -0.7877,4.39537 -3.1509,1.03416 h -5.514 l -11.2909,-0.25852 -6.5645,0.25852 -14.4418,-4.65393 -3.676,1.29282 -2.6257,6.46368 -2.1007,1.5514 -1.0502,5.42933 -4.7264,2.327 -4.2014,-4.65376 -3.6759,-6.72239 -7.0897,-12.4103 -6.0393,-7.75653 -2.1005,-1.29265 h -8.6651 l -10.6336,1.00901 -3.718,-1.30912 -0.5252,-4.9123 -2.1007,-5.17101 0.5252,-5.42957 -3.4136,-3.87816 -0.5252,-4.3954 -4.5532,-3.38449 18.7047,-30.12751 10.2596,-11.88714 3.882,-9.67574 6.3781,-6.91136 0.8318,-4.14677 -2.4958,-2.76437 -8.5961,-3.31755 -2.5465,-3.60619 5.1106,-5.52682 4.4842,-2.72022 2.0694,-4.03392 1.069,-3.43161 1.0643,-3.42895 6.4947,-3.72806 0.2541,-7.47678 2.1801,-0.1536 3.6659,-3.48514 3.9189,0.62227 2.781,-3.48517 4.8036,0.12438 0.1259,3.23624 1.264,3.48534 h 3.5396 l 3.5397,-1.49366 2.0226,-4.35675 3.0338,2.24059 22.1222,2.2406 6.8263,-1.86722 8.0904,-0.87121 3.6662,1.24476 1.1377,2.98735 3.1603,0.12437 3.1603,-4.23211 5.0564,-3.73427 7.2056,-0.37335 8.2167,2.36484 3.5397,0.62248 3.9189,0.74676 5.0564,-2.73846 3.0338,-0.37335 0.5058,5.85022 1.5168,5.35238 0.5059,3.112 4.6771,10.95349 v 3.3609 l 5.4359,0.12437 7.5847,4.97905 4.6773,-0.62246 1.0112,-1.61813 0.1259,-2.614 2.2754,-2.36505 2.781,-1.86706 13.0206,8.96205 15.0432,13.4432 1.6433,2.2406 1.3905,1.24478 2.5282,0.87117 6.3206,-1.99151 6.3207,-0.12438 1.6435,4.23207 -0.6321,2.73843 3.5394,-0.49805 3.9189,-3.36068 v -1.99147 l 2.9076,-2.11616 2.5282,1.74257 4.5508,1.12032 5.3092,-2.73843 2.9078,0.49803 -3.2869,4.23208 0.2528,4.35655 -3.4131,7.09497 1.264,1.49366 4.9304,-0.62225 6.826,2.61373 h 4.551 l 2.9075,2.11616 0.1259,6.7216 3.6661,3.98317 3.1602,6.22358 -4.93,18.04868 -8.7225,2.98735 -4.8037,5.47682 -1.0114,5.10351 -4.4245,1.74255 1.517,3.36092 -3.9187,5.22775 -0.6321,2.36506 -3.9187,0.24887 v 4.60568 l -3.1604,-0.12438 -3.4131,5.97468 -7.2055,2.98735 5.1829,3.60979 4.5508,9.33536 -10.6048,0.56013 z"
     style="display:inline;fill:#fefee9;fill-opacity:1;stroke:#646464;stroke-width:0.42666668;stroke-linecap:butt;stroke-linejoin:round;stroke-miterlimit:4;stroke-dasharray:none;stroke-opacity:1"
     id="Piojo,_Código_DANE_:_08549" />
  <path
     d="m 326.043,428.19256 2.0804,-3.26933 13.3746,4.45818 5.0525,5.64704 5.3498,-3.56655 -1.7833,-2.67491 0.5946,-10.40243 2.6748,0.29722 1.4861,3.56655 h 7.133 l 1.1889,-1.78328 14.2662,1.48606 1.4861,-4.16096 -1.4861,-2.3777 3.773,-5.86251 1.8409,-4.98023 h 3.0054 l 4.8834,4.06895 3.7566,3.69901 4.1323,-3.69901 1.127,-7.39799 -6.3861,-9.61737 -2.2541,-2.21935 -7.1375,-5.54839 3.7566,-3.69901 v -3.329 l -4.7185,-4.47488 -1.3207,-10.43838 5.3497,-3.26933 -3.2693,-5.64702 h -10.6997 l -3.8637,-3.86377 v -2.37768 l 4.4582,-1.18884 -2.675,-3.26934 -2.3776,-0.59443 -1.7832,-5.94423 -2.0807,-2.67493 0.8918,-4.75539 2.6747,-0.59441 -0.8915,-2.97212 -6.8358,-2.97211 -2.675,-2.0805 h -9.2137 l -1.1887,2.37769 -2.6749,-2.08047 0.4098,-5.967 -4.4738,-1.20518 -3.3809,-0.36994 -2.2541,1.84956 -2.6296,-3.69899 -6.0106,-2.95928 -2.6296,-5.91833 0.3757,-3.32907 -4.6131,-2.16124 -3.6965,-4.54649 -4.8836,2.95912 -1.8782,-4.43874 -0.7513,-3.32902 h -4.508 l -5.635,7.3978 -10.6935,-10.00791 -3.4061,0.0149 -7.8767,-0.69035 -1.6582,2.07121 -2.0728,0.82844 -0.1386,6.62788 -3.04,3.03772 -7.8767,2.76173 -11.884,2.3472 1.2435,2.07138 -2.349,5.66123 -8.5676,2.62351 h -6.2185 l -6.0802,2.07121 h -5.6655 l -2.7637,2.2093 -3.8693,-0.55228 -4.2839,-1.38086 1.6584,3.72821 -1.1057,3.72809 -5.8037,3.45207 -8.7057,0.5523 -2.902,4.28051 -3.5927,10.07981 -3.7312,3.72823 0.9674,5.38507 -5.3894,2.48544 -3.04,3.59017 -5.3892,0.4142 -6.9095,2.2093 -16.1679,-2.07123 -7.1857,4.83279 -6.2182,5.7993 -9.9494,6.35174 -5.3895,-1.24264 -12.8512,1.38071 -0.5527,4.69472 -6.0802,6.76595 -0.024,3.15542 2.18,-0.1536 3.666,-3.48514 3.9189,0.62227 2.781,-3.48517 4.8036,0.12438 0.1259,3.23624 1.264,3.48534 h 3.5396 l 3.5397,-1.49366 2.0226,-4.35675 3.0338,2.24059 22.1222,2.2406 6.8263,-1.86722 8.0904,-0.87121 3.6661,1.24476 1.1378,2.98735 3.1603,0.12437 3.1603,-4.23211 5.0564,-3.73427 7.2056,-0.37335 8.2167,2.36484 3.5396,0.62248 3.919,0.74676 5.0564,-2.73846 3.0338,-0.37335 0.5058,5.85022 1.5168,5.35238 0.5058,3.112 4.6772,10.95349 v 3.3609 l 5.4359,0.12437 7.5846,4.97905 4.6774,-0.62246 1.0112,-1.61813 0.1258,-2.614 2.2755,-2.36505 2.781,-1.86706 13.0206,8.96205 15.0432,13.4432 1.6433,2.2406 1.3905,1.24478 2.5282,0.87117 6.3206,-1.99151 6.3207,-0.12438 1.6435,4.23207 -0.6321,2.73843 3.5394,-0.49805 3.9189,-3.36068 v -1.99147 l 2.9075,-2.11616 2.5283,1.74257 4.5508,1.12032 5.3092,-2.73843 2.7539,0.54014 z"
     style="display:inline;fill:#fefee9;fill-opacity:1;stroke:#646464;stroke-width:0.42666668;stroke-linecap:butt;stroke-linejoin:round;stroke-miterlimit:4;stroke-dasharray:none;stroke-opacity:1"
     id="Juan_De_Acosta,_Código_DANE_:_08372" />
  <path
     d="m 477.4288,199.87231 h -6.1331 l -4.0889,-1.20766 4.9066,-8.8576 -1.6356,-4.83132 1.6356,-3.22078 8.5865,-3.22084 1.6356,-4.57837 -7.8957,-6.44183 -6.2884,2.95624 -2.5801,-3.61184 -4.4977,1.20792 v 3.2208 h -4.4977 l -2.8623,2.41574 -4.0887,-4.42867 -5.7244,6.44162 -2.0444,-4.42869 -4.4977,-1.61033 -3.271,-2.81839 -4.4977,-4.42869 h -6.1333 l -3.0004,1.87507 -8.8516,0.65536 -5.7357,4.42891 -2.0388,-2.93327 -0.4087,-3.62345 -3.3784,-5.15609 0.026,0.8305 -11.4696,-0.96665 -7.8765,1.657 -6.7207,0.69911 -3.5678,5.52316 -7.7386,2.4045 -8.1404,8.16389 -12.5864,12.62223 -11.6638,6.34984 -6.905,2.37587 -5.904,11.37895 2.4512,3.64574 2.9286,-5.03913 5.2122,0.71494 7.8131,-9.55805 6.3563,-1.06558 5.9142,6.35893 -6.6939,23.49931 -4.0075,2.34735 -4.2837,8.14666 1.1055,6.35175 2.349,0.4142 1.2437,7.4563 -3.731,6.35175 -8.1529,6.07558 -3.593,6.48981 -8.153,4.83279 h -7.0474 l -5.113,4.1423 -5.6657,1.38086 -2.9018,2.89965 -5.7429,0.10667 10.7221,10.02423 5.635,-7.3978 h 4.508 l 0.7513,3.32902 1.8782,4.43874 4.8836,-2.95912 3.6965,4.54649 4.6131,2.16124 -0.3757,3.32907 2.6296,5.91833 6.0106,2.95928 2.6296,3.69899 2.2541,-1.84956 3.3809,0.36994 4.4738,1.20518 -0.4098,5.967 2.6749,2.08047 1.1887,-2.37769 h 9.2137 l 2.675,2.0805 6.8358,2.97211 0.8915,2.97212 -2.6747,0.59441 -0.8918,4.75539 2.0807,2.67493 1.7832,5.94423 2.3776,0.59443 2.675,3.26934 -4.4582,1.18884 v 2.37768 l 3.8637,3.86377 h 10.6997 l 3.2693,5.64702 -5.3497,3.26933 1.3032,10.39597 3.5128,-3.5021 4.3776,-1.90637 0.043,-1.95917 4.0888,2.8182 0.8177,4.83132 4.0889,-2.41558 5.3155,2.01295 4.9066,-2.41555 7.7688,-6.03921 h 4.0887 l -2.0444,-9.26001 1.2267,-6.84429 5.3154,-9.2602 12.2665,-5.63635 4.0889,-5.63659 3.5979,-7.0201 1.5159,-3.04232 4.7555,-3.56655 v -5.64704 l 6.2415,-4.16096 3.5665,0.29721 1.486,-0.29721 -2.6749,-2.97212 0.5943,-4.75539 4.4582,-1.48606 2.9722,-10.69963 -4.4582,-3.86376 -1.4861,-5.64702 5.35,-2.97212 3.8636,-12.4829 -1.7832,-17.23829 1.7832,-24.66861 5.0526,-2.97212 6.8004,-8.84964 -2.3165,-0.23456 z"
     style="fill:#fefee9;fill-opacity:1;stroke:#646464;stroke-width:0.42666668;stroke-linecap:butt;stroke-linejoin:round;stroke-miterlimit:4;stroke-dasharray:none;stroke-opacity:1"
     id="Tubara,_Código_DANE_:_08832" />
  <path
     d="m 559.0839,689.47817 0.2472,-3.95799 4.9477,-2.96849 3.7105,-4.20538 2.2263,-10.88448 1.4844,-1.73162 0.742,-5.44224 -1.7317,-3.46324 0.4947,-4.70011 5.6899,-1.73163 2.4736,-4.70012 2.721,-3.71061 0.2253,-14.80053 -3.5831,0.25764 -5.1685,-4.77099 -3.5532,-7.95172 -6.4606,-2.22639 -3.8763,-6.99757 v -3.49858 l 1.2922,-15.58537 0.9689,-4.13491 -2.5841,-19.08401 0.323,-4.13489 -4.5222,-13.99513 -16.1513,-48.66435 0.9692,-3.18073 -1.9382,-2.54441 v -3.49879 h -1.9381 l -1.6151,3.81683 -10.3369,1.27221 -2.2611,6.04318 -1.9381,0.95439 -4.5223,-1.2724 -10.6598,-1.90831 -5.4914,3.49877 -2.5841,7.31541 -6.4606,6.99759 -7.1066,0.31804 -5.8144,3.81685 -0.646,-3.81685 4.8453,-7.31563 -0.323,-4.13487 -4.1993,2.54462 h -4.8452 l 1.9379,5.72517 -5.1682,-3.18053 -5.4914,-6.04343 -3.1452,1.7574 1.8532,2.85442 -2.5949,3.65026 -3.3366,6.20554 v 3.28536 l 1.8537,4.38039 -2.595,3.28536 h -5.1902 l -4.0779,-2.55524 -6.6728,1.46018 -5.1902,3.28514 -4.8194,-0.36493 -3.3363,-0.36497 -5.9318,1.46001 -2.2242,5.8406 -1.8536,2.92021 0.7413,3.65028 -3.3363,-2.19012 -4.0779,-8.39584 -5.5609,-4.38037 -2.595,-6.20555 -4.4487,-4.74536 h -3.3365 l -1.4827,5.11048 -3.3367,-2.19027 -3.7071,-7.30059 -8.156,-6.20554 -10.7507,4.74534 -8.1559,1.4602 -7.4144,-1.4602 -4.8194,-4.74534 -7.4142,-2.55527 -4.8194,4.74537 -5.561,4.74551 -7.4144,0.73014 -5.19,0.72989 -3.1087,-2.42564 -0.021,-0.16555 v 4.60568 l -3.1603,-0.12437 -3.4131,5.97467 -7.2056,2.98735 5.1829,3.60979 4.5509,9.33536 -10.5976,0.52892 -0.7808,8.75947 1.8381,6.20512 4.989,2.327 2.8883,8.01504 0.2627,8.01506 -4.2014,-1.80992 -5.7767,7.498 0.2626,10.60039 7.0897,22.75232 4.2012,6.46363 -2.6259,11.3762 v 11.89324 l -1.4601,13.12943 13.9164,13.73216 17.305,28.84764 8.804,28.69794 2.1253,21.22458 0.049,1.71588 3.2792,-1.18146 13.8901,1.59046 6.7834,3.49858 3.5532,-1.59027 5.8144,-4.77101 6.4604,5.72517 h 4.5225 l 4.5222,1.59046 11.952,0.95418 4.5223,-6.36124 6.4603,-4.77122 1.6152,-2.86247 1.6151,-4.13491 6.1376,-4.13489 3.5533,-0.63609 -3.2303,-4.45295 -1.6151,-5.72538 5.4914,-0.31804 11.9518,3.81681 12.5979,1.5903 10.0137,1.59046 8.0757,1.90831 3.8763,-7.63347 2.9071,-6.04341 6.4606,-2.86249 6.7833,1.27223 6.0442,-3.96733 14.2131,7.86794 6.5538,3.73306 1.9382,-3.18072 -0.323,-4.45295 0.6459,-6.67953 -3.8762,-4.13487 2.9071,-0.63613 h 3.2303 l 4.5224,-2.86266 12.5978,0.63631 3.8762,-1.59049 -3.2303,-5.4071 1.9384,-3.49877 5.1682,-3.18074 7.1066,7.95172 4.8665,0.43168 z"
     style="display:inline;fill:#fefee9;fill-opacity:1;stroke:#646464;stroke-width:0.42666668;stroke-linecap:butt;stroke-linejoin:round;stroke-miterlimit:4;stroke-dasharray:none;stroke-opacity:1"
     id="Sabanalarga,_Código_DANE_:_08638" />
  <path
     d="m 410.9614,402.74507 4.0779,0.36495 0.7413,3.28536 5.1902,3.28533 4.4486,0.7299 8.5266,-0.36497 1.4828,3.28538 5.1902,4.01523 4.8194,-0.36495 6.3021,6.20555 2.5952,4.01544 11.8631,5.84038 -2.2245,1.82516 -0.3707,4.01544 v 4.3804 l 4.078,3.6503 3.3364,2.55522 0.3707,3.65033 -2.9657,10.95108 -5.5608,1.09506 -3.3365,4.74537 v 4.74549 l 2.2244,6.93566 -3.3365,7.30061 v 3.65028 l -6.3023,3.65052 -0.7416,6.9354 3.3366,-0.72988 2.595,2.19008 2.9659,-1.09504 1.8535,2.92024 -2.595,3.65026 -3.3365,6.20554 v 3.28536 l 1.8536,4.38039 -2.595,3.28536 h -5.1902 l -4.0778,-2.55524 -6.6729,1.46018 -5.1902,3.28514 -4.8194,-0.36493 -3.3363,-0.36497 -5.9317,1.46001 -2.2243,5.8406 -1.8536,2.92021 0.7413,3.65028 -3.3363,-2.19012 -4.0779,-8.39584 -5.5609,-4.38037 -2.595,-6.20555 -4.4486,-4.74536 h -3.3366 l -1.4826,5.11048 -3.3368,-2.19027 -3.7071,-7.30059 -8.1559,-6.20554 -10.7508,4.74534 -8.1559,1.4602 -7.4144,-1.4602 -4.8194,-4.74534 -7.4142,-2.55527 -4.8194,4.74537 -5.561,4.74551 -7.4144,0.73014 -5.1899,0.72989 -3.1087,-2.42564 3.898,-0.41448 0.6321,-2.36506 3.9187,-5.22775 -1.517,-3.36092 4.4245,-1.74255 1.0114,-5.10351 4.8037,-5.47682 8.7225,-2.98735 4.93,-18.04868 -3.1602,-6.22358 -3.6661,-3.98317 -0.1259,-6.7216 -2.9075,-2.11616 h -4.551 l -6.826,-2.61373 -4.9304,0.62225 -1.264,-1.49366 3.4131,-7.09497 -0.2528,-4.35655 3.2098,-4.21103 4.0732,-0.90754 2.0804,-3.26933 13.3746,4.45818 5.0525,5.64704 5.3498,-3.56655 -1.7833,-2.67491 0.5946,-10.40243 2.6748,0.29722 1.4861,3.56655 h 7.133 l 1.1889,-1.78328 14.2662,1.48606 1.4861,-4.16096 -1.4861,-2.3777 3.773,-5.86251 1.8409,-4.98023 h 3.0054 l 4.8834,4.06895 3.7566,3.69901 4.1323,-3.69901 1.0711,-7.46615 z"
     style="display:inline;fill:#fefee9;fill-opacity:1;stroke:#646464;stroke-width:0.42666668;stroke-linecap:butt;stroke-linejoin:round;stroke-miterlimit:4;stroke-dasharray:none;stroke-opacity:1"
     id="Usiacuri,_Código_DANE_:_08849" />
  <path
     d="m 344.4068,767.57366 0.1514,6.2777 -0.1514,17.7869 -0.4555,2.54103 -9.5631,1.64397 -7.1345,2.54101 -11.385,12.55559 0.1515,5.5302 -0.3036,3.73685 -3.4914,14.19953 -4.7057,16.5909 -1.8214,10.1641 -7.59,18.8328 -4.554,5.6799 -9.2596,0.4485 -4.7059,7.1555 9.1663,8.4495 13.865,19.3515 3.882,2.2114 3.882,8.57 7.7641,4.6998 7.2098,1.6586 5.8231,3.3176 2.4899,0.4945 5.2701,-7.7216 9.5341,3.2318 4.6889,0.4617 -1.0942,-3.5396 -4.6887,-2.4624 5.4703,-4.617 h 6.7207 l 10.0028,2.6165 1.563,-4.9249 5.1578,-3.078 0.6253,-3.078 -2.032,-6.4636 2.9696,-2.4625 h 5.4705 l 2.1879,-4.4629 3.126,-0.9233 5.7831,3.2318 8.7524,3.2319 8.2837,-2.0008 1.094,2.1547 -0.6251,6.0019 1.8754,3.2318 3.2824,0.7696 7.3457,0.7694 4.3763,-1.231 h 1.8756 l 5.4703,-9.6956 -0.6253,-3.5398 2.032,-2.4624 -0.1557,-2.9239 4.3763,-2.9241 4.0638,-1.0772 1.8754,-5.5404 3.5949,-2.9239 4.3763,-2.3086 4.0636,0.3078 1.7193,3.5397 2.3445,3.078 2.3443,1.2311 3.126,0.3078 1.7192,2.0007 -0.1557,3.5397 1.8756,2.0004 1.7193,-0.6154 1.094,-1.2313 0.4689,-3.2317 -1.5629,-2.3084 -0.3125,-2.4625 1.8754,-2.3084 3.2821,-2.1546 3.5949,-2.6162 v -2.4624 l -0.4689,-3.3858 -4.22,-0.4618 1.4067,-5.694 -0.6252,-6.9255 -5.5798,-11.4652 -6.0055,0.4819 -4.3162,-8.4164 -2.1581,-3.4529 3.6687,-2.8054 1.9424,-22.22784 -0.8633,-5.6109 1.9422,-1.72643 0.8633,3.45287 9.2796,3.02125 2.5897,2.37384 2.3737,-1.72642 -0.6475,-11.00602 3.0215,-2.15803 1.5106,-2.58966 -4.1003,-3.45286 0.6473,-17.69594 -3.4528,-4.10026 5.8268,-3.66867 0.4315,-11.86923 1.9422,-3.23706 -0.4316,-8.63215 3.2372,-3.45286 v -3.23708 l -10.5745,-1.07902 -2.3738,-6.90572 2.5897,-1.07902 0.8631,-3.02125 -6.9679,-2.7388 -7.9219,-1.84164 -10.0137,-1.59046 -12.5979,-1.5903 -11.9518,-3.81681 -5.4914,0.31804 1.6151,5.72538 3.2303,4.45295 -3.5533,0.63609 -6.1376,4.13489 -1.6151,4.13491 -1.6152,2.86247 -6.4603,4.77122 -4.5223,6.36124 -11.952,-0.95418 -4.5222,-1.59046 h -4.5225 l -6.4604,-5.72517 -5.8144,4.77101 -3.5532,1.59027 -6.7834,-3.49858 -13.8901,-1.59046 -3.3035,1.29512 z"
     style="display:inline;fill:#fefee9;fill-opacity:1;stroke:#646464;stroke-width:0.42666668;stroke-linecap:butt;stroke-linejoin:round;stroke-miterlimit:4;stroke-dasharray:none;stroke-opacity:1"
     id="Manati,_Código_DANE_:_08436" />
  <path
     d="m 424.1316,925.91224 3.0476,3.4541 18.0832,3.0478 5.4859,-1.6255 4.47,3.4541 -0.8126,2.0318 4.5689,9.605 -0.098,6.2432 3.0479,1.2191 8.1263,-2.4382 8.1271,2.0318 -3.454,3.2508 -3.4541,0.2031 v 4.4701 l -3.251,4.0636 -5.4859,-1.4223 -6.7048,5.6891 0.2026,2.6413 9.7528,1.8287 0.2027,2.0318 11.9878,4.2668 2.2349,-2.0318 2.595,0.6012 -0.9415,6.9378 -7.261,7.8307 -2.4203,6.4687 -12.4475,6.46866 -3.4577,5.4474 1.7288,5.4473 -5.878,3.0641 -1.7288,3.0641 4.7044,25.4027 -31.1964,-39.0791 -4.9911,-4.976 -7.8741,-8.62696 -4.9914,-7.7408 -4.4365,-11.3342 -13.3101,-6.9114 -7.4869,-11.8873 -6.1005,-4.6998 -26.6201,-4.4232 -10.8143,-6.0817 -3.6994,-0.8732 5.3595,-7.7362 9.5341,3.2318 4.6889,0.4617 -1.0942,-3.5396 -4.6887,-2.4624 5.4703,-4.617 h 6.7207 l 10.0028,2.6165 1.563,-4.9249 5.1578,-3.078 0.6253,-3.078 -2.032,-6.4636 2.9696,-2.4625 h 5.4705 l 2.1879,-4.4629 3.126,-0.9233 5.7831,3.2318 8.7524,3.2319 8.2837,-2.0008 1.094,2.1547 -0.6251,6.0019 1.8754,3.2318 3.2824,0.7696 7.206,0.863 z"
     style="display:inline;fill:#fefee9;fill-opacity:1;stroke:#646464;stroke-width:0.42666668;stroke-linecap:butt;stroke-linejoin:round;stroke-miterlimit:4;stroke-dasharray:none;stroke-opacity:1"
     id="Santa_Lucia,_Código_DANE_:_08675" />
  <path
     d="m 545.7454,978.53304 -3.2774,-0.066 -13.6429,-7.3389 -0.6315,-6.7168 -4.6739,-1.4925 -1.895,-2.8609 -5.5582,6.0947 -5.6845,-0.1243 -4.9265,-3.4828 -7.0741,0.7463 -4.5477,4.7265 -8.8426,-0.6218 -2.4,2.8609 2.5263,4.7265 -2.3574,3.6381 -2.5523,-0.6948 -2.2349,2.0318 -11.9878,-4.2667 -0.2027,-2.0319 -9.7527,-1.8286 -0.2027,-2.6414 6.7049,-5.6891 5.4858,1.4223 3.251,-4.0637 v -4.4699 l 3.4541,-0.2031 3.4541,-3.2509 -8.1272,-2.0319 -8.1263,2.4382 -3.0479,-1.2191 0.098,-6.2432 -4.569,-9.6049 0.8126,-2.0318 -4.47,-3.4541 -5.4858,1.6254 -18.0832,-3.0477 -3.0477,-3.4541 0.1643,-3.841 4.516,-1.3248 h 1.8756 l 5.4703,-9.6956 -0.6253,-3.5396 2.032,-2.4625 -0.1557,-2.924 4.3763,-2.9239 4.0638,-1.0772 1.8754,-5.5405 3.5949,-2.9239 4.3763,-2.3086 4.0636,0.3078 1.7193,3.5397 2.3445,3.0779 2.3443,1.2311 3.126,0.3079 1.7192,2.0007 -0.1557,3.5396 1.8756,2.0006 1.7193,-0.6155 1.094,-1.2314 0.4689,-3.2315 -1.5629,-2.3086 -0.3125,-2.4625 1.8754,-2.3083 3.2821,-2.1546 3.5085,-2.6194 5.3455,-0.1276 11.1166,-7.7118 9.7267,8.5826 3.4108,0.4974 4.0424,-6.3436 -0.758,-2.1145 12.2533,-1.3682 4.8002,-5.7218 5.053,0.8708 8.3373,-3.9804 4.5476,-6.9655 8.0847,4.7267 3.5371,3.2338 3.537,-6.3436 -1.1368,-7.5874 1.7685,-11.6922 4.4211,0.3732 0.5054,-5.846 10.2321,-17.5384 3.2845,-1.86586 3.5371,-2.48749 5.6844,-4.72672 6.9477,-18.78218 8.8426,-12.18981 3.0319,0.74631 3.158,3.73167 11.0935,0.99701 1.4121,6.94251 -1.9428,6.09785 -7.4936,6.92964 -1.665,11.08709 -3.4661,19.04738 -0.2752,11.9461 0.2776,5.5436 -3.6081,8.3154 -7.2263,11.3604 -4.718,8.0385 -4.4408,5.5434 -6.1058,3.8806 -12.2118,5.5437 -12.767,7.7612 -8.6037,12.7501 -4.7183,9.7013 1.6755,35.2237 -4.9958,13.8591 z"
     style="display:inline;fill:#fefee9;fill-opacity:1;stroke:#646464;stroke-width:0.42666668;stroke-linecap:butt;stroke-linejoin:round;stroke-miterlimit:4;stroke-dasharray:none;stroke-opacity:1"
     id="Campo_de_la_Cruz,_Código_DANE_:_08137" />
  <path
     d="m 565.29,695.91393 10.8339,6.02937 4.2391,7.42085 5.6525,5.10184 0.9421,10.66776 -4.7104,2.31895 3.7683,12.05897 6.1233,10.20373 15.0733,14.84188 8.9495,1.85523 -4.2393,11.13124 -2.1457,3.69304 -8.6944,12.26867 -6.9477,18.78219 -5.6844,4.72672 -3.5371,2.48748 -3.2845,1.86586 -10.2321,17.53843 -0.5054,5.846 -4.4211,-0.3732 -1.7685,11.6922 1.1368,7.5874 -3.537,6.3436 -3.5371,-3.2338 -8.0847,-4.7267 -4.5476,6.9655 -8.3373,3.9804 -5.053,-0.8708 -4.8002,5.7217 -12.2533,1.3682 0.758,2.1146 -4.0424,6.3436 -3.4108,-0.4974 -9.7267,-8.5826 -11.1166,7.7118 -5.3455,0.1276 0.087,-2.4593 -0.4689,-3.3858 -4.2199,-0.4618 1.4067,-5.694 -0.6253,-6.9255 -5.5797,-11.4652 -6.0055,0.4819 -4.3162,-8.4164 -2.1581,-3.4529 3.6687,-2.8054 1.9424,-22.22784 -0.8634,-5.6109 1.9422,-1.72643 0.8634,3.45287 9.2796,3.02125 2.5896,2.37384 2.3738,-1.72642 -0.6475,-11.00602 3.0215,-2.15803 1.5106,-2.58966 -4.1003,-3.45286 0.6473,-17.69594 -3.4528,-4.10026 5.8267,-3.66867 0.4316,-11.86923 1.9422,-3.23706 -0.4316,-8.63215 3.2371,-3.45286 v -3.23708 l -10.5745,-1.07902 -2.3737,-6.90572 2.5896,-1.07902 0.8632,-3.02125 -6.8916,-2.70545 3.9527,-7.60015 2.9071,-6.04341 6.4606,-2.86249 6.7833,1.27223 6.0442,-3.96733 14.2131,7.86794 6.5538,3.73306 1.9382,-3.18072 -0.323,-4.45295 0.6459,-6.67953 -3.8762,-4.13487 2.9071,-0.63613 h 3.2303 l 4.5224,-2.86266 12.5978,0.63631 3.8762,-1.59049 -3.2303,-5.4071 1.9384,-3.49877 5.1682,-3.18074 7.1066,7.95172 4.7308,0.3244 z"
     style="display:inline;fill:#fefee9;fill-opacity:1;stroke:#646464;stroke-width:0.42666668;stroke-linecap:butt;stroke-linejoin:round;stroke-miterlimit:4;stroke-dasharray:none;stroke-opacity:1"
     id="Candelaria,_Código_DANE_:_08141" />
  <path
     d="m 627.1658,786.69347 3.9524,-12.64 5.5507,-3.88058 6.9251,-1.39221 6.9207,-7.77361 6.5378,-8.3405 6.4361,-11.38976 13.8995,-2.10876 7.4935,-7.20651 19.9217,-7.76271 5.5508,-14.69077 0.576,-42.26498 15.3802,-22.26447 -0.762,-7.43179 0.8326,-8.03827 -5.5509,-17.46242 -5.2732,-4.1577 -13.4585,-12.11884 -3.6079,-8.86981 0.8663,-4.35317 -3.3499,-0.13397 -5.9996,-2.6256 -6.1662,-1.3129 -5.6661,2.29754 -1.6666,3.93826 -7.9994,-3.93826 -2,1.47682 -5.3329,-2.6256 -4.1662,-5.08704 -2.9998,2.46144 -14.3322,-6.23561 -6.1662,3.44608 -8.666,1.14857 -10.4992,-4.43049 -2.4999,-3.61022 0.1664,-2.6256 -2.8332,0.82048 -0.8333,-5.90752 -3.6664,-1.64096 -2.333,4.26656 -3.1665,-4.9229 -5.8329,-2.78954 -3.3332,1.64098 -3.9995,1.64094 0.1664,-3.93848 0.5,-8.53293 -4.1664,-5.25115 2.4999,-2.29735 -0.9999,-4.10242 -2.9999,-2.13337 0.6666,-4.43049 -3.3331,-1.80512 -1.4999,3.44606 0.3334,-5.57924 -1.6666,-8.20487 h -3.4997 l 0.9999,-3.6102 -3.3329,-2.2973 -2.9999,0.9846 -3.9996,1.3127 -2.4998,-7.05608 h -5.3329 l -1.6666,-2.46148 -4.4998,2.29734 -3.3329,-1.96926 0.4998,-4.26654 -3.1663,-6.72783 -1.1667,2.62539 -1.6036,-0.56567 -0.9148,3.16108 16.1513,48.66435 4.5222,13.99513 -0.323,4.13489 2.5841,19.08401 -0.9689,4.13491 -1.2922,15.58537 v 3.49858 l 3.8763,6.99757 6.4606,2.22639 3.5532,7.95172 5.1685,4.77099 3.5831,-0.25764 -0.2253,14.80053 -2.721,3.71061 -2.4736,4.70012 -5.6899,1.73163 -0.4947,4.70011 1.7317,3.46324 -0.742,5.44224 -1.4844,1.73162 -2.2263,10.88448 -3.7105,4.20538 -4.9477,2.96849 -0.2472,3.95799 3.3819,5.71608 2.8242,0.71968 10.8339,6.02937 4.2391,7.42085 5.6525,5.10184 0.9421,10.66776 -4.7104,2.31895 3.7683,12.05897 6.1233,10.20373 15.0733,14.84188 8.9495,1.85523 -4.2393,11.13124 -2.1457,3.69304 3.1464,0.81721 3.1716,3.77272 z"
     style="display:inline;fill:#fefee9;fill-opacity:1;stroke:#646464;stroke-width:0.42666668;stroke-linecap:butt;stroke-linejoin:round;stroke-miterlimit:4;stroke-dasharray:none;stroke-opacity:1"
     id="Ponedera,_Código_DANE_:_08560" />
  <path
     d="m 585.9366,278.26783 5.5334,-7.08534 5.878,-14.98018 -0.3458,-8.17116 -1.5341,-3.60891 -4.9065,-0.50151 -8.0247,-6.53866 -0.2972,-5.05261 -11.2941,-12.4829 0.2972,-3.86375 -4.1611,-0.59443 -6.8358,1.78328 -8.9163,-2.08049 -12.1858,-9.80798 v -3.86377 l -3.8637,1.78328 -0.5943,2.97211 -6.2415,2.08049 -3.7067,-1.76006 -10.0271,3.06406 0.3459,-8.51144 0.6914,-2.0428 h -10.3729 l -20.7459,6.12841 -2.167,-0.4442 2.2566,0.43567 -6.8004,8.77738 -5.0526,2.97212 -1.7832,24.66861 1.7832,17.23829 -3.8636,12.4829 -5.35,2.97212 1.4861,5.64702 4.4582,3.86376 -2.9722,10.69963 -4.4582,1.48606 -0.5943,4.75539 2.6749,2.97212 -1.486,0.29721 -3.5665,-0.29721 -6.2415,4.16096 v 5.64704 l -4.7555,3.56655 -1.2904,2.40072 1.763,0.0919 8.6442,0.681 3.8034,4.76638 4.1491,2.72359 3.8035,-3.40457 4.4949,-1.02131 9.6813,4.42588 6.5696,3.4046 5.1864,-1.36179 6.2237,-3.06408 2.7661,3.40456 -0.6914,4.76642 2.4203,3.74509 2.7661,-2.72358 3.1118,-4.42612 -0.6914,-4.76637 3.1117,-1.70232 3.4577,3.74511 3.8035,1.70229 9.3355,-4.08561 11.4586,0.14336 1.0598,-7.76823 3.2772,-4.9158 3.8917,1.02413 21.3017,-9.42193 3.482,-0.40964 8.6027,-3.48203 -0.6146,-3.07236 -5.735,-0.81929 -4.3013,-7.37369 3.4821,-0.81929 4.5414,-4.76845 z"
     style="fill:#fefee9;fill-opacity:1;stroke:#646464;stroke-width:0.42666668;stroke-linecap:butt;stroke-linejoin:round;stroke-miterlimit:4;stroke-dasharray:none;stroke-opacity:1"
     id="Galapa,_Código_DANE_:_08296" />
  <path
     d="m 477.4288,199.87231 h -6.1331 l -4.0889,-1.20766 4.9066,-8.8576 -1.6356,-4.83132 1.6356,-3.22078 8.5865,-3.22084 1.6356,-4.57837 -7.8957,-6.44183 -6.2884,2.95624 -2.5801,-3.61184 -4.4977,1.20792 v 3.2208 h -4.4977 l -2.8623,2.41574 -4.0887,-4.42867 -5.7244,6.44162 -2.0444,-4.42869 -4.4977,-1.61033 -3.271,-2.81839 -4.4977,-4.42869 h -6.1333 l -3.0004,1.87507 -8.8516,0.65536 -5.7357,4.42891 -2.0388,-2.93327 -0.4087,-3.62345 -2.886,-4.40891 -0.4655,-0.72835 13.2646,-3.19259 6.0802,-5.10895 10.364,-2.20928 10.7784,-14.22225 1.6583,-5.38509 18.6553,-14.08433 8.5675,-5.38509 8.0147,-9.11332 3.0402,-9.25137 -0.6909,-4.97088 1.52,-2.48542 4.9747,0.27614 4.2839,-0.41423 5.8038,-2.48542 4.0074,0.96648 9.9495,0.41423 4.9747,-2.34737 1.2437,-2.07106 h 7.3237 l 15.6015,-5.98039 -1.0993,6.43848 -2.3614,9.63279 -0.6745,7.97197 v 2.32516 l 5.06,-0.99644 1.6867,6.64325 2.6986,0.99665 -3.3732,5.64678 0.6746,3.65391 7.0843,0.3321 6.4094,-3.32162 -0.3776,-2.34262 1.7875,-3.79987 8.1101,1.11471 8.0476,-0.75994 8.1485,-0.66436 13.0555,-5.38782 -3.7316,10.79966 -8.39,13.33048 -5.06,-2.32519 -5.0601,-2.98954 -11.8071,-0.33227 -10.7949,-0.3321 -6.0032,11.43478 -2.6989,4.65034 0.3373,2.65728 -5.8035,7.4989 -6.0723,8.30407 -2.0241,1.66078 2.0241,5.97909 -2.0241,3.98601 5.735,1.99308 -4.723,5.64681 -5.3973,-8.63633 -3.3735,-3.65393 -9.783,3.65393 v 4.6503 l -4.7228,1.66084 -3.0361,3.65389 -7.4215,-0.33226 11.807,12.29024 -1.0121,4.65039 h -4.3853 l -4.3855,4.9824 -6.4096,-1.9929 -6.7468,4.65035 -0.9884,9.138 z"
     style="fill:#fefee9;fill-opacity:1;stroke:#646464;stroke-width:0.42666668;stroke-linecap:butt;stroke-linejoin:round;stroke-miterlimit:4;stroke-dasharray:none;stroke-opacity:1"
     id="Puerto_Colombia,_Código_DANE_:_08573" />
  <path
     d="m 530.6156,326.33673 -9.3355,4.08561 -3.8035,-1.70229 -3.4577,-3.74511 -3.1117,1.70232 0.6914,4.76637 -3.1118,4.42612 -2.7661,2.72358 -2.4203,-3.74509 0.6914,-4.76642 -2.7661,-3.40456 -6.2237,3.06408 -5.1864,1.36179 -6.5696,-3.4046 -9.6813,-4.42588 -4.4949,1.02131 -3.8035,3.40457 -4.1491,-2.72359 -3.8034,-4.76638 -10.3274,-0.79304 -3.9032,7.68173 -4.0889,5.63658 -12.2665,5.63635 -5.3154,9.26021 -1.2267,6.84428 2.0444,9.26002 h -4.0887 l -7.7688,6.03921 -4.9066,2.41555 -5.3155,-2.01295 -4.0889,2.41557 -0.8177,-4.83132 -4.0888,-2.81819 -0.043,1.95917 -4.3776,1.90636 -3.504,3.52331 4.7272,4.49609 v 3.329 l -3.7566,3.69901 7.1375,5.54839 2.2541,2.21935 6.3582,9.58327 11.0101,1.5385 4.0779,0.36495 0.7413,3.28535 5.1902,3.28534 4.4486,0.7299 8.5266,-0.36497 1.4828,3.28537 5.1902,4.01523 4.8194,-0.36495 6.3021,6.20555 2.5952,4.01545 11.8631,5.84038 -2.2245,1.82515 -0.3707,4.01545 v 4.38039 l 4.078,3.65031 3.3364,2.55522 0.3707,3.65032 -2.9657,10.95109 -5.5608,1.09506 -3.3365,4.74536 v 4.7455 l 2.2244,6.93565 -3.3365,7.30061 v 3.65029 l -6.3023,3.65051 -0.7416,6.93541 3.3366,-0.72988 2.595,2.19008 2.9657,-1.06212 3.1452,-1.72451 5.4914,6.04344 5.1682,3.18052 -1.9379,-5.72516 h 4.8452 l 4.1993,-2.54462 0.323,4.13487 -4.8453,7.31563 0.646,3.81685 5.8144,-3.81685 7.1066,-0.31804 6.4606,-6.99759 2.5841,-7.31541 5.4914,-3.49878 10.6598,1.90831 4.5223,1.27241 1.9381,-0.95439 2.2611,-6.04318 10.3369,-1.27221 1.5163,-3.79102 -1.2676,-3.93573 h -6.4326 l -2.144,-2.95566 -3.8597,3.80019 -3.8596,-3.80019 -0.4288,-4.64495 -3.002,-4.64493 -1.7152,-0.42227 0.4288,-2.11134 0.4288,-2.95586 -3.4308,-2.5334 -2.573,-7.60081 2.1442,-5.06722 -0.8576,-5.06701 2.1442,-5.0672 4.7172,-0.42227 6.0038,1.26681 1.2864,-8.02308 1.7155,-8.44516 4.7172,-4.64493 -1.7154,-5.06718 -5.1461,-1.68907 4.7173,-3.80023 4.2884,-5.06718 3.8596,2.95586 v -5.91174 l -3.8596,-4.2227 -7.719,-2.53336 4.2884,-4.64497 6.0036,-2.11133 1.7154,-2.11134 -3.4308,-5.06718 -4.2882,-2.95591 -0.8578,-4.22244 6.4326,-3.8004 0.4288,-7.17859 6.0039,-5.9115 3.4308,-5.4895 3.8594,-4.22265 -2.1442,-5.48948 -4.2884,-7.17834 0.4334,-7.73355 z"
     style="display:inline;fill:#fefee9;fill-opacity:1;stroke:#646464;stroke-width:0.42666668;stroke-linecap:butt;stroke-linejoin:round;stroke-miterlimit:4;stroke-dasharray:none;stroke-opacity:1"
     id="Baranoa,_Código_DANE_:_08078" />
  <path
     d="m 690.5392,215.56323 2.5257,9.19447 7.5772,6.68689 10.3833,4.1795 4.7708,4.45769 13.1895,5.57229 7.0157,4.1795 -0.8435,7.80125 -17.9526,14.13635 -4.7414,6.84307 1.1757,10.06413 0.4152,5.97917 -5.3381,-3.18536 v -6.67431 h -1.1778 l -2.1593,3.53347 -8.6375,-3.53347 -1.1778,-2.15933 -8.441,-0.98151 -3.5334,2.74825 -1.9631,-0.78522 0.3925,-4.51499 -7.0668,-5.49649 -2.1594,1.96303 -3.926,0.98153 -1.7668,1.37412 2.3556,2.15934 v 7.85212 l -2.9444,1.76674 -5.4965,-3.14087 0.3925,-2.35562 -3.1407,-0.39262 -1.7668,6.08542 1.5703,1.96303 -4.1222,2.15934 -2.3556,-3.33716 h -3.1409 l -3.3372,2.94454 -0.5888,4.51498 -5.1241,0.28768 -2.5871,1.11267 -3.6514,-4.89389 2.0406,-1.99309 -2.3616,-4.65037 -4.7228,-2.98933 -3.7107,2.65726 -2.3614,3.98596 -2.7749,-1.56644 -1.582,0.75874 -2.6629,3.68682 -9.0122,0.61449 -6.9641,-5.12062 3.6868,-1.63859 3.0725,-9.01229 2.8676,-2.25305 -0.8194,-3.27721 -7.7833,0.81931 -7.7834,6.55439 -7.1689,3.07236 -3.1968,-0.67629 4.0105,-5.35718 5.5334,-7.08534 5.878,-14.98018 -0.3458,-8.17116 -1.6052,-3.86769 17.5418,-7.3076 2.3614,0.66436 21.2525,-0.66436 2.3616,-8.63635 4.2669,-4.4349 7.2025,-3.53726 14.1685,-9.96487 25.0648,-0.61531 z"
     style="fill:#fefee9;fill-opacity:1;stroke:#646464;stroke-width:0.42666668;stroke-linecap:butt;stroke-linejoin:round;stroke-miterlimit:4;stroke-dasharray:none;stroke-opacity:1"
     id="Soledad,_Código_DANE_:_08758" />
  <path
     d="m 534.2973,369.6731 0.4288,-7.17859 6.0039,-5.9115 3.4308,-5.4895 3.8594,-4.22265 -2.1442,-5.48948 -4.2884,-7.17834 0.4541,-7.77895 1.0923,-7.71223 3.2772,-4.9158 3.8917,1.02413 21.3017,-9.42193 3.482,-0.40964 8.6027,-3.48203 -0.6146,-3.07236 -5.735,-0.81929 -4.3013,-7.37369 3.4821,-0.81929 4.5414,-4.76845 0.8642,-1.0285 3.1968,0.67629 7.1689,-3.07236 7.7834,-6.55439 7.7833,-0.81931 0.8194,3.27721 -2.8676,2.25305 -3.0725,9.01229 -3.6868,1.63859 6.9641,5.12062 9.0122,-0.61449 2.6629,-3.68682 1.582,-0.75874 2.7749,1.56644 2.3614,-3.98596 3.7107,-2.65726 4.7228,2.98933 2.3616,4.65037 -2.0406,1.99309 3.6514,4.89389 2.5871,-1.11267 5.1241,-0.28768 0.5888,-4.51498 3.3372,-2.94454 h 3.1409 l 2.3556,3.33716 4.1222,-2.15934 -1.5703,-1.96303 1.7668,-6.08542 3.1407,0.39262 -0.3925,2.35562 5.4965,3.14087 2.9444,-1.76674 v -7.85212 l -2.3556,-2.15934 1.7668,-1.37412 3.926,-0.98153 2.1594,-1.96303 7.0668,5.49649 -0.3925,4.51499 1.9631,0.78522 3.5334,-2.74825 8.441,0.98151 1.1778,2.15933 8.6375,3.53347 2.1593,-3.53347 h 1.1778 v 6.67431 l 5.3381,3.18536 0.3584,2.046 -0.5596,7.66688 -1.6836,5.015 0.5612,15.04544 -5.0513,13.37376 0.07,9.41009 -4.8778,0.35202 -4.8395,3.57395 -7.6627,-0.79422 -0.8066,5.16241 4.033,6.35382 -2.8232,4.36817 -10.4856,-3.57393 -3.2264,3.17674 h -10.4856 l -4.4362,2.38268 -10.4858,2.3827 -16.1318,4.76518 -11.2922,3.17692 h -8.8725 l -14.5186,-1.98545 -12.5022,0.39701 -17.7449,-0.39701 H 551.233 l -23.334,-3.1306 z"
     style="display:inline;fill:#fefee9;fill-opacity:1;stroke:#646464;stroke-width:0.42666668;stroke-linecap:butt;stroke-linejoin:round;stroke-miterlimit:4;stroke-dasharray:none;stroke-opacity:1"
     id="Malambo,_Código_DANE_:_08433" />
  <path
     d="m 538.0592,487.20519 -0.041,3.45154 2.0845,2.69775 1.4585,0.3776 1.0108,-2.71315 3.2749,6.85289 -0.4092,4.43411 3.2751,2.01553 4.5031,-2.41858 1.6375,2.41858 h 5.3222 l 2.4561,6.85269 3.2751,-0.80606 3.6845,-1.2093 3.2751,2.01536 4.5033,-1.61233 1.6375,-11.69 1.2282,-8.4652 6.5502,-6.04661 1.2281,-6.85287 1.2282,-13.30231 5.322,-14.91503 8.1877,-13.30234 0.4094,-6.44983 15.9659,-7.2557 -1.2282,-3.225 5.7314,-2.01536 1.2282,-6.85287 -3.2751,-4.03108 v -7.65895 l -5.3218,-6.04661 -0.8188,-4.03108 4.5031,-4.43411 3.2751,-4.43409 h -9.8253 l -12.6908,-2.01553 -12.7991,0.26747 -16.6767,-0.26747 -19.9921,0.0713 -23.3882,-3.1161 0.8725,4.20357 4.2882,2.9559 3.4309,5.06718 -1.7154,2.11134 -6.0037,2.11134 -4.2884,4.64497 7.719,2.53335 3.8597,4.2227 v 5.91174 l -3.8597,-2.95586 -4.2884,5.06718 -4.7172,3.80024 5.146,1.68906 1.7154,5.06718 -4.7172,4.64493 -1.7154,8.44516 -1.2864,8.02308 -6.0038,-1.26681 -4.7173,0.42227 -2.1442,5.0672 0.8576,5.06701 -2.1442,5.06722 2.573,7.60081 3.4308,2.5334 -0.4288,2.95586 -0.4288,2.11134 1.7152,0.42227 3.0021,4.64493 0.4288,4.64495 3.8596,3.80019 3.8596,-3.80019 2.144,2.95567 h 6.4327 l 1.2768,3.89007 z"
     style="display:inline;fill:#fefee9;fill-opacity:1;stroke:#646464;stroke-width:0.42666668;stroke-linecap:butt;stroke-linejoin:round;stroke-miterlimit:4;stroke-dasharray:none;stroke-opacity:1"
     id="Polonuevo,_Código_DANE_:_08558" />
  <path
     d="m 572.8528,511.11261 -0.7153,3.52145 3.2186,0.35212 1.7884,7.39518 -0.3578,6.33861 1.7882,-3.52143 2.8612,2.11293 -0.3578,4.22588 2.8613,2.11273 1.0728,3.87377 0.3576,-3.52162 2.5034,-3.87356 2.861,1.76081 v -5.63437 h 4.2919 l 3.5763,-2.81717 4.2916,-6.69095 v -10e-5 l 2.1457,2.46506 6.7951,0.35211 0.7153,3.87379 h 1.4306 l 1.0729,-7.04309 6.4373,-3.1693 10.7292,-0.35211 5.7222,-13.02957 -0.3577,-5.28226 5.3647,-1.40868 v -5.28222 l 2.861,-0.70428 -0.3576,-8.09943 1.4304,-1.76081 5.7223,2.46504 3.2188,-2.11291 5.0069,1.05657 1.4304,-3.16932 3.9341,-0.35232 6.4375,-2.81722 5.722,-2.465 7.5104,-7.74716 h 6.0798 l 4.2917,-3.16951 2.861,-1.40847 h 7.1528 l 10.0139,3.1693 7.4846,1.94564 -0.2413,-12.66587 4.9899,-12.87525 -1.2207,-11.2673 h -4.5752 l -6.1916,1.64516 -0.352,3.63145 -1.6821,2.11857 -3.8165,-2.33861 -4.3934,-5.3117 -17.4505,-0.32808 -13.6795,-0.12096 -8.9408,-1.76081 -8.4549,-2.46507 -3.9451,-4.11563 -7.6278,1.29846 -4.2916,2.81717 -15.0206,4.93013 -4.2916,-3.87355 -3.9341,-0.70445 -15.4686,7.22323 -0.4094,6.44983 -8.1877,13.30234 -5.322,14.91503 -1.2282,13.30231 -1.2281,6.85287 -6.5502,6.04661 -1.2282,8.4652 -1.6375,11.69 -4.5033,1.61233"
     style="display:inline;fill:#fefee9;fill-opacity:1;stroke:#646464;stroke-width:0.42666668;stroke-linecap:butt;stroke-linejoin:round;stroke-miterlimit:4;stroke-dasharray:none;stroke-opacity:1"
     id="Santo_Tomas,_Código_DANE_:_08685" />
  <path
     d="m 617.8992,418.05693 5.7314,-2.01536 1.2282,-6.85287 -3.2751,-4.03108 v -7.65895 l -5.3218,-6.04661 -0.8188,-4.03108 4.5031,-4.43411 3.2751,-4.43409 1.0086,-0.0107 11.2922,-3.17692 16.1318,-4.76518 10.4858,-2.3827 4.4362,-2.38268 h 10.4856 l 3.2264,-3.17674 10.4856,3.57393 2.8232,-4.36817 -4.033,-6.35382 0.8066,-5.16241 7.6627,0.79422 4.8395,-3.57395 4.8778,-0.35202 -0.049,2.08759 7.389,20.59678 -0.2778,17.18496 5.5509,19.67979 6.1061,12.19594 0.3661,6.9948 -4.9515,0.16448 -5.322,1.2093 -0.4094,4.03108 -2.047,1.6125 -3.6844,-2.41875 -4.0939,-4.83712 -16.7846,-0.40326 h -9.8255 l -4.9125,-0.40301 -9.4159,-1.61252 -7.7783,-2.41858 -3.6845,-4.03107 -7.3689,1.20931 -4.9127,2.82176 -8.1877,3.22485 -6.9596,2.41877 -4.0939,-4.43432 -3.4801,-0.80653 z"
     style="display:inline;fill:#fefee9;fill-opacity:1;stroke:#646464;stroke-width:0.42666668;stroke-linecap:butt;stroke-linejoin:round;stroke-miterlimit:4;stroke-dasharray:none;stroke-opacity:1"
     id="Sabanagrande,_Código_DANE_:_08634" />
  <g
     id="layer10"
     style="display:inline"
     transform="translate(-1979.4757,-173.82236)">
    <path
       id="path5008"
       style="display:inline;fill:none;stroke:#646464;stroke-width:2.34666681;stroke-linecap:butt;stroke-linejoin:round;stroke-miterlimit:4;stroke-dasharray:none;stroke-opacity:1"
       d="m 2469.4251,1269.5201 0.5689,22.6038 -9.5167,17.6841" />
    <path
       id="path4226"
       style="display:inline;fill:none;stroke:#646464;stroke-width:2.34666681;stroke-linecap:butt;stroke-linejoin:round;stroke-miterlimit:4;stroke-dasharray:none;stroke-opacity:1"
       d="m 2469.3756,1269.5241 -32.5517,-44.1581 -33.4426,-41.9635 -4.9911,-4.976 -7.8741,-8.627 -4.9914,-7.7408 -4.4365,-11.3342 -13.3101,-6.9114 -7.4869,-11.8873 -6.1005,-4.6998 -26.6201,-4.4232 -10.8143,-6.0817 -6.1005,-1.3822 -5.8232,-3.3176 -7.2098,-1.6586 -7.764,-4.6998 -3.8821,-8.57 -3.882,-2.2114 -13.8649,-19.3515 -8.8732,-8.017 -8.3189,-4.1468 -14.114,1.0259 -23.0432,4.1184 -28.2839,11.9957 -4.9914,-5.5289 -11.3689,-21.0103 -7.2096,-5.529 -3.0503,-6.9111 -4.4367,-5.5292 0.5547,-9.9522 -2.4956,-2.4881 -7.4871,-2.7646 -2.4956,-3.8701 -5.2685,-3.0409 -4.4369,0.5528 -2.7727,-2.2116 17.1921,-10.7815 0.2772,-3.87027 -5.5456,-8.57024 -6.1005,-4.69952 -11.6465,-0.82922 -8.0414,-3.59403 -12.7554,-1.65867 -5.8234,-3.31712 -12.4781,-3.04106 -7.2096,2.76437 -1.9409,2.76459 h -2.2184 l -4.4367,-3.5936 -6.655,1.65845 -8.3189,0.27627 -9.428,0.82944 -4.7139,2.76458 -4.9913,-1.93514 -5.8232,-5.52896 -1.9411,-5.2527 3.0505,-3.87008 14.6965,-8.57002 1.3865,-8.84672 5.8229,-11.61067 -1.3865,-12.99307 1.3865,-5.52917 8.3187,-7.46411 3.0505,-7.46432 v -5.52874 l 1.3864,-3.59403 4.714,-1.93515 0.832,-2.48789 -1.9413,-7.18784 -6.6551,-1.65867 -1.9409,1.65867 -0.2772,-5.25227 -5.546,-8.57002 -1.1091,-8.01728 0.832,-20.73344 7.4867,-13.54624 6.3778,-17.96928 2.7731,-17.41632 -8.5964,-12.16363 -4.1592,-9.12299 -26.8975,-19.62794 -20.2425,-10.22848 1.9413,-11.3344 -6.3778,-18.79872 21.629,-9.39904 -2.2185,-14.92864 6.9323,-13.26955 21.3517,-35.3856 10.2596,-11.88715 3.882,-9.67573 6.3781,-6.91136 0.8318,-4.14677 -2.4958,-2.76438 -8.5961,-3.31754 -2.5465,-3.60619 5.1106,-5.52683 4.4842,-2.72021 2.0694,-4.03392 1.069,-3.43162 1.0643,-3.42895 6.4947,-3.72806 0.2765,-10.63226 6.0802,-6.76595 0.5528,-4.69472 12.8512,-1.38071 5.3894,1.24264 9.9494,-6.35174 6.2183,-5.7993 7.1857,-4.83279 16.1679,2.07123 6.9094,-2.2093 5.3892,-0.4142 3.04,-3.59017 5.3895,-2.48544 -0.9675,-5.38507 3.7312,-3.72823 3.5928,-10.07981 2.9019,-4.28051 8.7057,-0.5523 5.8038,-3.45207 1.1057,-3.72809 -1.6585,-3.72821 4.284,1.38086 3.8692,0.55228 2.7637,-2.2093 h 5.6655 l 6.0802,-2.07121 h 6.2185 l 8.5677,-2.62351 2.349,-5.66123 -1.2435,-2.07138 11.8839,-2.3472 7.8767,-2.76173 3.04,-3.03772 0.1387,-6.62788 2.0727,-0.82844 1.6583,-2.07121 7.8767,0.69035 9.1204,-0.13781 2.9017,-2.89965 5.6658,-1.38087 5.1129,-4.14229 h 7.0475 l 8.1529,-4.83279 3.593,-6.48981 8.153,-6.07559 3.7309,-6.35174 -1.2437,-7.4563 -2.349,-0.41421 -1.1055,-6.35174 4.2837,-8.14667 4.0075,-2.34735 6.694,-23.4993 -5.9143,-6.35894 -6.3562,1.06558 -7.8131,9.55806 -5.2122,-0.71494 -2.9286,5.03912 -2.4512,-3.64574 5.904,-11.37894 6.9049,-2.37587 11.6638,-6.34985 12.5865,-12.62223 8.1403,-8.16388 7.7387,-2.4045 3.5678,-5.52316 6.7206,-0.69911 7.8765,-1.65701 11.4697,0.96666 0.2762,-0.82844 12.9897,-3.17593 6.0802,-5.10895 10.3639,-2.20928 10.7785,-14.22225 1.6582,-5.38509 18.6554,-14.08433 8.5675,-5.38509 8.0147,-9.11332 3.0402,-9.25137 -0.691,-4.97088 1.52,-2.48542 4.9747,0.27614 4.284,-0.41423 5.8037,-2.48542 4.0075,0.96648 9.9494,0.41423 4.9747,-2.34737 1.2438,-2.07106 h 7.3237 l 15.7534,-5.93753 -0.4147,-1.10473 7.3239,-4.97086 -1.6582,8.14682 2.6255,0.41421 0.1386,7.87052 1.382,4.55665 6.4947,7.18031 h 7.324 l 6.3564,5.24702 4.1458,-2.34737 1.52,-5.93751 0.829,1.657 2.9019,-4.41858 v 5.79944 l -4.2837,5.93737 -3.0402,1.657 5.2512,0.13781 12.2987,-4.28051 3.7309,0.27614 4.1455,-7.4563 3.1785,-0.41423 -7.7385,-11.87488 -8.4294,-6.48981 -5.6657,-11.3226 -1.6582,-7.4563 -3.731,-6.48981 -3.8693,0.82843 -2.4872,1.38087 -3.1785,0.27614 -7.0474,3.03771 -3.4548,2.48544 -3.3164,7.59454 -0.829,-7.04209 3.5927,-3.4521 9.2587,-3.58999 6.4947,-3.03789 5.9518,-4.41858 4.9137,-0.6676 0.5604,10.7546 8.6993,18.11012 11.5059,11.70208 6.1737,5.57231 6.4548,1.11437 2.8062,1.11437 16.8378,1.11458 9.5415,2.78626 7.2962,13.0951 6.4544,4.45792 18.2411,25.63294 15.1541,30.36949 2.4017,11.7759 -0.842,8.35855 0.5613,6.96552 -0.8418,7.24418 -0.5613,1.39301 0.2807,7.24396 1.1224,8.35855 2.5256,9.19448 7.5772,6.68689 10.3834,4.1795 4.7707,4.45768 13.1896,5.57229 7.0157,4.1795 -0.8436,7.80126 -17.9526,14.13634 -4.7413,6.84307 1.1757,10.06413 0.7735,8.02526 -0.5596,7.66688 -1.6836,5.015 0.5613,15.04544 -5.0513,13.37376 0.021,11.49768 7.389,20.59678 -0.2777,17.18496 5.5509,19.67979 6.106,12.19594 1.9292,18.0751 -4.9958,13.02747 0.846,18.23567 2.2206,19.67979 3.9379,19.37141 2.2206,11.36418 v 19.12559 l -6.106,21.61997 -5.2732,6.92939 -6.3835,3.32638 -8.0489,4.15769 -7.216,7.48382 -1.11,5.54345 3.6079,8.8698 13.4586,12.11885 5.2732,4.15769 5.5509,17.46243 -0.8327,8.03827 0.7621,7.43178 -15.3803,22.26447 -0.576,42.26498 -5.5507,14.69078 -19.9217,7.76271 -7.4936,7.2065 -13.8995,2.10876 -6.436,11.38976 -6.5379,8.3405 -6.9207,7.77361 -6.925,1.39222 -5.5507,3.88057 -3.8857,12.47307 1.3877,7.20672 -1.9428,6.09786 -7.4935,6.92964 -1.6651,11.08708 -3.466,19.04741 -0.2752,11.9461 0.2775,5.5436 -3.6081,8.3154 -7.2262,11.3604 -4.7181,8.0385 -4.4407,5.5434 -6.1059,3.8806 -12.2118,5.5437 -12.7669,7.7611 -8.6038,12.7501 -4.7183,9.7014 1.6756,35.2236 -4.9959,13.8591 -3.8856,11.0873 -16.9302,23.5602 -3.0528,7.4838 -11.1016,12.7503 -6.096,23.8455 -8.0487,29.1039 z m 69.1682,-1022.57555 -5.248,-4.22792 -5.7248,-1.4092 1.9083,-2.34892 6.679,-5.16717 -4.7708,5.16717 3.3395,1.87914 z" />
  </g>
  <g
     id="layer15"
     style="display:inline"
     transform="translate(-1979.4757,-558.57444)" />
</svg>
