<?xml version="1.0" encoding="UTF-8" standalone="no"?>
<svg
   xmlns:dc="http://purl.org/dc/elements/1.1/"
   xmlns:cc="http://creativecommons.org/ns#"
   xmlns:rdf="http://www.w3.org/1999/02/22-rdf-syntax-ns#"
   xmlns:svg="http://www.w3.org/2000/svg"
   xmlns="http://www.w3.org/2000/svg"
   width="1654.4762"
   height="1354.1887"
   id="svg2"
   version="1.1">
  <defs
     id="defs4" />
  <metadata
     id="metadata7">
    <rdf:RDF>
      <cc:Work
         rdf:about="">
        <dc:format>image/svg+xml</dc:format>
        <dc:type
           rdf:resource="http://purl.org/dc/dcmitype/StillImage" />
        <dc:title></dc:title>
      </cc:Work>
    </rdf:RDF>
  </metadata>
  <g
     id="layer3"
     style="display:inline"
     transform="translate(-3469.6266,-44.309689)" />
  <path
     d="m 588.2845,1197.4172 -4.3537,-7.9819 -1.2093,-3.6282 -4.3539,-3.3862 -3.628,-7.4982 v -2.4187 l -9.9169,-12.8194 -0.4839,-6.5307 -1.4512,-0.7256 -2.4187,0.2419 -0.9675,1.6931 -6.0469,-1.4513 -1.2094,-1.935 -3.6282,2.4188 -9.1912,-0.9675 -1.6932,1.935 -5.0793,-5.3213 v -2.6606 l -1.4513,-0.4838 -1.4512,1.6932 h -7.4982 l -1.2093,1.2093 -2.177,-2.4187 h -6.2887 l -1.6932,-3.87 -1.2094,1.2094 -7.0144,-0.9675 -2.6605,-2.1769 -3.1514,-0.2388 -11.7511,-8.9225 -13.8583,-3.2884 -2.1139,3.5233 -11.5094,6.107 -15.2676,20.6699 -2.968,1.2157 5.4778,1.3614 2.916,0.1822 0.9113,1.2758 3.6451,-1.0935 1.0936,-0.9113 2.0048,-0.9113 1.2758,-1.0935 1.8225,0.729 -0.7291,3.4629 -0.9112,0.729 v 2.7338 l 3.0983,0.729 5.8323,5.2854 3.4628,1.0936 2.1871,4.9209 h 3.0982 l 2.7339,2.5515 0.1823,4.1919 -1.6403,1.6403 1.458,1.2758 0.1823,2.5515 4.3741,3.6451 5.1031,1.0936 1.458,1.458 v 1.2758 l 6.7435,2.1871 6.0144,1.2758 2.5516,-0.3646 0.5467,2.1871 4.9209,3.8273 4.0096,0.7291 0.9114,2.0048 v 2.7338 l 4.0096,1.2758 0.5467,3.0983 7.8369,7.837 0.7291,2.7338 6.9257,3.2806 2.3693,-0.5468 3.8368,1.1092 -0.4273,1.2506 1.6936,5.1127 2.7338,2.3693 4.0096,-0.729 4.5511,3.587 7.0534,-7.3697 1.7687,-10.5822 10.9722,-9.026 9.3932,-5.8568 -0.015,-8.5326 z"
     style="fill:#fefee9;fill-opacity:1;stroke:#646464;stroke-width:0.42666668;stroke-linecap:butt;stroke-linejoin:round;stroke-miterlimit:4;stroke-dasharray:none;stroke-opacity:1"
     id="El_Molino,_Código_DANE_:_44110" />
  <path
     d="m 608.7581,1172.6831 -0.3702,6.5244 -1.4669,4.1512 -9.4867,4.3477 -3.1011,5.6948 -6.2027,4.0628 0.154,-0.047 -4.3537,-7.9819 -1.2093,-3.6281 -4.3539,-3.3863 -3.628,-7.4981 v -2.4188 l -9.9169,-12.8194 -0.4839,-6.5306 -1.4512,-0.7257 -2.4187,0.2419 -0.9675,1.6931 -6.0469,-1.4512 -1.2094,-1.935 -3.6282,2.4187 -9.1912,-0.9675 -1.6932,1.9351 -5.0793,-5.3213 v -2.6607 l -1.4513,-0.4837 -1.4512,1.6931 h -7.4982 l -1.2093,1.2094 -2.177,-2.4188 h -6.2887 l -1.6932,-3.87 -1.2094,1.2094 -7.0144,-0.9675 -2.6605,-2.1769 -3.1513,-0.2387 -11.7512,-8.9226 -13.8583,-3.2884 -2.1139,3.5233 -11.5094,6.107 -15.2676,20.67 -4.6977,1.879 -3.2884,0.2349 -2.1322,3.0057 -3.505,1.4572 -7.7512,7.0465 -4.4629,0.9396 -5.1675,3.0535 -4.6977,6.107 -3.3382,-1.3121 -2.3936,-2.4219 -2.114,-0.7046 -3.2884,-7.5164 -7.5163,-1.1744 -2.1141,-3.993 -5.8721,-4.4629 -2.8185,-7.5163 -4.6978,-2.114 -11.2745,-1.4093 -2.8187,-6.3419 -8.4558,-4.9326 -1.1745,-4.2279 h -2.8185 l -6.5769,3.0535 -2.3488,-0.9395 -2.8186,1.1744 -12.8953,0.4932 -4.2279,-2.3489 -0.4698,-9.1605 -3.5233,-4.6977 -6.5058,-2.8661 -3.0777,3.3606 -6.7882,0.8933 -4.3033,-2.9461 -12.9611,0.6422 -4.6977,2.3488 0.4698,-6.5768 8.8092,-13.2245 8.2209,-7.2814 1.1745,-6.3419 -5.1675,-5.4024 -0.4697,-4.9326 1.4092,-6.5768 1.8791,-3.2884 -2.59,-5.2847 -0.2286,-5.9898 -4.5652,-0.037 -2.8815,-4.5909 2.3972,-2.2721 0.3518,-3.9052 -9.3499,-1.1504 -2.0029,-5.5939 -3.2102,-4.2953 -7.0465,2.114 -5.8721,7.9861 -3.0535,2.5837 -7.5079,-8.2508 -4.5234,0.2972 -2.5095,-3.5558 -11.6633,-0.6331 -5.7904,3.101 -3.4733,-1.7632 -4.2279,0.9395 -16.2071,-6.107 -10.5699,0.7047 -1.6441,2.8186 -8.2211,-3.7582 -6.1157,0.3281 9.8956,-8.9482 5.3149,-13.6193 3.6538,1.3287 8.3046,-0.3322 4.3183,-4.9826 2.6627,-3.4307 6.4033,-0.7338 3.8888,0.1783 6.6437,-3.32177 2.3252,1.99307 16.2767,1.6609 4.9827,-3.32179 1.9931,-2.32524 8.3044,-0.66435 9.301,-3.65397 3.9861,-4.31831 h 9.3011 l 4.9826,6.97574 4.9827,-3.65395 15.2802,-1.32873 5.647,-3.32177 3.3218,1.99307 h 3.6539 l 2.9897,-1.99307 1.993,1.66089 3.3219,3.65396 3.3217,-6.64356 8.9688,-4.6505 15.2802,-3.32178 5.9792,-4.6505 3.9862,-5.31484 9.6331,-3.3218 5.3149,-7.3079 h 2.6574 l 11.2941,6.97572 h 4.3183 l 7.3079,2.98961 -2.6575,-7.97226 5.3149,-5.97922 5.9792,-0.99653 4.9827,-5.97921 8.3045,-2.9896 5.3148,-4.31832 11.6263,1.32871 v 2.32525 l -3.334,2.70426 0.7282,5.97054 -2.0362,2.03629 -0.1851,1.66605 2.5916,0.18512 1.2959,3.14698 3.7022,0.37023 1.481,5.73861 2.4065,0.37024 0.1851,1.29582 -2.9618,4.44279 v 1.85117 l 4.813,3.88745 0.185,2.40651 -6.6641,5.92373 0.3703,3.14698 h -2.4066 l -4.9981,4.62792 0.3702,12.03256 -1.2959,1.481 0.3703,1.1106 4.2577,0.1852 10.9219,2.5916 -1.481,2.0363 -2.0362,9.4409 0.5553,3.147 2.0362,0.1851 0.5555,-3.3321 5.7385,-4.2577 2.5917,0.3703 4.4428,-2.0363 0.1851,1.4809 h 7.2196 l 1.2958,-1.2958 1.4809,3.7023 0.9256,-1.666 3.1469,-0.1851 7.5898,7.96 0.9257,4.4428 -5.3685,4.6279 -1.666,6.6642 2.7768,0.7405 0.185,2.0363 -1.666,1.1106 -0.1851,2.5917 3.3321,0.5553 0.9256,4.1651 -0.1851,8.2377 3.5172,1.481 1.1107,1.8511 4.813,0.5554 3.7023,-0.1851 5.9237,3.7023 0.3703,3.8874 3.147,0.7405 4.9982,6.1089 2.3479,3.3895 0.3629,2.4155 8.6367,9.301 5.647,0.3322 21.5916,6.6436 2.9895,-14.9481 4.6506,2.6575 1.3286,45.1762 3.654,3.3218 7.308,-0.6644 7.3079,-6.3114 9.301,2.6575 12.6227,12.6227 0.6644,6.3114 4.3184,4.3183 1.6608,10.6297 4.445,3.1626 z"
     style="fill:#fefee9;fill-opacity:1;stroke:#646464;stroke-width:0.42666668;stroke-linecap:butt;stroke-linejoin:round;stroke-miterlimit:4;stroke-dasharray:none;stroke-opacity:1"
     id="San_Juan_del_Cesar,_Código_DANE_:_44650" />
  <path
     d="m 767.284,916.86469 -14.8933,-16.07171 -7.2316,-9.10076 -2.5826,-0.25778 -12.4133,-5.97681 -0.6896,-2.75852 -12.8732,-1.14937 -14.2524,-6.43657 -2.0689,-5.74691 1.839,-6.89631 -4.5975,2.06889 -5.7469,8.50545 -5.9768,-1.14938 -1.6091,-2.06891 -3.6781,4.1378 -2.5286,-3.90792 -33.3322,32.41265 -0.4597,7.35607 h -3.4482 l -1.1494,2.29876 -0.6896,3.9079 -2.2987,-0.45974 -2.9885,4.13778 1.1494,0.22988 1.8391,6.20667 -4.5976,-0.22987 -2.5286,4.36766 -1.8391,-2.29877 -1.3793,-0.22987 -0.6896,2.29876 -3.9079,1.83901 -1.3792,2.75852 -1.8391,-2.06888 v -2.75853 l -4.8274,-1.60913 -5.517,2.29876 -1.6092,2.52865 -4.5975,-3.90791 -1.6091,-4.36766 h -6.8963 l -8.9652,-10.80421 -4.5976,-0.45977 -4.5975,-5.97679 -9.425,-1.37926 -6.8963,-3.90791 -9.4249,-1.60913 -1.1494,-8.04569 -2.0429,-6.53948 -7.1428,1.15454 -0.7404,1.29582 -6.2939,0.74046 -1.2959,4.4428 -1.8511,0.92558 -0.7405,2.77675 2.5916,1.48094 -0.7404,1.85115 -5.9237,1.48094 -7.0345,8.70048 v 2.40651 l -9.6261,9.81118 -1.159,1.69381 0.2807,0.48253 7.1521,9.75286 10.078,9.42776 17.8802,19.50569 5.2015,10.72814 h 3.9011 l 1.3004,2.27566 -0.3252,9.42777 2.9259,3.90113 h 6.8271 l 4.5513,3.90114 4.5513,6.82701 0.9753,12.6787 3.9011,2.9259 4.2262,3.9011 h 1.9506 l 2.2757,2.9259 13.6541,0.3251 5.2014,1.9505 4.8764,0.9753 2.6008,2.6008 h 4.8764 l 1.9506,4.8764 5.5267,3.576 4.8763,1.6255 5.8518,6.1768 6.827,1.9506 3.2508,4.8764 4.8765,6.5019 6.6707,5.5795 -0.3578,-2.4133 6.1767,-4.5514 0.5985,-8.4524 5.1166,-12.2687 5.7026,-6.8602 -0.1138,-7.9753 13.2667,-1.7444 8.5829,2.5221 3.2145,-9.1096 6.4079,-0.5646 2.139,-5.6115 11.4363,-4.5452 1.8319,-7.00753 5.3989,-3.3167 6.7636,-5.72538 1.1403,-9.98188 8.3508,-9.32508 -0.9752,-9.42775 1.9506,-3.57604 6.5018,-3.90114 3.9012,-5.85172 -4.4379,-2.30749 1.5058,-3.54421 10.0478,-6.66449 1.3367,-8.61498 3.9012,-2.92585 z"
     style="fill:#fefee9;fill-opacity:1;stroke:#646464;stroke-width:0.42666668;stroke-linecap:butt;stroke-linejoin:round;stroke-miterlimit:4;stroke-dasharray:none;stroke-opacity:1"
     id="Barrancas,_Código_DANE_:_44078" />
  <path
     d="m 1198.6413,509.27483 269.6477,-89.21433 -0.9984,-1.2731 -2.8352,0.1772 -2.4808,1.41763 -3.3669,-2.30364 -1.2404,-5.67047 -2.1264,-1.59482 1.9492,-4.78447 3.3669,-0.3544 4.2528,3.01244 h 3.7214 l 6.0247,-4.25287 5.8478,-0.3544 2.3036,1.77203 h 4.0755 l 1.9494,-5.67048 3.7212,-2.65803 3.1897,-0.88601 2.4807,2.30363 7.9686,-2.48153 -0.6524,-4.46352 0.4697,-5.63725 2.1139,-6.81167 5.6374,-3.99307 0.7046,-12.91868 5.8721,-4.69772 -0.9395,-1.64419 -5.1675,0.46976 -5.6372,6.10702 -3.5234,1.6442 H 1494.87 l -0.7046,-0.93954 -2.3488,-2.11397 2.5837,-1.87908 5.8722,-0.46977 0.4698,-1.6442 -3.0536,-3.05351 0.9395,-2.11397 6.1071,1.6442 2.8186,3.28839 2.114,-3.28839 h 2.1139 l 0.2349,-1.40931 -5.4023,-0.93955 0.2348,-2.58373 3.5233,-1.40932 5.8722,5.87214 4.6977,1.87908 2.3489,4.46283 4.2278,0.93953 6.1071,-2.81862 4.2279,-7.9861 17.1466,-17.38153 4.9326,-1.40931 5.4024,-7.28145 5.1675,-1.17443 2.8186,-3.75817 7.9457,-5.99664 8.6367,1.32871 4.6505,-5.31484 3.6539,0.33218 4.6506,-4.31832 h 3.3218 l 4.6504,-3.32179 5.6471,-1.32871 12.2905,-20.26287 4.3183,-5.31486 -2.3252,-4.65049 v -23.58465 l -2.2145,-6.84439 -15.7231,-23.38382 -7.6401,-11.62625 -2.3252,-6.31138 -4.3184,-5.31484 -5.3148,-10.29753 -15.9445,-21.59159 -4.6506,-14.28364 -9.301,-10.96189 -3.986,-10.29753 v -7.30792 l 2.6573,-1.99307 -0.6644,-3.98613 -7.9721,-4.31833 -6.9758,-7.64009 -4.9828,-0.99654 -14.2836,-14.94802 -17.6054,-6.64356 -4.9826,-3.32178 -2.9897,1.66089 -1.3287,4.31832 -6.3114,-1.32872 -10.9619,-7.97227 -17.9376,-8.30446 -11.6263,-1.66089 -6.6436,-4.31831 -5.3148,3.32178 -3.9861,0.33218 -5.647,-3.32179 -4.9827,3.65396 -10.2975,-5.31485 -1.6609,-8.30446 -3.9862,-3.65395 -6.3113,-0.99654 -6.9758,-6.97574 -10.9618,-1.99307 -16.609,-7.97228 -3.3218,1.32871 -2.6574,-2.32524 h -10.9619 l -4.9826,1.99307 -7.308,-4.65049 -4.3183,5.31485 -3.6539,-0.66436 -17.2733,-1.32871 -13.6193,-4.31832 -10.2975,-6.31139 h -5.3149 l -2.6574,-1.32871 -9.301,2.65743 -10.9619,6.64356 -14.2837,2.9896 -5.9792,5.64703 -4.6505,8.96881 -1.6608,1.99308 0.9965,1.99306 10.6297,-5.97921 h 7.6401 l 3.3217,-10.62969 6.3115,-0.66437 3.6539,-4.31831 h 2.3253 v 2.9896 l -7.9723,8.96881 -2.9896,1.32871 0.6643,2.98962 9.9654,-2.98962 6.6436,-7.97227 1.6609,1.32871 -2.3253,3.98615 1.6608,0.66435 6.3115,-6.64356 h 7.6401 v 2.65742 l -6.3114,5.64703 5.3148,-2.65743 1.9931,0.99654 -4.6505,3.32178 h -2.9896 l -0.6643,2.9896 -5.6471,2.32525 -3.9861,4.65049 1.9931,2.65743 3.9861,-2.9896 7.3079,-0.33218 -5.9792,-1.66089 h 3.3218 l 2.3252,-1.32871 1.6609,0.33217 12.2907,-3.98613 5.3147,2.32525 -3.3217,3.32178 -6.6436,2.65742 -3.654,2.65743 -10.9618,1.32871 -5.647,5.64703 -8.9689,-3.32178 h -3.654 l -4.1807,0.6442 0.9699,1.46441 5.8683,1.29031 -0.3321,2.58029 -4.3184,1.99307 1.6609,1.32871 10.2976,5.64703 -4.9827,4.31831 -2.9897,0.33218 -0.6643,0.99654 h -8.3044 l 1.3287,-1.99308 4.3183,-0.66435 -1.3287,-3.98613 -3.654,-2.98961 h -3.9862 l 1.661,2.65743 -1.9931,1.99306 -4.3183,-5.31485 -0.9966,-0.99653 -1.3287,0.33217 0.3322,3.65396 -3.9861,-4.98267 0.9965,-4.98267 6.3113,-4.6505 -0.3321,-2.65743 -1.6609,-0.99653 0.9966,-2.32525 2.3252,0.33218 2.3252,2.65743 -1.9931,-5.97921 -7.9722,-2.32524 -4.6505,5.31484 v 4.6505 l -2.1749,4.25188 -8.6907,2.58375 -4.4628,3.28839 -3.9931,2.11397 2.5837,1.6442 3.5233,-2.11397 6.3419,0.23488 1.1745,3.52329 1.4093,1.40931 0.4697,7.04656 -1.1744,1.40931 -1.1744,6.34191 -13.1536,10.10008 -7.5163,2.81862 -5.8722,-1.64419 -4.2279,1.17442 -4.9326,3.52329 -0.7046,7.9861 -3.2885,2.58374 -8.221,-1.17443 -9.3954,-10.33496 -1.6441,-4.93259 -1.1744,-1.17444 V 85.0004 l 1.6441,-2.58374 2.1139,-0.46977 15.9723,-9.86518 0.2349,-1.64421 -5.4024,-2.11396 -1.1745,-1.40931 h -1.879 l -3.0536,2.34885 -0.9395,4.9326 -7.7512,3.99304 -3.0535,4.22794 h -3.7582 l -3.5233,-4.46282 -3.0534,0.46977 -6.1071,5.63725 -4.2279,6.57679 -9.3955,11.03962 -17.1466,11.50938 -12.6838,12.91871 -8.4558,7.04656 -2.8187,0.93955 5.1675,0.46977 v 4.46282 h 1.8791 l 0.7046,-4.46282 2.5838,-3.99306 5.1675,-0.23488 4.2279,2.58373 3.2884,-1.87908 10.335,-1.40931 2.1139,-2.11396 2.3489,0.23488 3.2883,2.58374 1.4094,3.52327 4.9326,2.58375 -1.8791,2.11397 h -1.4093 l -2.8187,2.11396 v 2.34887 l 2.1141,2.11396 -0.9396,7.9861 6.8117,4.46283 4.2279,3.05351 2.8187,-3.75817 2.1139,0.93955 -1.6442,2.11396 -2.114,1.87909 3.7582,3.05351 0.7046,3.75818 h 1.1744 l 4.6977,-6.5768 h 1.4094 l -1.1744,6.34191 -1.6442,1.17442 -3.7582,3.99305 v 2.11398 l 3.7582,3.99304 -0.2349,1.17442 -1.6442,0.23489 -2.5838,2.11398 h -4.4628 l -1.4093,1.17442 -3.2884,-0.93953 h -4.9326 l -1.4093,-1.64421 -4.9326,0.2349 -3.7581,1.17442 -6.3419,6.10702 h -3.9931 l -1.6442,2.11396 h -1.4093 l 0.2349,2.34886 9.6303,9.39542 -2.5837,-1.40932 h -4.6977 l -3.7582,3.75817 -0.9395,2.34885 -1.1745,0.93955 -1.8791,-1.6442 -4.6977,0.70465 -4.4628,2.34887 -8.221,1.17442 -1.1744,1.6442 h -4.4629 l -2.3489,-2.58373 -3.993,-0.93956 -1.6442,2.34887 -2.8186,-2.58376 -0.7047,-4.22793 -1.4093,-0.46976 1.6442,-2.34887 1.6442,0.23489 1.4093,-1.87909 -0.4697,-6.57678 -0.9396,-0.93955 -0.7046,-2.58373 h -1.6443 l -1.1744,1.40931 -1.4092,-3.75818 -5.6374,-0.70465 0.235,-2.11397 3.0535,-1.87907 v -3.52329 l 0.7046,-1.6442 1.8791,2.81862 3.7582,-2.11396 -1.6442,-3.05351 -0.2349,-3.2884 4.4628,-3.52328 5.8721,-1.64421 3.9931,-3.75815 v -3.28841 l 3.7582,-10.33495 1.6441,-1.17443 v -2.34886 l -2.3488,-0.70465 -0.9395,-3.52328 -1.4094,0.23488 -0.9395,1.6442 -2.8186,-0.46977 -1.6442,-1.6442 -2.3488,0.23489 -7.7513,4.93259 -3.2884,1.40932 -8.4559,3.28839 -16.4419,0.70465 -1.6442,0.93955 -5.1676,0.23487 -11.5093,4.22794 h -8.221 l -3.5233,2.11397 -1.6442,5.63727 v 7.75121 l -1.6441,-6.81168 -0.2349,-5.40237 1.6442,-1.6442 -0.9396,-1.6442 h -6.3419 l -1.8791,1.6442 -2.5838,-1.6442 -12.2139,-2.58373 -12.6839,0.46977 -2.5838,2.81862 -5.4023,0.70465 -1.6442,3.05353 -3.993,1.87908 -2.1141,3.28839 h -1.4092 l -3.5234,3.75818 -1.4092,0.93953 0.4697,2.58374 1.8792,0.70467 4.2279,2.11397 1.6442,-1.87909 h 7.5164 l 3.2883,3.05351 1.1745,4.93259 0.9395,1.6442 -1.6443,0.70466 0.7048,8.69075 3.9929,8.221 -0.4697,6.81168 -1.4093,2.58374 0.7046,4.69771 1.8792,3.28839 -0.9396,11.2745 1.6442,5.63724 0.2349,7.28147 -7.0466,10.10007 -1.879,7.51633 -4.6978,14.32801 -5.8722,7.04657 -4.6976,5.63725 -3.0535,10.56984 -2.114,7.28146 -7.5163,7.04656 -3.7582,12.68381 -4.2279,6.10702 v 5.40237 l -6.8117,17.61641 -4.9327,7.28145 -7.2813,6.34191 v 3.99305 l 2.1139,1.6442 -4.6977,3.75816 -2.3488,0.23489 -2.3489,0.93954 4.2279,-4.22793 0.9395,-3.52329 -3.5232,0.93954 -2.114,2.81862 -3.7582,1.87909 -8.6907,7.28144 -2.114,1.17444 -7.2815,6.5768 -8.2209,5.63725 -7.5164,1.87908 -13.1536,8.92564 -4.4628,0.70465 -0.9395,2.34886 -3.9538,3.49461 -1.6137,4.39669 0.8088,4.44755 5.409,4.72793 1.324,8.8626 3.2715,3.06699 -0.2045,3.06699 0.2045,3.68039 2.8625,4.70272 -4.0893,5.92951 -2.658,0.6134 -4.4983,2.04466 0.8178,3.88486 2.2492,1.84019 -0.409,2.04466 -0.6134,0.6134 -0.4088,3.27146 -2.6582,3.06699 v 6.13398 l -2.8625,3.067 -2.658,-1.2268 v 3.06699 l -3.067,1.8402 -2.6581,9.40544 -2.2491,2.65805 2.658,2.86253 -0.4089,1.2268 0.2044,3.47592 3.067,1.8402 1.2269,3.27145 -1.8402,3.68039 -5.7251,1.43126 -1.6358,4.08933 1.2269,1.43126 -3.2714,2.24913 v 14.51709 l 4.4982,3.88485 v 3.27146 l 7.1563,4.08932 4.7027,0.40894 10.0189,4.29378 3.8848,5.31612 7.3608,7.36078 -0.2045,20.85554 5.3162,2.65806 4.7027,-1.43127 5.9295,1.43127 2.658,3.47592 10.0189,8.17865 9.7885,3.81738 6.0522,-0.539 8.0193,-2.00484 4.0096,4.00965 3.5084,-1.00241 h 16.0386 l 5.5132,-2.50602 3.0072,1.50362 h 10.5253 l 9.5229,-4.00964 3.5084,1.50361 h 9.5228 l 58.4841,-87.54069 12.531,-15.41791 8.096,-1.81255 9.1836,-0.60418 0.4834,2.41673 -2.6585,2.05421 0.6043,1.57088 2.175,0.48335 -0.1208,2.6584 -1.9335,1.81256 1.9335,2.6584 5.5585,1.20836 4.7126,2.65841 -0.3625,3.38343 -2.0542,0.72501 -0.3626,5.19598 1.2084,0.60418 3.4207,2.98426 z"
     style="fill:#fefee9;fill-opacity:1;stroke:#646464;stroke-width:0.42666668;stroke-linecap:butt;stroke-linejoin:round;stroke-miterlimit:4;stroke-dasharray:none;stroke-opacity:1"
     id="Uribia,_Código_DANE_:_44847" />
  <path
     d="m 511.9328,1078.7945 -4.9982,-6.1088 -3.147,-0.7405 -0.3703,-3.8874 -5.9237,-3.7024 -3.7023,0.1852 -4.813,-0.5554 -1.1107,-1.8512 -3.5172,-1.4809 -0.9256,-7.4046 2.2213,-1.6661 -2.0362,-3.3321 -3.3321,-0.5553 0.1851,-2.5917 1.666,-1.1107 -0.185,-2.0363 -2.7768,-0.7404 1.666,-6.6642 5.3685,-4.6279 -0.9257,-4.4428 -7.5898,-7.96 -3.1469,0.1851 -0.9256,1.666 -1.4809,-3.7023 -1.2958,1.2958 h -7.2196 l -0.1851,-1.4809 -4.4428,2.0363 -2.5917,-0.3703 -5.7385,4.2577 -0.5555,3.3321 -2.0362,-0.1851 -0.5553,-3.147 2.0362,-9.4409 1.481,-2.0363 -10.9219,-2.5917 -4.2577,-0.1851 -0.3703,-1.1107 1.2959,-1.4809 -0.3702,-12.03258 4.9981,-4.62792 h 2.4066 l -0.3703,-3.14698 6.6641,-5.92373 -0.185,-2.40651 -4.813,-3.88745 v -1.85117 l 2.9618,-4.44279 -0.1851,-1.29582 -2.4065,-0.37024 -1.481,-5.73861 -3.7022,-0.37023 -1.2959,-3.14698 -2.5916,-0.18512 0.1851,-1.66605 2.0362,-2.03629 -0.7404,-5.92372 3.3733,-2.76863 -0.011,-2.46286 4.5947,-3.09876 2.4065,-4.07256 4.0725,0.55535 2.5917,-2.03628 0.7404,-2.03629 4.2577,-1.48093 1.666,3.3321 9.6261,1.29582 5.3684,-2.2214 5.5534,-0.74047 2.2215,2.03628 6.8493,0.92559 2.9619,-3.3321 4.6278,-1.11071 3.32,0.75997 0.012,3.68284 0.9255,1.2958 -1.1107,1.85117 -3.3321,1.66605 -0.3702,7.58978 1.666,5.55351 2.5917,12.4028 -2.0363,8.33025 -2.7767,2.40651 0.1851,4.81303 5.7386,7.40466 1.1106,-4.62791 4.9982,3.70234 1.666,7.03443 -1.2957,3.51721 3.8874,-0.18512 1.8512,-1.85116 2.2214,3.88744 3.3321,0.92559 4.813,5.92375 h 4.0726 v 2.5916 l -5.7387,2.0363 3.7024,2.0363 -0.1852,2.0363 -1.666,0.5553 -0.1851,4.6279 -2.2214,1.6661 -0.1851,9.2558 1.8511,0.7405 v 7.96 l 4.628,2.7767 -0.9256,9.8112 -1.4809,0.3702 -4.628,4.628 -3.147,-1.6661 -4.0725,3.8875 0.9255,10.5516 5.1833,5.9237 -0.1851,1.6661 -2.7767,5.1832 -4.7561,1.2953 z"
     style="fill:#fefee9;fill-opacity:1;stroke:#646464;stroke-width:0.42666668;stroke-linecap:butt;stroke-linejoin:round;stroke-miterlimit:4;stroke-dasharray:none;stroke-opacity:1"
     id="Distracción,_Código_DANE_:_44098" />
  <path
     d="m 539.1448,887.19889 -0.7404,1.29582 -6.2939,0.74046 -1.2959,4.4428 -1.8511,0.92558 -0.7405,2.77675 2.5916,1.48094 -0.7404,1.85115 -5.9237,1.48094 -7.0345,8.70048 v 2.40651 l -9.6261,9.81118 -2.4065,3.51721 -2.9618,2.40652 -3.3322,-0.74047 -4.6278,1.11071 -2.962,3.3321 -6.8492,-0.92559 -2.2215,-2.03628 -5.5535,0.74047 -5.3683,2.2214 -9.6261,-1.29582 -1.6661,-3.3321 -4.2577,1.48093 -0.7403,2.03629 -2.5917,2.03628 -4.0725,-0.55535 -2.4066,4.07256 -4.4359,3.01536 -11.8045,-1.0901 -5.3149,4.31831 -8.3044,2.98962 -4.9826,5.9792 -5.9792,0.99653 -5.3149,5.97921 2.6574,7.97228 -7.3079,-2.98961 h -4.3183 l -11.294,-6.97574 h -2.6575 l -5.3149,7.30792 -9.6332,3.32179 -3.9861,5.31484 -5.9792,4.65049 -15.2802,3.32179 -8.9687,4.6505 -3.3219,6.64356 -3.3218,-3.65397 -1.993,-1.66089 -2.9896,1.99307 h -3.654 l -3.3218,-1.99307 -5.647,3.32179 -15.2801,1.32871 -4.9827,3.65396 -4.9828,-6.97575 h -9.3009 l -3.9861,4.31832 -9.301,3.65397 -8.3044,0.66435 -1.9931,2.32525 -4.9827,3.32175 -16.2767,-1.6609 -2.3254,-1.99303 -6.6435,3.32183 -3.9199,-0.1643 -6.4595,0.6945 0.3703,-4.44283 7.0344,-7.7749 3.7023,-0.74046 4.4428,-4.07256 -0.7405,-9.9963 7.4047,-9.62606 5.5535,-1.48094 4.0725,1.85117 5.9237,-2.96187 1.1108,-5.55349 -0.3703,-4.07257 0.7405,-7.03443 3.7024,-2.2214 0.7404,-4.44279 -4.4428,-5.18327 -4.0725,-1.48093 0.3702,-2.2214 2.2213,-2.96187 0.7405,-4.44279 4.813,-4.07257 2.5917,-0.37023 3.7023,-3.70233 0.7405,-4.4428 8.8856,-5.5535 5.9238,0.37024 13.3283,-6.66421 1.8512,-2.22139 h 6.6642 l 3.7023,-2.2214 1.1107,-4.44279 8.5154,-12.58793 3.3321,-5.5535 h 2.5917 l 2.2213,-5.18327 -1.1107,-4.44279 h 2.5917 l 0.7404,-2.2214 -2.2214,-5.5535 3.7024,-6.29397 14.0688,-3.70232 2.5917,1.1107 4.0725,-7.03444 -1.1107,-1.85116 3.3322,-2.96187 4.813,-7.77489 -1.1107,-9.25583 2.5915,-1.85117 -1.4808,-4.81302 v -6.29398 l 3.7023,-2.96185 1.8512,-3.33211 -1.1108,-5.92372 5.9238,-4.81304 0.3702,-2.59162 h -4.813 l -14.4391,-12.2177 -1.8511,-4.81303 -6.6642,-6.66419 h -1.8512 l -1.481,-5.92374 -5.315,-4.11585 -2.3873,-5.18631 v -3.50843 l -2.4365,-3.66798 2.9954,-4.13518 4.5514,-1.30037 5.5266,-6.82701 2.2756,-0.3251 0.6503,4.22624 2.9258,0.6502 2.9259,2.60077 2.2756,-0.6502 1.9506,-2.92584 -2.2757,-1.95059 -1.6254,-3.90114 h -1.6255 l -0.9753,-3.57604 -3.9011,2.60077 -0.9753,-3.57607 1.3004,-2.27565 0.9752,-5.20152 10.078,-5.85172 12.6787,-10.07794 0.9753,0.97528 -4.2263,4.55134 0.3252,2.27566 -5.8518,6.1768 -0.6501,7.80229 1.9505,-0.65019 1.9506,1.30038 2.6008,-1.95056 3.9011,-1.30038 1.3003,-3.25096 2.2758,-0.3251 2.6007,3.25096 2.2757,-2.60076 3.5761,-0.9753 0.325,5.85172 2.9258,-1.62548 h 2.9259 l 0.6502,-2.92586 -6.8269,-6.82698 -4.5514,-0.9753 -1.3004,-2.27566 2.6008,-0.65018 0.9752,-2.60078 3.9011,-1.30037 1.3005,-4.87643 -6.5019,-0.97527 -3.9012,0.97527 -2.9258,-1.30037 6.1768,-5.85173 6.1768,-0.97527 4.2262,-1.30038 1.9506,0.65019 1.3004,10.07794 4.2262,-1.95056 h 1.9505 l 0.9754,7.47718 h 2.9259 l 1.9505,2.92585 v 2.60077 l 3.9011,1.62547 1.6751,-1.32052 2.5286,-0.68962 0.6897,-5.51705 -2.0689,-0.91952 -0.6896,-3.67801 -4.5975,-4.59754 0.6896,-1.83903 3.9079,-2.75851 0.4598,-5.05729 2.7585,-0.45977 3.2182,-4.13777 -0.2299,-3.90792 -2.9883,3.21828 -5.2872,1.83903 h -1.839 l -8.2756,3.67802 -3.9079,2.75852 -0.9196,-0.68963 1.8391,-1.60913 2.0689,-2.0689 9.6548,-4.82742 13.3329,-11.95359 8.0457,-11.49385 8.5054,-7.58593 9.1951,-9.65485 18.62,-10.11458 8.7354,-5.05729 8.0456,-1.14937 0.6896,4.82741 1.6092,-2.06889 -0.9195,-1.14939 3.9079,-5.28717 7.1262,-3.44816 12.1834,-8.50543 9.6548,-4.59755 8.7354,-2.29877 3.6781,-3.21828 3.4481,-0.45975 3.5631,-1.60914 4.0228,3.67804 v 4.13778 l -2.2988,4.59755 3.6781,5.97679 h 5.517 l 1.8391,2.75852 0.4597,3.67803 7.8158,5.51706 13.3329,-1.37928 2.7585,1.83902 5.517,2.29876 4.1378,-2.7585 6.4366,4.59753 8.7354,-1.83903 2.2986,2.29879 -0.4597,5.05729 4.1378,6.8963 3.6781,-2.29877 6.4365,-0.91951 1.3793,3.21828 4.5975,3.67803 4.5976,-1.37926 6.8963,0.45975 2.7585,-2.75852 2.2988,1.83902 h 6.4365 l 4.1378,2.75851 0.9194,4.59754 5.0573,2.29878 1.8391,4.13778 0.9195,6.43655 7.8158,3.67804 3.678,3.67803 6.8963,2.29877 h 4.5976 l 6.883,4.95159 7.5385,4.44564 0.9753,5.85171 2.6007,1.95056 0.9754,5.85173 0.325,6.82699 4.5513,7.80228 1.6255,5.85172 4.2263,6.1768 0.9752,10.07795 -0.3251,11.54087 -2.9257,2.11312 6.5018,9.10265 -5.2015,9.75285 5.2015,5.20153 -0.3251,4.55134 4.5514,11.70341 -0.3252,11.37833 -9.1026,5.20152 v 3.25095 l -17.2301,-0.3251 -3.9011,23.40686 -2.9258,2.60075 -0.3252,1.95056 -1.9505,1.30039 4.8764,4.55134 -5.8517,2.60075 -2.5839,6.45927 -5.7302,-2.34142 -11.9536,0.22987 -2.5286,-0.68963 -12.8731,7.12619 -9.8847,0.45976 -9.195,1.60913 -14.0226,6.20668 h -5.7468 l -8.0458,6.20668 -5.2871,12.87311 -7.1262,4.59754 -8.7353,-0.45976 -7.3561,1.60913 -6.018,3.36116 z"
     style="fill:#c12838;fill-opacity:1;stroke:#646464;stroke-width:0.42666668;stroke-linecap:butt;stroke-linejoin:round;stroke-miterlimit:4;stroke-dasharray:none;stroke-opacity:1"
     id="Riohacha,_Código_DANE_:_44001" />
  <path
     d="m 88.6391,782.56542 0.6761,4.03784 3.0535,3.99305 -2.114,9.8652 -4.2279,0.93953 1.2213,2.1996 -1.4561,1.55858 -3.0979,1.13667 2.8473,2.86912 -4.6821,0.22215 v 2.11397 l 1.8791,4.22794 -1.4093,9.86518 -2.8186,0.93955 -0.9396,2.11396 2.5837,3.99305 -3.7582,2.81863 -3.5232,-0.93955 -7.0466,3.99307 -1.879,4.69769 -3.7582,-0.23486 -1.879,9.86518 -6.8118,3.0535 -3.6655,3.14127 -3.9208,-2.15672 -2.461,1.5973 0.5522,2.94367 -4.3198,0.0772 -0.3482,2.94985 2.1822,2.10761 -2.5804,2.0408 1.9459,1.83717 4.3613,0.77557 -0.2579,4.90611 3.9891,2.6254 -1.0693,5.05797 -4.7821,3.03555 v 5.73427 l -3.4406,2.29372 3.4406,1.72027 2.2937,2.86714 -4.5874,2.29372 5.1608,2.86713 -4.8084,5.28449 2.8239,2.05655 -1.2808,2.8934 6.485,1.35775 -1.7204,5.73428 -8.6014,7.45456 0.056,3.84097 2.8113,2.46674 -0.3487,3.22531 -4.8121,1.36211 0.5734,8.60141 -4.5874,9.17486 6.3077,4.01399 9.1749,10.89513 -1.7204,6.88113 4.014,4.01399 -2.8671,13.18885 3.4405,4.58741 v 9.7483 l 6.6275,10.4439 6.6972,3.9065 -1.4182,4.252 2.2849,3.7613 0.4975,7.0805 5.7298,12.5983 5.8721,-4.4628 10.8048,1.1744 9.1606,-3.7582 8.4628,1.8975 8.3257,-2.3349 13.9395,-0.379 7.0885,-6.465 9.6582,-2.2257 7.7233,-4.586 7.0465,3.5233 h 3.7582 l 1.6442,-2.3489 7.7123,-0.4129 9.9258,-8.9118 5.3148,-13.6193 3.654,1.3287 8.3044,-0.3322 4.3183,-4.9827 2.5756,-3.4558 0.3703,-4.44285 7.0344,-7.7749 3.7023,-0.74046 4.4428,-4.07256 -0.7405,-9.9963 7.4047,-9.62606 5.5535,-1.48094 4.0725,1.85117 5.9237,-2.96187 1.1108,-5.55349 -0.3703,-4.07257 0.7405,-7.03443 3.7024,-2.2214 0.7404,-4.44279 -4.4428,-5.18327 -4.0725,-1.48093 0.3702,-2.2214 2.2213,-2.96187 0.7405,-4.44279 4.813,-4.07257 2.5917,-0.37023 3.7023,-3.70233 0.7405,-4.4428 8.8856,-5.5535 5.9238,0.37024 13.3283,-6.66421 1.8512,-2.22139 h 6.6642 l 3.7023,-2.2214 1.1107,-4.44279 8.5154,-12.58793 3.3321,-5.5535 h 2.5917 l 2.2213,-5.18327 -1.1107,-4.44279 h 2.5917 l 0.7404,-2.2214 -2.2214,-5.5535 3.7024,-6.29397 14.0688,-3.70232 2.5917,1.1107 4.0725,-7.03444 -1.1107,-1.85116 3.3322,-2.96187 4.813,-7.77489 -1.1107,-9.25583 2.5915,-1.85117 -1.4808,-4.81302 v -6.29398 l 3.7023,-2.96185 1.8512,-3.33211 -1.1108,-5.92372 5.9238,-4.81304 0.3702,-2.59162 h -4.813 l -14.4391,-12.2177 -1.8511,-4.81303 -6.6642,-6.66419 h -1.8512 l -1.481,-5.92374 -5.3151,-4.11585 -2.3872,-5.18631 v -3.50843 l -2.3807,-3.75903 -6.8915,1.75421 -7.5181,5.51325 -10.0241,10.27468 h -4.7614 l -6.7663,9.02168 -7.5181,0.7518 -12.2794,5.01204 -15.788,3.25782 -13.0312,4.00964 -4.2603,2.75661 -3.759,-1.7542 h -6.2651 l -7.5181,3.50841 -2.7566,-2.0048 h -17.0414 l -9.0217,3.50842 -26.3132,-2.00481 -2.506,-2.00482 h -4.7615 l -9.2722,4.26023 -6.5157,2.00482 -6.265,2.00481 -18.7952,-1.75421 -10.5252,-3.50842 -5.3198,-0.91281"
     style="fill:#fefee9;fill-opacity:1;stroke:#646464;stroke-width:0.42666668;stroke-linecap:butt;stroke-linejoin:round;stroke-miterlimit:4;stroke-dasharray:none;stroke-opacity:1"
     id="Dibulla,_Código_DANE_:_44090" />
  <path
     d="m 648.353,1058.9019 -4.8765,-6.5019 -3.2508,-4.8764 -6.827,-1.9506 -5.8518,-6.1768 -4.8763,-1.6255 -5.5267,-3.576 -1.9506,-4.8764 h -4.8764 l -2.6008,-2.6008 -4.8764,-0.9753 -5.2014,-1.9506 -13.6541,-0.3251 -2.2757,-2.9258 h -1.9506 l -4.2262,-3.9011 -3.9011,-2.9259 -0.9753,-12.6787 -4.5513,-6.82701 -4.5513,-3.90114 h -6.8271 l -2.9259,-3.90113 0.3252,-9.42777 -1.3004,-2.27566 h -3.9011 l -5.2015,-10.72814 -17.8802,-19.50569 -10.078,-9.42776 -7.1521,-9.75286 -0.312,-0.35404 -1.1563,1.72425 -3.0217,2.5623 v 3.51722 l 0.9255,1.2958 -1.1107,1.85117 -3.3321,1.66605 -0.3702,7.58978 1.666,5.55351 2.5917,12.4028 -2.0363,8.33025 -2.7767,2.40651 0.1851,4.81303 5.7386,7.40466 1.1106,-4.62791 4.9982,3.70234 1.666,7.03443 -1.2957,3.51721 3.8874,-0.18512 1.8512,-1.85116 2.2214,3.88744 3.3321,0.92559 4.813,5.92375 h 4.0726 v 2.5916 l -5.7387,2.0363 3.7024,2.0363 -0.1852,2.0362 -1.666,0.5554 -0.1851,4.6279 -2.2214,1.6661 -0.1851,9.2558 1.8511,0.7405 v 7.96 l 4.628,2.7767 -0.9256,9.8112 -1.4809,0.3702 -4.628,4.6279 -3.147,-1.666 -4.0725,3.8874 0.9255,10.5517 5.1833,5.9237 -0.1851,1.6661 -2.7767,5.1832 -4.8521,1.3183 0.3432,2.2654 8.6366,9.301 5.647,0.3322 21.5916,6.6435 2.9896,-14.948 4.6505,2.6575 1.3287,45.1762 3.654,3.3218 7.3079,-0.6644 7.3079,-6.3114 9.301,2.6575 12.6228,12.6227 0.6643,6.3114 4.3183,4.3183 1.6609,10.6297 4.4915,3.1731 3.1191,-4.0798 -0.3231,-7.008 4.006,-5.0401 0.9965,-9.6331 10.5515,-7.1311 -2.5802,-10.2787 4.4369,-9.1645 -3.3418,-3.2838 3.2241,-4.3563 2.5785,-6.8393 7.435,-2.2539 5.2273,2.3725 4.1271,-5.187 -0.8439,-7.944 2.4443,-2.6577 -3.168,-8.9299 5.12,-5.4325 1.1756,-8.5223 z"
     style="display:inline;fill:#fefee9;fill-opacity:1;stroke:#646464;stroke-width:0.42666668;stroke-linecap:butt;stroke-linejoin:round;stroke-miterlimit:4;stroke-dasharray:none;stroke-opacity:1"
     id="Fonseca,_Código_DANE_:_44279" />
  <path
     d="m 523.7194,1295.9112 -19.0625,-0.3112 -0.119,6.1022 -12.9631,9e-4 -0.076,5.7954 -16.5561,-0.183 -0.035,6.185 -11.768,0.226 -0.2703,5.597 -28.3052,0.086 0.033,-63.9744 h -28.891 l -0.7046,-8.4558 -8.221,-4.4629 -18.7909,29.3607 -7.0465,-3.0535 -7.0466,1.6442 -6.8116,6.8117 -4.6977,-0.4698 -6.342,-0.2349 -3.5232,1.8791 2.1139,4.9326 -0.9395,2.114 -4.9326,2.3488 -0.7046,4.6977 7.2814,-1.4093 5.4023,4.9326 1.6443,3.0535 8.2209,5.6373 0.9396,12.6838 -2.114,9.8652 2.114,6.8117 3.5232,-0.7047 21.1397,-13.6233 4.6978,-1.1745 4.4628,-2.5837 9.3846,0.3856 5.9443,5.4718 7.271,0.4208 5.2917,5.9468 4.9918,-1.1853 3.5233,-2.8186 9.6303,-0.7047 0.5972,4.6713 7.3889,0.4962 3.9931,3.1192 10.358,-1.136 5.7371,-7.4625 h 3.2885 l 1.6442,1.4094 10.5775,-9.0648 3.4817,4.3095 7.9934,-7.8908 11.2512,-3.9574 5.4916,0.906 2.0965,-1.6264 2.5408,-6.0286 4.1522,-1.9931 z"
     style="display:inline;fill:#fefee9;fill-opacity:1;stroke:#646464;stroke-width:0.42666668;stroke-linecap:butt;stroke-linejoin:round;stroke-miterlimit:4;stroke-dasharray:none;stroke-opacity:1"
     id="La_Jagua_del_Pilar,_Código_DANE_:_44420" />
  <path
     d="m 538.0033,1288.3911 6.1641,-13.3069 5.555,-5.0115 1.8901,-6.9843 -6.4087,-0.7734 -11.7923,-4.8166 -5.1488,0.3322 -5.481,4.1522 -7.1418,-0.9966 -4.9827,-2.8235 -15.7784,-2.4913 -10.2976,-0.3322 -14.7819,-7.8062 -3.82,-6.6435 -1.9931,-3.1557 -11.4602,-3.1557 -3.1557,-2.6574 -4.1522,-8.6367 -0.4982,-4.6505 -7.6402,6.9758 -7.474,0.4982 -3.654,-1.1626 -14.9479,0.6644 -7.8062,4.4844 -4.9827,5.4809 -7.1419,0.3322 -0.5384,-2.9645 -6.3346,3.0074 -1.1341,6.4093 -6.6443,1.2421 -1.0734,3.0843 -3.8477,1.1397 -1.9337,4.9915 -4.9879,-5.2922 -2.1591,3.4879 1.2484,5.4896 -3.6538,1.4947 -0.6644,2.6575 -1.6609,1.4948 3.4879,4.3183 -2.6574,2.6574 h -5.3148 l -2.4913,3.654 h -4.4845 l -0.8304,0.4982 0.8216,3.3097 6.1671,0.2227 4.6977,0.4698 6.8116,-6.8117 7.0466,-1.6442 7.0465,3.0535 18.7908,-29.3607 8.2211,4.4628 0.7046,8.4559 h 28.891 l -0.033,63.9744 28.3052,-0.086 0.2703,-5.597 11.768,-0.226 0.035,-6.185 16.5561,0.183 0.076,-5.7954 12.9632,-9e-4 0.119,-6.1022 19.0252,0.3978 z"
     style="display:inline;fill:#fefee9;fill-opacity:1;stroke:#646464;stroke-width:0.42666668;stroke-linecap:butt;stroke-linejoin:round;stroke-miterlimit:4;stroke-dasharray:none;stroke-opacity:1"
     id="Urumita,_Código_DANE_:_44855" />
  <path
     id="Hatonuevo,_Código_DANE_:_44378"
     style="display:inline;fill:#fefee9;fill-opacity:1;stroke:#646464;stroke-width:0.42666668;stroke-linecap:butt;stroke-linejoin:round;stroke-miterlimit:4;stroke-dasharray:none;stroke-opacity:1"
     d="m 765.4573,894.56041 4.8152,2.23907 3.0182,3.84155 -0.5409,5.63271 3.9309,2.75569 -5.9842,3.54541 -3.334,4.31883 -15.3187,-16.51445 -6.9815,-8.74592 -2.4858,-0.19886 -12.4133,-5.97681 -0.6896,-2.75852 -12.8732,-1.14937 -14.2524,-6.43657 -2.0689,-5.74691 1.839,-6.89631 -4.5975,2.06889 -5.7469,8.50545 -5.9768,-1.14938 -1.6091,-2.06891 -3.6781,4.1378 -2.5286,-3.90792 -33.3322,32.41265 -0.4597,7.35607 h -3.4482 l -1.1494,2.29876 -0.6896,3.9079 -2.2987,-0.45974 -2.9885,4.13778 1.1494,0.22988 1.8391,6.20667 -4.5976,-0.22987 -2.5286,4.36766 -1.8391,-2.29877 -1.3793,-0.22987 -0.6896,2.29876 -3.9079,1.83901 -1.3792,2.75852 -1.8391,-2.06888 v -2.75853 l -4.8274,-1.60913 -5.517,2.29876 -1.6092,2.52865 -4.5975,-3.90791 -1.6091,-4.36766 h -6.8963 l -8.9652,-10.80421 -4.5976,-0.45977 -4.5975,-5.97679 -9.425,-1.37926 -6.8963,-3.90791 -9.4249,-1.60913 -1.1494,-8.04569 -2.0005,-6.59543 5.9084,-3.28929 7.3561,-1.60913 8.7353,0.45976 7.1262,-4.59754 5.2871,-12.87311 8.0458,-6.20668 h 5.7468 l 14.0226,-6.20668 9.195,-1.60913 9.8847,-0.45976 12.8731,-7.12619 2.5286,0.68963 11.9536,-0.22987 5.5463,2.0413 1.8098,4.85501 4.5975,3.44816 4.8275,2.06888 0.2299,5.9768 4.8274,4.59754 3.2183,-0.68963 1.3792,1.14938 h 8.0457 l 1.8391,-3.9079 4.8274,-1.37926 5.7469,-3.21828 6.6664,-4.13778 2.2988,0.68962 -5.2872,4.59755 -1.1494,11.03408 5.9769,5.28717 10.3444,1.83903 8.5054,-0.91952 5.2872,1.83902 4.8275,5.74692 7.1261,0.45975 6.2067,-0.68963 5.9768,1.60913 5.0573,4.82742 5.2871,1.37927 z" />
  <path
     id="Albania,_Código_DANE_:_44035"
     style="display:inline;fill:#fefee9;fill-opacity:1;stroke:#646464;stroke-width:0.42666668;stroke-linecap:butt;stroke-linejoin:round;stroke-miterlimit:4;stroke-dasharray:none;stroke-opacity:1"
     d="m 768.8975,891.66432 5.8617,-8.96521 22.7659,-17.91668 -17.5086,-0.61246 -5.2015,-7.47717 -2.9259,-0.3251 -9.1026,5.8517 -3.251,-5.8517 -9.4277,-3.90114 -4.8765,-9.10266 19.5057,-0.3251 5.5266,1.95056 5.2016,-0.32508 10.403,2.60075 2.9259,2.27567 14.9543,-0.3251 0.9753,-6.82699 3.5761,-1.30039 4.8764,1.95058 h 7.4772 l 3.9011,-2.60076 v -2.60076 l -3.2509,-5.20152 -0.6502,-14.95437 -2.2756,-7.1521 -1.9506,-14.95438 -7.4773,-4.22622 -2.9257,-22.75666 -5.8518,-6.827 -1.3003,-6.5019 -6.502,-0.32509 -20.1558,-11.70342 -0.6503,-8.77758 -2.9257,-7.15208 -8.1275,-4.22623 -2.2756,-11.05324 -5.2015,-4.22624 -0.3252,-7.47718 -4.2262,-4.87642 0.3251,-2.60076 2.2757,-2.60076 -0.9753,-6.50191 -11.0532,6.82699 -16.5799,2.92586 -2.6007,8.12738 -8.7776,4.22624 -0.3251,2.27566 10.7281,0.6502 -2.9258,3.57604 -0.3251,8.12737 -2.2757,6.1768 -18.8555,15.92967 -4.8765,-2.27566 -2.9257,2.27566 6.5018,9.10265 -5.2015,9.75285 5.2015,5.20153 -0.3251,4.55134 4.5514,11.70341 -0.3252,11.37833 -9.1026,5.20152 v 3.25095 l -17.2301,-0.3251 -3.9011,23.40686 -2.9258,2.60075 -0.3252,1.95056 -1.9505,1.30039 4.8764,4.55134 -5.8517,2.60075 -2.6989,6.75038 1.7409,4.26378 4.5975,3.44816 4.8275,2.06888 0.2299,5.9768 4.8274,4.59754 3.2183,-0.68963 1.3792,1.14938 h 8.0457 l 1.8391,-3.9079 4.8274,-1.37926 5.7469,-3.21828 6.6664,-4.13778 2.2988,0.68962 -5.2872,4.59755 -1.1494,11.03408 5.9769,5.28717 10.3444,1.83903 8.5054,-0.91952 5.2872,1.83902 4.8275,5.74692 7.1261,0.45975 6.2067,-0.68963 5.9768,1.60913 5.0573,4.82742 z" />
  <path
     d="m 854.1723,420.55691 0.8088,4.44755 5.409,4.72793 1.324,8.8626 3.2715,3.06699 -0.2045,3.06699 0.2045,3.68039 2.8625,4.70272 -4.0893,5.92951 -2.658,0.6134 -4.4983,2.04466 0.8178,3.88486 2.2492,1.84019 -0.409,2.04466 -0.6134,0.6134 -0.4088,3.27146 -2.6582,3.06699 v 6.13398 l -2.8625,3.067 -2.658,-1.2268 v 3.06699 l -3.067,1.8402 -2.6581,9.40544 -2.2491,2.65805 2.658,2.86253 -0.4089,1.2268 0.2044,3.47592 3.067,1.8402 1.2269,3.27145 -1.8402,3.68039 -5.7251,1.43126 -1.6358,4.08933 1.2269,1.43126 -3.2714,2.24913 v 14.51709 l 4.4982,3.88485 v 3.27146 l 7.1563,4.08932 4.7027,0.40894 10.0189,4.29378 3.8848,5.31612 7.3608,7.36078 -0.2045,20.85554 5.3162,2.65806 4.7027,-1.43127 5.9295,1.43127 2.658,3.47592 10.0189,8.17865 9.7594,3.87363 -3.0864,3.93028 -9.801,-2.28404 -8.2756,1.83903 -3.678,4.13778 -10.1146,-5.97681 -13.3328,-1.83901 -11.0342,4.59754 -7.356,-1.83901 -8.2756,13.33286 h -7.8158 l -11.0341,7.81581 -17.9304,5.97681 -7.8158,2.75851 -7.8158,5.51704 -10.1146,1.37928 -12.4134,6.8963 -5.517,-0.91951 -4.1378,2.29876 -10.5743,4.59755 -28.5048,-6.43656 -5.0572,-2.29877 -11.0342,5.51705 -8.7352,13.79262 -7.8159,-1.83903 -13.6078,4.09273 -6.6213,-5.01222 h -4.5976 l -6.8963,-2.29877 -3.678,-3.67803 -7.8159,-3.67804 -0.9194,-6.43655 -1.8391,-4.13778 -5.0573,-2.29878 -0.9194,-4.59754 -4.1378,-2.75851 h -6.4366 l -2.2988,-1.83902 -2.7585,2.75852 -6.8963,-0.45975 -4.5976,1.37926 -4.5975,-3.67803 -1.3792,-3.21828 -6.4366,0.91951 -3.678,2.29877 -4.1378,-6.8963 0.4597,-5.05729 -2.2987,-2.29879 -8.7353,1.83903 -6.4366,-4.59753 -4.1378,2.7585 -5.517,-2.29876 -2.7585,-1.83902 -13.3329,1.37928 -7.8158,-5.51706 -0.4597,-3.67803 -1.8391,-2.75852 h -5.5171 l -3.678,-5.97679 2.2988,-4.59755 v -4.13778 l -4.1505,-3.63507 4.2554,-3.15815 4.6977,-6.34191 0.7047,0.46977 3.2883,5.87214 2.3489,-1.87908 5.6373,-1.40931 7.2815,-7.04656 2.3488,-0.93955 0.2348,-1.40932 -4.9326,-0.70465 0.2349,-3.75817 -1.879,-1.17442 -6.1071,3.05351 -8.6908,8.22098 -1.1744,-0.46976 2.8187,-4.69772 14.7977,-15.73733 2.8187,-2.11396 3.0535,-9.63031 6.5768,-6.10701 9.8652,-4.46283 10.5698,-7.75121 0.9395,1.6442 2.3489,0.93953 -0.9395,-2.81862 4.2279,-4.9326 6.3419,-6.34191 4.228,-4.46283 7.0465,-1.64419 9.1606,-6.57679 8.4558,-2.34886 5.6373,-3.0535 18.7909,-1.87909 18.321,-9.16054 8.9257,-1.64418 7.7511,1.64418 3.0536,-1.87907 7.2815,-3.75818 9.6303,-10.56984 12.2139,-1.17442 5.8722,1.87908 1.6442,1.40931 1.1744,-1.87908 11.9792,-4.22794 5.1675,-3.99306 0.2348,-3.0535 8.4559,-7.75122 11.7443,-2.34886 5.1675,3.05352 3.2883,-2.58375 16.2072,-0.23488 13.6234,-2.58375 7.986,-4.22794 14.3281,-3.0535 5.6372,-4.22793 12.214,-11.27452 6.8117,-3.52328 7.9862,-4.93259 5.2656,-1.28239 z"
     style="fill:#fefee9;fill-opacity:1;stroke:#646464;stroke-width:0.42666668;stroke-linecap:butt;stroke-linejoin:round;stroke-miterlimit:4;stroke-dasharray:none;stroke-opacity:1"
     id="Manaure,_Código_DANE_:_44560" />
  <path
     d="m 553.2119,1242.3666 -1.5307,12.6404 -0.027,8.0584 -6.4504,-0.7504 -11.7923,-4.8166 -5.1488,0.3322 -5.481,4.1522 -7.1418,-0.9966 -4.9826,-2.8235 -15.7785,-2.4913 -10.2976,-0.3322 -14.7819,-7.8062 -5.7771,-9.8114 -11.5104,-3.211 -3.1867,-2.7154 -4.0722,-8.564 -0.4901,-4.5991 -7.683,6.9772 -7.4741,0.4982 -3.6539,-1.1626 -14.948,0.6644 -7.8062,4.4844 -4.9827,5.4809 -7.1418,0.3322 -0.4697,-2.9399 -5.2654,-5.4221 1.0841,-6.4198 9.7992,-6.4775 -1.3287,-5.1487 1.827,-0.9966 2.1591,-4.3183 -2.4913,-7.3079 4e-4,-10.1315 7.0511,-5.8908 3.2071,1.2966 4.6977,-6.107 5.1674,-3.0535 4.463,-0.9396 7.7511,-7.0465 3.5353,-1.4045 2.1433,-3.0595 3.2426,-0.2711 1.6703,-0.6281 5.5416,1.3635 2.9161,0.1822 0.9112,1.2758 3.6452,-1.0935 1.0935,-0.9113 2.0048,-0.9113 1.2758,-1.0935 1.8226,0.729 -0.7291,3.4629 -0.9113,0.729 v 2.7338 l 3.0984,0.729 5.8322,5.2854 3.4628,1.0936 2.1871,4.9209 h 3.0983 l 2.7338,2.5515 0.1823,4.1919 -1.6403,1.6403 1.458,1.2758 0.1823,2.5515 4.3741,3.6451 5.1031,1.0936 1.4581,1.458 v 1.2758 l 6.7434,2.1871 6.0144,1.2758 2.5516,-0.3646 0.5468,2.1871 4.9208,3.8273 4.0096,0.7291 0.9114,2.0048 v 2.7338 l 4.0096,1.2758 0.5468,3.0983 7.8369,7.837 0.729,2.7338 6.9257,3.2806 2.3694,-0.5468 3.8273,1.0936 -0.3645,1.2758 1.6402,5.1031 2.7339,2.3693 4.0096,-0.729 4.5564,2.9161"
     style="fill:#fefee9;fill-opacity:1;stroke:#646464;stroke-width:0.42666668;stroke-linecap:butt;stroke-linejoin:round;stroke-miterlimit:4;stroke-dasharray:none;stroke-opacity:1"
     id="Villanueva,_Código_DANE_:_44874" />
  <path
     d="m 992.6465,606.0072 h -9.5229 l -3.5084,-1.50361 -9.5229,4.00964 H 959.567 l -3.0073,-1.50362 -5.5131,2.50602 H 935.008 l -3.5084,1.00241 -4.0096,-4.00965 -8.0193,2.00484 -6.0144,0.50119 -3.1534,4.02434 -9.801,-2.28404 -8.2756,1.83903 -3.678,4.13778 -10.1145,-5.97681 -13.3329,-1.83901 -11.0341,4.59754 -7.356,-1.83901 -8.2756,13.33286 h -7.8158 l -11.0342,7.81581 -17.9303,5.97681 -7.8159,2.75851 -7.8158,5.51704 -10.1145,1.37928 -12.4134,6.8963 -5.517,-0.91951 -4.1378,2.29876 -10.5744,4.59755 -28.5048,-6.43656 -5.0572,-2.29877 -11.0341,5.51705 -8.7353,13.79262 -7.8158,-1.83903 -13.4091,3.8372 7.6014,4.64054 0.9753,5.85171 2.6007,1.95056 0.9754,5.85173 0.325,6.82699 4.5513,7.80228 1.6255,5.85172 4.2263,6.1768 0.9752,10.07795 -0.3251,11.54087 4.8765,2.11312 18.8555,-15.92967 2.2757,-6.1768 0.3251,-8.12737 2.9258,-3.57604 -10.7281,-0.6502 0.3251,-2.27566 8.7776,-4.22624 2.6007,-8.12738 16.5799,-2.92586 11.0532,-6.82699 0.9753,6.50191 -2.2757,2.60076 -0.3251,2.60076 4.2262,4.87642 0.3252,7.47718 5.2015,4.22624 2.2756,11.05324 8.1275,4.22623 2.9257,7.15208 0.6503,8.77758 20.1558,11.70342 6.502,0.32509 1.3003,6.5019 5.8518,6.827 2.9257,22.75666 7.4773,4.22622 1.9506,14.95438 2.2756,7.1521 0.6502,14.95437 3.2509,5.20152 v 2.60076 l -3.9011,2.60076 h -7.4772 l -4.8764,-1.95058 -3.5761,1.30039 -0.9753,6.82699 -14.9543,0.3251 -2.9259,-2.27567 -10.403,-2.60075 -5.2016,0.32508 -5.5266,-1.95056 -19.5057,0.3251 4.8765,9.10266 9.4277,3.90114 3.251,5.8517 9.1026,-5.8517 2.9259,0.3251 5.2015,7.47717 17.8803,0.6502 3.2509,6.5019 4.551,0.65025 5.0384,-4.63682 11.521,-1.84273 6.8471,-3.92342 3.4675,0.45227 11.7049,-2.64277 8.2089,-3.43227 6.2604,-6.12499 7.4537,1.93201 3.6267,2.88528 9.7308,-1.30037 3.302,0.76776 10.3675,-0.42926 12.6001,3.34102 10.3251,0.567 2.2299,-2.45452 4.6748,1.50552 170.4629,-325.56467 -3.396,-3.00959 -1.2084,-0.60418 0.3626,-5.19598 2.0542,-0.72501 0.3625,-3.38343 -4.7126,-2.65841 -5.5585,-1.20836 -1.9335,-2.6584 1.9335,-1.81256 0.1208,-2.6584 -2.175,-0.48335 -0.6043,-1.57088 2.6585,-2.05421 -0.4834,-2.41673 -9.1836,0.60418 -8.096,1.81255 -12.5309,15.41791 z"
     style="fill:#fefee9;fill-opacity:1;stroke:#646464;stroke-width:0.42666668;stroke-linecap:butt;stroke-linejoin:round;stroke-miterlimit:4;stroke-dasharray:none;stroke-opacity:1"
     id="Maicao,_Código_DANE_:_44430" />
  <g
     id="layer10"
     style="display:inline"
     transform="translate(-3155.2266,397.26354)">
    <path
       id="path7550"
       style="display:inline;fill:none;stroke:#646464;stroke-width:2.13333344;stroke-linecap:butt;stroke-linejoin:round;stroke-miterlimit:4;stroke-dasharray:none;stroke-opacity:1"
       d="m 4660.6665,-5.2678501 0.4698,-5.6372499 2.114,-6.811673 5.6372,-3.993062 0.7047,-12.918689 5.8721,-4.697718 -0.9395,-1.644189 -5.1675,0.469767 -5.6372,6.107016 -3.5234,1.644203 h -10.1001 l -0.7046,-0.939547 -2.3488,-2.113969 2.5837,-1.879078 5.8721,-0.469766 0.4699,-1.644203 -3.0536,-3.053515 0.9395,-2.113969 6.1071,1.644202 2.8185,3.288392 2.1141,-3.288392 h 2.1139 l 0.2349,-1.409312 -5.4023,-0.939547 0.2348,-2.583735 3.5234,-1.409312 5.8721,5.87214 4.6976,1.879079 2.3489,4.462828 4.2279,0.939532 6.1071,-2.818625 4.228,-7.986095 17.1465,-17.381531 4.9326,-1.409313 5.4025,-7.281453 5.1674,-1.174422 2.8186,-3.758172 7.9457,-5.996639 8.6367,1.328707 4.6505,-5.314843 3.6539,0.332181 4.6505,-4.318317 h 3.3218 l 4.6505,-3.321789 5.6471,-1.328707 12.2905,-20.262875 4.3184,-5.31486 -2.3253,-4.65049 v -23.58465 l -2.2145,-6.84439 -15.7231,-23.38382 -7.6401,-11.62624 -2.3253,-6.31139 -4.3183,-5.31484 -5.3148,-10.29753 -15.9446,-21.59158 -4.6505,-14.28366 -9.301,-10.96188 -3.9861,-10.29753 v -7.30792 l 2.6574,-1.99307 -0.6644,-3.98614 -7.9722,-4.31831 -6.9757,-7.6401 -4.9828,-0.99654 -14.2836,-14.94802 -17.6054,-6.64356 -4.9827,-3.32178 -2.9896,1.66089 -1.3287,4.31832 -6.3114,-1.32872 -10.9619,-7.97227 -17.9376,-8.30446 -11.6262,-1.66089 -6.6436,-4.31832 -5.3148,3.32179 -3.9862,0.33217 -5.6471,-3.32178 -4.9826,3.65396 -10.2975,-5.31485 -1.6609,-8.30445 -3.9862,-3.65396 -6.3114,-0.99654 -6.9757,-6.97574 -10.9619,-1.99307 -16.6089,-7.97228 -3.3218,1.32872 -2.6574,-2.32525 h -10.9619 l -4.9826,1.99307 -7.308,-4.6505 -4.3183,5.31485 -3.6539,-0.66435 -17.2733,-1.32871 -13.6193,-4.31832 -10.2975,-6.31139 h -5.3149 l -2.6574,-1.32871 -9.301,2.65743 -10.9619,6.64356 -14.2836,2.9896 -5.9793,5.64703 -4.6505,8.96881 -1.6608,1.99307 0.9965,1.99307 10.6297,-5.97921 h 7.6401 l 3.3218,-10.6297 6.3114,-0.66435 3.6539,-4.31832 h 2.3253 v 2.9896 l -7.9723,8.96882 -2.9896,1.32871 0.6643,2.9896 9.9654,-2.9896 6.6435,-7.97228 1.6609,1.32871 -2.3252,3.98614 1.6609,0.66436 6.3114,-6.64357 h 7.6401 v 2.65743 l -6.3114,5.64703 5.3148,-2.65743 1.9931,0.99654 -4.6505,3.32178 h -2.9896 l -0.6643,2.9896 -5.6471,2.32525 -3.9861,4.6505 1.993,2.65742 3.9862,-2.9896 7.3079,-0.33218 -5.9792,-1.66089 h 3.3218 l 2.3252,-1.32871 1.6609,0.33218 12.2906,-3.98614 5.3149,2.32524 -3.3218,3.32179 -6.6436,2.65742 -3.6539,2.65743 -10.9619,1.32871 -5.6471,5.64703 -8.9688,-3.32178 h -3.6539 l -4.1808,0.6442 0.9699,1.46441 5.8683,1.29031 -0.3322,2.58028 -4.3183,1.99307 1.6609,1.32872 10.2975,5.64703 -4.9826,4.31831 -2.9897,0.33218 -0.6643,0.99653 h -8.3045 l 1.3288,-1.99306 4.3183,-0.66436 -1.3288,-3.98614 -3.6539,-2.9896 h -3.9861 l 1.6608,2.65742 -1.993,1.99307 -4.3183,-5.31485 -0.9966,-0.99653 -1.3287,0.33217 0.3322,3.65397 -3.9861,-4.98268 0.9965,-4.98267 6.3114,-4.6505 -0.3322,-2.65742 -1.6609,-0.99654 0.9965,-2.32524 2.3253,0.33217 2.3252,2.65743 -1.993,-5.97921 -7.9723,-2.32524 -4.6505,5.31485 v 4.65049 l -2.1749,4.25188 -8.6907,2.58374 -4.4628,3.2884 -3.9931,2.11397 2.5837,1.6442 3.5233,-2.11397 6.3419,0.23488 1.1744,3.52329 1.4094,1.40931 0.4697,7.04656 -1.1744,1.40931 -1.1744,6.34191 -13.1536,10.10008 -7.5163,2.81862 -5.8722,-1.6442 -4.2279,1.17443 -4.9326,3.52328 -0.7047,7.98611 -3.2884,2.58374 -8.2209,-1.17443 -9.3955,-10.33496 -1.6442,-4.93259 -1.1744,-1.17443 v -7.51634 l 1.6442,-2.58374 2.114,-0.46977 15.9722,-9.86519 0.2349,-1.64419 -5.4024,-2.11397 -1.1744,-1.40932 h -1.8791 l -3.0535,2.34886 -0.9396,4.93259 -7.7512,3.99306 -3.0535,4.22793 h -3.7582 l -3.5232,-4.46282 -3.0536,0.46977 -6.107,5.63725 -4.2279,6.57679 -9.3954,11.03962 -17.1467,11.50939 -12.6838,12.9187 -8.4559,7.04656 -2.8186,0.93954 5.1675,0.46977 v 4.46283 h 1.8791 l 0.7046,-4.46283 2.5838,-3.99305 5.1675,-0.23488 4.2279,2.58374 3.2884,-1.87909 10.335,-1.40931 2.1139,-2.11397 2.3489,0.23489 3.2884,2.58374 1.4093,3.52328 4.9326,2.58374 -1.8791,2.11397 h -1.4093 l -2.8186,2.11397 v 2.34886 l 2.1139,2.11396 -0.9395,7.9861 6.8117,4.46283 4.2279,3.05351 2.8186,-3.75817 2.114,0.93955 -1.6442,2.11397 -2.114,1.87908 3.7582,3.05351 0.7047,3.75817 h 1.1744 l 4.6977,-6.57679 h 1.4093 l -1.1744,6.3419 -1.6442,1.17442 -3.7582,3.99307 v 2.11397 l 3.7582,3.99304 -0.2349,1.17443 -1.6442,0.23489 -2.5837,2.11396 h -4.4629 l -1.4093,1.17443 -3.2884,-0.93954 h -4.9326 l -1.4093,-1.6442 -4.9326,0.23489 -3.7581,1.17442 -6.342,6.10702 h -3.993 l -1.6442,2.11397 h -1.4093 l 0.2349,2.34886 9.6303,9.39542 -2.5838,-1.40931 h -4.6977 l -3.7582,3.75816 -0.9395,2.34885 -1.1744,0.93955 -1.8791,-1.6442 -4.6977,0.70465 -4.4628,2.34886 -8.221,1.17443 -1.1745,1.6442 h -4.4628 l -2.3488,-2.58374 -3.9931,-0.93954 -1.6442,2.34886 -2.8186,-2.58375 -0.7047,-4.22794 -1.4093,-0.46977 1.6442,-2.34886 1.6442,0.23489 1.4093,-1.87909 -0.4697,-6.57678 -0.9396,-0.93955 -0.7046,-2.58373 h -1.6442 l -1.1745,1.40931 -1.4093,-3.75817 -5.6372,-0.70466 0.2349,-2.11397 3.0535,-1.87908 v -3.52328 l 0.7046,-1.6442 1.8791,2.81863 3.7582,-2.11397 -1.6442,-3.05352 -0.2349,-3.28839 4.4628,-3.52328 5.8722,-1.6442 3.993,-3.75816 v -3.28841 l 3.7582,-10.33495 1.6442,-1.17444 v -2.34884 l -2.3489,-0.70466 -0.9395,-3.52328 -1.4093,0.23488 -0.9396,1.6442 -2.8186,-0.46977 -1.6442,-1.6442 -2.3489,0.23489 -7.7512,4.93259 -3.2884,1.40932 -8.4559,3.28839 -16.4419,0.70465 -1.6442,0.93955 -5.1675,0.23488 -11.5094,4.22793 h -8.221 l -3.5233,2.11397 -1.6442,5.63727 v 7.75122 l -1.6442,-6.81169 -0.2348,-5.40236 1.6442,-1.6442 -0.9396,-1.64421 h -6.3419 l -1.8791,1.64421 -2.5837,-1.64421 -12.2141,-2.58373 -12.6838,0.46976 -2.5837,2.81863 -5.4024,0.70466 -1.6442,3.05351 -3.993,1.87909 -2.114,3.2884 h -1.4093 l -3.5233,3.75817 -1.4093,0.93953 0.4698,2.58375 1.879,0.70466 4.228,2.11396 1.6442,-1.87909 h 7.5163 l 3.2884,3.05352 1.1744,4.93259 0.9396,1.6442 -1.6442,0.70466 0.7046,8.69075 3.9931,8.221 -0.4698,6.81167 -1.4093,2.58375 0.7047,4.69771 1.879,3.28839 -0.9395,11.2745 1.6442,5.63725 0.2349,7.28145 -7.0466,10.10008 -1.8791,7.51633 -4.6977,14.32801 -5.8721,7.04657 -4.6977,5.63725 -3.0535,10.569842 -2.114,7.281453 -7.5163,7.046563 -3.7582,12.683813 -4.2279,6.107017 v 5.402374 l -6.8117,17.616407 -4.9326,7.281453 -7.2815,6.341907 v 3.993047 l 2.114,1.644203 -4.6977,3.758158 -2.3489,0.23489 -2.3488,0.939546 4.2279,-4.227938 0.9396,-3.523281 -3.5233,0.939532 -2.114,2.818625 -3.7582,1.879093 -8.6907,7.281439 -2.114,1.174437 -7.2814,6.5767965 -8.221,5.6372503 -7.5164,1.8790788 -13.1535,8.9256414 -4.4629,0.704656 -0.9395,2.348859 -3.8756,3.523282 -5.2849,1.174422 -7.9861,4.932594 -6.8117,3.523282 -12.2141,11.274515 -5.6372,4.227937 -14.328,3.053501 -7.9861,4.227938 -13.6234,2.583749 -16.2071,0.234876 -3.2884,2.583749 -5.1675,-3.053515 -11.7442,2.348859 -8.4559,7.751219 -0.2349,3.053502 -5.1675,3.993061 -11.9791,4.227938 -1.1745,1.879079 -1.6442,-1.409313 -5.8721,-1.879079 -12.214,1.174423 -9.6303,10.569844 -7.2815,3.758172 -3.0535,1.879078 -7.7512,-1.644188 -8.9257,1.644188 -18.321,9.160535 -18.7909,1.87909 -5.6372,3.0535 -8.4559,2.34886 -9.1605,6.5768 -7.0466,1.64419 -4.2279,4.46282 -6.3419,6.34191 -4.228,4.93259 0.9396,2.81863 -2.3489,-0.93953 -0.9395,-1.64421 -10.5699,7.75122 -9.8652,4.46283 -6.5768,6.10702 -3.0535,9.6303 -2.8186,2.11396 -14.7978,15.73733 -2.8186,4.69772 1.1744,0.46977 8.6908,-8.22099 6.107,-3.05351 1.8791,1.17442 -0.2349,3.75817 4.9326,0.70466 -0.2349,1.40931 -2.3488,0.93955 -7.2815,7.04656 -5.6372,1.40931 -2.3489,1.87908 -3.2884,-5.87214 -0.7046,-0.46977 -4.6978,6.34191 -3.8855,2.9669 -3.8053,1.75742 -3.4481,0.45975 -3.6781,3.21828 -8.7353,2.29878 -9.6548,4.59754 -12.1835,8.50543 -7.1262,3.44816 -3.9079,5.28716 0.9195,1.1494 -1.6091,2.06889 -0.6897,-4.82742 -8.0457,1.14938 -8.7353,5.05729 -18.62,10.11458 -9.1951,9.65485 -8.5054,7.58593 -8.0457,11.49385 -13.3329,11.95359 -9.6548,4.82742 -2.0689,2.0689 -1.839,1.60913 0.9195,0.68963 3.9079,-2.75852 8.2756,-3.67803 h 1.839 l 5.2871,-1.83902 2.9884,-3.21827 0.2299,3.90791 -3.2183,4.13777 -2.7585,0.45977 -0.4597,5.05729 -3.9079,2.75851 -0.6897,1.83903 4.5976,4.59754 0.6896,3.67802 2.0689,0.91951 -0.6896,5.51705 -2.5287,0.68963 -1.6751,1.32052 -3.9011,-1.62548 v -2.60076 l -1.9506,-2.92586 h -2.9258 l -0.9753,-7.47718 h -1.9506 l -4.2262,1.95056 -1.3004,-10.07794 -1.9506,-0.65019 -4.2262,1.30038 -6.1768,0.97528 -6.1768,5.85171 2.9258,1.30038 3.9012,-0.97528 6.5019,0.97528 -1.3004,4.87642 -3.9011,1.30038 -0.9753,2.60078 -2.6008,0.65018 1.3004,2.27566 4.5513,0.9753 6.827,6.82698 -0.6502,2.92586 h -2.9258 l -2.9259,1.62548 -0.3251,-5.85172 -3.576,0.9753 -2.2757,2.60076 -2.6007,-3.25096 -2.2757,0.3251 -1.3004,3.25095 -3.9011,1.30038 -2.6008,1.95057 -1.9506,-1.30038 -1.9505,0.65019 0.6502,-7.80229 5.8517,-6.1768 -0.3251,-2.27566 4.2262,-4.55134 -0.9753,-0.97528 -12.6787,10.07794 -10.0779,5.85172 -0.9753,5.20152 -1.3004,2.27566 0.9753,3.57605 3.9011,-2.60076 0.9753,3.57605 h 1.6255 l 1.6255,3.90113 2.2756,1.95058 -1.9505,2.92585 -2.2757,0.65019 -2.9259,-2.60076 -2.9258,-0.65019 -0.6502,-4.22624 -2.2757,0.3251 -5.5266,6.82699 -4.5513,1.30038 -2.8701,4.13518 -6.9611,1.66316 -7.5181,5.51325 -10.0241,10.27468 h -4.7614 l -6.7663,9.02167 -7.518,0.75181 -12.2795,5.01204 -15.788,3.25783 -13.0313,4.00963 -4.2602,2.75662 -3.759,-1.75422 h -6.2651 l -7.518,3.50843 -2.7567,-2.00481 H 3343.19 l -9.0217,3.50842 -26.3132,-2.00481 -2.506,-2.00482 h -4.7614 l -9.2723,4.26023 -6.5157,2.00482 -6.265,2.00481 -18.7952,-1.75421 -10.5253,-3.50842 -5.3482,-0.86802 0.6761,4.03784 3.0535,3.99305 -2.1139,9.8652 -4.228,0.93954 1.2213,2.19958 -1.4562,1.55859 -3.0978,1.13667 2.8473,2.86912 -4.6821,0.22215 v 2.11396 l 1.8791,4.22794 -1.4093,9.86519 -2.8186,0.93955 -0.9396,2.11397 2.5838,3.99304 -3.7582,2.81863 -3.5233,-0.93955 -7.0465,3.99306 -1.8791,4.69771 -3.7582,-0.23488 -1.8791,9.86519 -6.8116,3.0535 -3.6655,3.14127 -3.9209,-2.15673 -2.461,1.59731 0.5522,2.94366 -4.3197,0.0772 -0.3482,2.94983 2.1822,2.10761 -2.5804,2.0408 1.9458,1.83717 4.3614,0.77557 -0.2579,4.90613 3.9891,2.62539 -1.0694,5.05797 -4.7821,3.03554 v 5.73427 l -3.4405,2.29372 3.4405,1.72028 2.2937,2.86713 -4.5874,2.29372 5.1609,2.86714 -4.8084,5.28449 2.8238,2.05655 -1.2808,2.89341 6.4849,1.35774 -1.7202,5.73427 -8.6015,7.45456 0.056,3.84097 2.8114,2.46675 -0.3487,3.2253 -4.8122,1.36212 0.5735,8.60141 -4.5875,9.17485 6.3077,4.014 9.1749,10.89512 -1.7203,6.88113 4.014,4.014 -2.8671,13.18885 3.4405,4.58741 v 9.74828 l 6.6274,10.44389 6.6973,3.90653 -1.4183,4.25202 2.2849,3.76124 0.4976,7.08053 5.7297,12.59829 5.8722,-4.46281 10.8047,1.17442 9.1605,-3.75817 8.4629,1.89751 8.3257,-2.33491 13.9395,-0.37898 7.0885,-6.46506 9.6582,-2.2257 7.7233,-4.58598 7.0466,3.52328 h 3.7582 l 1.6442,-2.34885 13.8582,-0.70465 8.221,3.75815 1.6442,-2.81862 10.5698,-0.70466 16.2071,6.10703 4.228,-0.93954 3.4732,1.76323 5.7904,-3.10099 11.6633,0.6331 2.5095,3.55576 4.5235,-0.29716 7.5078,8.25079 3.0535,-2.58375 5.8721,-7.98609 7.0466,-2.11397 3.2101,4.29534 2.0029,5.59389 9.3499,1.15038 -0.3518,3.90519 -2.3972,2.2721 2.8815,4.59093 4.5652,0.0365 0.2287,5.98973 2.5899,5.28477 -1.8791,3.28839 -1.4093,6.5768 0.4698,4.93259 5.1675,5.40236 -1.1745,6.34191 -8.221,7.28145 -8.8091,13.22451 -0.4698,6.57679 4.6977,-2.34885 12.9611,-0.64219 4.3033,2.94609 6.7883,-0.89333 3.0776,-3.36058 6.5058,2.86612 3.5233,4.6977 0.4698,9.16053 4.2279,2.34886 12.8953,-0.49319 2.8186,-1.17444 2.3489,0.93955 6.5768,-3.05352 h 2.8186 l 1.1744,4.22794 8.4559,4.93259 2.8186,6.34191 11.2745,1.40931 4.6977,2.11397 2.8187,7.51635 5.8721,4.46282 2.114,3.99305 7.5163,1.17442 3.2884,7.51635 2.114,0.70465 2.4463,2.53737 -6.9726,5.7908 v 10.13142 l 2.4914,7.30792 -2.1592,4.31832 -1.827,0.99654 1.3287,5.14876 -9.7992,6.47747 -1.0841,6.41976 5.299,5.3411 -6.4214,3.07005 -1.1592,6.42543 -6.5997,1.16569 -1.1087,3.13837 -3.8477,1.13973 -1.9337,4.99145 -4.9878,-5.29216 -2.1592,3.48787 1.2483,5.48969 -3.654,1.49481 -0.6643,2.65741 -1.6609,1.49481 3.4878,4.31831 -2.6574,2.65743 h -5.3148 l -2.4914,3.65396 h -4.4844 l -0.8304,0.49827 0.8216,3.30963 -3.6982,1.86694 2.114,4.93259 -0.9395,2.11397 -4.9326,2.34884 -0.7047,4.69772 7.2815,-1.40931 5.4023,4.93259 1.6442,3.05352 8.221,5.63725 0.9396,12.68381 -2.114,9.86519 2.114,6.81167 3.5232,-0.70465 21.1397,-13.62336 4.6977,-1.17442 4.4629,-2.58374 9.2288,0.30955 6.1006,5.54776 7.271,0.42079 5.2918,5.94685 4.9917,-1.18534 3.5233,-2.81862 9.6303,-0.70466 0.5973,4.67129 7.3888,0.49619 3.9931,3.11922 10.358,-1.13598 5.7372,-7.46249 h 3.2884 l 1.6442,1.40931 10.5775,-9.06478 3.4818,4.30957 7.9934,-7.89088 11.2512,-3.95735 5.4916,0.90601 2.0964,-1.62641 2.5408,-6.02861 4.1522,-1.99307 1.6115,-3.18934 14.3914,-7.72315 6.1641,-13.30688 5.5551,-5.01155 1.9584,-7.0932 v -7.97227 l 1.2457,-12.20755 7.0588,-7.39096 1.7686,-10.58218 10.9723,-9.02598 9.3932,-5.85676 -0.015,-8.53263 12.2286,-8.00992 3.1011,-5.69482 9.4867,-4.34769 1.4669,-4.15119 0.3703,-6.52443 5.177,-6.94212 -0.3231,-7.00805 4.0059,-5.04007 0.9965,-9.63316 10.5516,-7.13102 -2.5802,-10.2787 4.4368,-9.16454 -3.3417,-3.28383 3.2241,-4.35627 2.5784,-6.8393 7.4351,-2.25393 5.2272,2.3725 4.1271,-5.18693 -0.8439,-7.94399 2.4444,-2.65773 -3.168,-8.92993 5.12,-5.43247 1.1753,-8.09956 -0.3348,-2.80591 6.1768,-4.55132 0.5985,-8.45248 5.1165,-12.26867 5.7027,-6.86019 -0.1139,-7.9753 13.2667,-1.74435 8.583,2.52201 3.2144,-9.10953 6.4079,-0.56458 2.139,-5.61156 11.4363,-4.54513 1.832,-7.00758 5.3988,-3.31671 6.7637,-5.72537 1.1403,-9.98189 8.3508,-9.32507 -0.9753,-9.42775 1.9506,-3.57605 6.5019,-3.90114 3.9011,-5.85171 -4.4378,-2.3075 1.5058,-3.5442 10.0478,-6.66449 1.3367,-8.61499 3.9011,-2.92584 6.2062,-8.11568 6.0293,-3.59393 -3.8803,-2.77681 0.5653,-5.57836 -3.153,-3.91794 -4.778,-2.17666 3.496,-2.91283 5.8619,-8.9652 23.1775,-18.0196 3.2109,6.64256 4.5514,0.65018 5.0387,-4.6369 11.521,-1.84273 6.8471,-3.92341 3.4674,0.45226 11.7049,-2.64277 8.2089,-3.43226 6.2605,-6.12499 7.4536,1.93201 3.6267,2.88528 9.7309,-1.30038 3.3019,0.76776 10.3675,-0.42925 12.6001,3.34101 10.3252,0.56701 2.2299,-2.45453 4.6747,1.50552 170.5773,-325.66076 105.006,-21.7003 269.6477,-89.214321 -0.9984,-1.273101 -2.8353,0.177202 -2.4808,1.417626 -3.3668,-2.303634 -1.2405,-5.670478 -2.1264,-1.594814 1.9492,-4.7844707 3.3669,-0.3544032 4.2528,3.0124409 h 3.7213 l 6.0248,-4.2528659 5.8478,-0.3544032 2.3035,1.7720298 h 4.0758 l 1.9492,-5.6704783 3.7213,-2.65803752 3.1896,-0.8860078 2.4809,2.30363442 7.8798,-2.51382315 z" />
  </g>
  <g
     id="layer2"
     style="display:inline"
     transform="translate(-3469.6266,-44.309689)" />
  <g
     id="layer15"
     style="display:inline"
     transform="translate(-3155.2266,12.511443)" />
</svg>
