<?xml version="1.0" encoding="UTF-8" standalone="no"?>
<svg
   xmlns:dc="http://purl.org/dc/elements/1.1/"
   xmlns:cc="http://creativecommons.org/ns#"
   xmlns:rdf="http://www.w3.org/1999/02/22-rdf-syntax-ns#"
   xmlns:svg="http://www.w3.org/2000/svg"
   xmlns="http://www.w3.org/2000/svg"
   width="2009.7385"
   height="2167.9478"
   id="svg2"
   version="1.1">
  <defs
     id="defs4" />
  <metadata
     id="metadata7">
    <rdf:RDF>
      <cc:Work
         rdf:about="">
        <dc:format>image/svg+xml</dc:format>
        <dc:type
           rdf:resource="http://purl.org/dc/dcmitype/StillImage" />
        <dc:title></dc:title>
      </cc:Work>
    </rdf:RDF>
  </metadata>
  <g
     id="layer3"
     style="display:inline"
     transform="translate(-4473.3706,-6671.0685)" />
  <path
     id="Yavarate,_Código_DANE_:_97889"
     style="display:inline;fill:#fefee9;fill-opacity:1;stroke:#646464;stroke-width:0.64000005;stroke-linecap:butt;stroke-linejoin:round;stroke-miterlimit:4;stroke-dasharray:none;stroke-opacity:1"
     d="m 1390.0333,980.1626 -37.5988,-30.0116 -54.2125,-145.5065 5.7897,-10.5822 7.8951,-6.8786 h 6.8423 l 0.5265,-3.1747 7.8949,-2.1165 11.5794,9.5242 16.8426,2.1164 1.0527,-2.1164 13.6849,3.7038 3.158,-3.7038 8.4213,0.5291 3.158,5.8202 5.7897,-2.6455 6.8422,6.3493 7.8951,4.233 4.737,-4.233 -8.9477,-17.4608 -1.0526,-9.524 1.5789,-3.1747 v -6.3494 l 5.7897,-5.2911 3.6845,4.7621 5.2631,-0.5292 -2.6314,-6.8785 3.6842,-7.4076 v -12.6988 l 3.158,-1.5873 v -4.762 l 4.7372,-5.8203 4.2104,-5.2912 8.948,-2.6455 5.7896,-5.8203 v -7.4076 l 3.6843,-1.0582 4.2107,6.3493 9.4739,3.7039 5.2634,-6.3494 -1.0528,-6.8785 4.2108,-7.4076 8.9476,-5.8203 h 3.1582 l 2.6315,-1.5873 3.1582,1.0583 1.579,-3.1747 -3.6844,-6.3494 5.7762,-7.4581 4.7504,-6.2989 -3.6843,-5.2912 5.2633,-3.1746 7.3686,-0.5292 0.5265,7.9368 9.474,1.5873 12.1058,-4.7621 -2e-4,-8.4658 7.3689,-3.1747 7.3687,-10.0531 8.2713,-2.6277 10.0488,-2.9931 8.932,2.9931 10.4209,-5.6122 8.188,1.1225 -4.0941,7.4828 -1.1165,10.1018 1.4889,10.4759 8.56,-0.3741 2.6052,2.6189 h 5.5826 l 5.2104,-7.4827 5.2105,-1.8708 5.5826,-3.7414 7.8157,4.4897 11.5374,-8.6052 9.3043,0.3742 10.4209,14.9655 h 16.3757 l 21.9585,2.619 20.4694,-7.1086 6.6991,0.3741 4.0941,4.8639 5.5826,-3.3673 h 3.7218 l 11.5374,6.3604 5.5826,2.6189 -1.1164,6.3605 4.4659,5.9862 5.955,1.4965 5.9546,2.2448 8.56,-13.0948 11.9098,-8.6052 v -3.7414 l 2.605,-2.619 5.2106,2.2448 5.5826,-1.8708 3.7218,2.6191 12.2817,-2.2449 9.6766,-3.7414 3.7217,5.238 2.6053,0.7483 4.8382,9.7276 6.6991,2.2449 4.0939,4.4896 4.4662,-0.7482 4.4662,1.4965 4.4661,-1.4965 h 6.6991 l 3.7218,5.9862 5.2103,1.8707 6.6991,8.9794 12.2818,6.7345 4.8382,10.8502 -3.3494,8.9793 -6.327,4.1155 v 4.8639 l 5.2105,1.1223 6.6991,7.4829 h 5.9548 l 14.1426,7.1087 2.9774,7.1086 -7.0713,1.4966 -4.4661,-2.2449 -7.4435,10.1019 6.6991,7.4828 0.7444,7.8569 h 6.327 l 12.2818,10.476 5.5827,-0.7483 4.4659,3.3673 v 14.2172 l -7.0712,4.8639 -5.2105,-3.3673 -5.9548,7.4829 -0.7444,14.5914 9.6767,9.3535 v 5.9863 l 2.6051,4.4897 1.4887,9.7276 -8.9322,7.4828 h -7.0713 l -1.1165,-2.2448 -3.7217,2.2448 -1.1165,7.1087 -7.8158,4.8638 7.8158,10.1019 0.7442,8.6052 8.9323,-3.3673 8.9321,4.4896 10.7932,19.8295 11.5373,13.8432 0.3722,11.2242 -4.466,2.619 -2.9773,-3.7414 -6.6994,-4.1155 -9.6765,0.7483 -8.56,-5.9863 -14.1426,1.4966 -8.9322,10.4759 v 16.088 l -8.56,0.7483 -6.327,5.238 -6.3271,1.4965 -4.8381,-5.9862 -5.9548,0.3741 -6.6991,5.238 -6.327,1.1225 -5.2106,-4.1157 -6.3268,2.245 -2.9774,-0.7483 4.4659,-4.4897 2.9774,-6.3604 -4.4659,-8.6053 3.3494,-8.231 -7.0712,-1.1225 -8.1879,6.7345 -1.1165,5.238 -7.8156,1.8707 -0.3723,-6.7345 h -5.2104 l -3.3496,-2.9931 v 8.2311 l -7.8157,5.9862 -1.8608,7.857 -5.9548,-2.2449 -5.2105,-12.7208 -13.7706,-13.4691 -5.9548,-1.4965 -5.5826,-5.9862 -0.372,-7.857 -5.5826,-8.231 -13.0263,-3.7415 -1.4887,-5.9862 4.0941,-4.4897 -3.3497,-2.619 h -10.0486 l -4.0941,-3.3673 2.2332,-5.2379 -6.6994,-4.8638 h -4.8382 l -0.3721,2.993 -5.2106,-0.7482 -13.0259,7.8569 v 7.1087 l -11.1653,-0.3742 -7.4435,8.6053 2.2329,8.2311 -7.0711,6.7345 -11.1654,-0.7483 -3.3496,-4.8637 -4.4659,2.2448 -0.7445,5.6121 -6.327,6.7345 -8.1879,2.9931 -0.3721,7.1087 4.4661,5.238 -1.8608,2.2448 -5.9549,-1.8707 -4.466,2.9931 3.3495,2.9932 -4.4659,8.6052 -4.0941,-1.8707 -4.0939,-9.7277 -4.4661,1.1225 -0.3722,3.7414 -5.2105,-2.9932 -3.7218,-7.4827 1.1165,-6.7347 -5.9547,-5.9862 -13.0262,-0.7483 -2.605,-2.993 -10.0488,2.619 3.3494,4.4896 -4.4659,3.7414 -4.8383,-1.4965 -9.3043,7.4827 -4.0941,5.6122 2.6052,11.2242 -13.3982,4.4896 -7.0714,-6.3603 -6.6991,3.7414 -2.9774,5.2379 -10.4209,4.1156 -4.8383,5.6121 -8.56,5.238 -2.6053,7.4828 -6.327,-2.2449 1.1167,-6.7345 -2.6052,-4.4897 -10.0489,-0.3741 -2.9774,4.4896 -11.5374,-2.2448 -4.094,9.7277 -7.4433,-5.6121 -4.8384,3.7414 h -4.466 l -2.2331,-3.7414 -4.0939,-2.9931 -7.4435,2.2448 -4.4663,-5.9863 -4.8381,3.3673 4.4661,6.7345 -10.793,7.857 2.605,5.6121 -7.0711,3.3673 -14.1427,-9.7277 0.7444,-7.1087 -12.6541,-0.7483 -3.7217,6.7345 -6.6992,-6.7345 z" />
  <path
     id="Mitu,_Código_DANE_:_97001"
     style="display:inline;fill:#c12838;fill-opacity:1;stroke:#646464;stroke-width:0.64000005;stroke-linecap:butt;stroke-linejoin:round;stroke-miterlimit:4;stroke-dasharray:none;stroke-opacity:1"
     d="m 1362.5338,1190.6939 -15.8889,0.2043 -7.3688,4.762 -2.6314,-2.6455 h -11.5795 l -8.9478,-5.8203 -3.6843,-4.2329 -7.8951,0.5291 -7.3687,5.8203 -5.7897,0.5291 -11.5791,4.2329 -4.2108,-0.5292 -3.158,-4.2328 -5.2633,-1.5874 -4.737,4.762 h -16.3166 l -3.6842,-2.1165 -4.2107,5.8203 -3.6843,-4.762 -4.7371,2.1164 h -8.4213 l -2.6316,3.7038 -6.8425,-6.3493 v -3.7038 h -6.8423 l -3.6843,-3.1747 -7.8952,5.2912 -2.6314,-2.1165 -6.8425,-0.5292 -3.1579,1.0583 -7.3687,-11.1114 1.0525,-4.762 -8.4212,-5.8203 v -8.995 l -5.7897,-8.4658 1.579,-6.3493 -7.8951,-7.4077 2.6316,-4.762 v -4.762 l -118.9518,2.1164 -8.4211,4.7621 -4.2107,-3.7038 -4.737,-8.4658 -9.4741,-8.466 h -3.158 l -4.2107,-0.529 -1.0528,-3.1747 -6.3159,-0.5291 -1.0527,-3.1747 h -4.2107 l -1.0526,-3.1747 3.6843,-5.8203 v -3.7038 l 2.6317,-2.1164 -1.0527,-2.6456 -5.2633,-3.1746 -0.5264,-5.2912 -4.7369,-3.7038 1.0527,-3.1747 -3.158,-3.1747 11.0529,-10.5823 -2.1053,-3.1747 -0.5264,-5.2912 2.6317,-2.6455 v -7.9368 l 4.737,-6.8784 1.5792,-8.4659 -1.5792,-4.762 3.6844,-6.8785 v -3.1746 l 2.6317,-2.1165 -4.2107,-7.9368 4.2107,-3.7037 -7.8951,-3.7038 2.6316,-5.8203 -3.1579,-2.1165 1.579,-8.9949 -4.2107,-5.8202 4.737,-8.4659 -4.737,-3.7038 1.0527,-7.4076 -2.6317,-1.5873 -28.9485,13.2278 -35.7906,29.1014 -16.3164,24.8683 3.158,5.2911 v 11.1115 l -5.2635,6.3493 -9.4739,-0.529 -7.3686,4.2328 h -3.6845 l -7.3686,6.8785 -7.3687,3.1747 -3.6845,-2.6455 -5.7896,3.7038 h -5.7898 l -3.1579,4.762 -3.4212,1.5873 0.5263,7.6722 -2.8948,2.1164 v 1.8519 l 4.4738,2.1165 -1.579,3.9683 -2.6314,-0.529 -8.1583,-7.6722 4.4738,-5.8203 -0.5263,-5.0266 2.3684,-5.0265 -3.6842,-3.7038 -5.7897,-0.2646 -1.8423,-2.3811 2.3686,-2.381 -2.1053,-10.5823 -3.9476,-2.6455 -5.7897,3.9683 -6.0528,-5.0266 3.6843,-1.8518 3.4212,1.5873 5.0001,-5.0265 -7.3686,-3.4393 3.4211,-2.9102 -2.3684,-1.8518 3.6843,-0.2647 v -3.1746 l -5.2633,-3.1747 3.4211,-0.7937 1.0527,-3.1746 -2.8948,-1.5874 0.5263,-5.0266 -7.1056,-2.381 -2.6315,2.1165 -3.9476,-2.1165 -4.737,2.1165 -2.1054,-3.4393 v -5.2912 l -5.5266,-3.9683 -5.2631,2.381 -0.7897,3.4393 -4.2106,0.2645 -2.1053,-2.6455 h -2.6317 l -3.9476,8.7303 -3.6842,0.5292 -1.579,-3.9685 1.3159,-4.2328 -6.3162,-5.5557 -5.5264,0.5291 v 6.3494 l -5.2635,2.1164 -2.6316,-2.9101 4.2106,-4.2329 -2.6317,-4.233 2.8949,-2.381 -2.1052,-2.6455 -2.6318,1.5873 -7.8951,0.5292 -3.158,2.6455 -3.4211,-3.4392 2.6318,-4.233 h -5.5267 l -0.7895,-7.143 -6.3159,-1.5873 -1.0528,3.4392 3.1579,2.1165 -4.2104,2.9101 -2.6317,-1.8519 -2.6318,1.8519 0.5263,4.2329 -3.9473,1.3228 -2.9782,0.2444 1.1749,-9.4956 -4.8383,-3.3673 -0.3723,-8.2311 -2.233,-5.9862 -4.0938,-2.619 v -5.238 l -2.9774,-3.3673 2.605,-3.3672 -3.7217,-8.6052 -2.6051,-1.4967 -4.0941,1.8707 -5.2102,-4.1155 1.4885,-3.7414 v -5.2379 l -2.9774,-2.2449 1.1165,-3.7414 h 3.3497 l 5.2103,-7.8569 v -6.3604 l -2.605,-2.2449 -1.8609,-7.4828 3.7218,-7.8569 11.1652,-10.8501 h 5.2104 l 1.1165,1.4966 h 10.7931 l 4.8383,5.2379 1.4886,-3.7414 3.3496,-3.7413 -2.2332,-3.7415 1.8612,-3.7414 2.605,-2.619 0.3723,-2.9931 h -4.8385 l -8.56,-14.9656 0.7445,-10.476 c 0,0 5.5826,-4.1155 5.5826,-5.612 0,-1.4967 0,-4.1157 0,-4.1157 l 9.3044,-6.3603 -0.3721,-5.9862 4.466,-3.3673 -5.2104,-4.8639 -2.2329,-4.4897 h -5.5827 l -3.7218,-8.231 2.9774,-5.6122 5.2104,-0.7482 3.7217,-5.6121 v -8.9794 l 2.9774,-2.9931 19.2319,-163.3775 12.403,-7.9788 269.4548,-371.1475 4.0938,-14.9656 4.8383,1.8707 h 7.4435 c 0,0 10.421,-8.2311 12.2818,-8.6052 1.8609,-0.3742 8.1879,0.7483 8.1879,0.7483 l 3.7218,7.8569 4.0938,0.7483 3.7218,-2.619 h 8.1879 l 4.466,-4.1155 4.8384,1.1223 1.1164,5.6122 h 4.8383 l 10.4209,5.9862 2.6053,4.4897 h 8.9321 l 2.2332,3.7415 h 8.932 l 7.0715,-4.4897 6.6991,-0.3742 8.56,4.8639 5.5827,-3.3674 4.4659,4.4897 5.955,2.9932 8.9321,-3.7415 4.0941,1.1225 2.2329,9.7277 7.8156,5.238 -0.3721,4.4896 10.0488,6.7346 8.56,-1.1225 4.466,2.9932 11.5376,-0.3742 17.12,11.9725 10.0486,1.1224 0.7444,5.9863 h 4.8383 l 12.6539,10.85 12.6539,3.7414 v 4.1156 l 2.9774,2.2449 5.5826,-2.2449 3.7218,4.4897 9.6765,0.3742 11.1653,2.993 5.9549,-4.4897 4.466,1.4967 14.1427,-2.245 0.7444,-3.7414 6.6991,-2.9931 5.2105,2.2448 12.6539,-2.2448 6.6991,5.9863 9.6767,-3.7415 11.1651,0.7483 12.6541,-5.9862 2.9773,-5.238 h 6.6992 l 9.6765,-8.231 8.1879,3.7414 9.6765,-5.238 1.4887,-4.4897 -2.2329,-3.7414 6.6991,-0.7483 -0.7444,-5.238 5.1748,-4.0785 5.8005,0.055 1.4803,3.0595 4.8687,-4.848 2.5061,0.5218 -2.0658,4.9706 0.4156,399.5746 3.2941,6.375 3.7242,5.2486 -4.7248,6.3965 -5.7896,7.4076 3.6844,6.3494 -1.579,3.1747 -3.1582,-1.0583 -2.6315,1.5874 h -3.1582 l -8.9476,5.8202 -4.2108,7.4077 1.0528,6.8784 -5.2634,6.3494 -9.4739,-3.7037 -4.2107,-6.3495 -3.6843,1.0583 v 7.4075 l -5.7896,5.8203 -8.948,2.6456 -4.2104,5.2911 -4.7372,5.8203 v 4.762 l -3.158,1.5873 v 12.6988 l -3.6842,7.4076 2.6314,6.8785 -5.2631,0.5292 -3.6845,-4.7621 -5.7897,5.2911 v 6.3495 l -1.5789,3.1746 1.0526,9.524 8.9477,17.4608 -4.737,4.233 -7.8951,-4.233 -6.8422,-6.3493 -5.7897,2.6456 -3.158,-5.8203 -8.4213,-0.5291 -3.158,3.7038 -13.6849,-3.7038 -1.0527,2.1165 -16.8426,-2.1165 -11.5794,-9.524 -7.8949,2.1163 -0.5265,3.1748 h -6.8423 l -7.8951,6.8785 -5.7897,10.5823 54.2125,145.5064 37.497,30.0674 6.3287,6.3545 -2.6053,2.2449 1.4888,7.4828 -11.9097,4.1155 -8.1876,-3.7414 2.605,-8.6052 -8.9321,-4.4897 -6.8966,2.2697 z" />
  <path
     id="Taraira,_Código_DANE_:_97666"
     style="display:inline;fill:#fefee9;fill-opacity:1;stroke:#646464;stroke-width:0.64000005;stroke-linecap:butt;stroke-linejoin:round;stroke-miterlimit:4;stroke-dasharray:none;stroke-opacity:1"
     d="m 1363.344,1418.2063 -11.3726,8.73 -15.6313,16.8364 -8.9322,3.7413 v 5.238 l 6.699,7.4828 -7.0712,8.9793 -2.6052,8.2312 -8.56,0.7483 -5.5826,4.8637 -8.9324,3.7415 -5.5826,5.238 -8.1878,-4.8639 -11.5374,1.1224 -6.327,8.9794 5.2104,6.7345 h 18.6088 l 12.6539,11.2243 2.9776,18.3329 -12.6541,11.5983 -6.6992,1.1224 -4.4661,-4.4897 -5.2104,5.9862 -7.4435,4.1157 4.8383,4.4896 0.3723,4.1156 -11.5376,-0.7483 -6.6991,5.2379 -4.8383,-5.2379 4.8383,-6.3604 -3.3495,-5.9862 -10.4209,1.4965 -3.3496,-1.4965 -4.0939,3.7414 5.2103,7.1086 -1.1164,4.8639 2.2329,8.9793 -8.9321,0.3742 2.2329,7.1087 h -9.3043 l 8.56,9.3535 5.5826,-2.2449 1.4888,5.9862 9.6765,-6.3603 -0.7444,-10.476 4.0941,-1.1224 4.0939,9.7277 9.3043,-4.4898 3.3497,2.9932 -3.3497,8.9793 -5.5826,2.9932 3.7218,5.6121 -14.5148,0.7483 -1.1167,4.8638 -5.2103,1.1225 -0.7445,6.7345 -7.8155,0.7482 8.8555,12.4065 5.4093,-3.9798 12.8277,12.4926 1.2026,12.8955 -4.0086,2.8208 h -6.414 l -13.6294,-8.0597 -6.8148,4.4329 -4.4096,11.6865 -24.4529,12.8955 -21.6467,32.2387 -0.4008,12.8954 10.8234,7.2537 6.8148,-6.0447 -1.6036,-6.8508 -2.8062,-2.8208 4.8106,-6.8507 h 11.2241 l 9.22,18.9402 7.2155,9.6716 -4.0085,9.2686 4.4095,4.8358 -1.2025,6.4478 -5.2114,9.2686 4.4096,8.0596 -0.8017,10.8807 -6.0129,10.0745 v 12.0895 l 8.8189,12.0895 -2.0043,8.0597 -5.6122,2.015 -13.2285,-1.612 -8.4183,8.8656 -0.4008,26.9999 9.2199,15.7164 12.4268,1.6119 6.4141,7.6568 4.0085,10.4775 16.0347,18.5373 -1.2027,8.8656 -19.6423,7.6568 -1.2026,11.6865 -4.4097,9.2686 -5.2112,0.8059 -7.6164,-7.2536 h -4.0088 l -10.4224,14.5074 -2.0043,8.4626 16.0346,20.1492 15.2329,12.0895 h 10.4226 l 10.8235,-7.2537 3.6076,-11.2836 9.6208,-5.2388 6.8148,2.4179 -2.8061,16.1194 -17.2371,16.1194 1.6033,12.8954 10.0217,9.6716 h 14.832 l 4.8106,3.2239 v 14.1044 l 8.0173,10.8806 12.4267,1.6119 13.2287,-8.8656 5.2112,-13.2985 14.4312,-14.5074 8.8191,-13.7014 -0.8017,-11.2835 -7.2156,-6.4478 -11.6253,-0.403 -5.612,6.8508 -5.2112,1.6118 -8.0173,-8.8656 v -8.0596 l 10.4226,-14.1044 16.4353,-14.1045 15.2331,-3.2239 7.6165,6.4477 3.6077,10.0747 8.8191,7.6566 7.6164,-1.2089 5.2112,-7.6567 v -10.4775 l -3.6077,-7.2538 4.0086,-4.0298 11.2243,0.8059 2.0043,7.2538 -4.8104,8.0596 0.8017,6.4478 11.2243,4.8357 20.4442,-4.4327 6.0131,-13.7015 4.8103,-4.0298 14.4312,6.8508 12.0261,13.2983 -3.6079,2.4179 -11.2242,-3.2238 -13.6295,8.8656 -7.6165,2.418 v 8.4626 l 10.0217,11.2835 -2.0044,10.8806 -15.6338,13.2985 -1.6035,14.9104 11.2244,8.8656 14.4312,-2.015 13.2287,-10.0745 14.0303,3.6269 15.6338,-10.8806 6.4137,-17.3283 11.2245,-8.0597 13.6293,2.4179 8.8191,17.7313 16.0346,22.1641 21.2459,1.6119 6.0131,-6.4477 -1.6035,-6.4478 -10.4225,-2.0149 -8.8191,-4.4327 -3.6077,-13.7015 -2.4053,-1.6119 1.6035,-4.0299 7.2156,-2.0149 7.2156,-6.4478 6.4138,11.6866 8.4183,-3.2239 11.2243,3.2239 14.832,21.7611 25.2546,26.1939 -1.6035,9.2687 -4.4094,-0.403 -6.8149,-9.6717 h -6.4139 l -4.0085,6.4478 5.612,7.2537 -2.4052,14.5074 -2.806,6.4478 3.6077,26.1939 11.2244,10.4776 9.6208,-2.4179 5.6121,-10.4776 -1.2026,-19.7462 3.207,-8.0597 h 12.8277 l 11.2243,-10.8805 h 6.8147 l 4.4094,14.9104 12.8279,15.7163 12.8276,-0.8059 15.6338,18.5372 14.0303,-0.403 15.634,-12.0894 1.2024,-14.5075 -4.0086,-9.6716 -12.427,-4.0298 2.8062,-5.2388 h 9.22 l 6.8147,-8.8656 -1.6035,-12.0896 -5.6121,-7.6567 0.4009,-8.4627 10.0217,-10.8805 13.1694,2.9136 5.6044,-2.4215 -3.2048,-4.648 3.9057,-3.465 0.3681,-8.1371 -3.6794,-5.1781 -7.7265,-3.6987 0.7359,-2.9589 4.4152,-2.589 v -4.8084 h 4.415 l 9.9341,-9.2466 -6.6228,-5.1781 -8.0943,3.3287 -1.1037,-7.7671 -5.1508,-0.3699 -4.7831,6.2878 -9.1982,-5.9179 v -9.6165 l 5.1511,-3.3288 -2.2076,-2.959 -6.2548,0.7397 -10.3017,-12.9453 h -7.7265 l -10.6696,-10.7261 -8.4624,-2.9589 -1.4715,-12.5755 5.8866,-9.6165 -3.3112,-5.9179 2.5754,-1.8492 -3.3113,-5.5481 -10.6697,-5.9179 -2.2077,-6.2876 -14.7168,-5.5481 v -4.0685 l 7.3584,-4.4384 -0.7359,-5.9178 -12.8773,-9.9864 -4.0471,-11.4659 h -6.9906 l -6.9904,-19.233 -10.3019,-5.1781 0.7359,-8.507 8.0943,-4.8082 0.7358,-8.8768 5.5189,-1.1096 2.2074,-14.0549 11.4056,-10.3562 5.5188,-18.8633 5.887,-2.9589 -8.0943,-12.9453 -6.2547,-1.8493 -0.3682,-7.7672 -10.6696,-4.0685 v -4.4384 l 5.8867,-6.6576 -0.3679,-5.9179 4.4151,-4.0685 -3.6792,-6.2878 -12.8773,-13.685 0.3678,-11.4659 4.783,-2.9589 -0.7359,-7.0274 -11.4055,-4.4384 -5.1509,1.1096 -3.3113,-2.2192 -1.8395,-8.507 -13.6132,-8.5068 -25.3869,-5.9179 -21.3394,-13.6851 -8.8302,-16.2741 -13.204,-10.9889 -15.0894,-1.046 v -7.8461 l -6.7642,0.5231 -3.6422,-7.323 -9.3658,0.523 -6.7642,-1.0461 1.5609,-8.3692 -9.8861,-9.9382 -7.8048,-2.0923 -6.7641,2.0923 h -7.2844 l -1.5612,-4.7077 h -2.6016 l -5.2031,6.2768 -21.8535,-10.9844 -3.1219,-9.9383 -7.2845,-9.4153 -4.1628,-0.5231 -8.325,-10.4614 -4.1627,-0.523 -11.447,-11.5075 -7.8047,-19.8767 -14.0489,-10.9844 v -8.8923 l 5.7237,-5.7537 2.0813,-9.4153 -3.6424,-13.0768 -12.4876,-8.8921 -4.1626,-10.4615 z" />
  <path
     d="m 593.8508,335.1942 167.4789,258.9053 3.9077,3.9284 12.4679,-8.0439 269.4548,-371.1475 4.0938,-14.9656 4.8383,1.8707 h 7.4435 c 0,0 10.421,-8.2311 12.2818,-8.6052 1.8609,-0.3742 8.1879,0.7483 8.1879,0.7483 l 3.7218,7.8569 4.0938,0.7483 3.7218,-2.619 h 8.1879 l 4.466,-4.1155 4.8384,1.1223 1.1164,5.6122 h 4.8383 l 10.4209,5.9862 2.6053,4.4897 h 8.9321 l 2.2332,3.7415 h 8.932 l 7.0715,-4.4897 6.6991,-0.3742 8.56,4.8639 5.5827,-3.3674 4.4659,4.4897 5.955,2.9932 8.9321,-3.7415 4.0941,1.1225 2.2329,9.7277 7.8156,5.238 -0.3721,4.4896 10.0488,6.7346 8.56,-1.1225 4.466,2.9932 11.5376,-0.3742 17.12,11.9725 10.0486,1.1224 0.7444,5.9863 h 4.8383 l 12.6539,10.85 12.6539,3.7414 v 4.1156 l 2.9774,2.2449 5.5826,-2.2449 3.7218,4.4897 9.6765,0.3742 11.1653,2.993 5.9549,-4.4897 4.466,1.4967 14.1427,-2.245 0.7444,-3.7414 6.6991,-2.9931 5.2105,2.2448 12.6539,-2.2448 6.6991,5.9863 9.6767,-3.7415 11.1651,0.7483 12.6541,-5.9862 2.9773,-5.238 h 6.6992 l 9.6765,-8.231 8.1879,3.7414 9.6765,-5.238 1.4887,-4.4897 -2.2329,-3.7414 6.6991,-0.7483 -0.7444,-5.238 5.2053,-4.0798 -3.704,-2.5997 -4.2034,-2.1017 -5.7797,2.1017 -1.0509,-6.3051 -9.9827,-3.6779 h -6.8305 l -4.2034,-7.3559 -9.4575,4.2034 -12.61,-1.5763 -3.1525,2.6271 h -11.5593 l -3.1524,-4.7288 -11.0339,-1.5762 4.2034,-3.678 -6.8305,-2.1016 -5.2541,1.5762 -7.8814,-1.0508 -1.5763,-4.7288 -7.8812,0.5254 -9.4576,-3.6779 -9.983,-13.6609 v -5.2542 l -4.2033,-1.0508 -5.7795,3.6779 -9.4577,-7.3558 2.1017,-4.2034 -11.5591,-12.0846 h -11.0339 v -5.2542 l -4.2034,-4.2034 v -4.2033 l -6.8305,-6.8305 h -21.542 l -3.1526,-7.8813 9.4576,-8.9322 -1.0509,-3.6778 6.8305,-9.4576 v -8.4066 l -3.6781,-4.2034 6.3052,-12.6101 h 4.7288 l 4.7287,-7.8813 -2.6272,-4.7287 9.4577,-11.5593 1.5762,-14.7116 8.4067,-9.4576 -6.8305,-6.305 6.8305,-5.2542 -1.0512,-14.6244 -6.962,-1.5681 -10.6484,6.9215 -3.1946,-9.0512 -9.5836,10.116 7.4539,8.5188 -7.4539,5.8566 -5.8567,-4.2594 v 11.1809 l -5.324,4.2594 -7.454,-5.8567 -4.7919,3.1945 2.6622,6.3891 -12.2457,-4.2594 v -7.4538 l -6.1104,-0.4425 -5.6471,3.3883 1.5058,3.3883 -8.2825,1.1294 1.8825,-3.7648 -3.3885,-2.2589 -4.5177,3.3884 3.7648,5.2707 -8.2824,2.6353 1.1294,-6.4001 h -4.1414 l -7.153,9.412 -13.5533,-2.2589 -1.1296,6.4001 -6.4,-8.2824 -7.1532,5.6471 2.259,5.2707 h -6.4002 l 1.5058,6.7767 -4.1412,-3.3884 -6.0236,-1.5059 -5.2708,4.1413 1.8823,6.0237 -7.1529,-5.2707 -3.0119,1.5059 -1.8823,-6.0237 1.1294,-7.1531 -8.2826,-0.7529 -4.1412,5.6471 6.4002,5.6472 -4.5179,1.8824 -2.2589,2.2589 -6.0236,-3.0118 1.8823,-3.7648 -6.0235,-4.5178 -6.7767,2.2589 1.5058,4.1412 3.3885,2.6354 -7.5297,3.3883 -12.0474,-4.5178 -1.1293,-7.906 -4.8942,1.8824 0.3763,9.412 h -7.9059 l -4.1413,-1.8824 -2.6354,7.1531 4.5178,3.3883 -3.7648,6.0237 -9.0356,1.8823 -2.6353,-4.1412 -4.8943,4.1412 3.3884,4.8943 -4.1412,3.3883 -9.0356,-1.5059 -0.3764,6.4002 -5.6472,-1.1295 4.5178,-8.659 -4.5178,-1.8825 -7.9062,4.1414 -1.1294,-4.8943 -3.7648,1.8824 v 6.0237 l -9.7884,4.5178 -1.5058,-2.6354 -7.1533,2.6354 -0.3763,4.8942 -8.2827,-1.1294 0.3765,4.5177 -6.7767,-3.0118 1.5061,-4.8943 -4.1415,-0.3764 -8.2823,4.8942 v 4.8943 l -6.0238,3.0118 v -4.5178 l -3.0119,-1.8824 -5.2706,2.2589 4.1413,5.6471 -7.1531,-3.0117 -6.0238,5.2706 5.6473,4.1413 -4.8942,3.0119 -10.5415,-0.753 -0.3764,-5.6473 -7.1532,-0.3764 0.753,3.7648 -6.0236,2.2589 -5.2708,-2.6354 -1.1294,4.1413 -4.5178,2.2589 v -5.2707 l -3.3882,1.5059 -5.6472,-2.6354 3.3882,-3.7648 -12.8002,1.1295 v -3.7648 l -6.7767,-0.3764 -2.6354,-3.3884 -7.9059,3.0118 4.5175,3.7648 -3.0118,3.0119 -9.4119,-0.753 -4.5177,-4.1413 4.8943,-4.1413 -10.5414,-4.1412 -4.8942,2.6353 2.2587,3.3884 -3.3883,5.6471 -5.2706,-6.0236 -6.4003,2.6353 5.2709,5.6472 -8.6591,-0.7529 v -3.3884 l -9.412,1.8824 -1.506,-1.8824 -3.3882,3.0118 -6.4002,-2.2589 -3.0118,-6.0235 -6.7766,3.3882 0.7528,4.5178 -4.1412,-2.2589 -3.0119,3.0119 h -4.1411 l 0.7528,-8.659 h -4.5176 l -2.6354,-3.0119 3.3882,-2.6354 -5.2706,-3.3882 -8.659,4.8941 3.0118,7.5296 -5.2708,2.2589 v 8.2826 l -5.2706,3.7648 3.0118,4.8942 -4.5179,2.2588 -4.5175,-2.6353 -6.7766,3.3883 -0.753,6.0237 -4.5179,-0.3764 -6.4002,5.6471 3.7648,3.3883 -16.565,13.5533 -8.2826,-1.1294 -3.7648,7.906 -4.8941,-4.1412 1.1293,6.4001 -6.4,3.0118 -1.1296,-4.1413 -5.2706,1.1295 -1.1294,4.5177 -6.0239,-3.3883 2.2591,4.1413 -4.5178,4.1412 -8.659,-1.1294 v -6.4002 l -4.5179,1.1295 -1.5057,8.659 -5.2708,0.3765 -7.1531,6.0237 -0.7529,-9.7885 -3.0119,1.506 -4.5177,7.906 -7.1532,-3.7648 -3.7648,3.0118 5.6471,5.6473 -3.3881,6.0235 -11.6709,-0.7529 -2.2589,-3.0117 -3.7648,3.0117 h -5.6473 l 1.1296,8.6591 h -7.1532 l -5.2708,6.7766 -3.0118,-1.8824 -11.2944,3.0118 -20.3298,19.2004 -0.3764,7.5296 -9.7884,1.8825 -2.259,8.2825 -13.9297,10.9179 -0.3765,7.906 -8.6527,-2.2486 z"
     style="display:inline;fill:#fefee9;fill-opacity:1;stroke:#646464;stroke-width:0.64000005;stroke-linecap:butt;stroke-linejoin:round;stroke-miterlimit:4;stroke-dasharray:none;stroke-opacity:1"
     id="Papunahua,_Código_DANE_:_97777" />
  <path
     d="m 238.7517,778.0714 2.396,-3.7269 -0.7986,-2.6622 2.9283,-3.4607 3.4607,-0.2662 2.3959,-12.2457 -3.9931,-2.9283 v -4.5257 l 3.4607,-3.1944 v -1.5973 l -2.6621,-1.8635 2.6621,-2.1297 h 2.9283 l 12.7781,-11.7133 v -2.6621 l 3.1946,-2.6622 h 2.9283 l 2.1297,1.8636 3.7269,-0.2662 0.2663,-1.8635 3.4607,-2.6622 h 5.058 l 2.9283,4.5257 2.396,-2.1297 6.9215,2.1297 -1.3311,3.1945 3.1945,4.5256 h 3.727 l 1.331,1.8634 h 3.9932 l -0.2662,-2.1297 5.3241,-1.8634 2.6622,1.8634 1.331,-2.3958 3.1946,-0.2662 -2.1297,-4.5256 3.1945,-1.5973 2.6621,1.8634 10.1161,-11.9795 -2.9284,-3.993 3.727,-1.5974 3.1945,-7.4538 5.3242,-3.4608 0.7987,-3.727 6.389,-1.5972 0.5325,-4.2594 7.4539,-1.3311 0.2662,-2.6621 5.058,-3.1945 -4.5256,-3.4607 1.3311,-3.727 5.3241,-0.2662 -1.8634,-3.9932 1.0648,-2.1297 3.9932,0.2662 4.5255,-1.331 -2.3958,-2.9284 3.4607,-2.9283 v -3.1944 l -4.5255,2.3958 -2.6621,-4.2593 2.9283,-5.5905 -2.1297,-1.8635 -4.5256,-1.8634 1.331,-3.4607 4.2594,-0.5325 1.331,1.8634 2.9283,-2.3958 -2.662,-2.6622 h -4.2594 l -2.1296,-4.5255 7.4538,-2.9283 1.8635,3.7269 4.7918,-2.1297 5.8566,4.7918 1.3311,3.727 7.1877,1.0649 3.9932,-3.7271 -8.2526,-9.3173 -5.8566,-8.785 v -6.3891 l 7.9863,-4.5255 8.2526,-0.2663 2.9282,3.1946 -5.0579,6.9215 0.5324,9.5835 2.6621,8.5188 10.6485,7.1877 6.1228,4.2594 8.5188,-1.3311 6.9214,-3.9932 -2.3959,-4.7917 -2.3959,-6.6553 -3.9931,-3.4608 h -5.5905 l -3.1945,-3.7269 1.5973,-3.727 -2.1297,-2.662 1.5972,-4.7918 -1.331,-3.7271 -3.9931,-0.5323 2.1297,-2.6621 -0.7988,-3.4608 h -7.7201 l -4.2593,-4.2593 2.9284,-0.2663 1.0648,-6.6552 -4.7918,-1.065 3.727,-2.9282 -3.1946,-5.3243 -4.5257,2.1297 -1.0647,-2.662 -5.3243,1.331 -2.1297,-3.9932 2.9283,-1.5972 -1.3309,-1.5974 1.3309,-3.7269 3.4608,-1.0649 v -5.058 l 3.4607,-2.6621 -3.4607,-2.6621 -0.7986,-3.1945 2.3959,-1.331 -1.0649,-1.8636 h -3.9932 l 0.7987,-2.6621 h 3.4608 l 1.5972,-2.662 -4.2594,-1.5973 v -7.1877 l -3.727,-1.3311 v -2.9283 l 3.727,-1.3311 1.8635,3.1946 3.9932,1.3311 0.2661,-1.5973 5.5906,-0.2662 2.1296,-2.1297 -4.7819,-7.1108 4.8942,-2.6355 -3.0119,-3.7647 3.3883,-4.8942 h 4.8943 l -3.3884,-8.2826 8.2826,-7.906 -2.6353,-3.0119 5.6471,-3.0118 -1.5059,-3.3883 0.3765,-7.9061 3.3883,-4.1412 3.7648,0.3764 v -4.8942 l 4.8943,-0.753 -2.6354,-4.1413 4.5177,-9.7884 5.6472,-3.7648 -2.6353,-2.6354 2.2589,-9.0355 -3.3884,-3.7648 1.8824,-5.6471 -7.5296,-5.6472 2.6355,-3.3884 2.6353,0.753 13.9297,-7.5296 5.2707,-10.9179 2.2589,-4.1412 -3.3883,-3.0118 -1.5059,-4.1414 4.1412,-1.5059 v -6.0237 l 7.906,-11.6708 -1.8823,-1.8823 v -4.1414 l 1.8823,-2.6353 -0.3764,-3.0118 -7.1531,-3.0119 1.1294,-2.2588 4.5178,-1.506 1.1294,-5.2707 -0.753,-5.6471 3.0119,-2.2589 4.5177,3.3883 -2.2589,4.5177 5.2708,2.6353 1.5059,-6.4001 4.8943,1.1295 5.2707,-5.2707 -5.2707,-3.0119 9.7884,-2.6354 5.6472,-10.9178 -5.6472,-1.1295 -0.3765,-5.6472 4.5178,-6.0237 -1.8825,-20.7063 7.5296,-6.7766 -5.2707,-25.2241 -3.7647,-5.6472 9.412,-9.0355 -0.3766,-7.9061 7.5296,-7.5295 7.5296,2.2588 v 7.9061 l 5.2707,2.6353 8.659,11.2944 9.4121,-3.7648 13.5532,4.1413 -4.1413,3.7648 9.412,6.0236 5.6472,9.0355 11.2944,-0.753 4.5177,8.2826 4.5427,-2.9951 14.0038,54.0175 167.4789,258.9053 3.9077,3.9372 -19.167,163.3036 -2.9774,2.9931 v 8.9794 l -3.7217,5.6121 -5.2104,0.7482 -2.9774,5.6122 3.7218,8.231 h 5.5827 l 2.2329,4.4897 5.2104,4.8639 -4.466,3.3673 0.3721,5.9862 -9.3044,6.3603 c 0,0 0,2.619 0,4.1157 0,1.4965 -5.5826,5.612 -5.5826,5.612 l -0.7445,10.476 8.56,14.9656 h 4.8385 l -0.3723,2.9931 -2.605,2.619 -1.8612,3.7414 2.2332,3.7415 -3.3496,3.7413 -1.4886,3.7414 -4.8383,-5.2379 h -10.7931 l -1.1165,-1.4966 h -5.2104 l -11.1652,10.8501 -3.7218,7.8569 1.8609,7.4828 2.605,2.2449 v 6.3604 l -5.2103,7.8569 h -3.3497 l -1.1165,3.7414 2.9774,2.2449 v 5.2379 l -1.4885,3.7414 5.2102,4.1155 4.0941,-1.8707 2.6051,1.4967 3.7217,8.6052 -2.605,3.3672 2.9774,3.3673 v 5.238 l 4.0938,2.619 2.233,5.9862 0.3723,8.2311 4.8383,3.3673 -1.104,9.4346 -1.5666,4.8432 -5.2634,1.5873 -7.6319,-1.5873 -2.1054,4.4975 -2.6315,-0.5292 -1.8423,-4.4974 -6.5791,0.2645 -0.5265,3.4393 -3.158,0.7936 -1.8421,-3.1746 -14.7373,-1.3228 -3.1579,6.8785 h -4.474 l -2.1053,-3.4393 -4.2108,-2.1164 -0.2632,-7.9368 -7.8949,-0.529 -3.6844,4.2328 -7.3687,-3.4392 2.6318,-1.8519 -1.3159,-3.4392 -5.0001,-0.7937 -1.3158,-6.0848 -7.8952,1.0582 -2.6315,-2.6456 h -6.8424 l -4.7371,2.6456 -15.79,-1.5873 -4.7371,-3.7039 h -10.5267 l -8.4214,-4.762 -5.7896,3.1747 v 6.3493 l -9.474,0.5292 -13.1584,5.2911 -20.0008,-1.5873 -7.3686,-3.1747 -2.6317,-5.2911 -14.211,-2.1165 -14.2111,4.762 h -11.053 l -35.7908,19.5773 h -7.8951 l -19.4743,12.1696 h -5.7897 l -1.5791,3.7038 h -2.6315 l -6.3161,5.2912 h -6.8423 l -12.1057,11.6405 -20.5271,-24.8685 v -6.8784 l -5.7897,-6.3494 -2.6317,-8.995 -3.158,-3.7038 -113.2254,-184.7481 z"
     style="display:inline;fill:#fefee9;fill-opacity:1;stroke:#646464;stroke-width:0.64000005;stroke-linecap:butt;stroke-linejoin:round;stroke-miterlimit:4;stroke-dasharray:none;stroke-opacity:1"
     id="Caruru,_Código_DANE_:_97161" />
  <path
     d="m 588.3052,1308.9311 11.0549,-7.6938 4.8186,5.4142 13.3227,-6.839 7.6533,-15.6723 5.9524,-2.8496 22.6764,22.7963 0.2837,7.1237 -4.252,3.7045 9.921,25.3607 6.8029,1.1398 8.5037,-15.6724 4.2519,1.1399 3.4015,15.3874 3.4015,7.4088 8.5034,-7.9786 3.4015,8.5484 h 9.0707 l 9.6375,-5.699 6.2359,3.9894 -5.6691,10.2582 -5.669,1.1399 0.5669,5.1291 11.905,8.5486 9.6375,-0.5699 v -11.3981 l -2.8345,-9.1185 18.1412,-7.9787 10.7712,2.8495 4.5353,3.9894 -4.5353,8.5486 8.5038,10.2583 h 5.6691 l 14.1728,9.1184 1.7007,21.6564 5.669,7.4088 9.6375,-1.1399 4.5354,11.3981 -5.1022,9.1185 h -5.1023 l -5.6691,-5.129 h -4.5352 l -15.3066,11.398 2.2675,14.8175 14.7398,11.968 4.5352,13.1079 10.2045,-1.7098 7.9367,3.9893 1.7007,10.2584 4.5353,3.9893 3.4015,15.9574 -5.669,6.2689 v 8.5486 l 7.9367,5.699 v 13.1079 l 10.7712,3.9893 9.6376,16.5273 2.8346,10.8281 4.5353,5.1292 9.0705,-0.5699 2.8344,-14.2477 23.8105,-3.9893 8.5037,-7.4088 -0.567,-6.2689 h -9.6375 l -2.2677,-3.9893 11.9052,-10.2584 10.2044,-0.5699 3.4015,-3.9893 5.1021,-1.1397 9.6374,14.2475 24.3772,17.6671 4.5355,14.2476 9.0705,-3.9893 5.6692,-6.8389 13.0389,-12.5379 h 5.102 l 17.0075,18.8068 6.803,22.7963 11.3381,8.5486 6.803,-3.4195 2.2675,-14.8175 12.4722,-0.5699 2.2675,4.5592 5.1022,3.9893 2.8346,-11.398 h 6.803 l 4.5352,14.2476 17.0074,9.6884 6.3138,10.9883 15.6338,18.9403 -1.6035,13.7014 -4.8104,1.209 -6.0129,8.8656 3.6077,9.2687 7.2156,0.806 12.8278,-15.3134 18.44,-6.8508 11.625,2.4179 2.4052,16.1194 5.2112,8.4626 3.2071,-4.0298 7.2155,-0.8059 12.026,5.6417 13.6296,-6.4477 3.6077,-9.6717 -1.6035,-8.0596 -7.2156,-0.403 -10.4224,6.0448 -11.2243,-3.2239 -2.8062,-8.4627 5.6123,-7.2537 h 9.6206 l 9.6208,-7.2537 6.8148,5.6418 6.4139,-0.806 5.6121,-12.4925 6.8147,-6.0448 h 12.8279 l 13.6294,20.1493 6.0129,1.2089 5.8154,-4.4489 -8.8558,-12.4405 7.8155,-0.7482 0.7445,-6.7345 5.2103,-1.1225 1.1167,-4.8638 14.5148,-0.7483 -3.7218,-5.6121 5.5826,-2.9932 3.3497,-8.9793 -3.3497,-2.9932 -9.3043,4.4898 -4.0939,-9.7277 -4.0941,1.1224 0.7444,10.476 -9.6765,6.3603 -1.4888,-5.9862 -5.5826,2.2449 -8.56,-9.3535 h 9.3043 l -2.2329,-7.1087 8.9321,-0.3742 -2.2329,-8.9793 1.1164,-4.8639 -5.2103,-7.1086 4.0939,-3.7414 3.3496,1.4965 10.4209,-1.4965 3.3495,5.9862 -4.8383,6.3604 4.8383,5.2379 6.6991,-5.2379 11.5376,0.7483 -0.3723,-4.1156 -4.8383,-4.4896 7.4435,-4.1157 5.2104,-5.9862 4.4661,4.4897 6.6992,-1.1224 12.6541,-11.5983 -2.9776,-18.3329 -12.6539,-11.2243 h -18.6088 l -5.2104,-6.7345 6.327,-8.9794 11.5374,-1.1224 8.1878,4.8639 5.5826,-5.238 8.9324,-3.7415 5.5826,-4.8637 8.56,-0.7483 2.6052,-8.2312 7.0712,-8.9793 -6.699,-7.4828 v -5.238 l 8.9322,-3.7413 15.6313,-16.8364 11.3542,-8.8349 -0.8152,-227.425 -15.8655,0.2218 -7.3688,4.762 -2.6314,-2.6455 h -11.5795 l -8.9478,-5.8203 -3.6843,-4.2329 -7.8951,0.5291 -7.3687,5.8203 -5.7897,0.5291 -11.5791,4.2329 -4.2108,-0.5292 -3.158,-4.2328 -5.2633,-1.5874 -4.737,4.762 h -16.3166 l -3.6842,-2.1165 -4.2107,5.8203 -3.6843,-4.762 -4.7371,2.1164 h -8.4213 l -2.6316,3.7038 -6.8425,-6.3493 v -3.7038 h -6.8423 l -3.6843,-3.1747 -7.8952,5.2912 -2.6314,-2.1165 -6.8425,-0.5292 -3.1579,1.0583 -7.3687,-11.1114 1.0525,-4.762 -8.4212,-5.8203 v -8.995 l -5.7897,-8.4658 1.579,-6.3493 -7.8951,-7.4077 2.6316,-4.762 v -4.762 l -118.9518,2.1164 -8.4211,4.7621 -4.2107,-3.7038 -4.737,-8.4658 -9.4741,-8.466 h -3.158 l -4.2107,-0.529 -1.0528,-3.1747 -6.3159,-0.5291 -1.0527,-3.1747 h -4.2107 l -1.0526,-3.1747 3.6843,-5.8203 v -3.7038 l 2.6317,-2.1164 -1.0527,-2.6456 -5.2633,-3.1746 -0.5264,-5.2912 -4.7369,-3.7038 1.0527,-3.1747 -3.158,-3.1747 11.0529,-10.5823 -2.1053,-3.1747 -0.5264,-5.2912 2.6317,-2.6455 v -7.9368 l 4.737,-6.8784 1.5792,-8.4659 -1.5792,-4.762 3.6844,-6.8785 v -3.1746 l 2.6317,-2.1165 -4.2107,-7.9368 4.2107,-3.7037 -7.8951,-3.7038 2.6316,-5.8203 -3.1579,-2.1165 1.579,-8.9949 -4.2107,-5.8202 4.737,-8.4659 -4.737,-3.7038 1.0527,-7.4076 -2.6317,-1.5873 -28.9485,13.2278 -35.7906,29.1014 -16.3164,24.8683 3.158,5.2911 v 11.1115 l -5.2635,6.3493 -9.4739,-0.529 -7.3686,4.2328 h -3.6845 l -7.3686,6.8785 -7.3687,3.1747 -3.6845,-2.6456 -5.7896,3.7039 h -5.7898 l -3.1579,4.762 -3.4212,1.5873 0.5263,7.6722 -2.8948,2.1164 v 1.8519 l 4.4738,2.1165 -1.579,3.9683 -2.6314,-0.529 -8.1583,-7.6722 4.4738,-5.8203 -0.5263,-5.0266 2.3684,-5.0265 -3.6842,-3.7039 -5.7897,-0.2645 -1.8423,-2.3811 2.3686,-2.381 -2.1053,-10.5823 -3.9476,-2.6455 -5.7897,3.9683 -6.0528,-5.0266 3.6843,-1.8518 3.4212,1.5873 5.0001,-5.0265 -7.3686,-3.4393 3.4211,-2.9102 -2.3684,-1.8518 3.6843,-0.2647 v -3.1746 l -5.2633,-3.1747 3.4211,-0.7937 1.0527,-3.1746 -2.8948,-1.5874 0.5263,-5.0266 -7.1056,-2.381 -2.6315,2.1165 -3.9476,-2.1165 -4.737,2.1165 -2.1054,-3.4393 v -5.2912 l -5.5266,-3.9683 -5.2631,2.381 -0.7897,3.4393 -4.2106,0.2645 -2.1053,-2.6455 h -2.6317 l -3.9476,8.7303 -3.6842,0.5292 -1.579,-3.9685 1.3159,-4.2328 -6.3162,-5.5557 -5.5264,0.5291 v 6.3494 l -5.2635,2.1164 -2.6316,-2.9101 4.2106,-4.2329 -2.6317,-4.233 2.8949,-2.381 -2.1052,-2.6455 -2.6318,1.5873 -7.8951,0.5292 -3.158,2.6455 -3.4211,-3.4392 2.6318,-4.233 h -5.5267 l -0.7895,-7.143 -6.3159,-1.5873 -1.0528,3.4392 3.1579,2.1165 -4.2104,2.9101 -2.6317,-1.8519 -2.6318,1.8519 0.5263,4.2329 -3.9473,1.3228 -3.0265,0.2645 -1.4474,4.7621 -5.2634,1.5873 -7.6319,-1.5873 -2.1054,4.4975 -2.6315,-0.5292 -1.8423,-4.4974 -6.5791,0.2645 -0.5265,3.4393 -3.158,0.7936 -1.8421,-3.1746 -14.7373,-1.3228 -3.1579,6.8785 h -4.474 l -2.1053,-3.4393 -4.2108,-2.1164 -0.2632,-7.9368 -7.8949,-0.529 -3.6844,4.2328 -7.3687,-3.4392 2.6318,-1.8519 -1.3159,-3.4392 -5.0001,-0.7937 -1.3158,-6.0848 -7.8952,1.0582 -2.6315,-2.6456 h -6.8424 l -4.7371,2.6456 -15.79,-1.5873 -4.7371,-3.7039 h -10.5267 l -8.4214,-4.762 -5.7896,3.1747 v 6.3493 l -9.474,0.5292 -13.1584,5.2911 -20.0008,-1.5873 -7.3686,-3.1747 -2.6317,-5.2911 -14.211,-2.1165 -14.2111,4.762 h -11.053 l -35.7908,19.5773 h -7.8951 l -19.4743,12.1696 h -5.7897 l -1.5791,3.7038 h -2.6315 l -6.3161,5.2912 h -6.8423 l -12.1057,11.6405 -20.5271,-24.8685 v -6.8784 l -5.7897,-6.3494 -2.6317,-8.995 -3.158,-3.7038 -113.2062,-184.7671 -2.401,-1.0595 -7.7201,1.0648 -135.4005,141.2168 4.1975,7.8306 5.3718,-0.537 4.0289,-5.9089 c 0,0 5.9086,6.7146 6.4458,7.7886 0.5368,1.0744 -2.4172,6.1778 -2.4172,6.1778 l 2.4172,6.4461 5.6404,-2.1487 1.6114,4.5661 -3.7601,3.2227 -2.1487,7.2519 -7.5205,6.9834 -5.6403,0.5367 -3.76,2.9549 6.446,1.88 6.1772,-0.2686 4.2976,6.9832 -3.2229,8.0575 4.8345,4.2978 h 10.7433 l 4.8346,2.9542 0.5372,7.5203 3.7599,4.2975 7.7893,-4.0288 1.8802,-4.2976 -3.7606,-7.5201 3.7606,-2.6858 5.1031,6.983 2.4172,13.4291 10.4749,9.9377 -1.8801,8.8635 -8.5948,4.5661 -2.1487,10.7432 6.983,7.789 8.3265,-4.0285 4.0286,3.4914 -3.2228,6.4461 -11.0119,3.2233 2.1486,5.6403 12.0861,5.9088 8.0576,-3.2231 2.9543,-6.4463 -2.4171,-5.6401 3.2231,-2.1487 5.3717,4.8347 h 5.9088 l 8.3263,6.4457 3.4914,15.3096 -3.7601,4.8346 3.2233,1.0745 2.4172,6.7145 12.3549,-0.2682 -0.2685,3.7601 -8.3265,2.6856 -0.2683,5.64 4.2974,8.3267 -6.715,8.0572 -7.7888,0.8058 4.029,6.9834 7.5202,2.9543 6.446,3.2231 14.2351,-7.789 -0.8057,-5.6403 -4.5659,-1.3427 -4.0288,-6.1776 1.6114,-1.6114 8.0577,4.2972 9.669,2.4173 6.7148,-4.8346 7.7886,2.4173 -6.1771,5.6401 0.5368,6.1775 -9.6688,0.8061 -2.1487,5.103 7.7891,4.2974 3.7601,2.686 10.475,-4.0289 5.6401,2.686 -5.9087,13.6976 8.8633,12.6237 3.76,-0.2688 1.6114,-7.7888 3.7604,-7.7888 6.446,-1.3429 6.1776,-4.835 4.5658,0.8058 2.4174,12.892 -14.235,5.9093 -5.1067,5.7218 -0.5115,7.1609 2.5573,1.7902 7.9287,9.4628 11.7645,16.6238 h 7.9284 l 13.5546,5.6265 3.3248,6.6494 9.7182,3.8364 7.6725,-6.9054 1.0229,3.8363 -3.8364,4.092 7.1614,1.7904 1.5343,5.6264 -12.2757,0.7669 2.0458,4.3481 14.8336,0.2558 3.0689,4.6033 5.115,-9.4627 16.8798,-12.7875 3.8361,-5.6264 5.1145,3.0689 -0.2552,6.9052 h -7.4168 l -4.3477,6.9051 1.7902,6.1383 -3.3247,4.8591 -8.44,2.3016 2.3021,4.6037 8.9511,-0.2556 5.115,-6.1381 15.3449,-0.5116 10.9972,8.9515 v 8.4394 l -7.161,5.1151 -6.1379,-2.3019 v 7.6727 l 5.3708,6.6493 10.2295,-1.2784 4.6039,-6.9054 12.5318,2.3018 2.8132,-11.2532 5.8821,-0.2555 0.7671,-9.463 -3.0688,-2.5572 7.1609,-2.0461 -2.3017,-8.4399 5.1151,-2.5577 13.2989,10.2301 -5.1148,7.4169 -7.9284,-1.2784 1.023,7.6722 6.6494,1.2786 3.5806,5.6266 17.3908,2.046 16.1122,-10.7416 0.7673,-6.138 -3.0687,-1.0228 -0.7672,-8.1841 4.3473,-5.8822 3.5806,3.3248 v 3.3248 l 11.7645,0.5117 4.3479,3.3244 -2.0458,13.5549 1.023,3.3246 h 3.8363 l 7.1607,-0.2559 3.8364,5.3708 4.3475,-2.046 -4.6035,-6.138 5.371,-5.3706 2.3017,5.8822 9.9745,7.161 2.3014,7.9285 -8.9514,2.8131 -1.2786,4.6033 10.6345,4.0225 11.4376,3.8834 h 7.9084 l 4.5785,7.9084 -7.0759,7.4917 9.1569,6.6597 11.2379,-4.9946 6.2433,1.6648 3.7648,8.5963 4.3905,-2.2231"
     style="display:inline;fill:#fefee9;fill-opacity:1;stroke:#646464;stroke-width:0.64000005;stroke-linecap:butt;stroke-linejoin:round;stroke-miterlimit:4;stroke-dasharray:none;stroke-opacity:1"
     id="Pacoa,_Código_DANE_:_97511" />
  <g
     id="layer10"
     style="display:inline"
     transform="translate(-4158.9706,-6229.4954)">
    <path
       id="path6373"
       style="fill:none;stroke:#646464;stroke-width:3.73333335;stroke-linecap:butt;stroke-linejoin:round;stroke-miterlimit:4;stroke-dasharray:none;stroke-opacity:1"
       d="m 5472.6311,6227.4801 4.5088,3.5693 -2.63,4.1329 9.017,1.8786 -6.9506,6.9507 2.0664,3.0058 -6.9438,5.5166" />
    <path
       id="path7743"
       style="fill:none;stroke:#646464;stroke-width:3.73333335;stroke-linecap:butt;stroke-linejoin:round;stroke-miterlimit:4;stroke-dasharray:none;stroke-opacity:1"
       d="m 5650.2827,6475.6094 -2.6478,-0.5295 -4.7671,4.8659 -1.4987,-3.1161 h -5.7797 l -3.6779,-2.6271 -4.2034,-2.1017 -5.7797,2.1017 -1.0509,-6.3051 -9.9827,-3.6779 h -6.8305 l -4.2034,-7.3559 -9.4575,4.2034 -12.61,-1.5763 -3.1525,2.6271 h -11.5593 l -3.1524,-4.7288 -11.0339,-1.5762 4.2034,-3.678 -6.8305,-2.1016 -5.2541,1.5762 -7.8814,-1.0508 -1.5763,-4.7288 -7.8812,0.5254 -9.4576,-3.6779 -9.983,-13.6609 v -5.2542 l -4.2033,-1.0508 -5.7795,3.6779 -9.4577,-7.3558 2.1017,-4.2034 -11.5591,-12.0846 h -11.0339 v -5.2542 l -4.2034,-4.2034 v -4.2033 l -6.8305,-6.8305 h -21.542 l -3.1526,-7.8813 9.4576,-8.9322 -1.0509,-3.6778 6.8305,-9.4576 v -8.4066 l -3.6781,-4.2034 6.3052,-12.6101 h 4.7288 l 4.7287,-7.8813 -2.6272,-4.7287 9.4577,-11.5593 1.5762,-14.7116 8.4067,-9.4576 -6.8305,-6.305 6.8305,-5.2542 -1.0512,-14.6244 -6.962,-1.5681 -10.6484,6.9215 -3.1946,-9.0512 -9.5836,10.116 7.4539,8.5188 -7.4539,5.8566 -5.8567,-4.2594 v 11.1809 l -5.324,4.2594 -7.454,-5.8567 -4.7919,3.1945 2.6622,6.3891 -12.2457,-4.2594 v -7.4538 l -6.1104,-0.4425 -5.6471,3.3883 1.5058,3.3883 -8.2825,1.1294 1.8825,-3.7648 -3.3885,-2.2589 -4.5177,3.3884 3.7648,5.2707 -8.2824,2.6353 1.1294,-6.4001 h -4.1414 l -7.153,9.412 -13.5533,-2.2589 -1.1296,6.4001 -6.4,-8.2824 -7.1532,5.6471 2.259,5.2707 h -6.4002 l 1.5058,6.7767 -4.1412,-3.3884 -6.0236,-1.5059 -5.2708,4.1413 1.8823,6.0237 -7.1529,-5.2707 -3.0119,1.5059 -1.8823,-6.0237 1.1294,-7.1531 -8.2826,-0.7529 -4.1412,5.6471 6.4002,5.6472 -4.5179,1.8824 -2.2589,2.2589 -6.0236,-3.0118 1.8823,-3.7648 -6.0235,-4.5178 -6.7767,2.2589 1.5058,4.1412 3.3885,2.6354 -7.5297,3.3883 -12.0474,-4.5178 -1.1293,-7.906 -4.8942,1.8824 0.3763,9.412 h -7.9059 l -4.1413,-1.8824 -2.6354,7.1531 4.5178,3.3883 -3.7648,6.0237 -9.0356,1.8823 -2.6353,-4.1412 -4.8943,4.1412 3.3884,4.8943 -4.1412,3.3883 -9.0356,-1.5059 -0.3764,6.4002 -5.6472,-1.1295 4.5178,-8.659 -4.5178,-1.8825 -7.9062,4.1414 -1.1294,-4.8943 -3.7648,1.8824 v 6.0237 l -9.7884,4.5178 -1.5058,-2.6354 -7.1533,2.6354 -0.3763,4.8942 -8.2827,-1.1294 0.3765,4.5177 -6.7767,-3.0118 1.5061,-4.8943 -4.1415,-0.3764 -8.2823,4.8942 v 4.8943 l -6.0238,3.0118 v -4.5178 l -3.0119,-1.8824 -5.2706,2.2589 4.1413,5.6471 -7.1531,-3.0117 -6.0238,5.2706 5.6473,4.1413 -4.8942,3.0119 -10.5415,-0.753 -0.3764,-5.6473 -7.1532,-0.3764 0.753,3.7648 -6.0236,2.2589 -5.2708,-2.6354 -1.1294,4.1413 -4.5178,2.2589 v -5.2707 l -3.3882,1.5059 -5.6472,-2.6354 3.3882,-3.7648 -12.8002,1.1295 v -3.7648 l -6.7767,-0.3764 -2.6354,-3.3884 -7.9059,3.0118 4.5175,3.7648 -3.0118,3.0119 -9.4119,-0.753 -4.5177,-4.1413 4.8943,-4.1413 -10.5414,-4.1412 -4.8942,2.6353 2.2587,3.3884 -3.3883,5.6471 -5.2706,-6.0236 -6.4003,2.6353 5.2709,5.6472 -8.6591,-0.7529 v -3.3884 l -9.412,1.8824 -1.506,-1.8824 -3.3882,3.0118 -6.4002,-2.2589 -3.0118,-6.0235 -6.7766,3.3882 0.7528,4.5178 -4.1412,-2.2589 -3.0119,3.0119 h -4.1411 l 0.7528,-8.659 h -4.5176 l -2.6354,-3.0119 3.3882,-2.6354 -5.2706,-3.3882 -8.659,4.8941 3.0118,7.5296 -5.2708,2.2589 v 8.2826 l -5.2706,3.7648 3.0118,4.8942 -4.5179,2.2588 -4.5175,-2.6353 -6.7766,3.3883 -0.753,6.0237 -4.5179,-0.3764 -6.4002,5.6471 3.7648,3.3883 -16.565,13.5533 -8.2826,-1.1294 -3.7648,7.906 -4.8941,-4.1412 1.1293,6.4001 -6.4,3.0118 -1.1296,-4.1413 -5.2706,1.1295 -1.1294,4.5177 -6.0239,-3.3883 2.2591,4.1413 -4.5178,4.1412 -8.659,-1.1294 v -6.4002 l -4.5179,1.1295 -1.5057,8.659 -5.2708,0.3765 -7.1531,6.0237 -0.7529,-9.7885 -3.0119,1.506 -4.5177,7.906 -7.1532,-3.7648 -3.7648,3.0118 5.6471,5.6473 -3.3881,6.0235 -11.6709,-0.7529 -2.2589,-3.0117 -3.7648,3.0117 h -5.6473 l 1.1296,8.6591 h -7.1532 l -5.2708,6.7766 -3.0118,-1.8824 -11.2944,3.0118 -20.3298,19.2004 -0.3764,7.5296 -9.7884,1.8825 -2.259,8.2825 -13.9297,10.9179 -0.3765,7.906 -8.6591,-2.2588 -4.5177,3.0118 -4.5177,-8.2826 -11.2944,0.753 -5.6472,-9.0355 -9.412,-6.0236 4.1413,-3.7648 -13.5532,-4.1413 -9.4121,3.7648 -8.659,-11.2944 -5.2707,-2.6353 v -7.9061 l -7.5296,-2.2588 -7.5296,7.5295 0.3766,7.9061 -9.412,9.0355 3.7647,5.6472 5.2707,25.2241 -7.5296,6.7766 1.8825,20.7063 -4.5178,6.0237 0.3765,5.6472 5.6472,1.1295 -5.6472,10.9178 -9.7884,2.6354 5.2707,3.0119 -5.2707,5.2707 -4.8943,-1.1295 -1.5059,6.4001 -5.2708,-2.6353 2.2589,-4.5177 -4.5177,-3.3883 -3.0119,2.2589 0.753,5.6471 -1.1294,5.2707 -4.5178,1.506 -1.1294,2.2588 7.1531,3.0119 0.3764,3.0118 -1.8823,2.6353 v 4.1414 l 1.8823,1.8823 -7.906,11.6708 v 6.0237 l -4.1412,1.5059 1.5059,4.1414 3.3883,3.0118 -2.2589,4.1412 -5.2707,10.9179 -13.9297,7.5296 -2.6353,-0.753 -2.6355,3.3884 7.5296,5.6472 -1.8824,5.6471 3.3884,3.7648 -2.2589,9.0355 2.6353,2.6354 -5.6472,3.7648 -4.5177,9.7884 2.6354,4.1413 -4.8943,0.753 v 4.8942 l -3.7648,-0.3764 -3.3883,4.1412 -0.3765,7.9061 1.5059,3.3883 -5.6471,3.0118 2.6353,3.0119 -8.2826,7.906 3.3884,8.2826 h -4.8943 l -3.3883,4.8942 3.0119,3.7647 -4.8942,2.6355 4.7819,7.1108 -2.1296,2.1297 -5.5906,0.2662 -0.2661,1.5973 -3.9932,-1.3311 -1.8635,-3.1946 -3.727,1.3311 v 2.9283 l 3.727,1.3311 v 7.1877 l 4.2594,1.5973 -1.5972,2.662 h -3.4608 l -0.7987,2.6621 h 3.9932 l 1.0649,1.8636 -2.3959,1.331 0.7986,3.1945 3.4607,2.6621 -3.4607,2.6621 v 5.058 l -3.4608,1.0649 -1.3309,3.7269 1.3309,1.5974 -2.9283,1.5972 2.1297,3.9932 5.3243,-1.331 1.0647,2.662 4.5257,-2.1297 3.1946,5.3243 -3.727,2.9282 4.7918,1.065 -1.0648,6.6552 -2.9284,0.2663 4.2593,4.2593 h 7.7201 l 0.7988,3.4608 -2.1297,2.6621 3.9931,0.5323 1.331,3.7271 -1.5972,4.7918 2.1297,2.662 -1.5973,3.727 3.1945,3.7269 h 5.5905 l 3.9931,3.4608 2.3959,6.6553 2.3959,4.7917 -6.9214,3.9932 -8.5188,1.3311 -6.1228,-4.2594 -10.6485,-7.1877 -2.6621,-8.5188 -0.5324,-9.5835 5.0579,-6.9215 -2.9282,-3.1946 -8.2526,0.2663 -7.9863,4.5255 v 6.3891 l 5.8566,8.785 8.2526,9.3173 -3.9932,3.7271 -7.1877,-1.0649 -1.3311,-3.727 -5.8566,-4.7918 -4.7918,2.1297 -1.8635,-3.7269 -7.4538,2.9283 2.1296,4.5255 h 4.2594 l 2.662,2.6622 -2.9283,2.3958 -1.331,-1.8634 -4.2594,0.5325 -1.331,3.4607 4.5256,1.8634 2.1297,1.8635 -2.9283,5.5905 2.6621,4.2593 4.5255,-2.3958 v 3.1944 l -3.4607,2.9283 2.3958,2.9284 -4.5255,1.331 -3.9932,-0.2662 -1.0648,2.1297 1.8634,3.9932 -5.3241,0.2662 -1.3311,3.727 4.5256,3.4607 -5.058,3.1945 -0.2662,2.6621 -7.4539,1.3311 -0.5325,4.2594 -6.389,1.5972 -0.7987,3.727 -5.3242,3.4608 -3.1945,7.4538 -3.727,1.5974 2.9284,3.993 -10.1161,11.9795 -2.6621,-1.8634 -3.1945,1.5973 2.1297,4.5256 -3.1946,0.2662 -1.331,2.3958 -2.6622,-1.8634 -5.3241,1.8634 0.2662,2.1297 h -3.9932 l -1.331,-1.8634 h -3.727 l -3.1945,-4.5256 1.3311,-3.1945 -6.9215,-2.1297 -2.396,2.1297 -2.9283,-4.5257 h -5.058 l -3.4607,2.6622 -0.2663,1.8635 -3.7269,0.2662 -2.1297,-1.8636 h -2.9283 l -3.1946,2.6622 v 2.6621 l -12.7781,11.7133 h -2.9283 l -2.6621,2.1297 2.6621,1.8635 v 1.5973 l -3.4607,3.1944 v 4.5257 l 3.9931,2.9283 -2.3959,12.2457 -3.4607,0.2662 -2.9283,3.4607 0.7986,2.6622 -2.396,3.7269 -7.9863,2.6621 -2.3958,-1.0648 -7.7201,1.0648 -135.4005,141.2168 4.1975,7.8306 5.3718,-0.537 4.0289,-5.9089 c 0,0 5.9086,6.7146 6.4458,7.7886 0.5368,1.0744 -2.4172,6.1778 -2.4172,6.1778 l 2.4172,6.4461 5.6404,-2.1487 1.6114,4.5661 -3.7601,3.2227 -2.1487,7.2519 -7.5205,6.9834 -5.6403,0.5367 -3.76,2.9549 6.446,1.88 6.1772,-0.2686 4.2976,6.9832 -3.2229,8.0575 4.8345,4.2978 h 10.7433 l 4.8346,2.9542 0.5372,7.5203 3.7599,4.2975 7.7893,-4.0288 1.8802,-4.2976 -3.7606,-7.5201 3.7606,-2.6858 5.1031,6.983 2.4172,13.4291 10.4749,9.9377 -1.8801,8.8635 -8.5948,4.5661 -2.1487,10.7432 6.983,7.789 8.3265,-4.0285 4.0286,3.4914 -3.2228,6.4461 -11.0119,3.2233 2.1486,5.6403 12.0861,5.9088 8.0576,-3.2231 2.9543,-6.4463 -2.4171,-5.6401 3.2231,-2.1487 5.3717,4.8347 h 5.9088 l 8.3263,6.4457 3.4914,15.3096 -3.7601,4.8346 3.2233,1.0745 2.4172,6.7145 12.3549,-0.2682 -0.2685,3.7601 -8.3265,2.6856 -0.2683,5.64 4.2974,8.3267 -6.715,8.0572 -7.7888,0.8058 4.029,6.9834 7.5202,2.9543 6.446,3.2231 14.2351,-7.789 -0.8057,-5.6403 -4.5659,-1.3427 -4.0288,-6.1776 1.6114,-1.6114 8.0577,4.2972 9.669,2.4173 6.7148,-4.8346 7.7886,2.4173 -6.1771,5.6401 0.5368,6.1775 -9.6688,0.8061 -2.1487,5.103 7.7891,4.2974 3.7601,2.686 10.475,-4.0289 5.6401,2.686 -5.9087,13.6976 8.8633,12.6237 3.76,-0.2688 1.6114,-7.7888 3.7604,-7.7888 6.446,-1.3429 6.1776,-4.835 4.5658,0.8058 2.4174,12.892 -14.235,5.9093 -5.1067,5.7218 -0.5115,7.1609 2.5573,1.7902 7.9287,9.4628 11.7645,16.6238 h 7.9284 l 13.5546,5.6265 3.3248,6.6494 9.7182,3.8364 7.6725,-6.9054 1.0229,3.8363 -3.8364,4.092 7.1614,1.7904 1.5343,5.6264 -12.2757,0.7669 2.0458,4.3481 14.8336,0.2558 3.0689,4.6033 5.115,-9.4627 16.8798,-12.7875 3.8361,-5.6264 5.1145,3.0689 -0.2552,6.9052 h -7.4168 l -4.3477,6.9051 1.7902,6.1383 -3.3247,4.8591 -8.44,2.3016 2.3021,4.6037 8.9511,-0.2556 5.115,-6.1381 15.3449,-0.5116 10.9972,8.9515 v 8.4394 l -7.161,5.1151 -6.1379,-2.3019 v 7.6727 l 5.3708,6.6493 10.2295,-1.2784 4.6039,-6.9054 12.5318,2.3018 2.8132,-11.2532 5.8821,-0.2555 0.7671,-9.463 -3.0688,-2.5572 7.1609,-2.0461 -2.3017,-8.4399 5.1151,-2.5577 13.2989,10.2301 -5.1148,7.4169 -7.9284,-1.2784 1.023,7.6722 6.6494,1.2786 3.5806,5.6266 17.3908,2.046 16.1122,-10.7416 0.7673,-6.138 -3.0687,-1.0228 -0.7672,-8.1841 4.3473,-5.8822 3.5806,3.3248 v 3.3248 l 11.7645,0.5117 4.3479,3.3244 -2.0458,13.5549 1.023,3.3246 h 3.8363 l 7.1607,-0.2559 3.8364,5.3708 4.3475,-2.046 -4.6035,-6.138 5.371,-5.3706 2.3017,5.8822 9.9745,7.161 2.3014,7.9285 -8.9514,2.8131 -1.2786,4.6033 10.6345,4.0225 11.4376,3.8834 h 7.9084 l 4.5785,7.9084 -7.0759,7.4917 9.1569,6.6597 11.2379,-4.9946 6.2433,1.6648 3.7648,8.5963 4.3905,-2.2231 11.0548,-7.6938 4.8187,5.4142 13.3227,-6.839 7.6533,-15.6723 5.9523,-2.8496 22.6765,22.7963 0.2836,7.1237 -4.2519,3.7045 9.9209,25.3607 6.8029,1.1398 8.5038,-15.6724 4.2519,1.1399 3.4014,15.3874 3.4015,7.4088 8.5035,-7.9786 3.4015,8.5484 h 9.0707 l 9.6375,-5.699 6.2359,3.9894 -5.6691,10.2582 -5.669,1.1399 0.5669,5.1291 11.905,8.5486 9.6375,-0.5699 v -11.3981 l -2.8345,-9.1185 18.1412,-7.9787 10.7712,2.8495 4.5352,3.9894 -4.5352,8.5486 8.5038,10.2583 h 5.6691 l 14.1728,9.1184 1.7007,21.6564 5.669,7.4088 9.6374,-1.1399 4.5355,11.3981 -5.1022,9.1185 h -5.1023 l -5.6691,-5.129 h -4.5353 l -15.3065,11.398 2.2675,14.8175 14.7397,11.968 4.5353,13.1079 10.2045,-1.7098 7.9367,3.9893 1.7007,10.2584 4.5353,3.9893 3.4015,15.9574 -5.6691,6.2689 v 8.5486 l 7.9368,5.699 v 13.1079 l 10.7712,3.9893 9.6375,16.5273 2.8347,10.8281 4.5353,5.1292 9.0705,-0.5699 2.8344,-14.2477 23.8105,-3.9893 8.5037,-7.4088 -0.567,-6.2689 h -9.6375 l -2.2678,-3.9893 11.9053,-10.2584 10.2044,-0.5699 3.4015,-3.9893 5.1021,-1.1397 9.6374,14.2475 24.3772,17.6671 4.5354,14.2476 9.0706,-3.9893 5.6692,-6.8389 13.0389,-12.5379 h 5.102 l 17.0075,18.8068 6.8029,22.7963 11.3382,8.5486 6.803,-3.4195 2.2675,-14.8175 12.4722,-0.5699 2.2675,4.5592 5.1022,3.9893 2.8346,-11.398 h 6.8029 l 4.5353,14.2476 17.0074,9.6884 6.3138,10.9883 15.6338,18.9403 -1.6035,13.7014 -4.8104,1.209 -6.0129,8.8656 3.6077,9.2687 7.2156,0.806 12.8278,-15.3134 18.44,-6.8508 11.625,2.4179 2.4052,16.1194 5.2112,8.4626 3.207,-4.0298 7.2156,-0.8059 12.0259,5.6417 13.6297,-6.4477 3.6077,-9.6717 -1.6036,-8.0596 -7.2155,-0.403 -10.4224,6.0448 -11.2244,-3.2239 -2.8061,-8.4627 5.6122,-7.2537 h 9.6207 l 9.6208,-7.2537 6.8147,5.6418 6.414,-0.806 5.6121,-12.4925 6.8147,-6.0448 h 12.8278 l 13.6295,20.1493 6.0129,1.2089 11.2244,-8.4627 12.8276,12.4926 1.2027,12.8955 -4.0086,2.8208 h -6.414 l -13.6295,-8.0597 -6.8147,4.4329 -4.4096,11.6865 -24.4529,12.8955 -21.6467,32.2387 -0.4009,12.8954 10.8235,7.2537 6.8147,-6.0447 -1.6035,-6.8508 -2.8062,-2.8208 4.8106,-6.8507 h 11.2241 l 9.2199,18.9402 7.2156,9.6716 -4.0085,9.2686 4.4095,4.8358 -1.2025,6.4478 -5.2114,9.2686 4.4096,8.0596 -0.8017,10.8807 -6.0129,10.0745 v 12.0895 l 8.8189,12.0895 -2.0043,8.0597 -5.6123,2.015 -13.2284,-1.612 -8.4183,8.8656 -0.4008,26.9999 9.2199,15.7164 12.4268,1.6119 6.4141,7.6568 4.0085,10.4775 16.0347,18.5373 -1.2027,8.8656 -19.6424,7.6568 -1.2025,11.6865 -4.4097,9.2686 -5.2112,0.8059 -7.6164,-7.2536 h -4.0088 l -10.4224,14.5074 -2.0044,8.4626 16.0347,20.1492 15.2329,12.0895 h 10.4226 l 10.8234,-7.2537 3.6077,-11.2836 9.6208,-5.2388 6.8147,2.4179 -2.806,16.1194 -17.2372,16.1194 1.6033,12.8954 10.0218,9.6716 h 14.832 l 4.8106,3.2239 v 14.1044 l 8.0172,10.8806 12.4268,1.6119 13.2287,-8.8656 5.2112,-13.2985 14.4312,-14.5074 8.819,-13.7014 -0.8017,-11.2835 -7.2155,-6.4478 -11.6253,-0.403 -5.6121,6.8508 -5.2112,1.6118 -8.0172,-8.8656 v -8.0596 l 10.4226,-14.1044 16.4353,-14.1045 15.233,-3.2239 7.6166,6.4477 3.6077,10.0747 8.819,7.6566 7.6165,-1.2089 5.2112,-7.6567 v -10.4775 l -3.6077,-7.2538 4.0085,-4.0298 11.2243,0.8059 2.0044,7.2538 -4.8104,8.0596 0.8017,6.4478 11.2243,4.8357 20.4442,-4.4327 6.0131,-13.7015 4.8103,-4.0298 14.4312,6.8508 12.0261,13.2983 -3.6079,2.4179 -11.2242,-3.2238 -13.6296,8.8656 -7.6164,2.418 v 8.4626 l 10.0217,11.2835 -2.0044,10.8806 -15.6338,13.2985 -1.6035,14.9104 11.2244,8.8656 14.4311,-2.015 13.2287,-10.0745 14.0303,3.6269 15.6338,-10.8806 6.4138,-17.3283 11.2244,-8.0597 13.6294,2.4179 8.8191,17.7313 16.0346,22.1641 21.2459,1.6119 6.0131,-6.4477 -1.6035,-6.4478 -10.4225,-2.0149 -8.8191,-4.4327 -3.6077,-13.7015 -2.4053,-1.6119 1.6035,-4.0299 7.2156,-2.0149 7.2155,-6.4478 6.4139,11.6866 8.4182,-3.2239 11.2244,3.2239 14.832,21.7611 25.2546,26.1939 -1.6035,9.2687 -4.4094,-0.403 -6.815,-9.6717 h -6.4138 l -4.0086,6.4478 5.6121,7.2537 -2.4052,14.5074 -2.806,6.4478 3.6077,26.1939 11.2244,10.4776 9.6208,-2.4179 5.6121,-10.4776 -1.2026,-19.7462 3.2069,-8.0597 h 12.8278 l 11.2243,-10.8805 h 6.8147 l 4.4094,14.9104 12.8278,15.7163 12.8277,-0.8059 15.6338,18.5372 14.0303,-0.403 15.634,-12.0894 1.2023,-14.5075 -4.0085,-9.6716 -12.427,-4.0298 2.8062,-5.2388 h 9.2199 l 6.8148,-8.8656 -1.6036,-12.0896 -5.612,-7.6567 0.4008,-8.4627 10.0218,-10.8805 13.1694,2.9136 5.6112,-2.3556 -2.9824,-4.5807 3.6765,-3.5982 0.3681,-8.1371 -3.6794,-5.1781 -7.7265,-3.6987 0.7359,-2.9589 4.4152,-2.589 v -4.8084 h 4.415 l 9.9341,-9.2466 -6.6229,-5.1781 -8.0942,3.3287 -1.1037,-7.7671 -5.1509,-0.3699 -4.783,6.2878 -9.1982,-5.9179 v -9.6165 l 5.1511,-3.3288 -2.2076,-2.959 -6.2548,0.7397 -10.3017,-12.9453 h -7.7265 l -10.6697,-10.7261 -8.4624,-2.9589 -1.4714,-12.5755 5.8866,-9.6165 -3.3113,-5.9179 2.5755,-1.8492 -3.3114,-5.5481 -10.6696,-5.9179 -2.2077,-6.2876 -14.7168,-5.5481 v -4.0685 l 7.3584,-4.4384 -0.7359,-5.9178 -12.8773,-9.9864 -4.0472,-11.4659 h -6.9906 l -6.9904,-19.233 -10.3018,-5.1781 0.7359,-8.507 8.0942,-4.8082 0.7358,-8.8768 5.519,-1.1096 2.2073,-14.0549 11.4057,-10.3562 5.5188,-18.8633 5.8869,-2.9589 -8.0943,-12.9453 -6.2547,-1.8493 -0.3681,-7.7672 -10.6696,-4.0685 v -4.4384 l 5.8867,-6.6576 -0.3679,-5.9179 4.415,-4.0685 -3.6791,-6.2878 -12.8773,-13.685 0.3677,-11.4659 4.7831,-2.9589 -0.7359,-7.0274 -11.4056,-4.4384 -5.1508,1.1096 -3.3113,-2.2192 -1.8395,-8.507 -13.6132,-8.5068 -25.3869,-5.9179 -21.3394,-13.6851 -8.8302,-16.2741 -13.2041,-10.9889 -15.0894,-1.046 v -7.8461 l -6.7641,0.5231 -3.6423,-7.323 -9.3657,0.523 -6.7642,-1.0461 1.5609,-8.3692 -9.8861,-9.9382 -7.8048,-2.0923 -6.7642,2.0923 h -7.2843 l -1.5612,-4.7077 h -2.6016 l -5.2031,6.2768 -21.8536,-10.9844 -3.1219,-9.9383 -7.2845,-9.4153 -4.1627,-0.5231 -8.325,-10.4614 -4.1627,-0.523 -11.447,-11.5075 -7.8047,-19.8767 -14.0489,-10.9844 v -8.8923 l 5.7236,-5.7537 2.0814,-9.4153 -3.6424,-13.0768 -12.4876,-8.8921 -4.1627,-10.4615 -1.5289,-438.616 6.8964,-2.2805 8.932,4.4896 -2.605,8.6053 8.1877,3.7414 11.9097,-4.1156 -1.4888,-7.4827 2.6053,-2.2449 -6.327,-6.3604 2.6052,-2.2449 6.6992,6.7345 3.7217,-6.7345 12.6541,0.7483 -0.7445,7.1087 14.1428,9.7277 7.0711,-3.3673 -2.605,-5.6121 10.793,-7.857 -4.4662,-6.7345 4.8382,-3.3673 4.4663,5.9863 7.4435,-2.2448 4.0938,2.9931 2.2332,3.7414 h 4.4659 l 4.8384,-3.7414 7.4433,5.6121 4.0941,-9.7277 11.5374,2.2448 2.9774,-4.4896 10.0488,0.3741 2.6053,4.4897 -1.1167,6.7345 6.327,2.2449 2.6052,-7.4828 8.56,-5.238 4.8383,-5.6121 10.4209,-4.1156 2.9774,-5.2379 6.6991,-3.7414 7.0715,6.3603 13.3982,-4.4896 -2.6052,-11.2242 4.094,-5.6122 9.3044,-7.4827 4.8382,1.4965 4.466,-3.7414 -3.3495,-4.4896 10.0489,-2.619 2.605,2.993 13.0261,0.7483 5.9548,5.9862 -1.1165,6.7347 3.7217,7.4827 5.2106,2.9932 0.3721,-3.7414 4.4662,-1.1225 4.0938,9.7277 4.0941,1.8707 4.4659,-8.6052 -3.3494,-2.9932 4.4659,-2.9931 5.955,1.8707 1.8608,-2.2448 -4.4661,-5.238 0.372,-7.1087 8.188,-2.9931 6.327,-6.7345 0.7444,-5.6121 4.466,-2.2448 3.3496,4.8637 11.1654,0.7483 7.0711,-6.7345 -2.233,-8.2311 7.4436,-8.6053 11.1653,0.3742 v -7.1087 l 13.0259,-7.8569 5.2106,0.7482 0.372,-2.993 h 4.8383 l 6.6993,4.8638 -2.2331,5.2379 4.094,3.3673 h 10.0487 l 3.3496,2.619 -4.0941,4.4897 1.4888,5.9862 13.0262,3.7415 5.5826,8.231 0.3721,7.857 5.5826,5.9862 5.9548,1.4965 13.7705,13.4691 5.2106,12.7208 5.9548,2.2449 1.8608,-7.857 7.8157,-5.9862 v -8.2311 l 3.3496,2.9931 h 5.2104 l 0.3722,6.7345 7.8157,-1.8707 1.1165,-5.238 8.1878,-6.7345 7.0713,1.1225 -3.3495,8.231 4.466,8.6053 -2.9774,6.3604 -4.4659,4.4897 2.9773,0.7483 6.3269,-2.245 5.2105,4.1157 6.3271,-1.1225 6.6991,-5.238 5.9547,-0.3741 4.8382,5.9862 6.3271,-1.4965 6.327,-5.238 8.56,-0.7483 v -16.088 l 8.9322,-10.4759 14.1426,-1.4966 8.56,5.9863 9.6765,-0.7483 6.6994,4.1155 2.9772,3.7414 4.4661,-2.619 -0.3722,-11.2242 -11.5374,-13.8432 -10.7931,-19.8295 -8.9321,-4.4896 -8.9324,3.3673 -0.7441,-8.6052 -7.8159,-10.1019 7.8159,-4.8638 1.1165,-7.1087 3.7217,-2.2448 1.1165,2.2448 h 7.0712 l 8.9323,-7.4828 -1.4887,-9.7276 -2.6052,-4.4897 v -5.9863 l -9.6767,-9.3535 0.7445,-14.5914 5.9547,-7.4829 5.2106,3.3673 7.0712,-4.8639 v -14.2172 l -4.466,-3.3673 -5.5826,0.7483 -12.2818,-10.476 h -6.327 l -0.7445,-7.8569 -6.6991,-7.4828 7.4436,-10.1019 4.4661,2.2449 7.0713,-1.4966 -2.9774,-7.1086 -14.1426,-7.1087 h -5.9548 l -6.6991,-7.4829 -5.2106,-1.1223 v -4.8639 l 6.3271,-4.1155 3.3494,-8.9793 -4.8382,-10.8502 -12.2818,-6.7345 -6.6991,-8.9794 -5.2103,-1.8707 -3.7218,-5.9862 h -6.6991 l -4.4662,1.4965 -4.4661,-1.4965 -4.4662,0.7482 -4.0939,-4.4896 -6.6991,-2.2449 -4.8382,-9.7276 -2.6053,-0.7483 -3.7217,-5.238 -9.6766,3.7414 -12.2817,2.2449 -3.7218,-2.6191 -5.5827,1.8708 -5.2105,-2.2448 -2.605,2.619 v 3.7414 l -11.9098,8.6052 -8.56,13.0948 -5.9547,-2.2448 -5.9549,-1.4965 -4.466,-5.9862 1.1165,-6.3605 -5.5826,-2.6189 -11.5374,-6.3604 h -3.7218 l -5.5826,3.3673 -4.0941,-4.8639 -6.6991,-0.3741 -20.4694,7.1086 -21.9585,-2.619 h -16.3757 l -10.4209,-14.9655 -9.3043,-0.3742 -11.5374,8.6052 -7.8157,-4.4897 -5.5826,3.7414 -5.2106,1.8708 -5.2103,7.4827 h -5.5826 l -2.6053,-2.6189 -8.56,0.3741 -1.4888,-10.4759 1.1165,-10.1018 4.094,-7.4828 -8.1879,-1.1225 -10.4209,5.6122 -8.9321,-2.9931 -10.0487,2.9931 -8.2714,2.6277 -7.3686,10.0531 -7.369,3.1747 2e-4,8.4658 -12.1058,4.7621 -9.4739,-1.5873 -0.5265,-7.9368 -7.3686,0.5292 -5.2633,3.1746 -3.3127,-6.3493 -0.438,-399.5525 z" />
  </g>
  <g
     id="layer2"
     style="display:inline"
     transform="translate(-4473.3706,-6671.0685)" />
</svg>
