<?xml version="1.0" encoding="UTF-8" standalone="no"?>
<svg
   xmlns:dc="http://purl.org/dc/elements/1.1/"
   xmlns:cc="http://creativecommons.org/ns#"
   xmlns:rdf="http://www.w3.org/1999/02/22-rdf-syntax-ns#"
   xmlns:svg="http://www.w3.org/2000/svg"
   xmlns="http://www.w3.org/2000/svg"
   width="866.62982"
   height="931.32721"
   id="svg2"
   version="1.1">
  <defs
     id="defs4" />
  <metadata
     id="metadata7">
    <rdf:RDF>
      <cc:Work
         rdf:about="">
        <dc:format>image/svg+xml</dc:format>
        <dc:type
           rdf:resource="http://purl.org/dc/dcmitype/StillImage" />
        <dc:title></dc:title>
      </cc:Work>
    </rdf:RDF>
  </metadata>
  <g
     id="layer3"
     style="display:inline"
     transform="translate(-1707.646,-4281.6995)" />
  <path
     d="m 513.7293,629.3706 5.1766,0.6445 0.6484,3.3052 5.8374,3.9662 4.1084,-1.8826 5.7768,0.2992 8.4976,1.9533 12.5093,-1.9796 9.3169,-2.3154 1.2618,-10.3555 5.4514,-3.2555 3.2067,-6.0229 4.6496,1.1394 2.4049,-1.1394 -2.8858,-3.5813 -3.3671,-0.8139 4.4893,-3.2558 5.4513,4.7207 1.6034,-3.5811 2.5652,3.744 4.8102,-2.1162 2.2446,2.2791 -2.2446,1.1394 -1.6034,3.0929 3.5273,2.1162 2.0844,-0.6512 1.1222,2.1163 -2.2447,4.2324 5.2911,2.9299 -0.3206,5.6974 2.0843,1.7907 -0.6414,4.7206 -2.886,5.0461 2.405,3.9069 2.4049,-0.4883 1.2828,-3.0929 c 0,0 1.6033,0 2.4049,0 0.8018,0 4.329,4.2324 4.329,4.2324 l 6.0928,0.4882 1.8009,3.4119 h 2.7315 l 3.535,-4.9809 11.0867,-0.3215 5.4631,-3.8561 4.0169,0.8033 1.6068,-1.7674 3.0528,-0.3213 5.1418,13.1755 3.5349,1.2854 6.1057,-4.8203 4.4991,-0.3212 1.7675,2.7315 -0.3214,5.6237 4.6596,3.3741 1.2855,-1.2854 7.0699,-0.3213 9.1585,-5.945 9.6409,-0.3215 6.5876,4.6597 9.4802,-0.4819 3.0528,2.7315 7.0699,0.1606 1.6067,1.7675 -4.0169,4.3382 0.6427,3.2137 4.499,2.7315 4.017,0.482 2.5708,4.9811 -3.0528,4.0169 v 4.3383 l 4.6596,1.7674 9.48,0.4822 5.9452,3.3741 0.6426,3.535 -3.0529,2.4102 v 1.2855 l 1.4461,1.1245 1.1248,4.1776 4.9809,8.1948 10.4442,7.5518 1.7675,6.2665 -4.1778,1.6068 -1.4461,2.5708 3.3743,1.6068 0.3214,4.4989 7.8732,2.8923 -0.1606,13.1755 1.2854,3.6957 10.1227,4.0169 6.7484,7.8733 4.4991,0.4819 5.3024,-2.8921 4.8203,0.4821 5.463,5.7843 9.3065,1.2049 0.067,3.9047 -3.7013,-0.4259 -2.9377,3.2655 -4.57,0.3265 0.9792,1.6326 v 2.9389 l -2.285,0.3266 -2.2849,2.2859 -1.3056,-2.2859 -2.285,-0.3266 -2.2849,-3.5918 -3.2643,-2.286 -1.632,1.6327 -2.6115,0.9797 -2.6115,3.592 -5.2227,9.4701 -0.3264,3.592 -3.5907,3.5918 -6.202,3.9187 -8.487,5.8777 -2.2849,3.9187 -2.9379,2.6124 -2.9378,5.2248 -2.2849,6.8575 -1.9586,4.2451 -3.5907,1.6326 -2.6113,2.6125 -1.9587,-2.9389 -2.6113,-1.3062 -4.2435,4.2451 -2.6114,5.8779 0.6528,6.2044 -1.9584,0.3265 -3.2643,-0.6532 -2.2849,2.9389 h -5.5491 l -3.2644,0.9798 -2.285,5.5513 -6.2019,1.6328 -6.202,4.245 -4.5699,-0.3266 -4.2436,-3.592 -4.8963,-0.3264 -5.2229,7.5106 -3.9169,0.9795 -6.5286,-0.9795 -1.9585,0.6529 -1.9586,-5.2247 -7.8342,-2.6124 -6.8548,-1.9592 -3.2643,-5.2248 -8.487,-3.2654 -8.1604,-8.4903 -8.8135,-3.5922 -5.5493,-0.9795 -4.2435,-2.6123 -4.8963,-5.2249 -5.8757,-1.9593 -1.632,-5.2246 -1.6322,-1.3063 0.6528,-3.9185 -1.632,-5.2248 -7.8342,-2.2859 -2.6113,-1.6326 -5.5494,-1.9593 -4.5697,-7.5107 -2.2851,-1.9591 -3.917,1.306 -1.9585,-3.9185 -3.9171,-1.3062 -2.285,-0.3265 -4.8964,-3.9842 1.3059,-2.2857 0.3046,-2.6261 4.1331,-0.2447 3.2314,-3.4634 6.2321,-0.6928 1.3848,-4.849 -1.3848,-4.8489 3.2313,-3.0019 0.4617,-4.8489 4.3856,-3.0017 1.6157,-9.9289 -2.5391,0.6927 h -2.0772 l -3.9239,3.2327 h -1.3849 l -0.231,-4.6182 4.1548,-3.6944 -0.4617,-7.3889 2.0774,-2.309 v -2.3091 l -4.8471,-5.7726 -7.1554,-11.5452 -3.6929,-5.3108 -3.2316,-10.3907 -11.7715,-4.3871 h -3.9239 v 3.2326 l -2.7698,1.3855 -3.4622,-3.9254 h -2.0774 l -1.3849,3.2326 -4.1547,0.6928 -4.1545,-3.4636 v -2.5399 l -3.6932,0.6928 -1.8585,-2.1379 0.1232,-5.4595 -1.3058,-2.9391 0.9794,-2.2858 3.9169,-0.9796 0.9794,-3.592 -3.9171,-2.2858 -2.285,-4.8982 -6.5285,-0.9798 -7.5077,-8.8167 v -4.245 l -5.2227,-0.6532 -3.5907,-3.9184 -0.6528,-7.1843 -2.938,-3.9185 1.6323,-5.2248 -1.8618,-15.0848 z"
     style="display:inline;fill:#fefee9;fill-opacity:1;stroke:#646464;stroke-width:0.42666668;stroke-linecap:butt;stroke-linejoin:round;stroke-miterlimit:4;stroke-dasharray:none;stroke-opacity:1"
     id="Santa_Rosa_de_Cabal,_Código_DANE_:_66682" />
  <path
     d="m 829.7619,786.5661 2.7697,10.1598 -1.6157,10.8523 -8.0785,6.6964 -2.5391,6.9271 0.6925,6.927 7.3862,8.5434 0.6924,7.8508 -3.4623,3.4637 -4.3854,3.4634 -0.4616,5.0799 -8.5402,1.3856 -2.7066,2.7456 -3.1942,-2.2815 -3.4221,1.8252 v 7.0726 l -5.0193,5.4756 -8.4415,0.9126 -2.0532,3.194 -2.0534,1.3689 -6.3882,-7.3007 -5.0192,1.3688 -1.3689,3.6504 1.3689,6.8445 -5.2473,6.16 h -11.6358 l -12.1955,2.9027 -7.1552,3.6944 -5.3088,6.927 -6.4628,1.8474 -7.617,-6.6961 -5.7704,-9.4672 -9.0017,-6.9271 -1.8467,-3.4635 -10.1559,-3.002 -7.3861,1.1546 -20.1963,-5.9063 -4.1546,-3.6944 -5.3088,-0.9238 -5.0779,3.0019 -2.0775,-1.3856 -5.0778,0.2311 -3.0007,-1.3854 -3.2313,-4.3872 -7.1555,0.2308 -7.8476,4.6182 h -4.1547 l -4.8473,-6.4655 -5.3088,1.6165 -5.6548,7.3696 -6.232,-0.2313 -5.5397,-2.7706 -6.232,1.6163 -8.5402,-2.7709 -4.6163,-3.6944 -2.3082,2.0781 -4.6163,0.9236 v 3.4636 l -4.3856,4.6182 -5.0778,-4.3872 -6.0012,-0.4617 0.2307,-2.7711 -2.5389,-2.0781 h -4.8471 l -1.6157,-3.2327 -4.1548,-3.0016 -4.8471,-0.231 -3.6439,-3.6477 h -5.2816 l -2.8368,1.8535 -5.8371,2.1503 -4.4963,-0.6675 -6.6025,3.9777 h -7.2624 l -8.5827,-3.315 -4.1463,3.4302 -10.6848,-0.4647 -4.9891,-3.408 -8.8518,1.8877 -5.0131,-6.5287 -4.6214,1.3264 -5.2817,-1.9888 v 3.3148 h -2.6409 l -3.9614,3.315 -5.942,-3.9782 -3.3011,-0.6628 0.6602,-5.3043 -9.2432,-2.6518 -6.602,-4.641 -3.3012,-3.9783 -7.2626,2.6526 -3.9613,-3.3153 -5.2819,4.641 -1.9806,5.3039 h -3.9612 l -1.9807,-6.6296 -5.282,5.9667 -5.5565,-2.6727 0.8518,-2.3648 4.6686,-0.9376 v -3.2819 l 2.8008,-4.688 -0.4665,-12.1891 3.2678,-4.6881 -3.7347,-8.9075 0.9334,-11.2514 -3.7347,-1.8753 -6.5359,6.563 h -4.6685 l -3.7347,-2.344 h -4.2016 l -0.4669,11.2518 -3.2678,-0.9377 -3.2682,-4.2192 -0.9335,1.8753 1.4006,6.5634 -4.6687,2.3441 -5.1351,6.5629 -5.6022,-4.688 h -2.8012 l -6.5358,5.1573 h -7.9365 l -4.6685,-4.2195 3.7349,-2.8127 0.4667,-3.282 -11.2042,0.9379 2.3341,-4.6882 -1.4004,-3.2817 -5.1353,-0.4688 1.4006,-5.1573 -1.8675,-1.4061 4.6685,-0.4689 1.8674,-2.8127 -6.069,-4.2199 0.4668,-1.8749 6.0689,-1.4063 -5.602,-3.282 9.3369,-0.4691 -2.8011,-3.2813 1.4005,-5.1568 -2.801,-2.3443 -6.069,3.2822 -4.7844,-6.2115 2.1178,-2.1299 -1.3613,-3.0622 2.9712,-1.9891 3.9613,1.6571 2.3107,-3.9777 3.9613,-2.6521 0.3302,5.6354 2.641,-2.9833 h 4.2912 l 0.3302,-10.9395 8.913,-7.6243 -0.9903,-6.6301 -3.6312,-3.978 0.3299,-0.9945 3.9616,-0.3312 3.6312,-3.3152 -5.9421,-6.2986 -5.6119,-1.9893 -0.9904,-8.2872 -3.5612,-4.2627 3.5465,-4.1901 -2.2593,-3.0293 1.1591,-2.434 5.4477,-1.1591 2.6657,7.1863 3.0136,-0.8115 1.8545,-3.7091 3.2455,-1.0432 5.7954,-7.9975 4.4343,0.1104 9.0956,3.4455 4.9175,5.5734 8.5238,1.9668 4.2618,2.9506 7.2124,2.2948 5.2455,5.5732 5.2452,-3.2782 4.9176,-12.4579 3.9339,-4.9175 -1.3111,-6.8845 3.606,-3.6063 6.5568,0.6557 6.2288,-2.2948 5.4087,2.8241 2.9377,5.8778 1.6322,6.8575 9.1398,-0.3264 8.1605,0.9795 5.8757,6.531 3.2641,7.184 4.5699,4.2451 h 4.2435 l 5.223,-3.592 h 3.2641 l 6.5285,-3.9187 6.5284,-6.5309 h 1.9587 l 8.487,-7.184 9.1398,1.6326 6.5285,4.5718 6.8549,2.6124 1.1942,8.8168 1.0907,2.9389 -1.6321,7.5107 -2.285,1.3061 v 6.2045 l -2.6113,1.9591 1.3056,8.1638 -3.917,8.4902 0.9792,8.1636 1.9586,2.6124 v 5.5514 l 1.3056,0.9796 4.8964,-4.5716 5.5491,-0.9798 6.5286,2.6125 6.202,0.9795 4.2435,4.8983 2.9378,1.3062 6.202,0.9798 5.2228,2.6122 5.8757,6.8575 5.8755,3.2654 7.1815,2.6125 4.5699,5.878 -0.3266,2.6122 -1.3056,2.2858 4.8963,3.9842 2.285,0.3265 3.9171,1.3061 1.9585,3.9185 3.917,-1.306 2.2849,1.9592 4.57,7.5107 5.5493,1.9592 2.6113,1.6327 7.8342,2.2858 1.632,5.2249 -0.6528,3.9185 1.6323,1.3062 1.632,5.2247 5.8756,1.9592 4.8963,5.225 4.2435,2.6123 5.5491,0.9795 8.8135,3.5922 8.1606,8.4902 8.4871,3.2654 3.2642,5.2249 6.8548,1.9591 7.8342,2.6125 1.9587,5.2246 1.9585,-0.6529 6.5283,0.9796 3.9171,-0.9796 5.2229,-7.5106 4.8964,0.3264 4.2435,3.592 4.5699,0.3266 6.2019,-4.245 6.202,-1.6327 2.2851,-5.5514 3.2643,-0.9797 h 5.5491 l 2.2849,-2.9389 3.2643,0.6531 1.9584,-0.3265 -0.6528,-6.2044 2.6114,-5.8778 4.2436,-4.2451 2.6113,1.3062 1.9586,2.9389 2.6113,-2.6125 3.5907,-1.6326 1.9586,-4.2452 2.2849,-6.8575 2.9378,-5.2247 2.938,-2.6125 2.2849,-3.9186 8.4869,-5.8778 6.202,-3.9187 3.5907,-3.5918 0.3264,-3.592 5.2228,-9.47 2.6114,-3.592 2.6113,-0.9798 1.6322,-1.6326 3.2643,2.286 2.2849,3.5917 2.285,0.3267 1.3056,2.2858 2.2849,-2.2858 2.2851,-0.3267 v -2.9388 l -0.9792,-1.6327 4.5699,-0.3265 2.9377,-3.2655 3.74,0.416 z"
     style="display:inline;fill:#c12838;fill-opacity:1;stroke:#646464;stroke-width:0.42666668;stroke-linecap:butt;stroke-linejoin:round;stroke-miterlimit:4;stroke-dasharray:none;stroke-opacity:1"
     id="Pereira,_Código_DANE_:_66001" />
  <path
     d="m 311.8579,707.9707 h -2.9711 l -7.9227,5.967 h -3.3011 l -8.5827,5.6358 -6.2723,-2.6524 -8.583,-6.9614 h -1.6503 l -5.6122,6.6301 -10.2335,-0.3315 -4.6214,-8.6189 -9.243,-7.2934 0.8253,-6.4641 2.4758,-7.127 -1.3205,-6.6298 4.6217,-4.6416 -1.3206,-9.9449 -4.5661,-0.7287 1.5139,-3.7208 -1.0902,-4.362 0.8722,-3.0534 3.2702,-0.8724 0.4361,-3.4896 v -3.2716 l 2.8342,-0.4362 -0.2179,-5.2343 -3.2704,-6.1069 -4.7964,-5.4527 -0.6541,-2.399 6.9767,-0.218 3.2703,-4.7983 -0.4361,-4.362 h 1.5261 l 2.3983,-1.5268 h 7.4126 l 4.3603,2.6173 1.7442,-1.9629 -0.2181,-2.3992 1.9622,-3.0535 v -1.5265 l -1.9622,-1.7448 -1.5261,-3.4896 2.1802,-2.6173 v -7.1975 l 2.6162,-0.8724 1.0902,-1.5266 2.1802,-0.8724 2.1801,2.1811 2.6161,0.2179 3.0524,-1.3085 3.3498,-2.8216 4.0161,0.9375 0.9234,2.0781 3.0004,-0.9238 1.385,3.4637 1.8466,1.3855 0.2307,1.8471 -0.9232,1.6164 -0.4616,5.3107 1.6156,2.54 h 3.9239 l 1.1541,1.6161 3.2315,1.8474 0.6925,3.0018 3.693,-1.3855 0.4615,4.1564 h 2.0775 l 0.2307,0.9235 0.4616,1.1546 v 2.7709 l 3.2315,-0.231 1.1541,2.0781 1.3848,0.6928 0.2309,2.309 1.6157,4.387 2.7699,1.3856 1.154,3.2326 4.6163,0.231 0.9233,1.6163 2.3081,-0.462 0.231,4.1565 1.154,1.3853 -0.4618,3.4637 3.2316,0.2307 2.7697,-0.2307 0.6925,2.309 -1.385,1.6163 0.4617,1.6163 4.6163,-0.2309 -0.2307,1.8472 -1.1542,1.1546 v 3.6944 l 3.2314,1.1546 1.6157,2.5399 1.4905,3.712 -1.2,1.5827 -1.4688,-1.4694 -1.7953,1.6328 1.4688,3.9185 -1.3056,1.7961 -3.1011,-4.0819 -1.4688,1.6327 2.9377,3.7552 -2.2849,1.7962 -1.9586,-0.6532 0.1632,3.7553 3.2643,3.4288 0.4896,3.7552 -4.5805,-0.2548 -5.5732,8.1961 -3.4422,1.1473 -1.8031,3.4422 -2.9505,0.9836 -2.6227,-7.2124 -5.4093,0.8196 -1.3114,2.7865 2.2948,2.9506 -3.6665,4.2277 z"
     style="display:inline;fill:#fefee9;fill-opacity:1;stroke:#646464;stroke-width:0.42666668;stroke-linecap:butt;stroke-linejoin:round;stroke-miterlimit:4;stroke-dasharray:none;stroke-opacity:1"
     id="Balboa,_Código_DANE_:_66075" />
  <path
     d="m 172.2442,563.1197 9.9033,5.3038 0.6602,6.63 6.6023,5.3043 2.126,8.3184 -1.3206,7.2928 7.9229,7.2931 v 7.9556 l 5.942,7.2934 -1.9807,5.9668 3.301,1.9891 v 9.2822 l 4.6216,3.3151 1.3205,5.9667 6.6022,1.9889 5.2817,3.9782 3.816,5.6049 6.6023,3.3145 9.8562,5.0023 1.593,-3.8307 -1.0902,-4.362 0.8722,-3.0534 3.2702,-0.8724 0.4361,-3.4896 v -3.2716 l 2.8342,-0.4362 -0.2179,-5.2343 -3.2704,-6.1069 -4.7964,-5.4527 -0.6541,-2.399 6.9767,-0.218 3.2703,-4.7983 -0.4361,-4.362 h 1.5261 l 2.3983,-1.5268 h 7.4126 l 4.3603,2.6173 1.7442,-1.9629 -0.2181,-2.3992 1.9622,-3.0535 v -1.5265 l -1.9622,-1.7448 -1.5261,-3.4896 2.1802,-2.6173 v -7.1975 l 2.6162,-0.8724 1.0902,-1.5266 2.1802,-0.8724 2.1801,2.1811 2.6161,0.2179 3.0524,-1.3085 3.3326,-2.7337 -8.3163,-5.776 -4.2435,-6.2045 -2.9378,-12.0822 -4.2435,-2.6124 -3.5907,-2.6123 -6.8549,3.5918 -5.2227,-0.6529 -2.285,-2.9389 -2.2849,-11.7558 -4.5699,-4.5718 -3.9171,-2.2857 -12.0777,3.2655 -8.487,4.2452 -3.5908,5.8778 -8.4868,3.9186 -10.4456,-4.8983 -6.8549,-1.9592 -14.0361,1.3062 -5.9292,0.1088 z"
     style="display:inline;fill:#fefee9;fill-opacity:1;stroke:#646464;stroke-width:0.42666668;stroke-linecap:butt;stroke-linejoin:round;stroke-miterlimit:4;stroke-dasharray:none;stroke-opacity:1"
     id="La_Celia,_Código_DANE_:_66383" />
  <path
     d="m 394.9654,233.4139 -2.2989,-5.0503 -5.5829,-4.0009 -1.9706,2.3339 -4.926,-6.0016 -2.9557,2.3339 -8.8667,0.328 5.2543,-7.2811 1.642,-9.336 2.9557,-5.6681 -0.1088,-15.9868 -0.6739,-8.9371 -4.3654,-4.0786 0.6186,-8.5902 -2.7396,-6.9679 -3.3305,-3.5334 -0.1424,-6.0166 2.2874,-1.0273 1.5728,-3.6687 -2.8595,-1.3207 -1.5725,-3.5219 3.5741,-2.3479 0.1736,-3.6687 -2.1445,-0.587 -0.8576,-7.0669 0.7148,-3.0818 -2.8902,-2.7882 -3.1452,-6.6035 2.6072,-5.5462 -18.733,12.6755 -6.0231,-1.7476 -4.9248,2.5834 -4.0115,-2.0057 -2.5788,3.1519 h -4.8711 l 0.8595,-5.1577 -3.7249,-3.4384 h -5.1576 l -6.0225,-4.8558 -8.7737,-8.998 -1.5588,-4.6769 -12.0265,-0.8907 -2.8953,2.4498 -3.786,-1.7818 -4.8998,4.8996 h -2.0042 l -2.6727,-6.2358 -8.0176,-4.4542 -10.2447,-1.1136 -6.6813,-11.3583 0.2227,-7.3494 -10.2447,-7.5723 -3.1179,-6.4585 0.4454,-8.4631 -4.8997,-3.3407 -3.2256,-3.7312 -9.0817,-0.2398 h -4.9957 l -7.1182,-4.5861 -11.2406,-2.9179 -12.7185,0.8196 -5.8502,1.3776 -4.8154,9.2025 -5.5528,4.7483 -10.8083,0.7574 -3.78,4.9178 0.8011,4.7286 -6.2603,7.7858 -4.4745,2.5252 0.4163,3.3351 2.4977,1.2508 v 4.1684 l 6.6611,10.0053 4.5794,5.4196 0.042,15.4244 -2.9142,5.4194 0.8326,15.0075 4.9959,6.2531 -3.7469,13.3404 0.6384,5.7146 1.7297,10.2012 2.6114,7.5105 -0.5244,7.7062 6.2019,7.5107 4.8966,12.0822 6.8548,12.0822 1.3056,6.8576 6.5285,-3.2656 19.1306,-3.592 h 5.2227 l 1.9585,5.2248 5.2227,2.6124 2.938,11.1027 18.9324,5.0291 4.57,-0.3266 12.6662,10.6451 20.7628,0.392 1.9584,2.6125 3.9171,1.6326 1.3057,4.8983 -2.9377,6.8576 3.9169,9.1433 -1.9585,4.5715 -2.1565,0.7187 -2.2207,7.1841 -3.5907,7.5106 2.6114,10.776 8.8135,7.5105 -0.3264,8.8168 -2.6115,2.939 5.8758,4.245 1.632,6.8576 6.8548,11.4292 8.405,3.4215 2.0942,-7.2464 7.7082,-7.7111 h 4.0083 l 5.2415,-1.8506 7.3998,-0.3085 2.7749,2.1591 4.9331,-1.2339 4.3166,-9.2531 2.4666,-0.3085 1.5416,-0.6167 5.2416,-4.9353 6.7831,0.9255 4.9332,0.9253 0.6166,4.3181 6.6247,-6.2412 11.104,3.118 -1.0792,-9.2144 -1.8499,-4.0098 V 286.153 l -5.8581,-7.287 -2.1584,-8.9447 6.7832,-9.5618 9.9083,-5.6292 3.5832,-8.328 0.4999,-6.4 4.5081,-0.6169 3.6308,-4.6653 z"
     style="display:inline;fill:#fefee9;fill-opacity:1;stroke:#646464;stroke-width:0.42666668;stroke-linecap:butt;stroke-linejoin:round;stroke-miterlimit:4;stroke-dasharray:none;stroke-opacity:1"
     id="Mistrato,_Código_DANE_:_66456" />
  <path
     d="m 475.121,305.6302 -1.9446,-5.9057 1.2333,-9.2534 -4.0081,-4.0097 -4.0083,-0.9253 -7.0915,-13.5713 -0.9251,-6.169 -2.7748,-3.0843 -6.783,-0.9255 4.0081,-10.1785 4.9331,-4.9349 2.1584,-7.7112 5.2415,-2.4675 -1.5417,-8.0196 4.9331,-7.711 2.5127,-8.1827 6.0041,-2.2381 4.5978,3.3343 7.5535,-2.334 2.6272,-8.0022 -1.3136,-2.3339 0.6567,-2.3341 v 0 l 4.6954,2.3834 3.6082,-0.656 0.656,4.9201 11.4803,5.5762 3.9361,-2.296 1.64,1.64 v 2.624 l 6.2323,-3.608 3.6081,1.968 v 5.5761 l -3.6081,2.6242 3.2801,0.984 0.328,4.2641 7.2162,0.328 v 1.64 3.2803 l 8.5283,11.8083 9.8403,1.9681 5.2481,-1.9681 5.5642,2.2947 0.6568,4.3345 -6.2396,5.0013 -0.6569,5.3349 2.2989,5.0013 -1.3136,6.6685 4.5976,5.6682 h 4.2693 l 6.239,3.7328 -2.6308,4.329 -4.2694,7.3356 -4.926,6.3348 -1.9706,10.0029 -3.6125,2.6674 3.6125,6.6685 -5.2545,5.3348 -6.2397,2.3341 -6.2399,4.6678 -8.867,2.6674 -3.9408,-6.0015 -10.1807,1.3335 -3.9409,-1.3335 -10.1807,1.3335 -2.6273,-3.0007 -5.2546,-1.6669 -4.9261,2.0004 -0.9852,-5.3347 -7.5533,-3.6677 -4.2692,-11.3366 z"
     style="display:inline;fill:#fefee9;fill-opacity:1;stroke:#646464;stroke-width:0.42666668;stroke-linecap:butt;stroke-linejoin:round;stroke-miterlimit:4;stroke-dasharray:none;stroke-opacity:1"
     id="Quinchia,_Código_DANE_:_66594" />
  <path
     d="m 405.7902,318.8353 -4.4535,1.2463 -7.0913,-3.0844 h -12.333 l -1.2334,-9.2532 -1.8499,-4.0098 V 286.153 l -5.8581,-7.287 -2.1584,-8.9447 6.7832,-9.5618 9.9083,-5.6292 3.5832,-8.328 0.4999,-6.4 4.5081,-0.6169 3.5582,-4.5152 3.5338,-3.7979 9.4994,1.6099 5.9114,2.5536 5.5964,-4.2208 11.4942,0.6669 9.1955,-6.0018 10.1807,-4.3345 3.2842,-9.0026 8.5386,-6.0016 4.2732,6.0487 -2.6095,8.3732 -4.9331,7.711 1.5417,8.0196 -5.2415,2.4675 -2.1584,7.7112 -4.9331,4.9349 -4.0081,10.1785 6.783,0.9255 2.7748,3.0843 0.9251,6.169 7.0915,13.5713 4.0083,0.9253 4.0081,4.0097 -1.2333,9.2534 1.9802,6.0691 -6.6277,5.6419 -0.9852,4.0011 -2.6272,-0.3335 -4.9263,1.0004 -6.8965,-0.6669 -7.8818,-12.0033 -2.6273,-8.0023 -6.2397,2.6673 -1.9705,3.6678 0.6567,5.6682 -5.5828,3.3344 -5.5829,-1.6672 -0.9853,5.0015 -6.8967,6.3351 -5.2545,-0.3335 -2.9557,-3.3343 z"
     style="display:inline;fill:#fefee9;fill-opacity:1;stroke:#646464;stroke-width:0.42666668;stroke-linecap:butt;stroke-linejoin:round;stroke-miterlimit:4;stroke-dasharray:none;stroke-opacity:1"
     id="Guática,_Código_DANE_:_66318" />
  <path
     d="m 347.0022,457.8214 0.3784,-4.4923 -3.3915,-1.2337 -0.925,-6.169 -5.5499,-1.5423 -4.6248,4.6268 h -2.7749 v -7.0943 l -2.4667,-6.4772 h -2.4666 l -2.4666,-6.4774 -5.8582,-3.3927 -1.8499,-3.3929 -3.3915,-3.0845 -2.1583,-3.7012 -6.7831,-9.8703 -0.6167,-6.4772 1.85,-3.7013 -4.0083,-8.9447 0.6167,-4.0097 5.5497,-6.1689 1.8502,-9.8703 -3.3917,-3.7013 -0.019,-3.0843 -2.2453,-5.9156 2.021,-8.2512 1.7844,-7.4241 7.7082,-7.7112 h 4.0083 l 5.2415,-1.8506 7.3998,-0.3085 2.7749,2.1591 4.9331,-1.2337 4.3166,-9.2531 2.4666,-0.3085 1.5416,-0.6169 5.2416,-4.9351 6.7831,0.9254 4.9332,0.9252 0.6166,4.3181 6.6247,-6.241 11.1042,3.1178 12.4874,0.038 7.0916,3.0844 4.4082,-1.241 0.058,9.5997 3.2841,5.0013 v 5.6682 l 2.9557,7.3353 4.926,6.0017 7.5535,-1.0003 0.6568,2.0006 1.3136,14.6708 -4.9261,7.3353 v 4.6681 l 4.2693,3.3342 0.9853,6.3349 -5.9113,7.002 -4.5978,-1.0003 -0.6569,6.6687 2.2989,1.667 -4.9262,7.0021 -4.2693,3.0007 -1.3136,5.6684 -3.6125,4.3344 2.2989,3.0008 -3.6125,4.0012 -5.2545,3.3341 3.9408,2.334 -1.6419,4.0011 0.3283,1.3337 -1.6421,8.6691 -2.9556,4.6679 1.642,4.6681 -2.9556,12.0033 -4.5978,1.3336 -5.2544,-5.6681 0.3283,-6.3351 -6.2397,-2.6674 -7.2251,-2.6675 -5.9114,2.6675 h -3.2839 l -4.5978,-5.3348 -4.5978,4.001 z"
     style="display:inline;fill:#fefee9;fill-opacity:1;stroke:#646464;stroke-width:0.42666668;stroke-linecap:butt;stroke-linejoin:round;stroke-miterlimit:4;stroke-dasharray:none;stroke-opacity:1"
     id="Belen_de_Umbria,_Código_DANE_:_66088" />
  <path
     d="m 312.3274,547.6542 3.2429,1.3219 3.5671,5.9497 9.7288,10.2452 0.9729,4.2966 2.9186,2.9746 -3.5672,1.322 -0.3243,4.6268 -1.9456,2.6443 2.9185,1.983 -0.3242,6.6102 -1.6217,2.3133 3.2431,6.28 5.513,7.2705 0.3241,5.9493 4.8643,6.2795 -1.2969,3.9657 2.594,3.9661 6.8101,0.9917 4.8644,3.6355 -0.3242,2.9744 4.8643,-0.6612 1.2973,6.2801 6.8099,3.966 6.1616,1.6522 -4.7708,2.9827 -4.0153,1.3814 -4.3086,-0.2679 -0.1632,1.4695 2.2849,1.4694 0.4896,2.6125 -1.4688,0.8163 -1.7953,2.939 -3.5907,-0.8164 0.1632,1.9593 1.6321,1.3061 1.1426,1.1429 4.4067,-0.6531 -1.7954,2.6125 -2.1217,0.4897 -2.1218,3.1023 -1.7953,0.1632 -0.4896,-1.9593 -0.9794,-1.3062 -1.1424,0.9797 1.3058,3.2654 h -1.6322 l -1.1425,-2.449 -1.2483,-0.6032 -1.4905,-3.712 -1.6157,-2.5399 -3.2314,-1.1546 v -3.6944 l 1.1542,-1.1545 0.2307,-1.8473 -4.6163,0.2309 -0.4617,-1.6163 1.385,-1.6163 -0.6925,-2.309 -2.7697,0.2307 -3.2316,-0.2307 0.4618,-3.4637 -1.154,-1.3853 -0.231,-4.1565 -2.3081,0.462 -0.9233,-1.6163 -4.6163,-0.2309 -1.154,-3.2327 -2.7699,-1.3856 -1.6157,-4.387 -0.2309,-2.309 -1.3848,-0.6928 -1.1541,-2.0781 -3.2315,0.231 v -2.7709 l -0.4616,-1.1546 -0.2307,-0.9235 h -2.0775 l -0.4615,-4.1564 -3.693,1.3855 -0.6925,-3.0018 -3.2315,-1.8473 -1.1541,-1.6161 h -3.9239 l -1.6156,-2.5401 0.4616,-5.3107 0.9232,-1.6163 -0.2307,-1.8472 -1.8466,-1.3855 -1.385,-3.4637 -3.0004,0.9238 -0.9234,-2.0781 -4.1719,-0.8357 -8.1777,-5.7899 -4.2435,-6.2045 -2.9378,-12.0822 -4.2435,-2.6124 -3.5907,-2.6123 -6.8549,3.5918 -5.2227,-0.6529 -2.285,-2.9389 -2.2849,-11.7558 -4.5699,-4.5717 -3.9171,-2.2858 -12.0777,3.2655 -8.487,4.2452 -3.5908,5.8778 -8.4868,3.9186 -10.4456,-4.8982 -6.8549,-1.9593 -14.0361,1.3062 -5.9586,0.1248 -4.7889,-1.1945 -6.0061,-8.5281 1.385,-18.7055 -5.9117,-18.1466 3.0004,-6.4505 -1.3056,-6.8576 3.5906,-5.2247 0.6529,-21.5521 1.6322,-9.7965 -2.9379,-14.368 0.9793,-4.8982 2.9378,-1.7961 1.3057,3.7555 4.5699,1.9591 5.5492,0.6531 0.6528,4.5718 4.8965,0.3265 0.3264,4.8982 1.9585,3.9186 4.2434,0.9795 2.6115,3.2654 h 2.2849 l 4.57,-6.5309 2.6114,-0.3265 4.8963,2.939 3.5907,-2.6125 h 8.8132 l 8.8135,-3.2653 9.4664,3.9185 4.8964,3.9186 4.2435,7.8371 5.5491,1.3062 2.2849,1.3063 1.3058,5.2246 2.6113,0.6532 2.9378,5.5513 3.2644,0.6531 1.3056,3.2654 1.9585,1.9593 2.285,5.5513 4.2435,1.3063 7.5076,4.5716 h 2.9379 l 1.9587,-2.9389 h 1.632 l 3.2643,3.5919 4.8963,0.9798 -2.6114,4.5716 -0.3264,4.8982 -5.2228,8.1636 -0.3264,2.286 -1.9587,2.9389 1.9587,2.9389 4.2435,7.5107 8.487,4.5715 6.5284,0.6531 1.632,5.8779 6.3033,2.8089 z"
     style="display:inline;fill:#fefee9;fill-opacity:1;stroke:#646464;stroke-width:0.42666668;stroke-linecap:butt;stroke-linejoin:round;stroke-miterlimit:4;stroke-dasharray:none;stroke-opacity:1"
     id="Santuario,_Código_DANE_:_66687" />
  <path
     d="m 412.1667,660.9027 -2.0582,7.329 2.4544,6.7575 -6.2291,2.295 -6.5565,-0.6557 -3.6063,3.6062 1.3113,6.8844 -3.9341,4.9175 -4.9174,12.4579 -5.2454,3.2783 -5.2455,-5.5731 -7.2122,-2.295 -4.262,-2.9505 -8.5236,-1.9669 -4.9175,-5.5732 -9.0226,-3.4377 -0.4896,-3.7552 -3.2643,-3.4288 -0.1632,-3.7553 1.9586,0.6532 2.2849,-1.7961 -2.9377,-3.7552 1.4688,-1.6328 3.1011,4.082 1.3056,-1.7961 -1.4688,-3.9185 1.7953,-1.6329 1.4688,1.4695 1.3058,-1.796 1.1424,0.8165 1.1425,2.4489 h 1.6323 l -1.3059,-3.2654 1.1424,-0.9797 0.9795,1.3062 0.4896,1.9593 1.7953,-0.1632 2.1218,-3.1023 2.1217,-0.4897 1.7954,-2.6125 -4.4067,0.6531 -1.1426,-1.1429 -1.6321,-1.306 -0.1632,-1.9594 3.5907,0.8164 1.7953,-2.9389 1.4688,-0.8164 -0.4896,-2.6124 -2.2849,-1.4695 0.1632,-1.4694 4.5203,0.2665 3.762,-1.3155 3.1911,3.8941 11.032,-3.4956 12.6473,7.2713 h 4.5401 l 8.4314,1.9831 3.5673,3.6351"
     style="display:inline;fill:#fefee9;fill-opacity:1;stroke:#646464;stroke-width:0.42666668;stroke-linecap:butt;stroke-linejoin:round;stroke-miterlimit:4;stroke-dasharray:none;stroke-opacity:1"
     id="La_Virginia,_Código_DANE_:_66400" />
  <path
     d="m 508.0672,628.8307 1.3056,8.1636 -1.632,5.2249 2.9377,3.9185 0.6528,7.1842 3.5907,3.9184 5.2227,0.6532 v 4.2451 l 7.5079,8.8167 6.5283,0.9797 2.285,4.8983 3.9171,2.2857 -0.9792,3.592 -3.9171,0.9797 -0.9792,2.2857 1.3056,2.9391 -0.1632,5.5514 -3.101,3.9184 -10.1192,2.939 -3.5906,3.2655 -5.386,0.9796 -1.1424,-8.8168 -6.8549,-2.6124 -6.5285,-4.5718 -9.1398,-1.6326 -8.487,7.184 h -1.9587 l -6.5284,6.5309 -6.5285,3.9187 h -3.2641 l -5.223,3.592 h -4.2433 l -4.5701,-4.2451 -3.2641,-7.184 -5.8757,-6.531 -8.1605,-0.9795 -9.1398,0.3264 -1.6322,-6.8575 -2.9377,-5.8778 -5.223,-2.2859 -2.598,-7.2962 2.0822,-7.3814 2.8976,-4.9808 8.4316,-6.2795 0.3241,-3.9661 1.6216,-2.3135 3.8915,1.9833 5.5129,-2.3138 1.9457,-6.9406 3.5672,-1.6524 -1.2872,-3.305 -4.2155,-2.6444 -2.2701,-2.6439 v -9.254 l -3.2431,-1.6523 0.973,-2.6441 4.2157,-2.3137 1.2973,-1.9826 -1.6217,-3.9662 -2.9185,-2.3135 6.8101,-2.9744 2.5944,-6.9404 7.1344,-1.9832 -1.9458,-2.6441 -4.5402,-0.6612 -0.6484,-2.3131 4.8643,-5.2881 -0.6485,-7.9321 6.4857,5.6182 4.8643,-2.9744 -4.5399,-2.9748 1.297,-6.279 2.5943,-3.3052 h 4.2159 l 6.4858,-4.6269 v -9.585 l 4.5399,-3.305 4.2157,-4.6271 3.8915,-0.3306 1.6215,7.6022 3.2431,2.9744 v 4.2966 l 3.8913,4.9572 3.8915,2.3136 -0.6486,1.9831 -3.8916,1.3219 -0.3241,0.9919 6.1615,4.9574 v 3.6353 l 3.5671,4.6268 0.6486,3.9664 3.2429,3.3047 -0.6486,2.6439 1.9458,3.3052 -1.2972,3.9661 2.5943,4.6269 h 1.9456 l 1.2973,3.9663 1.9458,1.9831 -3.2431,3.3049 3.2431,5.2884 -0.6791,7.2995 z"
     style="display:inline;fill:#fefee9;fill-opacity:1;stroke:#646464;stroke-width:0.42666668;stroke-linecap:butt;stroke-linejoin:round;stroke-miterlimit:4;stroke-dasharray:none;stroke-opacity:1"
     id="Marsella,_Código_DANE_:_66440" />
  <path
     id="Dosquebradas,_Código_DANE_:_66170"
     style="display:inline;fill:#fefee9;fill-opacity:1;stroke:#646464;stroke-width:0.42666668;stroke-linecap:butt;stroke-linejoin:round;stroke-miterlimit:4;stroke-dasharray:none;stroke-opacity:1"
     d="m 574.9619,785.887 4.1331,-0.2447 3.2314,-3.4634 6.2321,-0.6928 1.3848,-4.849 -1.3848,-4.8489 3.2313,-3.0019 0.4617,-4.8489 4.3856,-3.0017 1.6157,-9.9289 -2.5391,0.6927 h -2.0772 l -3.9239,3.2327 h -1.3849 l -0.231,-4.6182 4.1548,-3.6944 -0.4617,-7.3889 2.0774,-2.309 v -2.3091 l -4.8471,-5.7726 -7.1554,-11.5452 -3.6929,-5.3108 -3.2316,-10.3907 -11.7715,-4.3871 h -3.9239 v 3.2326 l -2.7698,1.3855 -3.4622,-3.9254 h -2.0774 l -1.3849,3.2326 -4.1547,0.6928 -4.1545,-3.4636 v -2.5399 l -3.6932,0.6928 -1.7909,-2.2255 -3.2086,4.0978 -10.1192,2.939 -3.5906,3.2655 -5.2678,0.9796 1.0243,2.9389 -1.6321,7.5107 -2.285,1.3062 v 6.2044 l -2.6113,1.9592 1.3056,8.1637 -3.9171,8.4903 0.9792,8.1636 1.9587,2.6124 v 5.5513 l 1.3057,0.9796 4.8963,-4.5716 5.5491,-0.9797 6.5285,2.6125 6.2021,0.9795 4.2435,4.8982 2.9378,1.3063 6.202,0.9797 5.2227,2.6123 5.8758,6.8575 5.8755,3.2653 7.1814,2.6125 z" />
  <path
     d="m 304.522,362.6461 3.3917,3.7012 -1.85,9.8703 -5.5498,6.169 -0.6166,4.0097 4.0081,8.9446 -1.85,3.7013 0.6167,6.4773 6.7832,9.8703 2.1582,3.7012 3.3916,3.0845 1.8499,3.3928 5.8583,3.3928 2.4665,6.4773 h 2.4666 l 2.4666,6.4772 v 7.0943 h 2.775 l 4.6247,-4.6268 5.55,1.5423 0.9249,6.169 3.3916,1.2337 -0.3642,4.4252 -9.8496,8.3917 -7.2249,14.6708 2.6273,11.0031 -7.2251,6.6685 -12.151,4.001 -0.3286,5.3347 4.2695,6.0019 4.926,12.3366 -4.2182,9.5946 -4.2158,8.9236 -2.6432,1.3397 -6.2765,-2.744 -1.632,-5.878 -6.5285,-0.6531 -8.487,-4.5715 -4.2436,-7.5107 -1.9585,-2.9389 1.9585,-2.9389 0.3264,-2.2858 5.223,-8.1638 0.3264,-4.8982 2.6113,-4.5715 -4.8963,-0.9799 -3.2644,-3.5918 h -1.632 l -1.9585,2.9389 h -2.9379 l -7.5077,-4.5717 -4.2435,-1.3063 -2.2849,-5.5513 -1.9587,-1.9592 -1.3056,-3.2655 -3.2643,-0.6531 -2.9377,-5.5511 -2.6114,-0.6534 -1.3057,-5.2246 -2.285,-1.3062 -5.5491,-1.3063 -4.2436,-7.8371 -4.8963,-3.9185 -9.4663,-3.9186 -8.8135,3.2655 h -8.8133 l -3.5907,2.6125 -4.8963,-2.9391 -2.6113,0.3266 -4.57,6.5309 h -2.285 l -2.6115,-3.2655 -4.2433,-0.9796 -1.9586,-3.9185 -0.3264,-4.8982 -4.8964,-0.3266 -0.6528,-4.5716 -5.5492,-0.6532 -4.5699,-1.9592 -1.469,-3.7553 6.6917,-3.1023 12.404,-0.6529 15.0156,0.9795 8.1606,-2.6124 5.5491,0.9795 18.3729,-3.7949 6.2685,-2.7255 h 6.2685 l 5.1784,-1.9078 10.0842,-16.0802 -1.6352,-17.1703 -5.9961,-4.3607 -2.1804,-3.8157 1.3627,-2.7254 5.1784,-2.1804 5.996,-8.9939 h 3.5431 l 4.3607,-7.9038 1.0903,-8.1763 2.7254,-3.2707 2.7254,0.8176 3.8156,5.9961 12.2647,5.7233 4.6332,-1.09 10.5221,0.078 z"
     style="fill:#fefee9;fill-opacity:1;stroke:#646464;stroke-width:0.42666668;stroke-linecap:butt;stroke-linejoin:round;stroke-miterlimit:4;stroke-dasharray:none;stroke-opacity:1"
     id="Apia,_Código_DANE_:_66045" />
  <path
     d="m 209.7159,431.2701 -5.5491,-0.9795 -8.1606,2.6122 -15.0155,-0.9795 -12.4041,0.653 -6.5945,3.0765 -2.8717,1.8218 -0.9793,4.8982 2.9379,14.368 -1.6322,9.7965 -0.6529,21.5521 -3.5906,5.2246 1.3056,6.8576 -2.8734,6.9578 -23.301,-11.4583 -6.9252,-11.7776 1.385,-7.6205 -3.4627,-13.1632 -3.4627,-11.7775 9.0031,-12.4702 4.8477,-16.6272 -13.1581,-32.5615 -13.1581,-16.627 -9.5196,-7.9285 2.5367,-7.61 -8.244,-10.1465 -8.8783,-0.3169 -4.439,-5.3904 0.9512,-6.0246 -10.4636,-4.122 -0.9513,-4.439 2.2195,-3.805 -6.0244,-5.3904 1.2683,-12.6832 -17.1223,-28.5371 -5.7075,-3.1708 6.3417,-5.3904 -1.5853,-2.5366 -7.9271,-2.2195 3.4878,-6.3416 -0.3171,-2.8537 -11.7318,-8.2441 9.1952,-3.4878 0.9513,-7.927 -1.5854,-3.805 7.61,-3.4878 c 0,0 -1.5855,-7.2928 -1.5855,-8.8783 0,-1.5854 2.8537,-13.9515 2.8537,-13.9515 l 6.3417,-6.6585 -2.8538,-15.2199 7.2928,-1.9026 5.7075,15.2198 6.9757,-6.3415 15.2199,-3.4879 5.0732,5.3904 4.4391,-11.0977 5.7075,1.9024 5.3902,-4.439 9.5125,-1.5855 3.8048,2.5366 6.6587,-6.9757 7.2928,-17.1223 8.5612,-4.4391 4.122,4.1221 7.5887,-2.1883 1.6321,10.4496 2.6114,7.5105 -0.5244,7.7062 6.2019,7.5107 4.8966,12.0822 6.8548,12.0822 1.3056,6.8576 6.5285,-3.2656 19.1306,-3.592 h 5.2227 l 1.9585,5.2248 5.2227,2.6124 2.938,11.1027 18.9324,5.0291 4.57,-0.3266 12.6662,10.6451 20.7628,0.392 1.9584,2.6125 3.9171,1.6326 1.3057,4.8983 -2.9377,6.8576 3.9169,9.1433 -1.9585,4.5715 -2.1565,0.7187 -2.2207,7.1841 -3.5907,7.5106 2.6114,10.776 8.8135,7.5105 -0.3264,8.8168 -2.6115,2.939 5.8758,4.245 1.632,6.8576 6.8548,11.4292 8.5586,3.449 -1.7037,8.3066 1.9968,6.1048 -10.6448,-0.046 -4.6332,1.09 -12.2647,-5.7233 -3.8156,-5.9961 -2.7254,-0.8176 -2.7254,3.2706 -1.0903,8.1764 -4.3607,7.9038 h -3.5431 l -5.996,8.9939 -5.1784,2.1803 -1.3627,2.7255 2.1804,3.8157 5.9961,4.3607 1.6352,17.1703 -10.0842,16.0802 -5.1784,1.9078 h -6.2685 l -6.2685,2.7254 z"
     style="fill:#fefee9;fill-opacity:1;stroke:#646464;stroke-width:0.42666668;stroke-linecap:butt;stroke-linejoin:round;stroke-miterlimit:4;stroke-dasharray:none;stroke-opacity:1"
     id="Pueblo_Rico,_Código_DANE_:_66572" />
  <g
     id="layer10"
     style="display:inline"
     transform="translate(-1393.246,-3840.1263)">
    <path
       id="path5942"
       style="display:inline;fill:none;stroke:#646464;stroke-width:2.66666675;stroke-linecap:butt;stroke-linejoin:round;stroke-miterlimit:4;stroke-dasharray:none;stroke-opacity:1"
       d="m 1543.4525,3896.7971 -0.8011,-4.7286 3.78,-4.9178 10.8083,-0.7574 5.5528,-4.7483 4.8154,-9.2025 5.8502,-1.3776 12.7185,-0.8196 11.2406,2.9179 7.1182,4.5861 h 4.9957 l 9.0817,0.2398 3.2256,3.7312 4.8997,3.3407 -0.4454,8.4631 3.1179,6.4585 10.2447,7.5723 -0.2227,7.3494 6.6813,11.3583 10.2447,1.1136 8.0176,4.4542 2.6727,6.2358 h 2.0042 l 4.8998,-4.8996 3.786,1.7818 2.8953,-2.4498 12.0265,0.8907 1.5588,4.6769 8.7737,8.998 6.0225,4.8558 h 5.1576 l 3.7249,3.4384 -0.8595,5.1577 h 4.8711 l 2.5788,-3.1519 4.0115,2.0057 4.9248,-2.5834 6.0231,1.7476 18.733,-12.6755 -2.6072,5.5462 3.1452,6.6035 2.8902,2.7882 -0.7148,3.0818 0.8576,7.0669 2.1445,0.587 -0.1736,3.6687 -3.5741,2.3479 1.5725,3.5219 2.8595,1.3207 -1.5728,3.6687 -2.2874,1.0273 0.1424,6.0166 3.3305,3.5334 2.7396,6.9679 -0.6186,8.5902 4.3654,4.0786 0.6739,8.9371 0.1088,15.9868 -2.9557,5.6681 -1.642,9.336 -5.2543,7.2811 8.8667,-0.328 2.9557,-2.3339 4.926,6.0016 1.9706,-2.3339 5.5829,4.0009 2.2989,5.0503 4.9261,1.3337 3.2958,-3.6753 9.4994,1.6099 5.9114,2.5536 5.5964,-4.2208 11.4942,0.6669 9.1955,-6.0018 10.1807,-4.3345 3.2842,-9.0026 8.5386,-6.0016 4.2692,6.3351 5.9113,-2.334 4.5978,3.3343 7.5535,-2.334 2.6272,-8.0022 -1.3136,-2.3339 0.6567,-2.3341 v 0 l 4.6954,2.3834 3.6082,-0.656 0.656,4.9201 11.4803,5.5762 3.9361,-2.296 1.64,1.64 v 2.624 l 6.2323,-3.608 3.6081,1.968 v 5.5761 l -3.6081,2.6242 3.2801,0.984 0.328,4.2641 7.2162,0.328 v 1.64 3.2803 l 8.5283,11.8083 9.8403,1.9681 5.2481,-1.9681 5.5642,2.2947 0.6568,4.3345 -6.2396,5.0013 -0.6569,5.3349 2.2989,5.0013 -1.3136,6.6685 4.5976,5.6682 h 4.2693 l 6.239,3.7328 -2.6308,4.329 -4.2694,7.3356 -4.926,6.3348 -1.9706,10.0029 -3.6125,2.6674 3.6125,6.6685 -5.2545,5.3348 -6.2397,2.3341 -6.2399,4.6678 -8.867,2.6674 -3.9408,-6.0015 -10.1807,1.3335 -3.9409,-1.3335 -10.1807,1.3335 -2.6273,-3.0007 -5.2546,-1.6669 -4.9261,2.0004 -0.9852,-5.3347 -7.5533,-3.6677 -4.2692,-11.3366 -3.9411,1.3338 -6.5681,5.6681 -0.9852,4.0011 -2.6272,-0.3335 -4.9263,1.0004 -6.8965,-0.6669 -7.8818,-12.0033 -2.6273,-8.0023 -6.2397,2.6673 -1.9705,3.6678 0.6567,5.6682 -5.5828,3.3344 -5.5829,-1.6672 -0.9853,5.0015 -6.8967,6.3351 -5.2545,-0.3335 -2.9557,-3.3343 -1.9703,2.0006 v 9.6694 l 3.2841,5.0013 v 5.6682 l 2.9556,7.3353 4.9261,6.0017 7.5535,-1.0003 0.6568,2.0006 1.3136,14.6708 -4.9261,7.3353 v 4.6681 l 4.2693,3.3342 0.9853,6.3349 -5.9114,7.002 -4.5977,-1.0003 -0.6569,6.6687 2.2989,1.667 -4.9262,7.0021 -4.2693,3.0007 -1.3136,5.6684 -3.6125,4.3344 2.2989,3.0008 -3.6125,4.0012 -5.2545,3.3341 3.9408,2.334 -1.6419,4.0011 0.3283,1.3337 -1.6421,8.6691 -2.9557,4.6679 1.6421,4.6681 -2.9557,12.0033 -4.5977,1.3336 -5.2544,-5.6681 0.3283,-6.3351 -6.2397,-2.6674 -7.2252,-2.6675 -5.9113,2.6675 h -3.284 l -4.5977,-5.3348 -4.5978,4.001 -5.5829,0.3334 -9.8523,8.3357 -7.2249,14.6708 2.6273,11.0031 -7.2251,6.6685 -12.151,4.001 -0.3286,5.3347 4.2695,6.0019 4.926,12.3366 -4.2182,9.5946 -4.2158,8.9236 -2.5944,1.3221 1.2972,1.6523 3.2429,1.3219 3.5671,5.9497 9.7288,10.2452 0.9729,4.2966 2.9186,2.9746 -3.5672,1.322 -0.3243,4.6268 -1.9456,2.6443 2.9185,1.983 -0.3242,6.6102 -1.6217,2.3133 3.2431,6.28 5.513,7.2705 0.3241,5.9493 4.8643,6.2795 -1.2969,3.9657 2.594,3.9661 6.8101,0.9917 4.8644,3.6355 -0.3242,2.9744 4.8643,-0.6612 1.2973,6.2801 6.8099,3.966 6.1616,1.6522 -4.8645,2.9747 3.2429,3.9657 11.032,-3.4956 12.6473,7.2713 h 4.5401 l 8.4314,1.9831 3.5673,3.6351 2.9185,-4.9573 8.4316,-6.2795 0.3241,-3.9661 1.6216,-2.3135 3.8915,1.9833 5.5129,-2.3138 1.9457,-6.9406 3.5672,-1.6524 -1.2872,-3.305 -4.2155,-2.6444 -2.2701,-2.6439 v -9.254 l -3.2431,-1.6523 0.973,-2.6441 4.2157,-2.3137 1.2973,-1.9826 -1.6217,-3.9662 -2.9185,-2.3135 6.8101,-2.9744 2.5944,-6.9404 7.1344,-1.9832 -1.9458,-2.6441 -4.5402,-0.6612 -0.6484,-2.3131 4.8643,-5.2881 -0.6485,-7.9321 6.4857,5.6182 4.8643,-2.9744 -4.5399,-2.9748 1.297,-6.279 2.5943,-3.3052 h 4.2159 l 6.4858,-4.6269 v -9.585 l 4.5399,-3.305 4.2157,-4.6271 3.8915,-0.3306 1.6215,7.6022 3.2431,2.9744 v 4.2966 l 3.8913,4.9572 3.8915,2.3136 -0.6486,1.9831 -3.8916,1.3219 -0.3241,0.9919 6.1615,4.9574 v 3.6353 l 3.5671,4.6268 0.6486,3.9664 3.2429,3.3047 -0.6486,2.6439 1.9458,3.3052 -1.2972,3.9661 2.5943,4.6269 h 1.9456 l 1.2973,3.9663 1.9458,1.9831 -3.2431,3.3049 3.2431,5.2884 -0.6487,7.2707 6.1636,7.5437 5.1766,0.6445 0.6484,3.3052 5.8374,3.9662 4.1084,-1.8826 5.7768,0.2992 8.4976,1.9533 12.5093,-1.9796 9.3169,-2.3154 1.2618,-10.3555 5.4514,-3.2555 3.2067,-6.0229 4.6496,1.1394 2.4049,-1.1394 -2.8858,-3.5813 -3.3671,-0.8139 4.4893,-3.2558 5.4513,4.7207 1.6034,-3.5811 2.5652,3.744 4.8102,-2.1162 2.2446,2.2791 -2.2446,1.1394 -1.6034,3.0929 3.5273,2.1162 2.0844,-0.6512 1.1222,2.1163 -2.2447,4.2324 5.2911,2.9299 -0.3206,5.6974 2.0843,1.7907 -0.6414,4.7206 -2.886,5.0461 2.405,3.9069 2.4049,-0.4883 1.2828,-3.0929 c 0,0 1.6033,0 2.4049,0 0.8018,0 4.329,4.2324 4.329,4.2324 l 6.0928,0.4882 1.8009,3.4119 h 2.7315 l 3.535,-4.9809 11.0867,-0.3215 5.4631,-3.8561 4.0169,0.8033 1.6068,-1.7674 3.0528,-0.3213 5.1418,13.1755 3.5349,1.2854 6.1057,-4.8203 4.4991,-0.3212 1.7675,2.7315 -0.3214,5.6237 4.6596,3.3741 1.2855,-1.2854 7.0699,-0.3213 9.1585,-5.945 9.6409,-0.3215 6.5876,4.6597 9.4802,-0.4819 3.0528,2.7315 7.0699,0.1606 1.6067,1.7675 -4.0169,4.3382 0.6427,3.2137 4.499,2.7315 4.017,0.482 2.5708,4.9811 -3.0528,4.0169 v 4.3383 l 4.6596,1.7674 9.48,0.4822 5.9452,3.3741 0.6426,3.535 -3.0529,2.4102 v 1.2855 l 1.4461,1.1245 1.1248,4.1776 4.9809,8.1948 10.4442,7.5518 1.7675,6.2665 -4.1778,1.6068 -1.4461,2.5708 3.3743,1.6068 0.3214,4.4989 7.8732,2.8923 -0.1606,13.1755 1.2854,3.6957 10.1227,4.0169 6.7484,7.8733 4.4991,0.4819 5.3024,-2.8921 4.8203,0.4821 5.463,5.7843 9.3065,1.2049 0.1248,11.9158 2.7697,10.1598 -1.6157,10.8523 -8.0785,6.6964 -2.5391,6.9271 0.6925,6.927 7.3862,8.5434 0.6924,7.8508 -3.4623,3.4637 -4.3854,3.4634 -0.4616,5.0799 -8.5402,1.3856 -2.7066,2.7456 -3.1942,-2.2815 -3.4221,1.8252 v 7.0726 l -5.0193,5.4756 -8.4415,0.9126 -2.0532,3.194 -2.0534,1.3689 -6.3882,-7.3007 -5.0192,1.3688 -1.3689,3.6504 1.3689,6.8445 -5.2473,6.16 h -11.6358 l -12.1955,2.9027 -7.1552,3.6944 -5.3088,6.927 -6.4628,1.8474 -7.617,-6.6961 -5.7704,-9.4672 -9.0017,-6.9271 -1.8467,-3.4635 -10.1559,-3.002 -7.3861,1.1546 -20.1963,-5.9063 -4.1546,-3.6944 -5.3088,-0.9238 -5.0779,3.0019 -2.0775,-1.3856 -5.0778,0.2311 -3.0007,-1.3854 -3.2313,-4.3872 -7.1555,0.2308 -7.8476,4.6182 h -4.1547 l -4.8473,-6.4655 -5.3088,1.6165 -5.6548,7.3696 -6.232,-0.2313 -5.5397,-2.7706 -6.232,1.6163 -8.5402,-2.7709 -4.6163,-3.6944 -2.3082,2.0781 -4.6163,0.9236 v 3.4636 l -4.3856,4.6182 -5.0778,-4.3872 -6.0012,-0.4617 0.2307,-2.7711 -2.5389,-2.0781 h -4.8471 l -1.6157,-3.2327 -4.1548,-3.0016 -4.8471,-0.231 -3.6439,-3.6477 h -5.2816 l -2.8368,1.8535 -5.8371,2.1503 -4.4963,-0.6675 -6.6025,3.9777 h -7.2624 l -8.5827,-3.315 -4.1463,3.4302 -10.6848,-0.4647 -4.9891,-3.408 -8.8518,1.8877 -5.0131,-6.5287 -4.6214,1.3264 -5.2817,-1.9888 v 3.3148 h -2.6409 l -3.9614,3.315 -5.942,-3.9782 -3.3011,-0.6628 0.6602,-5.3043 -9.2432,-2.6518 -6.602,-4.641 -3.3012,-3.9783 -7.2626,2.6526 -3.9613,-3.3153 -5.2819,4.641 -1.9806,5.3039 h -3.9612 l -1.9807,-6.6296 -5.282,5.9667 -5.5565,-2.6727 0.8518,-2.3648 4.6686,-0.9376 v -3.2819 l 2.8008,-4.688 -0.4665,-12.1891 3.2678,-4.6881 -3.7347,-8.9075 0.9334,-11.2514 -3.7347,-1.8753 -6.5359,6.563 h -4.6685 l -3.7347,-2.344 h -4.2016 l -0.4669,11.2518 -3.2678,-0.9377 -3.2682,-4.2192 -0.9335,1.8753 1.4006,6.5634 -4.6687,2.3441 -5.1351,6.5629 -5.6022,-4.688 h -2.8012 l -6.5358,5.1573 h -7.9365 l -4.6685,-4.2195 3.7349,-2.8127 0.4667,-3.282 -11.2042,0.9379 2.3341,-4.6882 -1.4004,-3.2817 -5.1353,-0.4688 1.4006,-5.1573 -1.8675,-1.4061 4.6685,-0.4689 1.8674,-2.8127 -6.069,-4.2199 0.4668,-1.8749 6.0689,-1.4063 -5.602,-3.282 9.3369,-0.4691 -2.8011,-3.2813 1.4005,-5.1568 -2.801,-2.3443 -6.069,3.2822 -4.7844,-6.2115 2.1178,-2.1299 -1.3613,-3.0622 2.9712,-1.9891 3.9613,1.6571 2.3107,-3.9777 3.9613,-2.6521 0.3302,5.6354 2.641,-2.9833 h 4.2912 l 0.3302,-10.9395 8.913,-7.6243 -0.9903,-6.6301 -3.6312,-3.978 0.3299,-0.9945 3.9616,-0.3312 3.6312,-3.3152 -5.9421,-6.2986 -5.6119,-1.9893 -0.9904,-8.2872 -3.6311,-4.3096 -3.3011,4.9725 h -2.9711 l -7.9227,5.967 h -3.3011 l -8.5827,5.6358 -6.2723,-2.6524 -8.583,-6.9614 h -1.6503 l -5.6122,6.6301 -10.2335,-0.3315 -4.6214,-8.6189 -9.243,-7.2934 0.8253,-6.4641 2.4758,-7.127 -1.3205,-6.6298 4.6217,-4.6416 -1.3206,-9.9449 -4.6215,-0.6628 -9.8799,-4.9583 -6.6023,-3.3145 -3.816,-5.6049 -5.2817,-3.9782 -6.6022,-1.9889 -1.3205,-5.9667 -4.6216,-3.3151 v -9.2822 l -3.301,-1.9891 1.9807,-5.9668 -5.942,-7.2934 v -7.9556 l -7.9229,-7.2931 1.3206,-7.2928 -2.126,-8.3184 -6.6023,-5.3043 -0.6602,-6.63 -9.9033,-5.3038 -3.3012,-9.9453 -4.9011,-1.1721 -6.0061,-8.5281 1.3851,-18.7055 -5.5403,-17.3201 -23.5461,-11.7775 -6.9252,-11.7776 1.385,-7.6205 -3.4627,-13.1632 -3.4627,-11.7775 9.0031,-12.4702 4.8477,-16.6272 -13.1581,-32.5615 -13.1581,-16.627 -9.5196,-7.9285 2.5367,-7.61 -8.244,-10.1465 -8.8783,-0.3169 -4.439,-5.3904 0.9512,-6.0246 -10.4636,-4.122 -0.9513,-4.439 2.2195,-3.805 -6.0244,-5.3904 1.2683,-12.6832 -17.1223,-28.5371 -5.7075,-3.1708 6.3417,-5.3904 -1.5853,-2.5366 -7.9271,-2.2195 3.4878,-6.3416 -0.3171,-2.8537 -11.7318,-8.2441 9.1952,-3.4878 0.9513,-7.927 -1.5854,-3.805 7.61,-3.4878 c 0,0 -1.5855,-7.2928 -1.5855,-8.8783 0,-1.5854 2.8537,-13.9515 2.8537,-13.9515 l 6.3417,-6.6585 -2.8538,-15.2199 7.2928,-1.9026 5.7075,15.2198 6.9757,-6.3415 15.2199,-3.4879 5.0732,5.3904 4.4391,-11.0977 5.7075,1.9024 5.3902,-4.439 9.5125,-1.5855 3.8048,2.5366 6.6587,-6.9757 7.2928,-17.1223 8.5612,-4.4391 4.122,4.1221 7.4457,-1.9005 -0.593,-5.754 3.7469,-13.3404 -4.9959,-6.2531 -0.8326,-15.0075 2.9142,-5.4194 -0.042,-15.4244 -4.5794,-5.4196 -6.6611,-10.0053 v -4.1684 l -2.4977,-1.2508 -0.4163,-3.3351 4.4745,-2.5252 z" />
  </g>
</svg>
