<?xml version="1.0" encoding="UTF-8" standalone="no"?>
<svg
   xmlns:dc="http://purl.org/dc/elements/1.1/"
   xmlns:cc="http://creativecommons.org/ns#"
   xmlns:rdf="http://www.w3.org/1999/02/22-rdf-syntax-ns#"
   xmlns:svg="http://www.w3.org/2000/svg"
   xmlns="http://www.w3.org/2000/svg"
   width="1935.36"
   height="764.20435"
   id="svg2"
   version="1.1">
  <defs
     id="defs4" />
  <metadata
     id="metadata7">
    <rdf:RDF>
      <cc:Work
         rdf:about="">
        <dc:format>image/svg+xml</dc:format>
        <dc:type
           rdf:resource="http://purl.org/dc/dcmitype/StillImage" />
        <dc:title></dc:title>
      </cc:Work>
    </rdf:RDF>
  </metadata>
  <g
     id="layer3"
     style="display:inline"
     transform="translate(-4311.2739,-3442.9373)" />
  <path
     id="Arauca,_Código_DANE_:_81001"
     d="m 1454.3747,106.1566 263.8416,325.6829 -0.2804,0.4527 -3.7904,0.506 h -3.5377 l -3.5377,3.7952 -8.339,-0.2531 -3.2851,4.0483 -13.3928,-0.253 -11.1186,9.3615 -5.5593,2.0242 -13.3928,10.1206 c 0,0 -2.5269,-4.5543 -2.5269,-4.5543 l -3.5378,-3.0361 -5.5594,0.2529 -5.3065,-2.5302 -9.6025,-0.5059 -5.5591,-4.0483 -3.0325,-4.8074 -4.5484,-3.7949 -7.3282,2.0241 -5.054,-3.5422 -5.5592,-1.0122 -1.5162,-5.0602 -4.5485,-0.7591 -7.8336,-7.3374 -1.2635,5.0603 -2.2742,0.759 -2.7797,-2.2771 h -3.5378 c 0,0 -3.5377,-3.2892 -3.5377,-3.2892 l -5.3065,0.2529 -4.5485,-4.8072 -2.2743,2.0241 -6.5702,-0.253 -3.7903,-2.5301 -4.5485,-0.5061 -4.8011,-1.771 -2.0217,1.771 -3.5377,-3.5422 -3.2851,1.0121 -1.2634,-3.0362 -6.8229,-2.5301 -6.3174,-5.0603 -6.3173,-2.0242 -5.5592,0.2531 -3.5379,-2.0241 -3.5378,-7.8435 -7.0754,0.253 -3.5376,-1.0119 -3.0324,-3.7953 -3.2851,4.0483 h -3.5376 l -4.0432,3.7951 -4.8012,-1.518 -2.0215,-3.7953 -3.5379,0.759 -2.7795,-3.5421 0.2526,-5.3133 3.2851,-5.5664 -0.5055,-4.8072 -6.3173,-3.0362 v -5.3133 l -3.0323,-2.2772 -3.7904,-0.506 -2.7796,-5.3132 -3.2852,3.7952 -2.2742,-3.5422 -4.8013,3.0361 -2.2742,-6.5783 -5.8121,-5.0604 -1.2633,2.7833 -6.0648,-4.5544 -6.3174,2.5303 -1.7689,3.7952 -7.8335,0.506 -3.285,-2.5301 -3.0323,1.7712 -5.054,-1.2652 -3.0323,-6.5784 -4.0431,2.0242 -3.7905,6.0723 -6.0646,1.265 v -7.3373 l -4.2959,-1.0122 -2.2743,-4.8073 -5.3064,-0.506 1.0106,-4.3011 -8.0863,-4.0483 -8.0862,1.2651 -4.2957,-4.8073 -3.5377,-8.0965 3.5377,-5.5664 -2.527,-5.5661 -11.624,-2.7832 c 0,0 -9.6024,-0.7591 -9.6024,-0.7591 l 0.2527,-4.0482 -2.7796,-2.5302 h -6.3175 l -4.2958,-0.759 -4.2958,-4.8073 -6.5702,1.518 -2.0214,-4.5541 -2.527,-3.5423 -7.0754,-2.024 -6.8228,-2.7832 -11.8766,-8.8557 -7.0756,-3.542 -3.7904,-0.5061 -7.8335,3.0362 -6.0649,-2.2771 -4.5483,2.0241 -7.8338,-0.5059 -23.7531,31.3735 -20.7212,33.398 -65.1953,93.6155 -1.0107,-9.8677 -3.7906,-3.7953 2.7797,-3.0361 1.0109,-6.0724 -2.2742,-5.3133 -4.0432,-3.2891 v -4.5544 l -7.0755,-0.506 -0.5054,6.0723 -3.5377,-0.7589 -2.2743,-6.0723 1.7689,-3.0364 -2.0217,-5.06 -3.7904,-4.5544 -3.0322,3.5422 -4.8012,-3.2892 2.527,-6.0723 -4.8012,-6.0723 -5.0541,-1.7711 -5.3065,-5.0604 -4.5486,3.2892 -1.2635,4.3013 -4.0432,-3.7953 h -3.7903 l -0.2528,3.5423 h -3.0323 l -1.7689,4.0482 -4.8011,-2.5302 -4.0431,1.0121 -3.5377,-3.2892 -5.5594,-1.518 -8.0862,4.5542 -4.5486,-3.2893 -4.0431,2.0242 h -7.5809 l -1.2633,-2.0242 6.8227,-5.0602 -3.0324,-3.2892 -6.5701,0.7589 -2.0215,-2.53 -7.5809,-0.2529 -1.7689,-3.0364 1.7689,-2.5301 -2.7795,-2.024 -3.7905,1.2651 h -5.3066 l -2.2742,-4.0482 -4.5486,-2.0242 -1.2634,-2.7831 -5.5593,-2.2772 -4.2959,0.253 -6.0647,-4.5543 -5.3065,-0.253 -5.5594,-5.8193 -4.2958,1.012 -3.7905,-1.012 -3.0323,-3.0361 -4.2958,-0.7591 -4.8012,2.0242 -3.285,-3.2893 -3.0324,-0.506 -0.5054,-2.7831 -36.6407,-72.3621 -0.7582,-4.3012 -3.0323,-0.5061 -4.5486,-9.1085 4.8011,0.5059 -1.2633,-6.8312 -3.285,-4.5544 0.2527,-6.5784 -4.0431,-0.2529 -3.5378,-2.0241 -1.2635,-4.8073 1.0108,-5.5663 -4.5485,-2.5302 -3.5378,-3.0361 -3.7904,3.2892 -4.8012,-1.2652 -2.7796,-3.7952 -6.3175,2.5302 -5.0539,-1.5181 -1.7688,-2.024 -4.0431,-0.7592 -3.0324,-4.0482 -2.7796,-0.506 -4.2958,6.0723 -5.8121,0.253 -8.8442,-3.036 -12.3821,-7.3375 -10.3606,-4.0482 -5.0538,2.277 -4.2958,-0.2528 -3.285,1.518 -4.0431,-1.7711 -6.823,-1.5181 73.5344,-73.1211 3.7904,-1.5182 4.0432,3.5422 10.3605,-1.5181 16.1725,0.7592 8.8442,3.795 10.3606,-4.5542 6.5701,-1.012 6.0646,-8.6026 5.5594,-3.036 2.2742,-8.0965 13.1402,-1.518 5.8119,2.7831 4.2959,-3.7953 6.8227,-1.265 4.0431,-4.3013 -3.7903,-3.2892 -1.2635,-4.3012 0.2527,-4.3012 3.5378,-3.5423 3.7903,0.7591 3.0324,4.3012 4.2958,-0.506 3.285,-4.0482 1.2636,-4.5542 4.2958,-4.0483 5.0539,-1.2651 5.3066,1.0121 4.0431,3.7952 5.3067,1.771 5.8119,-0.506 -0.7581,-4.5542 3.0323,-3.7952 -5.5592,-0.253 -1.2636,-3.5422 3.7905,-2.0241 3.7904,1.265 4.2959,-2.024 4.0431,2.5302 3.7903,0.5059 2.2743,2.7831 2.2743,-0.5061 v -5.3131 l 5.3067,0.2529 6.3173,-3.2892 9.6023,0.253 5.054,3.2893 3.0323,-2.0241 1.0109,-4.8074 5.5954,-0.3253 -1.0468,-4.2288 4.043,-2.0241 5.0538,3.2891 7.3283,2.2771 6.3172,-0.253 9.0972,-3.0361 7.5809,0.759 4.2958,-2.0241 3.7905,-4.3014 4.5483,1.7712 2.7798,5.8193 3.5377,3.2893 6.3174,0.253 2.5269,2.7831 h 3.7904 l 5.8963,2.8675 2.8639,4.0481 10.4448,-0.6746 8.5915,3.7109 8.5917,-0.506 7.0755,-2.024 1.1792,-3.8797 5.8962,0.6747 3.7063,-4.8917 4.0431,2.0241 3.7061,-1.1806 2.0217,2.6988 3.7061,0.6747 4.38,7.5904 4.8855,6.4097 -4.8855,1.3494 1.3478,2.6989 4.717,-0.8435 -3.0324,4.0483 5.5593,-0.1687 1.3477,3.2048 6.0647,2.5302 3.8747,3.2048 -1.0108,5.0604 7.5809,8.6024 3.5376,0.1687 1.3478,-2.024 4.0431,0.1685 8.2546,5.2291 4.8856,-1.3495 4.5485,-0.5059 v -3.5422 l 2.5269,-2.8675 3.3693,2.024 -1.6847,4.2169 4.3802,0.8433 3.7061,-3.036 2.3585,1.8553 2.6955,-2.8675 4.7169,10.2892 6.907,6.0724 7.4123,-4.3855 3.7063,3.8796 6.57,-2.5301 4.2117,2.8675 5.7276,0.5059 v 4.2169 l 2.6955,3.7109 3.8746,1.1807 -1.0106,3.5423 1.5161,3.0361 h 5.054 l 1.0107,2.6988 4.5484,4.7229 9.434,2.3615 3.3694,2.5301 3.8746,1.1808 5.054,-1.6868 6.0645,0.1686 4.0431,2.0242 6.4017,-4.2169 3.8746,1.1808 3.7063,-2.3615 5.2223,0.1686 4.2115,-3.8794 5.7279,-7.4218 5.5593,-3.5423 h 3.5377 l 2.3585,-1.6867 1.0108,-3.0362 2.1901,-2.0241 5.5592,-0.8433 h 6.5701 l 7.0755,-2.0242 7.7493,1.1807 6.5701,-1.0119 5.0538,0.3372 6.0648,-1.1807 2.5269,-2.8676 h 3.2008 l 2.527,2.5301 3.2007,1.5182 h 4.8854 z"
     style="fill:#c12838;fill-opacity:1;stroke:#646464;stroke-width:0.53333336;stroke-linecap:butt;stroke-linejoin:round;stroke-miterlimit:4;stroke-dasharray:none;stroke-opacity:1" />
  <path
     id="Puerto_Rondon,_Código_DANE_:_81591"
     style="display:inline;fill:#fefee9;fill-opacity:1;stroke:#646464;stroke-width:0.53333336;stroke-linecap:butt;stroke-linejoin:round;stroke-miterlimit:4;stroke-dasharray:none;stroke-opacity:1"
     d="m 754.1452,554.8053 -6.0539,-1.5722 -5.812,-0.7591 -0.5053,-2.5302 -5.8121,-2.53 -3.7904,2.7832 -2.7796,-0.7592 -6.0646,1.0121 3.7903,-133.5915 -48.9223,-39.5709 4.4479,-4.9598 4.0432,2.5302 5.0539,-0.8432 9.0969,3.036 4.2117,2.5302 5.7278,-2.8675 9.2655,1.6868 7.0754,-4.7229 4.3801,0.5059 4.717,-2.5301 4.2116,3.8795 4.5484,1.0121 -0.3369,4.5543 2.3586,0.3374 6.57,-2.6988 0.5054,2.3614 -2.3584,3.2048 2.3584,1.518 3.5377,-1.0119 0.6739,3.2048 3.7063,0.6746 2.1899,4.0484 6.0647,-3.8795 3.8748,0.6747 1.853,3.036 3.2008,0.1688 4.8855,-8.6025 3.8746,1.518 7.0754,0.8434 5.7278,6.0723 4.38,0.8434 3.5378,3.0362 2.8639,-2.024 1.1792,-3.5423 5.054,-1.0121 3.0323,-3.2048 4.2116,-0.8435 5.7277,3.2049 6.7385,-3.8795 6.2333,2.0241 5.8961,-1.3495 3.8747,1.3495 3.8747,3.3735 6.4016,-0.6747 5.3909,2.3615 2.8638,-1.6868 4.3801,-7.2531 3.8746,0.1688 2.5269,4.2168 5.054,-1.1807 5.0539,3.0363 6.7384,0.6746 5.391,-1.3493 3.8746,-5.7352 3.8747,-2.024 7.9178,-1.1808 6.7385,0.6748 6.4016,5.3977 4.717,1.5179 3.2008,2.3615 6.9071,-3.5421 3.8745,1.1806 5.2224,-2.8674 5.0539,4.7229 -0.1684,3.7108 5.3908,6.5785 6.0646,2.53 2.527,-3.3734 4.3801,1.5181 -11.943,-61.2852 1.9195,-0.1132 5.5593,2.2772 1.2634,2.7831 4.5486,2.024 2.2742,4.0484 h 5.3066 l 3.7905,-1.2652 2.7795,2.0241 -1.7689,2.5301 1.7689,3.0363 7.5809,0.2529 2.0215,2.5301 6.5701,-0.7589 3.0324,3.2892 -6.8227,5.0602 1.2633,2.0241 h 7.5809 l 4.0431,-2.0241 4.5486,3.2892 8.0862,-4.5541 5.5594,1.5179 3.5377,3.2892 4.0431,-1.012 4.8011,2.5302 1.7689,-4.0483 h 3.0323 l 0.2528,-3.5422 h 3.7903 l 4.0432,3.7953 1.2635,-4.3013 4.5486,-3.2892 5.3065,5.0604 5.0541,1.771 4.8012,6.0724 -2.527,6.0723 4.8012,3.2892 3.0322,-3.5422 3.7904,4.5542 2.0217,5.0602 -1.7689,3.0363 2.2743,6.0724 3.5377,0.7589 0.5054,-6.0723 7.0755,0.506 v 4.5544 l 4.0432,3.289 2.2742,5.3134 -1.0109,6.0723 -2.7797,3.0362 3.7906,3.7953 1.0107,9.8675 -37.5678,166.1397 -2.6145,1.07 0.2797,2.4051 -1.5386,1.4147 -3.497,-0.2829 -2.7976,-3.9613 0.2797,-2.1219 -2.5179,-0.5659 -4.4759,1.8391 -0.2798,1.2731 -2.0983,-0.7073 -0.4196,-0.9902 -5.0357,-2.8294 v -1.5563 l -4.4761,0.9903 -1.119,1.9807 -2.2381,-0.1415 -3.0774,-2.2635 -0.4195,-3.2539 1.5385,-1.2732 0.5597,-2.5465 -0.6994,-1.9807 -2.6578,1.8392 -2.7977,0.283 -1.119,2.688 -1.5385,-3.5368 1.8184,-2.405 -2.7977,-0.7074 -2.6577,0.4244 -3.0773,-1.2732 -0.5596,-1.8391 -5.1755,0.2829 -2.2379,1.1318 0.2797,1.6976 -2.6578,2.122 -2.3779,-3.2537 0.1399,-2.5466 -1.3988,-0.1414 -2.6578,1.9806 -3.0772,-0.1414 -1.2589,2.6879 0.4195,2.5464 -1.9583,3.2538 c 0,0 -8.5327,-0.7073 -9.0922,-0.5658 -0.5593,0.1414 -2.238,2.5464 -2.238,2.5464 l -4.4762,-1.1317 -0.8391,-1.2733 -5.0357,0.9903 -2.0982,2.971 1.8184,2.122 -0.8393,5.5172 h -3.2173 l -4.0564,-4.2439 0.4196,-1.5562 -1.5386,-1.2732 -3.3571,1.4147 -0.2799,1.5561 -2.9373,0.4245 -5.0358,-4.8101 -0.2796,-1.2732 -2.7977,0.5658 -1.9583,2.5466 -8.6725,-0.8489 -0.4196,-1.5561 -1.6787,0.4244 -1.2588,2.405 -4.1963,0.2829 -2.9375,3.8196 -4.7559,-0.1414 -6.994,-4.3855 -0.4196,-1.4147 -4.3363,-0.9903 -3.9166,1.4147 -6.8541,0.2829 -3.4969,2.8294 -5.0357,-1.9805 -3.7767,-4.5272 -4.1965,-3.2538 -3.9166,-4.527 -0.1397,-1.6977 h -3.3572 l -1.5387,1.4147 h -2.2381 l -4.6161,-3.3952 -0.1397,-2.1221 -4.616,-2.2636 -3.2173,2.2636 1.6785,4.6684 -3.7767,0.4245 -1.6785,-2.1221 -4.3363,-0.1414 -4.4761,1.5562 -4.8958,-1.8392 c 0,0 -0.4197,-0.8488 -0.5596,-2.1221 -0.1398,-1.2732 -3.7766,-2.405 -3.7766,-2.405 h -2.9376 l -4.8958,-4.527 v -1.5562 l -2.6576,-2.1221 -4.0564,0.8489 -5.5952,3.6783 -0.4198,2.8293 -5.0356,1.5562 -3.0773,-3.9612 0.2798,-2.5463 -3.3572,-0.9904 -3.0774,4.527 1.6786,1.2732 -1.6786,4.6686 -2.3778,0.2829 -2.7977,-3.5368 -2.3779,0.283 -4.8958,-0.8488 -2.7975,0.9902 -0.5596,2.1221 -3.7767,-1.9806 0.1399,-2.4051 1.3988,-1.4147 -3.497,-1.9804 -3.7768,1.2732 -6.2945,-3.1124 -1.259,-3.6783 -3.357,0.7074 -0.1399,1.6977 -2.7977,0.7074 -3.3569,-3.2538 v -1.4148 l -1.3988,-0.5659 -4.8958,0.4244 -4.0566,-3.2539 -1.3988,-3.8196 -4.4761,-0.9903 -2.6576,1.8392 0.061,1.7409 z" />
  <path
     id="Arauquita,_Código_DANE_:_81065"
     d="m 678.1953,377.2875 -84.9877,-68.7424 -145.7394,-117.8816 2.4426,-55.1571 0.2528,-57.6872 v 0 l 8.5916,0.3373 6.0648,2.5302 5.5591,-0.6747 4.7171,-4.8916 3.8747,-6.2411 5.7277,-1.8555 5.7278,1.8555 8.2547,5.9037 h 7.0755 l 7.5808,-6.7471 4.2115,-0.3373 1.8533,4.0482 -3.3693,5.3977 -1.3478,9.4457 2.1901,4.0484 3.8746,0.3374 7.7493,-7.2533 9.9394,1.0123 8.76,-4.2171 8.2547,0.3374 6.0648,6.241 4.8854,-1.3494 4.3801,-4.5543 6.0646,7.0845 h 6.0648 l 6.9071,-7.0845 4.5483,-0.5059 2.5271,5.2289 -0.337,6.0723 4.0431,2.3615 4.3801,-2.0241 3.5378,-6.4097 6.4015,-1.012 2.6953,-5.7351 4.5487,-2.1928 6.7385,1.6869 7.5809,-0.6748 7.9177,1.012 4.0431,4.0483 3.3694,5.0603 4.7169,2.8676 8.9286,-2.5303 10.2762,1.1808 11.2872,-0.5061 7.5807,-2.6988 7.5809,-4.3855 7.5809,2.53 7.9177,-1.1807 4.7171,-3.8794 4.2116,2.3614 1.1792,4.5542 5.7278,2.1929 6.233,4.0481 5.5593,-8.4337 3.8748,-1.6868 6.0647,3.7109 6.57,1.0119 3.8747,-3.5422 4.3801,4.217 6.7385,-1.1807 5.8961,-3.2048 11.961,-0.3374 6.2332,-4.217 9.6024,-0.6746 2.8639,3.7109 0.5054,5.9036 2.19,4.2169 7.5809,-0.1687 4.38,2.5301 -6.57,6.9158 1.0107,3.5422 10.1078,1.1806 3.7062,3.0364 -73.5344,73.1211 6.823,1.5181 4.0431,1.7711 3.285,-1.518 4.2958,0.2528 5.0538,-2.277 10.3606,4.0482 c 0,0 12.3821,7.3375 12.3821,7.3375 l 8.8442,3.036 5.8121,-0.253 c 0,0 4.2958,-6.0723 4.2958,-6.0723 l 2.7796,0.506 3.0324,4.0482 4.0431,0.7592 1.7688,2.024 5.0539,1.5181 6.3175,-2.5302 2.7796,3.7952 4.8012,1.2652 3.7904,-3.2892 3.5378,3.0361 4.5485,2.5302 -1.0108,5.5663 1.2635,4.8073 3.5378,2.0241 4.0431,0.2529 -0.2527,6.5784 3.285,4.5544 1.2633,6.8312 -4.8011,-0.5059 4.5486,9.1085 3.0323,0.5061 0.7582,4.3012 36.6407,72.3621 0.5054,2.7831 3.0324,0.506 3.285,3.2893 4.8012,-2.0242 4.2958,0.7591 3.0323,3.0361 3.7905,1.012 4.2958,-1.012 5.5594,5.8193 5.3065,0.253 6.0647,4.5543 2.3764,-0.14 c 0,0 11.943,61.2852 11.943,61.2852 l -4.3801,-1.5181 -2.527,3.3734 -6.0646,-2.53 -5.3908,-6.5785 0.1684,-3.7108 -5.0539,-4.7229 -5.2224,2.8674 -3.8745,-1.1806 -6.9071,3.5421 -3.2008,-2.3615 -4.717,-1.5179 -6.4016,-5.3977 -6.7385,-0.6748 -7.9178,1.1808 -3.8747,2.024 -3.8746,5.7352 -5.391,1.3493 -6.7384,-0.6746 -5.0539,-3.0363 -5.054,1.1807 -2.5269,-4.2168 -3.8746,-0.1688 -4.3801,7.2531 -2.8638,1.6868 -5.3909,-2.3615 c 0,0 -6.4016,0.6747 -6.4016,0.6747 l -3.8747,-3.3735 -3.8747,-1.3495 -5.8961,1.3495 -6.2333,-2.0241 -6.7385,3.8795 -5.7277,-3.2049 -4.2116,0.8435 -3.0323,3.2048 -5.054,1.0121 -1.1792,3.5423 -2.8639,2.024 -3.5378,-3.0362 -4.38,-0.8434 -5.7278,-6.0723 -7.0754,-0.8434 -3.8746,-1.518 -4.8855,8.6025 -3.2008,-0.1688 -1.853,-3.036 -3.8748,-0.6747 -6.0647,3.8795 -2.1899,-4.0484 -3.7063,-0.6746 -0.6739,-3.2048 -3.5377,1.0119 -2.3584,-1.518 2.3584,-3.2048 -0.5054,-2.3614 -6.57,2.6988 -2.3586,-0.3374 0.3369,-4.5543 -4.5484,-1.0121 -4.2116,-3.8795 -4.717,2.5301 -4.3801,-0.5059 -7.0754,4.7229 -9.2655,-1.6868 -5.7278,2.8675 -4.2117,-2.5302 -9.0969,-3.036 -5.0539,0.8432 -4.0432,-2.5302 z"
     style="fill:#fefee9;fill-opacity:1;stroke:#646464;stroke-width:0.53333336;stroke-linecap:butt;stroke-linejoin:round;stroke-miterlimit:4;stroke-dasharray:none;stroke-opacity:1" />
  <path
     id="Cravo_Norte,_Código_DANE_:_81220"
     style="display:inline;fill:#fefee9;fill-opacity:1;stroke:#646464;stroke-width:0.53333336;stroke-linecap:butt;stroke-linejoin:round;stroke-miterlimit:4;stroke-dasharray:none;stroke-opacity:1"
     d="m 1902.0355,659.3204 -7.5313,8.0492 -4.3721,-2.7927 -10.5849,3.2583 -3.9119,8.3781 -8.0538,3.4909 -2.9913,-0.6983 -5.5227,3.4909 -3.4515,3.4909 -8.5139,1.1637 -11.7357,3.0253 -5.7526,4.4219 -13.8064,1.1636 -2.0711,-1.8618 -14.2665,1.629 -3.2216,1.6292 -10.8151,0.9308 -4.8321,-1.1636 -10.8152,1.3964 -8.9742,-2.56 -10.3548,1.6291 -3.4516,3.4908 -12.1957,2.0946 -3.9119,-3.2581 -6.2129,-2.0945 -2.7612,-3.491 -4.3722,-0.2327 -13.5762,1.3964 -16.7978,-7.9127 -2.071,-2.3273 -7.3635,-0.2326 -12.1958,4.8871 -1.6107,-1.1636 -10.815,7.4471 -2.7613,5.5855 -6.2129,5.12 -1.1506,4.8872 -3.2086,3.3534 -3.6481,-6.2934 -8.232,-3.8424 -3.1538,-2.3922 h -6.5042 l -3.3508,1.5947 -8.081,-6.379 -0.3943,-3.3889 -7.2927,-7.7743 -0.3941,-5.5816 1.3797,-0.598 1.5768,-8.1731 -2.3653,-4.1862 -5.3216,-1.3955 -4.9275,-1.9933 -10.0522,-9.3692 0.3941,-3.7875 -1.5767,-4.1863 -3.1536,-2.7908 -0.1971,-2.1926 -9.2638,0.5979 -3.1535,1.5947 -0.3942,1.9936 -9.0667,1.7939 -4.7304,-2.3921 v -3.3888 l 2.3653,-1.5947 v -6.3789 l -3.3509,-3.1896 -6.1101,0.7975 -5.1998,4.6286 -4.7559,1.9806 -5.3154,-1.9806 -2.6577,-4.1025 -7.2737,0.5659 -5.4554,3.3951 -5.3153,-1.6976 -4.1964,-5.5172 3.3572,-7.6396 6.4343,-1.6975 2.2381,-2.5466 -3.3571,-3.2538 -3.2172,-0.5659 -6.0148,1.1319 -3.9167,-1.9807 -0.2798,-5.5173 2.0982,-2.405 -1.5387,-4.8101 -5.4552,-3.1123 -4.616,-0.5659 -4.616,-3.3953 -0.4195,-2.9708 -4.0566,-3.1125 -4.1964,-0.2829 -3.2173,-1.5562 -3.6367,0.5659 -1.259,1.4147 -4.7559,-3.1123 v -4.1027 l 1.119,-2.5465 -0.6993,-3.2537 -2.2382,-0.7074 0.6994,-1.8392 1.9583,-0.566 -3.497,-2.405 c 0,0 -0.4196,-1.4145 -0.4196,-2.4048 0,-0.9903 -6.1546,-3.5368 -6.1546,-3.5368 l -6.9941,-0.1415 -2.0981,1.4147 -4.3363,-2.8294 -1.3988,-6.0831 1.1191,-2.6881 3.2173,-1.2732 -0.5595,-2.688 -2.3781,-2.405 -5.0356,-0.8488 -3.2172,2.4051 1.3987,5.3758 -2.0981,4.1026 -6.5743,1.9806 -8.8124,-7.7808 v -2.5466 l -3.0773,-0.7072 -3.4971,1.4146 0.4196,1.8392 -1.5386,1.6976 -8.5326,-1.4146 -2.2382,-3.1125 -1.8183,1.1318 v 1.2734 l -2.0981,2.5463 -1.259,-1.1316 -2.238,-1.9807 -2.2381,1.2733 0.6993,1.6977 -1.6785,1.6976 -3.0774,-0.9903 -0.6994,-1.1319 -4.0564,0.1415 -7.4138,3.5368 -0.5594,3.2538 -4.3362,3.1124 -5.0357,-2.2635 -0.6994,-1.2732 -4.0565,-2.971 -4.8957,-0.9903 -1.9583,0.9903 v 1.9806 l -2.7976,0.9904 c 0,0 -0.2799,-0.849 -1.259,-1.9807 -0.9791,-1.1319 -3.497,-1.9806 -3.497,-1.9806 l -1.5385,-2.405 -1.6787,1.2733 0.9792,1.6976 -1.2589,2.122 h -5.7351 l -0.5596,-1.2732 2.0983,-2.9709 -3.0773,-3.9611 -3.9166,-0.8488 -2.5179,1.5561 h -5.4553 l -1.5387,-1.9806 -6.854,0.9903 -5.3155,-2.9708 v -2.2637 h -1.5387 l -3.2172,1.4147 -0.5594,1.9806 -3.0774,-1.4147 v -0.7073 l -1.8184,-0.8487 -3.2173,1.4147 v 1.1317 l -3.2172,2.6879 -2.5177,0.849 -0.5596,-1.2734 -2.2381,0.5658 -0.8392,1.4149 h -3.2173 l -3.3571,-0.1416 -1.1191,-1.4147 -1.9582,0.849 -1.119,1.4147 c 0,0 -3.0773,0 -3.9167,0 -0.8394,0 -2.2381,-0.566 -2.2381,-0.566 l -3.9166,1.4147 v 1.4148 l 2.0981,1.1316 0.4197,3.3953 -5.4551,2.5465 -1.5388,-0.4244 -7.1339,1.8392 -4.0564,3.8196 -2.2381,2.9709 -3.0774,-0.4245 -1.5386,-1.839 -5.0356,1.4146 -1.9583,3.6783 0.5595,1.9806 -3.637,3.6783 h -3.497 l -0.5595,-1.1318 -1.9583,1.1318 -0.4196,1.5563 -3.2172,1.2731 -1.3988,-0.9903 -4.1964,1.9805 -3.0773,4.3857 -1.3988,-1.1318 -3.7768,0.9903 -2.238,3.1124 h -2.2381 l -1.8185,0.9903 -2.0982,-3.3954 0.4197,-1.5561 -2.5178,-3.5368 -3.9167,-0.9903 -3.3571,2.688 -0.2797,2.2636 -3.0773,0.1413 -1.6786,-1.2732 1.3987,-1.8391 -0.5595,-1.5562 -3.2171,-0.8487 -4.1964,1.839 -0.1398,2.1221 -2.7977,1.2732 -2.5179,-1.5563 0.8393,-2.8293 -1.6785,-1.4147 v -1.2732 l -1.8184,-0.1415 -2.6577,3.8197 0.1399,2.8294 -2.7977,1.8391 -1.6785,-2.9708 -2.378,-0.283 -0.8392,-1.1317 -3.0773,2.2635 -0.9792,3.1124 -2.5179,-1.1317 0.14,-1.6978 -1.259,-0.4244 -5.3153,2.8295 -0.14,1.5561 h -1.3987 l -0.5595,-0.8487 h -2.6578 l -2.0982,1.4147 0.6994,2.405 -3.6368,1.1317 -2.5178,-3.3954 0.6994,-1.1316 -1.6786,-1.2734 -4.4761,0.9903 -1.9583,2.971 -2.3779,-0.2829 -5.1757,1.5561 -1.3987,-0.4244 -3.7768,1.2733 -5.7351,4.244 -3.6367,0.5659 -2.6578,-3.5367 -0.1399,-0.7074 -1.8184,-0.9903 -6.4346,2.122 -3.0772,2.4051 -3.7767,-1.6978 -0.1399,-1.273 h -2.7976 l -1.5906,0.6293 37.5766,-166.1414 65.1953,-93.6155 20.7212,-33.398 23.7531,-31.3735 7.8338,0.5059 4.5483,-2.0241 6.0649,2.2771 c 0,0 6.8227,-3.0362 7.8335,-3.0362 1.0109,0 3.7904,0.5061 3.7904,0.5061 l 7.0756,3.542 11.8766,8.8557 6.8228,2.7832 7.0754,2.024 2.527,3.5423 2.0214,4.5541 6.5702,-1.518 4.2958,4.8073 4.2958,0.759 h 6.3175 l 2.7796,2.5302 -0.2527,4.0482 9.6024,0.7591 11.624,2.7832 2.527,5.5661 -3.5377,5.5664 3.5377,8.0965 4.2957,4.8073 8.0862,-1.2651 8.0863,4.0483 -1.0106,4.3011 5.3064,0.506 2.2743,4.8073 4.2959,1.0122 v 7.3373 l 6.0646,-1.265 3.7905,-6.0723 4.0431,-2.0242 3.0323,6.5784 5.054,1.2652 3.0323,-1.7712 3.285,2.5301 7.8335,-0.506 1.7689,-3.7952 6.3174,-2.5303 6.0648,4.5544 1.2633,-2.7833 5.8121,5.0604 2.2742,6.5783 4.8013,-3.0361 2.2742,3.5422 3.2852,-3.7952 2.7796,5.3132 3.7904,0.506 3.0323,2.2772 v 5.3133 l 3.2851,1.5182 3.0322,1.518 0.5055,4.8072 -3.2851,5.5664 -0.2526,5.3133 2.7795,3.5421 3.5379,-0.759 2.0215,3.7953 4.8012,1.518 4.0432,-3.7951 h 3.5376 l 3.2851,-4.0483 3.0324,3.7953 3.5376,1.0119 7.0754,-0.253 3.5378,7.8435 3.5379,2.0241 5.5592,-0.2531 6.3173,2.0242 6.3174,5.0603 6.8229,2.5301 1.2634,3.0362 3.2851,-1.0121 3.5377,3.5422 2.0217,-1.771 4.8011,1.771 4.5485,0.5061 3.7903,2.5301 6.5702,0.253 2.2743,-2.0241 4.5485,4.8072 5.3065,-0.2529 3.5377,3.2892 h 3.5378 l 2.7797,2.2771 2.2742,-0.759 1.2635,-5.0603 7.8336,7.3374 4.5485,0.7591 1.5162,5.0602 5.5592,1.0122 5.054,3.5422 7.3282,-2.0241 4.5484,3.7949 3.0325,4.8074 5.5591,4.0483 9.6025,0.5059 5.3065,2.5302 5.5594,-0.2529 3.5378,3.0361 2.5269,4.5543 13.3928,-10.1206 5.5593,-2.0242 11.1186,-9.3615 13.3928,0.253 3.2851,-4.0483 8.339,0.2531 3.5377,-3.7952 h 3.5377 l 4.0708,-0.9587 z" />
  <path
     d="m 172.8723,417.0275 5.5593,1.1809 7.0756,0.3373 4.8855,-3.2049 8.423,-1.8554 12.1294,-0.506 5.3909,-1.3495 11.287,-4.8917 4.38,-0.3373 4.717,-4.0481 5.8962,-1.1808 3.2008,-3.8796 h 5.2224 l 3.5378,1.0121 0.5054,-3.2048 3.7061,-4.3857 3.8748,-1.3494 1.853,0.1688 3.0324,3.036 3.3692,-1.1805 -1.1792,-8.0967 2.19,-3.5422 3.2008,-1.1806 2.1901,-9.7833 3.7061,-1.6866 1.3479,-4.3857 7.0754,0.3374 4.5484,-4.0482 -1.1791,-5.0603 0.8421,-8.6026 3.8748,-4.0481 1.0108,-3.5422 6.5701,-1.8554 4.0431,-3.7111 4.0431,-1.1806 7.4123,-6.4097 1.6848,-4.5542 -0.3369,-8.0966 3.0323,-4.0481 5.2223,-2.3615 9.9394,-0.3374 9.2654,-4.0482 8.7601,-0.5061 9.9393,-1.8553 7.7495,0.1686 13.9825,-2.6988 7.9176,1.012 16.8464,-4.2168 7.2441,-0.3374 5.5592,1.1806 4.5485,2.3616 5.0539,0.5059 4.0431,4.217 4.38,1.1807 3.7063,4.217 -0.337,3.3735 5.8963,5.9036 v 3.3734 l 2.5269,3.205 6.0647,-3.0361 0.6739,4.3856 1.8531,2.3614 5.2223,-4.723 1.8531,4.0483 2.6954,1.3493 3.5378,-2.5301 3.8747,1.3494 5.2223,-2.3615 5.0539,5.229 3.5378,-5.5662 3.2008,1.5181 0.5053,4.5542 3.8748,-0.6747 5.2224,3.3734 2.0215,-4.2168 3.5376,-0.5059 4.8857,5.9035 2.3584,-2.5301 2.0216,-6.5783 6.4015,0.8433 4.7169,-3.5422 5.2224,2.1927 3.2009,-4.5542 4.5484,1.6868 6.0648,-0.6746 6.0646,-3.8797 3.5378,-6.5784 7.9178,-4.0482 3.0323,3.8796 3.7063,2.5302 4.5484,-2.6989 4.8855,1.6868 2.6953,4.8916 3.2009,-0.3374 -0.9923,-6.4327 133.91,108.3132 -3.7903,133.5915 6.0646,-1.012 2.7796,0.7591 3.7904,-2.7831 5.8121,2.53 0.5053,2.5301 5.812,0.7592 5.9795,1.5222 -0.048,0.2935 h -10e-5 l 4.1178,1.9766 -1.1191,3.1123 -2.9373,-0.4244 -5.3156,4.1026 -1.8183,3.9613 2.0981,2.8293 -1.9583,3.2539 -5.0356,-4.6686 -3.2173,0.4244 c 0,0 -6.1545,-5.2343 -6.5743,-5.9416 -0.4196,-0.7075 -0.2796,-2.2636 -0.2796,-2.2636 l -3.4971,-1.1319 -4.616,1.6979 -0.5596,6.083 2.6577,3.6783 -3.3571,2.9709 -2.5178,-0.9904 -0.2797,-1.9805 2.3779,-2.5465 -2.0982,-2.6878 -8.2529,-0.566 -3.4969,1.8392 h -2.0982 l -5.0357,4.81 0.8393,2.6879 -6.4344,4.2441 c 0,0 -5.0356,-1.1318 -5.735,-1.4147 -0.6994,-0.2829 -1.1191,-1.6976 -1.1191,-1.6976 l -2.9376,0.9903 -0.9791,2.4049 1.9583,1.5563 -2.0982,3.9612 -3.2171,0.7073 -1.9584,-0.7073 -2.2379,3.1123 1.8183,2.6879 -2.6577,3.3954 h -5.0357 l -3.2171,2.1219 -5.5953,-2.9708 v -1.6976 l -1.8184,-0.5658 -3.0774,1.839 0.2798,3.6782 -3.4969,-0.283 -1.119,-3.2536 3.2172,-3.5369 -2.2381,-2.5466 h -2.6576 l -6.2947,3.5369 -4.7559,-1.4147 -1.119,-2.6879 -6.8541,-0.566 -3.2172,3.5368 3.4969,4.9515 -2.238,4.1026 -6.0148,-3.5368 -1.8185,-4.8099 -6.0147,-5.2345 -6.8542,-0.2829 -1.9583,2.8295 7.5535,3.6783 2.5178,10.4687 -2.238,4.2441 -5.3154,-4.2441 -0.5596,-2.8295 -6.1702,0.2301 -1.3832,2.0336 0.5595,2.2635 -2.2381,3.1123 -6.9939,1.4147 -3.3571,4.81 h -4.1964 l -1.9583,-4.5269 0.5595,-2.8294 -2.2381,-1.9807 h -3.6369 l -2.238,5.0929 2.7975,3.1123 -4.7558,4.5271 -3.0773,-1.4147 -3.0773,-5.6589 h -3.0776 l -6.4342,-4.8099 2.5178,-4.2441 -3.0774,-2.2636 -5.5953,0.283 -0.8391,2.8294 5.8748,5.0929 0.2798,2.2637 h -3.0773 l -1.9583,-1.4147 -5.5952,-0.566 -2.7977,3.3952 2.5179,2.8295 -0.2797,3.9612 -2.5178,0.5659 -4.756,-2.2636 0.5595,-4.81 -1.6785,-3.1122 -6.4345,0.8487 -2.5178,2.8294 5.875,6.7906 -1.3988,3.9613 -4.4762,-2.2636 -1.9583,-2.8295 -5.5951,-4.2441 1.9583,-4.2441 -10.6309,-0.283 -2.5177,3.1124 -4.4762,-2.2634 v -2.8294 l 4.1965,-2.5466 v -2.2636 l -8.1132,-5.0929 -3.6369,4.2442 -5.0355,-0.566 -3.0774,-2.2635 -1.9583,1.9805 1.6786,4.8101 -3.9167,0.283 -1.3987,3.3952 6.1546,0.5659 -1.3987,2.5465 -5.0356,1.1317 -1.9583,2.8294 -1.6787,-1.4147 1.1191,-2.8294 -3.6369,-3.1122 -17.0654,0.8487 -12.8688,3.1123 -10.6308,-0.5658 -4.756,-2.5465 -20.1426,3.3953 -3.0773,5.3759 -15.107,5.6588 -4.1963,-0.566 -2.7976,2.5466 -8.113,-1.6976 -2.2379,-1.6976 -15.9464,7.6393 -1.6785,6.2249 -11.7498,5.9416 -15.1069,1.4148 -2.5179,-2.5466 -9.7916,-0.5658 -3.9167,1.9805 -5.8747,-3.6782 -8.6728,-0.8488 -1.9581,-1.4147 -9.5119,-1.6975 -9.2321,4.8098 -3.6368,0.283 c 0,0 -8.6725,7.0736 -10.351,8.2053 -1.6786,1.1318 -2.2381,4.2441 -2.2381,4.2441 0,0 -6.4344,1.1318 -8.3926,1.6977 -1.9584,0.5658 -2.2382,4.2441 -2.7977,5.3759 -0.5596,1.1318 -3.6369,3.1124 -3.6369,3.1124 l -10.9106,3.6782 -1.9583,1.4147 -5.8749,-0.8488 -0.8392,-1.4147 h -1.6785 l -3.9167,2.8295 -13.7082,3.1123 -0.2798,3.9613 -9.7914,5.9416 -0.8394,3.9612 -4.4761,0.5659 0.8392,2.2635 -8.3928,8.2054 h -3.6368 l -7.8332,4.81 -3.0774,0.2829 -3.6368,1.4146 -12.8689,-3.9612 -1.9583,-3.1123 -17.0653,-7.3564 -3.637,-3.9613 -10.0712,-1.9806 -8.113,-3.3953 H 106.163 l -5.3153,-5.9417 -5.8751,-0.5658 -21.5412,-13.5813 -0.2798,-6.7906 -1.9584,-12.7324 -5.0355,-9.3371 v -7.9222 l 3.0772,-2.5466 -4.4762,-3.3953 -13.9878,-1.1317 -4.1965,-1.6977 -4.4761,-1.1317 2.5179,-3.9611 -3.637,-2.5466 -5.5951,-0.2829 -5.3154,-2.8294 0.8393,-5.942 -1.6785,-1.6975 1.119,-3.6781 -11.1903,-10.7518 0.5595,-4.2442 -1.3989,-2.5466 -0.2796,-3.3953 5.0356,-5.0929 -3.6368,-1.9804 1.6784,-5.6589 -4.2714,-9.6834 2.4564,-1.0456 4.3284,-0.5655 1.4325,-3.7583 5.7903,-3.4745 2.3162,-10.3772 4.967,-5.0721 5.0899,3.4414 6.0798,1.4014 5.2114,-2.8955 -0.2895,-7.528 -2.3161,-3.1849 1.737,-3.185 9.5541,-1.4477 4.9218,-6.6594 7.2378,-4.0536 3.1848,-10.4234 -2.6058,-11.5816 1.7372,-6.0805 9.2644,-6.6594 2.3162,-4.3431 4.6323,0.2896 1.7372,2.8954 2.8951,0.8686 -1.4475,5.2117 2.3161,2.0268 4.9217,-1.7372 2.6057,-0.2896 5.2113,-3.4744 7.5273,-12.4502 -0.8684,-2.606 v -7.8176 l 2.8951,-2.3164 h 3.4743 l 4.6322,-1.4475 8.975,4.9221 5.7903,-2.606 v -3.7639 l 2.0267,-2.6059 -2.4032,-5.9665 -5.7322,-2.4569 3.4803,-4.2994 5.5274,-0.2047 2.8661,-3.4805 6.7558,0.4094 8.4084,-3.4607 z"
     style="display:inline;fill:#fefee9;fill-opacity:1;stroke:#646464;stroke-width:0.53333336;stroke-linecap:butt;stroke-linejoin:round;stroke-miterlimit:4;stroke-dasharray:none;stroke-opacity:1"
     id="Tame,_Código_DANE_:_81794" />
  <path
     d="m 206.485,265.1397 c 0.06,0.1121 12.3782,-3.9694 12.3782,-3.9694 l 13.3086,-0.6747 22.911,-3.2048 155.155,-26.9038 32.5975,-36.94 4.6329,-2.7833 145.7394,117.8816 v 0 l 0.9923,6.4328 -3.2008,0.3375 -2.6954,-4.8916 -4.8854,-1.6869 -4.5485,2.6989 -3.7063,-2.5302 -3.0323,-3.8795 -7.9177,4.0481 -3.5379,6.5785 -6.0646,3.8795 -6.0647,0.6747 -4.5485,-1.6867 -3.2009,4.5541 -5.2224,-2.1926 -4.7169,3.5421 -6.4015,-0.8432 -2.0216,6.5782 -2.3584,2.5301 -4.8857,-5.9035 -3.5376,0.5059 -2.0215,4.2169 -5.2224,-3.3735 -3.8748,0.6748 -0.5053,-4.5543 -3.2008,-1.5182 -3.5377,5.5663 -5.054,-5.229 -5.2223,2.3615 -3.8747,-1.3493 -3.5378,2.5301 -2.6953,-1.3494 -1.8532,-4.0482 -5.2223,4.7229 -1.8531,-2.3613 -0.6739,-4.3858 -6.0646,3.0362 -2.527,-3.2049 v -3.3734 l -5.8963,-5.9036 0.337,-3.3737 -3.7063,-4.2168 -4.38,-1.1808 -4.0431,-4.2169 -5.0539,-0.5059 -4.5485,-2.3616 -5.5592,-1.1807 -7.2441,0.3374 -16.8464,4.2169 -7.9176,-1.012 -13.9825,2.6988 -7.7495,-0.1687 -9.9393,1.8553 -8.7601,0.5061 -9.2654,4.0482 -9.9394,0.3374 -5.2223,2.3615 -3.0323,4.0481 0.337,8.0966 -1.6848,4.5542 -7.4124,6.4098 -4.0431,1.1806 -4.0431,3.7109 -6.5701,1.8555 -1.0108,3.5422 -3.8748,4.0482 -0.8421,8.6025 1.1791,5.0603 -4.5484,4.0481 -7.0754,-0.3374 -1.3478,4.3858 -3.7062,1.6866 -2.1901,9.7833 -3.2008,1.1807 -2.19,3.5422 1.1792,8.0965 -3.3692,1.1806 -3.0324,-3.036 -1.853,-0.1688 -3.8748,1.3495 -3.7061,4.3856 -0.5054,3.2048 -3.5378,-1.0121 h -5.2224 l -3.2008,3.8797 -5.8962,1.1807 -4.717,4.0481 -4.38,0.3373 -11.287,4.8917 -5.3909,1.3494 -12.1294,0.5061 -8.423,1.8554 -4.8855,3.2048 -7.0756,-0.3372 -5.5592,-1.1809 -7.3619,-2.2379 4.2591,-10.877 4.2992,-2.6617 -2.0472,-18.4263 v -10.2368 l 4.9133,-9.2131 0.2048,-19.0405 -3.2756,-5.5279 1.6378,-13.3078 5.5274,-7.3705 -2.6615,-12.0794 5.118,-9.2133 2.252,-9.6225 -2.4567,-1.2284 2.6614,-5.7327 5.3227,-2.2521 2.2518,-3.4805 -4.2989,-7.1657 v -4.5043 l 2.8659,-0.8189 1.433,-2.8663 6.5511,-0.8189 1.6377,2.2521 2.6842,0.8018 z"
     style="display:inline;fill:#fefee9;fill-opacity:1;stroke:#646464;stroke-width:0.53333336;stroke-linecap:butt;stroke-linejoin:round;stroke-miterlimit:4;stroke-dasharray:none;stroke-opacity:1"
     id="Fortul,_Código_DANE_:_81300" />
  <path
     d="m 206.2099,255.8878 7.984,-5.3232 h 3.6849 l 5.3228,-7.1657 0.6141,-6.5516 5.118,-4.9136 -0.6141,-14.9457 5.5224,-9.3021 0.7695,-6.6612 6.2548,-16.2427 3.1817,-2.5139 9.9358,-18.4966 2.4723,-11.9888 5.2601,-13.9603 5.2098,-7.0627 0.6483,-11.0215 8.6495,-8.1894 0.8189,-11.8748 8.5742,-6.7049 2.9311,4.139 6.2281,2.1516 9.0591,-4.3032 0.453,-3.5104 3.3972,-0.1132 3.7369,1.3589 5.5486,-0.5662 2.9442,-2.7178 h 5.8885 l 5.4355,1.5854 3.6236,-2.6046 3.5104,0.2266 2.0384,1.5853 7.2473,-4.9825 5.4483,3.9843 12.3194,-4.1294 4.0379,-11.8287 5.6704,-2.1167 2.5954,5.1052 3.7057,-1.3328 -2.0432,-7.9515 2.565,-3.759 3.4709,3.9296 3.8691,0.082 1.4199,-5.672 -0.5897,-4.8366 4.376,1.3632 2.6721,5.0812 -1.816,4.0674 -1.1591,3.573 3.8281,0.3374 1.9838,-4.5364 3.8578,-2.1311 1.0032,-4.0303 -1.3823,-4.4436 4.9814,-0.2329 3.1798,-1.7918 4.9044,2.3436 -2.1693,6.2443 -4.5548,1.884 0.3731,3.649 5.686,2.7581 4.7328,-5.0318 2.7585,-6.0436 5.1489,-0.5962 3.2691,9.8709 -0.7745,9.1179 4.9857,0.012 5.5594,3.3735 8.5916,-3.7108 v 0 l -0.2528,57.6872 -2.4426,55.1571 -4.6329,2.7833 -32.5975,36.94 -155.155,26.9038 -22.911,3.2048 -13.3086,0.6747 -12.3458,3.9709 -2.1378,-3.7376 z"
     style="display:inline;fill:#fefee9;fill-opacity:1;stroke:#646464;stroke-width:0.53333336;stroke-linecap:butt;stroke-linejoin:round;stroke-miterlimit:4;stroke-dasharray:none;stroke-opacity:1"
     id="Saravena,_Código_DANE_:_81736" />
  <g
     id="layer10"
     style="display:inline"
     transform="translate(-3996.8739,-3001.3641)">
    <path
       id="path5806"
       style="display:inline;fill:none;stroke:#646464;stroke-width:2.13333344;stroke-linecap:butt;stroke-linejoin:round;stroke-miterlimit:4;stroke-dasharray:none;stroke-opacity:1"
       d="m 4016.1753,3546.9538 4.3284,-0.5655 1.4325,-3.7583 5.7903,-3.4745 2.3162,-10.3772 4.967,-5.0721 5.0899,3.4414 6.0798,1.4014 5.2114,-2.8955 -0.2895,-7.528 -2.3161,-3.1849 1.737,-3.185 9.5541,-1.4477 4.9218,-6.6594 7.2378,-4.0536 3.1848,-10.4234 -2.6058,-11.5816 1.7372,-6.0805 9.2644,-6.6594 2.3162,-4.3431 4.6323,0.2896 1.7372,2.8954 2.8951,0.8686 -1.4475,5.2117 2.3161,2.0268 4.9217,-1.7372 2.6057,-0.2896 5.2113,-3.4744 7.5273,-12.4502 -0.8684,-2.606 v -7.8176 l 2.8951,-2.3164 h 3.4743 l 4.6322,-1.4475 8.975,4.9221 5.7903,-2.606 v -3.7639 l 2.0267,-2.6059 -2.4032,-5.9665 -5.7322,-2.4569 3.4803,-4.2994 5.5274,-0.2047 2.8661,-3.4805 6.7558,0.4094 8.3934,-3.4804 4.299,-10.851 4.2992,-2.6617 -2.0472,-18.4263 v -10.2368 l 4.9133,-9.2131 0.2048,-19.0405 -3.2756,-5.5279 1.6378,-13.3078 5.5274,-7.3705 -2.6615,-12.0794 5.118,-9.2133 2.252,-9.6225 -2.4567,-1.2284 2.6614,-5.7327 5.3227,-2.2521 2.2518,-3.4805 -4.2989,-7.1657 v -4.5043 l 2.8659,-0.8189 1.433,-2.8663 6.5511,-0.8189 1.6377,2.2521 2.6615,0.8188 1.8424,-5.5278 7.984,-5.3232 h 3.6849 l 5.3228,-7.1657 0.6141,-6.5516 5.118,-4.9136 -0.6141,-14.9457 5.5224,-9.3021 0.7695,-6.6612 6.2548,-16.2427 3.1817,-2.5139 9.9358,-18.4966 2.4723,-11.9888 5.2601,-13.9603 5.2098,-7.0627 0.6483,-11.0215 8.6495,-8.1894 0.8189,-11.8748 8.5742,-6.7049 2.9311,4.139 6.2281,2.1516 9.0591,-4.3032 0.453,-3.5104 3.3972,-0.1132 3.7369,1.3589 5.5486,-0.5662 2.9442,-2.7178 h 5.8885 l 5.4355,1.5854 3.6236,-2.6046 3.5104,0.2266 2.0384,1.5853 7.2473,-4.9825 5.4309,3.9619 12.336,-4.1068 4.3018,-12.0381 5.3888,-2.0507 2.7262,5.1929 3.8414,-1.2906 -2.1412,-7.9851 2.8551,-3.9941 2.7398,4.1683 4.383,-0.019 0.8157,-5.7181 -0.2563,-4.7533 4.2927,1.2563 2.34,4.8414 -1.8302,4.5376 -1.3086,3.7346 4.1941,0.455 2.1402,-4.6802 4.4569,-2.4569 0.017,-4.0148 -1.835,-4.1812 5.6268,-0.3249 3.1946,-1.7644 5.1488,2.494 -2.3203,6.376 -4.8465,1.5588 0.7661,3.6929 5.2606,2.5635 5.1011,-4.5046 3.1534,-6.3453 5.0659,-1.2531 3.1841,9.9851 -1.3717,9.4972 5.5025,0.1045 5.5594,3.3736 8.5915,-3.711 8.5916,0.3374 6.0648,2.5301 5.5592,-0.6747 4.717,-4.8916 3.8748,-6.2411 5.7276,-1.8555 5.7279,1.8555 8.2547,5.9037 h 7.0755 l 7.5808,-6.747 4.2115,-0.3374 1.8533,4.0482 -3.3693,5.3977 -1.3479,9.4459 2.1902,4.0482 3.8746,0.3374 7.7493,-7.2533 9.9394,1.0122 8.7599,-4.217 8.2548,0.3374 6.0648,6.2411 4.8854,-1.3495 4.3801,-4.5541 6.0645,7.0844 h 6.0649 l 6.907,-7.0844 4.5483,-0.5061 2.5271,5.2289 -0.3369,6.0724 4.0431,2.3614 4.3801,-2.024 3.5378,-6.4098 6.4015,-1.012 2.6953,-5.735 4.5486,-2.1929 6.7386,1.687 7.5809,-0.6749 7.9176,1.0122 4.0432,4.0481 3.3694,5.0603 4.717,2.8676 8.9285,-2.5303 10.2762,1.1809 11.2871,-0.5062 7.5808,-2.6987 7.5809,-4.3856 7.5809,2.5301 7.9177,-1.1808 4.7171,-3.8794 4.2115,2.3615 1.1793,4.5542 5.7278,2.1928 6.233,4.0482 5.5593,-8.4337 3.8747,-1.6869 6.0648,3.711 6.5699,1.0119 3.8748,-3.5423 4.3801,4.217 6.7384,-1.1806 5.8962,-3.2048 11.961,-0.3375 6.2332,-4.2168 9.6024,-0.6747 2.8639,3.7108 0.5053,5.9036 2.1901,4.2171 7.5809,-0.1688 4.38,2.5301 -6.5701,6.9157 1.0108,3.5424 10.1078,1.1806 3.7061,3.0362 3.7905,-1.5182 4.0431,3.5423 10.3606,-1.5182 16.1725,0.7593 8.8442,3.795 10.3606,-4.5543 6.57,-1.0119 6.0647,-8.6026 5.5594,-3.036 2.2742,-8.0964 13.1401,-1.5182 5.812,2.7831 4.2958,-3.7952 6.8228,-1.2651 4.0431,-4.3013 -3.7903,-3.2892 -1.2636,-4.3011 0.2528,-4.3013 3.5378,-3.5422 3.7903,0.759 3.0324,4.3013 4.2958,-0.5061 3.285,-4.0482 1.2635,-4.5542 4.2959,-4.0482 5.0539,-1.2652 5.3065,1.0122 4.0432,3.7951 5.3067,1.7712 5.8119,-0.5061 -0.7581,-4.5542 3.0322,-3.7953 -5.5591,-0.253 -1.2636,-3.5422 3.7905,-2.0241 3.7904,1.2651 4.2958,-2.0241 4.0432,2.5302 3.7903,0.5059 2.2742,2.7831 2.2743,-0.506 v -5.3132 l 5.3066,0.2531 6.3175,-3.2893 9.6023,0.253 5.054,3.2892 3.0323,-2.0241 1.0108,-4.8073 5.5955,-0.3254 -1.0468,-4.2288 4.0431,-2.0241 5.0537,3.2891 7.3283,2.2771 6.3172,-0.253 9.0972,-3.0361 7.5809,0.759 4.2958,-2.024 3.7904,-4.3014 4.5484,1.7712 2.7797,5.8193 3.5378,3.2892 6.3174,0.253 2.5269,2.7831 h 3.7904 l 5.8963,2.8675 2.8637,4.0482 10.4448,-0.6747 8.5917,3.711 8.5916,-0.506 7.0756,-2.0241 1.1792,-3.8797 5.8962,0.6748 3.7062,-4.8917 4.0432,2.0242 3.7061,-1.1808 2.0216,2.6988 3.7062,0.6747 4.38,7.5904 4.8855,6.4098 -4.8855,1.3493 1.3478,2.6989 4.7169,-0.8434 -3.0323,4.0482 5.5593,-0.1687 1.3477,3.2048 6.0647,2.5302 3.8747,3.2049 -1.0108,5.0604 7.5809,8.6025 3.5376,0.1686 1.3478,-2.0241 4.043,0.1685 8.2547,5.2291 4.8856,-1.3495 4.5485,-0.5059 v -3.5422 l 2.5269,-2.8675 3.3692,2.0241 -1.6846,4.2168 4.38,0.8434 3.7063,-3.036 2.3585,1.8552 2.6955,-2.8675 4.7169,10.2893 6.907,6.0723 7.4123,-4.3854 3.7063,3.8795 6.57,-2.5301 4.2116,2.8675 5.7277,0.5059 v 4.217 l 2.6955,3.7108 3.8745,1.1808 -1.0105,3.5422 1.516,3.0361 h 5.054 l 1.0108,2.6989 4.5484,4.7229 9.434,2.3615 3.3694,2.5301 3.8745,1.1807 5.0539,-1.6868 6.0647,0.1686 4.0431,2.0242 6.4017,-4.2168 3.8746,1.1807 3.7063,-2.3615 5.2224,0.1686 4.2114,-3.8794 5.7279,-7.4218 5.5592,-3.5422 h 3.5378 l 2.3585,-1.6868 1.0108,-3.0361 2.1901,-2.0242 5.5591,-0.8433 h 6.5701 l 7.0756,-2.0242 7.7493,1.1808 6.57,-1.012 5.0539,0.3372 6.0648,-1.1807 2.5269,-2.8675 h 3.2008 l 2.5268,2.5302 3.2009,1.518 h 4.8854 l 4.0432,-1.518 v 0 l 447.6609,553.1636 -7.5315,8.0493 -4.372,-2.7927 -10.5849,3.2582 -3.9119,8.3781 -8.0538,3.4909 -2.9913,-0.6983 -5.5227,3.4909 -3.4516,3.491 -8.5139,1.1636 -11.7356,3.0254 -5.7526,4.4219 -13.8064,1.1635 -2.0711,-1.8618 -14.2665,1.6292 -3.2216,1.629 -10.8151,0.9308 -4.8322,-1.1635 -10.8151,1.3964 -8.9743,-2.5601 -10.3547,1.6291 -3.4517,3.4909 -12.1956,2.0946 -3.9119,-3.2582 -6.213,-2.0945 -2.7612,-3.4909 -4.3721,-0.2328 -13.5763,1.3964 -16.7978,-7.9126 -2.0709,-2.3273 -7.3635,-0.2327 -12.1958,4.8872 -1.6107,-1.1637 -10.815,7.4472 -2.7614,5.5854 -6.2128,5.12 -1.1507,4.8873 -3.2085,3.3533 -3.649,-6.2928 -8.232,-3.8426 -3.1537,-2.3921 h -6.5042 l -3.3508,1.5948 -8.081,-6.379 -0.3944,-3.3889 -7.2926,-7.7743 -0.3942,-5.5817 1.3798,-0.5979 1.5767,-8.1732 -2.3652,-4.1862 -5.3216,-1.3953 -4.9276,-1.9935 -10.0522,-9.3691 0.3942,-3.7875 -1.5768,-4.1862 -3.1536,-2.7909 -0.1971,-2.1927 -9.2638,0.598 -3.1535,1.5947 -0.3941,1.9935 -9.0668,1.7941 -4.7303,-2.3921 v -3.3888 l 2.3652,-1.5948 v -6.379 l -3.3508,-3.1894 -6.1101,0.7973 -5.1999,4.6287 -4.7558,1.9806 -5.3156,-1.9806 -2.6577,-4.1025 -7.2736,0.5658 -5.4553,3.3952 -5.3154,-1.6977 -4.1963,-5.5172 3.3571,-7.6395 6.4344,-1.6976 2.238,-2.5464 -3.3571,-3.2539 -3.2172,-0.566 -6.0148,1.1319 -3.9167,-1.9806 -0.2798,-5.5173 2.0983,-2.405 -1.5386,-4.8101 -5.4553,-3.1124 -4.616,-0.5659 -4.616,-3.3952 -0.4196,-2.971 -4.0566,-3.1123 -4.1964,-0.283 -3.2173,-1.5561 -3.6366,0.5658 -1.259,1.4148 -4.756,-3.1124 v -4.1026 l 1.1191,-2.5464 -0.6995,-3.2539 -2.238,-0.7074 0.6994,-1.8391 1.9583,-0.5659 -3.4971,-2.405 c 0,0 -0.4195,-1.4146 -0.4195,-2.4049 0,-0.9903 -6.1547,-3.5369 -6.1547,-3.5369 l -6.994,-0.1414 -2.0981,1.4147 -4.3364,-2.8294 -1.3988,-6.0832 1.1192,-2.6879 3.2172,-1.2733 -0.5595,-2.688 -2.3781,-2.405 -5.0356,-0.8489 -3.2172,2.405 1.3988,5.376 -2.0982,4.1025 -6.5743,1.9807 -8.8123,-7.7809 v -2.5464 l -3.0774,-0.7074 -3.497,1.4147 0.4196,1.8391 -1.5387,1.6977 -8.5326,-1.4147 -2.2382,-3.1124 -1.8183,1.1318 v 1.2732 l -2.098,2.5466 -1.2591,-1.1319 -2.238,-1.9806 -2.2381,1.2733 0.6993,1.6976 -1.6785,1.6977 -3.0773,-0.9903 -0.6994,-1.1318 -4.0564,0.1415 -7.4138,3.5367 -0.5595,3.2538 -4.3362,3.1125 -5.0356,-2.2636 -0.6994,-1.2733 -4.0566,-2.9709 -4.8957,-0.9903 -1.9582,0.9903 v 1.9806 l -2.7977,0.9903 c 0,0 -0.2797,-0.8488 -1.259,-1.9806 -0.9791,-1.1317 -3.4969,-1.9806 -3.4969,-1.9806 l -1.5386,-2.4049 -1.6786,1.2732 0.9792,1.6976 -1.259,2.1221 h -5.735 l -0.5596,-1.2732 2.0982,-2.9708 -3.0773,-3.9613 -3.9166,-0.8489 -2.5179,1.5563 h -5.4552 l -1.5388,-1.9806 -6.854,0.9903 -5.3155,-2.971 v -2.2634 h -1.5386 l -3.2171,1.4147 -0.5596,1.9806 -3.0773,-1.4147 v -0.7075 l -1.8185,-0.8488 -3.2172,1.4147 v 1.1318 l -3.2172,2.688 -2.5178,0.8488 -0.5596,-1.2732 -2.238,0.5659 -0.8393,1.4147 h -3.2173 l -3.3571,-0.1415 -1.119,-1.4147 -1.9583,0.8488 -1.119,1.4147 c 0,0 -3.0774,0 -3.9166,0 -0.8394,0 -2.2381,-0.5659 -2.2381,-0.5659 l -3.9166,1.4148 v 1.4147 l 2.098,1.1316 0.4197,3.3954 -5.4551,2.5465 -1.5388,-0.4244 -7.1338,1.8391 -4.0565,3.8197 -2.2382,2.9708 -3.0773,-0.4244 -1.5385,-1.839 -5.0357,1.4147 -1.9583,3.6781 0.5595,1.9807 -3.6369,3.6782 h -3.4971 l -0.5594,-1.1317 -1.9583,1.1317 -0.4197,1.5563 -3.2171,1.2732 -1.3989,-0.9903 -4.1963,1.9805 -3.0774,4.3857 -1.3988,-1.1319 -3.7767,0.9903 -2.238,3.1124 h -2.2382 l -1.8185,0.9903 -2.0982,-3.3953 0.4197,-1.5561 -2.5177,-3.5369 -3.9167,-0.9902 -3.3571,2.6879 -0.2797,2.2636 -3.0773,0.1414 -1.6787,-1.2732 1.3988,-1.8392 -0.5595,-1.556 -3.2172,-0.8489 -4.1964,1.839 -0.1398,2.1222 -2.7976,1.2731 -2.5179,-1.5561 0.8392,-2.8293 -1.6785,-1.4148 v -1.2732 l -1.8183,-0.1415 -2.6577,3.8196 0.1398,2.8295 -2.7976,1.8391 -1.6785,-2.9709 -2.3781,-0.2829 -0.8392,-1.1318 -3.0772,2.2635 -0.9792,3.1124 -2.5179,-1.1317 0.1399,-1.6977 -1.259,-0.4244 -5.3154,2.8294 -0.1398,1.5562 h -1.3987 l -0.5596,-0.8488 h -2.6577 l -2.0982,1.4147 0.6994,2.405 -3.6369,1.1318 -2.5178,-3.3953 0.6994,-1.1319 -1.6787,-1.2731 -4.476,0.9902 -1.9582,2.9709 -2.378,-0.2829 -5.1756,1.5562 -1.3988,-0.4244 -3.7767,1.2733 -5.7352,4.244 -3.6367,0.5659 -2.6578,-3.5368 -0.1398,-0.7073 -1.8185,-0.9903 -6.4345,2.122 -3.0772,2.405 -3.7768,-1.6976 -0.1398,-1.2732 h -2.7977 l -1.5861,0.6285 -2.6102,1.0691 0.2796,2.405 -1.5384,1.4147 -3.4971,-0.283 -2.7975,-3.9611 0.2796,-2.1221 -2.5178,-0.5658 -4.4761,1.839 -0.2797,1.2733 -2.0982,-0.7074 -0.4196,-0.9902 -5.0358,-2.8294 v -1.5562 l -4.476,0.9903 -1.1191,1.9806 -2.238,-0.1415 -3.0775,-2.2635 -0.4195,-3.2539 1.5386,-1.2733 0.5596,-2.5464 -0.6994,-1.9806 -2.6578,1.8391 -2.7976,0.2829 -1.1191,2.688 -1.5384,-3.5367 1.8183,-2.4051 -2.7976,-0.7073 -2.6577,0.4245 -3.0774,-1.2733 -0.5596,-1.8392 -5.1754,0.283 -2.238,1.1318 0.2798,1.6977 -2.6578,2.1219 -2.378,-3.2538 0.1399,-2.5464 -1.3988,-0.1415 -2.6577,1.9806 -3.0773,-0.1414 -1.2588,2.6879 0.4196,2.5464 -1.9584,3.2539 c 0,0 -8.5327,-0.7074 -9.0923,-0.566 -0.5593,0.1416 -2.238,2.5466 -2.238,2.5466 l -4.4761,-1.1319 -0.8392,-1.2731 -5.0358,0.9903 -2.098,2.9708 1.8183,2.1222 -0.8392,5.5172 h -3.2173 l -4.0564,-4.2441 0.4196,-1.5561 -1.5387,-1.2733 -3.3571,1.4147 -0.2799,1.5563 -2.9373,0.4243 -5.0357,-4.81 -0.2797,-1.2732 -2.7976,0.5659 -1.9583,2.5464 -8.6726,-0.8488 -0.4197,-1.5562 -1.6785,0.4244 -1.2589,2.4051 -4.1963,0.2829 -2.9374,3.8197 -4.756,-0.1416 -6.9939,-4.3855 -0.4196,-1.4147 -4.3364,-0.9903 -3.9165,1.4147 -6.8541,0.283 -3.4971,2.8295 -5.0356,-1.9807 -3.7768,-4.5271 -4.1963,-3.2538 -3.9166,-4.5271 -0.1398,-1.6976 h -3.3572 l -1.5387,1.4147 h -2.238 l -4.6161,-3.3953 -0.1398,-2.1221 -4.616,-2.2636 -3.2173,2.2636 1.6786,4.6686 -3.7768,0.4244 -1.6785,-2.1221 -4.3362,-0.1415 -4.4762,1.5562 -4.8958,-1.839 c 0,0 -0.4197,-0.8489 -0.5595,-2.1222 -0.1399,-1.2733 -3.7767,-2.405 -3.7767,-2.405 h -2.9376 l -4.8957,-4.527 v -1.5562 l -2.6577,-2.122 -4.0564,0.8487 -5.5952,3.6783 -0.4197,2.8294 -5.0356,1.5561 -3.0774,-3.961 0.2798,-2.5465 -3.3571,-0.9903 -3.0775,4.5269 1.6787,1.2733 -1.6787,4.6686 -2.3778,0.2829 -2.7976,-3.5368 -2.3779,0.2829 -4.8958,-0.8487 -2.7976,0.9903 -0.5594,2.122 -3.7769,-1.9806 0.14,-2.405 1.3988,-1.4147 -3.4971,-1.9805 -3.7767,1.2733 -6.2945,-3.1125 -1.259,-3.6782 -3.357,0.7074 -0.14,1.6976 -2.7976,0.7074 -3.3569,-3.2539 v -1.4147 l -1.3989,-0.5659 -4.8958,0.4245 -4.0566,-3.2539 -1.3987,-3.8196 -4.4762,-0.9904 -2.6576,1.8391 0.024,1.7161 -0.084,0.2684 4.1178,1.9767 -1.1192,3.1123 -2.9374,-0.4244 -5.3154,4.1027 -1.8184,3.9613 2.0981,2.8292 -1.9583,3.2539 -5.0356,-4.6686 -3.2173,0.4244 c 0,0 -6.1545,-5.2343 -6.5742,-5.9416 -0.4197,-0.7075 -0.2798,-2.2636 -0.2798,-2.2636 l -3.4969,-1.1318 -4.6161,1.6976 -0.5596,6.0834 2.6578,3.6781 -3.3572,2.9709 -2.5177,-0.9903 -0.2798,-1.9806 2.378,-2.5465 -2.0982,-2.6878 -8.253,-0.5659 -3.4968,1.8392 h -2.0983 l -5.0357,4.8099 0.8394,2.6879 -6.4345,4.2441 c 0,0 -5.0356,-1.1317 -5.735,-1.4147 -0.6995,-0.2829 -1.1191,-1.6976 -1.1191,-1.6976 l -2.9375,0.9903 -0.9792,2.405 1.9583,1.5562 -2.0982,3.9612 -3.217,0.7073 -1.9584,-0.7073 -2.2381,3.1123 1.8184,2.688 -2.6576,3.3953 h -5.0359 l -3.217,2.122 -5.5953,-2.9709 v -1.6976 l -1.8184,-0.5659 -3.0773,1.8391 0.2798,3.6782 -3.4969,-0.2829 -1.1191,-3.2537 3.2172,-3.5369 -2.238,-2.5464 h -2.6577 l -6.2946,3.5367 -4.756,-1.4147 -1.119,-2.6879 -6.8541,-0.566 -3.2172,3.5369 3.497,4.9514 -2.2382,4.1026 -6.0146,-3.5367 -1.8185,-4.81 -6.0148,-5.2345 -6.8542,-0.2829 -1.9583,2.8295 7.5536,3.6782 2.5177,10.4689 -2.2379,4.2441 -5.3155,-4.2441 -0.5596,-2.8295 -6.1701,0.23 -1.3833,2.0335 0.5595,2.2636 -2.238,3.1124 -6.994,1.4147 -3.3571,4.8099 h -4.1964 l -1.9583,-4.527 0.5595,-2.8294 -2.238,-1.9806 h -3.637 l -2.238,5.0929 2.7976,3.1124 -4.7559,4.527 -3.0773,-1.4147 -3.0773,-5.6589 h -3.0775 l -6.4343,-4.8099 2.5177,-4.2441 -3.0773,-2.2636 -5.5952,0.283 -0.8393,2.8294 5.875,5.093 0.2797,2.2635 h -3.0773 l -1.9584,-1.4147 -5.5951,-0.5659 -2.7976,3.3952 2.5179,2.8295 -0.2798,3.9612 -2.5179,0.5659 -4.7558,-2.2636 0.5595,-4.81 -1.6786,-3.1123 -6.4344,0.8488 -2.5177,2.8294 5.8749,6.7907 -1.3988,3.9612 -4.4761,-2.2636 -1.9584,-2.8295 -5.5951,-4.2441 1.9583,-4.2441 -10.6309,-0.2828 -2.5177,3.1122 -4.4762,-2.2635 v -2.8294 l 4.1964,-2.5465 v -2.2636 l -8.1131,-5.093 -3.6369,4.2442 -5.0355,-0.5659 -3.0775,-2.2636 -1.9582,1.9807 1.6785,4.8101 -3.9167,0.2828 -1.3986,3.3955 6.1546,0.5658 -1.3988,2.5464 -5.0356,1.1318 -1.9583,2.8294 -1.6786,-1.4147 1.119,-2.8294 -3.6368,-3.1123 -17.0654,0.8488 -12.8689,3.1122 -10.6308,-0.5658 -4.7559,-2.5464 -20.1426,3.3952 -3.0773,5.3759 -15.107,5.6588 -4.1964,-0.5659 -2.7975,2.5466 -8.113,-1.6977 -2.2381,-1.6976 -15.9462,7.6393 -1.6786,6.2249 -11.7499,5.9416 -15.1069,1.4148 -2.5178,-2.5465 -9.7915,-0.5659 -3.9167,1.9806 -5.8749,-3.6783 -8.6726,-0.8488 -1.9582,-1.4147 -9.5119,-1.6975 -9.232,4.8099 -3.6368,0.2829 c 0,0 -8.6725,7.0736 -10.3511,8.2054 -1.6785,1.1317 -2.238,4.2441 -2.238,4.2441 0,0 -6.4345,1.1317 -8.3927,1.6976 -1.9584,0.5659 -2.2382,4.2441 -2.7977,5.376 -0.5596,1.1317 -3.6369,3.1123 -3.6369,3.1123 l -10.9106,3.6782 -1.9582,1.4147 -5.875,-0.8489 -0.8392,-1.4147 h -1.6786 l -3.9166,2.8295 -13.7082,3.1124 -0.2798,3.9612 -9.7915,5.9417 -0.8393,3.9612 -4.476,0.5659 0.8391,2.2635 -8.3928,8.2054 h -3.6368 l -7.8331,4.81 -3.0774,0.2829 -3.6369,1.4146 -12.8688,-3.9611 -1.9584,-3.1124 -17.0653,-7.3564 -3.6368,-3.9613 -10.0713,-1.9806 -8.113,-3.3953 h -10.9107 l -5.3152,-5.9417 -5.8751,-0.5659 -21.5413,-13.5811 -0.2797,-6.7907 -1.9584,-12.7324 -5.0356,-9.3371 v -7.9222 l 3.0773,-2.5466 -4.4761,-3.3953 -13.988,-1.1317 -4.1964,-1.6977 -4.4761,-1.1317 2.5178,-3.9612 -3.6369,-2.5465 -5.5951,-0.283 -5.3155,-2.8294 0.8394,-5.9418 -1.6787,-1.6976 1.1192,-3.6783 -11.1904,-10.7516 0.5596,-4.2442 -1.3989,-2.5466 -0.2797,-3.3953 5.0356,-5.0929 -3.6368,-1.9806 1.6785,-5.6588 -4.2713,-9.6833 z" />
  </g>
  <g
     id="layer2"
     style="display:inline"
     transform="translate(-4311.2739,-3442.9373)" />
</svg>
