<?xml version="1.0" encoding="utf-8"?>

<!-- Generator: Adobe Illustrator 16.0.0, SVG Export Plug-In . SVG Version: 6.00 Build 0)  -->

<!DOCTYPE svg PUBLIC "-//W3C//DTD SVG 1.1//EN" "http://www.w3.org/Graphics/SVG/1.1/DTD/svg11.dtd">

<svg version="1.1" id="svg2" xmlns="http://www.w3.org/2000/svg" xmlns:xlink="http://www.w3.org/1999/xlink" x="0px" y="0px"

	 width="398.053px" height="539.729px" viewBox="0 0 398.053 539.729" enable-background="new 0 0 398.053 539.729"

	 xml:space="preserve">

<path id="Amazonas" fill="#E1E1E1" stroke="#007BB6" stroke-width="0.4014" d="M305.753,497.601

	c7.914-39.099,8.439-41.986,8.502-46.768c0.043-3.312-0.094-5.095-0.389-5.095c-0.251,0-0.456,0.732-0.456,1.628

	c0,1.393-0.169,1.688-1.165,2.039c-0.875,0.309-1.5,0.261-2.507-0.194c-1.279-0.577-1.353-0.563-1.577,0.287

	c-0.16,0.61-0.624,0.934-1.47,1.024c-1.769,0.19-2.128-0.357-1.356-2.07c0.92-2.042,0.848-2.309-0.618-2.309

	c-1.546,0-1.972-0.513-1.339-1.61c0.753-1.305-0.719-1.043-1.984,0.354c-0.783,0.863-1.551,1.22-2.915,1.354

	c-1.019,0.1-1.999,0.108-2.177,0.02c-0.463-0.23,1.27-3.238,2.121-3.68c1.104-0.573,0.02-0.939-1.928-0.65

	c-2.422,0.359-2.895,0.698-2.334,1.671c0.389,0.673,0.176,1.051-1.371,2.445l-1.832,1.65l-1.9-1.534

	c-1.176-0.948-1.717-1.641-1.417-1.812c0.773-0.444,0.56-1.039-0.372-1.039c-1.547,0-1.855-1.341-0.656-2.849

	c0.912-1.146,0.982-1.437,0.48-1.978c-0.92-0.992-1.543-3.076-1.109-3.711c0.211-0.311,0.387-1.246,0.391-2.081

	c0.006-1.32-0.125-1.517-1.01-1.517c-1.736,0-1.686-0.493,0.244-2.351l1.862-1.794l-1.308,0.295

	c-1.499,0.339-3.958,0.361-4.846,0.045c-0.332-0.118-0.61-0.721-0.617-1.34c-0.01-0.713-0.398-1.385-1.064-1.834

	c-1.008-0.68-1.111-0.675-2.572,0.126l-1.523,0.833l-0.48-0.833c-0.264-0.458-0.801-0.833-1.193-0.833s-1.088-0.314-1.547-0.699

	c-0.721-0.605-0.882-0.619-1.203-0.101c-1.091,1.763-1.507,2.009-2.828,1.679c-1.172-0.294-1.333-0.53-1.553-2.279

	c-0.179-1.428-0.543-2.181-1.357-2.804c-0.902-0.691-1.076-1.117-0.918-2.268c0.154-1.132-0.03-1.61-0.919-2.385

	c-0.849-0.739-1.251-0.862-1.696-0.52c-0.99,0.763-3.828-0.283-4.32-1.592c-0.371-0.989-0.65-1.109-2.889-1.242

	c-1.363-0.081-2.611,0.029-2.774,0.246s-1.911,0.803-3.885,1.303c-4.568,1.156-8.726,3.661-9.822,5.917

	c-1.058,2.178-3.116,3.128-5.623,2.596c-2.241-0.476-3.261-0.186-3.261,0.928c0,0.575-0.578,1.088-1.9,1.684

	c-1.689,0.762-2.111,1.257-3.814,4.486c-1.565,2.968-2.202,3.766-3.492,4.377l-1.578,0.749l-1.005-0.993

	c-1.411-1.394-2.169-1.226-3.81,0.844c-1.999,2.521-3.406,2.5-5.533-0.084c-2.485-3.021-2.88-3.167-5.369-1.997l-2.118,0.996

	l-1.275-0.968c-1.677-1.272-2.965-1.267-3.594,0.014c-0.693,1.413-3.482,1.395-6.183-0.041c-1.339-0.712-3.553-1.289-6.975-1.819

	c-5.966-0.925-6.263-1.013-5.957-1.753c0.166-0.4-0.373-0.767-1.776-1.21c-1.107-0.351-2.402-0.637-2.877-0.637

	c-0.605,0-19.008,4.686-19.75,5.028c-0.033,0.015,0.163,1.147,0.436,2.517c0.354,1.774,0.918,2.974,1.965,4.182

	c1.222,1.409,1.396,1.845,1.031,2.586c-0.703,1.43,0.435,2.87,3.351,4.245c2.215,1.044,2.658,1.135,3.106,0.633

	c0.838-0.937,1.632-0.68,1.942,0.629c0.244,1.03,0.496,1.217,1.669,1.236c1.141,0.019,1.709,0.407,3.258,2.228

	c1.624,1.908,1.991,2.147,2.73,1.78c0.471-0.233,1.49-0.31,2.266-0.169c1.592,0.288,4.66,3.658,7.244,7.958l1.474,2.452

	l-0.929,1.773c-0.511,0.976-0.928,1.925-0.928,2.11c0,0.185,1.083,1.003,2.406,1.818l2.406,1.481l2.392-0.645

	c2.352-0.635,2.413-0.63,3.659,0.294c1.523,1.13,2.498,3.076,2.878,5.748c0.155,1.087,0.582,2.561,0.948,3.273

	c0.65,1.266,0.629,1.346-0.896,3.314l-1.562,2.017l1.405,1.235c0.984,0.866,2.025,1.317,3.476,1.51

	c1.747,0.23,2.071,0.411,2.077,1.158c0.014,1.735,0.475,1.915,3.213,1.251c2.322-0.562,2.578-0.558,3.061,0.055

	c0.468,0.593,0.646,0.506,1.592-0.783c1.177-1.604,1.759-1.781,2.631-0.806c0.484,0.541,1.143,0.606,3.896,0.383

	c3.252-0.263,3.324-0.249,3.822,0.765c0.395,0.805,0.821,1.03,1.933,1.022c3.053-0.02,4.872-0.717,6.791-2.599

	c1.658-1.626,2.094-1.841,3.741-1.841c1.747,0,2.062-0.19,5.034-3.033c1.743-1.669,3.331-3.034,3.526-3.034

	c0.196,0,0.49,0.564,0.653,1.253c0.26,1.098,0.439,1.226,1.451,1.031c1.528-0.292,4.696,0.921,5.347,2.049

	c0.589,1.021,1.258,0.855,1.258-0.312c0-1.644,1.229-0.758,1.75,1.263c0.425,1.64,0.672,1.994,1.242,1.78

	c0.393-0.146,2.336-0.366,4.317-0.487c3.306-0.202,3.625-0.297,3.856-1.152c0.205-0.758,0.591-0.955,2.063-1.055

	c1.497-0.102,1.835-0.28,1.95-1.033c0.158-1.028,1.027-1.192,1.792-0.338c0.386,0.432,0.855,0.481,1.903,0.203

	c1.832-0.488,2.051-0.47,2.051,0.167c0,0.296,1.018,0.979,2.262,1.517c2.561,1.109,3.748,2.111,4.355,3.678

	c0.625,1.609,1.666,1.812,1.666,0.322c0-1.403,1.092-1.662,1.535-0.363c0.483,1.412,2.76,2.396,5.549,2.397

	c2.574,0,3.139,0.454,1.963,1.569c-0.441,0.419-0.234,0.464,1.09,0.238c1.331-0.227,1.635-0.159,1.635,0.367

	c0,0.354,0.552,1.219,1.227,1.919c1.061,1.101,1.354,1.212,2.151,0.815c1.474-0.731,1.719-0.566,2.001,1.349

	c0.268,1.807,0.265,1.812-10.45,17.278c-8.21,11.851-10.62,15.616-10.298,16.091c0.23,0.341,1.281,0.729,2.336,0.86

	c1.054,0.132,2.477,0.454,3.162,0.715c1.097,0.417,1.532,0.33,3.639-0.729c1.818-0.914,2.722-1.142,3.768-0.95

	c2.516,0.461,4.021,1.717,4.886,4.077c0.786,2.146,5.482,8.22,5.76,7.448C297.255,539.447,301.113,520.519,305.753,497.601

	L305.753,497.601z" />

<path id="Vaupes" fill="#E1E1E1" stroke="#007BB6" stroke-width="0.4014" d="M307.307,448.594c0-1.148,0.587-1.307,2.337-0.628

	c2.195,0.851,2.457,0.774,2.469-0.711c0.005-0.723,0.384-1.766,0.841-2.318l0.832-1.004l-1.431-1.625

	c-0.787-0.894-1.777-2.262-2.199-3.041c-0.423-0.778-1.276-1.919-1.897-2.535c-1.103-1.093-1.111-1.148-0.386-2.287

	c0.49-0.771,0.742-2.039,0.741-3.734l-0.003-2.566l-4.248-1.937c-2.337-1.065-4.494-1.931-4.795-1.922

	c-0.789,0.022-3.646-3.036-4.511-4.827c-0.406-0.841-0.954-1.653-1.22-1.805c-0.33-0.189-0.48-3.422-0.48-10.295v-10.02l2.07-0.854

	c1.139-0.47,3.15-1.062,4.469-1.314c4.137-0.794,4.57-0.97,4.717-1.921c0.171-1.109,1-1.159,2.014-0.121

	c0.748,0.768,0.802,0.757,3.01-0.612c3.302-2.048,3.236-2.044,5.131-0.327c1.381,1.252,1.809,1.452,2.115,0.99

	c0.329-0.493,0.638-0.473,2.115,0.146c2.559,1.071,4.834,0.167,2.695-1.071c-1.082-0.627-1.086-0.917-0.028-2.295

	c1.247-1.626,1.521-3.033,0.711-3.657c-0.375-0.288-0.683-1.057-0.683-1.708c0-1.413-1.584-2.922-3.774-3.593

	c-1.292-0.396-1.638-0.356-2.38,0.268c-0.689,0.577-1.033,0.634-1.658,0.272c-0.55-0.319-1.35-0.34-2.648-0.069

	c-1.645,0.343-1.932,0.292-2.48-0.436c-0.444-0.587-1.106-0.822-2.315-0.822c-0.931,0-1.821-0.191-1.976-0.425

	c-0.178-0.266-0.831-0.038-1.741,0.606c-0.802,0.567-1.667,1.031-1.923,1.031c-0.316,0-0.465-3.155-0.465-9.894v-9.895l-2.259-0.622

	c-1.242-0.343-2.794-0.623-3.448-0.623c-0.81,0-1.57-0.421-2.377-1.314c-0.652-0.723-1.552-1.445-2-1.604

	c-1.186-0.423-1.145-3.354,0.057-4.051c0.969-0.562,1.23-2.743,0.327-2.729c-0.3,0.006-1.035,0.365-1.635,0.8

	c-0.697,0.507-1.796,0.799-3.052,0.812c-1.079,0.013-2.342,0.289-2.806,0.614c-0.464,0.326-2.524,1.068-4.577,1.649

	c-3.357,0.951-4.154,1.03-7.908,0.783l-4.174-0.273l-2.365,2.188c-1.713,1.586-3.025,2.392-4.758,2.924

	c-1.316,0.403-2.973,1.062-3.684,1.462c-1.248,0.705-1.333,0.703-2.654-0.055l-1.366-0.783l-0.878,1.103

	c-1.498,1.88-2.322,3.639-2.322,4.957c0,0.696-0.809,2.882-1.798,4.856l-1.798,3.59l0.896,1.597c1.009,1.796,0.894,2.08-0.842,2.08

	c-1.045,0-1.256,0.199-1.503,1.425c-0.192,0.947-0.814,1.827-1.86,2.627c-1.368,1.046-1.652,1.126-2.199,0.618

	s-0.752-0.337-1.578,1.317c-0.602,1.204-2.258,3.04-4.518,5.012l-3.566,3.112l0.546,1.623c0.426,1.267,0.786,1.648,1.645,1.741

	c0.888,0.097,1.125,0.371,1.235,1.434c0.087,0.838,0.372,1.314,0.785,1.314c0.357,0,0.852,0.537,1.098,1.192

	c0.387,1.028,0.696,1.208,2.266,1.314c1.7,0.115,1.827,0.208,1.955,1.437c0.15,1.452,2.023,3.068,4.119,3.554

	c0.662,0.153,1.369,0.552,1.57,0.886c0.305,0.506,0.725,0.536,2.502,0.182c1.941-0.387,2.303-0.334,3.988,0.578

	c1.019,0.553,1.852,1.179,1.852,1.392s0.979,0.388,2.174,0.388c2.057,0,2.208,0.074,2.787,1.359

	c0.688,1.529,2.516,2.172,3.391,1.193c0.424-0.474,0.834-0.275,2.424,1.169c1.587,1.442,1.893,1.962,1.792,3.053

	c-0.089,0.979,0.128,1.475,0.851,1.943c0.675,0.439,0.969,1.044,0.969,1.99c0,2.963,1.119,3.472,2.633,1.199l0.96-1.441l0.956,0.834

	c0.527,0.459,1.379,0.834,1.895,0.834s1.144,0.356,1.395,0.793c0.453,0.784,0.471,0.784,1.889,0.009l1.432-0.784l1.615,1.234

	c1.086,0.831,1.613,1.569,1.613,2.259c0,0.953,0.113,1.009,1.635,0.803c0.899-0.122,2.271-0.344,3.047-0.492

	s1.742-0.152,2.146-0.009c0.612,0.218,0.426,0.554-1.117,2.012c-1.742,1.647-1.796,1.765-0.903,1.981

	c0.851,0.206,0.925,0.432,0.728,2.179c-0.121,1.071-0.354,2.417-0.516,2.99c-0.223,0.784-0.025,1.34,0.803,2.252l1.098,1.211

	l-1.086,1.691l-1.088,1.691h1.479c1.918,0,2.166,0.281,1.312,1.489c-0.664,0.941-0.646,1.044,0.369,1.984l1.068,0.992l1.22-1.181

	c1.173-1.136,1.192-1.219,0.502-2.195c-0.882-1.248-0.619-1.436,2.979-2.132c2.46-0.477,2.724-0.454,3.913,0.332

	c1.219,0.805,1.239,0.867,0.455,1.391c-2.514,1.676-3.025,2.555-1.486,2.555c0.473,0,1.485-0.637,2.249-1.415

	c0.925-0.943,1.777-1.416,2.554-1.416c1.518,0,1.774,0.283,1.303,1.433c-0.351,0.858-0.258,0.958,1.01,1.071

	c1.176,0.105,1.39,0.285,1.355,1.137c-0.021,0.556-0.19,1.512-0.374,2.123c-0.22,0.731-0.169,1.112,0.149,1.112

	C307.089,449.38,307.306,449.027,307.307,448.594L307.307,448.594L307.307,448.594L307.307,448.594L307.307,448.594L307.307,448.594

	L307.307,448.594L307.307,448.594L307.307,448.594L307.307,448.594L307.307,448.594L307.307,448.594L307.307,448.594

	L307.307,448.594z" />

<path id="Caquetá" fill="#E1E1E1" stroke="#007BB6" stroke-width="0.4014" d="M213.48,432.174c1.642-2.07,2.415-2.219,4.04-0.775

	c1.812,1.611,2.929,0.862,5.24-3.513c1.604-3.035,2.201-3.772,3.668-4.521c1.117-0.57,1.803-1.23,1.895-1.82

	c0.199-1.298,1.904-1.821,4.018-1.233c2.359,0.655,4.006-0.04,5.018-2.122c1.139-2.343,5.566-5.111,9.786-6.119

	c4.525-1.081,5.517-2.022,3.292-3.127c-0.824-0.409-1.596-0.434-3.369-0.108c-2.161,0.396-2.359,0.363-3.271-0.549

	c-0.534-0.534-1.189-0.972-1.458-0.972c-0.268,0-1.33-0.538-2.361-1.196c-1.558-0.994-1.838-1.37-1.662-2.225

	c0.199-0.966,0.104-1.028-1.577-1.028c-1.64,0-1.843-0.121-2.439-1.444c-0.358-0.795-0.837-1.338-1.065-1.207

	c-0.554,0.317-1.078-0.528-1.106-1.781c-0.019-0.803-0.294-1.061-1.313-1.226c-0.999-0.162-1.355-0.482-1.582-1.421

	c-0.162-0.667-0.613-1.896-1.005-2.729c-0.767-1.634-1.727-1.903-3.963-1.114c-1.013,0.357-1.222,0.27-1.876-0.788

	c-0.405-0.655-1.18-1.378-1.723-1.607c-0.545-0.229-0.986-0.778-0.986-1.224c0-0.482-0.511-1.053-1.271-1.418

	c-0.751-0.36-1.466-1.15-1.746-1.931c-0.528-1.469-5.951-6.27-7.997-7.08c-1.024-0.405-1.48-0.394-2.433,0.063

	c-0.986,0.473-1.301,0.476-1.977,0.016c-0.711-0.481-0.93-0.406-1.887,0.648c-0.935,1.03-1.021,1.357-0.629,2.399

	c0.434,1.156,0.371,1.251-1.484,2.261c-1.065,0.579-1.938,1.205-1.938,1.392s-0.552,0.703-1.226,1.148

	c-1.116,0.737-1.438,0.767-3.597,0.323c-2.234-0.458-2.378-0.562-2.509-1.813c-0.119-1.145-0.543-1.567-3.082-3.077

	c-3.577-2.127-5.583-4.366-5.981-6.674c-0.31-1.797-4.171-6.887-5.862-7.727c-0.549-0.272-0.85-0.846-0.85-1.621

	c0-1.128-0.103-1.199-1.734-1.199c-0.954,0-2.997,0.441-4.54,0.98c-2.805,0.979-2.807,0.979-3.598,0.169

	c-0.435-0.446-1.467-1.073-2.292-1.394c-0.826-0.32-2.332-1.213-3.346-1.984c-2.248-1.709-2.816-1.91-7.96-2.824

	c-4.069-0.724-4.07-0.724-5.282-2.531c-0.873-1.301-1.288-2.564-1.483-4.517c-0.149-1.491-0.938-4.658-1.752-7.038

	c-1.263-3.693-1.448-4.726-1.261-7.055c0.194-2.424,0.386-2.89,1.724-4.188c1.354-1.314,1.475-1.616,1.198-2.983

	c-0.23-1.138-0.646-1.686-1.654-2.178c-0.741-0.362-2.009-1.249-2.818-1.973c-0.81-0.723-1.814-1.314-2.233-1.314

	s-1.128-0.376-1.576-0.836c-0.77-0.789-0.846-0.796-1.375-0.125c-0.308,0.392-0.56,1.185-0.56,1.763

	c0,0.718-0.635,1.626-1.998,2.855c-1.86,1.679-1.984,1.92-1.801,3.494c0.28,2.411-1.438,4.305-4.533,4.994

	c-2.176,0.484-2.271,0.566-3.47,3.019c-0.678,1.387-2.189,3.502-3.359,4.701c-1.17,1.198-2.897,3.52-3.838,5.158

	c-1.249,2.175-2.357,3.455-4.108,4.744c-1.319,0.972-3.31,2.816-4.425,4.1s-3.291,3.79-4.836,5.569l-2.809,3.236l-2.781,0.045

	l-2.781,0.044l-1.224,1.775c-0.673,0.977-1.523,2.412-1.89,3.191c-0.63,1.339-0.618,1.445,0.23,1.971

	c0.493,0.305,0.897,0.967,0.897,1.472c0,0.625,0.243,0.899,0.763,0.86c0.463-0.034,0.813,0.271,0.891,0.777

	c0.208,1.346,2.58,2.38,5.975,2.604l3.052,0.202l0.245,1.705c0.287,1.993,1.441,3.352,2.849,3.352c0.548,0,1.118,0.182,1.266,0.404

	c0.148,0.223,1.325,0.404,2.616,0.404s2.467,0.183,2.616,0.404c0.148,0.223,0.851,0.405,1.562,0.405

	c0.971,0,1.394,0.246,1.699,0.989c0.446,1.089,2.591,1.692,4.693,1.319c1.825-0.324,3.599,0.712,3.599,2.102

	c0,0.634,0.294,1.38,0.654,1.656c0.36,0.277,0.654,1.006,0.654,1.618c0,1.448,0.871,2.078,3.396,2.455

	c1.129,0.169,2.613,0.508,3.298,0.752c1.232,0.441,1.243,0.475,1.09,3.372l-0.155,2.927l1.744,0.131

	c0.959,0.071,2.083,0.415,2.497,0.762c0.501,0.42,1.23,0.56,2.18,0.418c1.132-0.17,1.732,0.023,2.908,0.935l1.481,1.149

	l-0.284,3.159c-0.259,2.88-0.207,3.204,0.589,3.665c0.48,0.278,0.873,0.778,0.873,1.109c0,0.765,1.269,0.766,4.351,0.007

	c1.41-0.349,2.549-0.441,2.78-0.228c0.231,0.215,0.852,0.2,1.516-0.034c0.943-0.333,1.251-0.247,1.916,0.535

	c0.436,0.513,0.913,1.446,1.061,2.074c0.227,0.962,0.433,1.104,1.308,0.9c0.708-0.165,1.12-0.045,1.293,0.374

	c0.146,0.353,0.786,0.617,1.492,0.617c0.77,0,1.483,0.327,1.891,0.867c0.99,1.312,2.946,2.362,4.408,2.368

	c0.719,0.007,2.749,0.46,4.51,1.015s3.488,1.008,3.836,1.008c1.164,0,3.284,1.252,3.055,1.804c-0.166,0.402,0.993,0.707,4.651,1.222

	c3.229,0.455,5.516,1.015,6.781,1.662c2.599,1.329,4.979,1.314,5.642-0.036c0.657-1.338,2.376-1.333,4.277,0.013l1.446,1.023

	l2.207-1.037l2.205-1.037l2.166,2.063c1.19,1.134,2.165,2.232,2.165,2.439c0,0.208,0.54,0.371,1.198,0.362

	C211.757,433.982,212.401,433.536,213.48,432.174L213.48,432.174L213.48,432.174L213.48,432.174L213.48,432.174L213.48,432.174

	L213.48,432.174L213.48,432.174L213.48,432.174L213.48,432.174L213.48,432.174L213.48,432.174L213.48,432.174L213.48,432.174z" />

<path id="Putumayo" fill="#E1E1E1" stroke="#007BB6" stroke-width="0.4014" d="M160.918,427.655

	c5.317-1.426,8.461-2.454,8.211-2.687c-0.223-0.207-1.392-0.465-2.596-0.571c-1.676-0.15-2.593-0.516-3.909-1.562

	c-1.005-0.798-2.195-1.365-2.863-1.365c-0.63,0-1.26-0.281-1.402-0.626c-0.173-0.419-0.704-0.586-1.607-0.506

	c-1.253,0.112-1.367,0.013-1.624-1.417c-0.366-2.035-0.797-2.377-2.451-1.937c-0.746,0.198-1.522,0.21-1.726,0.026

	c-0.204-0.183-1.696-0.055-3.315,0.285c-3.19,0.671-4.249,0.537-4.249-0.534c0-0.379-0.336-1.034-0.748-1.455

	c-0.597-0.612-0.722-1.392-0.62-3.885c0.111-2.72,0.013-3.214-0.769-3.87c-0.678-0.569-1.319-0.7-2.633-0.536

	c-1.192,0.148-1.895,0.039-2.243-0.351c-0.279-0.312-1.132-0.565-1.896-0.565c-2.514,0-3.1-0.773-2.929-3.862

	c0.172-3.1-0.075-3.403-2.776-3.412c-1.148-0.007-2.312-0.36-3.378-1.032c-1.333-0.841-1.627-1.27-1.627-2.378

	c0-0.743-0.283-1.569-0.628-1.835c-0.345-0.266-0.688-0.971-0.763-1.566c-0.129-1.033-0.255-1.085-2.75-1.134

	c-3.03-0.06-5.014-0.676-5.014-1.557c0-0.413-0.424-0.617-1.282-0.617c-0.705,0-1.403-0.182-1.552-0.404

	c-0.148-0.223-1.189-0.41-2.314-0.417c-1.125-0.008-2.426-0.28-2.891-0.606c-0.465-0.327-1.292-0.595-1.837-0.595

	c-1.146,0-3.202-2.502-3.202-3.896c0-0.769-0.279-0.896-2.225-1.019c-2.055-0.13-2.272-0.056-2.845,0.972

	c-0.442,0.793-0.96,1.116-1.808,1.125c-0.653,0.009-1.535,0.258-1.959,0.557c-1.497,1.054-5.844,0.118-8.551-1.84

	c-0.572-0.413-1.403-0.752-1.847-0.752c-1.311,0-2.054-2.268-1.804-5.506c0.202-2.612,0.133-2.904-0.963-4.113

	c-0.649-0.716-1.454-1.302-1.789-1.302c-0.334,0-1.09,0.884-1.681,1.965l-1.073,1.965l-3.403,0.277

	c-2.823,0.23-3.755,0.499-5.473,1.574c-1.139,0.714-2.064,1.57-2.057,1.904c0.007,0.333,0.393,1.607,0.857,2.831

	c1.371,3.615,1.211,4.312-1.669,7.286c-3.552,3.668-3.717,4.012-2.387,4.982c1.461,1.066,3.561,5.315,3.714,7.516

	c0.118,1.695,0.216,1.816,1.961,2.404c1.417,0.478,1.898,0.878,2.105,1.754c0.321,1.358,0.37,1.366,1.99,0.296

	c0.931-0.615,1.621-0.77,2.574-0.575c1.017,0.207,1.302,0.126,1.302-0.373c0-0.908,0.771-0.787,3.329,0.521

	c2.098,1.073,2.394,1.119,4.687,0.733l2.448-0.411v-1.955c0-1.563,0.147-1.954,0.735-1.954c0.404,0,1.166-0.376,1.692-0.836

	l0.958-0.834l3.212,0.9c1.767,0.495,3.468,1.235,3.781,1.644c0.313,0.409,1,0.76,1.526,0.779c0.623,0.023,1.879,1.046,3.602,2.933

	c3.679,4.027,4.893,4.717,8.302,4.717c2.628,0,2.829,0.071,4.404,1.578c1.19,1.138,2.669,1.929,5.305,2.838l3.654,1.261l1.439-1.019

	c2.25-1.592,3.503-1.348,8.137,1.589l4.114,2.605l0.929-0.861c0.821-0.762,1.053-0.801,1.996-0.333

	c0.712,0.354,1.159,1.018,1.346,1.997c0.504,2.646,0.632,2.795,2.814,3.28c1.322,0.294,2.579,0.924,3.362,1.683

	c0.688,0.667,1.938,1.602,2.777,2.076c0.839,0.475,1.782,1.19,2.095,1.59s0.701,0.727,0.861,0.727

	C152.17,429.965,156.179,428.925,160.918,427.655L160.918,427.655L160.918,427.655L160.918,427.655L160.918,427.655L160.918,427.655

	z" />

<path id="Nariño" fill="#E1E1E1" stroke="#007BB6" stroke-width="0.4014" d="M63.17,400.893c0-2.149-1.564-5.265-3.379-6.729

	l-1.508-1.218l1.967-2.423c1.082-1.332,2.476-2.864,3.098-3.403c1.302-1.129,1.473-2.9,0.528-5.491

	c-1.354-3.712-1.365-3.659,1.183-5.444c1.503-1.053,2.791-1.634,3.623-1.634c0.709,0,1.525-0.219,1.813-0.485

	c0.785-0.729,0.631-2.566-0.339-4.047l-0.863-1.316l1.571-1.492l1.571-1.493l-2.191-1.03c-1.205-0.566-2.591-1.502-3.08-2.078

	c-0.856-1.01-0.936-1.024-2.201-0.417c-0.915,0.438-2.553,0.629-5.403,0.629c-2.25,0-4.187-0.089-4.304-0.197

	c-0.498-0.462,0.846-4.803,1.855-5.99c1.833-2.157,1.832-2.177-0.201-3.915c-1.06-0.906-2.179-2.234-2.487-2.952

	c-0.308-0.717-0.93-1.802-1.381-2.41l-0.821-1.106l-2.523,1.182l-2.523,1.182l-2.439-1.896c-1.371-1.065-4.005-3.933-6.014-6.547

	c-1.966-2.559-3.775-4.771-4.021-4.919c-0.245-0.146-0.676-0.783-0.958-1.415l-0.512-1.149l-0.937,1.692

	c-1.42,2.565-1.985,2.604-3.297,0.229c-0.399-0.724-1-1.314-1.337-1.314c-0.336,0-1.361,0.894-2.277,1.985

	c-1.943,2.315-4.124,3.062-5.195,1.781c-0.588-0.703-0.646-0.697-1.403,0.128c-0.435,0.474-1.434,0.992-2.22,1.152

	c-1.171,0.239-1.61,0.653-2.428,2.29c-0.549,1.099-1.293,2.31-1.655,2.689c-0.361,0.381-0.789,1.266-0.949,1.967

	c-0.235,1.027-0.111,1.393,0.635,1.878c0.848,0.551,0.884,0.748,0.43,2.313c-0.464,1.598-0.422,1.782,0.625,2.796

	c0.616,0.597,1.121,1.485,1.121,1.974c0,0.623,0.265,0.888,0.887,0.888c0.816,0,0.864,0.169,0.595,2.123

	c-0.161,1.168-0.344,2.182-0.408,2.253c-0.064,0.07-1.25-0.065-2.637-0.304c-1.386-0.237-3.751-0.432-5.255-0.432H4.79l-2.476,2.843

	c-1.362,1.564-2.4,2.891-2.308,2.947c0.093,0.058,1.045,0.644,2.116,1.303c2.175,1.339,3.502,2.452,3.502,2.938

	c0,0.78,7.363,6.479,9.978,7.722c1.586,0.754,3.147,1.719,3.469,2.146c1.541,2.037,2.578,2.792,4.21,3.066

	c2.348,0.395,8.605,4.02,9.759,5.653c1.101,1.558,2.129,1.65,7.896,0.707c2.038-0.333,3.813-0.605,3.945-0.605

	c0.132-0.001,0.485,0.63,0.786,1.401c0.396,1.016,0.418,1.624,0.083,2.206c-0.413,0.717-0.183,0.948,2.105,2.124l2.568,1.32

	l0.264,2.439c0.237,2.187,0.435,2.575,1.905,3.738c1.715,1.357,1.34,1.288,8.943,1.656C63.158,402.459,63.17,402.448,63.17,400.893

	L63.17,400.893L63.17,400.893L63.17,400.893z" />

<path id="Guaviare" fill="#E1E1E1" stroke="#007BB6" stroke-width="0.4014" d="M235.327,386.938

	c0.282-0.314,1.104-1.704,1.826-3.087c1.255-2.404,1.349-2.485,2.123-1.836c1.18,0.991,2.522,0.077,3.24-2.207

	c0.406-1.289,0.83-1.855,1.451-1.942c0.811-0.112,0.838-0.233,0.344-1.564c-0.499-1.348-0.422-1.653,1.149-4.598

	c0.926-1.734,1.688-3.761,1.693-4.502c0.013-1.744,1.251-4.247,3.034-6.132l1.414-1.495l1.457,0.836

	c1.338,0.767,1.539,0.784,2.48,0.212c0.563-0.343,2.093-0.972,3.398-1.398c1.6-0.522,3.174-1.485,4.824-2.954l2.45-2.179

	l4.462,0.166c4.978,0.186,8.896-0.535,12.039-2.215c1.052-0.562,2.49-0.952,3.512-0.952c1.154,0,2.215-0.332,3.188-0.998

	c0.801-0.549,1.598-0.917,1.769-0.819c0.171,0.099,1.066-0.427,1.989-1.167c1.66-1.332,1.67-1.356,0.936-2.397

	c-0.709-1.004-0.809-1.026-2.188-0.492c-0.883,0.343-2.157,0.471-3.282,0.331c-1.347-0.168-2.048-0.054-2.617,0.424

	c-0.7,0.588-0.873,0.592-1.725,0.039c-0.521-0.339-1.785-0.606-2.81-0.595c-1.023,0.013-2.786-0.089-3.916-0.225

	c-2.006-0.24-2.092-0.311-3.639-2.937c-2.384-4.047-3.633-5.456-4.346-4.907c-0.461,0.354-0.737,0.186-1.275-0.78l-0.688-1.233

	l1.859-1.086c5.092-2.974,9.053-5.402,9.053-5.55c0-0.091-0.496-0.466-1.103-0.835c-1.078-0.655-1.136-0.637-2.612,0.816

	c-1.629,1.602-1.213,1.554-6.312,0.723c-0.84-0.137-1.949-0.607-2.466-1.045c-0.765-0.646-1.11-0.711-1.853-0.342

	c-0.969,0.48-2.101,0.139-3.627-1.096c-0.632-0.512-0.965-0.526-2.086-0.096c-0.833,0.32-2.235,0.427-3.727,0.284

	c-1.994-0.191-2.691-0.071-4.191,0.72l-1.8,0.948l-1.569-0.932c-1.351-0.801-2.172-0.937-5.89-0.973

	c-2.376-0.022-4.562,0.145-4.858,0.373c-0.295,0.228-1.854,0.753-3.465,1.167l-2.928,0.753l-2.344-0.996

	c-2.545-1.081-3.229-0.99-3.229,0.43c0,1.305-0.223,1.393-2.355,0.94c-1.756-0.373-2.145-0.289-5.182,1.123

	c-1.807,0.839-3.699,2.048-4.208,2.686c-0.843,1.057-1.165,1.161-3.636,1.174c-1.492,0.009-3.193,0.262-3.779,0.563

	c-0.588,0.302-1.316,0.461-1.619,0.353c-0.303-0.107-1.539,0.108-2.747,0.48c-1.965,0.606-2.196,0.801-2.196,1.852

	c0,1.008-0.325,1.329-2.289,2.27c-1.74,0.833-2.812,1.072-4.474,1c-1.879-0.082-2.48,0.1-4.296,1.297l-2.111,1.393L183.777,343

	c-0.994-0.4-2.822-0.852-4.061-1.003l-2.253-0.275l-0.24,2.157c-0.132,1.186-0.361,6.482-0.51,11.77l-0.27,9.612l3.075,3.506

	c2.395,2.73,3.138,3.894,3.357,5.255c0.384,2.374,2.207,4.38,6.104,6.716c2.768,1.658,3.234,2.104,3.234,3.083

	c0,1.03,0.182,1.171,1.817,1.414c1.635,0.242,1.934,0.15,2.986-0.918c0.643-0.652,1.787-1.483,2.542-1.846

	c1.539-0.738,1.558-0.777,0.908-1.904c-0.389-0.674-0.201-1.108,1.135-2.621c1.561-1.766,1.629-1.797,2.656-1.172

	c0.939,0.57,1.158,0.574,1.982,0.039c0.822-0.534,1.106-0.533,2.496,0c0.863,0.333,2.451,1.388,3.531,2.344

	c1.078,0.957,2.585,2.135,3.347,2.617c0.774,0.491,1.607,1.503,1.89,2.295c0.311,0.875,0.988,1.648,1.775,2.025

	c0.699,0.336,1.271,0.9,1.271,1.254c0,0.354,0.773,1.362,1.721,2.24c1.447,1.344,1.855,1.528,2.58,1.17

	c1.205-0.6,3.614-0.076,3.873,0.841c0.178,0.628,0.681,0.36,3.15-1.671c1.617-1.33,3.17-2.676,3.452-2.991l0,0l0,0l0,0l0,0l0,0l0,0

	l0,0l0,0l0,0l0,0h-0.001l0,0V386.938z" />

<path id="Cauca" fill="#E1E1E1" stroke="#007BB6" stroke-width="0.4014" d="M92.623,383.26c0.465-0.326,1.294-0.6,1.841-0.606

	c1.324-0.017,1.79-1.188,0.708-1.782c-0.457-0.25-1.223-0.554-1.702-0.674c-0.479-0.121-0.935-0.626-1.013-1.124

	c-0.091-0.584-0.4-0.864-0.872-0.792c-0.526,0.08-0.771-0.229-0.87-1.102c-0.076-0.667-0.525-1.492-0.998-1.834

	c-0.822-0.593-0.829-0.689-0.146-2.204c0.392-0.871,1.381-2.552,2.197-3.735c1.745-2.53,1.793-2.723,0.531-2.096

	c-0.837,0.415-1.108,0.312-2.23-0.854c-1.067-1.108-1.68-1.366-3.728-1.571l-2.451-0.245l0.14-3.083

	c0.135-2.99,0.102-3.107-1.096-3.886c-0.679-0.441-1.517-0.886-1.862-0.987c-0.825-0.242-1.733-4.063-1.443-6.07

	c0.193-1.336,0.462-1.672,1.73-2.164c1.313-0.509,1.658-0.507,2.752,0.018c0.688,0.33,1.653,0.601,2.144,0.601

	c0.777,0,0.894-0.254,0.894-1.941c0-1.068-0.225-2.15-0.5-2.405c-0.376-0.349-0.13-0.628,0.99-1.123

	c0.841-0.373,1.919-1.352,2.477-2.25l0.986-1.59l1.34,0.643c1.927,0.925,3.217,0.444,5.007-1.867l1.564-2.021l1.698,1.424

	c1.945,1.63,2.364,1.723,2.98,0.655c0.444-0.771-0.146-2.822-1.896-6.602c-0.383-0.826-0.697-2.453-0.697-3.615

	c0-2.272-1.259-4.581-2.742-5.025c-0.429-0.129-1.261-0.908-1.849-1.733c-0.92-1.289-1.009-1.694-0.637-2.897

	c0.237-0.769,0.432-1.445,0.432-1.502c0-0.058-0.333-0.104-0.739-0.104c-0.406,0-1.283-0.484-1.949-1.075

	c-1.149-1.021-2.829-1.429-9.301-2.252c-0.794-0.102-0.876,0.135-0.923,2.633c-0.028,1.51-0.185,2.868-0.347,3.019

	c-0.711,0.66-4.391,1.686-4.774,1.33c-0.252-0.233-0.854-0.162-1.583,0.188c-0.647,0.31-1.59,0.464-2.097,0.341

	c-0.597-0.146-1.417,0.137-2.332,0.802l-1.412,1.024l-1.674-1.229c-1.542-1.133-1.81-1.198-3.4-0.823

	c-2.325,0.547-6.676-0.616-6.876-1.84c-0.086-0.523-0.576-0.893-1.381-1.042c-1.925-0.357-4.372-2.553-4.372-3.924

	c0-1.498-0.59-1.79-1.949-0.964c-1.329,0.809-1.393,1.246-0.23,1.589c1.396,0.411,1.011,1.249-0.807,1.754

	c-1.077,0.299-2.484,1.257-3.924,2.669c-2.314,2.271-2.725,3.06-1.591,3.06c0.433,0,0.654,0.401,0.654,1.186

	c0,0.919-0.219,1.214-0.977,1.314c-0.543,0.072-1.046,0.47-1.134,0.898c-0.087,0.423-0.727,1.212-1.421,1.755

	c-0.695,0.542-1.263,1.224-1.263,1.514s-0.294,0.632-0.654,0.76c-0.36,0.129-0.654,0.624-0.654,1.102

	c0,0.635-0.206,0.815-0.763,0.669c-0.419-0.109-1.051-0.268-1.402-0.351c-0.379-0.089-0.939,0.396-1.376,1.192l-0.737,1.343

	l2.031,2.518c1.117,1.385,3.01,3.798,4.208,5.36c1.198,1.563,3.102,3.519,4.231,4.346l2.053,1.503l2.611-1.223l2.61-1.223

	l0.913,1.189c0.502,0.654,1.298,1.998,1.77,2.986c0.776,1.628,2.582,3.438,4.496,4.509c0.639,0.356,0.522,0.639-0.983,2.395

	c-0.938,1.095-1.809,2.46-1.934,3.033c-0.125,0.574-0.36,1.362-0.522,1.752c-0.268,0.643,0.073,0.708,3.697,0.708

	c2.679,0,4.404-0.198,5.244-0.602c1.211-0.58,1.293-0.557,2.439,0.708c0.653,0.72,1.794,1.546,2.537,1.836

	c0.743,0.29,1.797,0.917,2.342,1.392l0.991,0.864l-1.563,1.485l-1.563,1.485l0.876,1.337c0.583,0.89,0.793,1.721,0.629,2.482

	c-0.229,1.062-0.147,1.146,1.106,1.146c1.155,0,1.49-0.251,2.287-1.719c1.539-2.833,1.576-2.849,3.622-1.542

	c2.16,1.379,2.854,3.021,2.544,6.018c-0.239,2.305,0.115,4.12,0.804,4.12c0.252,0,1.317,0.548,2.368,1.219

	c1.05,0.67,2.361,1.387,2.913,1.592C89.214,384.004,91.684,383.919,92.623,383.26L92.623,383.26L92.623,383.26L92.623,383.26

	L92.623,383.26L92.623,383.26z" />

<path id="Guainía" fill="#E1E1E1" stroke="#007BB6" stroke-width="0.4014" d="M397.224,377.523

	c1.136-0.292,1.093-4.593-0.056-5.557c-0.485-0.407-0.938-1.525-1.112-2.743c-0.162-1.131-0.971-3.303-1.797-4.826

	c-0.828-1.523-1.504-3.007-1.504-3.297s-0.688-1.856-1.526-3.481c-1.187-2.296-1.526-3.465-1.53-5.247

	c-0.004-2.097-0.139-2.413-1.57-3.704c-1.519-1.369-1.561-1.486-1.369-3.843l0.197-2.431l-4.32-4.551

	c-4.129-4.35-4.395-4.55-6.037-4.55c-1.548,0-1.719-0.102-1.719-1.024c0-0.563-0.271-1.63-0.605-2.369

	c-0.541-1.202-0.838-1.373-2.8-1.614c-1.207-0.149-2.994-0.151-3.972-0.007c-1.367,0.203-1.767,0.136-1.729-0.293

	c0.026-0.307,3.845-3.925,8.483-8.04c4.639-4.116,8.565-7.904,8.725-8.42c0.217-0.698-0.01-1.228-0.893-2.083

	c-1.558-1.508-3.117-4.687-3.739-7.621l-0.501-2.362l-2.248,0.173l-2.249,0.173l-1.685-4.486c-1.109-2.957-1.852-4.391-2.178-4.208

	c-0.271,0.153-1.631,1.052-3.02,1.998l-2.525,1.719l-2.02-1.188l-2.02-1.188l-1.338,0.786l-1.337,0.785l-1.205-1.071

	c-0.934-0.83-1.322-0.962-1.726-0.589c-0.285,0.266-1.262,0.483-2.168,0.483c-1.404,0-1.922,0.278-3.509,1.886

	c-2.948,2.985-5.288,4.183-8.159,4.175c-3.115-0.009-6.333,1.353-6.956,2.943l-0.438,1.117l-1.723-0.64

	c-1.616-0.6-1.825-0.591-3.399,0.15c-1.567,0.738-1.746,0.747-2.742,0.13c-0.585-0.363-1.954-0.871-3.043-1.128

	c-1.761-0.415-2.113-0.377-3.203,0.343c-1.256,0.83-1.443,0.832-6.748,0.095c-1.834-0.255-1.854-0.245-1.854,0.969

	c0,1.688-2.283,3.405-3.809,2.867c-0.574-0.202-1.809-0.368-2.744-0.368c-2.088,0-4.781,1.957-4.781,3.475

	c0,0.713-0.385,1.112-1.473,1.535c-0.811,0.313-1.613,0.78-1.783,1.036c-0.229,0.344-0.463,0.347-0.897,0.013

	c-0.81-0.623-2.716,0.27-1.997,0.936c0.676,0.628,0.601,1.803-0.142,2.188c-0.343,0.178-0.588,0.665-0.545,1.084

	c0.061,0.582-0.482,0.939-2.316,1.525c-3.173,1.014-4.269,2.012-3.579,3.261c0.656,1.189,1.407,4.424,1.126,4.847

	c-0.119,0.179-0.786,0.324-1.481,0.324c-0.762,0-1.66,0.383-2.263,0.965c-0.55,0.53-1.729,1.18-2.623,1.444

	c-0.894,0.264-1.581,0.673-1.526,0.909s-2.122,1.748-4.838,3.358c-2.715,1.61-5.166,3.171-5.449,3.466

	c-0.422,0.441-0.385,0.448,0.203,0.038c0.607-0.424,0.911-0.269,2.02,1.031c0.718,0.841,2.021,2.74,2.896,4.219

	c1.736,2.931,1.971,3.039,7.229,3.353c1.08,0.064,2.318,0.257,2.754,0.429c0.449,0.176,0.996,0.123,1.259-0.122

	c0.277-0.257,1.317-0.339,2.562-0.202c1.419,0.156,2.66,0.02,3.854-0.423l1.759-0.653l1.077,1.471

	c0.994,1.358,1.029,1.557,0.448,2.598c-0.346,0.62-1.235,1.457-1.978,1.859c-1.206,0.654-1.326,0.891-1.137,2.225

	c0.159,1.123,0.008,1.663-0.615,2.186c-1.262,1.06-0.992,2.22,0.955,4.108c1.238,1.201,2.13,1.719,2.962,1.719

	c0.654,0,2.423,0.387,3.929,0.858c2.229,0.698,2.941,0.771,3.835,0.394c0.604-0.255,1.728-0.354,2.497-0.22

	c0.99,0.172,1.566,0.057,1.971-0.395c0.713-0.797,2.744-0.813,5.498-0.045c1.654,0.462,6.45,0.653,21.758,0.868l19.637,0.275

	l-0.83-0.868c-0.457-0.477-1.291-0.867-1.854-0.867s-1.023-0.137-1.023-0.304c-0.001-0.167,0.637-1.633,1.416-3.258l1.419-2.954

	l1.526,0.26c0.839,0.144,1.533,0.29,1.543,0.325c0.279,0.997,2.961,3.87,4.919,5.269c2.676,1.91,3.39,2.041,2.622,0.478

	c-0.367-0.748-0.226-1.204,0.793-2.548c1.069-1.411,1.58-1.703,3.729-2.133c2.221-0.443,2.796-0.792,5.328-3.226

	c2.266-2.177,3.25-2.825,4.867-3.202c1.114-0.261,2.06-0.42,2.1-0.354c0.041,0.065,0.578,0.757,1.193,1.535

	c0.881,1.112,1.223,2.222,1.6,5.177c0.479,3.754,0.482,3.766,2.484,5.461c1.521,1.288,2.469,2.66,3.928,5.679l1.922,3.98

	l-0.633,2.793c-0.576,2.54-0.566,2.924,0.102,4.224c0.717,1.396,0.78,1.424,2.718,1.181

	C395.567,377.831,396.804,377.631,397.224,377.523L397.224,377.523L397.224,377.523z" />

<path id="Huila" fill="#E1E1E1" stroke="#007BB6" stroke-width="0.4014" d="M103.497,361.736c2.397-2.807,5.537-6.016,6.975-7.131

	c1.834-1.422,3.114-2.878,4.284-4.875c0.917-1.566,2.683-3.933,3.923-5.26s2.762-3.514,3.379-4.859

	c1.099-2.392,1.177-2.46,3.6-3.128c3.158-0.87,4.282-2.028,4.074-4.201c-0.14-1.461,0.049-1.821,1.955-3.717

	c1.53-1.523,2.109-2.426,2.109-3.288c0-0.954,0.624-1.729,3.161-3.928c1.738-1.507,4.007-3.668,5.042-4.802

	c1.71-1.876,1.863-2.221,1.686-3.804c-0.225-1.999,0.89-5.118,2.548-7.137c0.836-1.018,1.055-1.745,1.015-3.389

	c-0.028-1.151-0.142-2.093-0.253-2.093c-0.58,0-2.735,1.749-2.735,2.219c0,0.301-0.687,0.94-1.526,1.422

	c-1.168,0.67-1.525,1.146-1.525,2.031c0,0.636-0.206,1.274-0.457,1.419c-0.251,0.144-0.4,0.573-0.331,0.954

	c0.072,0.393-1.088,1.95-2.684,3.604l-2.81,2.912h-2.502c-2.082,0-2.615-0.149-3.172-0.888c-0.592-0.783-0.595-0.964-0.025-1.549

	c0.852-0.873,0.824-2.013-0.05-2.013c-0.382,0-1.216,0.332-1.853,0.737c-0.797,0.509-1.699,0.688-2.901,0.575

	c-0.959-0.09-2.971-0.224-4.47-0.297c-2.559-0.127-2.742-0.076-2.985,0.822c-0.143,0.526-0.915,1.422-1.717,1.989

	c-1.179,0.834-1.484,1.356-1.593,2.72l-0.134,1.688l-6.009,3.039c-4.645,2.351-5.943,3.184-5.721,3.67

	c0.159,0.346,0.432,1.903,0.608,3.46c0.175,1.558,0.919,4.299,1.653,6.093l1.334,3.261l-0.88,1.289

	c-0.484,0.71-0.969,1.29-1.077,1.29c-0.499,0-2.673-1.226-3.181-1.794c-0.818-0.915-1.091-0.809-2.311,0.902

	c-1.357,1.902-3.544,2.675-5.242,1.849c-1.065-0.518-1.173-0.473-2.051,0.846c-0.51,0.766-1.303,1.502-1.762,1.637

	c-0.725,0.214-0.822,0.598-0.741,2.916c0.092,2.619,0.07,2.676-1.146,2.986c-0.846,0.216-1.708,0.109-2.713-0.336

	c-2.104-0.93-3.678-0.243-3.671,1.604c0.012,3.32,0.455,4.292,2.449,5.376c2.048,1.114,1.951,0.84,2.086,5.856

	c0.038,1.395,0.069,1.418,2.09,1.538c1.647,0.099,2.264,0.357,3.132,1.314c0.922,1.018,1.24,1.136,2.166,0.81

	c0.806-0.284,1.218-0.232,1.607,0.202c0.335,0.375,1.327,0.581,2.758,0.573l2.235-0.013L103.497,361.736L103.497,361.736

	L103.497,361.736L103.497,361.736L103.497,361.736L103.497,361.736L103.497,361.736L103.497,361.736L103.497,361.736

	L103.497,361.736L103.497,361.736z" />

<path id="Meta" fill="#E1E1E1" stroke="#007BB6" stroke-width="0.4014" d="M169.207,363.901c1.81-0.624,3.34-0.885,4.525-0.772

	l1.79,0.17l0.315-11.059c0.173-6.083,0.447-11.176,0.608-11.319c0.457-0.405,6.185,0.445,7.613,1.13

	c1.232,0.592,1.368,0.562,3.52-0.773c1.933-1.199,2.513-1.364,4.25-1.212c2.88,0.253,5.51-1.024,5.699-2.77

	c0.125-1.158,0.379-1.349,2.971-2.225c1.559-0.527,3.092-0.871,3.406-0.765c0.314,0.107,1.139-0.077,1.831-0.409

	s2.271-0.604,3.507-0.604c1.867,0,2.39-0.168,3.09-0.994c0.464-0.547,2.435-1.733,4.381-2.637c3.389-1.574,3.84-1.645,5.91-0.923

	c0.327,0.114,0.545-0.146,0.545-0.652c0-0.464,0.474-1.131,1.053-1.483c0.988-0.601,1.195-0.573,3.355,0.442

	c2.187,1.028,2.42,1.057,4.709,0.582c1.325-0.275,2.875-0.783,3.445-1.13c0.783-0.477,2.184-0.624,5.758-0.605

	c4.097,0.021,4.897,0.139,6.028,0.886l1.305,0.861l1.647-0.902c1.324-0.725,2.189-0.879,4.396-0.787

	c5.041,0.21,4.487,3.958,4.487-30.329v-29.933l-1.199,0.787c-2.064,1.355-11.821,5.74-12.772,5.74c-1.656,0-5.396,1.742-7.826,3.646

	c-6.691,5.239-8.643,6.087-10.245,4.443c-0.606-0.622-1.343-0.809-3.188-0.809c-2.112,0-2.664,0.188-4.619,1.566

	c-2.237,1.578-5.186,2.344-6.382,1.657c-0.354-0.202-1.1,0.051-1.979,0.673c-1.214,0.859-1.792,0.981-4.159,0.877l-2.75-0.122

	l-0.394-1.552c-0.302-1.192-0.88-1.877-2.491-2.95c-1.315-0.877-2.194-1.806-2.36-2.493c-0.278-1.159-2.789-5.128-3.075-4.862

	c-0.093,0.086-0.688,3.244-1.324,7.019c-0.635,3.773-1.282,6.988-1.438,7.145c-0.155,0.155-1.619-0.516-3.252-1.49

	c-3.96-2.365-5.107-2.572-6.961-1.261l-1.454,1.029l-1.572-1.202c-1.144-0.874-1.652-1.642-1.865-2.812

	c-0.297-1.635-2.233-3.647-3.507-3.647c-0.333,0-1.304,0.569-2.158,1.265c-1.712,1.395-1.711,1.32-0.006,5.313l0.996,2.331

	l-2.677,1.38c-1.472,0.759-3.435,1.509-4.362,1.667c-0.927,0.157-2.327,0.808-3.109,1.445c-0.958,0.78-1.904,1.162-2.892,1.166

	c-0.807,0.003-1.669,0.14-1.915,0.304c-0.966,0.642-3.184,3.63-4.042,5.447c-1.456,3.081-3.043,4.76-4.5,4.76

	c-1.064,0-1.256,0.162-1.256,1.058c0,0.582-0.661,1.902-1.467,2.933c-1.869,2.387-2.615,4.538-2.345,6.76

	c0.199,1.642,0.065,1.923-2.054,4.301c-1.247,1.399-3.191,3.245-4.321,4.102c-1.651,1.251-1.956,1.668-1.548,2.123

	c0.279,0.312,0.959,0.566,1.512,0.566c0.607,0,1.491,0.54,2.235,1.366c0.677,0.751,2.042,1.745,3.033,2.209

	c1.598,0.747,1.849,1.063,2.214,2.78c0.399,1.88,0.366,1.981-1.128,3.453c-1.367,1.347-1.559,1.808-1.717,4.111

	c-0.138,2.015,0.072,3.303,0.939,5.764c1.016,2.882,1.614,5.396,2.257,9.495c0.127,0.81,0.667,2.071,1.201,2.805

	c0.892,1.225,1.323,1.4,5.33,2.174c4.12,0.795,6.851,1.899,8.074,3.268c0.299,0.333,1.351,0.938,2.338,1.345

	s2.064,1.041,2.394,1.411C166.3,364.997,165.951,365.022,169.207,363.901L169.207,363.901L169.207,363.901L169.207,363.901

	L169.207,363.901L169.207,363.901L169.207,363.901L169.207,363.901L169.207,363.901L169.207,363.901L169.207,363.901

	L169.207,363.901L169.207,363.901z" />

<path id="Vichada" fill="#E1E1E1" stroke="#007BB6" stroke-width="0.4014" d="M273.484,328.598c0.38-0.135,0.689-0.493,0.689-0.796

	s0.536-0.812,1.192-1.13c1.069-0.521,1.309-0.503,2.328,0.171c0.988,0.652,1.359,0.688,2.841,0.272

	c0.937-0.263,2.062-0.892,2.499-1.397c0.505-0.585,1.266-0.919,2.09-0.919c1.26,0,1.288-0.044,1.005-1.518

	c-0.161-0.834-0.65-1.883-1.089-2.331c-0.773-0.79-0.77-0.854,0.127-2.166c0.863-1.266,3.883-2.885,5.381-2.885

	c0.473,0,0.512-0.23,0.178-1.048c-0.365-0.892-0.299-1.079,0.446-1.261c1.131-0.273,1.104-0.441-0.218-1.406

	c-1.34-0.979-1.053-1.541,0.793-1.549c0.766-0.003,1.679-0.176,2.03-0.382c0.396-0.232,0.831-0.228,1.142,0.012

	c0.331,0.255,0.687,0.179,1.049-0.226c0.301-0.337,0.816-0.612,1.147-0.612c0.33,0,0.601-0.326,0.601-0.725s0.834-1.47,1.853-2.381

	c1.44-1.289,2.31-1.718,3.907-1.928c1.218-0.159,2.412-0.092,2.933,0.167c1.331,0.66,2.571-0.245,2.73-1.994

	c0.124-1.365,0.22-1.442,2.092-1.683c1.079-0.139,2.292-0.094,2.696,0.101c1.295,0.623,3.877,0.387,5.182-0.476

	c0.979-0.646,1.441-0.735,2.109-0.404c0.47,0.233,1.278,0.424,1.797,0.424c0.518,0,1.504,0.372,2.191,0.825

	c1.242,0.821,1.257,0.821,2.911,0.039c1.466-0.693,1.825-0.724,3.038-0.25c1.334,0.521,1.389,0.5,1.819-0.646

	c0.272-0.726,0.753-1.182,1.241-1.182c0.439,0,1.258-0.299,1.82-0.664c0.609-0.396,2.275-0.748,4.13-0.87

	c3.702-0.244,5.382-1.095,8.085-4.09c1.679-1.86,2.035-2.062,3.639-2.062c0.99,0,2.107-0.276,2.521-0.624

	c0.678-0.569,0.837-0.52,1.82,0.565l1.078,1.188l1.271-0.746c1.265-0.742,1.278-0.741,3.3,0.427l2.029,1.172l2.861-1.901

	c1.574-1.046,2.865-2.013,2.87-2.148c0.004-0.136-0.507-0.951-1.137-1.812c-1.048-1.433-1.123-1.805-0.891-4.374l0.253-2.809

	l-1.95-2.589l-1.95-2.589l0.645-3.509c0.354-1.931,0.664-4.602,0.688-5.937s0.08-4.521,0.126-7.078

	c0.046-2.559-0.058-5.289-0.23-6.067l-0.313-1.416l3.91-2.168c3.787-2.1,3.91-2.215,3.9-3.641c-0.007-0.81-0.204-2.248-0.439-3.196

	c-0.33-1.324-0.26-2.352,0.303-4.427c0.643-2.375,1.062-3.021,3.461-5.324l2.729-2.62l-0.843-1.531

	c-0.463-0.843-0.842-1.905-0.842-2.362s-0.637-1.469-1.416-2.247c-1.369-1.368-1.553-1.424-5.419-1.671l-4.002-0.254l-2.226,1.483

	l-2.226,1.483l-2.753-0.445c-2.346-0.379-3.004-0.343-4.453,0.24c-1.057,0.425-3.188,0.733-5.625,0.815

	c-2.158,0.071-5.434,0.496-7.281,0.942l-3.357,0.812l-3.737-0.954c-2.056-0.525-5.354-1.079-7.329-1.232l-3.59-0.277l-2.309,2.265

	c-1.27,1.245-2.432,2.265-2.583,2.265s-0.679-0.346-1.174-0.769c-0.889-0.759-0.946-0.748-4.606,0.845l-3.705,1.613l-4.445-0.264

	l-4.445-0.264l-0.851,1.542c-0.468,0.849-1.434,2.023-2.146,2.611c-0.934,0.77-1.381,1.59-1.598,2.931

	c-0.432,2.666-3.741,5.284-8.607,6.809c-4.951,1.551-10.354,4.089-12.039,5.656c-0.789,0.733-2.358,2.517-3.488,3.962

	c-1.534,1.965-2.604,2.875-4.232,3.602c-1.816,0.81-2.562,1.515-4.469,4.225l-2.289,3.252v30.258

	c0,29.719,0.016,30.272,0.872,31.066c0.989,0.918,1.26,0.96,2.763,0.43c0.851-0.3,1.234-0.216,1.84,0.405

	c0.42,0.431,1.273,0.786,1.896,0.79c0.622,0.003,1.425,0.183,1.785,0.397C270.555,328.884,272.452,328.966,273.484,328.598

	L273.484,328.598z" />

<path id="Tolima" fill="#E1E1E1" stroke="#007BB6" stroke-width="0.4014" d="M112.434,316.275c0-1.359,0.212-1.708,1.517-2.494

	c0.834-0.503,1.794-1.551,2.132-2.33l0.616-1.415l2.772,0.125c1.524,0.068,3.655,0.175,4.734,0.235

	c1.269,0.072,2.398-0.135,3.198-0.586c2.453-1.384,4.979,0.548,3.158,2.415c-0.955,0.979-0.47,1.256,2.109,1.203

	c2.12-0.044,2.316-0.147,4.54-2.394c2.105-2.128,2.274-2.434,1.797-3.26c-0.436-0.755-0.404-0.994,0.184-1.393

	c0.39-0.265,0.709-0.865,0.709-1.334c0-0.572,0.574-1.158,1.74-1.776c0.958-0.507,1.742-1.226,1.744-1.597s0.667-1.056,1.479-1.521

	c1.563-0.896,2.126-1.961,1.545-2.924c-0.194-0.321-0.187-1.303,0.016-2.182c0.202-0.878,0.5-3.344,0.663-5.479

	c0.253-3.331,0.191-3.979-0.435-4.56c-0.683-0.634-0.827-0.599-2.23,0.545c-1.816,1.479-2.498,1.517-4.306,0.237

	c-0.866-0.613-2.115-1.033-3.307-1.112c-2.537-0.169-2.648-0.911-0.613-4.08c1.476-2.3,1.553-2.572,0.997-3.518

	c-0.404-0.686-0.548-1.932-0.436-3.773c0.158-2.585,0.252-2.802,1.587-3.613l1.419-0.863l0.546-6.14

	c0.483-5.429,0.468-6.282-0.133-7.36c-0.639-1.146-0.882-1.238-3.98-1.507l-3.3-0.287l-2.708,2.058

	c-2.5,1.9-2.886,2.059-5.021,2.059c-2.2,0-2.342,0.064-2.908,1.322c-0.35,0.776-0.559,2.486-0.507,4.146

	c0.076,2.398-0.094,3.15-1.126,4.988c-0.78,1.39-1.215,2.788-1.215,3.906c0,1.637-0.183,1.898-3.051,4.362

	c-2.796,2.401-3.052,2.757-3.052,4.234c0,2.153-1.007,4.683-2.61,6.562c-0.723,0.847-1.313,1.765-1.313,2.041

	c0,0.275-1.316,2.142-2.925,4.146c-3.591,4.476-6.23,9.764-6.23,12.486c0,1.056-0.482,3.34-1.072,5.075

	c-1.145,3.37-2.399,8.046-2.409,8.984c-0.003,0.313,0.894,1.336,1.994,2.273l2,1.704l5.847-3.016l5.847-3.016V316.275

	L112.434,316.275L112.434,316.275L112.434,316.275L112.434,316.275z" />

<path id="Valle_del_Cauca" fill="#E1E1E1" stroke="#007BB6" stroke-width="0.4014" d="M74.451,320.219

	c0.625,0.151,1.626-0.086,2.678-0.634c1.417-0.739,1.735-0.784,2.035-0.291c0.307,0.505,0.552,0.507,1.801,0.02l1.445-0.565

	l-0.127-2.633c-0.169-3.49,0.371-4.058,3.126-3.289c1.077,0.3,3.166,0.675,4.642,0.834c2.018,0.217,2.93,0.53,3.672,1.264

	c1.194,1.18,3.016,1.323,3.016,0.238c0-0.406,0.49-2.076,1.09-3.712c0.693-1.891,1.09-3.871,1.09-5.441

	c0-1.446,0.25-2.799,0.603-3.267c0.332-0.439,1.137-1.981,1.79-3.427c0.652-1.446,2.437-4.191,3.965-6.102l2.779-3.473l-1.748-3.808

	c-0.961-2.095-2.263-4.743-2.891-5.886c-0.973-1.768-1.102-2.399-0.87-4.247c0.339-2.692,1.662-4.028,2.933-2.961

	c0.646,0.542,0.913,0.561,1.673,0.12c1.675-0.971,1.385-1.438-1.183-1.909c-1.36-0.249-3.16-0.498-3.999-0.554l-1.526-0.102

	l0.148-1.921c0.119-1.539,0.011-1.922-0.539-1.922c-0.378,0-1.183-0.728-1.789-1.618c-1.555-2.285-3.006-2.249-4.103,0.102

	c-0.504,1.081-1.672,2.366-3.145,3.462c-2.97,2.209-6.325,6.16-6.996,8.238c-0.285,0.881-0.973,1.934-1.529,2.34

	c-1.154,0.843-1.337,2.498-0.358,3.252c0.36,0.276,0.654,0.955,0.654,1.508c0,0.59,0.45,1.333,1.09,1.8

	c1.817,1.326,1.406,2.147-1.996,3.991c-3.938,2.134-7.756,3.702-8.281,3.401c-0.224-0.128-0.288-0.678-0.141-1.22

	c0.253-0.938,0.168-0.986-1.71-0.986c-1.571,0-2.147-0.201-2.805-0.977c-0.826-0.974-0.829-0.974-2.125-0.213l-1.298,0.763

	l-2.119-1.625c-1.274-0.977-2.383-1.531-2.782-1.39c-0.407,0.146-1.029-0.191-1.615-0.873l-0.954-1.109l-0.726,1.303

	c-0.646,1.159-0.83,1.252-1.664,0.838c-0.815-0.405-1.097-0.3-2.165,0.808c-1.167,1.212-1.686,3.284-0.822,3.284

	c0.223,0,0.688,0.263,1.034,0.584c0.548,0.509,0.785,0.313,1.841-1.517c0.667-1.155,1.279-2.175,1.359-2.266

	c0.12-0.134,3.431,1.054,4.029,1.444c0.092,0.061-0.093,0.707-0.412,1.438c-0.577,1.322-1.954,2.743-2.656,2.743

	c-0.203,0-0.369,0.364-0.369,0.809c0,0.666,0.291,0.81,1.635,0.809c1.334,0,1.946-0.297,3.326-1.617

	c2.042-1.953,2.886-2.071,2.886-0.404c0,0.667,0.196,1.213,0.436,1.213c0.657,0,0.523,0.786-0.257,1.51

	c-0.516,0.479-0.624,1.073-0.422,2.323c0.245,1.511,0.16,1.734-0.841,2.232c-0.855,0.425-1.232,0.441-1.628,0.075

	c-0.849-0.787-1.224-0.54-0.725,0.477c0.396,0.806,0.302,1.104-0.604,1.922c-0.59,0.531-1.829,1.331-2.753,1.776

	c-1.847,0.889-3.419,3.002-2.471,3.321c0.3,0.102,0.545,0.398,0.545,0.66c0,0.565-1.892,2.528-2.702,2.803

	c-0.455,0.154-0.459,0.3-0.023,0.729c0.3,0.295,0.545,1.018,0.545,1.605c0,1.442,1.387,2.513,3.612,2.788

	c1.607,0.199,1.854,0.366,1.975,1.34c0.096,0.775,0.387,1.112,0.96,1.112c0.452,0,1.311,0.207,1.909,0.46

	c0.8,0.338,1.582,0.342,2.963,0.015c1.757-0.416,1.974-0.371,3.402,0.697l1.526,1.143l1.327-0.939

	C73.021,320.283,73.778,320.056,74.451,320.219L74.451,320.219L74.451,320.219z" />

<path id="Bogotá_D.C." fill="#E1E1E1" stroke="#007BB6" stroke-width="0.4014" d="M151.193,300.478c0.476-0.474,1.564-2.175,2.419-3.78

	c0.854-1.604,2.288-3.657,3.185-4.561c2.717-2.736,3.585-3.992,3.082-4.458c-0.447-0.415-0.344-2.116,0.399-6.564

	c0.205-1.229,0.907-3.003,1.568-3.964c1.621-2.354,2.321-5.676,1.641-7.782c-0.284-0.881-0.691-1.602-0.904-1.602

	c-0.212,0-0.984,0.97-1.715,2.155c-0.736,1.194-1.846,2.373-2.489,2.646l-1.16,0.49l0.875,0.894c1.269,1.295,1.529,3.942,0.51,5.173

	c-0.61,0.736-0.813,1.681-0.821,3.811c-0.006,1.779-0.317,3.582-0.837,4.854c-0.726,1.775-1.007,2.05-2.303,2.248

	c-2.386,0.364-2.536,0.588-2.536,3.771c0,2.795-0.084,3.041-1.744,5.105c-0.959,1.192-1.744,2.227-1.744,2.297

	C148.618,301.711,150.49,301.178,151.193,300.478L151.193,300.478L151.193,300.478L151.193,300.478L151.193,300.478L151.193,300.478

	L151.193,300.478L151.193,300.478L151.193,300.478L151.193,300.478L151.193,300.478L151.193,300.478L151.193,300.478

	L151.193,300.478z" />

<path id="Cundinamarca" fill="#E1E1E1" stroke="#007BB6" stroke-width="0.4014" d="M150.798,293.905c0-3.278,0.953-4.7,3.15-4.7

	c1.728,0,2.515-1.854,2.527-5.953c0.008-2.501,0.185-3.356,0.862-4.159c1.29-1.529,1.112-3.358-0.49-5.051l-1.361-1.438l1.717-0.681

	c1.321-0.523,2.02-1.197,3.032-2.924c1.764-3.01,2.948-3.086,4.102-0.266c0.733,1.791,0.754,2.22,0.226,4.56

	c-0.321,1.421-1.074,3.271-1.674,4.111c-0.6,0.841-1.218,2.43-1.374,3.53c-0.692,4.893-0.758,6.347-0.306,6.767

	c0.337,0.312,0.157,0.818-0.633,1.779c-1.05,1.276-1.061,1.342-0.225,1.342c0.483,0,1.523-0.517,2.311-1.149

	s2.328-1.354,3.423-1.605c1.095-0.25,2.908-0.931,4.029-1.512c1.805-0.936,1.984-1.15,1.567-1.872

	c-0.259-0.449-0.827-1.778-1.263-2.954l-0.793-2.139l1.812-1.627c0.997-0.896,2.204-1.701,2.684-1.791

	c0.48-0.089,1.688,0.347,2.686,0.969c1.473,0.919,1.87,1.438,2.113,2.773c0.179,0.983,0.749,2.03,1.417,2.605l1.119,0.963

	l1.367-0.967c1.31-0.928,1.451-0.944,3.417-0.395c1.128,0.314,2.947,1.145,4.043,1.844s2.053,1.209,2.127,1.132

	s0.557-2.688,1.072-5.803c0.516-3.114,1.044-6.113,1.175-6.663c0.229-0.961,0.205-0.973-0.592-0.304

	c-1.258,1.057-3.351,0.9-4.208-0.313c-0.43-0.609-1.126-1.012-1.749-1.012c-1.074,0-3.407-2.113-4.267-3.865

	c-0.32-0.651-0.972-1.016-2.148-1.2c-0.965-0.151-1.958-0.621-2.317-1.096c-0.562-0.744-0.511-1.044,0.484-2.866l1.112-2.035

	l-0.791-2.423c-0.534-1.638-1.256-2.816-2.226-3.635c-1.104-0.933-1.438-1.546-1.449-2.663c-0.016-1.727-1.5-2.965-3.335-2.782

	c-0.996,0.099-1.241-0.086-1.593-1.198c-0.264-0.836-0.694-1.314-1.179-1.314c-0.748,0-3.47,2.519-3.47,3.21

	c0,0.193-0.627,0.72-1.395,1.171c-1.528,0.897-2.122,0.767-4.366-0.965c-0.651-0.502-1.98-1.038-2.954-1.19

	c-1.493-0.234-1.907-0.525-2.636-1.852c-0.5-0.909-0.981-2.841-1.139-4.58c-0.369-4.047-0.562-4.269-2.625-3.033

	c-1.399,0.838-1.915,0.941-3.194,0.644c-0.971-0.227-1.961-0.199-2.725,0.076c-1.014,0.365-1.199,0.669-1.201,1.959

	c0,0.84-0.393,2.123-0.872,2.852c-0.526,0.802-0.87,2.037-0.87,3.131c0,0.996-0.502,2.97-1.121,4.403

	c-1.031,2.39-1.07,2.69-0.482,3.746c0.505,0.908,0.562,1.822,0.272,4.384c-0.202,1.779-0.377,4.533-0.39,6.12

	c-0.023,2.795-0.07,2.917-1.505,3.933c-1.296,0.918-1.519,1.348-1.781,3.44c-0.224,1.788-0.131,2.692,0.366,3.585

	c0.639,1.146,0.605,1.287-0.835,3.505c-0.825,1.271-1.5,2.483-1.5,2.694c0,0.212,0.619,0.385,1.376,0.385

	c0.796,0,1.978,0.426,2.805,1.011c1.842,1.304,2.442,1.273,4.268-0.213l1.503-1.225l1.197,0.955c1.135,0.905,1.195,1.13,1.15,4.297

	c-0.026,1.838-0.272,4.348-0.547,5.577c-0.431,1.923-0.394,2.454,0.26,3.801l0.761,1.565l1.025-1.289

	C150.619,296.958,150.798,296.238,150.798,293.905L150.798,293.905L150.798,293.905L150.798,293.905L150.798,293.905

	L150.798,293.905L150.798,293.905L150.798,293.905L150.798,293.905L150.798,293.905L150.798,293.905L150.798,293.905

	L150.798,293.905L150.798,293.905z" />

<path id="Choco" fill="#E1E1E1" stroke="#007BB6" stroke-width="0.4014" d="M80.034,289.494c1.813-0.938,3.393-1.936,3.51-2.218

	c0.118-0.281-0.298-0.886-0.924-1.344c-0.745-0.543-1.14-1.225-1.14-1.966c0-0.624-0.294-1.361-0.654-1.638

	c-1.085-0.836-0.792-2.584,0.631-3.761c0.707-0.584,1.523-1.798,1.813-2.697c0.611-1.892,4.69-6.538,7.293-8.306

	c1.034-0.703,2.072-1.867,2.466-2.766c0.659-1.505,0.649-1.573-0.344-2.298c-0.562-0.411-1.255-1.466-1.539-2.345

	c-0.284-0.878-0.795-1.812-1.136-2.074c-0.846-0.651-0.433-2.763,1.124-5.742c0.992-1.9,1.442-2.371,2.27-2.371

	c1.379,0,4.208-2.504,4.196-3.714c-0.005-0.516-0.393-1.393-0.862-1.948c-0.474-0.562-0.857-1.648-0.862-2.447

	c-0.005-0.79-0.218-1.629-0.473-1.865c-0.586-0.544-0.669-2.571-0.215-5.294c0.341-2.047,0.317-2.124-0.659-2.124

	c-0.557,0-1.563-0.489-2.236-1.087c-1.046-0.93-1.223-1.404-1.223-3.287v-2.201l-3.379,0.184c-1.858,0.101-3.862,0.424-4.453,0.719

	c-0.591,0.295-2.448,0.55-4.127,0.566L76.06,227.5l-1.705-2.802c-1.544-2.538-1.659-2.921-1.214-4.062

	c1.004-2.576,0.676-3.539-2.122-6.226c-1.438-1.38-2.725-2.999-2.861-3.598c-0.136-0.599-0.337-1.499-0.447-2.002

	c-0.11-0.502,0.104-1.458,0.474-2.123c0.569-1.021,0.933-1.21,2.324-1.21c0.907,0,2.018-0.25,2.468-0.556

	c0.798-0.541,0.795-0.607-0.107-2.621c-1.009-2.253-0.796-2.709,0.973-2.085c0.635,0.225,2.184,0.407,3.441,0.407

	c1.335,0,2.638,0.247,3.132,0.594c1.238,0.869,1.382,0.784,1.672-0.998c0.145-0.89,0.375-2.301,0.512-3.135

	c0.211-1.287,0.032-1.776-1.183-3.235c-1.029-1.236-1.749-1.72-2.558-1.72c-1.209,0-3.183-1.699-5.534-4.763

	c-0.73-0.951-3.104-2.917-5.277-4.369c-2.172-1.451-4.354-3.222-4.848-3.934l-0.897-1.293l1.055-0.81

	c1.856-1.423,3.021-4.8,3.032-8.786c0.007-2.848-0.14-3.666-0.765-4.247c-0.426-0.396-1.406-1.72-2.177-2.943

	c-1.036-1.644-1.939-2.489-3.455-3.236c-1.129-0.556-2.053-1.212-2.054-1.458c0-0.245-0.516-0.962-1.145-1.592

	c-1.068-1.069-1.217-1.106-2.246-0.564c-2.02,1.064-2.116,1.695-0.605,3.974c0.759,1.144,1.38,2.589,1.38,3.211

	c0,0.74,0.467,1.544,1.348,2.32c2.72,2.396,4.146,6.372,3.604,10.044c-0.236,1.6-0.417,1.862-1.277,1.862

	c-2.141,0-3.082,0.812-6.509,5.609c-3.372,4.72-3.54,4.883-5.053,4.895c-1.542,0.013-1.574-0.021-2.146-2.23

	c-0.493-1.906-0.717-2.226-1.486-2.124c-1.001,0.133-1.13,1.171-0.525,4.22l0.332,1.672l-1.645,0.361

	c-1.616,0.354-1.665,0.422-2.824,3.913l-1.18,3.553l1.813,1.223c0.997,0.673,2.307,1.495,2.91,1.827

	c1.095,0.604,3.045,3.01,3.045,3.757c0,0.217-0.368,0.72-0.818,1.118c-0.991,0.877-1.617,2.544-0.955,2.544

	c0.256,0,0.465-0.183,0.465-0.405c0-0.733,1.069-0.398,2.452,0.771c0.905,0.765,1.558,1.857,1.944,3.255

	c0.508,1.839,0.65,2.016,1.128,1.409c0.301-0.383,0.62-0.896,0.708-1.143c0.105-0.291,0.706-0.175,1.726,0.335

	c1.16,0.58,1.635,1.127,1.834,2.112c0.148,0.73,0.56,1.479,0.915,1.664c0.563,0.293,0.52,1.04-0.344,5.874

	c-0.978,5.47-1.497,6.479-2.382,4.639c-0.4-0.833-0.46-0.777-0.76,0.705c-0.301,1.489-0.218,1.691,1.115,2.724

	c0.792,0.614,1.675,1.116,1.963,1.116c0.288,0,0.655,0.773,0.816,1.719c0.523,3.07,1.228,4.793,2.271,5.554

	c1.545,1.129,1.014,3.353-1.358,5.682c-1.656,1.625-2.052,1.813-3.904,1.849c-2.36,0.045-2.685,0.265-3.103,2.101

	c-0.282,1.242-0.234,1.316,0.717,1.115c0.659-0.14,1.396,0.078,2.086,0.618c0.903,0.706,0.987,0.953,0.545,1.609

	c-0.726,1.078-0.66,1.467,0.415,2.464c0.763,0.709,0.844,1.007,0.436,1.613c-0.847,1.259-0.605,2.332,0.59,2.61

	c1.329,0.31,1.382,0.828,0.178,1.732c-0.847,0.637-0.878,0.854-0.436,3.071c0.262,1.313,0.476,3.104,0.476,3.979

	c0,1.317,0.3,1.87,1.744,3.209c1.059,0.982,1.744,1.997,1.744,2.582c0,1.068-1.064,1.327-1.466,0.356

	c-0.138-0.334-0.453-0.606-0.701-0.606c-0.28,0-0.449,1.599-0.449,4.247c0,2.562,0.173,4.247,0.436,4.247

	c0.887,0,0.402,1.161-0.537,1.286c-0.601,0.08-1.56,0.936-2.507,2.238c-1.521,2.091-2.383,2.606-2.732,1.634

	c-0.111-0.309-0.39-0.143-0.718,0.426c-0.438,0.758-0.405,1.298,0.178,2.927c0.393,1.098,0.887,2.095,1.097,2.215

	c0.21,0.121,1.197-0.602,2.193-1.604c1.496-1.505,1.953-1.753,2.622-1.42c0.67,0.332,0.928,0.19,1.491-0.818

	c0.831-1.491,1.71-1.554,2.674-0.188c0.401,0.567,0.982,0.941,1.291,0.831c0.31-0.11,1.517,0.504,2.683,1.366l2.12,1.565

	l1.351-0.793l1.351-0.794l0.85,1.002c0.684,0.807,1.31,1.026,3.205,1.127c2.184,0.115,2.346,0.193,2.242,1.079

	c-0.099,0.838,0.024,0.923,1.008,0.693C76.234,291.316,78.222,290.431,80.034,289.494L80.034,289.494L80.034,289.494L80.034,289.494

	L80.034,289.494z" />

<path id="Quindío" fill="#E1E1E1" stroke="#007BB6" stroke-width="0.4014" d="M109.445,287.081

	c1.599-1.697,2.533-4.063,2.542-6.444c0.009-2.134,0.111-2.362,1.427-3.198c2.606-1.654,4.687-3.74,4.687-4.697

	c0-0.903-0.115-0.929-4.071-0.929h-4.071l-1.86,1.642c-1.754,1.548-1.906,1.604-2.659,0.972c-0.439-0.369-1.007-0.551-1.262-0.404

	c-0.652,0.373-0.578,4.323,0.099,5.284c0.309,0.439,1.32,2.573,2.248,4.742c0.927,2.169,1.771,3.943,1.875,3.943

	C108.503,287.991,108.974,287.582,109.445,287.081L109.445,287.081z" />

<path id="Casanare" fill="#E1E1E1" stroke="#007BB6" stroke-width="0.4014" d="M211.109,282.147c0.989-0.7,1.587-0.88,2.042-0.613

	c1.465,0.859,3.367,0.406,6-1.431c2.428-1.693,2.794-1.819,5.271-1.819c2.188,0,2.758,0.144,3.206,0.809

	c1.145,1.7,3.123,0.807,9.984-4.509c1.982-1.536,6.676-3.581,8.219-3.581c1.342,0,10.379-4.324,12.866-6.156

	c1.206-0.888,3.016-2.842,4.049-4.371c1.544-2.283,2.196-2.881,3.752-3.432c1.893-0.671,3.939-2.6,5.85-5.512

	c1.955-2.98,6.421-5.479,13.949-7.806c2.499-0.772,4.253-1.624,5.667-2.751c2.443-1.949,2.518-2.058,2.906-4.245

	c0.217-1.223,0.699-2.018,1.684-2.78c1.507-1.167,2.43-2.445,2.455-3.399c0.025-1.033-2.102-2.827-3.354-2.827

	c-0.701,0-1.934-0.608-3.143-1.553c-2.94-2.294-3.545-2.492-7.598-2.492c-3.438,0-3.885,0.1-6.241,1.393l-2.538,1.393l-2.834-0.593

	c-1.559-0.326-3.532-0.874-4.386-1.218c-2.274-0.914-15.171-0.58-21.091,0.546c-3.877,0.737-4.438,0.761-5.322,0.224

	c-0.91-0.554-1.273-0.487-4.557,0.83c-3.333,1.337-3.65,1.393-4.793,0.845c-1.148-0.552-1.462-0.49-5.061,0.982

	c-3.562,1.457-3.922,1.529-5.037,1c-0.66-0.313-1.707-1.279-2.324-2.146c-1.209-1.695-1.98-2.151-3.014-1.783

	c-0.818,0.291-0.818,1.65,0,2.978c0.352,0.571,0.629,2.117,0.639,3.553c0.015,2.498-0.012,2.557-1.564,3.407l-1.58,0.864l2.451,1.15

	c1.349,0.633,2.452,1.314,2.452,1.515c0,0.199,0.571,0.864,1.271,1.476c1.206,1.057,1.236,1.162,0.589,2.078

	c-0.376,0.531-0.905,2.003-1.177,3.271c-0.438,2.033-0.628,2.318-1.621,2.427c-0.865,0.095-1.328-0.174-1.998-1.155l-0.872-1.277

	l-1.475,1.707c-0.811,0.938-2.651,2.616-4.09,3.729s-2.88,2.478-3.201,3.035l-0.586,1.012l-1.832-1.668l-1.833-1.669l-1.448,1.388

	c-1.485,1.421-2.532,4.525-1.771,5.251c0.535,0.511-1.022,3.179-2.554,4.374c-1.147,0.896-1.306,1.321-1.584,4.234

	c-0.306,3.208-0.295,3.258,1.147,5.224c0.801,1.092,1.582,2.076,1.735,2.188s0.513,0.931,0.8,1.822

	c0.397,1.236,1.015,1.923,2.609,2.901c1.65,1.015,2.148,1.585,2.38,2.729l0.293,1.446h2.407

	C209.186,283.137,210.016,282.922,211.109,282.147L211.109,282.147L211.109,282.147L211.109,282.147L211.109,282.147

	L211.109,282.147L211.109,282.147L211.109,282.147L211.109,282.147L211.109,282.147L211.109,282.147L211.109,282.147

	L211.109,282.147z" />

<path id="Boyacá" fill="#E1E1E1" stroke="#007BB6" stroke-width="0.4014" d="M193.84,271.027c0.291-0.433,0.654-2.298,0.807-4.146

	c0.275-3.323,0.299-3.379,2.192-5.036c1.919-1.679,2.269-2.32,1.505-2.759c-0.243-0.14-0.154-0.803,0.218-1.629

	c0.345-0.767,0.628-1.803,0.628-2.303c0-0.54,0.833-1.694,2.054-2.844l2.053-1.935l1.586,1.437l1.585,1.437l1.503-1.336

	c0.826-0.735,2.283-1.974,3.236-2.752s2.527-2.309,3.5-3.399l1.768-1.982l0.984,1.478c1.344,2.017,2.057,1.887,2.433-0.444

	c0.171-1.057,0.495-2.241,0.722-2.634c0.634-1.099-1.52-3.389-4.497-4.783c-1.396-0.654-2.54-1.275-2.54-1.381

	s0.802-0.66,1.78-1.233l1.78-1.043l-0.205-2.502c-0.112-1.376-0.409-3.32-0.66-4.321c-0.613-2.453,0.08-5.114,1.719-6.594

	c0.691-0.625,1.254-1.566,1.254-2.1c0-1.234,0.609-1.578,1.774-0.999c0.691,0.343,1.236,0.335,2.188-0.031

	c1.095-0.42,1.269-0.704,1.269-2.067c0-1.574,1.184-4.122,3.899-8.396c0.948-1.491,1.332-2.614,1.332-3.897

	c0-1.718-0.059-1.802-1.262-1.802c-0.777,0-1.368-0.261-1.541-0.679c-0.258-0.623-0.338-0.626-0.981-0.029

	c-0.644,0.598-0.79,0.596-1.804-0.021c-0.921-0.56-1.137-0.576-1.308-0.101c-0.112,0.314-0.636,0.947-1.163,1.407

	c-0.527,0.461-1.497,1.598-2.154,2.526l-1.195,1.689l-1.762-0.577c-0.969-0.317-1.836-0.577-1.926-0.577s-0.167,1.684-0.172,3.742

	c-0.008,3.09-0.158,3.917-0.863,4.752c-0.469,0.557-0.856,1.33-0.861,1.719c-0.006,0.397-0.915,1.237-2.08,1.92l-2.071,1.212

	l-1.423-1.414c-0.783-0.777-1.715-1.414-2.07-1.414c-1.004,0-0.772,1.567,0.425,2.888c0.882,0.972,0.999,1.367,0.654,2.208

	c-0.231,0.563-0.423,1.513-0.426,2.11c-0.004,0.729-0.806,1.95-2.437,3.715c-1.338,1.446-3.219,3.693-4.181,4.993l-1.749,2.364

	l-3.411-0.279l-3.411-0.28l-1.128,1.657c-0.62,0.911-1.335,1.657-1.59,1.657s-1.162,0.723-2.016,1.605l-1.554,1.606l-1.248-0.824

	c-1.549-1.023-1.595-2.198-0.158-4.006c1.569-1.974,1.426-3.222-0.513-4.447c-1.304-0.824-1.636-0.898-1.812-0.408

	c-0.119,0.331-0.792,1.137-1.498,1.791c-1.213,1.125-1.271,1.332-1.084,3.846c0.132,1.773,0,3.024-0.398,3.764l-0.596,1.105

	l-1.728-0.641c-1.579-0.587-1.904-0.586-3.775,0.006c-1.126,0.355-2.883,0.647-3.903,0.647c-1.563,0-2.001-0.191-2.786-1.214

	c-0.512-0.667-1.145-1.213-1.405-1.213s-1.154-0.481-1.985-1.069c-1.46-1.033-1.552-1.047-2.736-0.398

	c-1.178,0.646-1.251,0.637-1.909-0.234c-0.411-0.544-0.684-1.756-0.684-3.04v-2.135h-2.382c-2.031,0-2.457-0.134-2.886-0.91

	c-0.277-0.5-1.043-1.456-1.704-2.123c-0.66-0.668-1.329-1.722-1.486-2.343l-0.286-1.129l-1.077,1.188

	c-1.293,1.426-1.322,1.812-0.256,3.45c0.77,1.181,0.78,1.414,0.169,3.688c-0.359,1.335-1.047,2.826-1.529,3.314

	c-0.615,0.623-0.794,1.19-0.602,1.902c0.271,0.999,0.301,1.006,2.028,0.441c1.343-0.44,2.002-0.469,2.821-0.123

	c0.908,0.384,1.319,0.291,2.736-0.62c0.917-0.59,1.913-1.072,2.211-1.072c0.883,0,1.807,2.629,1.808,5.145

	c0,3.343,1.016,5.028,3.349,5.562c1.003,0.229,2.278,0.8,2.833,1.267c0.555,0.468,1.24,0.971,1.522,1.118

	c0.586,0.306,2.757-0.505,2.757-1.03c0-0.191,0.819-1.173,1.819-2.18c2.262-2.276,3.801-2.362,4.451-0.247

	c0.338,1.1,0.581,1.303,1.347,1.124c0.635-0.148,1.45,0.177,2.544,1.014c1.287,0.983,1.61,1.51,1.61,2.623

	c0,1.012,0.345,1.693,1.266,2.498c0.759,0.664,1.625,2.134,2.166,3.674l0.9,2.568l-1.112,2.035

	c-1.261,2.309-1.038,2.828,1.464,3.418c1.026,0.241,1.804,0.887,2.837,2.354c1.162,1.652,1.683,2.046,2.845,2.15

	c0.927,0.083,1.665,0.47,2.118,1.112C191.17,272.044,193.083,272.152,193.84,271.027L193.84,271.027L193.84,271.027L193.84,271.027

	L193.84,271.027L193.84,271.027L193.84,271.027L193.84,271.027L193.84,271.027L193.84,271.027L193.84,271.027L193.84,271.027z" />

<path id="Risaralda" fill="#E1E1E1" stroke="#007BB6" stroke-width="0.4014" d="M118.719,269.576

	c0.217-0.803-0.074-1.411-1.353-2.832l-1.629-1.809h-3.604h-3.604l-0.89-1.617c-0.489-0.891-0.98-1.618-1.09-1.618

	c-0.11,0-0.609,0.742-1.108,1.65l-0.908,1.65l-1.39-0.991c-1.916-1.366-2.117-3.807-0.54-6.559c0.611-1.066,1.111-2.28,1.111-2.697

	c0-0.991,1.695-1.57,3.708-1.267c1.585,0.238,1.588,0.236,1.447-1.134l-0.141-1.372l-2.834-0.011l-2.833-0.01l-0.137-1.303

	c-0.105-1.006-0.388-1.362-1.238-1.56c-1.632-0.381-4.387,0.536-5.689,1.893c-0.637,0.663-1.588,1.192-2.143,1.192

	c-0.77,0-1.207,0.438-1.918,1.921c-1.328,2.771-1.527,4.048-0.758,4.865c0.36,0.383,0.876,1.335,1.146,2.116

	c0.63,1.823,1.842,2.528,3.769,2.193c1.378-0.24,1.567-0.145,2.442,1.23c0.521,0.82,1.382,1.645,1.913,1.832

	c0.973,0.343,1.718,2.292,1.281,3.35c-0.351,0.849,5.443,1.787,11.421,1.851l5.293,0.057L118.719,269.576L118.719,269.576

	L118.719,269.576L118.719,269.576L118.719,269.576L118.719,269.576z" />

<path id="Caldas" fill="#E1E1E1" stroke="#007BB6" stroke-width="0.4014" d="M120.217,266.655c0.221-0.39,0.367-1.982,0.324-3.539

	c-0.052-1.883,0.169-3.388,0.66-4.491c0.641-1.44,0.96-1.694,2.416-1.917c0.923-0.142,2.142-0.259,2.71-0.262

	c0.576-0.003,2.154-0.847,3.566-1.907l2.534-1.902l3.893,0.114l3.893,0.114l0.715-1.658c0.393-0.912,0.716-2.519,0.717-3.571

	c0-1.197,0.327-2.408,0.872-3.237c1.106-1.684,1.2-4.853,0.154-5.226c-0.477-0.169-1.097,0.157-1.853,0.977

	c-1.444,1.564-2.948,1.939-3.555,0.886c-0.589-1.021-1.263-0.978-4.831,0.315c-2.423,0.878-2.955,1.226-2.758,1.802

	c0.179,0.522-0.258,1.006-1.632,1.806c-1.032,0.601-2.547,1.602-3.368,2.225c-1.462,1.109-1.519,1.118-2.767,0.443

	c-1.873-1.014-2.935-2.609-2.935-4.412c0-2.184-0.686-2.726-2.191-1.73c-1.169,0.772-1.19,0.772-1.961-0.018

	c-1.316-1.35-1.601-0.93-1.446,2.134l0.147,2.933l-3.923,0.237c-4.805,0.291-5.449,0.526-5.449,1.992

	c0,1.078,0.078,1.122,1.673,0.923c1.07-0.133,2.155,0.023,3.012,0.435c1.243,0.596,1.323,0.766,1.125,2.37

	c-0.323,2.615-0.477,2.916-1.206,2.354c-0.34-0.263-1.363-0.419-2.272-0.35c-1.469,0.113-1.704,0.285-2.105,1.543

	c-0.249,0.779-0.695,1.813-0.992,2.3c-0.788,1.287-0.704,4.432,0.126,4.728c0.436,0.155,0.838-0.111,1.162-0.77

	c0.585-1.191,2.933-2.449,3.147-1.687c0.861,3.065,0.619,2.901,4.474,3.028l3.546,0.117l1.676,1.767

	C119.426,267.534,119.661,267.633,120.217,266.655L120.217,266.655L120.217,266.655L120.217,266.655z" />

<path id="Santander" fill="#E1E1E1" stroke="#007BB6" stroke-width="0.4014" d="M171.747,238.481c1.65-0.465,2.214-0.47,3.346-0.028

	c1.755,0.685,1.957,0.253,1.589-3.411c-0.258-2.573-0.211-2.774,0.813-3.522c0.597-0.436,1.412-1.377,1.811-2.092

	s0.985-1.3,1.304-1.3c0.319,0,1.491,0.646,2.604,1.435c2.38,1.686,2.574,2.713,0.935,4.95c-1.19,1.625-1.355,2.511-0.599,3.212

	c0.364,0.338,0.764,0.155,1.545-0.706c0.58-0.64,1.389-1.261,1.798-1.381c0.409-0.121,1.26-1.012,1.89-1.98l1.146-1.761l3.462,0.186

	l3.462,0.187l1.675-2.172c0.922-1.193,2.601-3.172,3.732-4.396s2.158-2.771,2.285-3.438c0.126-0.667,0.362-1.601,0.525-2.075

	c0.217-0.634-0.01-1.125-0.861-1.857c-0.941-0.81-1.132-1.29-1.019-2.576c0.127-1.442,0.259-1.591,1.505-1.704

	c1.113-0.101,1.599,0.14,2.632,1.303l1.267,1.425l1.4-0.79c0.771-0.436,1.405-1.021,1.41-1.303c0.006-0.281,0.394-0.966,0.863-1.522

	c0.676-0.803,0.854-1.658,0.861-4.156c0.01-2.985-0.045-3.164-1.08-3.529c-0.827-0.291-1.09-0.676-1.09-1.593

	c0-1.428-0.143-1.505-5.668-3.059c-2.277-0.641-4.299-1.286-4.491-1.434s-0.018-0.916,0.39-1.708

	c0.608-1.184,0.656-1.742,0.273-3.145c-0.28-1.024-0.316-2.073-0.088-2.628c0.309-0.755-0.053-1.529-1.995-4.268

	c-1.305-1.84-2.372-3.552-2.372-3.804c0-0.297-1.229-0.481-3.501-0.526c-3.366-0.066-3.518-0.03-3.917,0.944

	c-0.316,0.772-0.651,0.969-1.403,0.823c-0.543-0.104-2.165-0.309-3.604-0.453c-2.338-0.235-2.928-0.501-5.559-2.494

	c-1.618-1.228-2.942-2.381-2.942-2.565c0-0.184-0.736-0.391-1.635-0.459c-1.42-0.109-1.653-0.272-1.773-1.239

	c-0.081-0.652,0.235-1.599,0.763-2.287c1.312-1.708,1.127-2.682-1.007-5.314l-1.908-2.355l-1.202,1.164

	c-1.146,1.11-1.179,1.25-0.701,3.01c0.275,1.016,0.972,2.8,1.548,3.967c1.621,3.283,1.646,4.576,0.146,7.379

	c-0.714,1.335-1.802,2.924-2.417,3.531c-0.981,0.97-1.055,1.232-0.606,2.146c0.516,1.052,0.397,2.805-0.431,6.337

	c-0.406,1.733-0.351,2.02,0.624,3.236c0.588,0.733,1.188,1.921,1.333,2.638c0.229,1.135,0.077,1.435-1.182,2.325

	c-0.794,0.562-1.818,1.025-2.275,1.028c-1.089,0.009-1.45,0.272-3.163,2.314c-0.791,0.943-2.015,2.03-2.72,2.417

	c-0.706,0.387-1.773,1.391-2.372,2.23c-0.897,1.258-1.344,1.526-2.541,1.526c-0.901,0-1.753,0.309-2.245,0.812

	c-0.706,0.724-0.743,1.113-0.342,3.54c0.503,3.044,0.437,3.333-0.764,3.333c-0.509,0-1.282,0.648-1.96,1.645

	c-0.996,1.464-1.065,1.8-0.626,3.033c0.271,0.763,0.839,1.614,1.263,1.894c0.423,0.278,1.003,0.916,1.29,1.417

	c0.441,0.771,0.878,0.91,2.877,0.91c1.296,0,2.486,0.194,2.645,0.432s0.393,1.512,0.522,2.831c0.243,2.485,0.447,2.695,1.914,1.967

	c0.706-0.35,1.151-0.234,2.34,0.607c0.808,0.571,1.763,1.039,2.122,1.039s1.072,0.546,1.584,1.214

	c0.782,1.019,1.224,1.212,2.754,1.209C168.942,239.042,170.655,238.789,171.747,238.481L171.747,238.481L171.747,238.481

	L171.747,238.481L171.747,238.481L171.747,238.481L171.747,238.481L171.747,238.481L171.747,238.481L171.747,238.481

	L171.747,238.481L171.747,238.481L171.747,238.481L171.747,238.481z" />

<path id="Arauca" fill="#E1E1E1" stroke="#007BB6" stroke-width="0.4014" d="M311.434,229.064c0.847-0.375,1.538-0.784,1.536-0.91

	c-0.004-0.126-2.842-3.596-6.311-7.712c-3.468-4.115-8.375-9.985-10.906-13.044c-4.465-5.398-4.648-5.562-6.234-5.562

	c-0.9,0-2.08,0.288-2.621,0.641c-0.914,0.593-1.274,0.563-4.912-0.405c-2.16-0.574-4.016-1.045-4.125-1.045

	s-0.199-0.344-0.199-0.766c0-1.096-0.792-1.257-6.186-1.257c-4.619,0-4.867,0.045-6.395,1.151c-0.873,0.633-2.533,1.366-3.688,1.63

	c-1.939,0.443-2.154,0.416-2.836-0.365c-0.67-0.768-0.928-0.806-2.807-0.415c-1.551,0.322-3.461,0.284-7.627-0.154

	c-9.6-1.01-11.308-1.069-11.895-0.412c-0.29,0.323-0.969,0.588-1.509,0.588s-1.595,0.114-2.345,0.253

	c-1.209,0.225-1.361,0.41-1.361,1.644c0,0.949-0.832,2.769-2.616,5.725c-2.275,3.77-2.616,4.611-2.616,6.466

	c0,2.111-0.018,2.14-1.814,2.887c-1.297,0.538-2.106,0.651-2.834,0.395c-0.893-0.314-1.019-0.239-1.019,0.612

	c0,0.56-0.472,1.315-1.112,1.783c-1.238,0.904-2.334,3.52-1.323,3.159c0.853-0.304,3.104,1.106,3.991,2.497

	c1.439,2.263,2.18,2.323,6.533,0.539c3.65-1.496,3.971-1.56,5.016-0.996c1.037,0.561,1.371,0.504,4.795-0.813

	c3.459-1.331,3.749-1.379,4.817-0.797c1.04,0.566,1.54,0.537,5.886-0.338c6.727-1.354,17.283-1.574,20.189-0.42

	c1.098,0.436,3.184,1.008,4.635,1.271c2.635,0.477,2.639,0.476,5.23-0.974c2.447-1.369,2.81-1.451,6.381-1.452l3.785-0.002

	l3.188,2.226c2.008,1.4,3.618,2.225,4.35,2.225c0.743,0,1.54,0.416,2.209,1.154c1.409,1.553,1.635,1.608,6.754,1.645

	C308.771,229.738,310.28,229.574,311.434,229.064L311.434,229.064z" />

<path id="Norte_de_Santander" fill="#E1E1E1" stroke="#007BB6" stroke-width="0.4014" d="M213.741,204.055

	c0.9-0.547,1.178-0.546,2.602,0.006l1.594,0.618l1.344-2.028c0.74-1.115,1.52-2.027,1.732-2.027c0.214,0,0.695-0.553,1.072-1.229

	l0.685-1.229l1.29,0.853c1.854,1.225,2.129,0.181,0.627-2.378c-0.805-1.374-1.076-2.279-0.865-2.896

	c0.188-0.547,0.015-1.497-0.441-2.435l-0.747-1.538l-4.043,0.224l-4.042,0.224l-0.327-2.585c-0.18-1.422-0.358-5.224-0.396-8.449

	l-0.07-5.865l1.423-1.645c1.067-1.233,1.494-2.206,1.708-3.89c0.188-1.489,0.119-2.339-0.205-2.525

	c-0.27-0.154-0.489-1.167-0.489-2.251c0-1.956-0.031-1.999-4.302-5.942l-4.301-3.972l-2.064-7.482

	c-1.136-4.116-2.29-7.617-2.565-7.78c-0.837-0.497-2.323-0.345-2.897,0.297c-0.299,0.334-1.108,0.607-1.798,0.607

	c-1.184,0-1.255-0.098-1.264-1.72c-0.006-1.058-0.329-2.104-0.839-2.721l-0.83-1.002l-1.667,1.243

	c-1.398,1.043-2.194,1.289-4.937,1.527c-5.192,0.452-4.795-0.006-4.795,5.538v4.835l-1.962,3.624

	c-1.079,1.993-1.962,3.847-1.962,4.118c0,0.272,0.598,1.067,1.329,1.767c1.207,1.156,1.28,1.371,0.796,2.356

	c-0.378,0.771-0.397,1.209-0.065,1.518c0.332,0.308,0.551,0.079,0.757-0.792c0.443-1.874,1.125-2.175,2.754-1.218

	c2.008,1.18,1.955,3.071-0.156,5.461l-1.559,1.766l0.742,2.072c0.408,1.14,1.404,2.753,2.213,3.584

	c1.712,1.758,1.863,2.893,0.497,3.734c-0.771,0.475-0.869,0.72-0.468,1.168c0.4,0.446,0.183,1.059-1.022,2.887

	c-1.484,2.251-1.585,2.319-3.428,2.319c-1.044,0-2.451-0.182-3.125-0.403c-1.2-0.395-1.193-0.376,0.298,0.846

	c0.839,0.688,1.918,1.488,2.398,1.781c1.154,0.703,6.321,1.245,6.321,0.662c0-0.879,1.99-1.366,5.629-1.379

	c3.269-0.011,3.764,0.08,3.898,0.718c0.19,0.903,2.434,4.359,4.096,6.311c1.084,1.272,1.178,1.585,0.738,2.479

	c-0.353,0.718-0.379,1.568-0.086,2.841c0.297,1.288,0.267,2.156-0.103,2.98l-0.521,1.164l4.836,1.427

	c4.322,1.274,4.85,1.532,4.966,2.427C212.03,204.846,212.222,204.98,213.741,204.055L213.741,204.055L213.741,204.055

	L213.741,204.055L213.741,204.055L213.741,204.055L213.741,204.055L213.741,204.055L213.741,204.055L213.741,204.055

	L213.741,204.055L213.741,204.055L213.741,204.055z" />

<path id="Bolivar" fill="#E1E1E1" stroke="#007BB6" stroke-width="0.4014" d="M159.999,198.079c1.344-1.159,3.354-3.128,4.468-4.376

	c2.008-2.248,2.349-3.304,1.618-5.012c-0.257-0.604-0.027-1.148,0.904-2.139c1.646-1.752,3.427-5.055,3.427-6.354

	c0-0.57-0.522-2.169-1.16-3.553s-1.398-3.426-1.689-4.538l-0.529-2.022l2.196-2.102l2.196-2.102l0.201-4.188

	c0.177-3.693,0.092-4.387-0.724-5.871c-1.167-2.122-1.306-6.721-0.237-7.817c0.869-0.891,0.206-2.249-1.369-2.805

	c-0.698-0.247-1.063-0.692-1.063-1.298c0-1-1.256-1.699-3.927-2.188c-2.887-0.529-4.18-1.307-6.912-4.159

	c-2.408-2.514-2.927-2.862-4.263-2.862c-0.837,0-1.926-0.2-2.42-0.445c-0.664-0.33-1.197-0.32-2.042,0.037

	c-1.066,0.452-1.257,0.366-2.825-1.272c-0.924-0.966-2.047-2.422-2.495-3.236c-0.615-1.119-1.268-1.621-2.678-2.058l-1.864-0.578

	l0.153-2.887c0.145-2.734,0.059-3.048-1.635-5.962c-2.12-3.646-2.258-5.143-0.622-6.728c1.06-1.026,1.113-1.222,0.584-2.14

	c-0.32-0.555-0.946-1.116-1.389-1.246c-0.444-0.131-1.1-0.764-1.458-1.406c-0.587-1.053-0.576-1.312,0.111-2.649l0.761-1.481

	l-1.915-1.576c-1.11-0.914-2.209-1.496-2.613-1.385c-0.964,0.266-2.128-0.402-5.456-3.133l-2.863-2.349l0.895-1.628

	c0.846-1.539,0.855-1.684,0.167-2.659c-0.401-0.567-0.854-0.854-1.008-0.636c-0.154,0.218-0.805,0.515-1.448,0.66

	c-0.643,0.146-1.896,0.902-2.786,1.681c-0.889,0.778-1.879,1.415-2.199,1.415c-0.445,0-0.482,0.245-0.157,1.037

	c0.594,1.449,0.53,3.312-0.12,3.515c-0.428,0.133-0.416,0.394,0.055,1.214c0.535,0.933,0.502,1.172-0.31,2.23

	c-0.79,1.028-0.848,1.392-0.444,2.748c0.336,1.131,0.332,1.604-0.017,1.713c-0.945,0.292-0.452,0.916,1.691,2.139l2.173,1.241

	l-0.648,1.162c-0.356,0.64-0.647,1.707-0.647,2.372c0,1.1,0.168,1.241,1.853,1.554c1.757,0.326,1.852,0.416,1.833,1.742

	c-0.011,0.77-0.179,2.189-0.372,3.155c-0.337,1.683-0.315,1.737,0.537,1.314c1.811-0.899,3.728-0.536,5.329,1.009

	c0.826,0.798,2.091,1.729,2.81,2.068c1.706,0.805,4.055,2.87,4.833,4.248c0.339,0.601,0.618,1.875,0.618,2.831

	c0.002,2.515,3.772,9.365,5.266,9.567c1.571,0.212,5.395,4.086,6.201,6.281c0.654,1.78,0.646,1.885-0.16,2.285

	c-1.404,0.697-1.176,4.262,0.413,6.458c1.227,1.694,1.241,1.775,0.576,3.195c-0.375,0.802-0.795,2.252-0.932,3.223

	c-0.244,1.731-0.3,1.783-2.865,2.673c-3.938,1.366-4.142,1.469-4.142,2.069c0,0.307,1.03,1.033,2.289,1.616

	c1.259,0.583,3.123,1.807,4.142,2.721c1.715,1.537,1.853,1.817,1.853,3.774c0,2.445,0.597,4.189,1.434,4.189

	c0.321,0,1.14,0.539,1.821,1.198l1.237,1.198l-2.703,1.088c-1.849,0.744-2.63,1.265-2.472,1.647c0.127,0.308,0.023,1.459-0.231,2.56

	c-0.446,1.929-0.418,2.036,0.771,3.007c1.68,1.371,2.135,1.292,3.418-0.595c0.914-1.343,1.244-1.559,1.894-1.235

	c1.751,0.869,1.849,1.43,0.504,2.89c-1.182,1.282-1.28,1.637-1.296,4.67c-0.023,4.192,0.8,5.423,3.61,5.398

	C157.315,200.189,157.877,199.909,159.999,198.079L159.999,198.079z" />

<path id="Córdoba" fill="#E1E1E1" stroke="#007BB6" stroke-width="0.4014" d="M105.712,187.964c0.979-1.157,2.622-3.561,3.651-5.34

	c2.649-4.58,2.864-4.771,4.471-4.001c1.709,0.82,2.523,0.474,2.523-1.072c0-1.077,0.244-1.354,1.714-1.935

	c0.942-0.372,2.026-1.168,2.409-1.769c0.382-0.6,1.69-2.102,2.907-3.336l2.211-2.245l1.21,0.663

	c0.995,0.545,1.464,0.581,2.638,0.201c0.785-0.254,2.134-0.465,2.998-0.468c2-0.008,2.415-0.273,3.215-2.058

	c0.505-1.125,0.975-1.517,2.062-1.719c0.774-0.144,2.74-0.744,4.369-1.334c2.748-0.996,2.972-1.17,3.13-2.428

	c0.201-1.593-0.587-1.833-1.294-0.395c-0.412,0.839-2.172,1.533-4.177,1.648c-0.202,0.012-0.79-0.794-1.308-1.79

	c-1.008-1.938-2.736-3.113-5.398-3.67c-1.177-0.246-1.712-0.188-2.055,0.227c-0.255,0.307-1.499,0.932-2.764,1.388l-2.3,0.829

	l-0.424-1.035c-0.233-0.57-0.425-1.206-0.425-1.414s-0.693-0.378-1.541-0.378c-1.416,0-1.611-0.151-2.398-1.854

	c-0.969-2.097-1.07-3.522-0.382-5.354c0.404-1.077,0.336-1.442-0.461-2.481l-0.936-1.219l1.878-0.788

	c1.033-0.433,2.21-0.881,2.617-0.996c0.791-0.223,1.494-2.652,1.066-3.686c-0.159-0.385-0.823-0.609-1.801-0.609

	c-1.229,0-1.651-0.209-2.045-1.012c-0.273-0.556-0.852-1.011-1.286-1.011c-0.465,0-1.197-0.667-1.783-1.624

	c-0.778-1.27-1.659-1.927-4.046-3.017c-1.679-0.766-3.384-1.481-3.791-1.591c-0.435-0.116-0.861-0.801-1.034-1.659

	c-0.231-1.142-0.451-1.401-1.005-1.188c-1.533,0.588-2.235,0.659-2.235,0.228c0-0.263-0.788-0.452-1.886-0.452

	c-1.448,0-2.124,0.235-2.91,1.012c-0.563,0.556-1.506,1.011-2.095,1.011c-1.871,0-4.88,3.525-4.88,5.716

	c0,0.444-0.582,1.263-1.293,1.817c-0.767,0.599-1.408,1.577-1.575,2.401c-0.206,1.016-0.509,1.392-1.125,1.392

	c-0.481,0-1.163,0.521-1.586,1.211c-0.408,0.665-1.086,1.212-1.505,1.213c-0.959,0.003-0.954,0.097,0.107,1.712

	c0.479,0.729,0.874,1.87,0.878,2.538c0.011,1.556,0.124,1.688,3.374,3.986c2.224,1.571,2.725,2.139,2.725,3.082

	c0,0.637,0.096,1.399,0.212,1.695c0.117,0.297-0.969,1.904-2.413,3.572c-3.604,4.164-4.931,6.853-4.82,9.765

	c0.078,2.04-0.036,2.371-1.081,3.133c-0.82,0.599-1.344,1.546-1.758,3.18c-1.029,4.057-0.812,5.63,1.344,9.738l1.947,3.712

	l8.188-0.019l8.189-0.02L105.712,187.964L105.712,187.964L105.712,187.964L105.712,187.964L105.712,187.964L105.712,187.964

	L105.712,187.964z" />

<path id="Cesar" fill="#E1E1E1" stroke="#007BB6" stroke-width="0.4014" d="M184.971,177.969c1.097-1.538,1.12-1.672,0.451-2.62

	c-0.679-0.961-0.663-1.017,0.428-1.478c1.448-0.612,1.434-1.429-0.048-2.865c-0.65-0.629-1.621-2.27-2.158-3.646l-0.976-2.501

	l1.531-1.734c1.183-1.339,1.5-2.033,1.395-3.047c-0.09-0.865-0.397-1.358-0.899-1.447c-0.42-0.073-0.763,0.05-0.763,0.273

	c0,0.225-0.194,0.883-0.432,1.462c-0.386,0.941-0.537,1.003-1.417,0.572c-1.404-0.686-1.608-1.131-1.115-2.442

	c0.381-1.014,0.268-1.334-0.917-2.585c-0.743-0.785-1.351-1.516-1.351-1.624s0.883-1.827,1.962-3.82l1.962-3.624v-5.287v-5.287

	l1.429-0.554c1.249-0.484,1.559-0.929,2.458-3.519c0.773-2.229,1.591-3.567,3.295-5.392c3.29-3.522,5.025-6.056,5.025-7.335

	c0-0.694,0.492-1.591,1.293-2.359l1.293-1.237l-0.659-2.341l-0.659-2.341l1.327-1.555c1.226-1.437,1.327-1.799,1.327-4.758

	c0-3.031,0.07-3.266,1.308-4.365c0.719-0.64,1.308-1.274,1.308-1.41c0-0.476-7.949-1.197-8.76-0.795

	c-0.541,0.269-0.877,0.231-1.101-0.12c-0.177-0.278-0.596-0.905-0.932-1.393c-0.574-0.834-0.507-0.935,1.136-1.713

	c2.813-1.331,2.948-3.675,0.273-4.712c-0.799-0.31-1.578-0.93-1.731-1.379c-0.334-0.977-0.604-1.007-1.838-0.205

	c-1.268,0.824-1.612,0.164-0.825-1.584l0.636-1.413l-2.475-0.668c-2.281-0.616-2.65-0.618-4.694-0.021

	c-1.22,0.356-2.74,0.648-3.378,0.648c-0.639,0-1.161,0.182-1.161,0.404s0.49,0.404,1.09,0.404c0.883,0,1.09,0.199,1.09,1.05

	c0,0.577-0.41,1.584-0.91,2.236c-0.761,0.991-0.835,1.385-0.453,2.403c0.277,0.737,0.308,1.582,0.078,2.143

	c-0.406,0.989-2.22,2.28-3.207,2.28c-0.33,0-0.812,0.432-1.071,0.96c-0.468,0.952-2.806,1.74-4.601,1.551

	c-1.035-0.109-2.735,1.788-4.789,5.342c-1.504,2.604-1.614,2.999-1.2,4.323c0.292,0.935,1.621,2.557,3.7,4.518

	c2.234,2.107,3.388,3.543,3.703,4.609c0.252,0.853,0.84,2.084,1.307,2.735c1.477,2.062,0.753,2.496-3.966,2.382l-4.068-0.1

	l-1.395,1.551l-1.394,1.552l1.76,0.736c2.274,0.951,4.449,4.204,3.827,5.723c-0.5,1.219-0.499,1.33,0.007,1.33

	c0.224,0,0.905,0.176,1.512,0.39c1.098,0.388,1.101,0.4,0.445,2.124c-0.84,2.208-0.567,3.17,1.173,4.124

	c1.139,0.624,1.282,0.845,0.781,1.209c-0.773,0.562-0.554,2.67,0.279,2.67c0.339,0,1.007,0.71,1.484,1.578

	c0.758,1.378,0.787,1.642,0.227,2.072c-1.049,0.808-0.865,6.087,0.286,8.181c0.817,1.485,0.893,2.097,0.641,5.141

	c-0.157,1.9-0.399,4.231-0.538,5.182c-0.229,1.569-0.088,1.923,1.539,3.88c1.979,2.38,2.197,3.596,0.918,5.112

	c-0.469,0.556-0.857,1.42-0.862,1.921c-0.008,0.78,0.223,0.913,1.625,0.929c0.899,0.01,2.224,0.268,2.943,0.573

	s2.214,0.57,3.321,0.589C183.684,179.588,183.891,179.484,184.971,177.969L184.971,177.969L184.971,177.969L184.971,177.969

	L184.971,177.969L184.971,177.969L184.971,177.969L184.971,177.969L184.971,177.969L184.971,177.969z" />

<path id="Sucre" fill="#E1E1E1" stroke="#007BB6" stroke-width="0.4014" d="M142.176,160.989c0.174-0.003,0.62-0.551,0.992-1.219

	c0.471-0.845,0.999-1.213,1.74-1.213c0.631,0,1.261-0.343,1.549-0.843c0.397-0.688,0.293-1.111-0.571-2.325

	c-0.688-0.966-1.167-2.395-1.374-4.09c-0.284-2.339-0.226-2.67,0.571-3.235c0.881-0.626,0.882-0.642,0.054-2.346

	c-1.011-2.081-4.223-4.947-5.551-4.954c-1.386-0.007-5.792-8.382-5.792-11.008c0-1.474-0.279-2.097-1.56-3.485

	c-0.858-0.93-1.847-1.69-2.199-1.69s-1.583-0.819-2.736-1.82c-1.707-1.481-2.399-1.82-3.716-1.82c-0.89,0-1.977,0.178-2.416,0.396

	c-1.311,0.651-1.871-0.376-1.349-2.474c0.241-0.971,0.443-2.255,0.449-2.854c0.01-0.994-0.151-1.1-1.842-1.214

	c-1.804-0.121-1.853-0.161-1.839-1.54c0.008-0.778,0.153-2.053,0.323-2.831c0.292-1.339,0.209-1.476-1.54-2.517

	c-1.794-1.069-1.854-1.077-1.993-0.271c-0.079,0.457,0.166,1.149,0.545,1.538c0.885,0.907,0.869,1.151-0.194,2.991

	c-0.486,0.841-1.008,2.386-1.16,3.433c-0.176,1.207-0.587,2.107-1.124,2.461c-0.465,0.307-0.674,0.671-0.463,0.809

	c0.21,0.139,1.02,1.012,1.799,1.94c1.219,1.454,1.379,1.904,1.148,3.241c-0.258,1.497-2.726,4.576-3.668,4.576

	c-0.241,0-0.272,0.361-0.073,0.859c0.206,0.517,1.148,1.144,2.356,1.569c3.042,1.071,4.975,2.314,6.005,3.86

	c0.543,0.815,1.281,1.396,1.775,1.396c0.479,0,1.061,0.438,1.342,1.012c0.345,0.703,0.843,1.011,1.637,1.011

	c0.627,0,1.554,0.269,2.058,0.596c0.779,0.506,0.883,0.887,0.693,2.528c-0.302,2.612-0.708,3.209-2.385,3.509

	c-2.425,0.434-2.787,0.814-1.926,2.033c0.557,0.789,0.63,1.243,0.292,1.828c-0.584,1.013-0.574,3.614,0.021,5.198

	c0.393,1.043,0.73,1.271,2.035,1.375c1.313,0.104,1.64,0.328,2.037,1.396l0.472,1.274l1.635-0.609

	c0.899-0.335,1.635-0.852,1.635-1.148c0-0.892,0.603-0.978,3.084-0.438c3.372,0.731,5.871,2.312,6.513,4.115

	c0.434,1.22,0.682,1.431,1.458,1.237C141.44,161.099,142.002,160.992,142.176,160.989L142.176,160.989L142.176,160.989

	L142.176,160.989L142.176,160.989L142.176,160.989L142.176,160.989L142.176,160.989L142.176,160.989L142.176,160.989

	L142.176,160.989L142.176,160.989L142.176,160.989L142.176,160.989z" />

<path id="Magdalena" fill="#E1E1E1" stroke="#007BB6" stroke-width="0.4014" d="M167.5,140.659

	c-1.242-1.273-1.479-2.556-0.764-4.141c0.607-1.35,0.602-1.362-0.683-1.624c-1.645-0.335-1.875-0.701-1.245-1.982

	c0.428-0.872,0.349-1.311-0.512-2.814c-0.794-1.39-1.551-2.024-3.436-2.882l-2.417-1.101l1.3-1.028

	c0.715-0.566,1.621-1.477,2.014-2.023c0.674-0.938,0.948-0.994,4.913-1.012c4.158-0.017,4.193-0.025,3.62-0.868

	c-0.318-0.467-0.919-1.697-1.336-2.732c-0.504-1.253-1.819-2.885-3.932-4.877c-2.306-2.174-3.296-3.438-3.618-4.613

	c-0.413-1.509-0.316-1.837,1.417-4.795c2.506-4.276,4.856-6.88,5.655-6.265c0.996,0.767,3.182,0.062,3.921-1.264

	c0.44-0.789,0.993-1.18,1.669-1.18c0.556,0,1.361-0.358,1.789-0.797c0.648-0.665,0.707-1.06,0.347-2.371

	c-0.358-1.312-0.297-1.735,0.37-2.54c0.44-0.531,0.805-1.375,0.811-1.876c0.008-0.739-0.231-0.91-1.272-0.91

	c-1.692,0-2.005-0.574-0.855-1.568l0.934-0.808l-0.981-1.473c-1.156-1.736-1.043-3.861,0.411-7.699

	c0.495-1.309,0.901-2.431,0.901-2.494s-1.295-0.115-2.878-0.115c-2.445,0-3.436-0.242-6.583-1.61

	c-2.835-1.232-3.892-1.518-4.504-1.213c-0.44,0.218-1.254,0.401-1.81,0.407c-0.555,0.007-1.659,0.511-2.452,1.122l-1.442,1.11

	l0.451,2.594c0.446,2.573,0.439,2.607-0.955,4.292c-1.292,1.562-1.606,1.718-3.907,1.94c-1.377,0.134-2.946,0.073-3.489-0.135

	c-4.103-1.573-10.021-3.653-10.397-3.653c-0.25,0,0.232,0.779,1.074,1.731c2.026,2.295,2.522,3.612,2.544,6.763

	c0.023,3.344-0.747,5.848-2.415,7.85c-0.801,0.962-1.445,2.336-1.645,3.506c-0.181,1.059-0.848,3.077-1.483,4.486

	s-1.252,2.85-1.372,3.202c-0.133,0.392,0.556,1.379,1.776,2.544c1.097,1.046,1.994,2.137,1.994,2.424c0,0.286-0.49,0.948-1.09,1.471

	c-1.533,1.336-1.394,2.875,0.6,6.623c1.558,2.929,1.672,3.374,1.469,5.727l-0.221,2.552l1.861,0.518

	c1.476,0.41,2.007,0.817,2.564,1.969c0.386,0.799,1.309,2.134,2.05,2.968c1.183,1.329,1.48,1.468,2.434,1.132

	c0.647-0.229,1.336-0.236,1.704-0.021c0.339,0.199,1.421,0.365,2.403,0.369c1.657,0.006,2.023,0.236,5.12,3.226

	c2.643,2.552,3.72,3.309,5.19,3.646c1.021,0.235,2.444,0.588,3.163,0.784C168.313,141.685,168.451,141.633,167.5,140.659

	L167.5,140.659L167.5,140.659L167.5,140.659L167.5,140.659L167.5,140.659L167.5,140.659L167.5,140.659L167.5,140.659L167.5,140.659

	L167.5,140.659L167.5,140.659L167.5,140.659L167.5,140.659z" />

<path id="Atlántico" fill="#E1E1E1" stroke="#007BB6" stroke-width="0.4014" d="M136.55,99.366

	c0.403-1.188,0.733-2.572,0.733-3.076c0-0.505,0.623-1.648,1.385-2.54c2.422-2.838,3.288-8.353,1.765-11.249

	c-1.085-2.062-3.285-4.807-3.867-4.825c-0.275-0.008-1.072,0.59-1.771,1.328c-0.699,0.739-1.604,1.462-2.011,1.606

	c-0.407,0.146-0.946,0.685-1.199,1.199c-0.253,0.514-1.379,1.466-2.503,2.114s-2.861,1.788-3.859,2.534l-1.815,1.355l1.017,1.66

	c1.01,1.65,1.012,1.67,0.202,3.071l-0.814,1.41l2.227,1.863c3.106,2.6,3.768,2.985,4.725,2.754c0.559-0.136,1.456,0.316,2.698,1.358

	c1.023,0.858,1.972,1.569,2.108,1.578C135.705,101.517,136.146,100.553,136.55,99.366L136.55,99.366z" />

<path id="La_Guajira" fill="#E1E1E1" stroke="#007BB6" stroke-width="0.4014" d="M195.316,97.089

	c0.809,0.216,2.889,0.392,4.623,0.392c3.699,0,3.55,0.135,6.027-5.461c3.229-7.29,5.657-11.271,8.345-13.685

	c2.24-2.012,2.744-2.276,4.336-2.284l1.801-0.008l4.291-7.624l4.292-7.624l9.82-2.994c5.4-1.646,9.964-3.175,10.141-3.397

	c0.176-0.223,0.322-0.905,0.326-1.517c0.006-0.961,0.183-1.112,1.29-1.112c0.732,0,1.528-0.312,1.853-0.727

	c0.313-0.399,1.306-1.143,2.205-1.651c0.898-0.508,1.635-1.229,1.634-1.6s-0.688-1.73-1.526-3.021

	c-0.838-1.29-1.524-2.688-1.524-3.105c0-1.177-1.042-1.883-4.228-2.867c-1.613-0.498-3.235-1.243-3.604-1.655

	c-0.461-0.516-1.521-0.83-3.395-1.008c-2.709-0.255-2.725-0.251-2.725,0.785c0,1.059-1.271,1.819-2.176,1.3

	c-0.242-0.139-0.44-0.043-0.44,0.213c0,0.573-1.764,1.979-2.507,1.996c-0.3,0.008-0.545-0.261-0.545-0.597

	c0-0.493-0.154-0.52-0.811-0.14c-0.756,0.438-0.767,0.574-0.15,2.03c0.363,0.857,0.581,1.604,0.484,1.658

	c-0.098,0.054-0.83,0.523-1.629,1.043c-1.277,0.831-1.604,0.886-2.725,0.455c-1.357-0.521-1.599-1.142-0.75-1.929

	c0.612-0.568-0.392-0.651-2.699-0.223c-1.396,0.259-1.409,0.283-1.143,2.09c0.406,2.746-1.959,6.889-5.405,9.47

	c-2.262,1.693-3.364,2.145-9.657,3.948c-6.484,1.858-7.274,2.189-9.074,3.789c-1.084,0.965-3.149,2.576-4.587,3.582

	c-1.439,1.006-3.466,2.685-4.506,3.73c-1.664,1.675-2.238,1.972-4.795,2.478c-1.598,0.316-4.208,0.691-5.798,0.835l-2.892,0.259

	l-0.922,2.945c-1.149,3.671-1.165,5.675-0.055,7.363c0.981,1.493,1.764,1.608,4.913,0.722c1.935-0.545,2.272-0.522,5.013,0.33

	c2.598,0.809,2.922,1.022,2.795,1.847c-0.088,0.566,0.032,0.83,0.308,0.672c0.249-0.144,0.769,0.307,1.154,0.998

	c0.386,0.692,1.338,1.506,2.117,1.808c2.792,1.082,2.905,4.798,0.186,6.103c-0.673,0.322-1.223,0.733-1.223,0.913

	c0,0.636,0.561,0.833,1.31,0.461C193.56,96.841,194.402,96.845,195.316,97.089L195.316,97.089L195.316,97.089L195.316,97.089

	L195.316,97.089L195.316,97.089L195.316,97.089L195.316,97.089L195.316,97.089L195.316,97.089z" />

<path id="_x31_18" fill="#E1E1E1" stroke="#007BB6" stroke-width="0.4014" d="M31.699,74.411c0.958-1.13,2.525-3.919,5.674-10.099

	c2.002-3.928,2.186-4.551,2.455-8.291c0.314-4.383,1.489-7.547,3.539-9.536c1.451-1.407,1.929-3.178,1.929-7.143v-3.336l1.521-0.914

	c1.754-1.055,1.711-0.729,0.902-6.765c-0.433-3.228-0.829-4.778-1.304-5.101c-0.375-0.255-0.683-0.656-0.683-0.893

	c0-0.563,2.729-1.391,3.583-1.087c0.464,0.165,0.729-0.074,0.877-0.795c0.188-0.916-0.06-1.154-2.233-2.146

	c-1.354-0.617-2.509-1.432-2.587-1.824c-0.18-0.899,0.745-0.909,2.737-0.028c1.985,0.879,2.311,0.517,1.129-1.257

	c-0.941-1.413-0.896-2.254,0.12-2.254c0.288,0,0.762-0.354,1.053-0.787c0.639-0.949,3.089-1.634,5.856-1.637

	c3.4-0.004,4.667-0.896,2.034-1.434c-0.759-0.154-1.777-0.624-2.262-1.043c-0.484-0.419-1.404-0.762-2.042-0.762

	c-0.787,0-1.497-0.408-2.206-1.268c-0.576-0.697-1.353-1.596-1.728-1.997c-0.375-0.401-1.059-1.195-1.521-1.766

	s-1.136-1.029-1.499-1.019c-0.363,0.01-2.717,1.83-5.232,4.045c-2.515,2.214-4.797,4.026-5.072,4.026

	c-0.904,0-1.908,1.961-1.908,3.727c0,3.477-1.115,6.987-2.946,9.274c-0.953,1.191-2.152,2.514-2.664,2.938

	c-1.15,0.953-1.238,3.304-0.225,6.061c0.675,1.838,0.668,1.95-0.152,2.66c-0.522,0.451-0.955,1.509-1.108,2.711

	c-0.139,1.084-0.558,2.786-0.932,3.783c-0.745,1.984-0.911,3.805-0.315,3.463c0.208-0.119,0.711,0.125,1.118,0.543

	c0.408,0.418,1.415,0.877,2.238,1.02c0.823,0.144,1.497,0.447,1.497,0.674c0,0.746-0.892,1.978-1.432,1.978

	c-0.364,0-0.556,1.009-0.613,3.235c-0.046,1.78-0.137,3.737-0.202,4.349c-0.065,0.612,0.011,2.218,0.168,3.569l0.287,2.456

	l-1.938,2.192c-1.154,1.306-2.036,2.766-2.18,3.61c-0.133,0.78-0.315,1.754-0.405,2.164c-0.09,0.409,0.51,1.882,1.333,3.271

	c1.402,2.366,1.591,2.523,2.992,2.479C30.387,75.427,31.114,75.101,31.699,74.411L31.699,74.411L31.699,74.411L31.699,74.411

	L31.699,74.411L31.699,74.411L31.699,74.411L31.699,74.411L31.699,74.411L31.699,74.411z" />

<path id="San_Andrés_y_Providencia_1_" fill="#E1E1E1" stroke="#007BB6" stroke-width="0.4014" d="M77.309,41.692

	c0.479-0.49,1.89-0.966,3.815-1.285c2.716-0.45,3.202-0.676,4.373-2.028c1.433-1.654,3.907-2.78,6.128-2.79

	c1.676-0.008,2.026-0.208,3.274-1.867c0.733-0.976,1.076-2.344,1.49-5.957l0.537-4.69l1.65-0.612c0.908-0.337,1.65-0.886,1.65-1.22

	c0-0.531-0.217-0.526-1.759,0.046c-1.647,0.612-1.813,0.607-2.616-0.065c-1.152-0.967-1.078-1.584,0.257-2.148

	c1.05-0.443,1.074-0.522,0.436-1.368c-0.906-1.2-0.922-5.284-0.023-5.976c0.868-0.668,0.829-1.214-0.085-1.214

	c-0.972,0-3.185-1.985-3.185-2.857c0-0.376-0.294-0.91-0.654-1.188c-0.535-0.412-0.654-0.386-0.654,0.146

	c0,0.356-0.481,0.761-1.069,0.897c-0.955,0.223-1.083,0.492-1.199,2.526l-0.129,2.278l-2.58,1.581l-2.579,1.582l-1.457-0.729

	c-1.433-0.716-1.491-0.712-3.552,0.248c-1.801,0.838-2.288,1.345-3.46,3.604c-1.836,3.538-2.582,5.798-2.869,8.696

	c-0.132,1.335-0.335,2.825-0.452,3.311c-0.118,0.491,0.065,1.098,0.412,1.364c0.343,0.265,0.624,0.735,0.624,1.048

	c0,0.312,0.393,1.603,0.872,2.869c1.054,2.782,1.062,2.936,0.164,2.936c-0.566,0-0.652,0.266-0.431,1.315

	c0.249,1.174,1.252,2.325,2.026,2.325C76.422,42.47,76.892,42.12,77.309,41.692L77.309,41.692L77.309,41.692L77.309,41.692

	L77.309,41.692L77.309,41.692z" />

<path id="San_Andrés_y_Providencia_2_" fill="#E1E1E1" stroke="#007BB6" stroke-width="0.4014" d="M87.567,5.181

	c0.61-0.607,0.734-0.975,0.396-1.169c-0.359-0.206-0.307-0.792,0.191-2.147C88.823,0.044,88.818,0,87.935,0

	c-2.253,0-4.368,0.963-5.056,2.303c-0.673,1.309-0.66,1.366,0.564,2.552C84.925,6.29,86.341,6.402,87.567,5.181L87.567,5.181z" />

<path id="San_Andrés_y_Providencia" fill="#E1E1E1" stroke="#007BB6" stroke-width="0.4014" d="M31.699,74.411

	c0.958-1.13,2.525-3.919,5.674-10.099c2.002-3.928,2.186-4.551,2.455-8.291c0.314-4.383,1.489-7.547,3.539-9.536

	c1.451-1.407,1.929-3.178,1.929-7.143v-3.336l1.521-0.914c1.754-1.055,1.711-0.729,0.902-6.765

	c-0.433-3.228-0.829-4.778-1.304-5.101c-0.375-0.255-0.683-0.656-0.683-0.893c0-0.563,2.729-1.391,3.583-1.087

	c0.464,0.165,0.729-0.074,0.877-0.795c0.188-0.916-0.06-1.154-2.233-2.146c-1.354-0.617-2.509-1.432-2.587-1.824

	c-0.18-0.899,0.745-0.909,2.737-0.028c1.985,0.879,2.311,0.517,1.129-1.257c-0.941-1.413-0.896-2.254,0.12-2.254

	c0.288,0,0.762-0.354,1.053-0.787c0.639-0.949,3.089-1.634,5.856-1.637c3.4-0.004,4.667-0.896,2.034-1.434

	c-0.759-0.154-1.777-0.624-2.262-1.043c-0.484-0.419-1.404-0.762-2.042-0.762c-0.787,0-1.497-0.408-2.206-1.268

	c-0.576-0.697-1.353-1.596-1.728-1.997c-0.375-0.401-1.059-1.195-1.521-1.766s-1.136-1.029-1.499-1.019

	c-0.363,0.01-2.717,1.83-5.232,4.045c-2.515,2.214-4.797,4.026-5.072,4.026c-0.904,0-1.908,1.961-1.908,3.727

	c0,3.477-1.115,6.987-2.946,9.274c-0.953,1.191-2.152,2.514-2.664,2.938c-1.15,0.953-1.238,3.304-0.225,6.061

	c0.675,1.838,0.668,1.95-0.152,2.66c-0.522,0.451-0.955,1.509-1.108,2.711c-0.139,1.084-0.558,2.786-0.932,3.783

	c-0.745,1.984-0.911,3.805-0.315,3.463c0.208-0.119,0.711,0.125,1.118,0.543c0.408,0.418,1.415,0.877,2.238,1.02

	c0.823,0.144,1.497,0.447,1.497,0.674c0,0.746-0.892,1.978-1.432,1.978c-0.364,0-0.556,1.009-0.613,3.235

	c-0.046,1.78-0.137,3.737-0.202,4.349c-0.065,0.612,0.011,2.218,0.168,3.569l0.287,2.456l-1.938,2.192

	c-1.154,1.306-2.036,2.766-2.18,3.61c-0.133,0.78-0.315,1.754-0.405,2.164c-0.09,0.409,0.51,1.882,1.333,3.271

	c1.402,2.366,1.591,2.523,2.992,2.479C30.387,75.427,31.114,75.101,31.699,74.411L31.699,74.411L31.699,74.411L31.699,74.411

	L31.699,74.411L31.699,74.411L31.699,74.411L31.699,74.411L31.699,74.411L31.699,74.411z" />

<path id="Antioquia" fill="#E1E1E1" stroke="#007BB6" stroke-width="0.4014" d="M105.118,246.333

	c1.312-0.463,3.355-0.812,4.752-0.812h2.45l-0.052-3.135c-0.049-2.923,0.006-3.125,0.819-2.998c0.479,0.074,1.265,0.474,1.745,0.886

	c0.85,0.731,0.901,0.73,1.962-0.013c1.082-0.758,1.097-0.756,2.288,0.302c0.916,0.813,1.202,1.453,1.212,2.708

	c0.008,0.904,0.253,1.933,0.545,2.285c0.755,0.913,2.393,1.656,2.684,1.22c0.134-0.201,1.319-1.028,2.634-1.838

	c1.701-1.048,2.361-1.702,2.29-2.27c-0.082-0.648,0.593-1.061,3.605-2.201c4.38-1.66,4.905-1.705,5.822-0.508l0.697,0.91

	l1.444-1.536c1.057-1.124,1.655-1.462,2.228-1.258c0.607,0.216,0.751,0.104,0.641-0.501c-0.078-0.429,0.283-1.281,0.802-1.894

	c1.352-1.595,2.078-4.985,1.305-6.095c-1.443-2.069-1.284-2.817,1.143-5.341c1.262-1.312,2.636-2.887,3.054-3.499

	c0.418-0.611,1.045-1.112,1.395-1.112c0.502,0,0.584-0.403,0.389-1.921c-0.136-1.057-0.335-2.18-0.442-2.495

	c-0.314-0.923,2.436-3.27,3.833-3.27c0.812,0,1.448-0.333,1.925-1.009c0.393-0.556,1.476-1.53,2.407-2.166s2.39-2.001,3.241-3.035

	c0.953-1.158,1.889-1.879,2.44-1.879c1.438,0,3.426-1.296,3.426-2.232c0-0.465-0.591-1.59-1.313-2.502

	c-1.122-1.415-1.249-1.814-0.872-2.735c1.165-2.843,0.401-2.591-3.652,1.207l-4.094,3.836h-2.207c-2.12,0-2.259-0.071-3.535-1.792

	c-1.197-1.614-1.329-2.1-1.329-4.881c0-2.672,0.147-3.269,1.09-4.415c1.162-1.413,1.328-1.856,0.697-1.856

	c-0.216,0-0.798,0.638-1.293,1.416c-0.495,0.778-1.25,1.415-1.678,1.415c-0.428-0.001-1.61-0.684-2.628-1.518l-1.851-1.516

	l0.464-1.82c0.255-1.001,0.356-2.324,0.225-2.94c-0.221-1.037-0.059-1.195,2.15-2.102c1.314-0.539,2.389-1.09,2.389-1.225

	c0-0.134-0.624-0.487-1.386-0.784c-1.557-0.607-2.519-2.779-2.531-5.712c-0.008-1.972-1.563-3.548-5.13-5.201

	c-1.259-0.584-2.533-1.422-2.83-1.862c-0.787-1.17-1.139-1.005-2.045,0.956l-0.812,1.758l-2.875,0.249

	c-1.582,0.137-3.267,0.443-3.746,0.682c-0.65,0.323-1.181,0.283-2.1-0.158c-1.211-0.581-1.258-0.559-3.165,1.482

	c-1.064,1.14-2.255,2.552-2.647,3.138c-0.391,0.586-1.323,1.301-2.071,1.588c-1.072,0.413-1.359,0.767-1.359,1.677

	c0,1.609-1.914,2.571-3.497,1.759c-0.594-0.306-1.196-0.562-1.337-0.569c-0.141-0.009-1.22,1.636-2.397,3.653

	s-3.082,4.748-4.232,6.067l-2.091,2.399h-8.477h-8.477l-2.043-3.742c-1.142-2.09-2.179-4.634-2.352-5.764

	c-0.425-2.791,0.652-7.403,1.995-8.548c0.782-0.665,1.038-1.359,1.122-3.033c0.144-2.897,1.577-5.817,4.749-9.676

	c2.532-3.08,3.167-4.704,2.291-5.862c-0.176-0.232-1.546-1.29-3.045-2.35c-2.29-1.618-2.725-2.122-2.725-3.155

	c0-1.233-1.164-3.983-1.684-3.979c-0.153,0.001-2.498,1.552-5.211,3.446l-4.933,3.443l-1.767-0.44

	c-1.707-0.427-1.809-0.396-3.005,0.901c-1.262,1.368-1.655,2.216-0.801,1.727c0.709-0.407,3.45,1.112,3.45,1.913

	c0,0.383,0.292,0.848,0.648,1.033c0.469,0.243,0.832,1.896,1.313,5.986c0.366,3.107,0.769,5.911,0.896,6.231

	c0.126,0.319-0.219,1.532-0.769,2.694c-0.839,1.775-1.253,2.184-2.597,2.559c-1.386,0.388-1.821,0.329-3.27-0.441

	c-0.919-0.488-1.747-0.94-1.838-1.004c-0.437-0.303,1.123-2.782,2.519-4.004c1.224-1.071,1.447-1.473,1.032-1.857

	c-0.415-0.385-0.704-0.345-1.336,0.188c-0.444,0.373-1.017,0.678-1.271,0.678c-0.541,0-0.993,0.942-0.993,2.065

	c0,1.226-1.65,5.292-2.667,6.574c-1.269,1.599-0.74,2.337,3.804,5.314c2.62,1.718,4.431,3.314,6.19,5.461

	c2.059,2.513,2.739,3.068,3.963,3.235c1.074,0.147,1.938,0.707,3.163,2.051c1.902,2.086,2.134,3.455,1.227,7.253

	c-0.852,3.567-0.694,3.394-2.275,2.512c-0.834-0.466-2.617-0.888-4.333-1.027l-2.917-0.236l0.593,1.561

	c0.556,1.461,0.531,1.614-0.381,2.409c-0.622,0.543-1.549,0.85-2.565,0.85c-1.776,0-2.495,0.78-2.493,2.703

	c0.002,1.462,1.073,3.03,3.911,5.729c2.412,2.293,2.504,2.666,1.533,6.173c-0.216,0.779,0.069,1.648,1.092,3.33l1.385,2.276

	l2.687-0.062c1.478-0.033,3.079-0.286,3.559-0.562c0.48-0.276,2.736-0.564,5.014-0.641l4.142-0.138l0.132,2.613

	c0.155,3.068,0.559,3.656,2.511,3.656c0.795,0,1.529,0.136,1.63,0.303c0.101,0.167-0.004,1.81-0.235,3.651

	c-0.354,2.835-0.312,3.498,0.278,4.334c0.383,0.542,0.701,1.584,0.707,2.314c0.005,0.731,0.393,1.784,0.862,2.341

	c0.469,0.556,0.858,1.375,0.865,1.819C98.929,247.291,102.103,247.396,105.118,246.333L105.118,246.333L105.118,246.333

	L105.118,246.333L105.118,246.333L105.118,246.333L105.118,246.333L105.118,246.333L105.118,246.333L105.118,246.333

	L105.118,246.333L105.118,246.333L105.118,246.333L105.118,246.333z" />

</svg>

